M48
;DRILL file {KiCad 5.0.2+dfsg1-1} date Tue 06 Aug 2019 01:46:53 AM CEST
;FORMAT={-:-/ absolute / inch / decimal}
FMAT,2
INCH,TZ
T1C0.0157
T2C0.0295
T3C0.0299
T4C0.0315
T5C0.0320
T6C0.0394
T7C0.0433
T8C0.0472
T9C0.0492
T10C0.0531
T11C0.0598
%
G90
G05
T1
X1.7657Y-2.9557
X1.7657Y-3.624
X1.8159Y-3.5089
X2.0655Y-3.6244
X2.4469Y-3.5148
X2.497Y-2.628
X2.5177Y-3.5831
X2.5433Y-2.627
X2.5433Y-2.7904
X2.7618Y-2.3395
X2.93Y-2.9557
X3.0205Y-2.9557
X3.0205Y-3.2038
X3.2333Y-1.372
X3.6457Y-1.4793
T2
X3.4005Y-2.6298
X3.4505Y-2.6298
X3.5005Y-2.6298
T3
X1.7601Y-1.4774
X1.7601Y-1.8022
X1.9609Y-1.4774
X1.9609Y-1.8022
T4
X3.7105Y-2.5898
X3.7105Y-2.6882
X2.8905Y-2.7598
X2.9889Y-2.7598
X3.1505Y-2.0549
X3.1505Y-2.4549
X1.2405Y-1.3998
X1.2405Y-1.7998
X3.2805Y-2.0549
X3.2805Y-2.4549
X3.0205Y-2.0553
X3.0205Y-2.4553
X3.4305Y-3.0798
X3.4305Y-3.1979
X2.9311Y-1.4429
X2.9311Y-1.5413
X3.2005Y-2.5913
X3.2005Y-2.6898
X1.7905Y-2.7898
X2.1905Y-2.7898
X2.3005Y-2.7898
X2.7005Y-2.7898
X2.7825Y-2.1102
X2.8809Y-2.1102
X1.4405Y-1.4998
X1.4405Y-1.7998
X1.5405Y-1.4998
X1.5405Y-1.7998
T5
X3.2805Y-3.3398
X3.2805Y-3.6398
X3.4805Y-3.3398
X3.4805Y-3.6398
X2.9305Y-3.3398
X2.9305Y-3.6398
X3.1305Y-3.3398
X3.1305Y-3.6398
T6
X2.238Y-1.4439
X3.6476Y-1.8071
X2.6705Y-3.3098
X2.6705Y-3.4098
X2.6705Y-3.5098
X2.6705Y-3.6098
X2.7705Y-3.3098
X2.7705Y-3.4098
X2.7705Y-3.5098
X2.7705Y-3.6098
T7
X3.4205Y-2.0434
X3.4205Y-2.4434
T8
X3.5805Y-1.9398
X3.5805Y-2.4398
X3.7548Y-1.9401
X3.7548Y-2.4401
X2.6205Y-1.9398
X2.6205Y-2.4398
T9
X1.2718Y-2.1813
X1.2718Y-2.3782
X2.4293Y-1.9766
X2.4293Y-2.5829
T10
X2.7374Y-1.0898
X2.7374Y-1.2898
X3.3405Y-1.0898
X3.3405Y-1.2898
T11
X2.2005Y-1.1898
X2.4005Y-1.1898
X1.5605Y-1.1898
X1.7605Y-1.1898
X1.9605Y-1.1898
T0
M30
