G04 #@! TF.GenerationSoftware,KiCad,Pcbnew,5.0.2+dfsg1-1*
G04 #@! TF.CreationDate,2019-08-06T01:46:57+02:00*
G04 #@! TF.ProjectId,ceiling-light-dimmable,6365696c-696e-4672-9d6c-696768742d64,v1.1.0*
G04 #@! TF.SameCoordinates,Original*
G04 #@! TF.FileFunction,Copper,L1,Top*
G04 #@! TF.FilePolarity,Positive*
%FSLAX46Y46*%
G04 Gerber Fmt 4.6, Leading zero omitted, Abs format (unit mm)*
G04 Created by KiCad (PCBNEW 5.0.2+dfsg1-1) date Tue 06 Aug 2019 01:46:57 AM CEST*
%MOMM*%
%LPD*%
G01*
G04 APERTURE LIST*
G04 #@! TA.AperFunction,ComponentPad*
%ADD10R,1.700000X1.700000*%
G04 #@! TD*
G04 #@! TA.AperFunction,ComponentPad*
%ADD11O,1.700000X1.700000*%
G04 #@! TD*
G04 #@! TA.AperFunction,ComponentPad*
%ADD12R,1.600000X1.600000*%
G04 #@! TD*
G04 #@! TA.AperFunction,ComponentPad*
%ADD13C,1.600000*%
G04 #@! TD*
G04 #@! TA.AperFunction,SMDPad,CuDef*
%ADD14R,0.650000X1.750000*%
G04 #@! TD*
G04 #@! TA.AperFunction,ComponentPad*
%ADD15C,1.397000*%
G04 #@! TD*
G04 #@! TA.AperFunction,ComponentPad*
%ADD16R,2.200000X2.200000*%
G04 #@! TD*
G04 #@! TA.AperFunction,ComponentPad*
%ADD17O,2.200000X2.200000*%
G04 #@! TD*
G04 #@! TA.AperFunction,ComponentPad*
%ADD18C,1.160000*%
G04 #@! TD*
G04 #@! TA.AperFunction,ComponentPad*
%ADD19C,2.350000*%
G04 #@! TD*
G04 #@! TA.AperFunction,SMDPad,CuDef*
%ADD20R,1.000000X1.500000*%
G04 #@! TD*
G04 #@! TA.AperFunction,ComponentPad*
%ADD21O,1.600000X1.600000*%
G04 #@! TD*
G04 #@! TA.AperFunction,SMDPad,CuDef*
%ADD22R,0.600000X1.550000*%
G04 #@! TD*
G04 #@! TA.AperFunction,SMDPad,CuDef*
%ADD23R,3.800000X2.000000*%
G04 #@! TD*
G04 #@! TA.AperFunction,SMDPad,CuDef*
%ADD24R,1.500000X2.000000*%
G04 #@! TD*
G04 #@! TA.AperFunction,SMDPad,CuDef*
%ADD25R,9.400000X10.800000*%
G04 #@! TD*
G04 #@! TA.AperFunction,SMDPad,CuDef*
%ADD26R,4.600000X1.100000*%
G04 #@! TD*
G04 #@! TA.AperFunction,ComponentPad*
%ADD27O,1.050000X1.500000*%
G04 #@! TD*
G04 #@! TA.AperFunction,ComponentPad*
%ADD28R,1.050000X1.500000*%
G04 #@! TD*
G04 #@! TA.AperFunction,ComponentPad*
%ADD29C,2.200000*%
G04 #@! TD*
G04 #@! TA.AperFunction,SMDPad,CuDef*
%ADD30R,5.000000X5.000000*%
G04 #@! TD*
G04 #@! TA.AperFunction,SMDPad,CuDef*
%ADD31R,0.900000X2.000000*%
G04 #@! TD*
G04 #@! TA.AperFunction,SMDPad,CuDef*
%ADD32R,2.000000X0.900000*%
G04 #@! TD*
G04 #@! TA.AperFunction,ComponentPad*
%ADD33C,2.400000*%
G04 #@! TD*
G04 #@! TA.AperFunction,ComponentPad*
%ADD34O,2.400000X2.400000*%
G04 #@! TD*
G04 #@! TA.AperFunction,ComponentPad*
%ADD35R,3.000000X3.000000*%
G04 #@! TD*
G04 #@! TA.AperFunction,ComponentPad*
%ADD36C,3.000000*%
G04 #@! TD*
G04 #@! TA.AperFunction,ViaPad*
%ADD37C,0.800000*%
G04 #@! TD*
G04 #@! TA.AperFunction,ViaPad*
%ADD38C,2.000000*%
G04 #@! TD*
G04 #@! TA.AperFunction,Conductor*
%ADD39C,0.250000*%
G04 #@! TD*
G04 #@! TA.AperFunction,Conductor*
%ADD40C,3.000000*%
G04 #@! TD*
G04 #@! TA.AperFunction,Conductor*
%ADD41C,1.000000*%
G04 #@! TD*
G04 #@! TA.AperFunction,Conductor*
%ADD42C,2.000000*%
G04 #@! TD*
G04 #@! TA.AperFunction,Conductor*
%ADD43C,0.500000*%
G04 #@! TD*
G04 #@! TA.AperFunction,Conductor*
%ADD44C,0.254000*%
G04 #@! TD*
G04 APERTURE END LIST*
D10*
G04 #@! TO.P,J3,1*
G04 #@! TO.N,/ESP_EN*
X67831000Y-91688000D03*
D11*
G04 #@! TO.P,J3,2*
G04 #@! TO.N,GND*
X70371000Y-91688000D03*
G04 #@! TO.P,J3,3*
G04 #@! TO.N,/ESP_TXD0*
X67831000Y-89148000D03*
G04 #@! TO.P,J3,4*
G04 #@! TO.N,GND*
X70371000Y-89148000D03*
G04 #@! TO.P,J3,5*
G04 #@! TO.N,/ESP_RXD0*
X67831000Y-86608000D03*
G04 #@! TO.P,J3,6*
G04 #@! TO.N,+3V3*
X70371000Y-86608000D03*
G04 #@! TO.P,J3,7*
G04 #@! TO.N,/ESP_GPIO_00*
X67831000Y-84068000D03*
G04 #@! TO.P,J3,8*
G04 #@! TO.N,+5V*
X70371000Y-84068000D03*
G04 #@! TD*
D12*
G04 #@! TO.P,C5,1*
G04 #@! TO.N,+3V3*
X70675000Y-53600000D03*
D13*
G04 #@! TO.P,C5,2*
G04 #@! TO.N,GND*
X73175000Y-53600000D03*
G04 #@! TD*
G04 #@! TO.P,C4,2*
G04 #@! TO.N,+5V*
X81293000Y-65820000D03*
D12*
G04 #@! TO.P,C4,1*
G04 #@! TO.N,GND*
X81293000Y-68320000D03*
G04 #@! TD*
G04 #@! TO.P,C1,1*
G04 #@! TO.N,GND*
X73419000Y-70098000D03*
D13*
G04 #@! TO.P,C1,2*
G04 #@! TO.N,/ESP_GPIO_25*
X75919000Y-70098000D03*
G04 #@! TD*
G04 #@! TO.P,C2,2*
G04 #@! TO.N,GND*
X74450000Y-39150000D03*
D12*
G04 #@! TO.P,C2,1*
G04 #@! TO.N,Net-(C2-Pad1)*
X74450000Y-36650000D03*
G04 #@! TD*
G04 #@! TO.P,C3,1*
G04 #@! TO.N,Net-(C3-Pad1)*
X94247000Y-65780000D03*
D13*
G04 #@! TO.P,C3,2*
G04 #@! TO.N,GND*
X94247000Y-68280000D03*
G04 #@! TD*
D14*
G04 #@! TO.P,U4,10*
G04 #@! TO.N,Net-(R10-Pad1)*
X70149000Y-59424000D03*
G04 #@! TO.P,U4,9*
G04 #@! TO.N,Net-(R11-Pad1)*
X71149000Y-59424000D03*
G04 #@! TO.P,U4,8*
G04 #@! TO.N,Net-(R12-Pad1)*
X72149000Y-59424000D03*
G04 #@! TO.P,U4,7*
G04 #@! TO.N,Net-(Q4-Pad2)*
X73149000Y-59424000D03*
G04 #@! TO.P,U4,6*
G04 #@! TO.N,Net-(C3-Pad1)*
X74149000Y-59424000D03*
G04 #@! TO.P,U4,5*
G04 #@! TO.N,GND*
X74149000Y-65024000D03*
G04 #@! TO.P,U4,4*
G04 #@! TO.N,/ESP_GPIO_22*
X73149000Y-65024000D03*
G04 #@! TO.P,U4,3*
G04 #@! TO.N,+5V*
X72149000Y-65024000D03*
G04 #@! TO.P,U4,2*
G04 #@! TO.N,/ESP_GPIO_25*
X71149000Y-65024000D03*
G04 #@! TO.P,U4,1*
G04 #@! TO.N,Net-(R13-Pad1)*
X70149000Y-65024000D03*
G04 #@! TD*
D15*
G04 #@! TO.P,SW2,2*
G04 #@! TO.N,/ESP_EN*
X74435000Y-84830000D03*
G04 #@! TO.P,SW2,1*
G04 #@! TO.N,GND*
X79515000Y-84830000D03*
G04 #@! TO.P,SW2,2*
G04 #@! TO.N,/ESP_EN*
X74435000Y-92450000D03*
G04 #@! TO.P,SW2,1*
G04 #@! TO.N,GND*
X79515000Y-92450000D03*
G04 #@! TD*
G04 #@! TO.P,SW1,1*
G04 #@! TO.N,Net-(SW1-Pad1)*
X83325000Y-84830000D03*
G04 #@! TO.P,SW1,2*
G04 #@! TO.N,GND*
X88405000Y-84830000D03*
G04 #@! TO.P,SW1,1*
G04 #@! TO.N,Net-(SW1-Pad1)*
X83325000Y-92450000D03*
G04 #@! TO.P,SW1,2*
G04 #@! TO.N,GND*
X88405000Y-92450000D03*
G04 #@! TD*
D16*
G04 #@! TO.P,D2,1*
G04 #@! TO.N,Net-(D2-Pad1)*
X86881000Y-51902000D03*
D17*
G04 #@! TO.P,D2,2*
G04 #@! TO.N,/N_MAIN*
X86881000Y-62062000D03*
G04 #@! TD*
D18*
G04 #@! TO.P,BR1,4*
G04 #@! TO.N,/L_M1*
X44707000Y-37525000D03*
G04 #@! TO.P,BR1,3*
G04 #@! TO.N,/N_MAIN*
X49807000Y-37525000D03*
G04 #@! TO.P,BR1,2*
G04 #@! TO.N,Net-(BR1-Pad2)*
X49807000Y-45775000D03*
G04 #@! TO.P,BR1,1*
G04 #@! TO.N,Net-(BR1-Pad1)*
X44707000Y-45775000D03*
G04 #@! TD*
D19*
G04 #@! TO.P,F1,2*
G04 #@! TO.N,Net-(F1-Pad2)*
X69529000Y-32760000D03*
X69529000Y-27680000D03*
G04 #@! TO.P,F1,1*
G04 #@! TO.N,/L_OUT*
X84849000Y-32760000D03*
X84849000Y-27680000D03*
G04 #@! TD*
D20*
G04 #@! TO.P,D1,3*
G04 #@! TO.N,GND*
X70701000Y-74760000D03*
G04 #@! TO.P,D1,4*
G04 #@! TO.N,/ESP_GPIO_04*
X67501000Y-74760000D03*
G04 #@! TO.P,D1,2*
G04 #@! TO.N,Net-(D1-Pad2)*
X70701000Y-79660000D03*
G04 #@! TO.P,D1,1*
G04 #@! TO.N,+3V3*
X67501000Y-79660000D03*
G04 #@! TD*
D13*
G04 #@! TO.P,R7,1*
G04 #@! TO.N,+3V3*
X87135000Y-78226000D03*
G04 #@! TO.P,R7,2*
G04 #@! TO.N,/ESP_GPIO_34*
X87135000Y-81226000D03*
G04 #@! TD*
D12*
G04 #@! TO.P,U1,1*
G04 #@! TO.N,Net-(R1-Pad1)*
X36589000Y-45714000D03*
D21*
G04 #@! TO.P,U1,3*
G04 #@! TO.N,GND*
X39129000Y-38094000D03*
G04 #@! TO.P,U1,2*
G04 #@! TO.N,Net-(BR1-Pad2)*
X39129000Y-45714000D03*
G04 #@! TO.P,U1,4*
G04 #@! TO.N,/ESP_GPIO_23*
X36589000Y-38094000D03*
G04 #@! TD*
D22*
G04 #@! TO.P,U5,1*
G04 #@! TO.N,/ESP_GPIO_35*
X76455000Y-42375000D03*
G04 #@! TO.P,U5,2*
G04 #@! TO.N,N/C*
X75185000Y-42375000D03*
G04 #@! TO.P,U5,3*
X73915000Y-42375000D03*
G04 #@! TO.P,U5,4*
G04 #@! TO.N,GND*
X72645000Y-42375000D03*
G04 #@! TO.P,U5,5*
G04 #@! TO.N,+3V3*
X72645000Y-47775000D03*
G04 #@! TO.P,U5,6*
G04 #@! TO.N,N/C*
X73915000Y-47775000D03*
G04 #@! TO.P,U5,7*
X75185000Y-47775000D03*
G04 #@! TO.P,U5,8*
G04 #@! TO.N,+3V3*
X76455000Y-47775000D03*
G04 #@! TD*
D23*
G04 #@! TO.P,U3,2*
G04 #@! TO.N,+3V3*
X76721000Y-81376000D03*
D24*
X76721000Y-75076000D03*
G04 #@! TO.P,U3,3*
G04 #@! TO.N,+5V*
X74421000Y-75076000D03*
G04 #@! TO.P,U3,1*
G04 #@! TO.N,GND*
X79021000Y-75076000D03*
G04 #@! TD*
D25*
G04 #@! TO.P,Q3,2*
G04 #@! TO.N,/L_OUT*
X83506000Y-41396000D03*
D26*
G04 #@! TO.P,Q3,3*
G04 #@! TO.N,GND*
X92656000Y-38856000D03*
G04 #@! TO.P,Q3,2*
G04 #@! TO.N,/L_OUT*
X92656000Y-41396000D03*
G04 #@! TO.P,Q3,1*
G04 #@! TO.N,Net-(C2-Pad1)*
X92656000Y-43936000D03*
G04 #@! TD*
G04 #@! TO.P,Q2,1*
G04 #@! TO.N,Net-(C2-Pad1)*
X56214000Y-38856000D03*
G04 #@! TO.P,Q2,2*
G04 #@! TO.N,/L_M2*
X56214000Y-41396000D03*
G04 #@! TO.P,Q2,3*
G04 #@! TO.N,GND*
X56214000Y-43936000D03*
D25*
G04 #@! TO.P,Q2,2*
G04 #@! TO.N,/L_M2*
X65364000Y-41396000D03*
G04 #@! TD*
D27*
G04 #@! TO.P,Q4,2*
G04 #@! TO.N,Net-(Q4-Pad2)*
X87643000Y-66796000D03*
G04 #@! TO.P,Q4,3*
G04 #@! TO.N,Net-(Q4-Pad3)*
X86373000Y-66796000D03*
D28*
G04 #@! TO.P,Q4,1*
G04 #@! TO.N,Net-(C3-Pad1)*
X88913000Y-66796000D03*
G04 #@! TD*
D29*
G04 #@! TO.P,U2,1*
G04 #@! TO.N,/L_M2*
X32303000Y-55406000D03*
G04 #@! TO.P,U2,2*
G04 #@! TO.N,/N_MAIN*
X32303000Y-60406000D03*
G04 #@! TO.P,U2,3*
G04 #@! TO.N,GND*
X61703000Y-50206000D03*
G04 #@! TO.P,U2,4*
G04 #@! TO.N,+5V*
X61703000Y-65606000D03*
G04 #@! TD*
D30*
G04 #@! TO.P,U6,39*
G04 #@! TO.N,N/C*
X52344000Y-84560000D03*
D31*
G04 #@! TO.P,U6,1*
G04 #@! TO.N,GND*
X44844000Y-92060000D03*
G04 #@! TO.P,U6,2*
G04 #@! TO.N,+3V3*
X46114000Y-92060000D03*
G04 #@! TO.P,U6,3*
G04 #@! TO.N,/ESP_EN*
X47384000Y-92060000D03*
G04 #@! TO.P,U6,4*
G04 #@! TO.N,/ESP_SENSOR_VP*
X48654000Y-92060000D03*
G04 #@! TO.P,U6,5*
G04 #@! TO.N,/ESP_SENSOR_VN*
X49924000Y-92060000D03*
G04 #@! TO.P,U6,6*
G04 #@! TO.N,/ESP_GPIO_34*
X51194000Y-92060000D03*
G04 #@! TO.P,U6,7*
G04 #@! TO.N,/ESP_GPIO_35*
X52464000Y-92060000D03*
G04 #@! TO.P,U6,8*
G04 #@! TO.N,Net-(SW1-Pad1)*
X53734000Y-92060000D03*
G04 #@! TO.P,U6,9*
G04 #@! TO.N,/ESP_GPIO_33*
X55004000Y-92060000D03*
G04 #@! TO.P,U6,10*
G04 #@! TO.N,/ESP_GPIO_25*
X56274000Y-92060000D03*
G04 #@! TO.P,U6,11*
G04 #@! TO.N,/ESP_GPIO_26*
X57544000Y-92060000D03*
G04 #@! TO.P,U6,12*
G04 #@! TO.N,/ESP_GPIO_27*
X58814000Y-92060000D03*
G04 #@! TO.P,U6,13*
G04 #@! TO.N,/ESP_GPIO_14*
X60084000Y-92060000D03*
G04 #@! TO.P,U6,14*
G04 #@! TO.N,/ESP_GPIO_12*
X61354000Y-92060000D03*
D32*
G04 #@! TO.P,U6,15*
G04 #@! TO.N,GND*
X62354000Y-89275000D03*
G04 #@! TO.P,U6,16*
G04 #@! TO.N,/ESP_GPIO_13*
X62354000Y-88005000D03*
G04 #@! TO.P,U6,17*
G04 #@! TO.N,Net-(U6-Pad17)*
X62354000Y-86735000D03*
G04 #@! TO.P,U6,18*
G04 #@! TO.N,Net-(U6-Pad18)*
X62354000Y-85465000D03*
G04 #@! TO.P,U6,19*
G04 #@! TO.N,Net-(U6-Pad19)*
X62354000Y-84195000D03*
G04 #@! TO.P,U6,20*
G04 #@! TO.N,Net-(U6-Pad20)*
X62354000Y-82925000D03*
G04 #@! TO.P,U6,21*
G04 #@! TO.N,Net-(U6-Pad21)*
X62354000Y-81655000D03*
G04 #@! TO.P,U6,22*
G04 #@! TO.N,Net-(U6-Pad22)*
X62354000Y-80385000D03*
G04 #@! TO.P,U6,23*
G04 #@! TO.N,/ESP_GPIO_15*
X62354000Y-79115000D03*
G04 #@! TO.P,U6,24*
G04 #@! TO.N,/ESP_GPIO_02*
X62354000Y-77845000D03*
D31*
G04 #@! TO.P,U6,25*
G04 #@! TO.N,/ESP_GPIO_00*
X61354000Y-75060000D03*
G04 #@! TO.P,U6,26*
G04 #@! TO.N,/ESP_GPIO_04*
X60084000Y-75060000D03*
G04 #@! TO.P,U6,27*
G04 #@! TO.N,/ESP_GPIO_16*
X58814000Y-75060000D03*
G04 #@! TO.P,U6,28*
G04 #@! TO.N,/ESP_GPIO_17*
X57544000Y-75060000D03*
G04 #@! TO.P,U6,29*
G04 #@! TO.N,/ESP_GPIO_05*
X56274000Y-75060000D03*
G04 #@! TO.P,U6,30*
G04 #@! TO.N,/ESP_GPIO_18*
X55004000Y-75060000D03*
G04 #@! TO.P,U6,31*
G04 #@! TO.N,/ESP_GPIO_19*
X53734000Y-75060000D03*
G04 #@! TO.P,U6,32*
G04 #@! TO.N,Net-(U6-Pad32)*
X52464000Y-75060000D03*
G04 #@! TO.P,U6,33*
G04 #@! TO.N,/ESP_GPIO_21*
X51194000Y-75060000D03*
G04 #@! TO.P,U6,34*
G04 #@! TO.N,/ESP_RXD0*
X49924000Y-75060000D03*
G04 #@! TO.P,U6,35*
G04 #@! TO.N,/ESP_TXD0*
X48654000Y-75060000D03*
G04 #@! TO.P,U6,36*
G04 #@! TO.N,/ESP_GPIO_22*
X47384000Y-75060000D03*
G04 #@! TO.P,U6,37*
G04 #@! TO.N,/ESP_GPIO_23*
X46114000Y-75060000D03*
G04 #@! TO.P,U6,38*
G04 #@! TO.N,GND*
X44844000Y-75060000D03*
G04 #@! TD*
D21*
G04 #@! TO.P,R1,2*
G04 #@! TO.N,Net-(BR1-Pad1)*
X31509000Y-35554000D03*
D13*
G04 #@! TO.P,R1,1*
G04 #@! TO.N,Net-(R1-Pad1)*
X31509000Y-45714000D03*
G04 #@! TD*
G04 #@! TO.P,R2,1*
G04 #@! TO.N,/ESP_GPIO_23*
X45479000Y-70860000D03*
D21*
G04 #@! TO.P,R2,2*
G04 #@! TO.N,+3V3*
X55639000Y-70860000D03*
G04 #@! TD*
D13*
G04 #@! TO.P,R5,1*
G04 #@! TO.N,Net-(Q4-Pad2)*
X83325000Y-62354000D03*
D21*
G04 #@! TO.P,R5,2*
G04 #@! TO.N,Net-(D2-Pad1)*
X83325000Y-52194000D03*
G04 #@! TD*
D13*
G04 #@! TO.P,R6,1*
G04 #@! TO.N,/ESP_GPIO_34*
X68593000Y-70860000D03*
D21*
G04 #@! TO.P,R6,2*
G04 #@! TO.N,GND*
X58433000Y-70860000D03*
G04 #@! TD*
D13*
G04 #@! TO.P,R9,1*
G04 #@! TO.N,Net-(Q4-Pad3)*
X80023000Y-62354000D03*
D21*
G04 #@! TO.P,R9,2*
G04 #@! TO.N,Net-(D2-Pad1)*
X80023000Y-52194000D03*
G04 #@! TD*
G04 #@! TO.P,R11,2*
G04 #@! TO.N,Net-(C2-Pad1)*
X76721000Y-52204000D03*
D13*
G04 #@! TO.P,R11,1*
G04 #@! TO.N,Net-(R11-Pad1)*
X76721000Y-62364000D03*
G04 #@! TD*
D33*
G04 #@! TO.P,R10,1*
G04 #@! TO.N,Net-(R10-Pad1)*
X66561000Y-61970000D03*
D34*
G04 #@! TO.P,R10,2*
G04 #@! TO.N,/L_M2*
X66561000Y-49270000D03*
G04 #@! TD*
G04 #@! TO.P,R12,2*
G04 #@! TO.N,/L_OUT*
X95373000Y-49278000D03*
D33*
G04 #@! TO.P,R12,1*
G04 #@! TO.N,Net-(R12-Pad1)*
X95373000Y-61978000D03*
G04 #@! TD*
G04 #@! TO.P,R13,1*
G04 #@! TO.N,Net-(R13-Pad1)*
X90945000Y-49270000D03*
D34*
G04 #@! TO.P,R13,2*
G04 #@! TO.N,/N_MAIN*
X90945000Y-61970000D03*
G04 #@! TD*
D35*
G04 #@! TO.P,J2,1*
G04 #@! TO.N,/N_MAIN*
X55893000Y-30220000D03*
D36*
G04 #@! TO.P,J2,2*
G04 #@! TO.N,Net-(F1-Pad2)*
X60973000Y-30220000D03*
G04 #@! TD*
D35*
G04 #@! TO.P,J1,1*
G04 #@! TO.N,/L_M2*
X39637000Y-30220000D03*
D36*
G04 #@! TO.P,J1,2*
G04 #@! TO.N,/L_M1*
X44717000Y-30220000D03*
G04 #@! TO.P,J1,3*
G04 #@! TO.N,/N_MAIN*
X49797000Y-30220000D03*
G04 #@! TD*
D37*
G04 #@! TO.N,+3V3*
X46125000Y-89125000D03*
X64600000Y-66725000D03*
X64600000Y-70875000D03*
X76721000Y-81376000D03*
X76721000Y-75076000D03*
G04 #@! TO.N,GND*
X62150000Y-89275000D03*
X44850000Y-92050000D03*
X44850000Y-75075000D03*
X82125000Y-34850000D03*
X92600000Y-37575000D03*
G04 #@! TO.N,Net-(R10-Pad1)*
X70149000Y-59424000D03*
D38*
G04 #@! TO.N,Net-(C2-Pad1)*
X56845000Y-36675000D03*
X92650000Y-45900000D03*
D37*
G04 #@! TO.N,+5V*
X74421000Y-75076000D03*
G04 #@! TO.N,/ESP_GPIO_35*
X52464000Y-92060000D03*
X63425000Y-66750000D03*
G04 #@! TO.N,/ESP_GPIO_25*
X63950000Y-91009989D03*
G04 #@! TD*
D39*
G04 #@! TO.N,/N_MAIN*
X49797000Y-37515000D02*
X49807000Y-37525000D01*
D40*
X49797000Y-30220000D02*
X55893000Y-30220000D01*
D41*
X49807000Y-30230000D02*
X49797000Y-30220000D01*
X90853000Y-62062000D02*
X90945000Y-61970000D01*
X86881000Y-62062000D02*
X90853000Y-62062000D01*
D40*
G04 #@! TO.N,Net-(F1-Pad2)*
X66989000Y-30220000D02*
X69529000Y-27680000D01*
X60973000Y-30220000D02*
X66989000Y-30220000D01*
X69529000Y-32760000D02*
X66989000Y-30220000D01*
D39*
G04 #@! TO.N,Net-(R12-Pad1)*
X72224001Y-58223999D02*
X94564999Y-58223999D01*
X72149000Y-59424000D02*
X72149000Y-58299000D01*
X72149000Y-58299000D02*
X72224001Y-58223999D01*
X95373000Y-59032000D02*
X95373000Y-61978000D01*
X94564999Y-58223999D02*
X95373000Y-59032000D01*
D40*
G04 #@! TO.N,/L_OUT*
X84849000Y-27680000D02*
X84849000Y-32760000D01*
X84849000Y-40053000D02*
X83506000Y-41396000D01*
X84849000Y-32760000D02*
X84849000Y-40053000D01*
D42*
X96572999Y-48078001D02*
X95373000Y-49278000D01*
X92656000Y-41396000D02*
X95126002Y-41396000D01*
X96572999Y-42842997D02*
X96572999Y-48078001D01*
X95126002Y-41396000D02*
X96572999Y-42842997D01*
X83506000Y-41396000D02*
X92656000Y-41396000D01*
D39*
G04 #@! TO.N,Net-(R1-Pad1)*
X31509000Y-45714000D02*
X36589000Y-45714000D01*
G04 #@! TO.N,+3V3*
X76721000Y-75326000D02*
X76721000Y-75076000D01*
D43*
X78269990Y-76874990D02*
X76721000Y-75326000D01*
X87135000Y-78226000D02*
X85783990Y-76874990D01*
X85783990Y-76874990D02*
X78269990Y-76874990D01*
X74321000Y-81376000D02*
X76721000Y-81376000D01*
X67967000Y-81376000D02*
X74321000Y-81376000D01*
X67501000Y-79660000D02*
X67501000Y-80910000D01*
X67501000Y-80910000D02*
X67967000Y-81376000D01*
X46125000Y-92049000D02*
X46114000Y-92060000D01*
X46125000Y-89125000D02*
X46125000Y-92049000D01*
X67501000Y-78410000D02*
X67501000Y-79660000D01*
X68451001Y-73649999D02*
X68451001Y-77459999D01*
X55639000Y-70860000D02*
X55639000Y-71991370D01*
X55639000Y-71991370D02*
X56472620Y-72824990D01*
X68451001Y-77459999D02*
X67501000Y-78410000D01*
X67625992Y-72824990D02*
X68451001Y-73649999D01*
X64600000Y-55636410D02*
X64600000Y-66725000D01*
X64600000Y-71440685D02*
X64600000Y-72824990D01*
X64600000Y-70875000D02*
X64600000Y-71440685D01*
X56472620Y-72824990D02*
X64600000Y-72824990D01*
X64600000Y-72824990D02*
X67625992Y-72824990D01*
X66636410Y-53600000D02*
X70675000Y-53600000D01*
X64600000Y-55636410D02*
X66636410Y-53600000D01*
X70675000Y-53600000D02*
X70675000Y-52150000D01*
X72645000Y-50180000D02*
X72645000Y-47775000D01*
X70675000Y-52150000D02*
X72645000Y-50180000D01*
X75075000Y-50180000D02*
X72645000Y-50180000D01*
X76455000Y-47775000D02*
X76455000Y-48800000D01*
X76455000Y-48800000D02*
X75075000Y-50180000D01*
X75603000Y-81376000D02*
X76721000Y-81376000D01*
X70371000Y-86608000D02*
X75603000Y-81376000D01*
D41*
G04 #@! TO.N,Net-(D2-Pad1)*
X80023000Y-52194000D02*
X83325000Y-52194000D01*
X86589000Y-52194000D02*
X86881000Y-51902000D01*
X83325000Y-52194000D02*
X86589000Y-52194000D01*
D43*
G04 #@! TO.N,Net-(Q4-Pad2)*
X83325000Y-63485370D02*
X83841630Y-64002000D01*
X83325000Y-62354000D02*
X83325000Y-63485370D01*
X83841630Y-64002000D02*
X87135000Y-64002000D01*
X87643000Y-64510000D02*
X87643000Y-66796000D01*
X87135000Y-64002000D02*
X87643000Y-64510000D01*
D39*
X82726371Y-60624001D02*
X83325000Y-61222630D01*
X73224001Y-60624001D02*
X82726371Y-60624001D01*
X83325000Y-61222630D02*
X83325000Y-62354000D01*
X73149000Y-60549000D02*
X73224001Y-60624001D01*
X73149000Y-59424000D02*
X73149000Y-60549000D01*
G04 #@! TO.N,GND*
X72645000Y-40955000D02*
X74450000Y-39150000D01*
X72645000Y-42375000D02*
X72645000Y-40955000D01*
X75249999Y-39949999D02*
X74450000Y-39150000D01*
X75690001Y-39949999D02*
X75249999Y-39949999D01*
X77080001Y-41339999D02*
X75690001Y-39949999D01*
X73175000Y-53600000D02*
X77080001Y-49694999D01*
X77080001Y-49694999D02*
X77080001Y-41339999D01*
X39129000Y-38094000D02*
X39129000Y-42429000D01*
X40636000Y-43936000D02*
X56214000Y-43936000D01*
X39129000Y-42429000D02*
X40636000Y-43936000D01*
X56214000Y-44736000D02*
X56214000Y-43936000D01*
X56214000Y-46272634D02*
X56214000Y-44736000D01*
X61703000Y-50206000D02*
X60147366Y-50206000D01*
X60147366Y-50206000D02*
X56214000Y-46272634D01*
X78750000Y-34850000D02*
X74450000Y-39150000D01*
X82125000Y-34850000D02*
X78750000Y-34850000D01*
X92656000Y-38856000D02*
X92656000Y-37631000D01*
X92656000Y-37631000D02*
X92600000Y-37575000D01*
D43*
G04 #@! TO.N,Net-(Q4-Pad3)*
X81203667Y-62354000D02*
X80023000Y-62354000D01*
X86057010Y-64702010D02*
X83551677Y-64702010D01*
X86373000Y-66796000D02*
X86373000Y-65018000D01*
X83551677Y-64702010D02*
X81203667Y-62354000D01*
X86373000Y-65018000D02*
X86057010Y-64702010D01*
D41*
G04 #@! TO.N,Net-(C2-Pad1)*
X90906000Y-43936000D02*
X92656000Y-43936000D01*
D42*
X56214000Y-37306000D02*
X56845000Y-36675000D01*
X56214000Y-38856000D02*
X56214000Y-37306000D01*
X92656000Y-43936000D02*
X92656000Y-45894000D01*
X92656000Y-45894000D02*
X92650000Y-45900000D01*
D39*
G04 #@! TO.N,Net-(R11-Pad1)*
X71149000Y-59424000D02*
X71149000Y-60549000D01*
X75589630Y-62364000D02*
X76721000Y-62364000D01*
X72964000Y-62364000D02*
X75589630Y-62364000D01*
X71149000Y-60549000D02*
X72964000Y-62364000D01*
G04 #@! TO.N,Net-(SW1-Pad1)*
X82555499Y-93473501D02*
X53897501Y-93473501D01*
X83325000Y-92704000D02*
X82555499Y-93473501D01*
X53734000Y-93310000D02*
X53734000Y-92060000D01*
X53897501Y-93473501D02*
X53734000Y-93310000D01*
X83325000Y-92450000D02*
X83325000Y-92704000D01*
X83325000Y-85817828D02*
X83325000Y-92450000D01*
X83325000Y-84830000D02*
X83325000Y-85817828D01*
G04 #@! TO.N,+5V*
X72149000Y-65024000D02*
X72149000Y-65809002D01*
D43*
X72149000Y-66034002D02*
X72149000Y-65024000D01*
X70583001Y-67600001D02*
X72149000Y-66034002D01*
X61703000Y-65606000D02*
X61703000Y-67161634D01*
X62141367Y-67600001D02*
X70583001Y-67600001D01*
X61703000Y-67161634D02*
X62141367Y-67600001D01*
X78625000Y-71300000D02*
X77250000Y-72675000D01*
X78625000Y-67356630D02*
X78625000Y-71300000D01*
X81293000Y-65820000D02*
X80161630Y-65820000D01*
X80161630Y-65820000D02*
X78625000Y-67356630D01*
X77250000Y-72675000D02*
X75225000Y-72675000D01*
X74421000Y-73479000D02*
X74421000Y-75076000D01*
X75225000Y-72675000D02*
X74421000Y-73479000D01*
D39*
G04 #@! TO.N,Net-(C3-Pad1)*
X88913000Y-66796000D02*
X90945000Y-66796000D01*
X91961000Y-65780000D02*
X94247000Y-65780000D01*
X90945000Y-66796000D02*
X91961000Y-65780000D01*
X94247000Y-64730000D02*
X93231000Y-63714000D01*
X94247000Y-65780000D02*
X94247000Y-64730000D01*
X93231000Y-63714000D02*
X93231000Y-60192000D01*
X92463000Y-59424000D02*
X74149000Y-59424000D01*
X93231000Y-60192000D02*
X92463000Y-59424000D01*
G04 #@! TO.N,Net-(BR1-Pad2)*
X49807000Y-45775000D02*
X48090000Y-47492000D01*
X40907000Y-47492000D02*
X39129000Y-45714000D01*
X48090000Y-47492000D02*
X40907000Y-47492000D01*
G04 #@! TO.N,Net-(D1-Pad2)*
X70701000Y-79660000D02*
X70701000Y-79910000D01*
D42*
G04 #@! TO.N,/L_M2*
X65364000Y-41396000D02*
X56214000Y-41396000D01*
X66561000Y-42593000D02*
X65364000Y-41396000D01*
X66561000Y-49270000D02*
X66561000Y-42593000D01*
X51914000Y-41396000D02*
X51910000Y-41400000D01*
X56214000Y-41396000D02*
X51914000Y-41396000D01*
X39637000Y-33720000D02*
X41975000Y-36058000D01*
X39637000Y-30220000D02*
X39637000Y-33720000D01*
X41975000Y-36058000D02*
X41975000Y-39550000D01*
X43821000Y-41396000D02*
X51914000Y-41396000D01*
X41975000Y-39550000D02*
X43821000Y-41396000D01*
D39*
G04 #@! TO.N,/L_M1*
X44707000Y-30230000D02*
X44717000Y-30220000D01*
G04 #@! TO.N,Net-(R13-Pad1)*
X90945000Y-56382000D02*
X90945000Y-49270000D01*
X89929000Y-57398000D02*
X90945000Y-56382000D01*
X69101000Y-62851000D02*
X69101000Y-58414000D01*
X70149000Y-63899000D02*
X69101000Y-62851000D01*
X70149000Y-65024000D02*
X70149000Y-63899000D01*
X70117000Y-57398000D02*
X89929000Y-57398000D01*
X69101000Y-58414000D02*
X70117000Y-57398000D01*
G04 #@! TO.N,/ESP_EN*
X47384000Y-90810000D02*
X47384000Y-92060000D01*
X67831000Y-91688000D02*
X66731000Y-91688000D01*
X66731000Y-91688000D02*
X65327989Y-90284989D01*
X65327989Y-90284989D02*
X47815011Y-90284989D01*
X47815011Y-90284989D02*
X47384000Y-90716000D01*
X47384000Y-90716000D02*
X47384000Y-90810000D01*
X74435000Y-92450000D02*
X74425000Y-92450000D01*
X74425000Y-92450000D02*
X73851509Y-93023491D01*
X68066491Y-93023491D02*
X73851509Y-93023491D01*
X67831000Y-91688000D02*
X67831000Y-92788000D01*
X67831000Y-92788000D02*
X68066491Y-93023491D01*
X74435000Y-91462172D02*
X74435000Y-84830000D01*
X74435000Y-92450000D02*
X74435000Y-91462172D01*
G04 #@! TO.N,/ESP_RXD0*
X49924000Y-75060000D02*
X49924000Y-76310000D01*
X49924000Y-76310000D02*
X50119990Y-76505990D01*
X50119990Y-76505990D02*
X62594010Y-76505990D01*
X62594010Y-76505990D02*
X63755990Y-76505990D01*
X63755990Y-76505990D02*
X64217010Y-76967010D01*
X64217010Y-76967010D02*
X64217010Y-77036598D01*
X64217010Y-76967010D02*
X64217010Y-85967010D01*
X64858000Y-86608000D02*
X67831000Y-86608000D01*
X64217010Y-85967010D02*
X64858000Y-86608000D01*
G04 #@! TO.N,/ESP_TXD0*
X48654000Y-76310000D02*
X48654000Y-75060000D01*
X49300000Y-76956000D02*
X48654000Y-76310000D01*
X67831000Y-89148000D02*
X64323000Y-89148000D01*
X64323000Y-89148000D02*
X63767000Y-88592000D01*
X63500002Y-76956000D02*
X49300000Y-76956000D01*
X63767000Y-88592000D02*
X63767000Y-77222998D01*
X63767000Y-77222998D02*
X63500002Y-76956000D01*
G04 #@! TO.N,/ESP_GPIO_34*
X87135000Y-93212000D02*
X87135000Y-81226000D01*
X86423489Y-93923511D02*
X87135000Y-93212000D01*
X51194000Y-93310000D02*
X51194000Y-92060000D01*
X86423489Y-93923511D02*
X51807511Y-93923511D01*
X51807511Y-93923511D02*
X51194000Y-93310000D01*
X69375000Y-71525000D02*
X68710000Y-70860000D01*
X87135000Y-81226000D02*
X86003630Y-81226000D01*
X86003630Y-81226000D02*
X82227630Y-77450000D01*
X68710000Y-70860000D02*
X68593000Y-70860000D01*
X70850000Y-77450000D02*
X69375000Y-75975000D01*
X82227630Y-77450000D02*
X70850000Y-77450000D01*
X69375000Y-75975000D02*
X69375000Y-71525000D01*
G04 #@! TO.N,/ESP_GPIO_35*
X63450000Y-66725000D02*
X63425000Y-66750000D01*
X76455000Y-42375000D02*
X76455000Y-42850000D01*
X63450000Y-55309998D02*
X63450000Y-66725000D01*
X72830000Y-46475000D02*
X72284998Y-46475000D01*
X76455000Y-42850000D02*
X72830000Y-46475000D01*
X72284998Y-46475000D02*
X63450000Y-55309998D01*
G04 #@! TO.N,/ESP_GPIO_00*
X61354000Y-75060000D02*
X61354000Y-75813000D01*
X65393000Y-84068000D02*
X67831000Y-84068000D01*
X64667020Y-83342020D02*
X65393000Y-84068000D01*
X64667020Y-76780610D02*
X64667020Y-83342020D01*
X61354000Y-75060000D02*
X62946410Y-75060000D01*
X62946410Y-75060000D02*
X64667020Y-76780610D01*
G04 #@! TO.N,/ESP_GPIO_23*
X29731000Y-69844000D02*
X30747000Y-70860000D01*
X29731000Y-38856000D02*
X29731000Y-69844000D01*
X36589000Y-38094000D02*
X30493000Y-38094000D01*
X30747000Y-70860000D02*
X45479000Y-70860000D01*
X30493000Y-38094000D02*
X29731000Y-38856000D01*
X46114000Y-71495000D02*
X45479000Y-70860000D01*
X46114000Y-75060000D02*
X46114000Y-71495000D01*
G04 #@! TO.N,/ESP_GPIO_25*
X75919000Y-68966630D02*
X75919000Y-70098000D01*
X71149000Y-65024000D02*
X71149000Y-63899000D01*
X71149000Y-63899000D02*
X71224001Y-63823999D01*
X71224001Y-63823999D02*
X74734001Y-63823999D01*
X74734001Y-63823999D02*
X75919000Y-65008998D01*
X75919000Y-65008998D02*
X75919000Y-68966630D01*
X63675010Y-90734999D02*
X63950000Y-91009989D01*
X56274000Y-90810000D02*
X56349001Y-90734999D01*
X56349001Y-90734999D02*
X63675010Y-90734999D01*
X56274000Y-92060000D02*
X56274000Y-90810000D01*
G04 #@! TO.N,/ESP_GPIO_04*
X67501000Y-73760000D02*
X67141000Y-73400000D01*
X67501000Y-74760000D02*
X67501000Y-73760000D01*
X60494000Y-73400000D02*
X67141000Y-73400000D01*
X60084000Y-75060000D02*
X60084000Y-73810000D01*
X60084000Y-73810000D02*
X60494000Y-73400000D01*
G04 #@! TO.N,/ESP_GPIO_22*
X47384000Y-73810000D02*
X52269000Y-68925000D01*
X47384000Y-75060000D02*
X47384000Y-73810000D01*
X70373000Y-68925000D02*
X73149000Y-66149000D01*
X52269000Y-68925000D02*
X70373000Y-68925000D01*
X73149000Y-65024000D02*
X73149000Y-66149000D01*
G04 #@! TD*
D44*
G04 #@! TO.N,GND*
G36*
X29246528Y-70434329D02*
X30156670Y-71344472D01*
X30199071Y-71407929D01*
X30450463Y-71575904D01*
X30672148Y-71620000D01*
X30672153Y-71620000D01*
X30747000Y-71634888D01*
X30821847Y-71620000D01*
X44240570Y-71620000D01*
X44262466Y-71672862D01*
X44666138Y-72076534D01*
X45193561Y-72295000D01*
X45354001Y-72295000D01*
X45354000Y-73425000D01*
X45129750Y-73425000D01*
X44971000Y-73583750D01*
X44971000Y-74933000D01*
X44991000Y-74933000D01*
X44991000Y-75187000D01*
X44971000Y-75187000D01*
X44971000Y-76536250D01*
X45129750Y-76695000D01*
X45420310Y-76695000D01*
X45479079Y-76670657D01*
X45664000Y-76707440D01*
X46564000Y-76707440D01*
X46749000Y-76670642D01*
X46934000Y-76707440D01*
X47834000Y-76707440D01*
X47985396Y-76677326D01*
X48106071Y-76857929D01*
X48169530Y-76900331D01*
X48709670Y-77440472D01*
X48752071Y-77503929D01*
X49003463Y-77671904D01*
X49225148Y-77716000D01*
X49225153Y-77716000D01*
X49300000Y-77730888D01*
X49374847Y-77716000D01*
X60706560Y-77716000D01*
X60706560Y-78295000D01*
X60743358Y-78480000D01*
X60706560Y-78665000D01*
X60706560Y-79565000D01*
X60743358Y-79750000D01*
X60706560Y-79935000D01*
X60706560Y-80835000D01*
X60743358Y-81020000D01*
X60706560Y-81205000D01*
X60706560Y-82105000D01*
X60743358Y-82290000D01*
X60706560Y-82475000D01*
X60706560Y-83375000D01*
X60743358Y-83560000D01*
X60706560Y-83745000D01*
X60706560Y-84645000D01*
X60743358Y-84830000D01*
X60706560Y-85015000D01*
X60706560Y-85915000D01*
X60743358Y-86100000D01*
X60706560Y-86285000D01*
X60706560Y-87185000D01*
X60743358Y-87370000D01*
X60706560Y-87555000D01*
X60706560Y-88455000D01*
X60743343Y-88639921D01*
X60719000Y-88698690D01*
X60719000Y-88989250D01*
X60877750Y-89148000D01*
X62227000Y-89148000D01*
X62227000Y-89128000D01*
X62481000Y-89128000D01*
X62481000Y-89148000D01*
X62501000Y-89148000D01*
X62501000Y-89402000D01*
X62481000Y-89402000D01*
X62481000Y-89422000D01*
X62227000Y-89422000D01*
X62227000Y-89402000D01*
X60877750Y-89402000D01*
X60754761Y-89524989D01*
X47889859Y-89524989D01*
X47815011Y-89510101D01*
X47740163Y-89524989D01*
X47740159Y-89524989D01*
X47518474Y-89569085D01*
X47267082Y-89737060D01*
X47224680Y-89800519D01*
X47010000Y-90015199D01*
X47010000Y-89693007D01*
X47160000Y-89330874D01*
X47160000Y-88919126D01*
X47002431Y-88538720D01*
X46711280Y-88247569D01*
X46330874Y-88090000D01*
X45919126Y-88090000D01*
X45538720Y-88247569D01*
X45247569Y-88538720D01*
X45090000Y-88919126D01*
X45090000Y-89330874D01*
X45240000Y-89693007D01*
X45240000Y-90425000D01*
X45129750Y-90425000D01*
X44971000Y-90583750D01*
X44971000Y-91933000D01*
X44991000Y-91933000D01*
X44991000Y-92187000D01*
X44971000Y-92187000D01*
X44971000Y-93536250D01*
X45129750Y-93695000D01*
X45420310Y-93695000D01*
X45479079Y-93670657D01*
X45664000Y-93707440D01*
X46564000Y-93707440D01*
X46749000Y-93670642D01*
X46934000Y-93707440D01*
X47834000Y-93707440D01*
X48019000Y-93670642D01*
X48204000Y-93707440D01*
X49104000Y-93707440D01*
X49289000Y-93670642D01*
X49474000Y-93707440D01*
X50374000Y-93707440D01*
X50525396Y-93677326D01*
X50646071Y-93857929D01*
X50709530Y-93900331D01*
X50974198Y-94165000D01*
X29210000Y-94165000D01*
X29210000Y-89539997D01*
X30945490Y-89539997D01*
X30951456Y-90299690D01*
X31180540Y-91024045D01*
X31612485Y-91649018D01*
X32209103Y-92119354D01*
X32917644Y-92393467D01*
X33675463Y-92447124D01*
X34112819Y-92345750D01*
X43759000Y-92345750D01*
X43759000Y-93186309D01*
X43855673Y-93419698D01*
X44034301Y-93598327D01*
X44267690Y-93695000D01*
X44558250Y-93695000D01*
X44717000Y-93536250D01*
X44717000Y-92187000D01*
X43917750Y-92187000D01*
X43759000Y-92345750D01*
X34112819Y-92345750D01*
X34415558Y-92275579D01*
X35072495Y-91894000D01*
X35588191Y-91336123D01*
X35781435Y-90933691D01*
X43759000Y-90933691D01*
X43759000Y-91774250D01*
X43917750Y-91933000D01*
X44717000Y-91933000D01*
X44717000Y-90583750D01*
X44558250Y-90425000D01*
X44267690Y-90425000D01*
X44034301Y-90521673D01*
X43855673Y-90700302D01*
X43759000Y-90933691D01*
X35781435Y-90933691D01*
X35917051Y-90651273D01*
X36030000Y-89900000D01*
X36029685Y-89859868D01*
X35904949Y-89110462D01*
X35565373Y-88430862D01*
X35040978Y-87881154D01*
X34378128Y-87509941D01*
X33635430Y-87350042D01*
X32878547Y-87415595D01*
X32174399Y-87700804D01*
X31585243Y-88180453D01*
X31163167Y-88812134D01*
X30945490Y-89539997D01*
X29210000Y-89539997D01*
X29210000Y-82060000D01*
X49196560Y-82060000D01*
X49196560Y-87060000D01*
X49245843Y-87307765D01*
X49386191Y-87517809D01*
X49596235Y-87658157D01*
X49844000Y-87707440D01*
X54844000Y-87707440D01*
X55091765Y-87658157D01*
X55301809Y-87517809D01*
X55442157Y-87307765D01*
X55491440Y-87060000D01*
X55491440Y-82060000D01*
X55442157Y-81812235D01*
X55301809Y-81602191D01*
X55091765Y-81461843D01*
X54844000Y-81412560D01*
X49844000Y-81412560D01*
X49596235Y-81461843D01*
X49386191Y-81602191D01*
X49245843Y-81812235D01*
X49196560Y-82060000D01*
X29210000Y-82060000D01*
X29210000Y-75345750D01*
X43759000Y-75345750D01*
X43759000Y-76186309D01*
X43855673Y-76419698D01*
X44034301Y-76598327D01*
X44267690Y-76695000D01*
X44558250Y-76695000D01*
X44717000Y-76536250D01*
X44717000Y-75187000D01*
X43917750Y-75187000D01*
X43759000Y-75345750D01*
X29210000Y-75345750D01*
X29210000Y-73933691D01*
X43759000Y-73933691D01*
X43759000Y-74774250D01*
X43917750Y-74933000D01*
X44717000Y-74933000D01*
X44717000Y-73583750D01*
X44558250Y-73425000D01*
X44267690Y-73425000D01*
X44034301Y-73521673D01*
X43855673Y-73700302D01*
X43759000Y-73933691D01*
X29210000Y-73933691D01*
X29210000Y-70409922D01*
X29246528Y-70434329D01*
X29246528Y-70434329D01*
G37*
X29246528Y-70434329D02*
X30156670Y-71344472D01*
X30199071Y-71407929D01*
X30450463Y-71575904D01*
X30672148Y-71620000D01*
X30672153Y-71620000D01*
X30747000Y-71634888D01*
X30821847Y-71620000D01*
X44240570Y-71620000D01*
X44262466Y-71672862D01*
X44666138Y-72076534D01*
X45193561Y-72295000D01*
X45354001Y-72295000D01*
X45354000Y-73425000D01*
X45129750Y-73425000D01*
X44971000Y-73583750D01*
X44971000Y-74933000D01*
X44991000Y-74933000D01*
X44991000Y-75187000D01*
X44971000Y-75187000D01*
X44971000Y-76536250D01*
X45129750Y-76695000D01*
X45420310Y-76695000D01*
X45479079Y-76670657D01*
X45664000Y-76707440D01*
X46564000Y-76707440D01*
X46749000Y-76670642D01*
X46934000Y-76707440D01*
X47834000Y-76707440D01*
X47985396Y-76677326D01*
X48106071Y-76857929D01*
X48169530Y-76900331D01*
X48709670Y-77440472D01*
X48752071Y-77503929D01*
X49003463Y-77671904D01*
X49225148Y-77716000D01*
X49225153Y-77716000D01*
X49300000Y-77730888D01*
X49374847Y-77716000D01*
X60706560Y-77716000D01*
X60706560Y-78295000D01*
X60743358Y-78480000D01*
X60706560Y-78665000D01*
X60706560Y-79565000D01*
X60743358Y-79750000D01*
X60706560Y-79935000D01*
X60706560Y-80835000D01*
X60743358Y-81020000D01*
X60706560Y-81205000D01*
X60706560Y-82105000D01*
X60743358Y-82290000D01*
X60706560Y-82475000D01*
X60706560Y-83375000D01*
X60743358Y-83560000D01*
X60706560Y-83745000D01*
X60706560Y-84645000D01*
X60743358Y-84830000D01*
X60706560Y-85015000D01*
X60706560Y-85915000D01*
X60743358Y-86100000D01*
X60706560Y-86285000D01*
X60706560Y-87185000D01*
X60743358Y-87370000D01*
X60706560Y-87555000D01*
X60706560Y-88455000D01*
X60743343Y-88639921D01*
X60719000Y-88698690D01*
X60719000Y-88989250D01*
X60877750Y-89148000D01*
X62227000Y-89148000D01*
X62227000Y-89128000D01*
X62481000Y-89128000D01*
X62481000Y-89148000D01*
X62501000Y-89148000D01*
X62501000Y-89402000D01*
X62481000Y-89402000D01*
X62481000Y-89422000D01*
X62227000Y-89422000D01*
X62227000Y-89402000D01*
X60877750Y-89402000D01*
X60754761Y-89524989D01*
X47889859Y-89524989D01*
X47815011Y-89510101D01*
X47740163Y-89524989D01*
X47740159Y-89524989D01*
X47518474Y-89569085D01*
X47267082Y-89737060D01*
X47224680Y-89800519D01*
X47010000Y-90015199D01*
X47010000Y-89693007D01*
X47160000Y-89330874D01*
X47160000Y-88919126D01*
X47002431Y-88538720D01*
X46711280Y-88247569D01*
X46330874Y-88090000D01*
X45919126Y-88090000D01*
X45538720Y-88247569D01*
X45247569Y-88538720D01*
X45090000Y-88919126D01*
X45090000Y-89330874D01*
X45240000Y-89693007D01*
X45240000Y-90425000D01*
X45129750Y-90425000D01*
X44971000Y-90583750D01*
X44971000Y-91933000D01*
X44991000Y-91933000D01*
X44991000Y-92187000D01*
X44971000Y-92187000D01*
X44971000Y-93536250D01*
X45129750Y-93695000D01*
X45420310Y-93695000D01*
X45479079Y-93670657D01*
X45664000Y-93707440D01*
X46564000Y-93707440D01*
X46749000Y-93670642D01*
X46934000Y-93707440D01*
X47834000Y-93707440D01*
X48019000Y-93670642D01*
X48204000Y-93707440D01*
X49104000Y-93707440D01*
X49289000Y-93670642D01*
X49474000Y-93707440D01*
X50374000Y-93707440D01*
X50525396Y-93677326D01*
X50646071Y-93857929D01*
X50709530Y-93900331D01*
X50974198Y-94165000D01*
X29210000Y-94165000D01*
X29210000Y-89539997D01*
X30945490Y-89539997D01*
X30951456Y-90299690D01*
X31180540Y-91024045D01*
X31612485Y-91649018D01*
X32209103Y-92119354D01*
X32917644Y-92393467D01*
X33675463Y-92447124D01*
X34112819Y-92345750D01*
X43759000Y-92345750D01*
X43759000Y-93186309D01*
X43855673Y-93419698D01*
X44034301Y-93598327D01*
X44267690Y-93695000D01*
X44558250Y-93695000D01*
X44717000Y-93536250D01*
X44717000Y-92187000D01*
X43917750Y-92187000D01*
X43759000Y-92345750D01*
X34112819Y-92345750D01*
X34415558Y-92275579D01*
X35072495Y-91894000D01*
X35588191Y-91336123D01*
X35781435Y-90933691D01*
X43759000Y-90933691D01*
X43759000Y-91774250D01*
X43917750Y-91933000D01*
X44717000Y-91933000D01*
X44717000Y-90583750D01*
X44558250Y-90425000D01*
X44267690Y-90425000D01*
X44034301Y-90521673D01*
X43855673Y-90700302D01*
X43759000Y-90933691D01*
X35781435Y-90933691D01*
X35917051Y-90651273D01*
X36030000Y-89900000D01*
X36029685Y-89859868D01*
X35904949Y-89110462D01*
X35565373Y-88430862D01*
X35040978Y-87881154D01*
X34378128Y-87509941D01*
X33635430Y-87350042D01*
X32878547Y-87415595D01*
X32174399Y-87700804D01*
X31585243Y-88180453D01*
X31163167Y-88812134D01*
X30945490Y-89539997D01*
X29210000Y-89539997D01*
X29210000Y-82060000D01*
X49196560Y-82060000D01*
X49196560Y-87060000D01*
X49245843Y-87307765D01*
X49386191Y-87517809D01*
X49596235Y-87658157D01*
X49844000Y-87707440D01*
X54844000Y-87707440D01*
X55091765Y-87658157D01*
X55301809Y-87517809D01*
X55442157Y-87307765D01*
X55491440Y-87060000D01*
X55491440Y-82060000D01*
X55442157Y-81812235D01*
X55301809Y-81602191D01*
X55091765Y-81461843D01*
X54844000Y-81412560D01*
X49844000Y-81412560D01*
X49596235Y-81461843D01*
X49386191Y-81602191D01*
X49245843Y-81812235D01*
X49196560Y-82060000D01*
X29210000Y-82060000D01*
X29210000Y-75345750D01*
X43759000Y-75345750D01*
X43759000Y-76186309D01*
X43855673Y-76419698D01*
X44034301Y-76598327D01*
X44267690Y-76695000D01*
X44558250Y-76695000D01*
X44717000Y-76536250D01*
X44717000Y-75187000D01*
X43917750Y-75187000D01*
X43759000Y-75345750D01*
X29210000Y-75345750D01*
X29210000Y-73933691D01*
X43759000Y-73933691D01*
X43759000Y-74774250D01*
X43917750Y-74933000D01*
X44717000Y-74933000D01*
X44717000Y-73583750D01*
X44558250Y-73425000D01*
X44267690Y-73425000D01*
X44034301Y-73521673D01*
X43855673Y-73700302D01*
X43759000Y-73933691D01*
X29210000Y-73933691D01*
X29210000Y-70409922D01*
X29246528Y-70434329D01*
G36*
X81862126Y-64264038D02*
X82864254Y-65266166D01*
X82913628Y-65340059D01*
X82987521Y-65389433D01*
X82987522Y-65389434D01*
X83128246Y-65483463D01*
X83206367Y-65535662D01*
X83464512Y-65587010D01*
X83464516Y-65587010D01*
X83551677Y-65604347D01*
X83638838Y-65587010D01*
X85488001Y-65587010D01*
X85488001Y-65807553D01*
X85280305Y-66118391D01*
X85213000Y-66456754D01*
X85213000Y-67135245D01*
X85280305Y-67473608D01*
X85536687Y-67857313D01*
X85920391Y-68113695D01*
X86373000Y-68203725D01*
X86825608Y-68113695D01*
X87008000Y-67991825D01*
X87190391Y-68113695D01*
X87643000Y-68203725D01*
X88094866Y-68113842D01*
X88140235Y-68144157D01*
X88388000Y-68193440D01*
X89438000Y-68193440D01*
X89685765Y-68144157D01*
X89806890Y-68063223D01*
X92800035Y-68063223D01*
X92827222Y-68633454D01*
X92993136Y-69034005D01*
X93239255Y-69108139D01*
X94067395Y-68280000D01*
X94426605Y-68280000D01*
X95254745Y-69108139D01*
X95500864Y-69034005D01*
X95693965Y-68496777D01*
X95666778Y-67926546D01*
X95500864Y-67525995D01*
X95254745Y-67451861D01*
X94426605Y-68280000D01*
X94067395Y-68280000D01*
X93239255Y-67451861D01*
X92993136Y-67525995D01*
X92800035Y-68063223D01*
X89806890Y-68063223D01*
X89895809Y-68003809D01*
X90036157Y-67793765D01*
X90083451Y-67556000D01*
X90870153Y-67556000D01*
X90945000Y-67570888D01*
X91019847Y-67556000D01*
X91019852Y-67556000D01*
X91241537Y-67511904D01*
X91492929Y-67343929D01*
X91535331Y-67280470D01*
X92275802Y-66540000D01*
X92799560Y-66540000D01*
X92799560Y-66580000D01*
X92848843Y-66827765D01*
X92989191Y-67037809D01*
X93199235Y-67178157D01*
X93433187Y-67224693D01*
X93418861Y-67272255D01*
X94247000Y-68100395D01*
X95075139Y-67272255D01*
X95060813Y-67224693D01*
X95294765Y-67178157D01*
X95504809Y-67037809D01*
X95645157Y-66827765D01*
X95694440Y-66580000D01*
X95694440Y-64980000D01*
X95645157Y-64732235D01*
X95504809Y-64522191D01*
X95294765Y-64381843D01*
X95047000Y-64332560D01*
X94895483Y-64332560D01*
X94855421Y-64272603D01*
X97740000Y-64274505D01*
X97740001Y-94165000D01*
X87256801Y-94165000D01*
X87619473Y-93802329D01*
X87682929Y-93759929D01*
X87764282Y-93638176D01*
X88212480Y-93795927D01*
X88742199Y-93767148D01*
X89097929Y-93619800D01*
X89159583Y-93384188D01*
X88405000Y-92629605D01*
X88390858Y-92643748D01*
X88211253Y-92464143D01*
X88225395Y-92450000D01*
X88584605Y-92450000D01*
X89339188Y-93204583D01*
X89574800Y-93142929D01*
X89750927Y-92642520D01*
X89722148Y-92112801D01*
X89574800Y-91757071D01*
X89339188Y-91695417D01*
X88584605Y-92450000D01*
X88225395Y-92450000D01*
X88211253Y-92435858D01*
X88390858Y-92256253D01*
X88405000Y-92270395D01*
X89159583Y-91515812D01*
X89097929Y-91280200D01*
X88597520Y-91104073D01*
X88067801Y-91132852D01*
X87895000Y-91204428D01*
X87895000Y-89539997D01*
X90945490Y-89539997D01*
X90951456Y-90299690D01*
X91180540Y-91024045D01*
X91612485Y-91649018D01*
X92209103Y-92119354D01*
X92917644Y-92393467D01*
X93675463Y-92447124D01*
X94415558Y-92275579D01*
X95072495Y-91894000D01*
X95588191Y-91336123D01*
X95917051Y-90651273D01*
X96030000Y-89900000D01*
X96029685Y-89859868D01*
X95904949Y-89110462D01*
X95565373Y-88430862D01*
X95040978Y-87881154D01*
X94378128Y-87509941D01*
X93635430Y-87350042D01*
X92878547Y-87415595D01*
X92174399Y-87700804D01*
X91585243Y-88180453D01*
X91163167Y-88812134D01*
X90945490Y-89539997D01*
X87895000Y-89539997D01*
X87895000Y-86064185D01*
X88212480Y-86175927D01*
X88742199Y-86147148D01*
X89097929Y-85999800D01*
X89159583Y-85764188D01*
X88405000Y-85009605D01*
X88390858Y-85023748D01*
X88211253Y-84844143D01*
X88225395Y-84830000D01*
X88584605Y-84830000D01*
X89339188Y-85584583D01*
X89574800Y-85522929D01*
X89750927Y-85022520D01*
X89722148Y-84492801D01*
X89574800Y-84137071D01*
X89339188Y-84075417D01*
X88584605Y-84830000D01*
X88225395Y-84830000D01*
X88211253Y-84815858D01*
X88390858Y-84636253D01*
X88405000Y-84650395D01*
X89159583Y-83895812D01*
X89097929Y-83660200D01*
X88597520Y-83484073D01*
X88067801Y-83512852D01*
X87895000Y-83584428D01*
X87895000Y-82464430D01*
X87947862Y-82442534D01*
X88351534Y-82038862D01*
X88570000Y-81511439D01*
X88570000Y-80940561D01*
X88351534Y-80413138D01*
X87947862Y-80009466D01*
X87420439Y-79791000D01*
X86849561Y-79791000D01*
X86322138Y-80009466D01*
X86092018Y-80239586D01*
X83612421Y-77759990D01*
X85417412Y-77759990D01*
X85700000Y-78042578D01*
X85700000Y-78511439D01*
X85918466Y-79038862D01*
X86322138Y-79442534D01*
X86849561Y-79661000D01*
X87420439Y-79661000D01*
X87947862Y-79442534D01*
X88351534Y-79038862D01*
X88570000Y-78511439D01*
X88570000Y-77940561D01*
X88351534Y-77413138D01*
X87947862Y-77009466D01*
X87420439Y-76791000D01*
X86951578Y-76791000D01*
X86471415Y-76310837D01*
X86422039Y-76236941D01*
X86129300Y-76041338D01*
X85871155Y-75989990D01*
X85871151Y-75989990D01*
X85783990Y-75972653D01*
X85696829Y-75989990D01*
X80406000Y-75989990D01*
X80406000Y-75361750D01*
X80247250Y-75203000D01*
X79148000Y-75203000D01*
X79148000Y-75223000D01*
X78894000Y-75223000D01*
X78894000Y-75203000D01*
X78874000Y-75203000D01*
X78874000Y-74949000D01*
X78894000Y-74949000D01*
X78894000Y-73599750D01*
X79148000Y-73599750D01*
X79148000Y-74949000D01*
X80247250Y-74949000D01*
X80406000Y-74790250D01*
X80406000Y-73949691D01*
X80309327Y-73716302D01*
X80130699Y-73537673D01*
X79897310Y-73441000D01*
X79306750Y-73441000D01*
X79148000Y-73599750D01*
X78894000Y-73599750D01*
X78735250Y-73441000D01*
X78144690Y-73441000D01*
X77911301Y-73537673D01*
X77870047Y-73578927D01*
X77718765Y-73477843D01*
X77659162Y-73465987D01*
X77888049Y-73313049D01*
X77937425Y-73239153D01*
X79189156Y-71987423D01*
X79263049Y-71938049D01*
X79340901Y-71821537D01*
X79458652Y-71645310D01*
X79468177Y-71597423D01*
X79510000Y-71387165D01*
X79510000Y-71387161D01*
X79527337Y-71300000D01*
X79510000Y-71212839D01*
X79510000Y-68605750D01*
X79858000Y-68605750D01*
X79858000Y-69246309D01*
X79954673Y-69479698D01*
X80133301Y-69658327D01*
X80366690Y-69755000D01*
X81007250Y-69755000D01*
X81166000Y-69596250D01*
X81166000Y-68447000D01*
X81420000Y-68447000D01*
X81420000Y-69596250D01*
X81578750Y-69755000D01*
X82219310Y-69755000D01*
X82452699Y-69658327D01*
X82631327Y-69479698D01*
X82710836Y-69287745D01*
X93418861Y-69287745D01*
X93492995Y-69533864D01*
X94030223Y-69726965D01*
X94600454Y-69699778D01*
X95001005Y-69533864D01*
X95075139Y-69287745D01*
X94247000Y-68459605D01*
X93418861Y-69287745D01*
X82710836Y-69287745D01*
X82728000Y-69246309D01*
X82728000Y-68605750D01*
X82569250Y-68447000D01*
X81420000Y-68447000D01*
X81166000Y-68447000D01*
X80016750Y-68447000D01*
X79858000Y-68605750D01*
X79510000Y-68605750D01*
X79510000Y-67723208D01*
X79871069Y-67362139D01*
X79858000Y-67393691D01*
X79858000Y-68034250D01*
X80016750Y-68193000D01*
X81166000Y-68193000D01*
X81166000Y-68173000D01*
X81420000Y-68173000D01*
X81420000Y-68193000D01*
X82569250Y-68193000D01*
X82728000Y-68034250D01*
X82728000Y-67393691D01*
X82631327Y-67160302D01*
X82452699Y-66981673D01*
X82246241Y-66896155D01*
X82509534Y-66632862D01*
X82728000Y-66105439D01*
X82728000Y-65534561D01*
X82509534Y-65007138D01*
X82105862Y-64603466D01*
X81578439Y-64385000D01*
X81007561Y-64385000D01*
X80480138Y-64603466D01*
X80165226Y-64918378D01*
X80161630Y-64917663D01*
X80074469Y-64935000D01*
X80074465Y-64935000D01*
X79848234Y-64980000D01*
X79816320Y-64986348D01*
X79597475Y-65132576D01*
X79597474Y-65132577D01*
X79523581Y-65181951D01*
X79474207Y-65255844D01*
X78060847Y-66669205D01*
X77986951Y-66718581D01*
X77791348Y-67011321D01*
X77740000Y-67269466D01*
X77740000Y-67269469D01*
X77722663Y-67356630D01*
X77740000Y-67443791D01*
X77740001Y-70933420D01*
X76883422Y-71790000D01*
X75312161Y-71790000D01*
X75225000Y-71772663D01*
X75137839Y-71790000D01*
X75137835Y-71790000D01*
X74879690Y-71841348D01*
X74660845Y-71987576D01*
X74660844Y-71987577D01*
X74586951Y-72036951D01*
X74537577Y-72110844D01*
X73856847Y-72791575D01*
X73782951Y-72840951D01*
X73587348Y-73133691D01*
X73536000Y-73391836D01*
X73536000Y-73391839D01*
X73522834Y-73458032D01*
X73423235Y-73477843D01*
X73213191Y-73618191D01*
X73072843Y-73828235D01*
X73023560Y-74076000D01*
X73023560Y-76076000D01*
X73072843Y-76323765D01*
X73213191Y-76533809D01*
X73423235Y-76674157D01*
X73502884Y-76690000D01*
X71164802Y-76690000D01*
X70517526Y-76042724D01*
X70574000Y-75986250D01*
X70574000Y-74887000D01*
X70828000Y-74887000D01*
X70828000Y-75986250D01*
X70986750Y-76145000D01*
X71327310Y-76145000D01*
X71560699Y-76048327D01*
X71739327Y-75869698D01*
X71836000Y-75636309D01*
X71836000Y-75045750D01*
X71677250Y-74887000D01*
X70828000Y-74887000D01*
X70574000Y-74887000D01*
X70554000Y-74887000D01*
X70554000Y-74633000D01*
X70574000Y-74633000D01*
X70574000Y-73533750D01*
X70828000Y-73533750D01*
X70828000Y-74633000D01*
X71677250Y-74633000D01*
X71836000Y-74474250D01*
X71836000Y-73883691D01*
X71739327Y-73650302D01*
X71560699Y-73471673D01*
X71327310Y-73375000D01*
X70986750Y-73375000D01*
X70828000Y-73533750D01*
X70574000Y-73533750D01*
X70415250Y-73375000D01*
X70135000Y-73375000D01*
X70135000Y-71599846D01*
X70149888Y-71524999D01*
X70135000Y-71450152D01*
X70135000Y-71450148D01*
X70090904Y-71228463D01*
X70028000Y-71134321D01*
X70028000Y-70574561D01*
X69948964Y-70383750D01*
X71984000Y-70383750D01*
X71984000Y-71024310D01*
X72080673Y-71257699D01*
X72259302Y-71436327D01*
X72492691Y-71533000D01*
X73133250Y-71533000D01*
X73292000Y-71374250D01*
X73292000Y-70225000D01*
X72142750Y-70225000D01*
X71984000Y-70383750D01*
X69948964Y-70383750D01*
X69809534Y-70047138D01*
X69447396Y-69685000D01*
X70298153Y-69685000D01*
X70373000Y-69699888D01*
X70447847Y-69685000D01*
X70447852Y-69685000D01*
X70669537Y-69640904D01*
X70920929Y-69472929D01*
X70963331Y-69409470D01*
X71201111Y-69171690D01*
X71984000Y-69171690D01*
X71984000Y-69812250D01*
X72142750Y-69971000D01*
X73292000Y-69971000D01*
X73292000Y-68821750D01*
X73133250Y-68663000D01*
X72492691Y-68663000D01*
X72259302Y-68759673D01*
X72080673Y-68938301D01*
X71984000Y-69171690D01*
X71201111Y-69171690D01*
X73633473Y-66739329D01*
X73696929Y-66696929D01*
X73739924Y-66632582D01*
X73805795Y-66534000D01*
X73863250Y-66534000D01*
X74022000Y-66375250D01*
X74022000Y-66221830D01*
X74072157Y-66146765D01*
X74121440Y-65899000D01*
X74121440Y-64877000D01*
X74276000Y-64877000D01*
X74276000Y-64897000D01*
X74296000Y-64897000D01*
X74296000Y-65151000D01*
X74276000Y-65151000D01*
X74276000Y-66375250D01*
X74434750Y-66534000D01*
X74600309Y-66534000D01*
X74833698Y-66437327D01*
X75012327Y-66258699D01*
X75109000Y-66025310D01*
X75109000Y-65309750D01*
X74950252Y-65151002D01*
X74986202Y-65151002D01*
X75159000Y-65323800D01*
X75159001Y-68859569D01*
X75106138Y-68881466D01*
X74842845Y-69144759D01*
X74757327Y-68938301D01*
X74578698Y-68759673D01*
X74345309Y-68663000D01*
X73704750Y-68663000D01*
X73546000Y-68821750D01*
X73546000Y-69971000D01*
X73566000Y-69971000D01*
X73566000Y-70225000D01*
X73546000Y-70225000D01*
X73546000Y-71374250D01*
X73704750Y-71533000D01*
X74345309Y-71533000D01*
X74578698Y-71436327D01*
X74757327Y-71257699D01*
X74842845Y-71051241D01*
X75106138Y-71314534D01*
X75633561Y-71533000D01*
X76204439Y-71533000D01*
X76731862Y-71314534D01*
X77135534Y-70910862D01*
X77354000Y-70383439D01*
X77354000Y-69812561D01*
X77135534Y-69285138D01*
X76731862Y-68881466D01*
X76679000Y-68859570D01*
X76679000Y-65083846D01*
X76693888Y-65008998D01*
X76679000Y-64934150D01*
X76679000Y-64934146D01*
X76634904Y-64712461D01*
X76634904Y-64712460D01*
X76509329Y-64524525D01*
X76466929Y-64461069D01*
X76403473Y-64418669D01*
X76245139Y-64260336D01*
X81862126Y-64264038D01*
X81862126Y-64264038D01*
G37*
X81862126Y-64264038D02*
X82864254Y-65266166D01*
X82913628Y-65340059D01*
X82987521Y-65389433D01*
X82987522Y-65389434D01*
X83128246Y-65483463D01*
X83206367Y-65535662D01*
X83464512Y-65587010D01*
X83464516Y-65587010D01*
X83551677Y-65604347D01*
X83638838Y-65587010D01*
X85488001Y-65587010D01*
X85488001Y-65807553D01*
X85280305Y-66118391D01*
X85213000Y-66456754D01*
X85213000Y-67135245D01*
X85280305Y-67473608D01*
X85536687Y-67857313D01*
X85920391Y-68113695D01*
X86373000Y-68203725D01*
X86825608Y-68113695D01*
X87008000Y-67991825D01*
X87190391Y-68113695D01*
X87643000Y-68203725D01*
X88094866Y-68113842D01*
X88140235Y-68144157D01*
X88388000Y-68193440D01*
X89438000Y-68193440D01*
X89685765Y-68144157D01*
X89806890Y-68063223D01*
X92800035Y-68063223D01*
X92827222Y-68633454D01*
X92993136Y-69034005D01*
X93239255Y-69108139D01*
X94067395Y-68280000D01*
X94426605Y-68280000D01*
X95254745Y-69108139D01*
X95500864Y-69034005D01*
X95693965Y-68496777D01*
X95666778Y-67926546D01*
X95500864Y-67525995D01*
X95254745Y-67451861D01*
X94426605Y-68280000D01*
X94067395Y-68280000D01*
X93239255Y-67451861D01*
X92993136Y-67525995D01*
X92800035Y-68063223D01*
X89806890Y-68063223D01*
X89895809Y-68003809D01*
X90036157Y-67793765D01*
X90083451Y-67556000D01*
X90870153Y-67556000D01*
X90945000Y-67570888D01*
X91019847Y-67556000D01*
X91019852Y-67556000D01*
X91241537Y-67511904D01*
X91492929Y-67343929D01*
X91535331Y-67280470D01*
X92275802Y-66540000D01*
X92799560Y-66540000D01*
X92799560Y-66580000D01*
X92848843Y-66827765D01*
X92989191Y-67037809D01*
X93199235Y-67178157D01*
X93433187Y-67224693D01*
X93418861Y-67272255D01*
X94247000Y-68100395D01*
X95075139Y-67272255D01*
X95060813Y-67224693D01*
X95294765Y-67178157D01*
X95504809Y-67037809D01*
X95645157Y-66827765D01*
X95694440Y-66580000D01*
X95694440Y-64980000D01*
X95645157Y-64732235D01*
X95504809Y-64522191D01*
X95294765Y-64381843D01*
X95047000Y-64332560D01*
X94895483Y-64332560D01*
X94855421Y-64272603D01*
X97740000Y-64274505D01*
X97740001Y-94165000D01*
X87256801Y-94165000D01*
X87619473Y-93802329D01*
X87682929Y-93759929D01*
X87764282Y-93638176D01*
X88212480Y-93795927D01*
X88742199Y-93767148D01*
X89097929Y-93619800D01*
X89159583Y-93384188D01*
X88405000Y-92629605D01*
X88390858Y-92643748D01*
X88211253Y-92464143D01*
X88225395Y-92450000D01*
X88584605Y-92450000D01*
X89339188Y-93204583D01*
X89574800Y-93142929D01*
X89750927Y-92642520D01*
X89722148Y-92112801D01*
X89574800Y-91757071D01*
X89339188Y-91695417D01*
X88584605Y-92450000D01*
X88225395Y-92450000D01*
X88211253Y-92435858D01*
X88390858Y-92256253D01*
X88405000Y-92270395D01*
X89159583Y-91515812D01*
X89097929Y-91280200D01*
X88597520Y-91104073D01*
X88067801Y-91132852D01*
X87895000Y-91204428D01*
X87895000Y-89539997D01*
X90945490Y-89539997D01*
X90951456Y-90299690D01*
X91180540Y-91024045D01*
X91612485Y-91649018D01*
X92209103Y-92119354D01*
X92917644Y-92393467D01*
X93675463Y-92447124D01*
X94415558Y-92275579D01*
X95072495Y-91894000D01*
X95588191Y-91336123D01*
X95917051Y-90651273D01*
X96030000Y-89900000D01*
X96029685Y-89859868D01*
X95904949Y-89110462D01*
X95565373Y-88430862D01*
X95040978Y-87881154D01*
X94378128Y-87509941D01*
X93635430Y-87350042D01*
X92878547Y-87415595D01*
X92174399Y-87700804D01*
X91585243Y-88180453D01*
X91163167Y-88812134D01*
X90945490Y-89539997D01*
X87895000Y-89539997D01*
X87895000Y-86064185D01*
X88212480Y-86175927D01*
X88742199Y-86147148D01*
X89097929Y-85999800D01*
X89159583Y-85764188D01*
X88405000Y-85009605D01*
X88390858Y-85023748D01*
X88211253Y-84844143D01*
X88225395Y-84830000D01*
X88584605Y-84830000D01*
X89339188Y-85584583D01*
X89574800Y-85522929D01*
X89750927Y-85022520D01*
X89722148Y-84492801D01*
X89574800Y-84137071D01*
X89339188Y-84075417D01*
X88584605Y-84830000D01*
X88225395Y-84830000D01*
X88211253Y-84815858D01*
X88390858Y-84636253D01*
X88405000Y-84650395D01*
X89159583Y-83895812D01*
X89097929Y-83660200D01*
X88597520Y-83484073D01*
X88067801Y-83512852D01*
X87895000Y-83584428D01*
X87895000Y-82464430D01*
X87947862Y-82442534D01*
X88351534Y-82038862D01*
X88570000Y-81511439D01*
X88570000Y-80940561D01*
X88351534Y-80413138D01*
X87947862Y-80009466D01*
X87420439Y-79791000D01*
X86849561Y-79791000D01*
X86322138Y-80009466D01*
X86092018Y-80239586D01*
X83612421Y-77759990D01*
X85417412Y-77759990D01*
X85700000Y-78042578D01*
X85700000Y-78511439D01*
X85918466Y-79038862D01*
X86322138Y-79442534D01*
X86849561Y-79661000D01*
X87420439Y-79661000D01*
X87947862Y-79442534D01*
X88351534Y-79038862D01*
X88570000Y-78511439D01*
X88570000Y-77940561D01*
X88351534Y-77413138D01*
X87947862Y-77009466D01*
X87420439Y-76791000D01*
X86951578Y-76791000D01*
X86471415Y-76310837D01*
X86422039Y-76236941D01*
X86129300Y-76041338D01*
X85871155Y-75989990D01*
X85871151Y-75989990D01*
X85783990Y-75972653D01*
X85696829Y-75989990D01*
X80406000Y-75989990D01*
X80406000Y-75361750D01*
X80247250Y-75203000D01*
X79148000Y-75203000D01*
X79148000Y-75223000D01*
X78894000Y-75223000D01*
X78894000Y-75203000D01*
X78874000Y-75203000D01*
X78874000Y-74949000D01*
X78894000Y-74949000D01*
X78894000Y-73599750D01*
X79148000Y-73599750D01*
X79148000Y-74949000D01*
X80247250Y-74949000D01*
X80406000Y-74790250D01*
X80406000Y-73949691D01*
X80309327Y-73716302D01*
X80130699Y-73537673D01*
X79897310Y-73441000D01*
X79306750Y-73441000D01*
X79148000Y-73599750D01*
X78894000Y-73599750D01*
X78735250Y-73441000D01*
X78144690Y-73441000D01*
X77911301Y-73537673D01*
X77870047Y-73578927D01*
X77718765Y-73477843D01*
X77659162Y-73465987D01*
X77888049Y-73313049D01*
X77937425Y-73239153D01*
X79189156Y-71987423D01*
X79263049Y-71938049D01*
X79340901Y-71821537D01*
X79458652Y-71645310D01*
X79468177Y-71597423D01*
X79510000Y-71387165D01*
X79510000Y-71387161D01*
X79527337Y-71300000D01*
X79510000Y-71212839D01*
X79510000Y-68605750D01*
X79858000Y-68605750D01*
X79858000Y-69246309D01*
X79954673Y-69479698D01*
X80133301Y-69658327D01*
X80366690Y-69755000D01*
X81007250Y-69755000D01*
X81166000Y-69596250D01*
X81166000Y-68447000D01*
X81420000Y-68447000D01*
X81420000Y-69596250D01*
X81578750Y-69755000D01*
X82219310Y-69755000D01*
X82452699Y-69658327D01*
X82631327Y-69479698D01*
X82710836Y-69287745D01*
X93418861Y-69287745D01*
X93492995Y-69533864D01*
X94030223Y-69726965D01*
X94600454Y-69699778D01*
X95001005Y-69533864D01*
X95075139Y-69287745D01*
X94247000Y-68459605D01*
X93418861Y-69287745D01*
X82710836Y-69287745D01*
X82728000Y-69246309D01*
X82728000Y-68605750D01*
X82569250Y-68447000D01*
X81420000Y-68447000D01*
X81166000Y-68447000D01*
X80016750Y-68447000D01*
X79858000Y-68605750D01*
X79510000Y-68605750D01*
X79510000Y-67723208D01*
X79871069Y-67362139D01*
X79858000Y-67393691D01*
X79858000Y-68034250D01*
X80016750Y-68193000D01*
X81166000Y-68193000D01*
X81166000Y-68173000D01*
X81420000Y-68173000D01*
X81420000Y-68193000D01*
X82569250Y-68193000D01*
X82728000Y-68034250D01*
X82728000Y-67393691D01*
X82631327Y-67160302D01*
X82452699Y-66981673D01*
X82246241Y-66896155D01*
X82509534Y-66632862D01*
X82728000Y-66105439D01*
X82728000Y-65534561D01*
X82509534Y-65007138D01*
X82105862Y-64603466D01*
X81578439Y-64385000D01*
X81007561Y-64385000D01*
X80480138Y-64603466D01*
X80165226Y-64918378D01*
X80161630Y-64917663D01*
X80074469Y-64935000D01*
X80074465Y-64935000D01*
X79848234Y-64980000D01*
X79816320Y-64986348D01*
X79597475Y-65132576D01*
X79597474Y-65132577D01*
X79523581Y-65181951D01*
X79474207Y-65255844D01*
X78060847Y-66669205D01*
X77986951Y-66718581D01*
X77791348Y-67011321D01*
X77740000Y-67269466D01*
X77740000Y-67269469D01*
X77722663Y-67356630D01*
X77740000Y-67443791D01*
X77740001Y-70933420D01*
X76883422Y-71790000D01*
X75312161Y-71790000D01*
X75225000Y-71772663D01*
X75137839Y-71790000D01*
X75137835Y-71790000D01*
X74879690Y-71841348D01*
X74660845Y-71987576D01*
X74660844Y-71987577D01*
X74586951Y-72036951D01*
X74537577Y-72110844D01*
X73856847Y-72791575D01*
X73782951Y-72840951D01*
X73587348Y-73133691D01*
X73536000Y-73391836D01*
X73536000Y-73391839D01*
X73522834Y-73458032D01*
X73423235Y-73477843D01*
X73213191Y-73618191D01*
X73072843Y-73828235D01*
X73023560Y-74076000D01*
X73023560Y-76076000D01*
X73072843Y-76323765D01*
X73213191Y-76533809D01*
X73423235Y-76674157D01*
X73502884Y-76690000D01*
X71164802Y-76690000D01*
X70517526Y-76042724D01*
X70574000Y-75986250D01*
X70574000Y-74887000D01*
X70828000Y-74887000D01*
X70828000Y-75986250D01*
X70986750Y-76145000D01*
X71327310Y-76145000D01*
X71560699Y-76048327D01*
X71739327Y-75869698D01*
X71836000Y-75636309D01*
X71836000Y-75045750D01*
X71677250Y-74887000D01*
X70828000Y-74887000D01*
X70574000Y-74887000D01*
X70554000Y-74887000D01*
X70554000Y-74633000D01*
X70574000Y-74633000D01*
X70574000Y-73533750D01*
X70828000Y-73533750D01*
X70828000Y-74633000D01*
X71677250Y-74633000D01*
X71836000Y-74474250D01*
X71836000Y-73883691D01*
X71739327Y-73650302D01*
X71560699Y-73471673D01*
X71327310Y-73375000D01*
X70986750Y-73375000D01*
X70828000Y-73533750D01*
X70574000Y-73533750D01*
X70415250Y-73375000D01*
X70135000Y-73375000D01*
X70135000Y-71599846D01*
X70149888Y-71524999D01*
X70135000Y-71450152D01*
X70135000Y-71450148D01*
X70090904Y-71228463D01*
X70028000Y-71134321D01*
X70028000Y-70574561D01*
X69948964Y-70383750D01*
X71984000Y-70383750D01*
X71984000Y-71024310D01*
X72080673Y-71257699D01*
X72259302Y-71436327D01*
X72492691Y-71533000D01*
X73133250Y-71533000D01*
X73292000Y-71374250D01*
X73292000Y-70225000D01*
X72142750Y-70225000D01*
X71984000Y-70383750D01*
X69948964Y-70383750D01*
X69809534Y-70047138D01*
X69447396Y-69685000D01*
X70298153Y-69685000D01*
X70373000Y-69699888D01*
X70447847Y-69685000D01*
X70447852Y-69685000D01*
X70669537Y-69640904D01*
X70920929Y-69472929D01*
X70963331Y-69409470D01*
X71201111Y-69171690D01*
X71984000Y-69171690D01*
X71984000Y-69812250D01*
X72142750Y-69971000D01*
X73292000Y-69971000D01*
X73292000Y-68821750D01*
X73133250Y-68663000D01*
X72492691Y-68663000D01*
X72259302Y-68759673D01*
X72080673Y-68938301D01*
X71984000Y-69171690D01*
X71201111Y-69171690D01*
X73633473Y-66739329D01*
X73696929Y-66696929D01*
X73739924Y-66632582D01*
X73805795Y-66534000D01*
X73863250Y-66534000D01*
X74022000Y-66375250D01*
X74022000Y-66221830D01*
X74072157Y-66146765D01*
X74121440Y-65899000D01*
X74121440Y-64877000D01*
X74276000Y-64877000D01*
X74276000Y-64897000D01*
X74296000Y-64897000D01*
X74296000Y-65151000D01*
X74276000Y-65151000D01*
X74276000Y-66375250D01*
X74434750Y-66534000D01*
X74600309Y-66534000D01*
X74833698Y-66437327D01*
X75012327Y-66258699D01*
X75109000Y-66025310D01*
X75109000Y-65309750D01*
X74950252Y-65151002D01*
X74986202Y-65151002D01*
X75159000Y-65323800D01*
X75159001Y-68859569D01*
X75106138Y-68881466D01*
X74842845Y-69144759D01*
X74757327Y-68938301D01*
X74578698Y-68759673D01*
X74345309Y-68663000D01*
X73704750Y-68663000D01*
X73546000Y-68821750D01*
X73546000Y-69971000D01*
X73566000Y-69971000D01*
X73566000Y-70225000D01*
X73546000Y-70225000D01*
X73546000Y-71374250D01*
X73704750Y-71533000D01*
X74345309Y-71533000D01*
X74578698Y-71436327D01*
X74757327Y-71257699D01*
X74842845Y-71051241D01*
X75106138Y-71314534D01*
X75633561Y-71533000D01*
X76204439Y-71533000D01*
X76731862Y-71314534D01*
X77135534Y-70910862D01*
X77354000Y-70383439D01*
X77354000Y-69812561D01*
X77135534Y-69285138D01*
X76731862Y-68881466D01*
X76679000Y-68859570D01*
X76679000Y-65083846D01*
X76693888Y-65008998D01*
X76679000Y-64934150D01*
X76679000Y-64934146D01*
X76634904Y-64712461D01*
X76634904Y-64712460D01*
X76509329Y-64524525D01*
X76466929Y-64461069D01*
X76403473Y-64418669D01*
X76245139Y-64260336D01*
X81862126Y-64264038D01*
G36*
X70259670Y-77934472D02*
X70302071Y-77997929D01*
X70553463Y-78165904D01*
X70775148Y-78210000D01*
X70775152Y-78210000D01*
X70849999Y-78224888D01*
X70924846Y-78210000D01*
X81912829Y-78210000D01*
X85413303Y-81710476D01*
X85455701Y-81773929D01*
X85519154Y-81816327D01*
X85519156Y-81816329D01*
X85609722Y-81876843D01*
X85707093Y-81941904D01*
X85893678Y-81979018D01*
X85918466Y-82038862D01*
X86322138Y-82442534D01*
X86375001Y-82464431D01*
X86375000Y-92897198D01*
X86108688Y-93163511D01*
X84472824Y-93163511D01*
X84658500Y-92715250D01*
X84658500Y-92184750D01*
X84455487Y-91694633D01*
X84085000Y-91324146D01*
X84085000Y-85955854D01*
X84455487Y-85585367D01*
X84658500Y-85095250D01*
X84658500Y-84564750D01*
X84455487Y-84074633D01*
X84080367Y-83699513D01*
X83590250Y-83496500D01*
X83059750Y-83496500D01*
X82569633Y-83699513D01*
X82194513Y-84074633D01*
X81991500Y-84564750D01*
X81991500Y-85095250D01*
X82194513Y-85585367D01*
X82565000Y-85955854D01*
X82565001Y-91324145D01*
X82194513Y-91694633D01*
X81991500Y-92184750D01*
X81991500Y-92713501D01*
X80835944Y-92713501D01*
X80860927Y-92642520D01*
X80832148Y-92112801D01*
X80684800Y-91757071D01*
X80449188Y-91695417D01*
X79694605Y-92450000D01*
X79708748Y-92464143D01*
X79529143Y-92643748D01*
X79515000Y-92629605D01*
X79500858Y-92643748D01*
X79321253Y-92464143D01*
X79335395Y-92450000D01*
X78580812Y-91695417D01*
X78345200Y-91757071D01*
X78169073Y-92257480D01*
X78193848Y-92713501D01*
X75768500Y-92713501D01*
X75768500Y-92184750D01*
X75565487Y-91694633D01*
X75386666Y-91515812D01*
X78760417Y-91515812D01*
X79515000Y-92270395D01*
X80269583Y-91515812D01*
X80207929Y-91280200D01*
X79707520Y-91104073D01*
X79177801Y-91132852D01*
X78822071Y-91280200D01*
X78760417Y-91515812D01*
X75386666Y-91515812D01*
X75195000Y-91324146D01*
X75195000Y-85955854D01*
X75386666Y-85764188D01*
X78760417Y-85764188D01*
X78822071Y-85999800D01*
X79322480Y-86175927D01*
X79852199Y-86147148D01*
X80207929Y-85999800D01*
X80269583Y-85764188D01*
X79515000Y-85009605D01*
X78760417Y-85764188D01*
X75386666Y-85764188D01*
X75565487Y-85585367D01*
X75768500Y-85095250D01*
X75768500Y-84637480D01*
X78169073Y-84637480D01*
X78197852Y-85167199D01*
X78345200Y-85522929D01*
X78580812Y-85584583D01*
X79335395Y-84830000D01*
X79694605Y-84830000D01*
X80449188Y-85584583D01*
X80684800Y-85522929D01*
X80860927Y-85022520D01*
X80832148Y-84492801D01*
X80684800Y-84137071D01*
X80449188Y-84075417D01*
X79694605Y-84830000D01*
X79335395Y-84830000D01*
X78580812Y-84075417D01*
X78345200Y-84137071D01*
X78169073Y-84637480D01*
X75768500Y-84637480D01*
X75768500Y-84564750D01*
X75565487Y-84074633D01*
X75386666Y-83895812D01*
X78760417Y-83895812D01*
X79515000Y-84650395D01*
X80269583Y-83895812D01*
X80207929Y-83660200D01*
X79707520Y-83484073D01*
X79177801Y-83512852D01*
X78822071Y-83660200D01*
X78760417Y-83895812D01*
X75386666Y-83895812D01*
X75190367Y-83699513D01*
X74724171Y-83506408D01*
X75207139Y-83023440D01*
X78621000Y-83023440D01*
X78868765Y-82974157D01*
X79078809Y-82833809D01*
X79219157Y-82623765D01*
X79268440Y-82376000D01*
X79268440Y-80376000D01*
X79219157Y-80128235D01*
X79078809Y-79918191D01*
X78868765Y-79777843D01*
X78621000Y-79728560D01*
X74821000Y-79728560D01*
X74573235Y-79777843D01*
X74363191Y-79918191D01*
X74222843Y-80128235D01*
X74173560Y-80376000D01*
X74173560Y-80491000D01*
X71832328Y-80491000D01*
X71848440Y-80410000D01*
X71848440Y-78910000D01*
X71799157Y-78662235D01*
X71658809Y-78452191D01*
X71448765Y-78311843D01*
X71201000Y-78262560D01*
X70201000Y-78262560D01*
X69953235Y-78311843D01*
X69743191Y-78452191D01*
X69602843Y-78662235D01*
X69553560Y-78910000D01*
X69553560Y-80410000D01*
X69569672Y-80491000D01*
X68632328Y-80491000D01*
X68648440Y-80410000D01*
X68648440Y-78910000D01*
X68599157Y-78662235D01*
X68559578Y-78603001D01*
X69015157Y-78147422D01*
X69089050Y-78098048D01*
X69155977Y-77997886D01*
X69257567Y-77845846D01*
X69284653Y-77805309D01*
X69336001Y-77547164D01*
X69336001Y-77547160D01*
X69353338Y-77460000D01*
X69336001Y-77372840D01*
X69336001Y-77010802D01*
X70259670Y-77934472D01*
X70259670Y-77934472D01*
G37*
X70259670Y-77934472D02*
X70302071Y-77997929D01*
X70553463Y-78165904D01*
X70775148Y-78210000D01*
X70775152Y-78210000D01*
X70849999Y-78224888D01*
X70924846Y-78210000D01*
X81912829Y-78210000D01*
X85413303Y-81710476D01*
X85455701Y-81773929D01*
X85519154Y-81816327D01*
X85519156Y-81816329D01*
X85609722Y-81876843D01*
X85707093Y-81941904D01*
X85893678Y-81979018D01*
X85918466Y-82038862D01*
X86322138Y-82442534D01*
X86375001Y-82464431D01*
X86375000Y-92897198D01*
X86108688Y-93163511D01*
X84472824Y-93163511D01*
X84658500Y-92715250D01*
X84658500Y-92184750D01*
X84455487Y-91694633D01*
X84085000Y-91324146D01*
X84085000Y-85955854D01*
X84455487Y-85585367D01*
X84658500Y-85095250D01*
X84658500Y-84564750D01*
X84455487Y-84074633D01*
X84080367Y-83699513D01*
X83590250Y-83496500D01*
X83059750Y-83496500D01*
X82569633Y-83699513D01*
X82194513Y-84074633D01*
X81991500Y-84564750D01*
X81991500Y-85095250D01*
X82194513Y-85585367D01*
X82565000Y-85955854D01*
X82565001Y-91324145D01*
X82194513Y-91694633D01*
X81991500Y-92184750D01*
X81991500Y-92713501D01*
X80835944Y-92713501D01*
X80860927Y-92642520D01*
X80832148Y-92112801D01*
X80684800Y-91757071D01*
X80449188Y-91695417D01*
X79694605Y-92450000D01*
X79708748Y-92464143D01*
X79529143Y-92643748D01*
X79515000Y-92629605D01*
X79500858Y-92643748D01*
X79321253Y-92464143D01*
X79335395Y-92450000D01*
X78580812Y-91695417D01*
X78345200Y-91757071D01*
X78169073Y-92257480D01*
X78193848Y-92713501D01*
X75768500Y-92713501D01*
X75768500Y-92184750D01*
X75565487Y-91694633D01*
X75386666Y-91515812D01*
X78760417Y-91515812D01*
X79515000Y-92270395D01*
X80269583Y-91515812D01*
X80207929Y-91280200D01*
X79707520Y-91104073D01*
X79177801Y-91132852D01*
X78822071Y-91280200D01*
X78760417Y-91515812D01*
X75386666Y-91515812D01*
X75195000Y-91324146D01*
X75195000Y-85955854D01*
X75386666Y-85764188D01*
X78760417Y-85764188D01*
X78822071Y-85999800D01*
X79322480Y-86175927D01*
X79852199Y-86147148D01*
X80207929Y-85999800D01*
X80269583Y-85764188D01*
X79515000Y-85009605D01*
X78760417Y-85764188D01*
X75386666Y-85764188D01*
X75565487Y-85585367D01*
X75768500Y-85095250D01*
X75768500Y-84637480D01*
X78169073Y-84637480D01*
X78197852Y-85167199D01*
X78345200Y-85522929D01*
X78580812Y-85584583D01*
X79335395Y-84830000D01*
X79694605Y-84830000D01*
X80449188Y-85584583D01*
X80684800Y-85522929D01*
X80860927Y-85022520D01*
X80832148Y-84492801D01*
X80684800Y-84137071D01*
X80449188Y-84075417D01*
X79694605Y-84830000D01*
X79335395Y-84830000D01*
X78580812Y-84075417D01*
X78345200Y-84137071D01*
X78169073Y-84637480D01*
X75768500Y-84637480D01*
X75768500Y-84564750D01*
X75565487Y-84074633D01*
X75386666Y-83895812D01*
X78760417Y-83895812D01*
X79515000Y-84650395D01*
X80269583Y-83895812D01*
X80207929Y-83660200D01*
X79707520Y-83484073D01*
X79177801Y-83512852D01*
X78822071Y-83660200D01*
X78760417Y-83895812D01*
X75386666Y-83895812D01*
X75190367Y-83699513D01*
X74724171Y-83506408D01*
X75207139Y-83023440D01*
X78621000Y-83023440D01*
X78868765Y-82974157D01*
X79078809Y-82833809D01*
X79219157Y-82623765D01*
X79268440Y-82376000D01*
X79268440Y-80376000D01*
X79219157Y-80128235D01*
X79078809Y-79918191D01*
X78868765Y-79777843D01*
X78621000Y-79728560D01*
X74821000Y-79728560D01*
X74573235Y-79777843D01*
X74363191Y-79918191D01*
X74222843Y-80128235D01*
X74173560Y-80376000D01*
X74173560Y-80491000D01*
X71832328Y-80491000D01*
X71848440Y-80410000D01*
X71848440Y-78910000D01*
X71799157Y-78662235D01*
X71658809Y-78452191D01*
X71448765Y-78311843D01*
X71201000Y-78262560D01*
X70201000Y-78262560D01*
X69953235Y-78311843D01*
X69743191Y-78452191D01*
X69602843Y-78662235D01*
X69553560Y-78910000D01*
X69553560Y-80410000D01*
X69569672Y-80491000D01*
X68632328Y-80491000D01*
X68648440Y-80410000D01*
X68648440Y-78910000D01*
X68599157Y-78662235D01*
X68559578Y-78603001D01*
X69015157Y-78147422D01*
X69089050Y-78098048D01*
X69155977Y-77997886D01*
X69257567Y-77845846D01*
X69284653Y-77805309D01*
X69336001Y-77547164D01*
X69336001Y-77547160D01*
X69353338Y-77460000D01*
X69336001Y-77372840D01*
X69336001Y-77010802D01*
X70259670Y-77934472D01*
G36*
X73304513Y-85585367D02*
X73675001Y-85955855D01*
X73675000Y-91324146D01*
X73304513Y-91694633D01*
X73101500Y-92184750D01*
X73101500Y-92263491D01*
X71721934Y-92263491D01*
X71812476Y-92044890D01*
X71691155Y-91815000D01*
X70498000Y-91815000D01*
X70498000Y-91835000D01*
X70244000Y-91835000D01*
X70244000Y-91815000D01*
X70224000Y-91815000D01*
X70224000Y-91561000D01*
X70244000Y-91561000D01*
X70244000Y-89275000D01*
X70498000Y-89275000D01*
X70498000Y-91561000D01*
X71691155Y-91561000D01*
X71812476Y-91331110D01*
X71642645Y-90921076D01*
X71252358Y-90492817D01*
X71093046Y-90418000D01*
X71252358Y-90343183D01*
X71642645Y-89914924D01*
X71812476Y-89504890D01*
X71691155Y-89275000D01*
X70498000Y-89275000D01*
X70244000Y-89275000D01*
X70224000Y-89275000D01*
X70224000Y-89021000D01*
X70244000Y-89021000D01*
X70244000Y-89001000D01*
X70498000Y-89001000D01*
X70498000Y-89021000D01*
X71691155Y-89021000D01*
X71812476Y-88791110D01*
X71642645Y-88381076D01*
X71252358Y-87952817D01*
X71122522Y-87891843D01*
X71441625Y-87678625D01*
X71769839Y-87187418D01*
X71885092Y-86608000D01*
X71841538Y-86389040D01*
X73111408Y-85119170D01*
X73304513Y-85585367D01*
X73304513Y-85585367D01*
G37*
X73304513Y-85585367D02*
X73675001Y-85955855D01*
X73675000Y-91324146D01*
X73304513Y-91694633D01*
X73101500Y-92184750D01*
X73101500Y-92263491D01*
X71721934Y-92263491D01*
X71812476Y-92044890D01*
X71691155Y-91815000D01*
X70498000Y-91815000D01*
X70498000Y-91835000D01*
X70244000Y-91835000D01*
X70244000Y-91815000D01*
X70224000Y-91815000D01*
X70224000Y-91561000D01*
X70244000Y-91561000D01*
X70244000Y-89275000D01*
X70498000Y-89275000D01*
X70498000Y-91561000D01*
X71691155Y-91561000D01*
X71812476Y-91331110D01*
X71642645Y-90921076D01*
X71252358Y-90492817D01*
X71093046Y-90418000D01*
X71252358Y-90343183D01*
X71642645Y-89914924D01*
X71812476Y-89504890D01*
X71691155Y-89275000D01*
X70498000Y-89275000D01*
X70244000Y-89275000D01*
X70224000Y-89275000D01*
X70224000Y-89021000D01*
X70244000Y-89021000D01*
X70244000Y-89001000D01*
X70498000Y-89001000D01*
X70498000Y-89021000D01*
X71691155Y-89021000D01*
X71812476Y-88791110D01*
X71642645Y-88381076D01*
X71252358Y-87952817D01*
X71122522Y-87891843D01*
X71441625Y-87678625D01*
X71769839Y-87187418D01*
X71885092Y-86608000D01*
X71841538Y-86389040D01*
X73111408Y-85119170D01*
X73304513Y-85585367D01*
G36*
X63457462Y-54227735D02*
X62965530Y-54719667D01*
X62902071Y-54762069D01*
X62734096Y-55013462D01*
X62690000Y-55235147D01*
X62690000Y-55235151D01*
X62675112Y-55309998D01*
X62690000Y-55384845D01*
X62690001Y-64139340D01*
X62685799Y-64135138D01*
X62048113Y-63871000D01*
X61357887Y-63871000D01*
X60720201Y-64135138D01*
X60232138Y-64623201D01*
X59968000Y-65260887D01*
X59968000Y-65951113D01*
X60232138Y-66588799D01*
X60720201Y-67076862D01*
X60810117Y-67114106D01*
X60800663Y-67161634D01*
X60869348Y-67506943D01*
X61015576Y-67725788D01*
X61015578Y-67725790D01*
X61064952Y-67799683D01*
X61138845Y-67849057D01*
X61453942Y-68164154D01*
X61454507Y-68165000D01*
X52343846Y-68165000D01*
X52268999Y-68150112D01*
X52194152Y-68165000D01*
X52194148Y-68165000D01*
X51972463Y-68209096D01*
X51721071Y-68377071D01*
X51678671Y-68440527D01*
X46899528Y-73219671D01*
X46874000Y-73236728D01*
X46874000Y-71569848D01*
X46888888Y-71495000D01*
X46874000Y-71420152D01*
X46874000Y-71420148D01*
X46850061Y-71299800D01*
X46914000Y-71145439D01*
X46914000Y-70574561D01*
X46695534Y-70047138D01*
X46291862Y-69643466D01*
X45764439Y-69425000D01*
X45193561Y-69425000D01*
X44666138Y-69643466D01*
X44262466Y-70047138D01*
X44240570Y-70100000D01*
X31061802Y-70100000D01*
X30491000Y-69529199D01*
X30491000Y-67044090D01*
X59675292Y-66977000D01*
X59723870Y-66967221D01*
X59765009Y-66939596D01*
X59792444Y-66898331D01*
X59802000Y-66850000D01*
X59802000Y-51430868D01*
X60657737Y-51430868D01*
X60768641Y-51708099D01*
X61414593Y-51951323D01*
X62104453Y-51928836D01*
X62637359Y-51708099D01*
X62748263Y-51430868D01*
X61703000Y-50385605D01*
X60657737Y-51430868D01*
X59802000Y-51430868D01*
X59802000Y-49917593D01*
X59957677Y-49917593D01*
X59980164Y-50607453D01*
X60200901Y-51140359D01*
X60478132Y-51251263D01*
X61523395Y-50206000D01*
X61882605Y-50206000D01*
X62927868Y-51251263D01*
X63205099Y-51140359D01*
X63448323Y-50494407D01*
X63425836Y-49804547D01*
X63205099Y-49271641D01*
X62927868Y-49160737D01*
X61882605Y-50206000D01*
X61523395Y-50206000D01*
X60478132Y-49160737D01*
X60200901Y-49271641D01*
X59957677Y-49917593D01*
X59802000Y-49917593D01*
X59802000Y-48981132D01*
X60657737Y-48981132D01*
X61703000Y-50026395D01*
X62748263Y-48981132D01*
X62637359Y-48703901D01*
X61991407Y-48460677D01*
X61301547Y-48483164D01*
X60768641Y-48703901D01*
X60657737Y-48981132D01*
X59802000Y-48981132D01*
X59802000Y-48351188D01*
X63448200Y-48327815D01*
X63457462Y-54227735D01*
X63457462Y-54227735D01*
G37*
X63457462Y-54227735D02*
X62965530Y-54719667D01*
X62902071Y-54762069D01*
X62734096Y-55013462D01*
X62690000Y-55235147D01*
X62690000Y-55235151D01*
X62675112Y-55309998D01*
X62690000Y-55384845D01*
X62690001Y-64139340D01*
X62685799Y-64135138D01*
X62048113Y-63871000D01*
X61357887Y-63871000D01*
X60720201Y-64135138D01*
X60232138Y-64623201D01*
X59968000Y-65260887D01*
X59968000Y-65951113D01*
X60232138Y-66588799D01*
X60720201Y-67076862D01*
X60810117Y-67114106D01*
X60800663Y-67161634D01*
X60869348Y-67506943D01*
X61015576Y-67725788D01*
X61015578Y-67725790D01*
X61064952Y-67799683D01*
X61138845Y-67849057D01*
X61453942Y-68164154D01*
X61454507Y-68165000D01*
X52343846Y-68165000D01*
X52268999Y-68150112D01*
X52194152Y-68165000D01*
X52194148Y-68165000D01*
X51972463Y-68209096D01*
X51721071Y-68377071D01*
X51678671Y-68440527D01*
X46899528Y-73219671D01*
X46874000Y-73236728D01*
X46874000Y-71569848D01*
X46888888Y-71495000D01*
X46874000Y-71420152D01*
X46874000Y-71420148D01*
X46850061Y-71299800D01*
X46914000Y-71145439D01*
X46914000Y-70574561D01*
X46695534Y-70047138D01*
X46291862Y-69643466D01*
X45764439Y-69425000D01*
X45193561Y-69425000D01*
X44666138Y-69643466D01*
X44262466Y-70047138D01*
X44240570Y-70100000D01*
X31061802Y-70100000D01*
X30491000Y-69529199D01*
X30491000Y-67044090D01*
X59675292Y-66977000D01*
X59723870Y-66967221D01*
X59765009Y-66939596D01*
X59792444Y-66898331D01*
X59802000Y-66850000D01*
X59802000Y-51430868D01*
X60657737Y-51430868D01*
X60768641Y-51708099D01*
X61414593Y-51951323D01*
X62104453Y-51928836D01*
X62637359Y-51708099D01*
X62748263Y-51430868D01*
X61703000Y-50385605D01*
X60657737Y-51430868D01*
X59802000Y-51430868D01*
X59802000Y-49917593D01*
X59957677Y-49917593D01*
X59980164Y-50607453D01*
X60200901Y-51140359D01*
X60478132Y-51251263D01*
X61523395Y-50206000D01*
X61882605Y-50206000D01*
X62927868Y-51251263D01*
X63205099Y-51140359D01*
X63448323Y-50494407D01*
X63425836Y-49804547D01*
X63205099Y-49271641D01*
X62927868Y-49160737D01*
X61882605Y-50206000D01*
X61523395Y-50206000D01*
X60478132Y-49160737D01*
X60200901Y-49271641D01*
X59957677Y-49917593D01*
X59802000Y-49917593D01*
X59802000Y-48981132D01*
X60657737Y-48981132D01*
X61703000Y-50026395D01*
X62748263Y-48981132D01*
X62637359Y-48703901D01*
X61991407Y-48460677D01*
X61301547Y-48483164D01*
X60768641Y-48703901D01*
X60657737Y-48981132D01*
X59802000Y-48981132D01*
X59802000Y-48351188D01*
X63448200Y-48327815D01*
X63457462Y-54227735D01*
G36*
X67376466Y-70047138D02*
X67158000Y-70574561D01*
X67158000Y-71145439D01*
X67376466Y-71672862D01*
X67626323Y-71922719D01*
X67625992Y-71922653D01*
X67538831Y-71939990D01*
X65485000Y-71939990D01*
X65485000Y-71443007D01*
X65635000Y-71080874D01*
X65635000Y-70669126D01*
X65477431Y-70288720D01*
X65186280Y-69997569D01*
X64805874Y-69840000D01*
X64394126Y-69840000D01*
X64013720Y-69997569D01*
X63722569Y-70288720D01*
X63565000Y-70669126D01*
X63565000Y-71080874D01*
X63715000Y-71443007D01*
X63715000Y-71939990D01*
X59353718Y-71939990D01*
X59664041Y-71597423D01*
X59824904Y-71209039D01*
X59702915Y-70987000D01*
X58560000Y-70987000D01*
X58560000Y-71007000D01*
X58306000Y-71007000D01*
X58306000Y-70987000D01*
X58286000Y-70987000D01*
X58286000Y-70733000D01*
X58306000Y-70733000D01*
X58306000Y-70713000D01*
X58560000Y-70713000D01*
X58560000Y-70733000D01*
X59702915Y-70733000D01*
X59824904Y-70510961D01*
X59664041Y-70122577D01*
X59288134Y-69707611D01*
X59240359Y-69685000D01*
X67738604Y-69685000D01*
X67376466Y-70047138D01*
X67376466Y-70047138D01*
G37*
X67376466Y-70047138D02*
X67158000Y-70574561D01*
X67158000Y-71145439D01*
X67376466Y-71672862D01*
X67626323Y-71922719D01*
X67625992Y-71922653D01*
X67538831Y-71939990D01*
X65485000Y-71939990D01*
X65485000Y-71443007D01*
X65635000Y-71080874D01*
X65635000Y-70669126D01*
X65477431Y-70288720D01*
X65186280Y-69997569D01*
X64805874Y-69840000D01*
X64394126Y-69840000D01*
X64013720Y-69997569D01*
X63722569Y-70288720D01*
X63565000Y-70669126D01*
X63565000Y-71080874D01*
X63715000Y-71443007D01*
X63715000Y-71939990D01*
X59353718Y-71939990D01*
X59664041Y-71597423D01*
X59824904Y-71209039D01*
X59702915Y-70987000D01*
X58560000Y-70987000D01*
X58560000Y-71007000D01*
X58306000Y-71007000D01*
X58306000Y-70987000D01*
X58286000Y-70987000D01*
X58286000Y-70733000D01*
X58306000Y-70733000D01*
X58306000Y-70713000D01*
X58560000Y-70713000D01*
X58560000Y-70733000D01*
X59702915Y-70733000D01*
X59824904Y-70510961D01*
X59664041Y-70122577D01*
X59288134Y-69707611D01*
X59240359Y-69685000D01*
X67738604Y-69685000D01*
X67376466Y-70047138D01*
G04 #@! TD*
M02*
