G04 #@! TF.GenerationSoftware,KiCad,Pcbnew,5.0.2+dfsg1-1*
G04 #@! TF.CreationDate,2019-06-14T16:53:16+02:00*
G04 #@! TF.ProjectId,mains-light-controller,6d61696e-732d-46c6-9967-68742d636f6e,v1.0.1*
G04 #@! TF.SameCoordinates,Original*
G04 #@! TF.FileFunction,Legend,Top*
G04 #@! TF.FilePolarity,Positive*
%FSLAX46Y46*%
G04 Gerber Fmt 4.6, Leading zero omitted, Abs format (unit mm)*
G04 Created by KiCad (PCBNEW 5.0.2+dfsg1-1) date fre 14 jun 2019 16:53:16 CEST*
%MOMM*%
%LPD*%
G01*
G04 APERTURE LIST*
%ADD10C,0.300000*%
%ADD11C,0.120000*%
%ADD12C,0.200000*%
%ADD13C,0.150000*%
%ADD14C,0.127000*%
%ADD15C,0.254000*%
G04 APERTURE END LIST*
D10*
X20096428Y-48714285D02*
X21596428Y-48714285D01*
X20525000Y-49214285D01*
X21596428Y-49714285D01*
X20096428Y-49714285D01*
X20096428Y-51071428D02*
X20882142Y-51071428D01*
X21025000Y-51000000D01*
X21096428Y-50857142D01*
X21096428Y-50571428D01*
X21025000Y-50428571D01*
X20167857Y-51071428D02*
X20096428Y-50928571D01*
X20096428Y-50571428D01*
X20167857Y-50428571D01*
X20310714Y-50357142D01*
X20453571Y-50357142D01*
X20596428Y-50428571D01*
X20667857Y-50571428D01*
X20667857Y-50928571D01*
X20739285Y-51071428D01*
X20096428Y-51785714D02*
X21096428Y-51785714D01*
X21596428Y-51785714D02*
X21525000Y-51714285D01*
X21453571Y-51785714D01*
X21525000Y-51857142D01*
X21596428Y-51785714D01*
X21453571Y-51785714D01*
X21096428Y-52500000D02*
X20096428Y-52500000D01*
X20953571Y-52500000D02*
X21025000Y-52571428D01*
X21096428Y-52714285D01*
X21096428Y-52928571D01*
X21025000Y-53071428D01*
X20882142Y-53142857D01*
X20096428Y-53142857D01*
X20167857Y-53785714D02*
X20096428Y-53928571D01*
X20096428Y-54214285D01*
X20167857Y-54357142D01*
X20310714Y-54428571D01*
X20382142Y-54428571D01*
X20525000Y-54357142D01*
X20596428Y-54214285D01*
X20596428Y-54000000D01*
X20667857Y-53857142D01*
X20810714Y-53785714D01*
X20882142Y-53785714D01*
X21025000Y-53857142D01*
X21096428Y-54000000D01*
X21096428Y-54214285D01*
X21025000Y-54357142D01*
X20096428Y-56928571D02*
X20096428Y-56214285D01*
X21596428Y-56214285D01*
X20096428Y-57428571D02*
X21096428Y-57428571D01*
X21596428Y-57428571D02*
X21525000Y-57357142D01*
X21453571Y-57428571D01*
X21525000Y-57500000D01*
X21596428Y-57428571D01*
X21453571Y-57428571D01*
X21096428Y-58785714D02*
X19882142Y-58785714D01*
X19739285Y-58714285D01*
X19667857Y-58642857D01*
X19596428Y-58500000D01*
X19596428Y-58285714D01*
X19667857Y-58142857D01*
X20167857Y-58785714D02*
X20096428Y-58642857D01*
X20096428Y-58357142D01*
X20167857Y-58214285D01*
X20239285Y-58142857D01*
X20382142Y-58071428D01*
X20810714Y-58071428D01*
X20953571Y-58142857D01*
X21025000Y-58214285D01*
X21096428Y-58357142D01*
X21096428Y-58642857D01*
X21025000Y-58785714D01*
X20096428Y-59500000D02*
X21596428Y-59500000D01*
X20096428Y-60142857D02*
X20882142Y-60142857D01*
X21025000Y-60071428D01*
X21096428Y-59928571D01*
X21096428Y-59714285D01*
X21025000Y-59571428D01*
X20953571Y-59500000D01*
X21096428Y-60642857D02*
X21096428Y-61214285D01*
X21596428Y-60857142D02*
X20310714Y-60857142D01*
X20167857Y-60928571D01*
X20096428Y-61071428D01*
X20096428Y-61214285D01*
X20239285Y-63714285D02*
X20167857Y-63642857D01*
X20096428Y-63428571D01*
X20096428Y-63285714D01*
X20167857Y-63071428D01*
X20310714Y-62928571D01*
X20453571Y-62857142D01*
X20739285Y-62785714D01*
X20953571Y-62785714D01*
X21239285Y-62857142D01*
X21382142Y-62928571D01*
X21525000Y-63071428D01*
X21596428Y-63285714D01*
X21596428Y-63428571D01*
X21525000Y-63642857D01*
X21453571Y-63714285D01*
X20096428Y-64571428D02*
X20167857Y-64428571D01*
X20239285Y-64357142D01*
X20382142Y-64285714D01*
X20810714Y-64285714D01*
X20953571Y-64357142D01*
X21025000Y-64428571D01*
X21096428Y-64571428D01*
X21096428Y-64785714D01*
X21025000Y-64928571D01*
X20953571Y-65000000D01*
X20810714Y-65071428D01*
X20382142Y-65071428D01*
X20239285Y-64999999D01*
X20167857Y-64928571D01*
X20096428Y-64785714D01*
X20096428Y-64571428D01*
X21096428Y-65714285D02*
X20096428Y-65714285D01*
X20953571Y-65714285D02*
X21025000Y-65785714D01*
X21096428Y-65928571D01*
X21096428Y-66142857D01*
X21025000Y-66285714D01*
X20882142Y-66357142D01*
X20096428Y-66357142D01*
X21096428Y-66857142D02*
X21096428Y-67428571D01*
X21596428Y-67071428D02*
X20310714Y-67071428D01*
X20167857Y-67142857D01*
X20096428Y-67285714D01*
X20096428Y-67428571D01*
X20096428Y-67928571D02*
X21096428Y-67928571D01*
X20810714Y-67928571D02*
X20953571Y-68000000D01*
X21025000Y-68071428D01*
X21096428Y-68214285D01*
X21096428Y-68357142D01*
X20096428Y-69071428D02*
X20167857Y-68928571D01*
X20239285Y-68857142D01*
X20382142Y-68785714D01*
X20810714Y-68785714D01*
X20953571Y-68857142D01*
X21025000Y-68928571D01*
X21096428Y-69071428D01*
X21096428Y-69285714D01*
X21025000Y-69428571D01*
X20953571Y-69500000D01*
X20810714Y-69571428D01*
X20382142Y-69571428D01*
X20239285Y-69500000D01*
X20167857Y-69428571D01*
X20096428Y-69285714D01*
X20096428Y-69071428D01*
X20096428Y-70428571D02*
X20167857Y-70285714D01*
X20310714Y-70214285D01*
X21596428Y-70214285D01*
X20096428Y-71214285D02*
X20167857Y-71071428D01*
X20310714Y-71000000D01*
X21596428Y-71000000D01*
X20167857Y-72357142D02*
X20096428Y-72214285D01*
X20096428Y-71928571D01*
X20167857Y-71785714D01*
X20310714Y-71714285D01*
X20882142Y-71714285D01*
X21025000Y-71785714D01*
X21096428Y-71928571D01*
X21096428Y-72214285D01*
X21025000Y-72357142D01*
X20882142Y-72428571D01*
X20739285Y-72428571D01*
X20596428Y-71714285D01*
X20096428Y-73071428D02*
X21096428Y-73071428D01*
X20810714Y-73071428D02*
X20953571Y-73142857D01*
X21025000Y-73214285D01*
X21096428Y-73357142D01*
X21096428Y-73500000D01*
X21096428Y-75000000D02*
X20096428Y-75357142D01*
X21096428Y-75714285D01*
X20096428Y-77071428D02*
X20096428Y-76214285D01*
X20096428Y-76642857D02*
X21596428Y-76642857D01*
X21382142Y-76500000D01*
X21239285Y-76357142D01*
X21167857Y-76214285D01*
X20239285Y-77714285D02*
X20167857Y-77785714D01*
X20096428Y-77714285D01*
X20167857Y-77642857D01*
X20239285Y-77714285D01*
X20096428Y-77714285D01*
X21596428Y-78714285D02*
X21596428Y-78857142D01*
X21524999Y-79000000D01*
X21453571Y-79071428D01*
X21310714Y-79142857D01*
X21024999Y-79214285D01*
X20667857Y-79214285D01*
X20382142Y-79142857D01*
X20239285Y-79071428D01*
X20167857Y-79000000D01*
X20096428Y-78857142D01*
X20096428Y-78714285D01*
X20167857Y-78571428D01*
X20239285Y-78500000D01*
X20382142Y-78428571D01*
X20667857Y-78357142D01*
X21024999Y-78357142D01*
X21310714Y-78428571D01*
X21453571Y-78500000D01*
X21524999Y-78571428D01*
X21596428Y-78714285D01*
X20239285Y-79857142D02*
X20167857Y-79928571D01*
X20096428Y-79857142D01*
X20167857Y-79785714D01*
X20239285Y-79857142D01*
X20096428Y-79857142D01*
X20096428Y-81357142D02*
X20096428Y-80500000D01*
X20096428Y-80928571D02*
X21596428Y-80928571D01*
X21382142Y-80785714D01*
X21239285Y-80642857D01*
X21167857Y-80500000D01*
X18546428Y-57821428D02*
X17546428Y-58107142D01*
X18260714Y-58392857D01*
X17546428Y-58678571D01*
X18546428Y-58964285D01*
X18546428Y-59392857D02*
X17546428Y-59678571D01*
X18260714Y-59964285D01*
X17546428Y-60250000D01*
X18546428Y-60535714D01*
X18546428Y-60964285D02*
X17546428Y-61250000D01*
X18260714Y-61535714D01*
X17546428Y-61821428D01*
X18546428Y-62107142D01*
X17689285Y-62678571D02*
X17617857Y-62750000D01*
X17546428Y-62678571D01*
X17617857Y-62607142D01*
X17689285Y-62678571D01*
X17546428Y-62678571D01*
X17617857Y-63321428D02*
X17546428Y-63464285D01*
X17546428Y-63750000D01*
X17617857Y-63892857D01*
X17760714Y-63964285D01*
X17832142Y-63964285D01*
X17975000Y-63892857D01*
X18046428Y-63750000D01*
X18046428Y-63535714D01*
X18117857Y-63392857D01*
X18260714Y-63321428D01*
X18332142Y-63321428D01*
X18475000Y-63392857D01*
X18546428Y-63535714D01*
X18546428Y-63750000D01*
X18475000Y-63892857D01*
X17546428Y-64821428D02*
X17617857Y-64678571D01*
X17760714Y-64607142D01*
X19046428Y-64607142D01*
X17546428Y-65392857D02*
X18546428Y-65392857D01*
X19046428Y-65392857D02*
X18975000Y-65321428D01*
X18903571Y-65392857D01*
X18975000Y-65464285D01*
X19046428Y-65392857D01*
X18903571Y-65392857D01*
X17546428Y-66107142D02*
X18546428Y-66107142D01*
X18403571Y-66107142D02*
X18475000Y-66178571D01*
X18546428Y-66321428D01*
X18546428Y-66535714D01*
X18475000Y-66678571D01*
X18332142Y-66750000D01*
X17546428Y-66750000D01*
X18332142Y-66750000D02*
X18475000Y-66821428D01*
X18546428Y-66964285D01*
X18546428Y-67178571D01*
X18475000Y-67321428D01*
X18332142Y-67392857D01*
X17546428Y-67392857D01*
X17617857Y-68750000D02*
X17546428Y-68607142D01*
X17546428Y-68321428D01*
X17617857Y-68178571D01*
X17689285Y-68107142D01*
X17832142Y-68035714D01*
X18260714Y-68035714D01*
X18403571Y-68107142D01*
X18475000Y-68178571D01*
X18546428Y-68321428D01*
X18546428Y-68607142D01*
X18475000Y-68750000D01*
X17689285Y-69392857D02*
X17617857Y-69464285D01*
X17546428Y-69392857D01*
X17617857Y-69321428D01*
X17689285Y-69392857D01*
X17546428Y-69392857D01*
X17617857Y-70678571D02*
X17546428Y-70535714D01*
X17546428Y-70250000D01*
X17617857Y-70107142D01*
X17760714Y-70035714D01*
X18332142Y-70035714D01*
X18475000Y-70107142D01*
X18546428Y-70250000D01*
X18546428Y-70535714D01*
X18475000Y-70678571D01*
X18332142Y-70750000D01*
X18189285Y-70750000D01*
X18046428Y-70035714D01*
X18546428Y-72035714D02*
X17546428Y-72035714D01*
X18546428Y-71392857D02*
X17760714Y-71392857D01*
X17617857Y-71464285D01*
X17546428Y-71607142D01*
X17546428Y-71821428D01*
X17617857Y-71964285D01*
X17689285Y-72035714D01*
X68621428Y-98650000D02*
X69335714Y-98650000D01*
X68478571Y-99078571D02*
X68978571Y-97578571D01*
X69478571Y-99078571D01*
X70835714Y-98935714D02*
X70764285Y-99007142D01*
X70550000Y-99078571D01*
X70407142Y-99078571D01*
X70192857Y-99007142D01*
X70050000Y-98864285D01*
X69978571Y-98721428D01*
X69907142Y-98435714D01*
X69907142Y-98221428D01*
X69978571Y-97935714D01*
X70050000Y-97792857D01*
X70192857Y-97650000D01*
X70407142Y-97578571D01*
X70550000Y-97578571D01*
X70764285Y-97650000D01*
X70835714Y-97721428D01*
X71478571Y-98507142D02*
X72621428Y-98507142D01*
X73335714Y-99078571D02*
X73335714Y-97578571D01*
X74050000Y-99078571D02*
X74050000Y-97578571D01*
X74907142Y-99078571D01*
X74907142Y-97578571D01*
X55285714Y-99078571D02*
X54571428Y-99078571D01*
X54571428Y-97578571D01*
X56071428Y-97578571D02*
X56357142Y-97578571D01*
X56500000Y-97650000D01*
X56642857Y-97792857D01*
X56714285Y-98078571D01*
X56714285Y-98578571D01*
X56642857Y-98864285D01*
X56500000Y-99007142D01*
X56357142Y-99078571D01*
X56071428Y-99078571D01*
X55928571Y-99007142D01*
X55785714Y-98864285D01*
X55714285Y-98578571D01*
X55714285Y-98078571D01*
X55785714Y-97792857D01*
X55928571Y-97650000D01*
X56071428Y-97578571D01*
X57285714Y-98650000D02*
X58000000Y-98650000D01*
X57142857Y-99078571D02*
X57642857Y-97578571D01*
X58142857Y-99078571D01*
X58642857Y-99078571D02*
X58642857Y-97578571D01*
X59000000Y-97578571D01*
X59214285Y-97650000D01*
X59357142Y-97792857D01*
X59428571Y-97935714D01*
X59500000Y-98221428D01*
X59500000Y-98435714D01*
X59428571Y-98721428D01*
X59357142Y-98864285D01*
X59214285Y-99007142D01*
X59000000Y-99078571D01*
X58642857Y-99078571D01*
X54607142Y-110278571D02*
X53892857Y-110278571D01*
X53892857Y-108778571D01*
X56250000Y-109707142D02*
X57392857Y-109707142D01*
X59250000Y-110278571D02*
X59250000Y-108778571D01*
X60107142Y-110278571D01*
X60107142Y-108778571D01*
X65514285Y-110278571D02*
X65514285Y-108778571D01*
X66257142Y-110278571D01*
X66257142Y-108778571D01*
X67866666Y-109707142D02*
X68857142Y-109707142D01*
X70466666Y-110278571D02*
X70466666Y-108778571D01*
X70900000Y-109850000D01*
X71333333Y-108778571D01*
X71333333Y-110278571D01*
X72633333Y-110278571D02*
X71890476Y-110278571D01*
X72261904Y-110278571D02*
X72261904Y-108778571D01*
X72138095Y-108992857D01*
X72014285Y-109135714D01*
X71890476Y-109207142D01*
X74180952Y-109707142D02*
X75171428Y-109707142D01*
X76780952Y-110278571D02*
X76780952Y-108778571D01*
X77214285Y-109850000D01*
X77647619Y-108778571D01*
X77647619Y-110278571D01*
X78204761Y-108921428D02*
X78266666Y-108850000D01*
X78390476Y-108778571D01*
X78700000Y-108778571D01*
X78823809Y-108850000D01*
X78885714Y-108921428D01*
X78947619Y-109064285D01*
X78947619Y-109207142D01*
X78885714Y-109421428D01*
X78142857Y-110278571D01*
X78947619Y-110278571D01*
D11*
G04 #@! TO.C,F1*
X59310000Y-90340000D02*
X52810000Y-90340000D01*
X68930000Y-93770000D02*
X65120000Y-93770000D01*
X59280000Y-93770000D02*
X62320000Y-93770000D01*
X61780000Y-92880000D02*
X62320000Y-92880000D01*
X68040000Y-92880000D02*
X65370000Y-92880000D01*
X59280000Y-87800000D02*
X62070000Y-87800000D01*
X68040000Y-87800000D02*
X65370000Y-87800000D01*
X68930000Y-86910000D02*
X65250000Y-86910000D01*
X59280000Y-86910000D02*
X62200000Y-86910000D01*
X43190000Y-93770000D02*
X46880000Y-93770000D01*
X52720000Y-93770000D02*
X49920000Y-93770000D01*
X50180000Y-92880000D02*
X50050000Y-92880000D01*
X50180000Y-92880000D02*
X52720000Y-92880000D01*
X43960000Y-92880000D02*
X46750000Y-92880000D01*
X43190000Y-86910000D02*
X47000000Y-86910000D01*
X52720000Y-86910000D02*
X49920000Y-86910000D01*
X52720000Y-87800000D02*
X50050000Y-87800000D01*
X43960000Y-87800000D02*
X46750000Y-87800000D01*
X68930000Y-86910000D02*
X68930000Y-93770000D01*
X59280000Y-93770000D02*
X59280000Y-92880000D01*
X59280000Y-86910000D02*
X59280000Y-87800000D01*
X43190000Y-86910000D02*
X43190000Y-93770000D01*
X52720000Y-93770000D02*
X52720000Y-92880000D01*
X52720000Y-86910000D02*
X52720000Y-87930000D01*
X61780000Y-92880000D02*
X50090000Y-92880000D01*
X50220000Y-87800000D02*
X61780000Y-87800000D01*
X52720000Y-90340000D02*
X52720000Y-87800000D01*
X43960000Y-87800000D02*
X43960000Y-92880000D01*
X52720000Y-92880000D02*
X52720000Y-90340000D01*
X59280000Y-90340000D02*
X59280000Y-87800000D01*
X68040000Y-87800000D02*
X68040000Y-92880000D01*
X59280000Y-92880000D02*
X59280000Y-90340000D01*
D12*
G04 #@! TO.C,BR1*
X74055000Y-73095000D02*
X74055000Y-81050000D01*
X65545000Y-74550000D02*
X65545000Y-81050000D01*
D13*
G04 #@! TO.C,Q1*
X33790000Y-80260000D02*
X33789999Y-91260000D01*
X33890000Y-80260000D02*
X33790000Y-80260000D01*
X40490000Y-91260000D02*
X33789999Y-91260000D01*
X40490000Y-92259999D02*
X40490000Y-91260000D01*
X24690000Y-92260000D02*
X40490000Y-92259999D01*
X24690000Y-68260000D02*
X24690000Y-92260000D01*
X40490000Y-68260000D02*
X24690000Y-68260000D01*
X40490000Y-69259999D02*
X40490000Y-68260000D01*
X33790000Y-69260001D02*
X40490000Y-69259999D01*
X33790000Y-80260000D02*
X33790000Y-69260001D01*
D11*
X34330000Y-78409000D02*
X35840000Y-78409000D01*
X34330000Y-82110000D02*
X35840000Y-82110001D01*
X35840001Y-85380000D02*
X35840000Y-75140000D01*
X34330000Y-75140000D02*
X38970999Y-75140000D01*
X34330000Y-85380000D02*
X38971000Y-85380000D01*
X38971000Y-85380000D02*
X38970999Y-75140000D01*
X34330000Y-85380000D02*
X34330000Y-75140000D01*
G04 #@! TO.C,R1*
X61890000Y-74397936D02*
X61890000Y-75602064D01*
X63710000Y-74397936D02*
X63710000Y-75602064D01*
G04 #@! TO.C,R2*
X53065000Y-56802064D02*
X53065000Y-55597936D01*
X54885000Y-56802064D02*
X54885000Y-55597936D01*
G04 #@! TO.C,R3*
X51397936Y-74510000D02*
X52602064Y-74510000D01*
X51397936Y-72690000D02*
X52602064Y-72690000D01*
G04 #@! TO.C,R5*
X50150000Y-56802064D02*
X50150000Y-55597936D01*
X51970000Y-56802064D02*
X51970000Y-55597936D01*
G04 #@! TO.C,R6*
X92392886Y-37882962D02*
X91188758Y-37882962D01*
X92392886Y-39702962D02*
X91188758Y-39702962D01*
G04 #@! TO.C,R8*
X47350000Y-56802064D02*
X47350000Y-55597936D01*
X49170000Y-56802064D02*
X49170000Y-55597936D01*
G04 #@! TO.C,R4*
X49597936Y-76440000D02*
X52402064Y-76440000D01*
X49597936Y-79160000D02*
X52402064Y-79160000D01*
G04 #@! TO.C,R7*
X93900000Y-35100000D02*
X93900000Y-32300000D01*
X89700000Y-35100000D02*
X89700000Y-32300000D01*
X93909242Y-32313963D02*
G75*
G03X89700000Y-32300000I-2109242J-1386037D01*
G01*
X89690758Y-35086037D02*
G75*
G03X93900000Y-35100000I2109242J1386037D01*
G01*
D13*
G04 #@! TO.C,U4*
X46700000Y-46330000D02*
X79780000Y-46330000D01*
X81780000Y-44330000D02*
X81780000Y-21670000D01*
X79780000Y-19670000D02*
X53700000Y-19670000D01*
X46700000Y-21820000D02*
X46700000Y-29680000D01*
X46700000Y-29680000D02*
X47700000Y-29680000D01*
X47700000Y-29680000D02*
X47700000Y-37900000D01*
X47700000Y-37900000D02*
X46700000Y-37900000D01*
X46700000Y-37900000D02*
X46700000Y-46329999D01*
X81780000Y-21670000D02*
G75*
G03X79780000Y-19670000I-2000000J0D01*
G01*
X79780000Y-46330000D02*
G75*
G03X81780000Y-44330000I0J2000000D01*
G01*
X46700000Y-21820000D02*
X52700000Y-21820000D01*
X52700000Y-21820000D02*
G75*
G03X53700000Y-20820000I0J1000000D01*
G01*
X53700000Y-20830000D02*
X53700000Y-19670000D01*
X53700000Y-19670000D02*
X53700000Y-19670000D01*
D14*
G04 #@! TO.C,U2*
X90000000Y-48000000D02*
X90000000Y-82000000D01*
X110000000Y-82000000D02*
X110000000Y-48000000D01*
X90000000Y-82000000D02*
X110000000Y-82000000D01*
X110000000Y-48000000D02*
X90000000Y-48000000D01*
D11*
G04 #@! TO.C,SW1*
X36700000Y-51600000D02*
X36700000Y-56100000D01*
X40700000Y-50350000D02*
X39200000Y-50350000D01*
X43200000Y-56100000D02*
X43200000Y-51600000D01*
X39200000Y-57350000D02*
X40700000Y-57350000D01*
G04 #@! TO.C,C1*
X61470000Y-58319801D02*
X61870000Y-58319801D01*
X61670000Y-58519801D02*
X61670000Y-58119801D01*
X62495000Y-54169000D02*
X63235000Y-54169000D01*
X62328000Y-54209000D02*
X63402000Y-54209000D01*
X62201000Y-54249000D02*
X63529000Y-54249000D01*
X62097000Y-54289000D02*
X63633000Y-54289000D01*
X62006000Y-54329000D02*
X63724000Y-54329000D01*
X61925000Y-54369000D02*
X63805000Y-54369000D01*
X61852000Y-54409000D02*
X63878000Y-54409000D01*
X61785000Y-54449000D02*
X63945000Y-54449000D01*
X61723000Y-54489000D02*
X64007000Y-54489000D01*
X61665000Y-54529000D02*
X64065000Y-54529000D01*
X61611000Y-54569000D02*
X64119000Y-54569000D01*
X61561000Y-54609000D02*
X64169000Y-54609000D01*
X61514000Y-54649000D02*
X64216000Y-54649000D01*
X63705000Y-54689000D02*
X64261000Y-54689000D01*
X61469000Y-54689000D02*
X62025000Y-54689000D01*
X63705000Y-54729000D02*
X64303000Y-54729000D01*
X61427000Y-54729000D02*
X62025000Y-54729000D01*
X63705000Y-54769000D02*
X64343000Y-54769000D01*
X61387000Y-54769000D02*
X62025000Y-54769000D01*
X63705000Y-54809000D02*
X64381000Y-54809000D01*
X61349000Y-54809000D02*
X62025000Y-54809000D01*
X63705000Y-54849000D02*
X64417000Y-54849000D01*
X61313000Y-54849000D02*
X62025000Y-54849000D01*
X63705000Y-54889000D02*
X64452000Y-54889000D01*
X61278000Y-54889000D02*
X62025000Y-54889000D01*
X63705000Y-54929000D02*
X64484000Y-54929000D01*
X61246000Y-54929000D02*
X62025000Y-54929000D01*
X63705000Y-54969000D02*
X64515000Y-54969000D01*
X61215000Y-54969000D02*
X62025000Y-54969000D01*
X63705000Y-55009000D02*
X64545000Y-55009000D01*
X61185000Y-55009000D02*
X62025000Y-55009000D01*
X63705000Y-55049000D02*
X64573000Y-55049000D01*
X61157000Y-55049000D02*
X62025000Y-55049000D01*
X63705000Y-55089000D02*
X64600000Y-55089000D01*
X61130000Y-55089000D02*
X62025000Y-55089000D01*
X63705000Y-55129000D02*
X64625000Y-55129000D01*
X61105000Y-55129000D02*
X62025000Y-55129000D01*
X63705000Y-55169000D02*
X64650000Y-55169000D01*
X61080000Y-55169000D02*
X62025000Y-55169000D01*
X63705000Y-55209000D02*
X64673000Y-55209000D01*
X61057000Y-55209000D02*
X62025000Y-55209000D01*
X63705000Y-55249000D02*
X64695000Y-55249000D01*
X61035000Y-55249000D02*
X62025000Y-55249000D01*
X63705000Y-55289000D02*
X64716000Y-55289000D01*
X61014000Y-55289000D02*
X62025000Y-55289000D01*
X63705000Y-55329000D02*
X64735000Y-55329000D01*
X60995000Y-55329000D02*
X62025000Y-55329000D01*
X63705000Y-55369000D02*
X64754000Y-55369000D01*
X60976000Y-55369000D02*
X62025000Y-55369000D01*
X63705000Y-55409000D02*
X64772000Y-55409000D01*
X60958000Y-55409000D02*
X62025000Y-55409000D01*
X63705000Y-55449000D02*
X64789000Y-55449000D01*
X60941000Y-55449000D02*
X62025000Y-55449000D01*
X63705000Y-55489000D02*
X64805000Y-55489000D01*
X60925000Y-55489000D02*
X62025000Y-55489000D01*
X63705000Y-55529000D02*
X64819000Y-55529000D01*
X60911000Y-55529000D02*
X62025000Y-55529000D01*
X63705000Y-55570000D02*
X64833000Y-55570000D01*
X60897000Y-55570000D02*
X62025000Y-55570000D01*
X63705000Y-55610000D02*
X64847000Y-55610000D01*
X60883000Y-55610000D02*
X62025000Y-55610000D01*
X63705000Y-55650000D02*
X64859000Y-55650000D01*
X60871000Y-55650000D02*
X62025000Y-55650000D01*
X63705000Y-55690000D02*
X64870000Y-55690000D01*
X60860000Y-55690000D02*
X62025000Y-55690000D01*
X63705000Y-55730000D02*
X64881000Y-55730000D01*
X60849000Y-55730000D02*
X62025000Y-55730000D01*
X63705000Y-55770000D02*
X64890000Y-55770000D01*
X60840000Y-55770000D02*
X62025000Y-55770000D01*
X63705000Y-55810000D02*
X64899000Y-55810000D01*
X60831000Y-55810000D02*
X62025000Y-55810000D01*
X63705000Y-55850000D02*
X64907000Y-55850000D01*
X60823000Y-55850000D02*
X62025000Y-55850000D01*
X63705000Y-55890000D02*
X64915000Y-55890000D01*
X60815000Y-55890000D02*
X62025000Y-55890000D01*
X63705000Y-55930000D02*
X64921000Y-55930000D01*
X60809000Y-55930000D02*
X62025000Y-55930000D01*
X63705000Y-55970000D02*
X64927000Y-55970000D01*
X60803000Y-55970000D02*
X62025000Y-55970000D01*
X63705000Y-56010000D02*
X64932000Y-56010000D01*
X60798000Y-56010000D02*
X62025000Y-56010000D01*
X63705000Y-56050000D02*
X64936000Y-56050000D01*
X60794000Y-56050000D02*
X62025000Y-56050000D01*
X63705000Y-56090000D02*
X64939000Y-56090000D01*
X60791000Y-56090000D02*
X62025000Y-56090000D01*
X63705000Y-56130000D02*
X64942000Y-56130000D01*
X60788000Y-56130000D02*
X62025000Y-56130000D01*
X60786000Y-56170000D02*
X62025000Y-56170000D01*
X63705000Y-56170000D02*
X64944000Y-56170000D01*
X60785000Y-56210000D02*
X62025000Y-56210000D01*
X63705000Y-56210000D02*
X64945000Y-56210000D01*
X60785000Y-56250000D02*
X62025000Y-56250000D01*
X63705000Y-56250000D02*
X64945000Y-56250000D01*
X64985000Y-56250000D02*
G75*
G03X64985000Y-56250000I-2120000J0D01*
G01*
G04 #@! TO.C,C5*
X53570000Y-84521000D02*
X48230000Y-84521000D01*
X53570000Y-81079000D02*
X48230000Y-81079000D01*
X53570000Y-84521000D02*
X53570000Y-83855000D01*
X53570000Y-81745000D02*
X53570000Y-81079000D01*
X48230000Y-84521000D02*
X48230000Y-83855000D01*
X48230000Y-81745000D02*
X48230000Y-81079000D01*
G04 #@! TO.C,D1*
X32750000Y-50350000D02*
X31600000Y-50350000D01*
X32750000Y-57650000D02*
X32750000Y-50350000D01*
X27250000Y-57650000D02*
X27250000Y-50350000D01*
G04 #@! TO.C,J1*
X79940000Y-99990000D02*
X79940000Y-107610000D01*
X64700000Y-99990000D02*
X64700000Y-107610000D01*
X79940000Y-101260000D02*
X64700000Y-101260000D01*
X79940000Y-107610000D02*
X64700000Y-107610000D01*
X79940000Y-99990000D02*
X64700000Y-99990000D01*
G04 #@! TO.C,J2*
X51780000Y-101260000D02*
X61940000Y-101260000D01*
X51780000Y-99990000D02*
X51780000Y-107610000D01*
X51780000Y-107610000D02*
X61940000Y-107610000D01*
X61940000Y-107610000D02*
X61940000Y-99990000D01*
X61940000Y-99990000D02*
X51780000Y-99990000D01*
G04 #@! TO.C,U1*
X61470000Y-62340000D02*
X61470000Y-63990000D01*
X66670000Y-62340000D02*
X61470000Y-62340000D01*
X66670000Y-67640000D02*
X66670000Y-62340000D01*
X61470000Y-67640000D02*
X66670000Y-67640000D01*
X61470000Y-65990000D02*
X61470000Y-67640000D01*
X61470000Y-63990000D02*
G75*
G02X61470000Y-65990000I0J-1000000D01*
G01*
G04 #@! TO.C,U3*
X54930000Y-67660000D02*
X54930000Y-66010000D01*
X47190000Y-67660000D02*
X54930000Y-67660000D01*
X47190000Y-62360000D02*
X47190000Y-67660000D01*
X54930000Y-62360000D02*
X47190000Y-62360000D01*
X54930000Y-64010000D02*
X54930000Y-62360000D01*
X54930000Y-66010000D02*
G75*
G02X54930000Y-64010000I0J1000000D01*
G01*
G04 #@! TO.C,F1*
D13*
X55676666Y-86518571D02*
X55343333Y-86518571D01*
X55343333Y-87042380D02*
X55343333Y-86042380D01*
X55819523Y-86042380D01*
X56724285Y-87042380D02*
X56152857Y-87042380D01*
X56438571Y-87042380D02*
X56438571Y-86042380D01*
X56343333Y-86185238D01*
X56248095Y-86280476D01*
X56152857Y-86328095D01*
G04 #@! TO.C,BR1*
D15*
X69709285Y-78949047D02*
X69769761Y-78767619D01*
X69830238Y-78707142D01*
X69951190Y-78646666D01*
X70132619Y-78646666D01*
X70253571Y-78707142D01*
X70314047Y-78767619D01*
X70374523Y-78888571D01*
X70374523Y-79372380D01*
X69104523Y-79372380D01*
X69104523Y-78949047D01*
X69165000Y-78828095D01*
X69225476Y-78767619D01*
X69346428Y-78707142D01*
X69467380Y-78707142D01*
X69588333Y-78767619D01*
X69648809Y-78828095D01*
X69709285Y-78949047D01*
X69709285Y-79372380D01*
X70374523Y-77376666D02*
X69769761Y-77800000D01*
X70374523Y-78102380D02*
X69104523Y-78102380D01*
X69104523Y-77618571D01*
X69165000Y-77497619D01*
X69225476Y-77437142D01*
X69346428Y-77376666D01*
X69527857Y-77376666D01*
X69648809Y-77437142D01*
X69709285Y-77497619D01*
X69769761Y-77618571D01*
X69769761Y-78102380D01*
X70374523Y-76167142D02*
X70374523Y-76892857D01*
X70374523Y-76530000D02*
X69104523Y-76530000D01*
X69285952Y-76650952D01*
X69406904Y-76771904D01*
X69467380Y-76892857D01*
G04 #@! TO.C,Q1*
D13*
X33877619Y-80355238D02*
X33830000Y-80450476D01*
X33734761Y-80545714D01*
X33591904Y-80688571D01*
X33544285Y-80783809D01*
X33544285Y-80879047D01*
X33782380Y-80831428D02*
X33734761Y-80926666D01*
X33639523Y-81021904D01*
X33449047Y-81069523D01*
X33115714Y-81069523D01*
X32925238Y-81021904D01*
X32830000Y-80926666D01*
X32782380Y-80831428D01*
X32782380Y-80640952D01*
X32830000Y-80545714D01*
X32925238Y-80450476D01*
X33115714Y-80402857D01*
X33449047Y-80402857D01*
X33639523Y-80450476D01*
X33734761Y-80545714D01*
X33782380Y-80640952D01*
X33782380Y-80831428D01*
X33782380Y-79450476D02*
X33782380Y-80021904D01*
X33782380Y-79736190D02*
X32782380Y-79736190D01*
X32925238Y-79831428D01*
X33020476Y-79926666D01*
X33068095Y-80021904D01*
G04 #@! TO.C,R1*
X65072380Y-75166666D02*
X64596190Y-75500000D01*
X65072380Y-75738095D02*
X64072380Y-75738095D01*
X64072380Y-75357142D01*
X64120000Y-75261904D01*
X64167619Y-75214285D01*
X64262857Y-75166666D01*
X64405714Y-75166666D01*
X64500952Y-75214285D01*
X64548571Y-75261904D01*
X64596190Y-75357142D01*
X64596190Y-75738095D01*
X65072380Y-74214285D02*
X65072380Y-74785714D01*
X65072380Y-74500000D02*
X64072380Y-74500000D01*
X64215238Y-74595238D01*
X64310476Y-74690476D01*
X64358095Y-74785714D01*
G04 #@! TO.C,R2*
X52607380Y-56366666D02*
X52131190Y-56700000D01*
X52607380Y-56938095D02*
X51607380Y-56938095D01*
X51607380Y-56557142D01*
X51655000Y-56461904D01*
X51702619Y-56414285D01*
X51797857Y-56366666D01*
X51940714Y-56366666D01*
X52035952Y-56414285D01*
X52083571Y-56461904D01*
X52131190Y-56557142D01*
X52131190Y-56938095D01*
X51702619Y-55985714D02*
X51655000Y-55938095D01*
X51607380Y-55842857D01*
X51607380Y-55604761D01*
X51655000Y-55509523D01*
X51702619Y-55461904D01*
X51797857Y-55414285D01*
X51893095Y-55414285D01*
X52035952Y-55461904D01*
X52607380Y-56033333D01*
X52607380Y-55414285D01*
G04 #@! TO.C,R3*
X51833333Y-72232380D02*
X51500000Y-71756190D01*
X51261904Y-72232380D02*
X51261904Y-71232380D01*
X51642857Y-71232380D01*
X51738095Y-71280000D01*
X51785714Y-71327619D01*
X51833333Y-71422857D01*
X51833333Y-71565714D01*
X51785714Y-71660952D01*
X51738095Y-71708571D01*
X51642857Y-71756190D01*
X51261904Y-71756190D01*
X52166666Y-71232380D02*
X52785714Y-71232380D01*
X52452380Y-71613333D01*
X52595238Y-71613333D01*
X52690476Y-71660952D01*
X52738095Y-71708571D01*
X52785714Y-71803809D01*
X52785714Y-72041904D01*
X52738095Y-72137142D01*
X52690476Y-72184761D01*
X52595238Y-72232380D01*
X52309523Y-72232380D01*
X52214285Y-72184761D01*
X52166666Y-72137142D01*
G04 #@! TO.C,R5*
X49692380Y-56366666D02*
X49216190Y-56700000D01*
X49692380Y-56938095D02*
X48692380Y-56938095D01*
X48692380Y-56557142D01*
X48740000Y-56461904D01*
X48787619Y-56414285D01*
X48882857Y-56366666D01*
X49025714Y-56366666D01*
X49120952Y-56414285D01*
X49168571Y-56461904D01*
X49216190Y-56557142D01*
X49216190Y-56938095D01*
X48692380Y-55461904D02*
X48692380Y-55938095D01*
X49168571Y-55985714D01*
X49120952Y-55938095D01*
X49073333Y-55842857D01*
X49073333Y-55604761D01*
X49120952Y-55509523D01*
X49168571Y-55461904D01*
X49263809Y-55414285D01*
X49501904Y-55414285D01*
X49597142Y-55461904D01*
X49644761Y-55509523D01*
X49692380Y-55604761D01*
X49692380Y-55842857D01*
X49644761Y-55938095D01*
X49597142Y-55985714D01*
G04 #@! TO.C,R6*
X91624155Y-41065342D02*
X91290822Y-40589152D01*
X91052726Y-41065342D02*
X91052726Y-40065342D01*
X91433679Y-40065342D01*
X91528917Y-40112962D01*
X91576536Y-40160581D01*
X91624155Y-40255819D01*
X91624155Y-40398676D01*
X91576536Y-40493914D01*
X91528917Y-40541533D01*
X91433679Y-40589152D01*
X91052726Y-40589152D01*
X92481298Y-40065342D02*
X92290822Y-40065342D01*
X92195583Y-40112962D01*
X92147964Y-40160581D01*
X92052726Y-40303438D01*
X92005107Y-40493914D01*
X92005107Y-40874866D01*
X92052726Y-40970104D01*
X92100345Y-41017723D01*
X92195583Y-41065342D01*
X92386060Y-41065342D01*
X92481298Y-41017723D01*
X92528917Y-40970104D01*
X92576536Y-40874866D01*
X92576536Y-40636771D01*
X92528917Y-40541533D01*
X92481298Y-40493914D01*
X92386060Y-40446295D01*
X92195583Y-40446295D01*
X92100345Y-40493914D01*
X92052726Y-40541533D01*
X92005107Y-40636771D01*
G04 #@! TO.C,R8*
X46892380Y-56366666D02*
X46416190Y-56700000D01*
X46892380Y-56938095D02*
X45892380Y-56938095D01*
X45892380Y-56557142D01*
X45940000Y-56461904D01*
X45987619Y-56414285D01*
X46082857Y-56366666D01*
X46225714Y-56366666D01*
X46320952Y-56414285D01*
X46368571Y-56461904D01*
X46416190Y-56557142D01*
X46416190Y-56938095D01*
X46320952Y-55795238D02*
X46273333Y-55890476D01*
X46225714Y-55938095D01*
X46130476Y-55985714D01*
X46082857Y-55985714D01*
X45987619Y-55938095D01*
X45940000Y-55890476D01*
X45892380Y-55795238D01*
X45892380Y-55604761D01*
X45940000Y-55509523D01*
X45987619Y-55461904D01*
X46082857Y-55414285D01*
X46130476Y-55414285D01*
X46225714Y-55461904D01*
X46273333Y-55509523D01*
X46320952Y-55604761D01*
X46320952Y-55795238D01*
X46368571Y-55890476D01*
X46416190Y-55938095D01*
X46511428Y-55985714D01*
X46701904Y-55985714D01*
X46797142Y-55938095D01*
X46844761Y-55890476D01*
X46892380Y-55795238D01*
X46892380Y-55604761D01*
X46844761Y-55509523D01*
X46797142Y-55461904D01*
X46701904Y-55414285D01*
X46511428Y-55414285D01*
X46416190Y-55461904D01*
X46368571Y-55509523D01*
X46320952Y-55604761D01*
G04 #@! TO.C,R4*
X50833333Y-75972380D02*
X50500000Y-75496190D01*
X50261904Y-75972380D02*
X50261904Y-74972380D01*
X50642857Y-74972380D01*
X50738095Y-75020000D01*
X50785714Y-75067619D01*
X50833333Y-75162857D01*
X50833333Y-75305714D01*
X50785714Y-75400952D01*
X50738095Y-75448571D01*
X50642857Y-75496190D01*
X50261904Y-75496190D01*
X51690476Y-75305714D02*
X51690476Y-75972380D01*
X51452380Y-74924761D02*
X51214285Y-75639047D01*
X51833333Y-75639047D01*
G04 #@! TO.C,R7*
X89352380Y-33866666D02*
X88876190Y-34200000D01*
X89352380Y-34438095D02*
X88352380Y-34438095D01*
X88352380Y-34057142D01*
X88400000Y-33961904D01*
X88447619Y-33914285D01*
X88542857Y-33866666D01*
X88685714Y-33866666D01*
X88780952Y-33914285D01*
X88828571Y-33961904D01*
X88876190Y-34057142D01*
X88876190Y-34438095D01*
X88352380Y-33533333D02*
X88352380Y-32866666D01*
X89352380Y-33295238D01*
G04 #@! TO.C,U4*
X45152380Y-33761904D02*
X45961904Y-33761904D01*
X46057142Y-33714285D01*
X46104761Y-33666666D01*
X46152380Y-33571428D01*
X46152380Y-33380952D01*
X46104761Y-33285714D01*
X46057142Y-33238095D01*
X45961904Y-33190476D01*
X45152380Y-33190476D01*
X45485714Y-32285714D02*
X46152380Y-32285714D01*
X45104761Y-32523809D02*
X45819047Y-32761904D01*
X45819047Y-32142857D01*
G04 #@! TO.C,U2*
D14*
X90021428Y-82362714D02*
X90021428Y-82979571D01*
X90057714Y-83052142D01*
X90094000Y-83088428D01*
X90166571Y-83124714D01*
X90311714Y-83124714D01*
X90384285Y-83088428D01*
X90420571Y-83052142D01*
X90456857Y-82979571D01*
X90456857Y-82362714D01*
X90783428Y-82435285D02*
X90819714Y-82399000D01*
X90892285Y-82362714D01*
X91073714Y-82362714D01*
X91146285Y-82399000D01*
X91182571Y-82435285D01*
X91218857Y-82507857D01*
X91218857Y-82580428D01*
X91182571Y-82689285D01*
X90747142Y-83124714D01*
X91218857Y-83124714D01*
G04 #@! TO.C,SW1*
D13*
X44604761Y-55183333D02*
X44652380Y-55040476D01*
X44652380Y-54802380D01*
X44604761Y-54707142D01*
X44557142Y-54659523D01*
X44461904Y-54611904D01*
X44366666Y-54611904D01*
X44271428Y-54659523D01*
X44223809Y-54707142D01*
X44176190Y-54802380D01*
X44128571Y-54992857D01*
X44080952Y-55088095D01*
X44033333Y-55135714D01*
X43938095Y-55183333D01*
X43842857Y-55183333D01*
X43747619Y-55135714D01*
X43700000Y-55088095D01*
X43652380Y-54992857D01*
X43652380Y-54754761D01*
X43700000Y-54611904D01*
X43652380Y-54278571D02*
X44652380Y-54040476D01*
X43938095Y-53850000D01*
X44652380Y-53659523D01*
X43652380Y-53421428D01*
X44652380Y-52516666D02*
X44652380Y-53088095D01*
X44652380Y-52802380D02*
X43652380Y-52802380D01*
X43795238Y-52897619D01*
X43890476Y-52992857D01*
X43938095Y-53088095D01*
G04 #@! TO.C,C1*
X59972142Y-56416666D02*
X60019761Y-56464285D01*
X60067380Y-56607142D01*
X60067380Y-56702380D01*
X60019761Y-56845238D01*
X59924523Y-56940476D01*
X59829285Y-56988095D01*
X59638809Y-57035714D01*
X59495952Y-57035714D01*
X59305476Y-56988095D01*
X59210238Y-56940476D01*
X59115000Y-56845238D01*
X59067380Y-56702380D01*
X59067380Y-56607142D01*
X59115000Y-56464285D01*
X59162619Y-56416666D01*
X60067380Y-55464285D02*
X60067380Y-56035714D01*
X60067380Y-55750000D02*
X59067380Y-55750000D01*
X59210238Y-55845238D01*
X59305476Y-55940476D01*
X59353095Y-56035714D01*
G04 #@! TO.C,C5*
X50733333Y-86007142D02*
X50685714Y-86054761D01*
X50542857Y-86102380D01*
X50447619Y-86102380D01*
X50304761Y-86054761D01*
X50209523Y-85959523D01*
X50161904Y-85864285D01*
X50114285Y-85673809D01*
X50114285Y-85530952D01*
X50161904Y-85340476D01*
X50209523Y-85245238D01*
X50304761Y-85150000D01*
X50447619Y-85102380D01*
X50542857Y-85102380D01*
X50685714Y-85150000D01*
X50733333Y-85197619D01*
X51638095Y-85102380D02*
X51161904Y-85102380D01*
X51114285Y-85578571D01*
X51161904Y-85530952D01*
X51257142Y-85483333D01*
X51495238Y-85483333D01*
X51590476Y-85530952D01*
X51638095Y-85578571D01*
X51685714Y-85673809D01*
X51685714Y-85911904D01*
X51638095Y-86007142D01*
X51590476Y-86054761D01*
X51495238Y-86102380D01*
X51257142Y-86102380D01*
X51161904Y-86054761D01*
X51114285Y-86007142D01*
G04 #@! TO.C,D1*
X26952380Y-54738095D02*
X25952380Y-54738095D01*
X25952380Y-54500000D01*
X26000000Y-54357142D01*
X26095238Y-54261904D01*
X26190476Y-54214285D01*
X26380952Y-54166666D01*
X26523809Y-54166666D01*
X26714285Y-54214285D01*
X26809523Y-54261904D01*
X26904761Y-54357142D01*
X26952380Y-54500000D01*
X26952380Y-54738095D01*
X26952380Y-53214285D02*
X26952380Y-53785714D01*
X26952380Y-53500000D02*
X25952380Y-53500000D01*
X26095238Y-53595238D01*
X26190476Y-53690476D01*
X26238095Y-53785714D01*
X28852380Y-57864285D02*
X28852380Y-58435714D01*
X28852380Y-58150000D02*
X27852380Y-58150000D01*
X27995238Y-58245238D01*
X28090476Y-58340476D01*
X28138095Y-58435714D01*
G04 #@! TO.C,J1*
X78666666Y-106252380D02*
X78666666Y-106966666D01*
X78619047Y-107109523D01*
X78523809Y-107204761D01*
X78380952Y-107252380D01*
X78285714Y-107252380D01*
X79666666Y-107252380D02*
X79095238Y-107252380D01*
X79380952Y-107252380D02*
X79380952Y-106252380D01*
X79285714Y-106395238D01*
X79190476Y-106490476D01*
X79095238Y-106538095D01*
G04 #@! TO.C,J2*
X60666666Y-106252380D02*
X60666666Y-106966666D01*
X60619047Y-107109523D01*
X60523809Y-107204761D01*
X60380952Y-107252380D01*
X60285714Y-107252380D01*
X61095238Y-106347619D02*
X61142857Y-106300000D01*
X61238095Y-106252380D01*
X61476190Y-106252380D01*
X61571428Y-106300000D01*
X61619047Y-106347619D01*
X61666666Y-106442857D01*
X61666666Y-106538095D01*
X61619047Y-106680952D01*
X61047619Y-107252380D01*
X61666666Y-107252380D01*
G04 #@! TO.C,U1*
X59922380Y-65751904D02*
X60731904Y-65751904D01*
X60827142Y-65704285D01*
X60874761Y-65656666D01*
X60922380Y-65561428D01*
X60922380Y-65370952D01*
X60874761Y-65275714D01*
X60827142Y-65228095D01*
X60731904Y-65180476D01*
X59922380Y-65180476D01*
X60922380Y-64180476D02*
X60922380Y-64751904D01*
X60922380Y-64466190D02*
X59922380Y-64466190D01*
X60065238Y-64561428D01*
X60160476Y-64656666D01*
X60208095Y-64751904D01*
G04 #@! TO.C,U3*
X55382380Y-65771904D02*
X56191904Y-65771904D01*
X56287142Y-65724285D01*
X56334761Y-65676666D01*
X56382380Y-65581428D01*
X56382380Y-65390952D01*
X56334761Y-65295714D01*
X56287142Y-65248095D01*
X56191904Y-65200476D01*
X55382380Y-65200476D01*
X55382380Y-64819523D02*
X55382380Y-64200476D01*
X55763333Y-64533809D01*
X55763333Y-64390952D01*
X55810952Y-64295714D01*
X55858571Y-64248095D01*
X55953809Y-64200476D01*
X56191904Y-64200476D01*
X56287142Y-64248095D01*
X56334761Y-64295714D01*
X56382380Y-64390952D01*
X56382380Y-64676666D01*
X56334761Y-64771904D01*
X56287142Y-64819523D01*
G04 #@! TD*
M02*
