G04 #@! TF.GenerationSoftware,KiCad,Pcbnew,5.0.2+dfsg1-1*
G04 #@! TF.CreationDate,2019-10-07T13:36:21+02:00*
G04 #@! TF.ProjectId,fl51xx-bb,666c3531-7878-42d6-9262-2e6b69636164,v1.0.0*
G04 #@! TF.SameCoordinates,Original*
G04 #@! TF.FileFunction,Copper,L2,Bot*
G04 #@! TF.FilePolarity,Positive*
%FSLAX46Y46*%
G04 Gerber Fmt 4.6, Leading zero omitted, Abs format (unit mm)*
G04 Created by KiCad (PCBNEW 5.0.2+dfsg1-1) date Mon 07 Oct 2019 01:36:21 PM CEST*
%MOMM*%
%LPD*%
G01*
G04 APERTURE LIST*
G04 #@! TA.AperFunction,ComponentPad*
%ADD10R,1.700000X1.700000*%
G04 #@! TD*
G04 #@! TA.AperFunction,ViaPad*
%ADD11C,0.800000*%
G04 #@! TD*
G04 #@! TA.AperFunction,Conductor*
%ADD12C,0.645000*%
G04 #@! TD*
G04 #@! TA.AperFunction,Conductor*
%ADD13C,0.250000*%
G04 #@! TD*
G04 APERTURE END LIST*
D10*
G04 #@! TO.P,J10,1*
G04 #@! TO.N,Net-(J10-Pad1)*
X31496000Y-20066000D03*
G04 #@! TD*
G04 #@! TO.P,J9,1*
G04 #@! TO.N,Net-(J9-Pad1)*
X31496000Y-17526000D03*
G04 #@! TD*
G04 #@! TO.P,J8,1*
G04 #@! TO.N,Net-(J8-Pad1)*
X31496000Y-22606000D03*
G04 #@! TD*
G04 #@! TO.P,J7,1*
G04 #@! TO.N,Net-(J7-Pad1)*
X18796000Y-17526000D03*
G04 #@! TD*
G04 #@! TO.P,J6,1*
G04 #@! TO.N,Net-(J6-Pad1)*
X18796000Y-20066000D03*
G04 #@! TD*
G04 #@! TO.P,J5,1*
G04 #@! TO.N,Net-(J5-Pad1)*
X31496000Y-25146000D03*
G04 #@! TD*
G04 #@! TO.P,J4,1*
G04 #@! TO.N,Net-(J4-Pad1)*
X31496000Y-27686000D03*
G04 #@! TD*
G04 #@! TO.P,J3,1*
G04 #@! TO.N,Net-(J3-Pad1)*
X18796000Y-22606000D03*
G04 #@! TD*
G04 #@! TO.P,J2,1*
G04 #@! TO.N,Net-(J2-Pad1)*
X18796000Y-27686000D03*
G04 #@! TD*
G04 #@! TO.P,J1,1*
G04 #@! TO.N,Net-(J1-Pad1)*
X18796000Y-25146000D03*
G04 #@! TD*
D11*
G04 #@! TO.N,Net-(J2-Pad1)*
X24146000Y-25406000D03*
G04 #@! TO.N,Net-(J1-Pad1)*
X23114000Y-25406000D03*
G04 #@! TO.N,Net-(J3-Pad1)*
X25146000Y-25400000D03*
G04 #@! TO.N,Net-(J6-Pad1)*
X23114000Y-19806000D03*
G04 #@! TO.N,Net-(J7-Pad1)*
X24146000Y-19806000D03*
G04 #@! TO.N,Net-(J4-Pad1)*
X26146000Y-25406000D03*
G04 #@! TO.N,Net-(J5-Pad1)*
X27178000Y-25406000D03*
G04 #@! TO.N,Net-(J8-Pad1)*
X25146000Y-19812000D03*
G04 #@! TO.N,Net-(J10-Pad1)*
X27178000Y-19806000D03*
G04 #@! TO.N,Net-(J9-Pad1)*
X26146000Y-19806000D03*
G04 #@! TD*
D12*
G04 #@! TO.N,Net-(J2-Pad1)*
X22991000Y-27686000D02*
X19896000Y-27686000D01*
X19896000Y-27686000D02*
X18796000Y-27686000D01*
X24146000Y-25406000D02*
X24146000Y-26531000D01*
X24146000Y-26531000D02*
X22991000Y-27686000D01*
G04 #@! TO.N,Net-(J1-Pad1)*
X19056000Y-25406000D02*
X18796000Y-25146000D01*
X23114000Y-25406000D02*
X19056000Y-25406000D01*
G04 #@! TO.N,Net-(J3-Pad1)*
X25146000Y-24834315D02*
X25146000Y-25400000D01*
X25146000Y-24130000D02*
X25146000Y-24834315D01*
X18796000Y-22606000D02*
X23622000Y-22606000D01*
X23622000Y-22606000D02*
X25146000Y-24130000D01*
G04 #@! TO.N,Net-(J6-Pad1)*
X19056000Y-19806000D02*
X18796000Y-20066000D01*
X23114000Y-19806000D02*
X19056000Y-19806000D01*
G04 #@! TO.N,Net-(J4-Pad1)*
X30293919Y-27686000D02*
X31496000Y-27686000D01*
X27301000Y-27686000D02*
X30293919Y-27686000D01*
X26146000Y-25406000D02*
X26146000Y-26531000D01*
X26146000Y-26531000D02*
X27301000Y-27686000D01*
G04 #@! TO.N,Net-(J5-Pad1)*
X31236000Y-25406000D02*
X31496000Y-25146000D01*
X27178000Y-25406000D02*
X31236000Y-25406000D01*
D13*
G04 #@! TO.N,Net-(J7-Pad1)*
X18796000Y-17526000D02*
X19896000Y-17526000D01*
D12*
X24146000Y-18681000D02*
X22991000Y-17526000D01*
X24146000Y-19806000D02*
X24146000Y-18681000D01*
X22991000Y-17526000D02*
X18796000Y-17526000D01*
G04 #@! TO.N,Net-(J8-Pad1)*
X31496000Y-22606000D02*
X27374315Y-22606000D01*
X25146000Y-19812000D02*
X25146000Y-21082000D01*
X26670000Y-22606000D02*
X27374315Y-22606000D01*
X25146000Y-21082000D02*
X26670000Y-22606000D01*
G04 #@! TO.N,Net-(J10-Pad1)*
X31236000Y-19806000D02*
X31496000Y-20066000D01*
X27178000Y-19806000D02*
X31236000Y-19806000D01*
G04 #@! TO.N,Net-(J9-Pad1)*
X30396000Y-17526000D02*
X31496000Y-17526000D01*
X27301000Y-17526000D02*
X30396000Y-17526000D01*
X26146000Y-19806000D02*
X26146000Y-18681000D01*
X26146000Y-18681000D02*
X27301000Y-17526000D01*
G04 #@! TD*
M02*
