G04 #@! TF.GenerationSoftware,KiCad,Pcbnew,5.0.2+dfsg1-1*
G04 #@! TF.CreationDate,2019-10-07T13:36:21+02:00*
G04 #@! TF.ProjectId,fl51xx-bb,666c3531-7878-42d6-9262-2e6b69636164,v1.0.0*
G04 #@! TF.SameCoordinates,Original*
G04 #@! TF.FileFunction,Legend,Top*
G04 #@! TF.FilePolarity,Positive*
%FSLAX46Y46*%
G04 Gerber Fmt 4.6, Leading zero omitted, Abs format (unit mm)*
G04 Created by KiCad (PCBNEW 5.0.2+dfsg1-1) date Mon 07 Oct 2019 01:36:21 PM CEST*
%MOMM*%
%LPD*%
G01*
G04 APERTURE LIST*
%ADD10C,0.200000*%
%ADD11C,0.120000*%
%ADD12C,0.500000*%
%ADD13C,0.150000*%
G04 APERTURE END LIST*
D10*
X28552857Y-17926000D02*
X28552857Y-17126000D01*
X29752857Y-17640285D01*
X28552857Y-19837428D02*
X28552857Y-20066000D01*
X28610000Y-20180285D01*
X28667142Y-20237428D01*
X28838571Y-20351714D01*
X29067142Y-20408857D01*
X29524285Y-20408857D01*
X29638571Y-20351714D01*
X29695714Y-20294571D01*
X29752857Y-20180285D01*
X29752857Y-19951714D01*
X29695714Y-19837428D01*
X29638571Y-19780285D01*
X29524285Y-19723142D01*
X29238571Y-19723142D01*
X29124285Y-19780285D01*
X29067142Y-19837428D01*
X29010000Y-19951714D01*
X29010000Y-20180285D01*
X29067142Y-20294571D01*
X29124285Y-20351714D01*
X29238571Y-20408857D01*
X29067142Y-22720285D02*
X29010000Y-22834571D01*
X28952857Y-22891714D01*
X28838571Y-22948857D01*
X28781428Y-22948857D01*
X28667142Y-22891714D01*
X28610000Y-22834571D01*
X28552857Y-22720285D01*
X28552857Y-22491714D01*
X28610000Y-22377428D01*
X28667142Y-22320285D01*
X28781428Y-22263142D01*
X28838571Y-22263142D01*
X28952857Y-22320285D01*
X29010000Y-22377428D01*
X29067142Y-22491714D01*
X29067142Y-22720285D01*
X29124285Y-22834571D01*
X29181428Y-22891714D01*
X29295714Y-22948857D01*
X29524285Y-22948857D01*
X29638571Y-22891714D01*
X29695714Y-22834571D01*
X29752857Y-22720285D01*
X29752857Y-22491714D01*
X29695714Y-22377428D01*
X29638571Y-22320285D01*
X29524285Y-22263142D01*
X29295714Y-22263142D01*
X29181428Y-22320285D01*
X29124285Y-22377428D01*
X29067142Y-22491714D01*
X28552857Y-24860285D02*
X28552857Y-25431714D01*
X29124285Y-25488857D01*
X29067142Y-25431714D01*
X29010000Y-25317428D01*
X29010000Y-25031714D01*
X29067142Y-24917428D01*
X29124285Y-24860285D01*
X29238571Y-24803142D01*
X29524285Y-24803142D01*
X29638571Y-24860285D01*
X29695714Y-24917428D01*
X29752857Y-25031714D01*
X29752857Y-25317428D01*
X29695714Y-25431714D01*
X29638571Y-25488857D01*
X20539142Y-17297428D02*
X20539142Y-17526000D01*
X20596285Y-17640285D01*
X20653428Y-17697428D01*
X20824857Y-17811714D01*
X21053428Y-17868857D01*
X21510571Y-17868857D01*
X21624857Y-17811714D01*
X21682000Y-17754571D01*
X21739142Y-17640285D01*
X21739142Y-17411714D01*
X21682000Y-17297428D01*
X21624857Y-17240285D01*
X21510571Y-17183142D01*
X21224857Y-17183142D01*
X21110571Y-17240285D01*
X21053428Y-17297428D01*
X20996285Y-17411714D01*
X20996285Y-17640285D01*
X21053428Y-17754571D01*
X21110571Y-17811714D01*
X21224857Y-17868857D01*
X28952857Y-27711428D02*
X29752857Y-27711428D01*
X28495714Y-27997142D02*
X29352857Y-28282857D01*
X29352857Y-27540000D01*
X20539142Y-19837428D02*
X20539142Y-19151714D01*
X20539142Y-19494571D02*
X21739142Y-19494571D01*
X21567714Y-19380285D01*
X21453428Y-19266000D01*
X21396285Y-19151714D01*
X21739142Y-20580285D02*
X21739142Y-20694571D01*
X21682000Y-20808857D01*
X21624857Y-20866000D01*
X21510571Y-20923142D01*
X21282000Y-20980285D01*
X20996285Y-20980285D01*
X20767714Y-20923142D01*
X20653428Y-20866000D01*
X20596285Y-20808857D01*
X20539142Y-20694571D01*
X20539142Y-20580285D01*
X20596285Y-20466000D01*
X20653428Y-20408857D01*
X20767714Y-20351714D01*
X20996285Y-20294571D01*
X21282000Y-20294571D01*
X21510571Y-20351714D01*
X21624857Y-20408857D01*
X21682000Y-20466000D01*
X21739142Y-20580285D01*
X21739142Y-22206000D02*
X21739142Y-22948857D01*
X21282000Y-22548857D01*
X21282000Y-22720285D01*
X21224857Y-22834571D01*
X21167714Y-22891714D01*
X21053428Y-22948857D01*
X20767714Y-22948857D01*
X20653428Y-22891714D01*
X20596285Y-22834571D01*
X20539142Y-22720285D01*
X20539142Y-22377428D01*
X20596285Y-22263142D01*
X20653428Y-22206000D01*
X20539142Y-25488857D02*
X20539142Y-24803142D01*
X20539142Y-25146000D02*
X21739142Y-25146000D01*
X21567714Y-25031714D01*
X21453428Y-24917428D01*
X21396285Y-24803142D01*
X21624857Y-27343142D02*
X21682000Y-27400285D01*
X21739142Y-27514571D01*
X21739142Y-27800285D01*
X21682000Y-27914571D01*
X21624857Y-27971714D01*
X21510571Y-28028857D01*
X21396285Y-28028857D01*
X21224857Y-27971714D01*
X20539142Y-27286000D01*
X20539142Y-28028857D01*
D11*
G04 #@! TO.C,J10*
X30166000Y-18736000D02*
X31496000Y-18736000D01*
X30166000Y-20066000D02*
X30166000Y-18736000D01*
X30166000Y-21336000D02*
X32826000Y-21336000D01*
X32826000Y-21336000D02*
X32826000Y-21396000D01*
X30166000Y-21336000D02*
X30166000Y-21396000D01*
X30166000Y-21396000D02*
X32826000Y-21396000D01*
G04 #@! TO.C,J9*
X30166000Y-18856000D02*
X32826000Y-18856000D01*
X30166000Y-18796000D02*
X30166000Y-18856000D01*
X32826000Y-18796000D02*
X32826000Y-18856000D01*
X30166000Y-18796000D02*
X32826000Y-18796000D01*
X30166000Y-17526000D02*
X30166000Y-16196000D01*
X30166000Y-16196000D02*
X31496000Y-16196000D01*
G04 #@! TO.C,J8*
X30166000Y-21276000D02*
X31496000Y-21276000D01*
X30166000Y-22606000D02*
X30166000Y-21276000D01*
X30166000Y-23876000D02*
X32826000Y-23876000D01*
X32826000Y-23876000D02*
X32826000Y-23936000D01*
X30166000Y-23876000D02*
X30166000Y-23936000D01*
X30166000Y-23936000D02*
X32826000Y-23936000D01*
G04 #@! TO.C,J7*
X17466000Y-18856000D02*
X20126000Y-18856000D01*
X17466000Y-18796000D02*
X17466000Y-18856000D01*
X20126000Y-18796000D02*
X20126000Y-18856000D01*
X17466000Y-18796000D02*
X20126000Y-18796000D01*
X17466000Y-17526000D02*
X17466000Y-16196000D01*
X17466000Y-16196000D02*
X18796000Y-16196000D01*
G04 #@! TO.C,J6*
X17466000Y-18736000D02*
X18796000Y-18736000D01*
X17466000Y-20066000D02*
X17466000Y-18736000D01*
X17466000Y-21336000D02*
X20126000Y-21336000D01*
X20126000Y-21336000D02*
X20126000Y-21396000D01*
X17466000Y-21336000D02*
X17466000Y-21396000D01*
X17466000Y-21396000D02*
X20126000Y-21396000D01*
G04 #@! TO.C,J5*
X30166000Y-26476000D02*
X32826000Y-26476000D01*
X30166000Y-26416000D02*
X30166000Y-26476000D01*
X32826000Y-26416000D02*
X32826000Y-26476000D01*
X30166000Y-26416000D02*
X32826000Y-26416000D01*
X30166000Y-25146000D02*
X30166000Y-23816000D01*
X30166000Y-23816000D02*
X31496000Y-23816000D01*
G04 #@! TO.C,J4*
X30166000Y-26356000D02*
X31496000Y-26356000D01*
X30166000Y-27686000D02*
X30166000Y-26356000D01*
X30166000Y-28956000D02*
X32826000Y-28956000D01*
X32826000Y-28956000D02*
X32826000Y-29016000D01*
X30166000Y-28956000D02*
X30166000Y-29016000D01*
X30166000Y-29016000D02*
X32826000Y-29016000D01*
G04 #@! TO.C,J3*
X17466000Y-23936000D02*
X20126000Y-23936000D01*
X17466000Y-23876000D02*
X17466000Y-23936000D01*
X20126000Y-23876000D02*
X20126000Y-23936000D01*
X17466000Y-23876000D02*
X20126000Y-23876000D01*
X17466000Y-22606000D02*
X17466000Y-21276000D01*
X17466000Y-21276000D02*
X18796000Y-21276000D01*
G04 #@! TO.C,J2*
X17466000Y-26356000D02*
X18796000Y-26356000D01*
X17466000Y-27686000D02*
X17466000Y-26356000D01*
X17466000Y-28956000D02*
X20126000Y-28956000D01*
X20126000Y-28956000D02*
X20126000Y-29016000D01*
X17466000Y-28956000D02*
X17466000Y-29016000D01*
X17466000Y-29016000D02*
X20126000Y-29016000D01*
G04 #@! TO.C,J1*
X17466000Y-26476000D02*
X20126000Y-26476000D01*
X17466000Y-26416000D02*
X17466000Y-26476000D01*
X20126000Y-26416000D02*
X20126000Y-26476000D01*
X17466000Y-26416000D02*
X20126000Y-26416000D01*
X17466000Y-25146000D02*
X17466000Y-23816000D01*
X17466000Y-23816000D02*
X18796000Y-23816000D01*
D12*
G04 #@! TO.C,U1*
X23696000Y-23806000D02*
G75*
G03X23696000Y-23806000I-250000J0D01*
G01*
D13*
X22696000Y-20656000D02*
X27596000Y-20656000D01*
X27596000Y-20656000D02*
X27596000Y-24556000D01*
X22696000Y-24556000D02*
X27596000Y-24556000D01*
X22696000Y-20656000D02*
X22696000Y-24556000D01*
G04 #@! TD*
M02*
