G04 #@! TF.GenerationSoftware,KiCad,Pcbnew,5.0.2+dfsg1-1*
G04 #@! TF.CreationDate,2019-10-07T13:36:21+02:00*
G04 #@! TF.ProjectId,fl51xx-bb,666c3531-7878-42d6-9262-2e6b69636164,v1.0.0*
G04 #@! TF.SameCoordinates,Original*
G04 #@! TF.FileFunction,Soldermask,Top*
G04 #@! TF.FilePolarity,Negative*
%FSLAX46Y46*%
G04 Gerber Fmt 4.6, Leading zero omitted, Abs format (unit mm)*
G04 Created by KiCad (PCBNEW 5.0.2+dfsg1-1) date Mon 07 Oct 2019 01:36:21 PM CEST*
%MOMM*%
%LPD*%
G01*
G04 APERTURE LIST*
%ADD10C,0.100000*%
G04 APERTURE END LIST*
D10*
G36*
X19697000Y-28587000D02*
X17895000Y-28587000D01*
X17895000Y-26785000D01*
X19697000Y-26785000D01*
X19697000Y-28587000D01*
X19697000Y-28587000D01*
G37*
G36*
X32397000Y-28587000D02*
X30595000Y-28587000D01*
X30595000Y-26785000D01*
X32397000Y-26785000D01*
X32397000Y-28587000D01*
X32397000Y-28587000D01*
G37*
G36*
X27522000Y-26332000D02*
X22770000Y-26332000D01*
X22770000Y-24480000D01*
X27522000Y-24480000D01*
X27522000Y-26332000D01*
X27522000Y-26332000D01*
G37*
G36*
X19697000Y-26047000D02*
X17895000Y-26047000D01*
X17895000Y-24245000D01*
X19697000Y-24245000D01*
X19697000Y-26047000D01*
X19697000Y-26047000D01*
G37*
G36*
X32397000Y-26047000D02*
X30595000Y-26047000D01*
X30595000Y-24245000D01*
X32397000Y-24245000D01*
X32397000Y-26047000D01*
X32397000Y-26047000D01*
G37*
G36*
X32397000Y-23507000D02*
X30595000Y-23507000D01*
X30595000Y-21705000D01*
X32397000Y-21705000D01*
X32397000Y-23507000D01*
X32397000Y-23507000D01*
G37*
G36*
X19697000Y-23507000D02*
X17895000Y-23507000D01*
X17895000Y-21705000D01*
X19697000Y-21705000D01*
X19697000Y-23507000D01*
X19697000Y-23507000D01*
G37*
G36*
X19697000Y-20967000D02*
X17895000Y-20967000D01*
X17895000Y-19165000D01*
X19697000Y-19165000D01*
X19697000Y-20967000D01*
X19697000Y-20967000D01*
G37*
G36*
X32397000Y-20967000D02*
X30595000Y-20967000D01*
X30595000Y-19165000D01*
X32397000Y-19165000D01*
X32397000Y-20967000D01*
X32397000Y-20967000D01*
G37*
G36*
X27522000Y-20732000D02*
X22770000Y-20732000D01*
X22770000Y-18880000D01*
X27522000Y-18880000D01*
X27522000Y-20732000D01*
X27522000Y-20732000D01*
G37*
G36*
X19697000Y-18427000D02*
X17895000Y-18427000D01*
X17895000Y-16625000D01*
X19697000Y-16625000D01*
X19697000Y-18427000D01*
X19697000Y-18427000D01*
G37*
G36*
X32397000Y-18427000D02*
X30595000Y-18427000D01*
X30595000Y-16625000D01*
X32397000Y-16625000D01*
X32397000Y-18427000D01*
X32397000Y-18427000D01*
G37*
M02*
