M48
;DRILL file {KiCad 5.0.2+dfsg1-1} date Mon 07 Oct 2019 01:36:24 PM CEST
;FORMAT={-:-/ absolute / inch / decimal}
FMAT,2
INCH,TZ
T1C0.0157
T2C0.0394
%
G90
G05
T1
X0.91Y-0.7798
X0.91Y-1.0002
X0.9506Y-0.7798
X0.9506Y-1.0002
X0.99Y-0.78
X0.99Y-1.
X1.0294Y-0.7798
X1.0294Y-1.0002
X1.07Y-0.7798
X1.07Y-1.0002
T2
X1.24Y-0.89
X0.74Y-1.09
X1.24Y-1.09
X1.24Y-0.99
X0.74Y-0.69
X1.24Y-0.79
X1.24Y-0.69
X0.74Y-0.89
X0.74Y-0.99
X0.74Y-0.79
T0
M30
