G04 #@! TF.GenerationSoftware,KiCad,Pcbnew,5.0.2+dfsg1-1*
G04 #@! TF.CreationDate,2019-10-07T13:36:21+02:00*
G04 #@! TF.ProjectId,fl51xx-bb,666c3531-7878-42d6-9262-2e6b69636164,v1.0.0*
G04 #@! TF.SameCoordinates,Original*
G04 #@! TF.FileFunction,Legend,Bot*
G04 #@! TF.FilePolarity,Positive*
%FSLAX46Y46*%
G04 Gerber Fmt 4.6, Leading zero omitted, Abs format (unit mm)*
G04 Created by KiCad (PCBNEW 5.0.2+dfsg1-1) date Mon 07 Oct 2019 01:36:21 PM CEST*
%MOMM*%
%LPD*%
G01*
G04 APERTURE LIST*
%ADD10C,0.200000*%
%ADD11C,0.300000*%
G04 APERTURE END LIST*
D10*
X26660285Y-24907428D02*
X26603142Y-24736000D01*
X26603142Y-24450285D01*
X26660285Y-24336000D01*
X26717428Y-24278857D01*
X26831714Y-24221714D01*
X26946000Y-24221714D01*
X27060285Y-24278857D01*
X27117428Y-24336000D01*
X27174571Y-24450285D01*
X27231714Y-24678857D01*
X27288857Y-24793142D01*
X27346000Y-24850285D01*
X27460285Y-24907428D01*
X27574571Y-24907428D01*
X27688857Y-24850285D01*
X27746000Y-24793142D01*
X27803142Y-24678857D01*
X27803142Y-24393142D01*
X27746000Y-24221714D01*
X27803142Y-23478857D02*
X27803142Y-23250285D01*
X27746000Y-23136000D01*
X27631714Y-23021714D01*
X27403142Y-22964571D01*
X27003142Y-22964571D01*
X26774571Y-23021714D01*
X26660285Y-23136000D01*
X26603142Y-23250285D01*
X26603142Y-23478857D01*
X26660285Y-23593142D01*
X26774571Y-23707428D01*
X27003142Y-23764571D01*
X27403142Y-23764571D01*
X27631714Y-23707428D01*
X27746000Y-23593142D01*
X27803142Y-23478857D01*
X26603142Y-22450285D02*
X27803142Y-22450285D01*
X26717428Y-21193142D02*
X26660285Y-21250285D01*
X26603142Y-21421714D01*
X26603142Y-21536000D01*
X26660285Y-21707428D01*
X26774571Y-21821714D01*
X26888857Y-21878857D01*
X27117428Y-21936000D01*
X27288857Y-21936000D01*
X27517428Y-21878857D01*
X27631714Y-21821714D01*
X27746000Y-21707428D01*
X27803142Y-21536000D01*
X27803142Y-21421714D01*
X27746000Y-21250285D01*
X27688857Y-21193142D01*
X26603142Y-20050285D02*
X26603142Y-20736000D01*
X26603142Y-20393142D02*
X27803142Y-20393142D01*
X27631714Y-20507428D01*
X27517428Y-20621714D01*
X27460285Y-20736000D01*
X27688857Y-19593142D02*
X27746000Y-19536000D01*
X27803142Y-19421714D01*
X27803142Y-19136000D01*
X27746000Y-19021714D01*
X27688857Y-18964571D01*
X27574571Y-18907428D01*
X27460285Y-18907428D01*
X27288857Y-18964571D01*
X26603142Y-19650285D01*
X26603142Y-18907428D01*
X27803142Y-18507428D02*
X27803142Y-17707428D01*
X26603142Y-18221714D01*
X24603142Y-26107428D02*
X25803142Y-26107428D01*
X25346000Y-26107428D02*
X25403142Y-25993142D01*
X25403142Y-25764571D01*
X25346000Y-25650285D01*
X25288857Y-25593142D01*
X25174571Y-25536000D01*
X24831714Y-25536000D01*
X24717428Y-25593142D01*
X24660285Y-25650285D01*
X24603142Y-25764571D01*
X24603142Y-25993142D01*
X24660285Y-26107428D01*
X24603142Y-25021714D02*
X25403142Y-25021714D01*
X25174571Y-25021714D02*
X25288857Y-24964571D01*
X25346000Y-24907428D01*
X25403142Y-24793142D01*
X25403142Y-24678857D01*
X24660285Y-23821714D02*
X24603142Y-23936000D01*
X24603142Y-24164571D01*
X24660285Y-24278857D01*
X24774571Y-24336000D01*
X25231714Y-24336000D01*
X25346000Y-24278857D01*
X25403142Y-24164571D01*
X25403142Y-23936000D01*
X25346000Y-23821714D01*
X25231714Y-23764571D01*
X25117428Y-23764571D01*
X25003142Y-24336000D01*
X24603142Y-22736000D02*
X25231714Y-22736000D01*
X25346000Y-22793142D01*
X25403142Y-22907428D01*
X25403142Y-23136000D01*
X25346000Y-23250285D01*
X24660285Y-22736000D02*
X24603142Y-22850285D01*
X24603142Y-23136000D01*
X24660285Y-23250285D01*
X24774571Y-23307428D01*
X24888857Y-23307428D01*
X25003142Y-23250285D01*
X25060285Y-23136000D01*
X25060285Y-22850285D01*
X25117428Y-22736000D01*
X24603142Y-21650285D02*
X25803142Y-21650285D01*
X24660285Y-21650285D02*
X24603142Y-21764571D01*
X24603142Y-21993142D01*
X24660285Y-22107428D01*
X24717428Y-22164571D01*
X24831714Y-22221714D01*
X25174571Y-22221714D01*
X25288857Y-22164571D01*
X25346000Y-22107428D01*
X25403142Y-21993142D01*
X25403142Y-21764571D01*
X25346000Y-21650285D01*
X24603142Y-21078857D02*
X25803142Y-21078857D01*
X25346000Y-21078857D02*
X25403142Y-20964571D01*
X25403142Y-20736000D01*
X25346000Y-20621714D01*
X25288857Y-20564571D01*
X25174571Y-20507428D01*
X24831714Y-20507428D01*
X24717428Y-20564571D01*
X24660285Y-20621714D01*
X24603142Y-20736000D01*
X24603142Y-20964571D01*
X24660285Y-21078857D01*
X24603142Y-19821714D02*
X24660285Y-19936000D01*
X24717428Y-19993142D01*
X24831714Y-20050285D01*
X25174571Y-20050285D01*
X25288857Y-19993142D01*
X25346000Y-19936000D01*
X25403142Y-19821714D01*
X25403142Y-19650285D01*
X25346000Y-19536000D01*
X25288857Y-19478857D01*
X25174571Y-19421714D01*
X24831714Y-19421714D01*
X24717428Y-19478857D01*
X24660285Y-19536000D01*
X24603142Y-19650285D01*
X24603142Y-19821714D01*
X24603142Y-18393142D02*
X25231714Y-18393142D01*
X25346000Y-18450285D01*
X25403142Y-18564571D01*
X25403142Y-18793142D01*
X25346000Y-18907428D01*
X24660285Y-18393142D02*
X24603142Y-18507428D01*
X24603142Y-18793142D01*
X24660285Y-18907428D01*
X24774571Y-18964571D01*
X24888857Y-18964571D01*
X25003142Y-18907428D01*
X25060285Y-18793142D01*
X25060285Y-18507428D01*
X25117428Y-18393142D01*
X24603142Y-17821714D02*
X25403142Y-17821714D01*
X25174571Y-17821714D02*
X25288857Y-17764571D01*
X25346000Y-17707428D01*
X25403142Y-17593142D01*
X25403142Y-17478857D01*
X24603142Y-16564571D02*
X25803142Y-16564571D01*
X24660285Y-16564571D02*
X24603142Y-16678857D01*
X24603142Y-16907428D01*
X24660285Y-17021714D01*
X24717428Y-17078857D01*
X24831714Y-17136000D01*
X25174571Y-17136000D01*
X25288857Y-17078857D01*
X25346000Y-17021714D01*
X25403142Y-16907428D01*
X25403142Y-16678857D01*
X25346000Y-16564571D01*
X22603142Y-23936000D02*
X23231714Y-23936000D01*
X23346000Y-23993142D01*
X23403142Y-24107428D01*
X23403142Y-24336000D01*
X23346000Y-24450285D01*
X22660285Y-23936000D02*
X22603142Y-24050285D01*
X22603142Y-24336000D01*
X22660285Y-24450285D01*
X22774571Y-24507428D01*
X22888857Y-24507428D01*
X23003142Y-24450285D01*
X23060285Y-24336000D01*
X23060285Y-24050285D01*
X23117428Y-23936000D01*
X22603142Y-22850285D02*
X23803142Y-22850285D01*
X22660285Y-22850285D02*
X22603142Y-22964571D01*
X22603142Y-23193142D01*
X22660285Y-23307428D01*
X22717428Y-23364571D01*
X22831714Y-23421714D01*
X23174571Y-23421714D01*
X23288857Y-23364571D01*
X23346000Y-23307428D01*
X23403142Y-23193142D01*
X23403142Y-22964571D01*
X23346000Y-22850285D01*
X22603142Y-21764571D02*
X23231714Y-21764571D01*
X23346000Y-21821714D01*
X23403142Y-21936000D01*
X23403142Y-22164571D01*
X23346000Y-22278857D01*
X22660285Y-21764571D02*
X22603142Y-21878857D01*
X22603142Y-22164571D01*
X22660285Y-22278857D01*
X22774571Y-22336000D01*
X22888857Y-22336000D01*
X23003142Y-22278857D01*
X23060285Y-22164571D01*
X23060285Y-21878857D01*
X23117428Y-21764571D01*
X23403142Y-21193142D02*
X22203142Y-21193142D01*
X23346000Y-21193142D02*
X23403142Y-21078857D01*
X23403142Y-20850285D01*
X23346000Y-20736000D01*
X23288857Y-20678857D01*
X23174571Y-20621714D01*
X22831714Y-20621714D01*
X22717428Y-20678857D01*
X22660285Y-20736000D01*
X22603142Y-20850285D01*
X22603142Y-21078857D01*
X22660285Y-21193142D01*
X23403142Y-20278857D02*
X23403142Y-19821714D01*
X23803142Y-20107428D02*
X22774571Y-20107428D01*
X22660285Y-20050285D01*
X22603142Y-19936000D01*
X22603142Y-19821714D01*
X22660285Y-18964571D02*
X22603142Y-19078857D01*
X22603142Y-19307428D01*
X22660285Y-19421714D01*
X22774571Y-19478857D01*
X23231714Y-19478857D01*
X23346000Y-19421714D01*
X23403142Y-19307428D01*
X23403142Y-19078857D01*
X23346000Y-18964571D01*
X23231714Y-18907428D01*
X23117428Y-18907428D01*
X23003142Y-19478857D01*
X22603142Y-18393142D02*
X23403142Y-18393142D01*
X23174571Y-18393142D02*
X23288857Y-18336000D01*
X23346000Y-18278857D01*
X23403142Y-18164571D01*
X23403142Y-18050285D01*
D11*
X27860285Y-28547142D02*
X27717428Y-28618571D01*
X27431714Y-28618571D01*
X27288857Y-28547142D01*
X27217428Y-28404285D01*
X27217428Y-28332857D01*
X27288857Y-28190000D01*
X27431714Y-28118571D01*
X27646000Y-28118571D01*
X27788857Y-28047142D01*
X27860285Y-27904285D01*
X27860285Y-27832857D01*
X27788857Y-27690000D01*
X27646000Y-27618571D01*
X27431714Y-27618571D01*
X27288857Y-27690000D01*
X26360285Y-28618571D02*
X26503142Y-28547142D01*
X26574571Y-28404285D01*
X26574571Y-27118571D01*
X25788857Y-28618571D02*
X25788857Y-27618571D01*
X25788857Y-27118571D02*
X25860285Y-27190000D01*
X25788857Y-27261428D01*
X25717428Y-27190000D01*
X25788857Y-27118571D01*
X25788857Y-27261428D01*
X25074571Y-28618571D02*
X25074571Y-27618571D01*
X25074571Y-27761428D02*
X25003142Y-27690000D01*
X24860285Y-27618571D01*
X24646000Y-27618571D01*
X24503142Y-27690000D01*
X24431714Y-27832857D01*
X24431714Y-28618571D01*
X24431714Y-27832857D02*
X24360285Y-27690000D01*
X24217428Y-27618571D01*
X24003142Y-27618571D01*
X23860285Y-27690000D01*
X23788857Y-27832857D01*
X23788857Y-28618571D01*
X22431714Y-28547142D02*
X22574571Y-28618571D01*
X22860285Y-28618571D01*
X23003142Y-28547142D01*
X23074571Y-28475714D01*
X23146000Y-28332857D01*
X23146000Y-27904285D01*
X23074571Y-27761428D01*
X23003142Y-27690000D01*
X22860285Y-27618571D01*
X22574571Y-27618571D01*
X22431714Y-27690000D01*
M02*
