<?xml version="1.0" standalone="no"?>
 <!DOCTYPE svg PUBLIC "-//W3C//DTD SVG 1.1//EN" 
 "http://www.w3.org/Graphics/SVG/1.1/DTD/svg11.dtd"> 
<svg xmlns="http://www.w3.org/2000/svg" version="1.1" 
    width="12.9997cm" height="18.001cm" viewBox="0 0 51180 70870 ">
<title>SVG Picture created as mains-light-controller-F.Mask.svg date 2019/06/28 19:48:41 </title>
  <desc>Picture generated by PCBNEW </desc>
<g style="fill:#000000; fill-opacity:1;stroke:#000000; stroke-opacity:1;
stroke-linecap:round; stroke-linejoin:round; "
 transform="translate(0 0) scale(1 1)">
</g>
<g style="fill:#000000; fill-opacity:0.0; 
stroke:#000000; stroke-width:-0.000393701; stroke-opacity:1; 
stroke-linecap:round; stroke-linejoin:round;">
</g>
<g style="fill:#000000; fill-opacity:1.0; 
stroke:#000000; stroke-width:0; stroke-opacity:1; 
stroke-linecap:round; stroke-linejoin:round;">
<polyline style="fill-rule:evenodd;"
points="31062,41456
29881,41456
29881,40275
31062,40275
31062,41456
" /> 
<polyline style="fill-rule:evenodd;"
points="23976,41456
22795,41456
22795,40275
23976,40275
23976,41456
" /> 
<polyline style="fill-rule:evenodd;"
points="21520,40290
21558,40298
21665,40342
21760,40406
21762,40407
21844,40489
21909,40586
21953,40693
21976,40807
21976,40924
21953,41038
21909,41145
21844,41242
21762,41324
21762,41324
21665,41389
21558,41433
21520,41441
21443,41456
21327,41456
21251,41441
21213,41433
21106,41389
21009,41324
21009,41324
20927,41242
20862,41145
20817,41038
20795,40924
20795,40807
20817,40693
20862,40586
20927,40489
21009,40407
21010,40406
21106,40342
21213,40298
21251,40290
21327,40275
21443,40275
21520,40290
" /> 
<polyline style="fill-rule:evenodd;"
points="28606,40290
28644,40298
28752,40342
28847,40406
28848,40407
28931,40489
28995,40586
29040,40693
29062,40807
29062,40924
29040,41038
28995,41145
28931,41242
28848,41324
28848,41324
28752,41389
28644,41433
28606,41441
28530,41456
28414,41456
28338,41441
28300,41433
28192,41389
28095,41324
28095,41324
28013,41242
27949,41145
27904,41038
27881,40924
27881,40807
27904,40693
27949,40586
28013,40489
28095,40407
28097,40406
28192,40342
28300,40298
28338,40290
28414,40275
28530,40275
28606,40290
" /> 
<polyline style="fill-rule:evenodd;"
points="26606,40290
26644,40298
26752,40342
26847,40406
26848,40407
26931,40489
26995,40586
27040,40693
27062,40807
27062,40924
27040,41038
26995,41145
26931,41242
26848,41324
26848,41324
26752,41389
26644,41433
26606,41441
26530,41456
26414,41456
26338,41441
26300,41433
26192,41389
26095,41324
26095,41324
26013,41242
25949,41145
25904,41038
25881,40924
25881,40807
25904,40693
25949,40586
26013,40489
26095,40407
26097,40406
26192,40342
26300,40298
26338,40290
26414,40275
26530,40275
26606,40290
" /> 
<polyline style="fill-rule:evenodd;"
points="19190,36122
19190,36122
19190,36122
19221,36134
19274,36156
19350,36207
19414,36272
19465,36347
19499,36431
19517,36521
19517,36612
19499,36701
19465,36786
19414,36861
19350,36926
19274,36976
19221,36998
19190,37011
19190,37011
19190,37011
19100,37029
19009,37029
18920,37011
18920,37011
18920,37011
18889,36998
18835,36976
18760,36926
18695,36861
18645,36786
18610,36701
18592,36612
18592,36521
18610,36431
18645,36347
18695,36272
18760,36207
18835,36156
18889,36134
18920,36122
18920,36122
18920,36122
19009,36104
19100,36104
19190,36122
" /> 
<polyline style="fill-rule:evenodd;"
points="25221,36122
25221,36122
25221,36122
25252,36134
25305,36156
25381,36207
25445,36272
25496,36347
25531,36431
25549,36521
25549,36612
25531,36701
25496,36786
25445,36861
25381,36926
25305,36976
25252,36998
25221,37011
25221,37011
25221,37011
25132,37029
25041,37029
24951,37011
24951,37011
24951,37011
24920,36998
24867,36976
24791,36926
24727,36861
24676,36786
24641,36701
24624,36612
24624,36521
24641,36431
24676,36347
24727,36272
24791,36207
24867,36156
24920,36134
24951,36122
24951,36122
24951,36122
25041,36104
25132,36104
25221,36122
" /> 
<polyline style="fill-rule:evenodd;"
points="12431,34657
12463,34663
12554,34701
12635,34755
12635,34755
12704,34825
12704,34825
12759,34906
12796,34996
12815,35092
12815,35190
12796,35286
12759,35377
12705,35457
12704,35458
12635,35527
12635,35527
12554,35582
12463,35619
12431,35625
12367,35638
12269,35638
12205,35625
12173,35619
12083,35582
12002,35527
12002,35527
11932,35458
11932,35457
11878,35377
11841,35286
11822,35190
11822,35092
11841,34996
11878,34906
11932,34825
11932,34825
12002,34755
12002,34755
12083,34701
12173,34663
12205,34657
12269,34644
12367,34644
12431,34657
" /> 
<polyline style="fill-rule:evenodd;"
points="25221,34122
25221,34122
25221,34122
25252,34134
25305,34156
25381,34207
25445,34272
25496,34347
25531,34431
25549,34521
25549,34612
25531,34701
25496,34786
25445,34861
25381,34926
25305,34976
25257,34996
25221,35011
25221,35011
25221,35011
25132,35029
25041,35029
24951,35011
24951,35011
24951,35011
24915,34996
24867,34976
24791,34926
24727,34861
24676,34786
24641,34701
24624,34612
24624,34521
24641,34431
24676,34347
24727,34272
24791,34207
24867,34156
24920,34134
24951,34122
24951,34122
24951,34122
25041,34104
25132,34104
25221,34122
" /> 
<polyline style="fill-rule:evenodd;"
points="19190,34122
19190,34122
19190,34122
19221,34134
19274,34156
19350,34207
19414,34272
19465,34347
19499,34431
19517,34521
19517,34612
19499,34701
19465,34786
19414,34861
19350,34926
19274,34976
19226,34996
19190,35011
19190,35011
19190,35011
19100,35029
19009,35029
18920,35011
18920,35011
18920,35011
18884,34996
18835,34976
18760,34926
18695,34861
18645,34786
18610,34701
18592,34612
18592,34521
18610,34431
18645,34347
18695,34272
18760,34207
18835,34156
18889,34134
18920,34122
18920,34122
18920,34122
19009,34104
19100,34104
19190,34122
" /> 
<polyline style="fill-rule:evenodd;"
points="15196,32973
14409,32973
14409,32223
15196,32223
15196,32973
" /> 
<polyline style="fill-rule:evenodd;"
points="19146,32295
19204,32319
19255,32353
19299,32397
19334,32449
19357,32506
19370,32567
19370,32629
19357,32690
19334,32747
19299,32799
19255,32843
19204,32877
19146,32901
19086,32913
19024,32913
18963,32901
18905,32877
18854,32843
18810,32799
18776,32747
18752,32690
18740,32629
18740,32567
18752,32506
18776,32449
18810,32397
18854,32353
18905,32319
18963,32295
19024,32283
19086,32283
19146,32295
" /> 
<polyline style="fill-rule:evenodd;"
points="21115,32295
21172,32319
21224,32353
21268,32397
21302,32449
21326,32506
21338,32567
21338,32629
21326,32690
21302,32747
21268,32799
21224,32843
21172,32877
21115,32901
21054,32913
20992,32913
20931,32901
20874,32877
20822,32843
20778,32799
20744,32747
20720,32690
20708,32629
20708,32567
20720,32506
20744,32449
20778,32397
20822,32353
20874,32319
20931,32295
20992,32283
21054,32283
21115,32295
" /> 
<polyline style="fill-rule:evenodd;"
points="26542,32034
26584,32051
26621,32076
26653,32108
26678,32145
26695,32187
26704,32231
26704,32276
26695,32320
26678,32362
26653,32399
26621,32431
26584,32456
26542,32473
26498,32482
26453,32482
26409,32473
26368,32456
26330,32431
26299,32399
26274,32362
26256,32320
26248,32276
26248,32231
26256,32187
26274,32145
26299,32108
26330,32076
26368,32051
26409,32034
26453,32025
26498,32025
26542,32034
" /> 
<polyline style="fill-rule:evenodd;"
points="28550,32034
28592,32051
28629,32076
28661,32108
28686,32145
28703,32187
28712,32231
28712,32276
28703,32320
28686,32362
28661,32399
28629,32431
28592,32456
28550,32473
28506,32482
28461,32482
28417,32473
28376,32456
28338,32431
28306,32399
28281,32362
28264,32320
28255,32276
28255,32231
28264,32187
28281,32145
28306,32108
28338,32076
28376,32051
28417,32034
28461,32025
28506,32025
28550,32034
" /> 
<polyline style="fill-rule:evenodd;"
points="14895,31228
14966,31250
15031,31285
15088,31331
15135,31389
15169,31454
15191,31524
15198,31598
15191,31671
15169,31742
15135,31807
15088,31864
15031,31911
14966,31946
14895,31967
14840,31973
14766,31973
14710,31967
14640,31946
14575,31911
14518,31864
14471,31807
14436,31742
14414,31671
14407,31598
14414,31524
14436,31454
14471,31389
14518,31331
14575,31285
14640,31250
14710,31228
14766,31223
14840,31223
14895,31228
" /> 
<polyline style="fill-rule:evenodd;"
points="38512,30961
38590,30994
38661,31041
38722,31101
38722,31101
38722,31101
38750,31144
38769,31172
38802,31251
38818,31335
38818,31420
38802,31504
38769,31583
38722,31654
38661,31714
38590,31761
38512,31794
38428,31811
38343,31811
38259,31794
38180,31761
38109,31714
38049,31654
38002,31583
37969,31504
37952,31420
37952,31335
37969,31251
38002,31172
38021,31144
38049,31101
38049,31101
38049,31101
38109,31041
38180,30994
38259,30961
38343,30944
38428,30944
38512,30961
" /> 
<polyline style="fill-rule:evenodd;"
points="40480,30961
40559,30994
40630,31041
40690,31101
40690,31101
40690,31101
40718,31144
40738,31172
40770,31251
40787,31335
40787,31420
40770,31504
40738,31583
40690,31654
40630,31714
40559,31761
40480,31794
40396,31811
40311,31811
40228,31794
40149,31761
40078,31714
40017,31654
39970,31583
39937,31504
39921,31420
39921,31335
39937,31251
39970,31172
39989,31144
40017,31101
40017,31101
40017,31101
40078,31041
40149,30994
40228,30961
40311,30944
40396,30944
40480,30961
" /> 
<polyline style="fill-rule:evenodd;"
points="19406,30109
19418,30113
19429,30119
19439,30127
19447,30137
19453,30148
19457,30160
19458,30176
19458,31083
19457,31098
19453,31111
19447,31122
19439,31132
19429,31140
19418,31146
19406,31150
19390,31151
18926,31151
18910,31150
18898,31146
18887,31140
18877,31132
18869,31122
18863,31111
18859,31098
18858,31083
18858,30176
18859,30160
18863,30148
18869,30137
18877,30127
18887,30119
18898,30113
18910,30109
18926,30108
19390,30108
19406,30109
" /> 
<polyline style="fill-rule:evenodd;"
points="21246,30109
21258,30113
21270,30119
21279,30127
21288,30137
21294,30148
21297,30160
21299,30176
21299,31083
21297,31098
21294,31111
21288,31122
21279,31132
21270,31140
21258,31146
21246,31150
21231,31151
20766,31151
20751,31150
20739,31146
20727,31140
20718,31132
20710,31122
20704,31111
20700,31098
20698,31083
20698,30176
20700,30160
20704,30148
20710,30137
20718,30127
20727,30119
20739,30113
20751,30109
20766,30108
21231,30108
21246,30109
" /> 
<polyline style="fill-rule:evenodd;"
points="14895,30228
14966,30250
15031,30285
15088,30331
15135,30389
15169,30454
15191,30524
15198,30598
15191,30671
15169,30742
15135,30807
15088,30864
15031,30911
14966,30946
14895,30967
14840,30973
14766,30973
14710,30967
14640,30946
14575,30911
14518,30864
14471,30807
14436,30742
14414,30671
14407,30598
14414,30524
14436,30454
14471,30389
14518,30331
14575,30285
14640,30250
14710,30228
14766,30223
14840,30223
14895,30228
" /> 
<polyline style="fill-rule:evenodd;"
points="25015,29834
25027,29837
25039,29844
25049,29852
25057,29862
25063,29873
25067,29886
25068,29901
25068,30324
25067,30340
25063,30352
25057,30364
25049,30374
25039,30382
25027,30388
25015,30392
25000,30393
24448,30393
24433,30392
24421,30388
24409,30382
24399,30374
24391,30364
24385,30352
24381,30340
24379,30324
24379,29901
24381,29886
24385,29873
24391,29862
24399,29852
24409,29844
24421,29837
24433,29834
24448,29832
25000,29832
25015,29834
" /> 
<polyline style="fill-rule:evenodd;"
points="21285,28633
21297,28637
21308,28643
21318,28651
21327,28661
21333,28673
21337,28685
21338,28700
21338,29251
21337,29267
21333,29279
21327,29291
21318,29301
21308,29309
21297,29315
21285,29319
21269,29320
20846,29320
20831,29319
20818,29315
20807,29309
20797,29301
20788,29291
20782,29279
20779,29267
20777,29251
20777,28700
20779,28685
20782,28673
20788,28661
20797,28651
20807,28643
20818,28637
20831,28633
20846,28631
21269,28631
21285,28633
" /> 
<polyline style="fill-rule:evenodd;"
points="20113,28633
20126,28637
20137,28643
20147,28651
20155,28661
20162,28673
20165,28685
20167,28700
20167,29251
20165,29267
20162,29279
20155,29291
20147,29301
20137,29309
20126,29315
20113,29319
20098,29320
19675,29320
19659,29319
19647,29315
19635,29309
19625,29301
19617,29291
19611,29279
19607,29267
19606,29251
19606,28700
19607,28685
19611,28673
19617,28661
19625,28651
19635,28643
19647,28637
19659,28633
19675,28631
20098,28631
20113,28633
" /> 
<polyline style="fill-rule:evenodd;"
points="28712,29234
28255,29234
28255,28777
28712,28777
28712,29234
" /> 
<polyline style="fill-rule:evenodd;"
points="26542,28786
26584,28803
26621,28828
26653,28860
26678,28897
26695,28939
26704,28983
26704,29028
26695,29072
26678,29114
26653,29151
26621,29183
26584,29208
26542,29225
26498,29234
26453,29234
26409,29225
26368,29208
26330,29183
26299,29151
26274,29114
26256,29072
26248,29028
26248,28983
26256,28939
26274,28897
26299,28860
26330,28828
26368,28803
26409,28786
26453,28777
26498,28777
26542,28786
" /> 
<polyline style="fill-rule:evenodd;"
points="25015,28662
25027,28666
25039,28672
25049,28681
25057,28691
25063,28702
25067,28714
25068,28730
25068,29153
25067,29168
25063,29181
25057,29192
25049,29202
25039,29211
25027,29217
25015,29220
25000,29222
24448,29222
24433,29220
24421,29217
24409,29211
24399,29202
24391,29192
24385,29181
24381,29168
24379,29153
24379,28730
24381,28714
24385,28702
24391,28691
24399,28681
24409,28672
24421,28666
24433,28662
24448,28661
25000,28661
25015,28662
" /> 
<polyline style="fill-rule:evenodd;"
points="12431,27570
12463,27577
12554,27614
12635,27668
12635,27669
12704,27738
12704,27738
12759,27819
12796,27910
12815,28006
12815,28104
12796,28200
12759,28290
12705,28371
12704,28371
12635,28441
12635,28441
12554,28495
12463,28532
12431,28539
12367,28551
12269,28551
12205,28539
12173,28532
12083,28495
12002,28441
12002,28441
11932,28371
11932,28371
11878,28290
11841,28200
11822,28104
11822,28006
11841,27910
11878,27819
11932,27738
11932,27738
12002,27669
12002,27668
12083,27614
12173,27577
12205,27570
12269,27558
12367,27558
12431,27570
" /> 
<polyline style="fill-rule:evenodd;"
points="21148,26782
21164,26784
21193,26793
21223,26802
21278,26831
21326,26870
21365,26918
21394,26973
21412,27032
21418,27094
21412,27156
21394,27215
21365,27270
21326,27318
21278,27357
21223,27386
21193,27395
21164,27404
21148,27406
21117,27409
21086,27409
21056,27406
21040,27404
21010,27395
20981,27386
20926,27357
20878,27318
20839,27270
20809,27215
20791,27156
20785,27094
20791,27032
20809,26973
20839,26918
20878,26870
20926,26831
20981,26802
21010,26793
21040,26784
21056,26782
21086,26779
21117,26779
21148,26782
" /> 
<polyline style="fill-rule:evenodd;"
points="19148,26782
19164,26784
19193,26793
19223,26802
19278,26831
19326,26870
19365,26918
19394,26973
19412,27032
19418,27094
19412,27156
19394,27215
19365,27270
19326,27318
19278,27357
19223,27386
19193,27395
19164,27404
19148,27406
19117,27409
19086,27409
19056,27406
19040,27404
19010,27395
18981,27386
18926,27357
18878,27318
18839,27270
18809,27215
18791,27156
18785,27094
18791,27032
18809,26973
18839,26918
18878,26870
18926,26831
18981,26802
19010,26793
19040,26784
19056,26782
19086,26779
19117,26779
19148,26782
" /> 
<polyline style="fill-rule:evenodd;"
points="20148,26782
20164,26784
20193,26793
20223,26802
20278,26831
20326,26870
20365,26918
20394,26973
20412,27032
20418,27094
20412,27156
20394,27215
20365,27270
20326,27318
20278,27357
20223,27386
20193,27395
20164,27404
20148,27406
20117,27409
20086,27409
20056,27406
20040,27404
20010,27395
19981,27386
19926,27357
19878,27318
19839,27270
19809,27215
19791,27156
19785,27094
19791,27032
19809,26973
19839,26918
19878,26870
19926,26831
19981,26802
20010,26793
20040,26784
20056,26782
20086,26779
20117,26779
20148,26782
" /> 
<polyline style="fill-rule:evenodd;"
points="25039,27401
24409,27401
24409,26771
25039,26771
25039,27401
" /> 
<polyline style="fill-rule:evenodd;"
points="25770,26774
25786,26776
25797,26779
25845,26794
25900,26823
25948,26862
25987,26910
26016,26965
26034,27024
26040,27086
26034,27148
26016,27207
25987,27262
25948,27310
25900,27349
25845,27379
25819,27386
25786,27397
25770,27398
25739,27401
25708,27401
25678,27398
25662,27397
25629,27386
25603,27379
25548,27349
25500,27310
25461,27262
25432,27207
25414,27148
25407,27086
25414,27024
25432,26965
25461,26910
25500,26862
25548,26823
25603,26794
25651,26779
25662,26776
25678,26774
25708,26771
25739,26771
25770,26774
" /> 
<polyline style="fill-rule:evenodd;"
points="20148,23782
20164,23784
20193,23793
20223,23802
20278,23831
20326,23870
20365,23918
20394,23973
20412,24032
20418,24094
20412,24156
20394,24215
20365,24270
20326,24318
20278,24357
20223,24386
20193,24395
20164,24404
20148,24406
20117,24409
20086,24409
20056,24406
20040,24404
20010,24395
19981,24386
19926,24357
19878,24318
19839,24270
19809,24215
19791,24156
19785,24094
19791,24032
19809,23973
19839,23918
19878,23870
19926,23831
19981,23802
20010,23793
20040,23784
20056,23782
20086,23779
20117,23779
20148,23782
" /> 
<polyline style="fill-rule:evenodd;"
points="21417,24409
20787,24409
20787,23779
21417,23779
21417,24409
" /> 
<polyline style="fill-rule:evenodd;"
points="19148,23782
19164,23784
19193,23793
19223,23802
19278,23831
19326,23870
19365,23918
19394,23973
19412,24032
19418,24094
19412,24156
19394,24215
19365,24270
19326,24318
19278,24357
19223,24386
19193,24395
19164,24404
19148,24406
19117,24409
19086,24409
19056,24406
19040,24404
19010,24395
18981,24386
18926,24357
18878,24318
18839,24270
18809,24215
18791,24156
18785,24094
18791,24032
18809,23973
18839,23918
18878,23870
18926,23831
18981,23802
19010,23793
19040,23784
19056,23782
19086,23779
19117,23779
19148,23782
" /> 
<polyline style="fill-rule:evenodd;"
points="24770,23774
24786,23776
24797,23779
24845,23794
24900,23823
24948,23862
24987,23910
25016,23965
25034,24024
25040,24086
25034,24148
25016,24207
24987,24262
24948,24310
24900,24349
24845,24379
24819,24386
24786,24397
24770,24398
24739,24401
24708,24401
24678,24398
24662,24397
24629,24386
24603,24379
24548,24349
24500,24310
24461,24262
24432,24207
24414,24148
24407,24086
24414,24024
24432,23965
24461,23910
24500,23862
24548,23823
24603,23794
24651,23779
24662,23776
24678,23774
24708,23771
24739,23771
24770,23774
" /> 
<polyline style="fill-rule:evenodd;"
points="25770,23774
25786,23776
25797,23779
25845,23794
25900,23823
25948,23862
25987,23910
26016,23965
26034,24024
26040,24086
26034,24148
26016,24207
25987,24262
25948,24310
25900,24349
25845,24379
25819,24386
25786,24397
25770,24398
25739,24401
25708,24401
25678,24398
25662,24397
25629,24386
25603,24379
25548,24349
25500,24310
25461,24262
25432,24207
25414,24148
25407,24086
25414,24024
25432,23965
25461,23910
25500,23862
25548,23823
25603,23794
25651,23779
25662,23776
25678,23774
25708,23771
25739,23771
25770,23774
" /> 
<polyline style="fill-rule:evenodd;"
points="21540,22432
21553,22436
21564,22442
21574,22450
21583,22460
21589,22472
21592,22484
21594,22499
21594,22923
21592,22938
21589,22950
21583,22962
21574,22972
21564,22980
21553,22986
21540,22990
21525,22992
20974,22992
20959,22990
20946,22986
20935,22980
20925,22972
20916,22962
20910,22950
20907,22938
20905,22923
20905,22499
20907,22484
20910,22472
20916,22460
20925,22450
20935,22442
20946,22436
20959,22432
20974,22431
21525,22431
21540,22432
" /> 
<polyline style="fill-rule:evenodd;"
points="19290,22432
19303,22436
19314,22442
19324,22450
19333,22460
19339,22472
19342,22484
19344,22499
19344,22923
19342,22938
19339,22950
19333,22962
19324,22972
19314,22980
19303,22986
19290,22990
19275,22992
18724,22992
18709,22990
18696,22986
18685,22980
18675,22972
18666,22962
18660,22950
18657,22938
18655,22923
18655,22499
18657,22484
18660,22472
18666,22460
18675,22450
18685,22442
18696,22436
18709,22432
18724,22431
19275,22431
19290,22432
" /> 
<polyline style="fill-rule:evenodd;"
points="20393,22432
20405,22436
20417,22442
20427,22450
20435,22460
20441,22472
20445,22484
20446,22499
20446,22923
20445,22938
20441,22950
20435,22962
20427,22972
20417,22980
20405,22986
20393,22990
20377,22992
19826,22992
19811,22990
19799,22986
19787,22980
19777,22972
19769,22962
19763,22950
19759,22938
19757,22923
19757,22499
19759,22484
19763,22472
19769,22460
19777,22450
19787,22442
19799,22436
19811,22432
19826,22431
20377,22431
20393,22432
" /> 
<polyline style="fill-rule:evenodd;"
points="16683,22092
16729,22101
16800,22131
16865,22174
16919,22229
16963,22293
16992,22365
17001,22411
17007,22438
17007,22441
17007,22519
16992,22595
16963,22666
16919,22731
16865,22786
16800,22829
16729,22858
16683,22867
16652,22874
16575,22874
16544,22867
16499,22858
16427,22829
16363,22786
16308,22731
16265,22666
16235,22595
16220,22519
16220,22441
16221,22438
16226,22411
16235,22365
16265,22293
16308,22229
16363,22174
16427,22131
16499,22101
16544,22092
16575,22086
16652,22086
16683,22092
" /> 
<polyline style="fill-rule:evenodd;"
points="14911,22092
14957,22101
15029,22131
15093,22174
15148,22229
15191,22293
15221,22365
15230,22411
15235,22438
15236,22441
15236,22519
15221,22595
15191,22666
15148,22731
15093,22786
15029,22829
14957,22858
14911,22867
14881,22874
14803,22874
14773,22867
14727,22858
14656,22829
14591,22786
14536,22731
14493,22666
14463,22595
14448,22519
14448,22441
14449,22438
14454,22411
14463,22365
14493,22293
14536,22229
14591,22174
14656,22131
14727,22101
14773,22092
14803,22086
14881,22086
14911,22092
" /> 
<polyline style="fill-rule:evenodd;"
points="24986,22677
24513,22677
24513,22204
24986,22204
24986,22677
" /> 
<polyline style="fill-rule:evenodd;"
points="12637,22519
12244,22519
12244,21929
12637,21929
12637,22519
" /> 
<polyline style="fill-rule:evenodd;"
points="11377,22519
10984,22519
10984,21929
11377,21929
11377,22519
" /> 
<polyline style="fill-rule:evenodd;"
points="24818,21623
24861,21641
24900,21666
24933,21699
24959,21738
24977,21781
24986,21827
24986,21873
24977,21919
24959,21962
24933,22000
24900,22033
24861,22059
24818,22077
24773,22086
24726,22086
24681,22077
24638,22059
24599,22033
24566,22000
24540,21962
24522,21919
24513,21873
24513,21827
24522,21781
24540,21738
24566,21699
24599,21666
24638,21641
24681,21623
24726,21614
24773,21614
24818,21623
" /> 
<polyline style="fill-rule:evenodd;"
points="19290,21261
19303,21265
19314,21271
19324,21279
19333,21289
19339,21300
19342,21313
19344,21328
19344,21751
19342,21767
19339,21779
19333,21791
19324,21801
19314,21809
19303,21815
19290,21819
19275,21820
18724,21820
18709,21819
18696,21815
18685,21809
18675,21801
18666,21791
18660,21779
18657,21767
18655,21751
18655,21328
18657,21313
18660,21300
18666,21289
18675,21279
18685,21271
18696,21265
18709,21261
18724,21259
19275,21259
19290,21261
" /> 
<polyline style="fill-rule:evenodd;"
points="20393,21261
20405,21265
20417,21271
20427,21279
20435,21289
20441,21300
20445,21313
20446,21328
20446,21751
20445,21767
20441,21779
20435,21791
20427,21801
20417,21809
20405,21815
20393,21819
20377,21820
19826,21820
19811,21819
19799,21815
19787,21809
19777,21801
19769,21791
19763,21779
19759,21767
19757,21751
19757,21328
19759,21313
19763,21300
19769,21289
19777,21279
19787,21271
19799,21265
19811,21261
19826,21259
20377,21259
20393,21261
" /> 
<polyline style="fill-rule:evenodd;"
points="21540,21261
21553,21265
21564,21271
21574,21279
21583,21289
21589,21300
21592,21313
21594,21328
21594,21751
21592,21767
21589,21779
21583,21791
21574,21801
21564,21809
21553,21815
21540,21819
21525,21820
20974,21820
20959,21819
20946,21815
20935,21809
20925,21801
20916,21791
20910,21779
20907,21767
20905,21751
20905,21328
20907,21313
20910,21300
20916,21289
20925,21279
20935,21271
20946,21265
20959,21261
20974,21259
21525,21259
21540,21261
" /> 
<polyline style="fill-rule:evenodd;"
points="11377,20590
10984,20590
10984,20000
11377,20000
11377,20590
" /> 
<polyline style="fill-rule:evenodd;"
points="12637,20590
12244,20590
12244,20000
12637,20000
12637,20590
" /> 
<polyline style="fill-rule:evenodd;"
points="16683,19533
16729,19542
16800,19572
16865,19615
16919,19670
16963,19734
16992,19806
17007,19882
17007,19960
16992,20036
16963,20107
16919,20172
16865,20227
16800,20270
16729,20299
16683,20308
16652,20314
16575,20314
16544,20308
16499,20299
16427,20270
16363,20227
16308,20172
16265,20107
16235,20036
16220,19960
16220,19882
16235,19806
16265,19734
16308,19670
16363,19615
16427,19572
16499,19542
16544,19533
16575,19527
16652,19527
16683,19533
" /> 
<polyline style="fill-rule:evenodd;"
points="14911,19533
14957,19542
15029,19572
15093,19615
15148,19670
15191,19734
15221,19806
15236,19882
15236,19960
15221,20036
15191,20107
15148,20172
15093,20227
15029,20270
14957,20299
14911,20308
14881,20314
14803,20314
14773,20308
14727,20299
14656,20270
14591,20227
14536,20172
14493,20107
14463,20036
14448,19960
14448,19882
14463,19806
14493,19734
14536,19670
14591,19615
14656,19572
14727,19542
14773,19533
14803,19527
14881,19527
14911,19533
" /> 
<polyline style="fill-rule:evenodd;"
points="42527,19386
42606,19419
42677,19466
42737,19527
42785,19598
42818,19676
42834,19760
42834,19845
42818,19929
42785,20008
42737,20079
42677,20139
42677,20139
42677,20139
42606,20186
42606,20186
42527,20219
42444,20236
42358,20236
42275,20219
42196,20186
42196,20186
42125,20139
42125,20139
42125,20139
42065,20079
42017,20008
41985,19929
41968,19845
41968,19760
41985,19676
42017,19598
42065,19527
42125,19466
42196,19419
42275,19386
42358,19370
42444,19370
42527,19386
" /> 
<polyline style="fill-rule:evenodd;"
points="36464,19386
36543,19419
36614,19466
36674,19527
36722,19598
36755,19676
36771,19760
36771,19845
36755,19929
36722,20008
36674,20079
36614,20139
36614,20139
36614,20139
36543,20186
36543,20186
36464,20219
36381,20236
36295,20236
36212,20219
36133,20186
36133,20186
36062,20139
36062,20139
36062,20139
36002,20079
35954,20008
35922,19929
35905,19845
35905,19760
35922,19676
35954,19598
36002,19527
36062,19466
36133,19419
36212,19386
36295,19370
36381,19370
36464,19386
" /> 
<polyline style="fill-rule:evenodd;"
points="22193,17151
22258,17178
22316,17216
22365,17266
22404,17324
22431,17388
22444,17457
22444,17527
22431,17595
22404,17659
22365,17718
22316,17767
22258,17806
22193,17832
22125,17846
22055,17846
21987,17832
21922,17806
21864,17767
21815,17718
21776,17659
21749,17595
21736,17527
21736,17457
21749,17388
21776,17324
21815,17266
21864,17216
21922,17178
21987,17151
22055,17137
22125,17137
22193,17151
" /> 
<polyline style="fill-rule:evenodd;"
points="26193,17151
26258,17178
26316,17216
26365,17266
26404,17324
26431,17388
26444,17457
26444,17527
26431,17595
26404,17659
26365,17718
26316,17767
26258,17806
26193,17832
26125,17846
26055,17846
25987,17832
25922,17806
25864,17767
25815,17718
25776,17659
25749,17595
25736,17527
25736,17457
25749,17388
25776,17324
25815,17266
25864,17216
25922,17178
25987,17151
26055,17137
26125,17137
26193,17151
" /> 
<polyline style="fill-rule:evenodd;"
points="28193,17151
28258,17178
28316,17216
28365,17266
28404,17324
28431,17388
28444,17457
28444,17527
28431,17595
28404,17659
28365,17718
28316,17767
28258,17806
28193,17832
28125,17846
28055,17846
27987,17832
27922,17806
27864,17767
27815,17718
27776,17659
27749,17595
27736,17527
27736,17457
27749,17388
27776,17324
27815,17266
27864,17216
27922,17178
27987,17151
28055,17137
28125,17137
28193,17151
" /> 
<polyline style="fill-rule:evenodd;"
points="25193,17151
25258,17178
25316,17216
25365,17266
25404,17324
25431,17388
25444,17457
25444,17527
25431,17595
25404,17659
25365,17718
25316,17767
25258,17806
25193,17832
25125,17846
25055,17846
24987,17832
24922,17806
24864,17767
24815,17718
24776,17659
24749,17595
24736,17527
24736,17457
24749,17388
24776,17324
24815,17266
24864,17216
24922,17178
24987,17151
25055,17137
25125,17137
25193,17151
" /> 
<polyline style="fill-rule:evenodd;"
points="24193,17151
24258,17178
24316,17216
24365,17266
24404,17324
24431,17388
24444,17457
24444,17527
24431,17595
24404,17659
24365,17718
24316,17767
24258,17806
24193,17832
24125,17846
24055,17846
23987,17832
23922,17806
23864,17767
23815,17718
23776,17659
23749,17595
23736,17527
23736,17457
23749,17388
23776,17324
23815,17266
23864,17216
23922,17178
23987,17151
24055,17137
24125,17137
24193,17151
" /> 
<polyline style="fill-rule:evenodd;"
points="23193,17151
23258,17178
23316,17216
23365,17266
23404,17324
23431,17388
23444,17457
23444,17527
23431,17595
23404,17659
23365,17718
23316,17767
23258,17806
23193,17832
23125,17846
23055,17846
22987,17832
22922,17806
22864,17767
22815,17718
22776,17659
22749,17595
22736,17527
22736,17457
22749,17388
22776,17324
22815,17266
22864,17216
22922,17178
22987,17151
23055,17137
23125,17137
23193,17151
" /> 
<polyline style="fill-rule:evenodd;"
points="29193,17151
29258,17178
29316,17216
29365,17266
29404,17324
29431,17388
29444,17457
29444,17527
29431,17595
29404,17659
29365,17718
29316,17767
29258,17806
29193,17832
29125,17846
29055,17846
28987,17832
28922,17806
28864,17767
28815,17718
28776,17659
28749,17595
28736,17527
28736,17457
28749,17388
28776,17324
28815,17266
28864,17216
28922,17178
28987,17151
29055,17137
29125,17137
29193,17151
" /> 
<polyline style="fill-rule:evenodd;"
points="27193,17151
27258,17178
27316,17216
27365,17266
27404,17324
27431,17388
27444,17457
27444,17527
27431,17595
27404,17659
27365,17718
27316,17767
27258,17806
27193,17832
27125,17846
27055,17846
26987,17832
26922,17806
26864,17767
26815,17718
26776,17659
26749,17595
26736,17527
26736,17457
26749,17388
26776,17324
26815,17266
26864,17216
26922,17178
26987,17151
27055,17137
27125,17137
27193,17151
" /> 
<polyline style="fill-rule:evenodd;"
points="36950,14929
36963,14933
36974,14939
36984,14947
36992,14958
36998,14969
37002,14981
37004,14997
37004,15548
37002,15563
36998,15576
36992,15587
36984,15597
36974,15605
36963,15612
36950,15615
36935,15617
36512,15617
36496,15615
36484,15612
36472,15605
36462,15597
36454,15587
36448,15576
36444,15563
36443,15548
36443,14997
36444,14981
36448,14969
36454,14958
36462,14947
36472,14939
36484,14933
36496,14929
36512,14928
36935,14928
36950,14929
" /> 
<polyline style="fill-rule:evenodd;"
points="35779,14929
35791,14933
35803,14939
35813,14947
35821,14958
35827,14969
35831,14981
35833,14997
35833,15548
35831,15563
35827,15576
35821,15587
35813,15597
35803,15605
35791,15612
35779,15615
35764,15617
35340,15617
35325,15615
35313,15612
35301,15605
35291,15597
35283,15587
35277,15576
35273,15563
35271,15548
35271,14997
35273,14981
35277,14969
35283,14958
35291,14947
35301,14939
35313,14933
35325,14929
35340,14928
35764,14928
35779,14929
" /> 
<polyline style="fill-rule:evenodd;"
points="36233,13555
36290,13579
36342,13613
36386,13657
36420,13709
36444,13766
36456,13827
36456,13889
36444,13950
36420,14007
36386,14059
36342,14102
36290,14137
36233,14161
36172,14173
36110,14173
36049,14161
35992,14137
35940,14102
35897,14059
35862,14007
35838,13950
35826,13889
35826,13827
35838,13766
35862,13709
35897,13657
35940,13613
35992,13579
36049,13555
36110,13543
36172,13543
36233,13555
" /> 
<polyline style="fill-rule:evenodd;"
points="36233,12374
36290,12398
36342,12432
36386,12476
36420,12527
36444,12585
36456,12646
36456,12708
36444,12769
36420,12826
36386,12877
36342,12921
36290,12956
36233,12980
36172,12992
36110,12992
36049,12980
35992,12956
35940,12921
35897,12877
35862,12826
35838,12769
35826,12708
35826,12646
35838,12585
35862,12527
35897,12476
35940,12432
35992,12398
36049,12374
36110,12362
36172,12362
36233,12374
" /> 
<polyline style="fill-rule:evenodd;"
points="22193,8151
22258,8178
22316,8216
22365,8266
22404,8324
22431,8388
22444,8457
22444,8527
22431,8595
22404,8659
22365,8718
22316,8767
22258,8806
22193,8832
22125,8846
22055,8846
21987,8832
21922,8806
21864,8767
21815,8718
21776,8659
21749,8595
21736,8527
21736,8457
21749,8388
21776,8324
21815,8266
21864,8216
21922,8178
21987,8151
22055,8137
22125,8137
22193,8151
" /> 
<polyline style="fill-rule:evenodd;"
points="28193,8151
28258,8178
28316,8216
28365,8266
28404,8324
28431,8388
28444,8457
28444,8527
28431,8595
28404,8659
28365,8718
28316,8767
28258,8806
28193,8832
28125,8846
28055,8846
27987,8832
27922,8806
27864,8767
27815,8718
27776,8659
27749,8595
27736,8527
27736,8457
27749,8388
27776,8324
27815,8266
27864,8216
27922,8178
27987,8151
28055,8137
28125,8137
28193,8151
" /> 
<polyline style="fill-rule:evenodd;"
points="27193,8151
27258,8178
27316,8216
27365,8266
27404,8324
27431,8388
27444,8457
27444,8527
27431,8595
27404,8659
27365,8718
27316,8767
27258,8806
27193,8832
27125,8846
27055,8846
26987,8832
26922,8806
26864,8767
26815,8718
26776,8659
26749,8595
26736,8527
26736,8457
26749,8388
26776,8324
26815,8266
26864,8216
26922,8178
26987,8151
27055,8137
27125,8137
27193,8151
" /> 
<polyline style="fill-rule:evenodd;"
points="26193,8151
26258,8178
26316,8216
26365,8266
26404,8324
26431,8388
26444,8457
26444,8527
26431,8595
26404,8659
26365,8718
26316,8767
26258,8806
26193,8832
26125,8846
26055,8846
25987,8832
25922,8806
25864,8767
25815,8718
25776,8659
25749,8595
25736,8527
25736,8457
25749,8388
25776,8324
25815,8266
25864,8216
25922,8178
25987,8151
26055,8137
26125,8137
26193,8151
" /> 
<polyline style="fill-rule:evenodd;"
points="25193,8151
25258,8178
25316,8216
25365,8266
25404,8324
25431,8388
25444,8457
25444,8527
25431,8595
25404,8659
25365,8718
25316,8767
25258,8806
25193,8832
25125,8846
25055,8846
24987,8832
24922,8806
24864,8767
24815,8718
24776,8659
24749,8595
24736,8527
24736,8457
24749,8388
24776,8324
24815,8266
24864,8216
24922,8178
24987,8151
25055,8137
25125,8137
25193,8151
" /> 
<polyline style="fill-rule:evenodd;"
points="24193,8151
24258,8178
24316,8216
24365,8266
24404,8324
24431,8388
24444,8457
24444,8527
24431,8595
24404,8659
24365,8718
24316,8767
24258,8806
24193,8832
24125,8846
24055,8846
23987,8832
23922,8806
23864,8767
23815,8718
23776,8659
23749,8595
23736,8527
23736,8457
23749,8388
23776,8324
23815,8266
23864,8216
23922,8178
23987,8151
24055,8137
24125,8137
24193,8151
" /> 
<polyline style="fill-rule:evenodd;"
points="23193,8151
23258,8178
23316,8216
23365,8266
23404,8324
23431,8388
23444,8457
23444,8527
23431,8595
23404,8659
23365,8718
23316,8767
23258,8806
23193,8832
23125,8846
23055,8846
22987,8832
22922,8806
22864,8767
22815,8718
22776,8659
22749,8595
22736,8527
22736,8457
22749,8388
22776,8324
22815,8266
22864,8216
22922,8178
22987,8151
23055,8137
23125,8137
23193,8151
" /> 
<polyline style="fill-rule:evenodd;"
points="29193,8151
29258,8178
29316,8216
29365,8266
29404,8324
29431,8388
29444,8457
29444,8527
29431,8595
29404,8659
29365,8718
29316,8767
29258,8806
29193,8832
29125,8846
29055,8846
28987,8832
28922,8806
28864,8767
28815,8718
28776,8659
28749,8595
28736,8527
28736,8457
28749,8388
28776,8324
28815,8266
28864,8216
28922,8178
28987,8151
29055,8137
29125,8137
29193,8151
" /> 
</g> 
</svg>
