<?xml version="1.0" standalone="no"?>
 <!DOCTYPE svg PUBLIC "-//W3C//DTD SVG 1.1//EN" 
 "http://www.w3.org/Graphics/SVG/1.1/DTD/svg11.dtd"> 
<svg xmlns="http://www.w3.org/2000/svg" version="1.1" 
    width="12.9997cm" height="18.001cm" viewBox="0 0 51180 70870 ">
<title>SVG Picture created as mains-light-controller-B.Mask.svg date 2019/06/14 16:48:34 </title>
  <desc>Picture generated by PCBNEW </desc>
<g style="fill:#000000; fill-opacity:1;stroke:#000000; stroke-opacity:1;
stroke-linecap:round; stroke-linejoin:round; "
 transform="translate(0 0) scale(1 1)">
</g>
<g style="fill:#000000; fill-opacity:0.0; 
stroke:#000000; stroke-width:-0.000393701; stroke-opacity:1; 
stroke-linecap:round; stroke-linejoin:round;">
</g>
<g style="fill:#000000; fill-opacity:0.0; 
stroke:#000000; stroke-width:39.3701; stroke-opacity:1; 
stroke-linecap:round; stroke-linejoin:round;">
</g>
<g style="fill:#000000; fill-opacity:0.0; 
stroke:#000000; stroke-width:59.0551; stroke-opacity:1; 
stroke-linecap:round; stroke-linejoin:round;">
<rect x="3935.91" y="53547.2" width="42519.7" height="12598.4" rx="0" />
</g>
<g style="fill:#000000; fill-opacity:0.0; 
stroke:#000000; stroke-width:39.3701; stroke-opacity:1; 
stroke-linecap:round; stroke-linejoin:round;">
</g>
<g style="fill:#000000; fill-opacity:0.0; 
stroke:#000000; stroke-width:59.0551; stroke-opacity:1; 
stroke-linecap:round; stroke-linejoin:round;">
<rect x="3937.01" y="3937.01" width="43306" height="62996" rx="0" />
</g>
<g style="fill:#000000; fill-opacity:0.0; 
stroke:#000000; stroke-width:39.3701; stroke-opacity:1; 
stroke-linecap:round; stroke-linejoin:round;">
</g>
<g style="fill:#000000; fill-opacity:0.0; 
stroke:#000000; stroke-width:59.0551; stroke-opacity:1; 
stroke-linecap:round; stroke-linejoin:round;">
<rect x="4724.41" y="4724.41" width="41731.2" height="61421.2" rx="0" />
</g>
<g style="fill:#000000; fill-opacity:0.0; 
stroke:#000000; stroke-width:39.3701; stroke-opacity:1; 
stroke-linecap:round; stroke-linejoin:round;">
</g>
<g style="fill:#000000; fill-opacity:0.0; 
stroke:#000000; stroke-width:59.0551; stroke-opacity:1; 
stroke-linecap:round; stroke-linejoin:round;">
<path d="M23622 4724
L23622 3937
" />
</g>
<g style="fill:#000000; fill-opacity:0.0; 
stroke:#000000; stroke-width:39.3701; stroke-opacity:1; 
stroke-linecap:round; stroke-linejoin:round;">
</g>
<g style="fill:#000000; fill-opacity:0.0; 
stroke:#000000; stroke-width:59.0551; stroke-opacity:1; 
stroke-linecap:round; stroke-linejoin:round;">
<path d="M43307 4724
L43307 3937
" />
</g>
<g style="fill:#000000; fill-opacity:0.0; 
stroke:#000000; stroke-width:39.3701; stroke-opacity:1; 
stroke-linecap:round; stroke-linejoin:round;">
</g>
<g style="fill:#000000; fill-opacity:0.0; 
stroke:#000000; stroke-width:59.0551; stroke-opacity:1; 
stroke-linecap:round; stroke-linejoin:round;">
<path d="M14199 4562
L13906 4562
" />
<path d="M14052 4562
L14052 4050
L14004 4123
L13955 4172
L13906 4196
" />
</g>
<g style="fill:#000000; fill-opacity:0.0; 
stroke:#000000; stroke-width:39.3701; stroke-opacity:1; 
stroke-linecap:round; stroke-linejoin:round;">
</g>
<g style="fill:#000000; fill-opacity:0.0; 
stroke:#000000; stroke-width:59.0551; stroke-opacity:1; 
stroke-linecap:round; stroke-linejoin:round;">
<path d="M33591 4099
L33615 4074
L33664 4050
L33786 4050
L33835 4074
L33859 4099
L33884 4147
L33884 4196
L33859 4269
L33567 4562
L33884 4562
" />
</g>
<g style="fill:#000000; fill-opacity:0.0; 
stroke:#000000; stroke-width:39.3701; stroke-opacity:1; 
stroke-linecap:round; stroke-linejoin:round;">
</g>
<g style="fill:#000000; fill-opacity:0.0; 
stroke:#000000; stroke-width:59.0551; stroke-opacity:1; 
stroke-linecap:round; stroke-linejoin:round;">
<path d="M23622 66145
L23622 66932
" />
</g>
<g style="fill:#000000; fill-opacity:0.0; 
stroke:#000000; stroke-width:39.3701; stroke-opacity:1; 
stroke-linecap:round; stroke-linejoin:round;">
</g>
<g style="fill:#000000; fill-opacity:0.0; 
stroke:#000000; stroke-width:59.0551; stroke-opacity:1; 
stroke-linecap:round; stroke-linejoin:round;">
<path d="M43307 66145
L43307 66932
" />
</g>
<g style="fill:#000000; fill-opacity:0.0; 
stroke:#000000; stroke-width:39.3701; stroke-opacity:1; 
stroke-linecap:round; stroke-linejoin:round;">
</g>
<g style="fill:#000000; fill-opacity:0.0; 
stroke:#000000; stroke-width:59.0551; stroke-opacity:1; 
stroke-linecap:round; stroke-linejoin:round;">
<path d="M14199 66770
L13906 66770
" />
<path d="M14052 66770
L14052 66259
L14004 66332
L13955 66380
L13906 66405
" />
</g>
<g style="fill:#000000; fill-opacity:0.0; 
stroke:#000000; stroke-width:39.3701; stroke-opacity:1; 
stroke-linecap:round; stroke-linejoin:round;">
</g>
<g style="fill:#000000; fill-opacity:0.0; 
stroke:#000000; stroke-width:59.0551; stroke-opacity:1; 
stroke-linecap:round; stroke-linejoin:round;">
<path d="M33591 66307
L33615 66283
L33664 66259
L33786 66259
L33835 66283
L33859 66307
L33884 66356
L33884 66405
L33859 66478
L33567 66770
L33884 66770
" />
</g>
<g style="fill:#000000; fill-opacity:0.0; 
stroke:#000000; stroke-width:39.3701; stroke-opacity:1; 
stroke-linecap:round; stroke-linejoin:round;">
</g>
<g style="fill:#000000; fill-opacity:0.0; 
stroke:#000000; stroke-width:59.0551; stroke-opacity:1; 
stroke-linecap:round; stroke-linejoin:round;">
<path d="M3937 23622
L4724 23622
" />
</g>
<g style="fill:#000000; fill-opacity:0.0; 
stroke:#000000; stroke-width:39.3701; stroke-opacity:1; 
stroke-linecap:round; stroke-linejoin:round;">
</g>
<g style="fill:#000000; fill-opacity:0.0; 
stroke:#000000; stroke-width:59.0551; stroke-opacity:1; 
stroke-linecap:round; stroke-linejoin:round;">
<path d="M3937 43307
L4724 43307
" />
</g>
<g style="fill:#000000; fill-opacity:0.0; 
stroke:#000000; stroke-width:39.3701; stroke-opacity:1; 
stroke-linecap:round; stroke-linejoin:round;">
</g>
<g style="fill:#000000; fill-opacity:0.0; 
stroke:#000000; stroke-width:59.0551; stroke-opacity:1; 
stroke-linecap:round; stroke-linejoin:round;">
<path d="M3937 62992
L4724 62992
" />
</g>
<g style="fill:#000000; fill-opacity:0.0; 
stroke:#000000; stroke-width:39.3701; stroke-opacity:1; 
stroke-linecap:round; stroke-linejoin:round;">
</g>
<g style="fill:#000000; fill-opacity:0.0; 
stroke:#000000; stroke-width:59.0551; stroke-opacity:1; 
stroke-linecap:round; stroke-linejoin:round;">
<path d="M4208 13864
L4452 13864
" />
<path d="M4160 14011
L4330 13499
L4501 14011
" />
</g>
<g style="fill:#000000; fill-opacity:0.0; 
stroke:#000000; stroke-width:39.3701; stroke-opacity:1; 
stroke-linecap:round; stroke-linejoin:round;">
</g>
<g style="fill:#000000; fill-opacity:0.0; 
stroke:#000000; stroke-width:59.0551; stroke-opacity:1; 
stroke-linecap:round; stroke-linejoin:round;">
<path d="M4367 33428
L4440 33452
L4464 33476
L4489 33525
L4489 33598
L4464 33647
L4440 33671
L4391 33696
L4196 33696
L4196 33184
L4367 33184
L4416 33208
L4440 33233
L4464 33281
L4464 33330
L4440 33379
L4416 33403
L4367 33428
L4196 33428
" />
</g>
<g style="fill:#000000; fill-opacity:0.0; 
stroke:#000000; stroke-width:39.3701; stroke-opacity:1; 
stroke-linecap:round; stroke-linejoin:round;">
</g>
<g style="fill:#000000; fill-opacity:0.0; 
stroke:#000000; stroke-width:59.0551; stroke-opacity:1; 
stroke-linecap:round; stroke-linejoin:round;">
<path d="M4489 53332
L4464 53356
L4391 53381
L4342 53381
L4269 53356
L4221 53308
L4196 53259
L4172 53161
L4172 53088
L4196 52991
L4221 52942
L4269 52893
L4342 52869
L4391 52869
L4464 52893
L4489 52918
" />
</g>
<g style="fill:#000000; fill-opacity:0.0; 
stroke:#000000; stroke-width:39.3701; stroke-opacity:1; 
stroke-linecap:round; stroke-linejoin:round;">
</g>
<g style="fill:#000000; fill-opacity:0.0; 
stroke:#000000; stroke-width:59.0551; stroke-opacity:1; 
stroke-linecap:round; stroke-linejoin:round;">
<path d="M47242 23622
L46455 23622
" />
</g>
<g style="fill:#000000; fill-opacity:0.0; 
stroke:#000000; stroke-width:39.3701; stroke-opacity:1; 
stroke-linecap:round; stroke-linejoin:round;">
</g>
<g style="fill:#000000; fill-opacity:0.0; 
stroke:#000000; stroke-width:59.0551; stroke-opacity:1; 
stroke-linecap:round; stroke-linejoin:round;">
<path d="M47242 43307
L46455 43307
" />
</g>
<g style="fill:#000000; fill-opacity:0.0; 
stroke:#000000; stroke-width:39.3701; stroke-opacity:1; 
stroke-linecap:round; stroke-linejoin:round;">
</g>
<g style="fill:#000000; fill-opacity:0.0; 
stroke:#000000; stroke-width:59.0551; stroke-opacity:1; 
stroke-linecap:round; stroke-linejoin:round;">
<path d="M47242 62992
L46455 62992
" />
</g>
<g style="fill:#000000; fill-opacity:0.0; 
stroke:#000000; stroke-width:39.3701; stroke-opacity:1; 
stroke-linecap:round; stroke-linejoin:round;">
</g>
<g style="fill:#000000; fill-opacity:0.0; 
stroke:#000000; stroke-width:59.0551; stroke-opacity:1; 
stroke-linecap:round; stroke-linejoin:round;">
<path d="M46727 13864
L46971 13864
" />
<path d="M46678 14011
L46849 13499
L47019 14011
" />
</g>
<g style="fill:#000000; fill-opacity:0.0; 
stroke:#000000; stroke-width:39.3701; stroke-opacity:1; 
stroke-linecap:round; stroke-linejoin:round;">
</g>
<g style="fill:#000000; fill-opacity:0.0; 
stroke:#000000; stroke-width:59.0551; stroke-opacity:1; 
stroke-linecap:round; stroke-linejoin:round;">
<path d="M46885 33428
L46958 33452
L46983 33476
L47007 33525
L47007 33598
L46983 33647
L46958 33671
L46910 33696
L46715 33696
L46715 33184
L46885 33184
L46934 33208
L46958 33233
L46983 33281
L46983 33330
L46958 33379
L46934 33403
L46885 33428
L46715 33428
" />
</g>
<g style="fill:#000000; fill-opacity:0.0; 
stroke:#000000; stroke-width:39.3701; stroke-opacity:1; 
stroke-linecap:round; stroke-linejoin:round;">
</g>
<g style="fill:#000000; fill-opacity:0.0; 
stroke:#000000; stroke-width:59.0551; stroke-opacity:1; 
stroke-linecap:round; stroke-linejoin:round;">
<path d="M47007 53332
L46983 53356
L46910 53381
L46861 53381
L46788 53356
L46739 53308
L46715 53259
L46690 53161
L46690 53088
L46715 52991
L46739 52942
L46788 52893
L46861 52869
L46910 52869
L46983 52893
L47007 52918
" />
</g>
<g style="fill:#000000; fill-opacity:0.0; 
stroke:#000000; stroke-width:39.3701; stroke-opacity:1; 
stroke-linecap:round; stroke-linejoin:round;">
</g>
<g style="fill:#000000; fill-opacity:0.0; 
stroke:#000000; stroke-width:59.0551; stroke-opacity:1; 
stroke-linecap:round; stroke-linejoin:round;">
<path d="M13161 64483
L13161 63893
L13301 63893
L13386 63921
L13442 63977
L13470 64033
L13498 64146
L13498 64230
L13470 64343
L13442 64399
L13386 64455
L13301 64483
L13161 64483
" />
<path d="M14004 64483
L14004 64174
L13976 64118
L13920 64089
L13807 64089
L13751 64118
" />
<path d="M14004 64455
L13948 64483
L13807 64483
L13751 64455
L13723 64399
L13723 64343
L13751 64286
L13807 64258
L13948 64258
L14004 64230
" />
<path d="M14201 64089
L14426 64089
" />
<path d="M14286 63893
L14286 64399
L14314 64455
L14370 64483
L14426 64483
" />
<path d="M14848 64455
L14792 64483
L14679 64483
L14623 64455
L14595 64399
L14595 64174
L14623 64118
L14679 64089
L14792 64089
L14848 64118
L14876 64174
L14876 64230
L14595 64286
" />
<path d="M15129 64427
L15157 64455
L15129 64483
L15101 64455
L15129 64427
L15129 64483
" />
<path d="M15129 64118
L15157 64146
L15129 64174
L15101 64146
L15129 64118
L15129 64174
" />
<path d="M15832 63949
L15860 63921
L15917 63893
L16057 63893
L16113 63921
L16142 63949
L16170 64005
L16170 64061
L16142 64146
L15804 64483
L16170 64483
" />
<path d="M16535 63893
L16591 63893
L16648 63921
L16676 63949
L16704 64005
L16732 64118
L16732 64258
L16704 64371
L16676 64427
L16648 64455
L16591 64483
L16535 64483
L16479 64455
L16451 64427
L16423 64371
L16395 64258
L16395 64118
L16423 64005
L16451 63949
L16479 63921
L16535 63893
" />
<path d="M17295 64483
L16957 64483
" />
<path d="M17126 64483
L17126 63893
L17070 63977
L17013 64033
L16957 64061
" />
<path d="M17576 64483
L17688 64483
L17744 64455
L17773 64427
L17829 64343
L17857 64230
L17857 64005
L17829 63949
L17801 63921
L17744 63893
L17632 63893
L17576 63921
L17548 63949
L17519 64005
L17519 64146
L17548 64202
L17576 64230
L17632 64258
L17744 64258
L17801 64230
L17829 64202
L17857 64146
" />
<path d="M18110 64258
L18560 64258
" />
<path d="M18954 63893
L19010 63893
L19066 63921
L19094 63949
L19122 64005
L19151 64118
L19151 64258
L19122 64371
L19094 64427
L19066 64455
L19010 64483
L18954 64483
L18897 64455
L18869 64427
L18841 64371
L18813 64258
L18813 64118
L18841 64005
L18869 63949
L18897 63921
L18954 63893
" />
<path d="M19685 63893
L19404 63893
L19376 64174
L19404 64146
L19460 64118
L19600 64118
L19657 64146
L19685 64174
L19713 64230
L19713 64371
L19685 64427
L19657 64455
L19600 64483
L19460 64483
L19404 64455
L19376 64427
" />
<path d="M19966 64258
L20416 64258
" />
<path d="M20669 63949
L20697 63921
L20753 63893
L20894 63893
L20950 63921
L20978 63949
L21007 64005
L21007 64061
L20978 64146
L20641 64483
L21007 64483
" />
<path d="M21541 63893
L21260 63893
L21232 64174
L21260 64146
L21316 64118
L21456 64118
L21513 64146
L21541 64174
L21569 64230
L21569 64371
L21541 64427
L21513 64455
L21456 64483
L21316 64483
L21260 64455
L21232 64427
" />
</g>
<g style="fill:#000000; fill-opacity:0.0; 
stroke:#000000; stroke-width:39.3701; stroke-opacity:1; 
stroke-linecap:round; stroke-linejoin:round;">
</g>
<g style="fill:#000000; fill-opacity:0.0; 
stroke:#000000; stroke-width:59.0551; stroke-opacity:1; 
stroke-linecap:round; stroke-linejoin:round;">
<path d="M3935 64767
L46455 64767
" />
</g>
<g style="fill:#000000; fill-opacity:0.0; 
stroke:#000000; stroke-width:39.3701; stroke-opacity:1; 
stroke-linecap:round; stroke-linejoin:round;">
</g>
<g style="fill:#000000; fill-opacity:0.0; 
stroke:#000000; stroke-width:59.0551; stroke-opacity:1; 
stroke-linecap:round; stroke-linejoin:round;">
<path d="M4499 65585
L4499 64995
" />
<path d="M4837 65585
L4584 65248
" />
<path d="M4837 64995
L4499 65332
" />
<path d="M5090 65585
L5090 65192
" />
<path d="M5090 64995
L5062 65023
L5090 65051
L5118 65023
L5090 64995
L5090 65051
" />
<path d="M5708 65529
L5680 65557
L5596 65585
L5540 65585
L5455 65557
L5399 65501
L5371 65445
L5343 65332
L5343 65248
L5371 65136
L5399 65079
L5455 65023
L5540 64995
L5596 64995
L5680 65023
L5708 65051
" />
<path d="M6215 65585
L6215 65276
L6187 65220
L6130 65192
L6018 65192
L5962 65220
" />
<path d="M6215 65557
L6158 65585
L6018 65585
L5962 65557
L5933 65501
L5933 65445
L5962 65389
L6018 65361
L6158 65361
L6215 65332
" />
<path d="M6749 65585
L6749 64995
" />
<path d="M6749 65557
L6693 65585
L6580 65585
L6524 65557
L6496 65529
L6468 65473
L6468 65304
L6496 65248
L6524 65220
L6580 65192
L6693 65192
L6749 65220
" />
<path d="M7480 65276
L7677 65276
" />
<path d="M7761 65585
L7480 65585
L7480 64995
L7761 64995
" />
<path d="M8014 65529
L8043 65557
L8014 65585
L7986 65557
L8014 65529
L8014 65585
" />
<path d="M8296 65585
L8296 64995
L8436 64995
L8521 65023
L8577 65079
L8605 65136
L8633 65248
L8633 65332
L8605 65445
L8577 65501
L8521 65557
L8436 65585
L8296 65585
" />
<path d="M8886 65529
L8914 65557
L8886 65585
L8858 65557
L8886 65529
L8886 65585
" />
<path d="M9139 65417
L9421 65417
" />
<path d="M9083 65585
L9280 64995
L9477 65585
" />
<path d="M9674 65529
L9702 65557
L9674 65585
L9645 65557
L9674 65529
L9674 65585
" />
<path d="M10855 65585
L10855 64995
" />
<path d="M10911 65361
L11080 65585
" />
<path d="M11080 65192
L10855 65417
" />
<path d="M11333 65585
L11333 65192
" />
<path d="M11333 64995
L11305 65023
L11333 65051
L11361 65023
L11333 64995
L11333 65051
" />
<path d="M11867 65557
L11811 65585
L11698 65585
L11642 65557
L11614 65529
L11586 65473
L11586 65304
L11614 65248
L11642 65220
L11698 65192
L11811 65192
L11867 65220
" />
<path d="M12373 65585
L12373 65276
L12345 65220
L12289 65192
L12176 65192
L12120 65220
" />
<path d="M12373 65557
L12317 65585
L12176 65585
L12120 65557
L12092 65501
L12092 65445
L12120 65389
L12176 65361
L12317 65361
L12373 65332
" />
<path d="M12908 65585
L12908 64995
" />
<path d="M12908 65557
L12851 65585
L12739 65585
L12683 65557
L12654 65529
L12626 65473
L12626 65304
L12654 65248
L12683 65220
L12739 65192
L12851 65192
L12908 65220
" />
<path d="M13920 64995
L13639 64995
L13611 65276
L13639 65248
L13695 65220
L13836 65220
L13892 65248
L13920 65276
L13948 65332
L13948 65473
L13920 65529
L13892 65557
L13836 65585
L13695 65585
L13639 65557
L13611 65529
" />
<path d="M14201 65529
L14229 65557
L14201 65585
L14173 65557
L14201 65529
L14201 65585
" />
<path d="M14595 64995
L14651 64995
L14707 65023
L14735 65051
L14764 65107
L14792 65220
L14792 65361
L14764 65473
L14735 65529
L14707 65557
L14651 65585
L14595 65585
L14539 65557
L14510 65529
L14482 65473
L14454 65361
L14454 65220
L14482 65107
L14510 65051
L14539 65023
L14595 64995
" />
<path d="M15045 65529
L15073 65557
L15045 65585
L15017 65557
L15045 65529
L15045 65585
" />
<path d="M15298 65051
L15326 65023
L15382 64995
L15523 64995
L15579 65023
L15607 65051
L15635 65107
L15635 65164
L15607 65248
L15270 65585
L15635 65585
" />
<path d="M15888 65361
L16338 65361
" />
<path d="M16113 65585
L16113 65136
" />
<path d="M16873 65585
L16873 64995
" />
<path d="M16873 65557
L16816 65585
L16704 65585
L16648 65557
L16620 65529
L16591 65473
L16591 65304
L16620 65248
L16648 65220
L16704 65192
L16816 65192
L16873 65220
" />
<path d="M17070 65192
L17295 65192
" />
<path d="M17154 65585
L17154 65079
L17182 65023
L17238 64995
L17295 64995
" />
<path d="M17463 65557
L17519 65585
L17632 65585
L17688 65557
L17716 65501
L17716 65473
L17688 65417
L17632 65389
L17548 65389
L17491 65361
L17463 65304
L17463 65276
L17491 65220
L17548 65192
L17632 65192
L17688 65220
" />
<path d="M18223 65192
L18223 65670
L18194 65726
L18166 65754
L18110 65782
L18026 65782
L17969 65754
" />
<path d="M18223 65557
L18166 65585
L18054 65585
L17998 65557
L17969 65529
L17941 65473
L17941 65304
L17969 65248
L17998 65220
L18054 65192
L18166 65192
L18223 65220
" />
<path d="M18813 65585
L18476 65585
" />
<path d="M18644 65585
L18644 64995
L18588 65079
L18532 65136
L18476 65164
" />
<path d="M19066 65361
L19516 65361
" />
<path d="M20107 65585
L19769 65585
" />
<path d="M19938 65585
L19938 64995
L19882 65079
L19825 65136
L19769 65164
" />
</g>
<g style="fill:#000000; fill-opacity:0.0; 
stroke:#000000; stroke-width:39.3701; stroke-opacity:1; 
stroke-linecap:round; stroke-linejoin:round;">
</g>
<g style="fill:#000000; fill-opacity:0.0; 
stroke:#000000; stroke-width:59.0551; stroke-opacity:1; 
stroke-linecap:round; stroke-linejoin:round;">
<path d="M3935 63586
L46455 63586
" />
</g>
<g style="fill:#000000; fill-opacity:0.0; 
stroke:#000000; stroke-width:39.3701; stroke-opacity:1; 
stroke-linecap:round; stroke-linejoin:round;">
</g>
<g style="fill:#000000; fill-opacity:0.0; 
stroke:#000000; stroke-width:118.11; stroke-opacity:1; 
stroke-linecap:round; stroke-linejoin:round;">
<path d="M38349 64483
L38152 64202
" />
<path d="M38011 64483
L38011 63893
L38236 63893
L38292 63921
L38320 63949
L38349 64005
L38349 64089
L38320 64146
L38292 64174
L38236 64202
L38011 64202
" />
<path d="M38827 64455
L38770 64483
L38658 64483
L38602 64455
L38573 64399
L38573 64174
L38602 64118
L38658 64089
L38770 64089
L38827 64118
L38855 64174
L38855 64230
L38573 64286
" />
<path d="M39052 64089
L39192 64483
L39333 64089
" />
<path d="M39558 64427
L39586 64455
L39558 64483
L39530 64455
L39558 64427
L39558 64483
" />
<path d="M39558 64118
L39586 64146
L39558 64174
L39530 64146
L39558 64118
L39558 64174
" />
<path d="M40233 64089
L40373 64483
L40514 64089
" />
<path d="M41048 64483
L40711 64483
" />
<path d="M40879 64483
L40879 63893
L40823 63977
L40767 64033
L40711 64061
" />
<path d="M41301 64427
L41329 64455
L41301 64483
L41273 64455
L41301 64427
L41301 64483
" />
<path d="M41695 63893
L41751 63893
L41807 63921
L41836 63949
L41864 64005
L41892 64118
L41892 64258
L41864 64371
L41836 64427
L41807 64455
L41751 64483
L41695 64483
L41639 64455
L41611 64427
L41582 64371
L41554 64258
L41554 64118
L41582 64005
L41611 63949
L41639 63921
L41695 63893
" />
<path d="M42145 64427
L42173 64455
L42145 64483
L42117 64455
L42145 64427
L42145 64483
" />
<path d="M42735 64483
L42398 64483
" />
<path d="M42567 64483
L42567 63893
L42510 63977
L42454 64033
L42398 64061
" />
</g>
<g style="fill:#000000; fill-opacity:0.0; 
stroke:#000000; stroke-width:39.3701; stroke-opacity:1; 
stroke-linecap:round; stroke-linejoin:round;">
</g>
<g style="fill:#000000; fill-opacity:0.0; 
stroke:#000000; stroke-width:59.0551; stroke-opacity:1; 
stroke-linecap:round; stroke-linejoin:round;">
<path d="M4471 64455
L4555 64483
L4696 64483
L4752 64455
L4780 64427
L4809 64371
L4809 64314
L4780 64258
L4752 64230
L4696 64202
L4584 64174
L4527 64146
L4499 64118
L4471 64061
L4471 64005
L4499 63949
L4527 63921
L4584 63893
L4724 63893
L4809 63921
" />
<path d="M5062 64483
L5062 64089
" />
<path d="M5062 63893
L5034 63921
L5062 63949
L5090 63921
L5062 63893
L5062 63949
" />
<path d="M5287 64089
L5596 64089
L5287 64483
L5596 64483
" />
<path d="M6046 64455
L5990 64483
L5877 64483
L5821 64455
L5793 64399
L5793 64174
L5821 64118
L5877 64089
L5990 64089
L6046 64118
L6074 64174
L6074 64230
L5793 64286
" />
<path d="M6327 64427
L6355 64455
L6327 64483
L6299 64455
L6327 64427
L6327 64483
" />
<path d="M6327 64118
L6355 64146
L6327 64174
L6299 64146
L6327 64118
L6327 64174
" />
<path d="M7058 63893
L7058 64371
L7086 64427
L7115 64455
L7171 64483
L7283 64483
L7340 64455
L7368 64427
L7396 64371
L7396 63893
" />
<path d="M7649 64455
L7705 64483
L7818 64483
L7874 64455
L7902 64399
L7902 64371
L7874 64314
L7818 64286
L7733 64286
L7677 64258
L7649 64202
L7649 64174
L7677 64118
L7733 64089
L7818 64089
L7874 64118
" />
<path d="M8380 64455
L8324 64483
L8211 64483
L8155 64455
L8127 64399
L8127 64174
L8155 64118
L8211 64089
L8324 64089
L8380 64118
L8408 64174
L8408 64230
L8127 64286
" />
<path d="M8661 64483
L8661 64089
" />
<path d="M8661 64202
L8689 64146
L8717 64118
L8774 64089
L8830 64089
" />
</g>
<g style="fill:#000000; fill-opacity:0.0; 
stroke:#000000; stroke-width:39.3701; stroke-opacity:1; 
stroke-linecap:round; stroke-linejoin:round;">
</g>
<g style="fill:#000000; fill-opacity:0.0; 
stroke:#000000; stroke-width:59.0551; stroke-opacity:1; 
stroke-linecap:round; stroke-linejoin:round;">
<path d="M37964 65585
L37964 64995
" />
<path d="M38498 65585
L38498 64995
" />
<path d="M38498 65557
L38442 65585
L38329 65585
L38273 65557
L38245 65529
L38217 65473
L38217 65304
L38245 65248
L38273 65220
L38329 65192
L38442 65192
L38498 65220
" />
<path d="M38779 65529
L38807 65557
L38779 65585
L38751 65557
L38779 65529
L38779 65585
" />
<path d="M38779 65220
L38807 65248
L38779 65276
L38751 65248
L38779 65220
L38779 65276
" />
<path d="M39820 65585
L39482 65585
" />
<path d="M39651 65585
L39651 64995
L39595 65079
L39539 65136
L39482 65164
" />
<path d="M40495 64967
L39989 65726
" />
<path d="M41001 65585
L40663 65585
" />
<path d="M40832 65585
L40832 64995
L40776 65079
L40720 65136
L40663 65164
" />
</g>
<g style="fill:#000000; fill-opacity:0.0; 
stroke:#000000; stroke-width:39.3701; stroke-opacity:1; 
stroke-linecap:round; stroke-linejoin:round;">
</g>
<g style="fill:#000000; fill-opacity:0.0; 
stroke:#000000; stroke-width:59.0551; stroke-opacity:1; 
stroke-linecap:round; stroke-linejoin:round;">
<path d="M3935 62011
L46455 62011
" />
</g>
<g style="fill:#000000; fill-opacity:0.0; 
stroke:#000000; stroke-width:39.3701; stroke-opacity:1; 
stroke-linecap:round; stroke-linejoin:round;">
</g>
<g style="fill:#000000; fill-opacity:0.0; 
stroke:#000000; stroke-width:157.48; stroke-opacity:1; 
stroke-linecap:round; stroke-linejoin:round;">
<path d="M4610 62289
L5060 62289
" />
<path d="M4736 63076
L4835 62289
" />
<path d="M5224 63076
L5289 62551
" />
<path d="M5322 62289
L5280 62326
L5313 62364
L5355 62326
L5322 62289
L5313 62364
" />
<path d="M5552 62551
L5852 62551
" />
<path d="M5697 62289
L5613 62964
L5641 63039
L5711 63076
L5786 63076
" />
<path d="M6161 63076
L6091 63039
L6063 62964
L6147 62289
" />
<path d="M6766 63039
L6686 63076
L6536 63076
L6466 63039
L6437 62964
L6475 62664
L6522 62589
L6602 62551
L6751 62551
L6822 62589
L6850 62664
L6841 62739
L6456 62814
" />
<path d="M7145 63001
L7178 63039
L7136 63076
L7103 63039
L7145 63001
L7136 63076
" />
<path d="M7197 62589
L7230 62626
L7187 62664
L7155 62626
L7197 62589
L7187 62664
" />
<path d="M8111 63076
L8209 62289
L8401 62851
L8734 62289
L8636 63076
" />
<path d="M9348 63076
L9400 62664
L9371 62589
L9301 62551
L9151 62551
L9072 62589
" />
<path d="M9353 63039
L9273 63076
L9086 63076
L9015 63039
L8987 62964
L8997 62889
L9043 62814
L9123 62776
L9311 62776
L9390 62739
" />
<path d="M9723 63076
L9789 62551
" />
<path d="M9821 62289
L9779 62326
L9812 62364
L9854 62326
L9821 62289
L9812 62364
" />
<path d="M10164 62551
L10098 63076
" />
<path d="M10154 62626
L10196 62589
L10276 62551
L10389 62551
L10459 62589
L10487 62664
L10435 63076
" />
<path d="M10778 63039
L10848 63076
L10998 63076
L11078 63039
L11124 62964
L11129 62926
L11101 62851
L11031 62814
L10918 62814
L10848 62776
L10820 62701
L10824 62664
L10871 62589
L10951 62551
L11063 62551
L11134 62589
" />
<path d="M12423 63076
L12048 63076
L12146 62289
" />
<path d="M12685 63076
L12751 62551
" />
<path d="M12784 62289
L12741 62326
L12774 62364
L12816 62326
L12784 62289
L12774 62364
" />
<path d="M13463 62551
L13383 63189
L13337 63264
L13294 63301
L13215 63339
L13102 63339
L13032 63301
" />
<path d="M13402 63039
L13323 63076
L13173 63076
L13102 63039
L13069 63001
L13041 62926
L13069 62701
L13116 62626
L13159 62589
L13238 62551
L13388 62551
L13458 62589
" />
<path d="M13772 63076
L13871 62289
" />
<path d="M14110 63076
L14162 62664
L14133 62589
L14063 62551
L13951 62551
L13871 62589
L13829 62626
" />
<path d="M14438 62551
L14738 62551
" />
<path d="M14583 62289
L14499 62964
L14527 63039
L14597 63076
L14672 63076
" />
<path d="M15994 63001
L15952 63039
L15835 63076
L15760 63076
L15652 63039
L15586 62964
L15558 62889
L15539 62739
L15554 62626
L15610 62476
L15657 62401
L15741 62326
L15858 62289
L15933 62289
L16041 62326
L16074 62364
" />
<path d="M16435 63076
L16364 63039
L16332 63001
L16303 62926
L16332 62701
L16378 62626
L16421 62589
L16500 62551
L16613 62551
L16683 62589
L16716 62626
L16744 62701
L16716 62926
L16669 63001
L16627 63039
L16547 63076
L16435 63076
" />
<path d="M17100 62551
L17035 63076
" />
<path d="M17091 62626
L17133 62589
L17213 62551
L17325 62551
L17395 62589
L17424 62664
L17372 63076
" />
<path d="M17700 62551
L18000 62551
" />
<path d="M17845 62289
L17761 62964
L17789 63039
L17859 63076
L17934 63076
" />
<path d="M18197 63076
L18263 62551
" />
<path d="M18244 62701
L18291 62626
L18333 62589
L18413 62551
L18488 62551
" />
<path d="M18797 63076
L18727 63039
L18694 63001
L18666 62926
L18694 62701
L18741 62626
L18783 62589
L18862 62551
L18975 62551
L19045 62589
L19078 62626
L19106 62701
L19078 62926
L19031 63001
L18989 63039
L18909 63076
L18797 63076
" />
<path d="M19509 63076
L19439 63039
L19411 62964
L19495 62289
" />
<path d="M19922 63076
L19851 63039
L19823 62964
L19908 62289
" />
<path d="M20526 63039
L20447 63076
L20297 63076
L20226 63039
L20198 62964
L20236 62664
L20283 62589
L20362 62551
L20512 62551
L20583 62589
L20611 62664
L20601 62739
L20217 62814
" />
<path d="M20897 63076
L20962 62551
" />
<path d="M20943 62701
L20990 62626
L21033 62589
L21112 62551
L21187 62551
" />
</g>
<g style="fill:#000000; fill-opacity:0.0; 
stroke:#000000; stroke-width:39.3701; stroke-opacity:1; 
stroke-linecap:round; stroke-linejoin:round;">
</g>
<g style="fill:#000000; fill-opacity:0.0; 
stroke:#000000; stroke-width:59.0551; stroke-opacity:1; 
stroke-linecap:round; stroke-linejoin:round;">
<path d="M4696 61260
L4499 61260
" />
<path d="M4499 61570
L4499 60979
L4780 60979
" />
<path d="M5005 61570
L5005 61176
" />
<path d="M5005 60979
L4977 61007
L5005 61035
L5034 61007
L5005 60979
L5005 61035
" />
<path d="M5371 61570
L5315 61542
L5287 61485
L5287 60979
" />
<path d="M5821 61542
L5765 61570
L5652 61570
L5596 61542
L5568 61485
L5568 61260
L5596 61204
L5652 61176
L5765 61176
L5821 61204
L5849 61260
L5849 61317
L5568 61373
" />
<path d="M6102 61513
L6130 61542
L6102 61570
L6074 61542
L6102 61513
L6102 61570
" />
<path d="M6102 61204
L6130 61232
L6102 61260
L6074 61232
L6102 61204
L6102 61260
" />
<path d="M6833 61570
L6833 61176
" />
<path d="M6833 61232
L6861 61204
L6918 61176
L7002 61176
L7058 61204
L7086 61260
L7086 61570
" />
<path d="M7086 61260
L7115 61204
L7171 61176
L7255 61176
L7311 61204
L7340 61260
L7340 61570
" />
<path d="M7874 61570
L7874 61260
L7846 61204
L7789 61176
L7677 61176
L7621 61204
" />
<path d="M7874 61542
L7818 61570
L7677 61570
L7621 61542
L7593 61485
L7593 61429
L7621 61373
L7677 61345
L7818 61345
L7874 61317
" />
<path d="M8155 61570
L8155 61176
" />
<path d="M8155 60979
L8127 61007
L8155 61035
L8183 61007
L8155 60979
L8155 61035
" />
<path d="M8436 61176
L8436 61570
" />
<path d="M8436 61232
L8464 61204
L8521 61176
L8605 61176
L8661 61204
L8689 61260
L8689 61570
" />
<path d="M8942 61542
L8999 61570
L9111 61570
L9167 61542
L9196 61485
L9196 61457
L9167 61401
L9111 61373
L9027 61373
L8971 61345
L8942 61289
L8942 61260
L8971 61204
L9027 61176
L9111 61176
L9167 61204
" />
<path d="M9449 61345
L9899 61345
" />
<path d="M10264 61570
L10208 61542
L10180 61485
L10180 60979
" />
<path d="M10489 61570
L10489 61176
" />
<path d="M10489 60979
L10461 61007
L10489 61035
L10517 61007
L10489 60979
L10489 61035
" />
<path d="M11023 61176
L11023 61654
L10995 61710
L10967 61738
L10911 61767
L10827 61767
L10770 61738
" />
<path d="M11023 61542
L10967 61570
L10855 61570
L10798 61542
L10770 61513
L10742 61457
L10742 61289
L10770 61232
L10798 61204
L10855 61176
L10967 61176
L11023 61204
" />
<path d="M11305 61570
L11305 60979
" />
<path d="M11558 61570
L11558 61260
L11530 61204
L11473 61176
L11389 61176
L11333 61204
L11305 61232
" />
<path d="M11755 61176
L11980 61176
" />
<path d="M11839 60979
L11839 61485
L11867 61542
L11923 61570
L11980 61570
" />
<path d="M12176 61345
L12626 61345
" />
<path d="M13161 61542
L13104 61570
L12992 61570
L12936 61542
L12908 61513
L12879 61457
L12879 61289
L12908 61232
L12936 61204
L12992 61176
L13104 61176
L13161 61204
" />
<path d="M13498 61570
L13442 61542
L13414 61513
L13386 61457
L13386 61289
L13414 61232
L13442 61204
L13498 61176
L13582 61176
L13639 61204
L13667 61232
L13695 61289
L13695 61457
L13667 61513
L13639 61542
L13582 61570
L13498 61570
" />
<path d="M13948 61176
L13948 61570
" />
<path d="M13948 61232
L13976 61204
L14032 61176
L14117 61176
L14173 61204
L14201 61260
L14201 61570
" />
<path d="M14398 61176
L14623 61176
" />
<path d="M14482 60979
L14482 61485
L14510 61542
L14567 61570
L14623 61570
" />
<path d="M14820 61570
L14820 61176
" />
<path d="M14820 61289
L14848 61232
L14876 61204
L14932 61176
L14989 61176
" />
<path d="M15270 61570
L15214 61542
L15185 61513
L15157 61457
L15157 61289
L15185 61232
L15214 61204
L15270 61176
L15354 61176
L15410 61204
L15438 61232
L15467 61289
L15467 61457
L15438 61513
L15410 61542
L15354 61570
L15270 61570
" />
<path d="M15804 61570
L15748 61542
L15720 61485
L15720 60979
" />
<path d="M16113 61570
L16057 61542
L16029 61485
L16029 60979
" />
<path d="M16563 61542
L16507 61570
L16395 61570
L16338 61542
L16310 61485
L16310 61260
L16338 61204
L16395 61176
L16507 61176
L16563 61204
L16591 61260
L16591 61317
L16310 61373
" />
<path d="M16845 61570
L16845 61176
" />
<path d="M16845 61289
L16873 61232
L16901 61204
L16957 61176
L17013 61176
" />
<path d="M17210 61513
L17238 61542
L17210 61570
L17182 61542
L17210 61513
L17210 61570
" />
<path d="M17491 61570
L17491 60979
" />
<path d="M17548 61345
L17716 61570
" />
<path d="M17716 61176
L17491 61401
" />
<path d="M17969 61570
L17969 61176
" />
<path d="M17969 60979
L17941 61007
L17969 61035
L17998 61007
L17969 60979
L17969 61035
" />
<path d="M18504 61542
L18447 61570
L18335 61570
L18279 61542
L18251 61513
L18223 61457
L18223 61289
L18251 61232
L18279 61204
L18335 61176
L18447 61176
L18504 61204
" />
<path d="M19010 61570
L19010 61260
L18982 61204
L18926 61176
L18813 61176
L18757 61204
" />
<path d="M19010 61542
L18954 61570
L18813 61570
L18757 61542
L18729 61485
L18729 61429
L18757 61373
L18813 61345
L18954 61345
L19010 61317
" />
<path d="M19544 61570
L19544 60979
" />
<path d="M19544 61542
L19488 61570
L19376 61570
L19319 61542
L19291 61513
L19263 61457
L19263 61289
L19291 61232
L19319 61204
L19376 61176
L19488 61176
L19544 61204
" />
<path d="M19685 61626
L20135 61626
" />
<path d="M20275 61176
L20275 61767
" />
<path d="M20275 61204
L20332 61176
L20444 61176
L20500 61204
L20528 61232
L20557 61289
L20557 61457
L20528 61513
L20500 61542
L20444 61570
L20332 61570
L20275 61542
" />
<path d="M21063 61542
L21007 61570
L20894 61570
L20838 61542
L20810 61513
L20782 61457
L20782 61289
L20810 61232
L20838 61204
L20894 61176
L21007 61176
L21063 61204
" />
<path d="M21316 61570
L21316 60979
" />
<path d="M21316 61204
L21372 61176
L21485 61176
L21541 61204
L21569 61232
L21597 61289
L21597 61457
L21569 61513
L21541 61542
L21485 61570
L21372 61570
L21316 61542
" />
</g>
<g style="fill:#000000; fill-opacity:0.0; 
stroke:#000000; stroke-width:39.3701; stroke-opacity:1; 
stroke-linecap:round; stroke-linejoin:round;">
</g>
<g style="fill:#000000; fill-opacity:0.0; 
stroke:#000000; stroke-width:59.0551; stroke-opacity:1; 
stroke-linecap:round; stroke-linejoin:round;">
<path d="M3935 59649
L46455 59649
" />
</g>
<g style="fill:#000000; fill-opacity:0.0; 
stroke:#000000; stroke-width:39.3701; stroke-opacity:1; 
stroke-linecap:round; stroke-linejoin:round;">
</g>
<g style="fill:#000000; fill-opacity:0.0; 
stroke:#000000; stroke-width:59.0551; stroke-opacity:1; 
stroke-linecap:round; stroke-linejoin:round;">
<path d="M4471 60479
L4555 60507
L4696 60507
L4752 60479
L4780 60450
L4809 60394
L4809 60338
L4780 60282
L4752 60254
L4696 60226
L4584 60197
L4527 60169
L4499 60141
L4471 60085
L4471 60029
L4499 59972
L4527 59944
L4584 59916
L4724 59916
L4809 59944
" />
<path d="M5062 60507
L5062 59916
" />
<path d="M5315 60507
L5315 60197
L5287 60141
L5230 60113
L5146 60113
L5090 60141
L5062 60169
" />
<path d="M5821 60479
L5765 60507
L5652 60507
L5596 60479
L5568 60422
L5568 60197
L5596 60141
L5652 60113
L5765 60113
L5821 60141
L5849 60197
L5849 60254
L5568 60310
" />
<path d="M6327 60479
L6271 60507
L6158 60507
L6102 60479
L6074 60422
L6074 60197
L6102 60141
L6158 60113
L6271 60113
L6327 60141
L6355 60197
L6355 60254
L6074 60310
" />
<path d="M6524 60113
L6749 60113
" />
<path d="M6608 59916
L6608 60422
L6636 60479
L6693 60507
L6749 60507
" />
<path d="M6946 60450
L6974 60479
L6946 60507
L6918 60479
L6946 60450
L6946 60507
" />
<path d="M6946 60141
L6974 60169
L6946 60197
L6918 60169
L6946 60141
L6946 60197
" />
</g>
<g style="fill:#000000; fill-opacity:0.0; 
stroke:#000000; stroke-width:39.3701; stroke-opacity:1; 
stroke-linecap:round; stroke-linejoin:round;">
</g>
<g style="fill:#000000; fill-opacity:0.0; 
stroke:#000000; stroke-width:59.0551; stroke-opacity:1; 
stroke-linecap:round; stroke-linejoin:round;">
<path d="M4499 54601
L4499 54011
L4696 54432
L4893 54011
L4893 54601
" />
<path d="M5427 54601
L5427 54292
L5399 54236
L5343 54208
L5230 54208
L5174 54236
" />
<path d="M5427 54573
L5371 54601
L5230 54601
L5174 54573
L5146 54517
L5146 54461
L5174 54404
L5230 54376
L5371 54376
L5427 54348
" />
<path d="M5708 54601
L5708 54208
" />
<path d="M5708 54011
L5680 54039
L5708 54067
L5737 54039
L5708 54011
L5708 54067
" />
<path d="M5990 54208
L5990 54601
" />
<path d="M5990 54264
L6018 54236
L6074 54208
L6158 54208
L6215 54236
L6243 54292
L6243 54601
" />
<path d="M6496 54573
L6552 54601
L6665 54601
L6721 54573
L6749 54517
L6749 54489
L6721 54432
L6665 54404
L6580 54404
L6524 54376
L6496 54320
L6496 54292
L6524 54236
L6580 54208
L6665 54208
L6721 54236
" />
<path d="M7733 54601
L7452 54601
L7452 54011
" />
<path d="M7930 54601
L7930 54208
" />
<path d="M7930 54011
L7902 54039
L7930 54067
L7958 54039
L7930 54011
L7930 54067
" />
<path d="M8464 54208
L8464 54686
L8436 54742
L8408 54770
L8352 54798
L8268 54798
L8211 54770
" />
<path d="M8464 54573
L8408 54601
L8296 54601
L8239 54573
L8211 54545
L8183 54489
L8183 54320
L8211 54264
L8239 54236
L8296 54208
L8408 54208
L8464 54236
" />
<path d="M8746 54601
L8746 54011
" />
<path d="M8999 54601
L8999 54292
L8971 54236
L8914 54208
L8830 54208
L8774 54236
L8746 54264
" />
<path d="M9196 54208
L9421 54208
" />
<path d="M9280 54011
L9280 54517
L9308 54573
L9364 54601
L9421 54601
" />
<path d="M10405 54545
L10377 54573
L10292 54601
L10236 54601
L10152 54573
L10095 54517
L10067 54461
L10039 54348
L10039 54264
L10067 54151
L10095 54095
L10152 54039
L10236 54011
L10292 54011
L10377 54039
L10405 54067
" />
<path d="M10742 54601
L10686 54573
L10658 54545
L10630 54489
L10630 54320
L10658 54264
L10686 54236
L10742 54208
L10827 54208
L10883 54236
L10911 54264
L10939 54320
L10939 54489
L10911 54545
L10883 54573
L10827 54601
L10742 54601
" />
<path d="M11192 54208
L11192 54601
" />
<path d="M11192 54264
L11220 54236
L11277 54208
L11361 54208
L11417 54236
L11445 54292
L11445 54601
" />
<path d="M11642 54208
L11867 54208
" />
<path d="M11726 54011
L11726 54517
L11755 54573
L11811 54601
L11867 54601
" />
<path d="M12064 54601
L12064 54208
" />
<path d="M12064 54320
L12092 54264
L12120 54236
L12176 54208
L12233 54208
" />
<path d="M12514 54601
L12458 54573
L12430 54545
L12401 54489
L12401 54320
L12430 54264
L12458 54236
L12514 54208
L12598 54208
L12654 54236
L12683 54264
L12711 54320
L12711 54489
L12683 54545
L12654 54573
L12598 54601
L12514 54601
" />
<path d="M13048 54601
L12992 54573
L12964 54517
L12964 54011
" />
<path d="M13358 54601
L13301 54573
L13273 54517
L13273 54011
" />
<path d="M13807 54573
L13751 54601
L13639 54601
L13582 54573
L13554 54517
L13554 54292
L13582 54236
L13639 54208
L13751 54208
L13807 54236
L13836 54292
L13836 54348
L13554 54404
" />
<path d="M14089 54601
L14089 54208
" />
<path d="M14089 54320
L14117 54264
L14145 54236
L14201 54208
L14257 54208
" />
</g>
<g style="fill:#000000; fill-opacity:0.0; 
stroke:#000000; stroke-width:39.3701; stroke-opacity:1; 
stroke-linecap:round; stroke-linejoin:round;">
</g>
<g style="fill:#000000; fill-opacity:0.0; 
stroke:#000000; stroke-width:59.0551; stroke-opacity:1; 
stroke-linecap:round; stroke-linejoin:round;">
<path d="M11809 63586
L11809 64767
" />
</g>
<g style="fill:#000000; fill-opacity:0.0; 
stroke:#000000; stroke-width:39.3701; stroke-opacity:1; 
stroke-linecap:round; stroke-linejoin:round;">
</g>
<g style="fill:#000000; fill-opacity:0.0; 
stroke:#000000; stroke-width:59.0551; stroke-opacity:1; 
stroke-linecap:round; stroke-linejoin:round;">
<path d="M37006 63586
L37006 66145
" />
</g>
<g style="fill:#848400; fill-opacity:0.0; 
stroke:#848400; stroke-width:59.0551; stroke-opacity:1; 
stroke-linecap:round; stroke-linejoin:round;">
</g>
<g style="fill:#848400; fill-opacity:1.0; 
stroke:#848400; stroke-width:0; stroke-opacity:1; 
stroke-linecap:round; stroke-linejoin:round;">
<polyline style="fill-rule:evenodd;"
points="31062,41456
29881,41456
29881,40275
31062,40275
31062,41456
" /> 
<polyline style="fill-rule:evenodd;"
points="23976,41456
22795,41456
22795,40275
23976,40275
23976,41456
" /> 
<polyline style="fill-rule:evenodd;"
points="21520,40290
21558,40298
21665,40342
21760,40406
21762,40407
21844,40489
21909,40586
21953,40693
21976,40807
21976,40924
21953,41038
21909,41145
21844,41242
21762,41324
21762,41324
21665,41389
21558,41433
21520,41441
21443,41456
21327,41456
21251,41441
21213,41433
21106,41389
21009,41324
21009,41324
20927,41242
20862,41145
20817,41038
20795,40924
20795,40807
20817,40693
20862,40586
20927,40489
21009,40407
21010,40406
21106,40342
21213,40298
21251,40290
21327,40275
21443,40275
21520,40290
" /> 
<polyline style="fill-rule:evenodd;"
points="28606,40290
28644,40298
28752,40342
28847,40406
28848,40407
28931,40489
28995,40586
29040,40693
29062,40807
29062,40924
29040,41038
28995,41145
28931,41242
28848,41324
28848,41324
28752,41389
28644,41433
28606,41441
28530,41456
28414,41456
28338,41441
28300,41433
28192,41389
28095,41324
28095,41324
28013,41242
27949,41145
27904,41038
27881,40924
27881,40807
27904,40693
27949,40586
28013,40489
28095,40407
28097,40406
28192,40342
28300,40298
28338,40290
28414,40275
28530,40275
28606,40290
" /> 
<polyline style="fill-rule:evenodd;"
points="26606,40290
26644,40298
26752,40342
26847,40406
26848,40407
26931,40489
26995,40586
27040,40693
27062,40807
27062,40924
27040,41038
26995,41145
26931,41242
26848,41324
26848,41324
26752,41389
26644,41433
26606,41441
26530,41456
26414,41456
26338,41441
26300,41433
26192,41389
26095,41324
26095,41324
26013,41242
25949,41145
25904,41038
25881,40924
25881,40807
25904,40693
25949,40586
26013,40489
26095,40407
26097,40406
26192,40342
26300,40298
26338,40290
26414,40275
26530,40275
26606,40290
" /> 
<polyline style="fill-rule:evenodd;"
points="19190,36122
19190,36122
19190,36122
19221,36134
19274,36156
19350,36207
19414,36272
19465,36347
19499,36431
19517,36521
19517,36612
19499,36701
19465,36786
19414,36861
19350,36926
19274,36976
19221,36998
19190,37011
19190,37011
19190,37011
19100,37029
19009,37029
18920,37011
18920,37011
18920,37011
18889,36998
18835,36976
18760,36926
18695,36861
18645,36786
18610,36701
18592,36612
18592,36521
18610,36431
18645,36347
18695,36272
18760,36207
18835,36156
18889,36134
18920,36122
18920,36122
18920,36122
19009,36104
19100,36104
19190,36122
" /> 
<polyline style="fill-rule:evenodd;"
points="25221,36122
25221,36122
25221,36122
25252,36134
25305,36156
25381,36207
25445,36272
25496,36347
25531,36431
25549,36521
25549,36612
25531,36701
25496,36786
25445,36861
25381,36926
25305,36976
25252,36998
25221,37011
25221,37011
25221,37011
25132,37029
25041,37029
24951,37011
24951,37011
24951,37011
24920,36998
24867,36976
24791,36926
24727,36861
24676,36786
24641,36701
24624,36612
24624,36521
24641,36431
24676,36347
24727,36272
24791,36207
24867,36156
24920,36134
24951,36122
24951,36122
24951,36122
25041,36104
25132,36104
25221,36122
" /> 
<polyline style="fill-rule:evenodd;"
points="12431,34657
12463,34663
12554,34701
12635,34755
12635,34755
12704,34825
12704,34825
12759,34906
12796,34996
12815,35092
12815,35190
12796,35286
12759,35377
12705,35457
12704,35458
12635,35527
12635,35527
12554,35582
12463,35619
12431,35625
12367,35638
12269,35638
12205,35625
12173,35619
12083,35582
12002,35527
12002,35527
11932,35458
11932,35457
11878,35377
11841,35286
11822,35190
11822,35092
11841,34996
11878,34906
11932,34825
11932,34825
12002,34755
12002,34755
12083,34701
12173,34663
12205,34657
12269,34644
12367,34644
12431,34657
" /> 
<polyline style="fill-rule:evenodd;"
points="25221,34122
25221,34122
25221,34122
25252,34134
25305,34156
25381,34207
25445,34272
25496,34347
25531,34431
25549,34521
25549,34612
25531,34701
25496,34786
25445,34861
25381,34926
25305,34976
25257,34996
25221,35011
25221,35011
25221,35011
25132,35029
25041,35029
24951,35011
24951,35011
24951,35011
24915,34996
24867,34976
24791,34926
24727,34861
24676,34786
24641,34701
24624,34612
24624,34521
24641,34431
24676,34347
24727,34272
24791,34207
24867,34156
24920,34134
24951,34122
24951,34122
24951,34122
25041,34104
25132,34104
25221,34122
" /> 
<polyline style="fill-rule:evenodd;"
points="19190,34122
19190,34122
19190,34122
19221,34134
19274,34156
19350,34207
19414,34272
19465,34347
19499,34431
19517,34521
19517,34612
19499,34701
19465,34786
19414,34861
19350,34926
19274,34976
19226,34996
19190,35011
19190,35011
19190,35011
19100,35029
19009,35029
18920,35011
18920,35011
18920,35011
18884,34996
18835,34976
18760,34926
18695,34861
18645,34786
18610,34701
18592,34612
18592,34521
18610,34431
18645,34347
18695,34272
18760,34207
18835,34156
18889,34134
18920,34122
18920,34122
18920,34122
19009,34104
19100,34104
19190,34122
" /> 
<polyline style="fill-rule:evenodd;"
points="15196,32973
14409,32973
14409,32223
15196,32223
15196,32973
" /> 
<polyline style="fill-rule:evenodd;"
points="21115,32295
21172,32319
21224,32353
21268,32397
21302,32449
21326,32506
21338,32567
21338,32629
21326,32690
21302,32747
21268,32799
21224,32843
21172,32877
21115,32901
21054,32913
20992,32913
20931,32901
20874,32877
20822,32843
20778,32799
20744,32747
20720,32690
20708,32629
20708,32567
20720,32506
20744,32449
20778,32397
20822,32353
20874,32319
20931,32295
20992,32283
21054,32283
21115,32295
" /> 
<polyline style="fill-rule:evenodd;"
points="19146,32295
19204,32319
19255,32353
19299,32397
19334,32449
19357,32506
19370,32567
19370,32629
19357,32690
19334,32747
19299,32799
19255,32843
19204,32877
19146,32901
19086,32913
19024,32913
18963,32901
18905,32877
18854,32843
18810,32799
18776,32747
18752,32690
18740,32629
18740,32567
18752,32506
18776,32449
18810,32397
18854,32353
18905,32319
18963,32295
19024,32283
19086,32283
19146,32295
" /> 
<polyline style="fill-rule:evenodd;"
points="26542,32034
26584,32051
26621,32076
26653,32108
26678,32145
26695,32187
26704,32231
26704,32276
26695,32320
26678,32362
26653,32399
26621,32431
26584,32456
26542,32473
26498,32482
26453,32482
26409,32473
26368,32456
26330,32431
26299,32399
26274,32362
26256,32320
26248,32276
26248,32231
26256,32187
26274,32145
26299,32108
26330,32076
26368,32051
26409,32034
26453,32025
26498,32025
26542,32034
" /> 
<polyline style="fill-rule:evenodd;"
points="28550,32034
28592,32051
28629,32076
28661,32108
28686,32145
28703,32187
28712,32231
28712,32276
28703,32320
28686,32362
28661,32399
28629,32431
28592,32456
28550,32473
28506,32482
28461,32482
28417,32473
28376,32456
28338,32431
28306,32399
28281,32362
28264,32320
28255,32276
28255,32231
28264,32187
28281,32145
28306,32108
28338,32076
28376,32051
28417,32034
28461,32025
28506,32025
28550,32034
" /> 
<polyline style="fill-rule:evenodd;"
points="14895,31228
14966,31250
15031,31285
15088,31331
15135,31389
15169,31454
15191,31524
15198,31598
15191,31671
15169,31742
15135,31807
15088,31864
15031,31911
14966,31946
14895,31967
14840,31973
14766,31973
14710,31967
14640,31946
14575,31911
14518,31864
14471,31807
14436,31742
14414,31671
14407,31598
14414,31524
14436,31454
14471,31389
14518,31331
14575,31285
14640,31250
14710,31228
14766,31223
14840,31223
14895,31228
" /> 
<polyline style="fill-rule:evenodd;"
points="38512,30961
38590,30994
38661,31041
38722,31101
38769,31172
38802,31251
38818,31335
38818,31420
38802,31504
38769,31583
38722,31654
38661,31714
38590,31761
38512,31794
38428,31811
38343,31811
38259,31794
38180,31761
38109,31714
38049,31654
38002,31583
37969,31504
37952,31420
37952,31335
37969,31251
38002,31172
38049,31101
38109,31041
38180,30994
38259,30961
38343,30944
38428,30944
38512,30961
" /> 
<polyline style="fill-rule:evenodd;"
points="40480,30961
40559,30994
40630,31041
40690,31101
40738,31172
40770,31251
40787,31335
40787,31420
40770,31504
40738,31583
40690,31654
40630,31714
40559,31761
40480,31794
40396,31811
40311,31811
40228,31794
40149,31761
40078,31714
40017,31654
39970,31583
39937,31504
39921,31420
39921,31335
39937,31251
39970,31172
40017,31101
40078,31041
40149,30994
40228,30961
40311,30944
40396,30944
40480,30961
" /> 
<polyline style="fill-rule:evenodd;"
points="14895,30228
14966,30250
15031,30285
15088,30331
15135,30389
15169,30454
15191,30524
15198,30598
15191,30671
15169,30742
15135,30807
15088,30864
15031,30911
14966,30946
14895,30967
14840,30973
14766,30973
14710,30967
14640,30946
14575,30911
14518,30864
14471,30807
14436,30742
14414,30671
14407,30598
14414,30524
14436,30454
14471,30389
14518,30331
14575,30285
14640,30250
14710,30228
14766,30223
14840,30223
14895,30228
" /> 
<polyline style="fill-rule:evenodd;"
points="26542,28786
26584,28803
26621,28828
26653,28860
26678,28897
26695,28939
26704,28983
26704,29028
26695,29072
26678,29114
26653,29151
26621,29183
26584,29208
26542,29225
26498,29234
26453,29234
26409,29225
26368,29208
26330,29183
26299,29151
26274,29114
26256,29072
26248,29028
26248,28983
26256,28939
26274,28897
26299,28860
26330,28828
26368,28803
26409,28786
26453,28777
26498,28777
26542,28786
" /> 
<polyline style="fill-rule:evenodd;"
points="28712,29234
28255,29234
28255,28777
28712,28777
28712,29234
" /> 
<polyline style="fill-rule:evenodd;"
points="12431,27570
12463,27577
12554,27614
12635,27668
12635,27669
12704,27738
12704,27738
12759,27819
12796,27910
12815,28006
12815,28104
12796,28200
12759,28290
12705,28371
12704,28371
12635,28441
12635,28441
12554,28495
12463,28532
12431,28539
12367,28551
12269,28551
12205,28539
12173,28532
12083,28495
12002,28441
12002,28441
11932,28371
11932,28371
11878,28290
11841,28200
11822,28104
11822,28006
11841,27910
11878,27819
11932,27738
11932,27738
12002,27669
12002,27668
12083,27614
12173,27577
12205,27570
12269,27558
12367,27558
12431,27570
" /> 
<polyline style="fill-rule:evenodd;"
points="19148,26782
19164,26784
19193,26793
19223,26802
19278,26831
19326,26870
19365,26918
19394,26973
19412,27032
19418,27094
19412,27156
19394,27215
19365,27270
19326,27318
19278,27357
19223,27386
19193,27395
19164,27404
19148,27406
19117,27409
19086,27409
19056,27406
19040,27404
19010,27395
18981,27386
18926,27357
18878,27318
18839,27270
18809,27215
18791,27156
18785,27094
18791,27032
18809,26973
18839,26918
18878,26870
18926,26831
18981,26802
19010,26793
19040,26784
19056,26782
19086,26779
19117,26779
19148,26782
" /> 
<polyline style="fill-rule:evenodd;"
points="20148,26782
20164,26784
20193,26793
20223,26802
20278,26831
20326,26870
20365,26918
20394,26973
20412,27032
20418,27094
20412,27156
20394,27215
20365,27270
20326,27318
20278,27357
20223,27386
20193,27395
20164,27404
20148,27406
20117,27409
20086,27409
20056,27406
20040,27404
20010,27395
19981,27386
19926,27357
19878,27318
19839,27270
19809,27215
19791,27156
19785,27094
19791,27032
19809,26973
19839,26918
19878,26870
19926,26831
19981,26802
20010,26793
20040,26784
20056,26782
20086,26779
20117,26779
20148,26782
" /> 
<polyline style="fill-rule:evenodd;"
points="21148,26782
21164,26784
21193,26793
21223,26802
21278,26831
21326,26870
21365,26918
21394,26973
21412,27032
21418,27094
21412,27156
21394,27215
21365,27270
21326,27318
21278,27357
21223,27386
21193,27395
21164,27404
21148,27406
21117,27409
21086,27409
21056,27406
21040,27404
21010,27395
20981,27386
20926,27357
20878,27318
20839,27270
20809,27215
20791,27156
20785,27094
20791,27032
20809,26973
20839,26918
20878,26870
20926,26831
20981,26802
21010,26793
21040,26784
21056,26782
21086,26779
21117,26779
21148,26782
" /> 
<polyline style="fill-rule:evenodd;"
points="25770,26774
25786,26776
25797,26779
25845,26794
25900,26823
25948,26862
25987,26910
26016,26965
26034,27024
26040,27086
26034,27148
26016,27207
25987,27262
25948,27310
25900,27349
25845,27379
25819,27386
25786,27397
25770,27398
25739,27401
25708,27401
25678,27398
25662,27397
25629,27386
25603,27379
25548,27349
25500,27310
25461,27262
25432,27207
25414,27148
25407,27086
25414,27024
25432,26965
25461,26910
25500,26862
25548,26823
25603,26794
25651,26779
25662,26776
25678,26774
25708,26771
25739,26771
25770,26774
" /> 
<polyline style="fill-rule:evenodd;"
points="25039,27401
24409,27401
24409,26771
25039,26771
25039,27401
" /> 
<polyline style="fill-rule:evenodd;"
points="19148,23782
19164,23784
19193,23793
19223,23802
19278,23831
19326,23870
19365,23918
19394,23973
19412,24032
19418,24094
19412,24156
19394,24215
19365,24270
19326,24318
19278,24357
19223,24386
19193,24395
19164,24404
19148,24406
19117,24409
19086,24409
19056,24406
19040,24404
19010,24395
18981,24386
18926,24357
18878,24318
18839,24270
18809,24215
18791,24156
18785,24094
18791,24032
18809,23973
18839,23918
18878,23870
18926,23831
18981,23802
19010,23793
19040,23784
19056,23782
19086,23779
19117,23779
19148,23782
" /> 
<polyline style="fill-rule:evenodd;"
points="20148,23782
20164,23784
20193,23793
20223,23802
20278,23831
20326,23870
20365,23918
20394,23973
20412,24032
20418,24094
20412,24156
20394,24215
20365,24270
20326,24318
20278,24357
20223,24386
20193,24395
20164,24404
20148,24406
20117,24409
20086,24409
20056,24406
20040,24404
20010,24395
19981,24386
19926,24357
19878,24318
19839,24270
19809,24215
19791,24156
19785,24094
19791,24032
19809,23973
19839,23918
19878,23870
19926,23831
19981,23802
20010,23793
20040,23784
20056,23782
20086,23779
20117,23779
20148,23782
" /> 
<polyline style="fill-rule:evenodd;"
points="21417,24409
20787,24409
20787,23779
21417,23779
21417,24409
" /> 
<polyline style="fill-rule:evenodd;"
points="25770,23774
25786,23776
25797,23779
25845,23794
25900,23823
25948,23862
25987,23910
26016,23965
26034,24024
26040,24086
26034,24148
26016,24207
25987,24262
25948,24310
25900,24349
25845,24379
25819,24386
25786,24397
25770,24398
25739,24401
25708,24401
25678,24398
25662,24397
25629,24386
25603,24379
25548,24349
25500,24310
25461,24262
25432,24207
25414,24148
25407,24086
25414,24024
25432,23965
25461,23910
25500,23862
25548,23823
25603,23794
25651,23779
25662,23776
25678,23774
25708,23771
25739,23771
25770,23774
" /> 
<polyline style="fill-rule:evenodd;"
points="24770,23774
24786,23776
24797,23779
24845,23794
24900,23823
24948,23862
24987,23910
25016,23965
25034,24024
25040,24086
25034,24148
25016,24207
24987,24262
24948,24310
24900,24349
24845,24379
24819,24386
24786,24397
24770,24398
24739,24401
24708,24401
24678,24398
24662,24397
24629,24386
24603,24379
24548,24349
24500,24310
24461,24262
24432,24207
24414,24148
24407,24086
24414,24024
24432,23965
24461,23910
24500,23862
24548,23823
24603,23794
24651,23779
24662,23776
24678,23774
24708,23771
24739,23771
24770,23774
" /> 
<polyline style="fill-rule:evenodd;"
points="14911,22092
14957,22101
15029,22131
15093,22174
15148,22229
15191,22293
15221,22365
15236,22441
15236,22519
15221,22595
15191,22666
15148,22731
15093,22786
15029,22829
14957,22858
14911,22867
14881,22874
14803,22874
14773,22867
14727,22858
14656,22829
14591,22786
14536,22731
14493,22666
14463,22595
14448,22519
14448,22441
14463,22365
14493,22293
14536,22229
14591,22174
14656,22131
14727,22101
14773,22092
14803,22086
14881,22086
14911,22092
" /> 
<polyline style="fill-rule:evenodd;"
points="16683,22092
16729,22101
16800,22131
16865,22174
16919,22229
16963,22293
16992,22365
17007,22441
17007,22519
16992,22595
16963,22666
16919,22731
16865,22786
16800,22829
16729,22858
16683,22867
16652,22874
16575,22874
16544,22867
16499,22858
16427,22829
16363,22786
16308,22731
16265,22666
16235,22595
16220,22519
16220,22441
16235,22365
16265,22293
16308,22229
16363,22174
16427,22131
16499,22101
16544,22092
16575,22086
16652,22086
16683,22092
" /> 
<polyline style="fill-rule:evenodd;"
points="24986,22677
24513,22677
24513,22204
24986,22204
24986,22677
" /> 
<polyline style="fill-rule:evenodd;"
points="24818,21623
24861,21641
24900,21666
24933,21699
24959,21738
24977,21781
24986,21827
24986,21873
24977,21919
24959,21962
24933,22000
24900,22033
24861,22059
24818,22077
24773,22086
24726,22086
24681,22077
24638,22059
24599,22033
24566,22000
24540,21962
24522,21919
24513,21873
24513,21827
24522,21781
24540,21738
24566,21699
24599,21666
24638,21641
24681,21623
24726,21614
24773,21614
24818,21623
" /> 
<polyline style="fill-rule:evenodd;"
points="16683,19533
16729,19542
16800,19572
16865,19615
16919,19670
16963,19734
16992,19806
17007,19882
17007,19960
16992,20036
16963,20107
16919,20172
16865,20227
16800,20270
16729,20299
16683,20308
16652,20314
16575,20314
16544,20308
16499,20299
16427,20270
16363,20227
16308,20172
16265,20107
16235,20036
16220,19960
16220,19882
16235,19806
16265,19734
16308,19670
16363,19615
16427,19572
16499,19542
16544,19533
16575,19527
16652,19527
16683,19533
" /> 
<polyline style="fill-rule:evenodd;"
points="14911,19533
14957,19542
15029,19572
15093,19615
15148,19670
15191,19734
15221,19806
15236,19882
15236,19960
15221,20036
15191,20107
15148,20172
15093,20227
15029,20270
14957,20299
14911,20308
14881,20314
14803,20314
14773,20308
14727,20299
14656,20270
14591,20227
14536,20172
14493,20107
14463,20036
14448,19960
14448,19882
14463,19806
14493,19734
14536,19670
14591,19615
14656,19572
14727,19542
14773,19533
14803,19527
14881,19527
14911,19533
" /> 
<polyline style="fill-rule:evenodd;"
points="42527,19386
42606,19419
42677,19466
42737,19527
42785,19598
42818,19676
42834,19760
42834,19845
42818,19929
42785,20008
42737,20079
42677,20139
42677,20139
42677,20139
42606,20186
42606,20186
42527,20219
42444,20236
42358,20236
42275,20219
42196,20186
42196,20186
42125,20139
42125,20139
42125,20139
42065,20079
42017,20008
41985,19929
41968,19845
41968,19760
41985,19676
42017,19598
42065,19527
42125,19466
42196,19419
42275,19386
42358,19370
42444,19370
42527,19386
" /> 
<polyline style="fill-rule:evenodd;"
points="36464,19386
36543,19419
36614,19466
36674,19527
36722,19598
36755,19676
36771,19760
36771,19845
36755,19929
36722,20008
36674,20079
36614,20139
36614,20139
36614,20139
36543,20186
36543,20186
36464,20219
36381,20236
36295,20236
36212,20219
36133,20186
36133,20186
36062,20139
36062,20139
36062,20139
36002,20079
35954,20008
35922,19929
35905,19845
35905,19760
35922,19676
35954,19598
36002,19527
36062,19466
36133,19419
36212,19386
36295,19370
36381,19370
36464,19386
" /> 
<polyline style="fill-rule:evenodd;"
points="27193,17151
27258,17178
27316,17216
27365,17266
27404,17324
27431,17388
27444,17457
27444,17527
27431,17595
27404,17659
27365,17718
27316,17767
27258,17806
27193,17832
27125,17846
27055,17846
26987,17832
26922,17806
26864,17767
26815,17718
26776,17659
26749,17595
26736,17527
26736,17457
26749,17388
26776,17324
26815,17266
26864,17216
26922,17178
26987,17151
27055,17137
27125,17137
27193,17151
" /> 
<polyline style="fill-rule:evenodd;"
points="26193,17151
26258,17178
26316,17216
26365,17266
26404,17324
26431,17388
26444,17457
26444,17527
26431,17595
26404,17659
26365,17718
26316,17767
26258,17806
26193,17832
26125,17846
26055,17846
25987,17832
25922,17806
25864,17767
25815,17718
25776,17659
25749,17595
25736,17527
25736,17457
25749,17388
25776,17324
25815,17266
25864,17216
25922,17178
25987,17151
26055,17137
26125,17137
26193,17151
" /> 
<polyline style="fill-rule:evenodd;"
points="25193,17151
25258,17178
25316,17216
25365,17266
25404,17324
25431,17388
25444,17457
25444,17527
25431,17595
25404,17659
25365,17718
25316,17767
25258,17806
25193,17832
25125,17846
25055,17846
24987,17832
24922,17806
24864,17767
24815,17718
24776,17659
24749,17595
24736,17527
24736,17457
24749,17388
24776,17324
24815,17266
24864,17216
24922,17178
24987,17151
25055,17137
25125,17137
25193,17151
" /> 
<polyline style="fill-rule:evenodd;"
points="23193,17151
23258,17178
23316,17216
23365,17266
23404,17324
23431,17388
23444,17457
23444,17527
23431,17595
23404,17659
23365,17718
23316,17767
23258,17806
23193,17832
23125,17846
23055,17846
22987,17832
22922,17806
22864,17767
22815,17718
22776,17659
22749,17595
22736,17527
22736,17457
22749,17388
22776,17324
22815,17266
22864,17216
22922,17178
22987,17151
23055,17137
23125,17137
23193,17151
" /> 
<polyline style="fill-rule:evenodd;"
points="22193,17151
22258,17178
22316,17216
22365,17266
22404,17324
22431,17388
22444,17457
22444,17527
22431,17595
22404,17659
22365,17718
22316,17767
22258,17806
22193,17832
22125,17846
22055,17846
21987,17832
21922,17806
21864,17767
21815,17718
21776,17659
21749,17595
21736,17527
21736,17457
21749,17388
21776,17324
21815,17266
21864,17216
21922,17178
21987,17151
22055,17137
22125,17137
22193,17151
" /> 
<polyline style="fill-rule:evenodd;"
points="28193,17151
28258,17178
28316,17216
28365,17266
28404,17324
28431,17388
28444,17457
28444,17527
28431,17595
28404,17659
28365,17718
28316,17767
28258,17806
28193,17832
28125,17846
28055,17846
27987,17832
27922,17806
27864,17767
27815,17718
27776,17659
27749,17595
27736,17527
27736,17457
27749,17388
27776,17324
27815,17266
27864,17216
27922,17178
27987,17151
28055,17137
28125,17137
28193,17151
" /> 
<polyline style="fill-rule:evenodd;"
points="29193,17151
29258,17178
29316,17216
29365,17266
29404,17324
29431,17388
29444,17457
29444,17527
29431,17595
29404,17659
29365,17718
29316,17767
29258,17806
29193,17832
29125,17846
29055,17846
28987,17832
28922,17806
28864,17767
28815,17718
28776,17659
28749,17595
28736,17527
28736,17457
28749,17388
28776,17324
28815,17266
28864,17216
28922,17178
28987,17151
29055,17137
29125,17137
29193,17151
" /> 
<polyline style="fill-rule:evenodd;"
points="24193,17151
24258,17178
24316,17216
24365,17266
24404,17324
24431,17388
24444,17457
24444,17527
24431,17595
24404,17659
24365,17718
24316,17767
24258,17806
24193,17832
24125,17846
24055,17846
23987,17832
23922,17806
23864,17767
23815,17718
23776,17659
23749,17595
23736,17527
23736,17457
23749,17388
23776,17324
23815,17266
23864,17216
23922,17178
23987,17151
24055,17137
24125,17137
24193,17151
" /> 
<polyline style="fill-rule:evenodd;"
points="36233,13555
36290,13579
36342,13613
36386,13657
36420,13709
36444,13766
36456,13827
36456,13889
36444,13950
36420,14007
36386,14059
36342,14102
36290,14137
36233,14161
36172,14173
36110,14173
36049,14161
35992,14137
35940,14102
35897,14059
35862,14007
35838,13950
35826,13889
35826,13827
35838,13766
35862,13709
35897,13657
35940,13613
35992,13579
36049,13555
36110,13543
36172,13543
36233,13555
" /> 
<polyline style="fill-rule:evenodd;"
points="36233,12374
36290,12398
36342,12432
36386,12476
36420,12527
36444,12585
36456,12646
36456,12708
36444,12769
36420,12826
36386,12877
36342,12921
36290,12956
36233,12980
36172,12992
36110,12992
36049,12980
35992,12956
35940,12921
35897,12877
35862,12826
35838,12769
35826,12708
35826,12646
35838,12585
35862,12527
35897,12476
35940,12432
35992,12398
36049,12374
36110,12362
36172,12362
36233,12374
" /> 
<polyline style="fill-rule:evenodd;"
points="22193,8151
22258,8178
22316,8216
22365,8266
22404,8324
22431,8388
22444,8457
22444,8527
22431,8595
22404,8659
22365,8718
22316,8767
22258,8806
22193,8832
22125,8846
22055,8846
21987,8832
21922,8806
21864,8767
21815,8718
21776,8659
21749,8595
21736,8527
21736,8457
21749,8388
21776,8324
21815,8266
21864,8216
21922,8178
21987,8151
22055,8137
22125,8137
22193,8151
" /> 
<polyline style="fill-rule:evenodd;"
points="29193,8151
29258,8178
29316,8216
29365,8266
29404,8324
29431,8388
29444,8457
29444,8527
29431,8595
29404,8659
29365,8718
29316,8767
29258,8806
29193,8832
29125,8846
29055,8846
28987,8832
28922,8806
28864,8767
28815,8718
28776,8659
28749,8595
28736,8527
28736,8457
28749,8388
28776,8324
28815,8266
28864,8216
28922,8178
28987,8151
29055,8137
29125,8137
29193,8151
" /> 
<polyline style="fill-rule:evenodd;"
points="28193,8151
28258,8178
28316,8216
28365,8266
28404,8324
28431,8388
28444,8457
28444,8527
28431,8595
28404,8659
28365,8718
28316,8767
28258,8806
28193,8832
28125,8846
28055,8846
27987,8832
27922,8806
27864,8767
27815,8718
27776,8659
27749,8595
27736,8527
27736,8457
27749,8388
27776,8324
27815,8266
27864,8216
27922,8178
27987,8151
28055,8137
28125,8137
28193,8151
" /> 
<polyline style="fill-rule:evenodd;"
points="27193,8151
27258,8178
27316,8216
27365,8266
27404,8324
27431,8388
27444,8457
27444,8527
27431,8595
27404,8659
27365,8718
27316,8767
27258,8806
27193,8832
27125,8846
27055,8846
26987,8832
26922,8806
26864,8767
26815,8718
26776,8659
26749,8595
26736,8527
26736,8457
26749,8388
26776,8324
26815,8266
26864,8216
26922,8178
26987,8151
27055,8137
27125,8137
27193,8151
" /> 
<polyline style="fill-rule:evenodd;"
points="26193,8151
26258,8178
26316,8216
26365,8266
26404,8324
26431,8388
26444,8457
26444,8527
26431,8595
26404,8659
26365,8718
26316,8767
26258,8806
26193,8832
26125,8846
26055,8846
25987,8832
25922,8806
25864,8767
25815,8718
25776,8659
25749,8595
25736,8527
25736,8457
25749,8388
25776,8324
25815,8266
25864,8216
25922,8178
25987,8151
26055,8137
26125,8137
26193,8151
" /> 
<polyline style="fill-rule:evenodd;"
points="25193,8151
25258,8178
25316,8216
25365,8266
25404,8324
25431,8388
25444,8457
25444,8527
25431,8595
25404,8659
25365,8718
25316,8767
25258,8806
25193,8832
25125,8846
25055,8846
24987,8832
24922,8806
24864,8767
24815,8718
24776,8659
24749,8595
24736,8527
24736,8457
24749,8388
24776,8324
24815,8266
24864,8216
24922,8178
24987,8151
25055,8137
25125,8137
25193,8151
" /> 
<polyline style="fill-rule:evenodd;"
points="24193,8151
24258,8178
24316,8216
24365,8266
24404,8324
24431,8388
24444,8457
24444,8527
24431,8595
24404,8659
24365,8718
24316,8767
24258,8806
24193,8832
24125,8846
24055,8846
23987,8832
23922,8806
23864,8767
23815,8718
23776,8659
23749,8595
23736,8527
23736,8457
23749,8388
23776,8324
23815,8266
23864,8216
23922,8178
23987,8151
24055,8137
24125,8137
24193,8151
" /> 
<polyline style="fill-rule:evenodd;"
points="23193,8151
23258,8178
23316,8216
23365,8266
23404,8324
23431,8388
23444,8457
23444,8527
23431,8595
23404,8659
23365,8718
23316,8767
23258,8806
23193,8832
23125,8846
23055,8846
22987,8832
22922,8806
22864,8767
22815,8718
22776,8659
22749,8595
22736,8527
22736,8457
22749,8388
22776,8324
22815,8266
22864,8216
22922,8178
22987,8151
23055,8137
23125,8137
23193,8151
" /> 
</g>
<g style="fill:#000000; fill-opacity:1.0; 
stroke:#000000; stroke-width:0; stroke-opacity:1; 
stroke-linecap:round; stroke-linejoin:round;">
</g>
<g style="fill:#C2C200; fill-opacity:1.0; 
stroke:#C2C200; stroke-width:0; stroke-opacity:1; 
stroke-linecap:round; stroke-linejoin:round;">
</g>
<g style="fill:#C2C200; fill-opacity:1.0; 
stroke:#C2C200; stroke-width:78.7402; stroke-opacity:1; 
stroke-linecap:round; stroke-linejoin:round;">
</g>
<g style="fill:#C2C200; fill-opacity:0.0; 
stroke:#C2C200; stroke-width:78.7402; stroke-opacity:1; 
stroke-linecap:round; stroke-linejoin:round;">
<path d="M32755 43937
L18425 43937
" />
<path d="M9842.52 25000 A590.551 590.551 0.0 0 0 9842.52 26181.1 " />
<path d="M41338.6 26181.1 A590.551 590.551 0.0 0 0 41338.6 25000 " />
<path d="M9842 26181
L41338 26181
" />
<path d="M9842 25000
L41338 25000
" />
<circle cx="25590.6" cy="25590.6" r="19685" /> 
</g> 
</svg>
