<?xml version="1.0" standalone="no"?>
 <!DOCTYPE svg PUBLIC "-//W3C//DTD SVG 1.1//EN" 
 "http://www.w3.org/Graphics/SVG/1.1/DTD/svg11.dtd"> 
<svg xmlns="http://www.w3.org/2000/svg" version="1.1" 
    width="12.9997cm" height="18.001cm" viewBox="0 0 51180 70870 ">
<title>SVG Picture created as mains-light-controller-F.SilkS.svg date 2019/06/07 04:15:04 </title>
  <desc>Picture generated by PCBNEW </desc>
<g style="fill:#000000; fill-opacity:1;stroke:#000000; stroke-opacity:1;
stroke-linecap:round; stroke-linejoin:round; "
 transform="translate(0 0) scale(1 1)">
</g>
<g style="fill:#000000; fill-opacity:0.0; 
stroke:#000000; stroke-width:-0.000393701; stroke-opacity:1; 
stroke-linecap:round; stroke-linejoin:round;">
</g>
<g style="fill:#000000; fill-opacity:0.0; 
stroke:#000000; stroke-width:50; stroke-opacity:1; 
stroke-linecap:round; stroke-linejoin:round;">
<path d="M9692 10737
L9692 2862
" />
<path d="M-3692 2862
L-3692 10737
" />
<path d="M-3692 10737
L9692 10737
" />
<path d="M9692 2862
L-3692 2862
" />
</g>
<g style="fill:#000000; fill-opacity:0.0; 
stroke:#000000; stroke-width:47.2441; stroke-opacity:1; 
stroke-linecap:round; stroke-linejoin:round;">
<path d="M43257 -7904
L43257 -8034
" />
<path d="M40682 -7904
L43257 -7904
" />
<path d="M40682 -8034
L40682 -7904
" />
<path d="M43257 -8983
L43257 -8853
" />
<path d="M40682 -8983
L43257 -8983
" />
<path d="M40682 -8853
L40682 -8983
" />
<path d="M55863 -19813
L55863 -19943
" />
<path d="M55863 -19943
L58438 -19943
" />
<path d="M58438 -19943
L58438 -19813
" />
<path d="M55863 -18994
L55863 -18864
" />
<path d="M55863 -18864
L58438 -18864
" />
<path d="M58438 -18864
L58438 -18994
" />
<path d="M52276 -14219
L52276 -14349
" />
<path d="M49701 -14219
L52276 -14219
" />
<path d="M49701 -14349
L49701 -14219
" />
<path d="M52276 -15298
L52276 -15168
" />
<path d="M49701 -15298
L52276 -15298
" />
<path d="M49701 -15168
L49701 -15298
" />
<path d="M25035 -23671
L25035 -23801
" />
<path d="M25035 -23801
L27610 -23801
" />
<path d="M27610 -23801
L27610 -23671
" />
<path d="M25035 -22852
L25035 -22722
" />
<path d="M25035 -22722
L27610 -22722
" />
<path d="M27610 -22722
L27610 -22852
" />
<path d="M25394 -19757
L27165 -19757
" />
<path d="M24901 -21332
L24901 -20742
" />
<path d="M27165 -22316
L25394 -22316
" />
<path d="M27657 -20742
L27657 -21332
" />
</g>
<g style="fill:#000000; fill-opacity:0.0; 
stroke:#000000; stroke-width:78.7402; stroke-opacity:1; 
stroke-linecap:round; stroke-linejoin:round;">
<path d="M5063 -7357
L8195 -7357
" />
<path d="M5636 -4007
L8195 -4007
" />
</g>
<g style="fill:#000000; fill-opacity:0.0; 
stroke:#000000; stroke-width:47.2441; stroke-opacity:1; 
stroke-linecap:round; stroke-linejoin:round;">
<circle cx="51295.3" cy="-26600" r="834.646" /> 
<path d="M51295 -26269
L51295 -25781
" />
<path d="M51295 -27418
L51295 -26930
" />
<path d="M51311 -26269
L51311 -25781
" />
<path d="M51311 -27418
L51311 -26930
" />
<path d="M51326 -26269
L51326 -25781
" />
<path d="M51326 -27418
L51326 -26930
" />
<path d="M51342 -27417
L51342 -26930
" />
<path d="M51342 -26269
L51342 -25782
" />
<path d="M51358 -27416
L51358 -26930
" />
<path d="M51358 -26269
L51358 -25783
" />
<path d="M51374 -27415
L51374 -26930
" />
<path d="M51374 -26269
L51374 -25784
" />
<path d="M51389 -27413
L51389 -26930
" />
<path d="M51389 -26269
L51389 -25786
" />
<path d="M51405 -27411
L51405 -26930
" />
<path d="M51405 -26269
L51405 -25788
" />
<path d="M51421 -27409
L51421 -26930
" />
<path d="M51421 -26269
L51421 -25790
" />
<path d="M51437 -27407
L51437 -26930
" />
<path d="M51437 -26269
L51437 -25792
" />
<path d="M51452 -27403
L51452 -26930
" />
<path d="M51452 -26269
L51452 -25796
" />
<path d="M51468 -27400
L51468 -26930
" />
<path d="M51468 -26269
L51468 -25799
" />
<path d="M51484 -27397
L51484 -26930
" />
<path d="M51484 -26269
L51484 -25802
" />
<path d="M51500 -27393
L51500 -26930
" />
<path d="M51500 -26269
L51500 -25806
" />
<path d="M51515 -27389
L51515 -26930
" />
<path d="M51515 -26269
L51515 -25810
" />
<path d="M51531 -27385
L51531 -26930
" />
<path d="M51531 -26269
L51531 -25814
" />
<path d="M51547 -27380
L51547 -26930
" />
<path d="M51547 -26269
L51547 -25819
" />
<path d="M51562 -27374
L51562 -26930
" />
<path d="M51562 -26269
L51562 -25825
" />
<path d="M51579 -27369
L51579 -26930
" />
<path d="M51579 -26269
L51579 -25830
" />
<path d="M51594 -27363
L51594 -26930
" />
<path d="M51594 -26269
L51594 -25836
" />
<path d="M51610 -27357
L51610 -26930
" />
<path d="M51610 -26269
L51610 -25842
" />
<path d="M51626 -27350
L51626 -26930
" />
<path d="M51626 -26269
L51626 -25849
" />
<path d="M51642 -27343
L51642 -26930
" />
<path d="M51642 -26269
L51642 -25856
" />
<path d="M51657 -27336
L51657 -26930
" />
<path d="M51657 -26269
L51657 -25863
" />
<path d="M51673 -27328
L51673 -26930
" />
<path d="M51673 -26269
L51673 -25871
" />
<path d="M51689 -27320
L51689 -26930
" />
<path d="M51689 -26269
L51689 -25879
" />
<path d="M51705 -27311
L51705 -26930
" />
<path d="M51705 -26269
L51705 -25888
" />
<path d="M51720 -27302
L51720 -26930
" />
<path d="M51720 -26269
L51720 -25897
" />
<path d="M51736 -27292
L51736 -26930
" />
<path d="M51736 -26269
L51736 -25907
" />
<path d="M51752 -27283
L51752 -26930
" />
<path d="M51752 -26269
L51752 -25916
" />
<path d="M51768 -27272
L51768 -26930
" />
<path d="M51768 -26269
L51768 -25927
" />
<path d="M51783 -27261
L51783 -26930
" />
<path d="M51783 -26269
L51783 -25938
" />
<path d="M51799 -27249
L51799 -26930
" />
<path d="M51799 -26269
L51799 -25950
" />
<path d="M51815 -27237
L51815 -26930
" />
<path d="M51815 -26269
L51815 -25962
" />
<path d="M51831 -27224
L51831 -26930
" />
<path d="M51831 -26269
L51831 -25975
" />
<path d="M51846 -27211
L51846 -26930
" />
<path d="M51846 -26269
L51846 -25988
" />
<path d="M51862 -27196
L51862 -26930
" />
<path d="M51862 -26269
L51862 -26003
" />
<path d="M51878 -27181
L51878 -26930
" />
<path d="M51878 -26269
L51878 -26018
" />
<path d="M51894 -27166
L51894 -26930
" />
<path d="M51894 -26269
L51894 -26033
" />
<path d="M51909 -27149
L51909 -26930
" />
<path d="M51909 -26269
L51909 -26050
" />
<path d="M51925 -27131
L51925 -26068
" />
<path d="M51941 -27113
L51941 -26086
" />
<path d="M51957 -27093
L51957 -26106
" />
<path d="M51972 -27072
L51972 -26127
" />
<path d="M51988 -27049
L51988 -26150
" />
<path d="M52004 -27025
L52004 -26174
" />
<path d="M52020 -26998
L52020 -26201
" />
<path d="M52035 -26970
L52035 -26229
" />
<path d="M52051 -26938
L52051 -26261
" />
<path d="M52067 -26902
L52067 -26297
" />
<path d="M52083 -26861
L52083 -26338
" />
<path d="M52098 -26811
L52098 -26388
" />
<path d="M52114 -26745
L52114 -26454
" />
<path d="M50401 -27070
L50559 -27070
" />
<path d="M50480 -27149
L50480 -26991
" />
<path d="M2733 -15277
L4835 -15277
" />
<path d="M2733 -13922
L4835 -13922
" />
<path d="M2733 -15277
L2733 -15015
" />
<path d="M2733 -14184
L2733 -13922
" />
<path d="M4835 -15277
L4835 -15015
" />
<path d="M4835 -14184
L4835 -13922
" />
<path d="M53400 -11906
L56274 -11906
" />
<path d="M53400 -9740
L56274 -9740
" />
<path d="M56274 -9740
L56274 -10193
" />
<path d="M22800 30700
L22800 33700
" />
<path d="M16800 30700
L16800 33700
" />
<path d="M22800 31200
L16800 31200
" />
<path d="M22800 33700
L16800 33700
" />
<path d="M22800 30700
L16800 30700
" />
<path d="M13600 23000
L13600 27000
" />
<path d="M14100 23000
L11100 23000
" />
<path d="M11100 23000
L11100 27000
" />
<path d="M11100 27000
L14100 27000
" />
<path d="M14100 27000
L14100 23000
" />
<path d="M739 -10831
L4771 -10831
" />
<path d="M739 -9004
L4771 -9004
" />
<path d="M739 -10831
L739 -9004
" />
<path d="M4771 -10831
L4771 -9004
" />
<path d="M739 -10237
L4771 -10237
" />
<path d="M2027 -10831
L2027 -10237
" />
<path d="M3484 -10831
L3484 -10237
" />
<path d="M13590 -800
L13318 -800
" />
<path d="M9409 -800
L9681 -800
" />
<path d="M13318 -1477
L9681 -1477
" />
<path d="M13318 -122
L13318 -1477
" />
<path d="M9681 -122
L13318 -122
" />
<path d="M9681 -1477
L9681 -122
" />
<path d="M-3809 -4000
L-4081 -4000
" />
<path d="M-7990 -4000
L-7718 -4000
" />
<path d="M-4081 -4677
L-7718 -4677
" />
<path d="M-4081 -3322
L-4081 -4677
" />
<path d="M-7718 -3322
L-4081 -3322
" />
<path d="M-7718 -4677
L-7718 -3322
" />
<path d="M50170 -16912
L50170 -15557
" />
<path d="M50170 -15557
L53808 -15557
" />
<path d="M53808 -15557
L53808 -16912
" />
<path d="M53808 -16912
L50170 -16912
" />
<path d="M49898 -16235
L50170 -16235
" />
<path d="M54079 -16235
L53808 -16235
" />
<path d="M38914 -17867
L41277 -17867
" />
<path d="M38914 -21332
L41277 -21332
" />
<path d="M38902.1 -21323.4 A2096.62 2096.62 0.0 0 0 38915 -17867.7 " />
<path d="M41290 -17876.6 A2096.62 2096.62 0.0 0 0 41277.2 -21332.3 " />
<path d="M16106.3 -7123.62 A393.701 393.701 0.0 0 0 16893.7 -7123.62 " />
<path d="M16106 -7123
L15456 -7123
" />
<path d="M15456 -7123
L15456 -5076
" />
<path d="M15456 -5076
L17543 -5076
" />
<path d="M17543 -5076
L17543 -7123
" />
<path d="M17543 -7123
L16893 -7123
" />
<path d="M10106.3 -11323.6 A393.701 393.701 0.0 0 0 10893.7 -11323.6 " />
<path d="M10106 -11323
L9456 -11323
" />
<path d="M9456 -11323
L9456 -8276
" />
<path d="M9456 -8276
L11543 -8276
" />
<path d="M11543 -8276
L11543 -11323
" />
<path d="M11543 -11323
L10893 -11323
" />
</g>
<g style="fill:#000000; fill-opacity:0.0; 
stroke:#000000; stroke-width:59.0551; stroke-opacity:1; 
stroke-linecap:round; stroke-linejoin:round;">
<path d="M20250 19900
L20250 9400
" />
<path d="M21500 8150
L30500 8150
" />
<path d="M31750 9400
L31750 22650
" />
<path d="M31750 22650
L33250 22650
" />
<path d="M33250 22650
L33250 7900
" />
<path d="M33250 7900
L18750 7900
" />
<path d="M18750 7900
L18750 19900
" />
<path d="M18750 19900
L18750 22650
" />
<path d="M18750 22650
L21000 22650
" />
<path d="M21000 22650
L21000 20900
" />
<path d="M20500 20400
L20250 20400
" />
<path d="M20250 20400
L20250 19900
" />
<path d="M20250 19900
L20250 19900
" />
<path d="M31750 9400 A1250 1250 0.0 0 0 30500 8150 " />
<path d="M21500 8150 A1250 1250 0.0 0 0 20250 9400 " />
<path d="M21000 20900 A500 500 0.0 0 0 20500 20400 " />
</g>
<g style="fill:#000000; fill-opacity:0.0; 
stroke:#000000; stroke-width:50; stroke-opacity:1; 
stroke-linecap:round; stroke-linejoin:round;">
<path d="M-4164 3328
L-3921 3328
L-3892 3314
L-3878 3300
L-3864 3271
L-3864 3214
L-3878 3185
L-3892 3171
L-3921 3157
L-4164 3157
" />
<path d="M-4135 3028
L-4150 3014
L-4164 2985
L-4164 2914
L-4150 2885
L-4135 2871
L-4107 2857
L-4078 2857
L-4035 2871
L-3864 3042
L-3864 2857
" />
</g>
<g style="fill:#000000; fill-opacity:0.0; 
stroke:#000000; stroke-width:59.0551; stroke-opacity:1; 
stroke-linecap:round; stroke-linejoin:round;">
<path d="M41904 -9198
L41772 -9386
" />
<path d="M41679 -9198
L41679 -9592
L41829 -9592
L41866 -9573
L41885 -9554
L41904 -9517
L41904 -9461
L41885 -9423
L41866 -9404
L41829 -9386
L41679 -9386
" />
<path d="M42054 -9554
L42072 -9573
L42110 -9592
L42204 -9592
L42241 -9573
L42260 -9554
L42279 -9517
L42279 -9479
L42260 -9423
L42035 -9198
L42279 -9198
" />
<path d="M57085 -20159
L56953 -20346
" />
<path d="M56860 -20159
L56860 -20552
L57010 -20552
L57047 -20534
L57066 -20515
L57085 -20478
L57085 -20421
L57066 -20384
L57047 -20365
L57010 -20346
L56860 -20346
" />
<path d="M57441 -20552
L57253 -20552
L57235 -20365
L57253 -20384
L57291 -20403
L57385 -20403
L57422 -20384
L57441 -20365
L57460 -20328
L57460 -20234
L57441 -20196
L57422 -20178
L57385 -20159
L57291 -20159
L57253 -20178
L57235 -20196
" />
<path d="M50923 -15513
L50792 -15701
" />
<path d="M50698 -15513
L50698 -15907
L50848 -15907
L50886 -15888
L50905 -15869
L50923 -15832
L50923 -15776
L50905 -15738
L50886 -15719
L50848 -15701
L50698 -15701
" />
<path d="M51261 -15907
L51186 -15907
L51148 -15888
L51129 -15869
L51092 -15813
L51073 -15738
L51073 -15588
L51092 -15551
L51111 -15532
L51148 -15513
L51223 -15513
L51261 -15532
L51279 -15551
L51298 -15588
L51298 -15682
L51279 -15719
L51261 -15738
L51223 -15757
L51148 -15757
L51111 -15738
L51092 -15719
L51073 -15682
" />
<path d="M26257 -24016
L26126 -24204
" />
<path d="M26032 -24016
L26032 -24410
L26182 -24410
L26220 -24391
L26238 -24372
L26257 -24335
L26257 -24279
L26238 -24241
L26220 -24223
L26182 -24204
L26032 -24204
" />
<path d="M26482 -24241
L26445 -24260
L26426 -24279
L26407 -24316
L26407 -24335
L26426 -24372
L26445 -24391
L26482 -24410
L26557 -24410
L26595 -24391
L26613 -24372
L26632 -24335
L26632 -24316
L26613 -24279
L26595 -24260
L26557 -24241
L26482 -24241
L26445 -24223
L26426 -24204
L26407 -24166
L26407 -24091
L26426 -24054
L26445 -24035
L26482 -24016
L26557 -24016
L26595 -24035
L26613 -24054
L26632 -24091
L26632 -24166
L26613 -24204
L26595 -24223
L26557 -24241
" />
<path d="M25754 -22551
L25811 -22532
L25904 -22532
L25942 -22551
L25961 -22570
L25979 -22607
L25979 -22645
L25961 -22682
L25942 -22701
L25904 -22720
L25829 -22738
L25792 -22757
L25773 -22776
L25754 -22813
L25754 -22851
L25773 -22888
L25792 -22907
L25829 -22926
L25923 -22926
L25979 -22907
" />
<path d="M26111 -22926
L26204 -22532
L26279 -22813
L26354 -22532
L26448 -22926
" />
<path d="M26804 -22532
L26579 -22532
" />
<path d="M26692 -22532
L26692 -22926
L26654 -22869
L26617 -22832
L26579 -22813
" />
</g>
<g style="fill:#000000; fill-opacity:0.0; 
stroke:#000000; stroke-width:100; stroke-opacity:1; 
stroke-linecap:round; stroke-linejoin:round;">
<path d="M6463 -5718
L6535 -5694
L6558 -5670
L6582 -5623
L6582 -5551
L6558 -5504
L6535 -5480
L6487 -5456
L6297 -5456
L6297 -5956
L6463 -5956
L6511 -5932
L6535 -5908
L6558 -5861
L6558 -5813
L6535 -5766
L6511 -5742
L6463 -5718
L6297 -5718
" />
<path d="M7082 -5456
L6916 -5694
" />
<path d="M6797 -5456
L6797 -5956
L6987 -5956
L7035 -5932
L7058 -5908
L7082 -5861
L7082 -5789
L7058 -5742
L7035 -5718
L6987 -5694
L6797 -5694
" />
<path d="M7558 -5456
L7273 -5456
" />
<path d="M7416 -5456
L7416 -5956
L7368 -5885
L7320 -5837
L7273 -5813
" />
</g>
<g style="fill:#000000; fill-opacity:0.0; 
stroke:#000000; stroke-width:59.0551; stroke-opacity:1; 
stroke-linecap:round; stroke-linejoin:round;">
<path d="M51229 -27738
L51210 -27720
L51154 -27701
L51117 -27701
L51060 -27720
L51023 -27757
L51004 -27795
L50985 -27870
L50985 -27926
L51004 -28001
L51023 -28038
L51060 -28076
L51117 -28095
L51154 -28095
L51210 -28076
L51229 -28057
" />
<path d="M51604 -27701
L51379 -27701
" />
<path d="M51492 -27701
L51492 -28095
L51454 -28038
L51417 -28001
L51379 -27982
" />
<path d="M3718 -15581
L3699 -15562
L3643 -15543
L3606 -15543
L3549 -15562
L3512 -15600
L3493 -15637
L3474 -15712
L3474 -15768
L3493 -15843
L3512 -15881
L3549 -15918
L3606 -15937
L3643 -15937
L3699 -15918
L3718 -15900
" />
<path d="M4074 -15937
L3887 -15937
L3868 -15750
L3887 -15768
L3924 -15787
L4018 -15787
L4056 -15768
L4074 -15750
L4093 -15712
L4093 -15618
L4074 -15581
L4056 -15562
L4018 -15543
L3924 -15543
L3887 -15562
L3868 -15581
" />
<path d="M54547 -12023
L54547 -12417
L54640 -12417
L54697 -12398
L54734 -12360
L54753 -12323
L54772 -12248
L54772 -12192
L54753 -12117
L54734 -12079
L54697 -12042
L54640 -12023
L54547 -12023
" />
<path d="M55147 -12023
L54922 -12023
" />
<path d="M55034 -12023
L55034 -12417
L54997 -12360
L54959 -12323
L54922 -12304
" />
<path d="M53316 -11275
L53091 -11275
" />
<path d="M53203 -11275
L53203 -11669
L53166 -11612
L53128 -11575
L53091 -11556
" />
<path d="M19680 33815
L19680 34096
L19661 34152
L19624 34190
L19568 34208
L19530 34208
" />
<path d="M20074 34208
L19849 34208
" />
<path d="M19961 34208
L19961 33815
L19924 33871
L19886 33908
L19849 33927
" />
<path d="M10384 25131
L10665 25131
L10721 25149
L10759 25187
L10778 25243
L10778 25281
" />
<path d="M10421 24962
L10403 24943
L10384 24906
L10384 24812
L10403 24775
L10421 24756
L10459 24737
L10496 24737
L10553 24756
L10778 24981
L10778 24737
" />
<path d="M2718 -11009
L2680 -11028
L2643 -11065
L2586 -11122
L2549 -11140
L2511 -11140
" />
<path d="M2530 -11047
L2493 -11065
L2455 -11103
L2436 -11178
L2436 -11309
L2455 -11384
L2493 -11422
L2530 -11440
L2605 -11440
L2643 -11422
L2680 -11384
L2699 -11309
L2699 -11178
L2680 -11103
L2643 -11065
L2605 -11047
L2530 -11047
" />
<path d="M3074 -11047
L2849 -11047
" />
<path d="M2961 -11047
L2961 -11440
L2924 -11384
L2886 -11347
L2849 -11328
" />
<path d="M11434 -1692
L11303 -1880
" />
<path d="M11209 -1692
L11209 -2086
L11359 -2086
L11396 -2067
L11415 -2048
L11434 -2011
L11434 -1955
L11415 -1917
L11396 -1898
L11359 -1880
L11209 -1880
" />
<path d="M11809 -1692
L11584 -1692
" />
<path d="M11696 -1692
L11696 -2086
L11659 -2030
L11621 -1992
L11584 -1973
" />
<path d="M-5965 -4892
L-6096 -5080
" />
<path d="M-6190 -4892
L-6190 -5286
L-6040 -5286
L-6003 -5267
L-5984 -5248
L-5965 -5211
L-5965 -5155
L-5984 -5117
L-6003 -5098
L-6040 -5080
L-6190 -5080
" />
<path d="M-5834 -5286
L-5590 -5286
L-5721 -5136
L-5665 -5136
L-5628 -5117
L-5609 -5098
L-5590 -5061
L-5590 -4967
L-5609 -4930
L-5628 -4911
L-5665 -4892
L-5778 -4892
L-5815 -4911
L-5834 -4930
" />
<path d="M51923 -17127
L51792 -17315
" />
<path d="M51698 -17127
L51698 -17521
L51848 -17521
L51886 -17502
L51905 -17484
L51923 -17446
L51923 -17390
L51905 -17352
L51886 -17334
L51848 -17315
L51698 -17315
" />
<path d="M52261 -17390
L52261 -17127
" />
<path d="M52167 -17540
L52073 -17259
L52317 -17259
" />
<path d="M40030 -21469
L39899 -21656
" />
<path d="M39805 -21469
L39805 -21862
L39955 -21862
L39992 -21844
L40011 -21825
L40030 -21787
L40030 -21731
L40011 -21694
L39992 -21675
L39955 -21656
L39805 -21656
" />
<path d="M40161 -21862
L40424 -21862
L40255 -21469
" />
<path d="M16200 -7732
L16200 -7414
L16218 -7376
L16237 -7357
L16275 -7339
L16350 -7339
L16387 -7357
L16406 -7376
L16425 -7414
L16425 -7732
" />
<path d="M16818 -7339
L16593 -7339
" />
<path d="M16706 -7339
L16706 -7732
L16668 -7676
L16631 -7639
L16593 -7620
" />
<path d="M10200 -11932
L10200 -11614
L10218 -11576
L10237 -11557
L10275 -11539
L10350 -11539
L10387 -11557
L10406 -11576
L10425 -11614
L10425 -11932
" />
<path d="M10574 -11932
L10818 -11932
L10687 -11782
L10743 -11782
L10781 -11764
L10799 -11745
L10818 -11707
L10818 -11614
L10799 -11576
L10781 -11557
L10743 -11539
L10631 -11539
L10593 -11557
L10574 -11576
" />
<path d="M22200 7184
L22200 7503
L22218 7540
L22237 7559
L22275 7578
L22350 7578
L22387 7559
L22406 7540
L22425 7503
L22425 7184
" />
<path d="M22781 7315
L22781 7578
" />
<path d="M22687 7165
L22593 7446
L22837 7446
" />
</g> 
</svg>
