<?xml version="1.0" standalone="no"?>
 <!DOCTYPE svg PUBLIC "-//W3C//DTD SVG 1.1//EN" 
 "http://www.w3.org/Graphics/SVG/1.1/DTD/svg11.dtd"> 
<svg xmlns="http://www.w3.org/2000/svg" version="1.1" 
    width="12.9997cm" height="18.001cm" viewBox="0 0 51180 70870 ">
<title>SVG Picture created as mains-light-controller-F.SilkS.svg date 2019/06/07 07:03:26 </title>
  <desc>Picture generated by PCBNEW </desc>
<g style="fill:#000000; fill-opacity:1;stroke:#000000; stroke-opacity:1;
stroke-linecap:round; stroke-linejoin:round; "
 transform="translate(0 0) scale(1 1)">
</g>
<g style="fill:#000000; fill-opacity:0.0; 
stroke:#000000; stroke-width:-0.000393701; stroke-opacity:1; 
stroke-linecap:round; stroke-linejoin:round;">
</g>
<g style="fill:#000000; fill-opacity:0.0; 
stroke:#000000; stroke-width:118.11; stroke-opacity:1; 
stroke-linecap:round; stroke-linejoin:round;">
<path d="M19730 44095
L19730 43505
L19926 43927
L20123 43505
L20123 44095
" />
<path d="M20658 44095
L20658 43786
L20629 43730
L20573 43702
L20461 43702
L20404 43730
" />
<path d="M20658 44067
L20601 44095
L20461 44095
L20404 44067
L20376 44011
L20376 43955
L20404 43899
L20461 43870
L20601 43870
L20658 43842
" />
<path d="M20939 44095
L20939 43702
" />
<path d="M20939 43505
L20911 43533
L20939 43561
L20967 43533
L20939 43505
L20939 43561
" />
<path d="M21220 43702
L21220 44095
" />
<path d="M21220 43758
L21248 43730
L21304 43702
L21389 43702
L21445 43730
L21473 43786
L21473 44095
" />
<path d="M21726 44067
L21782 44095
L21895 44095
L21951 44067
L21979 44011
L21979 43983
L21951 43927
L21895 43899
L21811 43899
L21754 43870
L21726 43814
L21726 43786
L21754 43730
L21811 43702
L21895 43702
L21951 43730
" />
<path d="M22964 44095
L22682 44095
L22682 43505
" />
<path d="M23160 44095
L23160 43702
" />
<path d="M23160 43505
L23132 43533
L23160 43561
L23188 43533
L23160 43505
L23160 43561
" />
<path d="M23695 43702
L23695 44180
L23667 44236
L23638 44264
L23582 44292
L23498 44292
L23442 44264
" />
<path d="M23695 44067
L23638 44095
L23526 44095
L23470 44067
L23442 44039
L23413 43983
L23413 43814
L23442 43758
L23470 43730
L23526 43702
L23638 43702
L23695 43730
" />
<path d="M23976 44095
L23976 43505
" />
<path d="M24229 44095
L24229 43786
L24201 43730
L24145 43702
L24060 43702
L24004 43730
L23976 43758
" />
<path d="M24426 43702
L24651 43702
" />
<path d="M24510 43505
L24510 44011
L24538 44067
L24595 44095
L24651 44095
" />
<path d="M25635 44039
L25607 44067
L25523 44095
L25466 44095
L25382 44067
L25326 44011
L25298 43955
L25269 43842
L25269 43758
L25298 43645
L25326 43589
L25382 43533
L25466 43505
L25523 43505
L25607 43533
L25635 43561
" />
<path d="M25973 44095
L25916 44067
L25888 44039
L25860 43983
L25860 43814
L25888 43758
L25916 43730
L25973 43702
L26057 43702
L26113 43730
L26141 43758
L26169 43814
L26169 43983
L26141 44039
L26113 44067
L26057 44095
L25973 44095
" />
<path d="M26422 43702
L26422 44095
" />
<path d="M26422 43758
L26451 43730
L26507 43702
L26591 43702
L26647 43730
L26676 43786
L26676 44095
" />
<path d="M26872 43702
L27097 43702
" />
<path d="M26957 43505
L26957 44011
L26985 44067
L27041 44095
L27097 44095
" />
<path d="M27294 44095
L27294 43702
" />
<path d="M27294 43814
L27322 43758
L27350 43730
L27407 43702
L27463 43702
" />
<path d="M27744 44095
L27688 44067
L27660 44039
L27632 43983
L27632 43814
L27660 43758
L27688 43730
L27744 43702
L27829 43702
L27885 43730
L27913 43758
L27941 43814
L27941 43983
L27913 44039
L27885 44067
L27829 44095
L27744 44095
" />
<path d="M28278 44095
L28222 44067
L28194 44011
L28194 43505
" />
<path d="M28588 44095
L28532 44067
L28503 44011
L28503 43505
" />
<path d="M29038 44067
L28982 44095
L28869 44095
L28813 44067
L28785 44011
L28785 43786
L28813 43730
L28869 43702
L28982 43702
L29038 43730
L29066 43786
L29066 43842
L28785 43899
" />
<path d="M29319 44095
L29319 43702
" />
<path d="M29319 43814
L29347 43758
L29375 43730
L29431 43702
L29488 43702
" />
<path d="M30078 43702
L30219 44095
L30359 43702
" />
<path d="M30894 44095
L30556 44095
" />
<path d="M30725 44095
L30725 43505
L30669 43589
L30613 43645
L30556 43674
" />
<path d="M31147 44039
L31175 44067
L31147 44095
L31119 44067
L31147 44039
L31147 44095
" />
<path d="M31541 43505
L31597 43505
L31653 43533
L31681 43561
L31709 43617
L31737 43730
L31737 43870
L31709 43983
L31681 44039
L31653 44067
L31597 44095
L31541 44095
L31484 44067
L31456 44039
L31428 43983
L31400 43870
L31400 43730
L31428 43617
L31456 43561
L31484 43533
L31541 43505
" />
<path d="M31991 44039
L32019 44067
L31991 44095
L31962 44067
L31991 44039
L31991 44095
" />
<path d="M32581 44095
L32244 44095
" />
<path d="M32412 44095
L32412 43505
L32356 43589
L32300 43645
L32244 43674
" />
<path d="M23315 44706
L23428 45099
L23540 44818
L23652 45099
L23765 44706
" />
<path d="M23934 44706
L24046 45099
L24159 44818
L24271 45099
L24384 44706
" />
<path d="M24552 44706
L24665 45099
L24777 44818
L24890 45099
L25002 44706
" />
<path d="M25227 45043
L25255 45071
L25227 45099
L25199 45071
L25227 45043
L25227 45099
" />
<path d="M25480 45071
L25537 45099
L25649 45099
L25705 45071
L25733 45015
L25733 44987
L25705 44931
L25649 44902
L25565 44902
L25508 44874
L25480 44818
L25480 44790
L25508 44734
L25565 44706
L25649 44706
L25705 44734
" />
<path d="M26071 45099
L26015 45071
L25987 45015
L25987 44509
" />
<path d="M26296 45099
L26296 44706
" />
<path d="M26296 44509
L26268 44537
L26296 44565
L26324 44537
L26296 44509
L26296 44565
" />
<path d="M26577 45099
L26577 44706
" />
<path d="M26577 44762
L26605 44734
L26661 44706
L26746 44706
L26802 44734
L26830 44790
L26830 45099
" />
<path d="M26830 44790
L26858 44734
L26915 44706
L26999 44706
L27055 44734
L27083 44790
L27083 45099
" />
<path d="M27618 45071
L27561 45099
L27449 45099
L27393 45071
L27365 45043
L27336 44987
L27336 44818
L27365 44762
L27393 44734
L27449 44706
L27561 44706
L27618 44734
" />
<path d="M27871 45043
L27899 45071
L27871 45099
L27843 45071
L27871 45043
L27871 45099
" />
<path d="M28377 45071
L28321 45099
L28208 45099
L28152 45071
L28124 45015
L28124 44790
L28152 44734
L28208 44706
L28321 44706
L28377 44734
L28405 44790
L28405 44846
L28124 44902
" />
<path d="M28911 44706
L28911 45099
" />
<path d="M28658 44706
L28658 45015
L28686 45071
L28742 45099
L28827 45099
L28883 45071
L28911 45043
" />
<path d="M27331 38366
L27612 38366
" />
<path d="M27275 38534
L27471 37944
L27668 38534
" />
<path d="M28203 38478
L28174 38506
L28090 38534
L28034 38534
L27949 38506
L27893 38450
L27865 38394
L27837 38281
L27837 38197
L27865 38084
L27893 38028
L27949 37972
L28034 37944
L28090 37944
L28174 37972
L28203 38000
" />
<path d="M28456 38309
L28906 38309
" />
<path d="M29187 38534
L29187 37944
" />
<path d="M29468 38534
L29468 37944
L29805 38534
L29805 37944
" />
<path d="M22080 38534
L21799 38534
L21799 37944
" />
<path d="M22390 37944
L22502 37944
L22559 37972
L22615 38028
L22643 38141
L22643 38338
L22615 38450
L22559 38506
L22502 38534
L22390 38534
L22334 38506
L22277 38450
L22249 38338
L22249 38141
L22277 38028
L22334 37972
L22390 37944
" />
<path d="M22868 38366
L23149 38366
" />
<path d="M22812 38534
L23008 37944
L23205 38534
" />
<path d="M23402 38534
L23402 37944
L23543 37944
L23627 37972
L23683 38028
L23712 38084
L23740 38197
L23740 38281
L23712 38394
L23683 38450
L23627 38506
L23543 38534
L23402 38534
" />
<path d="M21813 39558
L21532 39558
L21532 38967
" />
<path d="M22460 39333
L22910 39333
" />
<path d="M23641 39558
L23641 38967
L23979 39558
L23979 38967
" />
<path d="M26107 39558
L26107 38967
L26400 39558
L26400 38967
" />
<path d="M27034 39333
L27424 39333
" />
<path d="M28057 39558
L28057 38967
L28228 39389
L28398 38967
L28398 39558
" />
<path d="M28910 39558
L28618 39558
" />
<path d="M28764 39558
L28764 38967
L28715 39052
L28667 39108
L28618 39136
" />
<path d="M29520 39333
L29910 39333
" />
<path d="M30543 39558
L30543 38967
L30714 39389
L30884 38967
L30884 39558
" />
<path d="M31104 39024
L31128 38996
L31177 38967
L31299 38967
L31347 38996
L31372 39024
L31396 39080
L31396 39136
L31372 39221
L31079 39558
L31396 39558
" />
</g>
<g style="fill:#000000; fill-opacity:0.0; 
stroke:#000000; stroke-width:50; stroke-opacity:1; 
stroke-linecap:round; stroke-linejoin:round;">
<path d="M34062 23107
L34062 36492
" />
<path d="M41937 36492
L41937 23107
" />
<path d="M34062 36492
L41937 36492
" />
<path d="M41937 23107
L34062 23107
" />
</g>
<g style="fill:#000000; fill-opacity:0.0; 
stroke:#000000; stroke-width:47.2441; stroke-opacity:1; 
stroke-linecap:round; stroke-linejoin:round;">
<path d="M29594 19496
L29464 19496
" />
<path d="M29594 22070
L29594 19496
" />
<path d="M29464 22070
L29594 22070
" />
<path d="M28515 19496
L28645 19496
" />
<path d="M28515 22070
L28515 19496
" />
<path d="M28645 22070
L28515 22070
" />
<path d="M30903 19491
L30773 19491
" />
<path d="M30903 22066
L30903 19491
" />
<path d="M30773 22066
L30903 22066
" />
<path d="M29824 19491
L29954 19491
" />
<path d="M29824 22066
L29824 19491
" />
<path d="M29954 22066
L29824 22066
" />
<path d="M25838 22078
L25968 22078
" />
<path d="M25838 19503
L25838 22078
" />
<path d="M25968 19503
L25838 19503
" />
<path d="M26917 22078
L26787 22078
" />
<path d="M26917 19503
L26917 22078
" />
<path d="M26787 19503
L26917 19503
" />
<path d="M28255 19496
L28125 19496
" />
<path d="M28255 22070
L28255 19496
" />
<path d="M28125 22070
L28255 22070
" />
<path d="M27177 19496
L27307 19496
" />
<path d="M27177 22070
L27177 19496
" />
<path d="M27307 22070
L27177 22070
" />
</g>
<g style="fill:#000000; fill-opacity:0.0; 
stroke:#000000; stroke-width:78.7402; stroke-opacity:1; 
stroke-linecap:round; stroke-linejoin:round;">
<path d="M30730 30824
L30730 33956
" />
<path d="M27379 31397
L27379 33956
" />
</g>
<g style="fill:#000000; fill-opacity:0.0; 
stroke:#000000; stroke-width:47.2441; stroke-opacity:1; 
stroke-linecap:round; stroke-linejoin:round;">
<path d="M22675 24519
L22517 24519
" />
<path d="M22596 24441
L22596 24598
" />
<path d="M22271 26153
L21980 26153
" />
<path d="M22337 26138
L21914 26138
" />
<path d="M22387 26122
L21864 26122
" />
<path d="M22428 26106
L21823 26106
" />
<path d="M22464 26090
L21787 26090
" />
<path d="M22496 26075
L21755 26075
" />
<path d="M22524 26059
L21727 26059
" />
<path d="M22551 26043
L21700 26043
" />
<path d="M22575 26027
L21676 26027
" />
<path d="M22598 26012
L21653 26012
" />
<path d="M22619 25996
L21632 25996
" />
<path d="M22639 25980
L21612 25980
" />
<path d="M22657 25964
L21594 25964
" />
<path d="M21795 25949
L21576 25949
" />
<path d="M22675 25949
L22456 25949
" />
<path d="M21795 25933
L21559 25933
" />
<path d="M22692 25933
L22456 25933
" />
<path d="M21795 25917
L21544 25917
" />
<path d="M22707 25917
L22456 25917
" />
<path d="M21795 25901
L21529 25901
" />
<path d="M22722 25901
L22456 25901
" />
<path d="M21795 25886
L21514 25886
" />
<path d="M22737 25886
L22456 25886
" />
<path d="M21795 25870
L21501 25870
" />
<path d="M22750 25870
L22456 25870
" />
<path d="M21795 25854
L21488 25854
" />
<path d="M22763 25854
L22456 25854
" />
<path d="M21795 25838
L21476 25838
" />
<path d="M22775 25838
L22456 25838
" />
<path d="M21795 25823
L21464 25823
" />
<path d="M22787 25823
L22456 25823
" />
<path d="M21795 25807
L21453 25807
" />
<path d="M22798 25807
L22456 25807
" />
<path d="M21795 25791
L21442 25791
" />
<path d="M22809 25791
L22456 25791
" />
<path d="M21795 25775
L21433 25775
" />
<path d="M22818 25775
L22456 25775
" />
<path d="M21795 25760
L21423 25760
" />
<path d="M22828 25760
L22456 25760
" />
<path d="M21795 25744
L21414 25744
" />
<path d="M22837 25744
L22456 25744
" />
<path d="M21795 25728
L21405 25728
" />
<path d="M22846 25728
L22456 25728
" />
<path d="M21795 25712
L21397 25712
" />
<path d="M22854 25712
L22456 25712
" />
<path d="M21795 25697
L21389 25697
" />
<path d="M22862 25697
L22456 25697
" />
<path d="M21795 25681
L21382 25681
" />
<path d="M22869 25681
L22456 25681
" />
<path d="M21795 25665
L21375 25665
" />
<path d="M22876 25665
L22456 25665
" />
<path d="M21795 25650
L21368 25650
" />
<path d="M22883 25650
L22456 25650
" />
<path d="M21795 25634
L21362 25634
" />
<path d="M22889 25634
L22456 25634
" />
<path d="M21795 25618
L21356 25618
" />
<path d="M22895 25618
L22456 25618
" />
<path d="M21795 25602
L21351 25602
" />
<path d="M22900 25602
L22456 25602
" />
<path d="M21795 25586
L21345 25586
" />
<path d="M22906 25586
L22456 25586
" />
<path d="M21795 25570
L21340 25570
" />
<path d="M22911 25570
L22456 25570
" />
<path d="M21795 25555
L21336 25555
" />
<path d="M22915 25555
L22456 25555
" />
<path d="M21795 25539
L21332 25539
" />
<path d="M22919 25539
L22456 25539
" />
<path d="M21795 25523
L21328 25523
" />
<path d="M22923 25523
L22456 25523
" />
<path d="M21795 25507
L21325 25507
" />
<path d="M22926 25507
L22456 25507
" />
<path d="M21795 25492
L21322 25492
" />
<path d="M22929 25492
L22456 25492
" />
<path d="M21795 25476
L21318 25476
" />
<path d="M22933 25476
L22456 25476
" />
<path d="M21795 25460
L21316 25460
" />
<path d="M22935 25460
L22456 25460
" />
<path d="M21795 25444
L21314 25444
" />
<path d="M22937 25444
L22456 25444
" />
<path d="M21795 25429
L21312 25429
" />
<path d="M22939 25429
L22456 25429
" />
<path d="M21795 25413
L21310 25413
" />
<path d="M22941 25413
L22456 25413
" />
<path d="M21795 25397
L21309 25397
" />
<path d="M22942 25397
L22456 25397
" />
<path d="M21795 25381
L21308 25381
" />
<path d="M22943 25381
L22456 25381
" />
<path d="M22944 25366
L22456 25366
" />
<path d="M21795 25366
L21307 25366
" />
<path d="M22944 25350
L22456 25350
" />
<path d="M21795 25350
L21307 25350
" />
<path d="M22944 25334
L22456 25334
" />
<path d="M21795 25334
L21307 25334
" />
<circle cx="22126" cy="25334.6" r="834.646" /> 
<path d="M21054 33059
L21054 30956
" />
<path d="M22409 33059
L22409 30956
" />
<path d="M21054 33059
L21316 33059
" />
<path d="M22147 33059
L22409 33059
" />
<path d="M21054 30956
L21316 30956
" />
<path d="M22147 30956
L22409 30956
" />
<path d="M25535 42917
L25535 39917
" />
<path d="M31535 42917
L31535 39917
" />
<path d="M25535 42417
L31535 42417
" />
<path d="M25535 39917
L31535 39917
" />
<path d="M25535 42917
L31535 42917
" />
<path d="M24811 42417
L20811 42417
" />
<path d="M24811 42917
L24811 39917
" />
<path d="M24811 39917
L20811 39917
" />
<path d="M20811 39917
L20811 42917
" />
<path d="M20811 42917
L24811 42917
" />
</g>
<g style="fill:#000000; fill-opacity:0.0; 
stroke:#000000; stroke-width:59.0551; stroke-opacity:1; 
stroke-linecap:round; stroke-linejoin:round;">
<path d="M13997 34441
L16481 37988
" />
<path d="M14029 34418
L13997 34441
" />
<path d="M18642 36475
L16481 37988
" />
<path d="M18868 36798
L18642 36475
" />
<path d="M13772 40366
L18868 36798
" />
<path d="M8353 32626
L13772 40366
" />
<path d="M13448 29058
L8353 32626
" />
<path d="M13674 29380
L13448 29058
" />
<path d="M11513 30893
L13674 29380
" />
<path d="M13997 34441
L11513 30893
" />
</g>
<g style="fill:#000000; fill-opacity:0.0; 
stroke:#000000; stroke-width:47.2441; stroke-opacity:1; 
stroke-linecap:round; stroke-linejoin:round;">
<path d="M13753 33722
L14240 33381
" />
<path d="M14589 34915
L15076 34574
" />
<path d="M15815 35629
L13502 32327
" />
<path d="M13015 32668
L14512 31620
" />
<path d="M15328 35970
L16824 34922
" />
<path d="M16824 34922
L14512 31620
" />
<path d="M15328 35970
L13015 32668
" />
<path d="M26661 31704
L25307 31704
" />
<path d="M25307 31704
L25307 35342
" />
<path d="M25307 35342
L26661 35342
" />
<path d="M26661 35342
L26661 31704
" />
<path d="M25984 31433
L25984 31704
" />
<path d="M25984 35614
L25984 35342
" />
<path d="M32048 31409
L32048 31681
" />
<path d="M32048 35590
L32048 35318
" />
<path d="M31371 31681
L31371 35318
" />
<path d="M32725 31681
L31371 31681
" />
<path d="M32725 35318
L32725 31681
" />
<path d="M31371 35318
L32725 35318
" />
<path d="M24535 31681
L23181 31681
" />
<path d="M23181 31681
L23181 35318
" />
<path d="M23181 35318
L24535 35318
" />
<path d="M24535 35318
L24535 31681
" />
<path d="M23858 31409
L23858 31681
" />
<path d="M23858 35590
L23858 35318
" />
<path d="M25460 26590
L25460 27240
" />
<path d="M27507 26590
L25460 26590
" />
<path d="M27507 28677
L27507 26590
" />
<path d="M25460 28677
L27507 28677
" />
<path d="M25460 28027
L25460 28677
" />
<path d="M25460.6 28027.6 A393.701 393.701 0.0 0 0 25460.6 27240.2 " />
<path d="M32570 28606
L32570 27956
" />
<path d="M29523 28606
L32570 28606
" />
<path d="M29523 26519
L29523 28606
" />
<path d="M32570 26519
L29523 26519
" />
<path d="M32570 27169
L32570 26519
" />
<path d="M32570.9 27169.3 A393.701 393.701 0.0 0 0 32570.9 27956.7 " />
</g>
<g style="fill:#000000; fill-opacity:0.0; 
stroke:#000000; stroke-width:59.0551; stroke-opacity:1; 
stroke-linecap:round; stroke-linejoin:round;">
<path d="M21000 20900 A500 500 0.0 0 0 20500 20400 " />
<path d="M21500 8150 A1250 1250 0.0 0 0 20250 9400 " />
<path d="M31750 9400 A1250 1250 0.0 0 0 30500 8150 " />
<path d="M20250 19900
L20250 19900
" />
<path d="M20250 20400
L20250 19900
" />
<path d="M20500 20400
L20250 20400
" />
<path d="M21000 22650
L21000 20900
" />
<path d="M18750 22650
L21000 22650
" />
<path d="M18750 19900
L18750 22650
" />
<path d="M18750 7900
L18750 19900
" />
<path d="M33250 7900
L18750 7900
" />
<path d="M33250 22650
L33250 7900
" />
<path d="M31750 22650
L33250 22650
" />
<path d="M31750 9400
L31750 22650
" />
<path d="M21500 8150
L30500 8150
" />
<path d="M20250 19900
L20250 9400
" />
</g>
<g style="fill:#000000; fill-opacity:0.0; 
stroke:#000000; stroke-width:50; stroke-opacity:1; 
stroke-linecap:round; stroke-linejoin:round;">
<path d="M34071 36635
L34071 36878
L34085 36907
L34100 36921
L34128 36935
L34185 36935
L34214 36921
L34228 36907
L34242 36878
L34242 36635
" />
<path d="M34371 36664
L34385 36650
L34414 36635
L34485 36635
L34514 36650
L34528 36664
L34542 36692
L34542 36721
L34528 36764
L34357 36935
L34542 36935
" />
</g>
<g style="fill:#000000; fill-opacity:0.0; 
stroke:#000000; stroke-width:59.0551; stroke-opacity:1; 
stroke-linecap:round; stroke-linejoin:round;">
<path d="M28300 20849
L28112 20980
" />
<path d="M28300 21074
L27906 21074
L27906 20924
L27925 20886
L27943 20867
L27981 20849
L28037 20849
L28075 20867
L28093 20886
L28112 20924
L28112 21074
" />
<path d="M27943 20699
L27925 20680
L27906 20642
L27906 20549
L27925 20511
L27943 20492
L27981 20474
L28018 20474
L28075 20492
L28300 20717
L28300 20474
" />
<path d="M29608 20844
L29421 20975
" />
<path d="M29608 21069
L29215 21069
L29215 20919
L29233 20881
L29252 20863
L29290 20844
L29346 20844
L29383 20863
L29402 20881
L29421 20919
L29421 21069
" />
<path d="M29215 20488
L29215 20675
L29402 20694
L29383 20675
L29365 20638
L29365 20544
L29383 20506
L29402 20488
L29440 20469
L29533 20469
L29571 20488
L29590 20506
L29608 20544
L29608 20638
L29590 20675
L29571 20694
" />
<path d="M27489 20856
L27301 20988
" />
<path d="M27489 21081
L27095 21081
L27095 20931
L27114 20894
L27132 20875
L27170 20856
L27226 20856
L27264 20875
L27282 20894
L27301 20931
L27301 21081
" />
<path d="M27095 20519
L27095 20594
L27114 20631
L27132 20650
L27189 20688
L27264 20706
L27414 20706
L27451 20688
L27470 20669
L27489 20631
L27489 20556
L27470 20519
L27451 20500
L27414 20482
L27320 20482
L27282 20500
L27264 20519
L27245 20556
L27245 20631
L27264 20669
L27282 20688
L27320 20706
" />
<path d="M26961 20849
L26774 20980
" />
<path d="M26961 21074
L26567 21074
L26567 20924
L26586 20886
L26605 20867
L26642 20849
L26699 20849
L26736 20867
L26755 20886
L26774 20924
L26774 21074
" />
<path d="M26736 20624
L26717 20661
L26699 20680
L26661 20699
L26642 20699
L26605 20680
L26586 20661
L26567 20624
L26567 20549
L26586 20511
L26605 20492
L26642 20474
L26661 20474
L26699 20492
L26717 20511
L26736 20549
L26736 20624
L26755 20661
L26774 20680
L26811 20699
L26886 20699
L26924 20680
L26942 20661
L26961 20624
L26961 20549
L26942 20511
L26924 20492
L26886 20474
L26811 20474
L26774 20492
L26755 20511
L26736 20549
" />
</g>
<g style="fill:#000000; fill-opacity:0.0; 
stroke:#000000; stroke-width:100; stroke-opacity:1; 
stroke-linecap:round; stroke-linejoin:round;">
<path d="M29019 33129
L29043 33058
L29067 33034
L29114 33010
L29186 33010
L29233 33034
L29257 33058
L29281 33105
L29281 33296
L28781 33296
L28781 33129
L28805 33081
L28828 33058
L28876 33034
L28924 33034
L28971 33058
L28995 33081
L29019 33129
L29019 33296
" />
<path d="M29281 32510
L29043 32677
" />
<path d="M29281 32796
L28781 32796
L28781 32605
L28805 32558
L28828 32534
L28876 32510
L28947 32510
L28995 32534
L29019 32558
L29043 32605
L29043 32796
" />
<path d="M29281 32034
L29281 32320
" />
<path d="M29281 32177
L28781 32177
L28852 32224
L28900 32272
L28924 32320
" />
</g>
<g style="fill:#000000; fill-opacity:0.0; 
stroke:#000000; stroke-width:59.0551; stroke-opacity:1; 
stroke-linecap:round; stroke-linejoin:round;">
<path d="M23546 25400
L23564 25419
L23583 25475
L23583 25512
L23564 25568
L23527 25606
L23489 25625
L23414 25643
L23358 25643
L23283 25625
L23246 25606
L23208 25568
L23189 25512
L23189 25475
L23208 25419
L23227 25400
" />
<path d="M23583 25025
L23583 25250
" />
<path d="M23583 25137
L23189 25137
L23246 25175
L23283 25212
L23302 25250
" />
<path d="M20750 32073
L20769 32092
L20788 32148
L20788 32185
L20769 32242
L20732 32279
L20694 32298
L20619 32317
L20563 32317
L20488 32298
L20450 32279
L20413 32242
L20394 32185
L20394 32148
L20413 32092
L20432 32073
" />
<path d="M20394 31717
L20394 31904
L20582 31923
L20563 31904
L20544 31867
L20544 31773
L20563 31736
L20582 31717
L20619 31698
L20713 31698
L20750 31717
L20769 31736
L20788 31773
L20788 31867
L20769 31904
L20750 31923
" />
<path d="M25774 40020
L25774 40301
L25755 40358
L25718 40395
L25661 40414
L25624 40414
" />
<path d="M26167 40414
L25943 40414
" />
<path d="M26055 40414
L26055 40020
L26017 40076
L25980 40114
L25943 40133
" />
<path d="M21049 40020
L21049 40301
L21031 40358
L20993 40395
L20937 40414
L20899 40414
" />
<path d="M21218 40058
L21237 40039
L21274 40020
L21368 40020
L21406 40039
L21424 40058
L21443 40095
L21443 40133
L21424 40189
L21199 40414
L21443 40414
" />
<path d="M13651 34638
L13645 34596
L13654 34544
L13668 34466
L13661 34424
L13640 34393
" />
<path d="M13574 34462
L13568 34421
L13577 34369
L13628 34310
L13735 34235
L13807 34207
L13860 34217
L13896 34237
L13939 34298
L13946 34340
L13936 34392
L13886 34450
L13778 34525
L13706 34553
L13654 34544
L13617 34524
L13574 34462
" />
<path d="M13886 34908
L13757 34724
" />
<path d="M13821 34816
L14144 34590
L14076 34591
L14024 34582
L13987 34562
" />
<path d="M27233 33589
L27045 33720
" />
<path d="M27233 33814
L26839 33814
L26839 33664
L26858 33626
L26877 33607
L26914 33589
L26970 33589
L27008 33607
L27026 33626
L27045 33664
L27045 33814
" />
<path d="M27233 33214
L27233 33439
" />
<path d="M27233 33326
L26839 33326
L26895 33364
L26933 33401
L26952 33439
" />
<path d="M31156 33565
L30968 33696
" />
<path d="M31156 33790
L30762 33790
L30762 33640
L30781 33603
L30799 33584
L30837 33565
L30893 33565
L30931 33584
L30949 33603
L30968 33640
L30968 33790
" />
<path d="M30762 33434
L30762 33190
L30912 33321
L30912 33265
L30931 33228
L30949 33209
L30987 33190
L31081 33190
L31118 33209
L31137 33228
L31156 33265
L31156 33378
L31137 33415
L31118 33434
" />
<path d="M25107 33565
L24919 33696
" />
<path d="M25107 33790
L24713 33790
L24713 33640
L24732 33603
L24751 33584
L24788 33565
L24844 33565
L24882 33584
L24901 33603
L24919 33640
L24919 33790
" />
<path d="M24844 33228
L25107 33228
" />
<path d="M24694 33321
L24976 33415
L24976 33171
" />
<path d="M24851 27933
L25170 27933
L25207 27915
L25226 27896
L25245 27858
L25245 27783
L25226 27746
L25207 27727
L25170 27708
L24851 27708
" />
<path d="M25245 27315
L25245 27540
" />
<path d="M25245 27427
L24851 27427
L24907 27465
L24945 27502
L24963 27540
" />
<path d="M32748 27862
L33067 27862
L33105 27844
L33123 27825
L33142 27787
L33142 27712
L33123 27675
L33105 27656
L33067 27637
L32748 27637
" />
<path d="M32748 27488
L32748 27244
L32898 27375
L32898 27319
L32917 27281
L32936 27263
L32973 27244
L33067 27244
L33105 27263
L33123 27281
L33142 27319
L33142 27431
L33123 27469
L33105 27488
" />
<path d="M22200 7184
L22200 7503
L22218 7540
L22237 7559
L22275 7578
L22350 7578
L22387 7559
L22406 7540
L22425 7503
L22425 7184
" />
<path d="M22781 7315
L22781 7578
" />
<path d="M22687 7165
L22593 7446
L22837 7446
" />
</g> 
</svg>
