<?xml version="1.0" standalone="no"?>
 <!DOCTYPE svg PUBLIC "-//W3C//DTD SVG 1.1//EN" 
 "http://www.w3.org/Graphics/SVG/1.1/DTD/svg11.dtd"> 
<svg xmlns="http://www.w3.org/2000/svg" version="1.1" 
    width="12.9997cm" height="18.001cm" viewBox="0 0 51180 70870 ">
<title>SVG Picture created as mains-light-controller-B.Cu.svg date 2019/06/14 04:51:28 </title>
  <desc>Picture generated by PCBNEW </desc>
<g style="fill:#000000; fill-opacity:1;stroke:#000000; stroke-opacity:1;
stroke-linecap:round; stroke-linejoin:round; "
 transform="translate(0 0) scale(1 1)">
</g>
<g style="fill:#000000; fill-opacity:0.0; 
stroke:#000000; stroke-width:-0.000393701; stroke-opacity:1; 
stroke-linecap:round; stroke-linejoin:round;">
</g>
<g style="fill:#000000; fill-opacity:1.0; 
stroke:#000000; stroke-width:0; stroke-opacity:1; 
stroke-linecap:round; stroke-linejoin:round;">
<circle cx="25086.6" cy="34566.9" r="462.598" /> 
</g>
<g style="fill:#000000; fill-opacity:1.0; 
stroke:#000000; stroke-width:39.3701; stroke-opacity:1; 
stroke-linecap:round; stroke-linejoin:round;">
</g>
<g style="fill:#000000; fill-opacity:1.0; 
stroke:#000000; stroke-width:0; stroke-opacity:1; 
stroke-linecap:round; stroke-linejoin:round;">
<circle cx="25086.6" cy="36566.9" r="462.598" /> 
</g>
<g style="fill:#000000; fill-opacity:1.0; 
stroke:#000000; stroke-width:39.3701; stroke-opacity:1; 
stroke-linecap:round; stroke-linejoin:round;">
</g>
<g style="fill:#000000; fill-opacity:1.0; 
stroke:#000000; stroke-width:0; stroke-opacity:1; 
stroke-linecap:round; stroke-linejoin:round;">
<circle cx="19055.1" cy="34566.9" r="462.598" /> 
</g>
<g style="fill:#000000; fill-opacity:1.0; 
stroke:#000000; stroke-width:39.3701; stroke-opacity:1; 
stroke-linecap:round; stroke-linejoin:round;">
</g>
<g style="fill:#000000; fill-opacity:1.0; 
stroke:#000000; stroke-width:0; stroke-opacity:1; 
stroke-linecap:round; stroke-linejoin:round;">
<circle cx="19055.1" cy="36566.9" r="462.598" /> 
</g>
<g style="fill:#000000; fill-opacity:1.0; 
stroke:#000000; stroke-width:39.3701; stroke-opacity:1; 
stroke-linecap:round; stroke-linejoin:round;">
</g>
<g style="fill:#000000; fill-opacity:1.0; 
stroke:#000000; stroke-width:0; stroke-opacity:1; 
stroke-linecap:round; stroke-linejoin:round;">
<polyline style="fill-rule:evenodd;"
points="28255,29234
28255,28777
28712,28777
28712,29234
28255,29234
" /> 
<circle cx="26476.4" cy="29005.9" r="228.346" /> 
</g>
<g style="fill:#000000; fill-opacity:1.0; 
stroke:#000000; stroke-width:39.3701; stroke-opacity:1; 
stroke-linecap:round; stroke-linejoin:round;">
</g>
<g style="fill:#000000; fill-opacity:1.0; 
stroke:#000000; stroke-width:0; stroke-opacity:1; 
stroke-linecap:round; stroke-linejoin:round;">
<circle cx="26476.4" cy="32253.9" r="228.346" /> 
</g>
<g style="fill:#000000; fill-opacity:1.0; 
stroke:#000000; stroke-width:39.3701; stroke-opacity:1; 
stroke-linecap:round; stroke-linejoin:round;">
</g>
<g style="fill:#000000; fill-opacity:1.0; 
stroke:#000000; stroke-width:0; stroke-opacity:1; 
stroke-linecap:round; stroke-linejoin:round;">
<circle cx="28484.3" cy="32253.9" r="228.346" /> 
</g>
<g style="fill:#000000; fill-opacity:1.0; 
stroke:#000000; stroke-width:39.3701; stroke-opacity:1; 
stroke-linecap:round; stroke-linejoin:round;">
</g>
<g style="fill:#000000; fill-opacity:1.0; 
stroke:#000000; stroke-width:0; stroke-opacity:1; 
stroke-linecap:round; stroke-linejoin:round;">
<circle cx="12318.9" cy="28055.1" r="496.85" /> 
</g>
<g style="fill:#000000; fill-opacity:1.0; 
stroke:#000000; stroke-width:39.3701; stroke-opacity:1; 
stroke-linecap:round; stroke-linejoin:round;">
</g>
<g style="fill:#000000; fill-opacity:1.0; 
stroke:#000000; stroke-width:0; stroke-opacity:1; 
stroke-linecap:round; stroke-linejoin:round;">
<circle cx="12318.9" cy="35141.7" r="496.85" /> 
</g>
<g style="fill:#000000; fill-opacity:1.0; 
stroke:#000000; stroke-width:39.3701; stroke-opacity:1; 
stroke-linecap:round; stroke-linejoin:round;">
</g>
<g style="fill:#000000; fill-opacity:1.0; 
stroke:#000000; stroke-width:750; stroke-opacity:1; 
stroke-linecap:round; stroke-linejoin:round;">
</g>
<g style="fill:#000000; fill-opacity:0.0; 
stroke:#000000; stroke-width:750; stroke-opacity:1; 
stroke-linecap:round; stroke-linejoin:round;">
<path d="M14784 30598
L14821 30598
" />
<path d="M14784 31598
L14821 31598
" />
</g>
<g style="fill:#000000; fill-opacity:0.0; 
stroke:#000000; stroke-width:0; stroke-opacity:1; 
stroke-linecap:round; stroke-linejoin:round;">
</g>
<g style="fill:#000000; fill-opacity:1.0; 
stroke:#000000; stroke-width:0; stroke-opacity:1; 
stroke-linecap:round; stroke-linejoin:round;">
<polyline style="fill-rule:evenodd;"
points="15196,32973
14409,32973
14409,32223
15196,32223
15196,32973
" /> 
<circle cx="36141.7" cy="13858.3" r="314.961" /> 
</g>
<g style="fill:#000000; fill-opacity:1.0; 
stroke:#000000; stroke-width:39.3701; stroke-opacity:1; 
stroke-linecap:round; stroke-linejoin:round;">
</g>
<g style="fill:#000000; fill-opacity:1.0; 
stroke:#000000; stroke-width:0; stroke-opacity:1; 
stroke-linecap:round; stroke-linejoin:round;">
<circle cx="36141.7" cy="12677.2" r="314.961" /> 
</g>
<g style="fill:#000000; fill-opacity:1.0; 
stroke:#000000; stroke-width:39.3701; stroke-opacity:1; 
stroke-linecap:round; stroke-linejoin:round;">
</g>
<g style="fill:#000000; fill-opacity:1.0; 
stroke:#000000; stroke-width:0; stroke-opacity:1; 
stroke-linecap:round; stroke-linejoin:round;">
<circle cx="22090.6" cy="8492.13" r="354.331" /> 
</g>
<g style="fill:#000000; fill-opacity:1.0; 
stroke:#000000; stroke-width:39.3701; stroke-opacity:1; 
stroke-linecap:round; stroke-linejoin:round;">
</g>
<g style="fill:#000000; fill-opacity:1.0; 
stroke:#000000; stroke-width:0; stroke-opacity:1; 
stroke-linecap:round; stroke-linejoin:round;">
<circle cx="22090.6" cy="17492.1" r="354.331" /> 
</g>
<g style="fill:#000000; fill-opacity:1.0; 
stroke:#000000; stroke-width:39.3701; stroke-opacity:1; 
stroke-linecap:round; stroke-linejoin:round;">
</g>
<g style="fill:#000000; fill-opacity:1.0; 
stroke:#000000; stroke-width:0; stroke-opacity:1; 
stroke-linecap:round; stroke-linejoin:round;">
<circle cx="23090.6" cy="8492.13" r="354.331" /> 
</g>
<g style="fill:#000000; fill-opacity:1.0; 
stroke:#000000; stroke-width:39.3701; stroke-opacity:1; 
stroke-linecap:round; stroke-linejoin:round;">
</g>
<g style="fill:#000000; fill-opacity:1.0; 
stroke:#000000; stroke-width:0; stroke-opacity:1; 
stroke-linecap:round; stroke-linejoin:round;">
<circle cx="23090.6" cy="17492.1" r="354.331" /> 
</g>
<g style="fill:#000000; fill-opacity:1.0; 
stroke:#000000; stroke-width:39.3701; stroke-opacity:1; 
stroke-linecap:round; stroke-linejoin:round;">
</g>
<g style="fill:#000000; fill-opacity:1.0; 
stroke:#000000; stroke-width:0; stroke-opacity:1; 
stroke-linecap:round; stroke-linejoin:round;">
<circle cx="24090.6" cy="8492.13" r="354.331" /> 
</g>
<g style="fill:#000000; fill-opacity:1.0; 
stroke:#000000; stroke-width:39.3701; stroke-opacity:1; 
stroke-linecap:round; stroke-linejoin:round;">
</g>
<g style="fill:#000000; fill-opacity:1.0; 
stroke:#000000; stroke-width:0; stroke-opacity:1; 
stroke-linecap:round; stroke-linejoin:round;">
<circle cx="24090.6" cy="17492.1" r="354.331" /> 
</g>
<g style="fill:#000000; fill-opacity:1.0; 
stroke:#000000; stroke-width:39.3701; stroke-opacity:1; 
stroke-linecap:round; stroke-linejoin:round;">
</g>
<g style="fill:#000000; fill-opacity:1.0; 
stroke:#000000; stroke-width:0; stroke-opacity:1; 
stroke-linecap:round; stroke-linejoin:round;">
<circle cx="25090.6" cy="8492.13" r="354.331" /> 
</g>
<g style="fill:#000000; fill-opacity:1.0; 
stroke:#000000; stroke-width:39.3701; stroke-opacity:1; 
stroke-linecap:round; stroke-linejoin:round;">
</g>
<g style="fill:#000000; fill-opacity:1.0; 
stroke:#000000; stroke-width:0; stroke-opacity:1; 
stroke-linecap:round; stroke-linejoin:round;">
<circle cx="25090.6" cy="17492.1" r="354.331" /> 
</g>
<g style="fill:#000000; fill-opacity:1.0; 
stroke:#000000; stroke-width:39.3701; stroke-opacity:1; 
stroke-linecap:round; stroke-linejoin:round;">
</g>
<g style="fill:#000000; fill-opacity:1.0; 
stroke:#000000; stroke-width:0; stroke-opacity:1; 
stroke-linecap:round; stroke-linejoin:round;">
<circle cx="26090.6" cy="8492.13" r="354.331" /> 
</g>
<g style="fill:#000000; fill-opacity:1.0; 
stroke:#000000; stroke-width:39.3701; stroke-opacity:1; 
stroke-linecap:round; stroke-linejoin:round;">
</g>
<g style="fill:#000000; fill-opacity:1.0; 
stroke:#000000; stroke-width:0; stroke-opacity:1; 
stroke-linecap:round; stroke-linejoin:round;">
<circle cx="26090.6" cy="17492.1" r="354.331" /> 
</g>
<g style="fill:#000000; fill-opacity:1.0; 
stroke:#000000; stroke-width:39.3701; stroke-opacity:1; 
stroke-linecap:round; stroke-linejoin:round;">
</g>
<g style="fill:#000000; fill-opacity:1.0; 
stroke:#000000; stroke-width:0; stroke-opacity:1; 
stroke-linecap:round; stroke-linejoin:round;">
<circle cx="27090.6" cy="8492.13" r="354.331" /> 
</g>
<g style="fill:#000000; fill-opacity:1.0; 
stroke:#000000; stroke-width:39.3701; stroke-opacity:1; 
stroke-linecap:round; stroke-linejoin:round;">
</g>
<g style="fill:#000000; fill-opacity:1.0; 
stroke:#000000; stroke-width:0; stroke-opacity:1; 
stroke-linecap:round; stroke-linejoin:round;">
<circle cx="27090.6" cy="17492.1" r="354.331" /> 
</g>
<g style="fill:#000000; fill-opacity:1.0; 
stroke:#000000; stroke-width:39.3701; stroke-opacity:1; 
stroke-linecap:round; stroke-linejoin:round;">
</g>
<g style="fill:#000000; fill-opacity:1.0; 
stroke:#000000; stroke-width:0; stroke-opacity:1; 
stroke-linecap:round; stroke-linejoin:round;">
<circle cx="28090.6" cy="8492.13" r="354.331" /> 
</g>
<g style="fill:#000000; fill-opacity:1.0; 
stroke:#000000; stroke-width:39.3701; stroke-opacity:1; 
stroke-linecap:round; stroke-linejoin:round;">
</g>
<g style="fill:#000000; fill-opacity:1.0; 
stroke:#000000; stroke-width:0; stroke-opacity:1; 
stroke-linecap:round; stroke-linejoin:round;">
<circle cx="28090.6" cy="17492.1" r="354.331" /> 
</g>
<g style="fill:#000000; fill-opacity:1.0; 
stroke:#000000; stroke-width:39.3701; stroke-opacity:1; 
stroke-linecap:round; stroke-linejoin:round;">
</g>
<g style="fill:#000000; fill-opacity:1.0; 
stroke:#000000; stroke-width:0; stroke-opacity:1; 
stroke-linecap:round; stroke-linejoin:round;">
<circle cx="29090.6" cy="8492.13" r="354.331" /> 
</g>
<g style="fill:#000000; fill-opacity:1.0; 
stroke:#000000; stroke-width:39.3701; stroke-opacity:1; 
stroke-linecap:round; stroke-linejoin:round;">
</g>
<g style="fill:#000000; fill-opacity:1.0; 
stroke:#000000; stroke-width:0; stroke-opacity:1; 
stroke-linecap:round; stroke-linejoin:round;">
<circle cx="29090.6" cy="17492.1" r="354.331" /> 
</g>
<g style="fill:#000000; fill-opacity:1.0; 
stroke:#000000; stroke-width:39.3701; stroke-opacity:1; 
stroke-linecap:round; stroke-linejoin:round;">
</g>
<g style="fill:#000000; fill-opacity:1.0; 
stroke:#000000; stroke-width:0; stroke-opacity:1; 
stroke-linecap:round; stroke-linejoin:round;">
<circle cx="42401.6" cy="19803.1" r="433.071" /> 
</g>
<g style="fill:#000000; fill-opacity:1.0; 
stroke:#000000; stroke-width:39.3701; stroke-opacity:1; 
stroke-linecap:round; stroke-linejoin:round;">
</g>
<g style="fill:#000000; fill-opacity:1.0; 
stroke:#000000; stroke-width:0; stroke-opacity:1; 
stroke-linecap:round; stroke-linejoin:round;">
<circle cx="36338.6" cy="19803.1" r="433.071" /> 
</g>
<g style="fill:#000000; fill-opacity:1.0; 
stroke:#000000; stroke-width:39.3701; stroke-opacity:1; 
stroke-linecap:round; stroke-linejoin:round;">
</g>
<g style="fill:#000000; fill-opacity:1.0; 
stroke:#000000; stroke-width:0; stroke-opacity:1; 
stroke-linecap:round; stroke-linejoin:round;">
<circle cx="40354.3" cy="31378" r="433.071" /> 
</g>
<g style="fill:#000000; fill-opacity:1.0; 
stroke:#000000; stroke-width:39.3701; stroke-opacity:1; 
stroke-linecap:round; stroke-linejoin:round;">
</g>
<g style="fill:#000000; fill-opacity:1.0; 
stroke:#000000; stroke-width:0; stroke-opacity:1; 
stroke-linecap:round; stroke-linejoin:round;">
<circle cx="38385.8" cy="31378" r="433.071" /> 
</g>
<g style="fill:#000000; fill-opacity:1.0; 
stroke:#000000; stroke-width:39.3701; stroke-opacity:1; 
stroke-linecap:round; stroke-linejoin:round;">
</g>
<g style="fill:#000000; fill-opacity:1.0; 
stroke:#000000; stroke-width:0; stroke-opacity:1; 
stroke-linecap:round; stroke-linejoin:round;">
<circle cx="14842.5" cy="19921.3" r="393.701" /> 
</g>
<g style="fill:#000000; fill-opacity:1.0; 
stroke:#000000; stroke-width:39.3701; stroke-opacity:1; 
stroke-linecap:round; stroke-linejoin:round;">
</g>
<g style="fill:#000000; fill-opacity:1.0; 
stroke:#000000; stroke-width:0; stroke-opacity:1; 
stroke-linecap:round; stroke-linejoin:round;">
<circle cx="16614.2" cy="19921.3" r="393.701" /> 
</g>
<g style="fill:#000000; fill-opacity:1.0; 
stroke:#000000; stroke-width:39.3701; stroke-opacity:1; 
stroke-linecap:round; stroke-linejoin:round;">
</g>
<g style="fill:#000000; fill-opacity:1.0; 
stroke:#000000; stroke-width:0; stroke-opacity:1; 
stroke-linecap:round; stroke-linejoin:round;">
<circle cx="14842.5" cy="22480.3" r="393.701" /> 
</g>
<g style="fill:#000000; fill-opacity:1.0; 
stroke:#000000; stroke-width:39.3701; stroke-opacity:1; 
stroke-linecap:round; stroke-linejoin:round;">
</g>
<g style="fill:#000000; fill-opacity:1.0; 
stroke:#000000; stroke-width:0; stroke-opacity:1; 
stroke-linecap:round; stroke-linejoin:round;">
<circle cx="16614.2" cy="22480.3" r="393.701" /> 
</g>
<g style="fill:#000000; fill-opacity:1.0; 
stroke:#000000; stroke-width:39.3701; stroke-opacity:1; 
stroke-linecap:round; stroke-linejoin:round;">
</g>
<g style="fill:#000000; fill-opacity:1.0; 
stroke:#000000; stroke-width:0; stroke-opacity:1; 
stroke-linecap:round; stroke-linejoin:round;">
<circle cx="22913.4" cy="21850.4" r="236.22" /> 
</g>
<g style="fill:#000000; fill-opacity:1.0; 
stroke:#000000; stroke-width:39.3701; stroke-opacity:1; 
stroke-linecap:round; stroke-linejoin:round;">
</g>
<g style="fill:#000000; fill-opacity:1.0; 
stroke:#000000; stroke-width:0; stroke-opacity:1; 
stroke-linecap:round; stroke-linejoin:round;">
<polyline style="fill-rule:evenodd;"
points="23149,22677
22677,22677
22677,22204
23149,22204
23149,22677
" /> 
<circle cx="21023.6" cy="32598.4" r="314.961" /> 
</g>
<g style="fill:#000000; fill-opacity:1.0; 
stroke:#000000; stroke-width:39.3701; stroke-opacity:1; 
stroke-linecap:round; stroke-linejoin:round;">
</g>
<g style="fill:#000000; fill-opacity:1.0; 
stroke:#000000; stroke-width:0; stroke-opacity:1; 
stroke-linecap:round; stroke-linejoin:round;">
<circle cx="19055.1" cy="32598.4" r="314.961" /> 
</g>
<g style="fill:#000000; fill-opacity:1.0; 
stroke:#000000; stroke-width:39.3701; stroke-opacity:1; 
stroke-linecap:round; stroke-linejoin:round;">
</g>
<g style="fill:#000000; fill-opacity:1.0; 
stroke:#000000; stroke-width:0; stroke-opacity:1; 
stroke-linecap:round; stroke-linejoin:round;">
<polyline style="fill-rule:evenodd;"
points="31062,40275
31062,41456
29881,41456
29881,40275
31062,40275
" /> 
<circle cx="28472.4" cy="40866.1" r="590.551" /> 
</g>
<g style="fill:#000000; fill-opacity:1.0; 
stroke:#000000; stroke-width:39.3701; stroke-opacity:1; 
stroke-linecap:round; stroke-linejoin:round;">
</g>
<g style="fill:#000000; fill-opacity:1.0; 
stroke:#000000; stroke-width:0; stroke-opacity:1; 
stroke-linecap:round; stroke-linejoin:round;">
<circle cx="26472.4" cy="40866.1" r="590.551" /> 
</g>
<g style="fill:#000000; fill-opacity:1.0; 
stroke:#000000; stroke-width:39.3701; stroke-opacity:1; 
stroke-linecap:round; stroke-linejoin:round;">
</g>
<g style="fill:#000000; fill-opacity:1.0; 
stroke:#000000; stroke-width:0; stroke-opacity:1; 
stroke-linecap:round; stroke-linejoin:round;">
<polyline style="fill-rule:evenodd;"
points="23976,40275
23976,41456
22795,41456
22795,40275
23976,40275
" /> 
<circle cx="21385.8" cy="40866.1" r="590.551" /> 
</g>
<g style="fill:#000000; fill-opacity:1.0; 
stroke:#000000; stroke-width:39.3701; stroke-opacity:1; 
stroke-linecap:round; stroke-linejoin:round;">
</g>
<g style="fill:#000000; fill-opacity:1.0; 
stroke:#000000; stroke-width:629.921; stroke-opacity:1; 
stroke-linecap:round; stroke-linejoin:round;">
</g>
<g style="fill:#000000; fill-opacity:0.0; 
stroke:#000000; stroke-width:629.921; stroke-opacity:1; 
stroke-linecap:round; stroke-linejoin:round;">
<path d="M24724 24086
L24724 24086
" />
<path d="M25724 27086
L25724 27086
" />
<path d="M25724 24086
L25724 24086
" />
</g>
<g style="fill:#000000; fill-opacity:0.0; 
stroke:#000000; stroke-width:0; stroke-opacity:1; 
stroke-linecap:round; stroke-linejoin:round;">
</g>
<g style="fill:#000000; fill-opacity:1.0; 
stroke:#000000; stroke-width:0; stroke-opacity:1; 
stroke-linecap:round; stroke-linejoin:round;">
<polyline style="fill-rule:evenodd;"
points="25039,27401
24409,27401
24409,26771
25039,26771
25039,27401
" /> 
</g>
<g style="fill:#000000; fill-opacity:1.0; 
stroke:#000000; stroke-width:629.921; stroke-opacity:1; 
stroke-linecap:round; stroke-linejoin:round;">
</g>
<g style="fill:#000000; fill-opacity:0.0; 
stroke:#000000; stroke-width:629.921; stroke-opacity:1; 
stroke-linecap:round; stroke-linejoin:round;">
<path d="M21102 27094
L21102 27094
" />
<path d="M19102 24094
L19102 24094
" />
<path d="M20102 27094
L20102 27094
" />
<path d="M20102 24094
L20102 24094
" />
<path d="M19102 27094
L19102 27094
" />
</g>
<g style="fill:#000000; fill-opacity:0.0; 
stroke:#000000; stroke-width:0; stroke-opacity:1; 
stroke-linecap:round; stroke-linejoin:round;">
</g>
<g style="fill:#000000; fill-opacity:1.0; 
stroke:#000000; stroke-width:0; stroke-opacity:1; 
stroke-linecap:round; stroke-linejoin:round;">
<polyline style="fill-rule:evenodd;"
points="20787,23779
21417,23779
21417,24409
20787,24409
20787,23779
" /> 
</g>
<g style="fill:#000000; fill-opacity:1.0; 
stroke:#000000; stroke-width:787.402; stroke-opacity:1; 
stroke-linecap:round; stroke-linejoin:round;">
</g>
<g style="fill:#000000; fill-opacity:0.0; 
stroke:#000000; stroke-width:787.402; stroke-opacity:1; 
stroke-linecap:round; stroke-linejoin:round;">
<path d="M30472 42362
L30472 40866
" />
</g>
<g style="fill:#000000; fill-opacity:0.0; 
stroke:#000000; stroke-width:1181.1; stroke-opacity:1; 
stroke-linecap:round; stroke-linejoin:round;">
<path d="M23385 40866
L26472 40866
" />
</g>
<g style="fill:#000000; fill-opacity:1.0; 
stroke:#000000; stroke-width:100; stroke-opacity:1; 
stroke-linecap:round; stroke-linejoin:round;">
<polyline style="fill-rule:evenodd;"
points="26808,6233
27887,6331
28958,6489
30019,6707
31066,6984
32096,7318
33106,7710
34093,8157
35052,8659
35983,9214
36881,9819
37743,10474
38568,11176
39353,11923
40094,12713
40790,13542
41439,14410
42039,15312
42587,16246
43082,17209
43522,18199
43907,19211
44234,20244
44504,21293
44714,22355
44865,23428
44955,24507
44960,24674
6223,24674
6242,24237
6256,24094
18526,24094
18570,24314
18695,24501
18881,24626
19046,24659
19158,24659
19322,24626
19509,24501
19610,24350
19648,24431
19812,24579
19964,24642
20052,24594
20052,24144
20044,24144
20044,24044
20052,24044
20052,23594
20152,23594
20152,24044
20160,24044
20160,24144
20152,24144
20152,24594
20239,24642
20392,24579
20539,24445
20551,24506
20607,24589
20689,24644
20787,24664
21417,24664
21514,24644
21597,24589
21652,24506
21672,24409
21672,24086
24148,24086
24192,24307
24317,24493
24503,24618
24668,24651
24780,24651
24944,24618
25131,24493
25232,24342
25270,24423
25434,24571
25586,24634
25674,24586
25674,24136
25774,24136
25774,24586
25861,24634
26014,24571
26178,24423
26272,24224
26224,24136
25774,24136
25674,24136
25666,24136
25666,24036
25674,24036
25674,23586
25774,23586
25774,24036
26224,24036
26272,23949
26178,23749
26014,23601
25861,23538
25774,23586
25674,23586
25586,23538
25434,23601
25270,23749
25232,23830
25131,23679
24944,23554
24780,23521
24668,23521
24503,23554
24317,23679
24192,23866
24148,24086
21672,24086
21672,23779
21652,23681
21597,23599
21514,23544
21417,23524
20787,23524
20689,23544
20607,23599
20551,23681
20539,23743
20392,23609
20239,23546
20152,23594
20052,23594
19964,23546
19812,23609
19648,23757
19610,23838
19509,23687
19322,23562
19158,23529
19046,23529
18881,23562
18695,23687
18570,23874
18526,24094
6256,24094
6347,23159
6472,22352
14198,22352
14198,22608
14296,22844
14477,23026
14714,23124
14970,23124
15207,23026
15388,22844
15486,22608
15486,22352
15970,22352
15970,22608
16068,22844
16249,23026
16486,23124
16742,23124
16978,23026
17159,22844
17257,22608
17257,22352
17159,22115
16978,21934
16742,21836
16486,21836
16249,21934
16068,22115
15970,22352
15486,22352
15388,22115
15207,21934
14970,21836
14714,21836
14477,21934
14296,22115
14198,22352
6472,22352
6513,22089
6578,21783
22422,21783
22434,21976
22470,22064
22441,22107
22422,22204
22422,22677
22441,22774
22496,22857
22579,22912
22677,22932
23149,22932
23247,22912
23329,22857
23385,22774
23404,22677
23404,22204
23385,22107
23354,22061
23404,21916
23392,21723
23341,21600
23253,21581
22984,21850
22989,21855
22918,21926
22913,21921
22907,21926
22837,21855
22842,21850
22573,21581
22484,21600
22422,21783
6578,21783
6636,21510
22644,21510
22913,21779
23182,21510
23162,21421
22979,21359
22786,21371
22663,21421
22644,21510
6636,21510
6738,21029
7022,19984
7086,19793
14198,19793
14198,20049
14296,20285
14477,20466
14714,20564
14970,20564
15207,20466
15388,20285
15486,20049
15486,19793
15970,19793
15970,20049
16068,20285
16249,20466
16486,20564
16742,20564
16978,20466
17159,20285
17160,20285
35927,20285
35970,20394
36225,20490
36496,20481
36706,20394
36750,20285
36338,19873
35927,20285
17160,20285
17257,20049
17257,19793
17214,19689
35651,19689
35660,19961
35747,20171
35856,20214
36267,19803
36409,19803
36820,20214
36929,20171
37025,19916
37017,19667
41718,19667
41718,19939
41822,20190
42014,20382
42265,20486
42537,20486
42788,20382
42980,20190
43084,19939
43084,19667
42980,19416
42788,19224
42537,19120
42265,19120
42014,19224
41822,19416
41718,19667
37017,19667
37016,19645
36929,19435
36820,19391
36409,19803
36267,19803
35856,19391
35747,19435
35651,19689
17214,19689
17159,19556
16978,19375
16846,19320
35927,19320
36338,19732
36750,19320
36706,19211
36452,19116
36180,19124
35970,19211
35927,19320
16846,19320
16742,19277
16486,19277
16249,19375
16068,19556
15970,19793
15486,19793
15388,19556
15207,19375
14970,19277
14714,19277
14477,19375
14296,19556
14198,19793
7086,19793
7364,18956
7763,17949
8030,17371
21486,17371
21486,17612
21578,17834
21748,18004
21970,18096
22210,18096
22432,18004
22519,17917
22736,17917
22770,18018
22995,18100
23236,18090
23411,18018
23445,17917
23090,17562
22736,17917
22519,17917
22602,17834
22606,17826
22665,17846
23019,17492
23161,17492
23515,17846
23575,17826
23578,17834
23748,18004
23970,18096
24210,18096
24432,18004
24590,17846
24748,18004
24970,18096
25210,18096
25432,18004
25590,17846
25748,18004
25970,18096
26210,18096
26432,18004
26590,17846
26748,18004
26970,18096
27210,18096
27432,18004
27590,17846
27748,18004
27970,18096
28210,18096
28432,18004
28590,17846
28748,18004
28970,18096
29210,18096
29432,18004
29602,17834
29694,17612
29694,17371
29602,17149
29432,16979
29210,16887
28970,16887
28748,16979
28590,17137
28432,16979
28210,16887
27970,16887
27748,16979
27590,17137
27432,16979
27210,16887
26970,16887
26748,16979
26590,17137
26432,16979
26210,16887
25970,16887
25748,16979
25590,17137
25432,16979
25210,16887
24970,16887
24748,16979
24590,17137
24432,16979
24210,16887
23970,16887
23748,16979
23578,17149
23575,17157
23515,17137
23161,17492
23019,17492
22665,17137
22606,17157
22602,17149
22519,17066
22736,17066
23090,17421
23445,17066
23411,16965
23185,16883
22945,16893
22770,16965
22736,17066
22519,17066
22432,16979
22210,16887
21970,16887
21748,16979
21578,17149
21486,17371
8030,17371
8217,16966
8726,16010
9287,15083
9899,14190
10241,13745
35576,13745
35576,13970
35662,14178
35821,14337
36029,14423
36254,14423
36461,14337
36620,14178
36706,13970
36706,13745
36620,13538
36461,13379
36254,13293
36029,13293
35821,13379
35662,13538
35576,13745
10241,13745
10559,13331
11222,12564
35576,12564
35576,12789
35662,12997
35821,13156
36029,13242
36254,13242
36461,13156
36620,12997
36706,12789
36706,12564
36620,12357
36461,12198
36254,12112
36029,12112
35821,12198
35662,12357
35576,12564
11222,12564
11267,12512
12020,11732
12814,10996
13649,10306
14521,9663
15427,9070
16365,8529
16676,8371
21486,8371
21486,8612
21578,8834
21748,9004
21970,9096
22210,9096
22432,9004
22590,8846
22748,9004
22970,9096
23210,9096
23432,9004
23590,8846
23748,9004
23970,9096
24210,9096
24432,9004
24590,8846
24748,9004
24970,9096
25210,9096
25432,9004
25590,8846
25748,9004
25970,9096
26210,9096
26432,9004
26590,8846
26748,9004
26970,9096
27210,9096
27432,9004
27590,8846
27748,9004
27970,9096
28210,9096
28432,9004
28590,8846
28748,9004
28970,9096
29210,9096
29432,9004
29602,8834
29694,8612
29694,8371
29602,8149
29432,7979
29210,7887
28970,7887
28748,7979
28590,8137
28432,7979
28210,7887
27970,7887
27748,7979
27590,8137
27432,7979
27210,7887
26970,7887
26748,7979
26590,8137
26432,7979
26210,7887
25970,7887
25748,7979
25590,8137
25432,7979
25210,7887
24970,7887
24748,7979
24590,8137
24432,7979
24210,7887
23970,7887
23748,7979
23590,8137
23432,7979
23210,7887
22970,7887
22748,7979
22590,8137
22432,7979
22210,7887
21970,7887
21748,7979
21578,8149
21486,8371
16676,8371
17332,8040
18324,7607
19339,7229
20374,6909
21425,6647
22489,6444
23563,6301
24643,6218
25725,6195
26808,6233
" /> 
</g> 
</svg>
