<?xml version="1.0" standalone="no"?>
 <!DOCTYPE svg PUBLIC "-//W3C//DTD SVG 1.1//EN" 
 "http://www.w3.org/Graphics/SVG/1.1/DTD/svg11.dtd"> 
<svg xmlns="http://www.w3.org/2000/svg" version="1.1" 
    width="12.9997cm" height="18.001cm" viewBox="0 0 51180 70870 ">
<title>SVG Picture created as mains-light-controller-F.Cu.svg date 2019/06/14 04:51:28 </title>
  <desc>Picture generated by PCBNEW </desc>
<g style="fill:#000000; fill-opacity:1;stroke:#000000; stroke-opacity:1;
stroke-linecap:round; stroke-linejoin:round; "
 transform="translate(0 0) scale(1 1)">
</g>
<g style="fill:#000000; fill-opacity:0.0; 
stroke:#000000; stroke-width:-0.000393701; stroke-opacity:1; 
stroke-linecap:round; stroke-linejoin:round;">
</g>
<g style="fill:#000000; fill-opacity:1.0; 
stroke:#000000; stroke-width:0; stroke-opacity:1; 
stroke-linecap:round; stroke-linejoin:round;">
<circle cx="25086.6" cy="34566.9" r="462.598" /> 
</g>
<g style="fill:#000000; fill-opacity:1.0; 
stroke:#000000; stroke-width:39.3701; stroke-opacity:1; 
stroke-linecap:round; stroke-linejoin:round;">
</g>
<g style="fill:#000000; fill-opacity:1.0; 
stroke:#000000; stroke-width:0; stroke-opacity:1; 
stroke-linecap:round; stroke-linejoin:round;">
<circle cx="25086.6" cy="36566.9" r="462.598" /> 
</g>
<g style="fill:#000000; fill-opacity:1.0; 
stroke:#000000; stroke-width:39.3701; stroke-opacity:1; 
stroke-linecap:round; stroke-linejoin:round;">
</g>
<g style="fill:#000000; fill-opacity:1.0; 
stroke:#000000; stroke-width:0; stroke-opacity:1; 
stroke-linecap:round; stroke-linejoin:round;">
<circle cx="19055.1" cy="34566.9" r="462.598" /> 
</g>
<g style="fill:#000000; fill-opacity:1.0; 
stroke:#000000; stroke-width:39.3701; stroke-opacity:1; 
stroke-linecap:round; stroke-linejoin:round;">
</g>
<g style="fill:#000000; fill-opacity:1.0; 
stroke:#000000; stroke-width:0; stroke-opacity:1; 
stroke-linecap:round; stroke-linejoin:round;">
<circle cx="19055.1" cy="36566.9" r="462.598" /> 
</g>
<g style="fill:#000000; fill-opacity:1.0; 
stroke:#000000; stroke-width:39.3701; stroke-opacity:1; 
stroke-linecap:round; stroke-linejoin:round;">
</g>
<g style="fill:#000000; fill-opacity:1.0; 
stroke:#000000; stroke-width:0; stroke-opacity:1; 
stroke-linecap:round; stroke-linejoin:round;">
<polyline style="fill-rule:evenodd;"
points="28255,29234
28255,28777
28712,28777
28712,29234
28255,29234
" /> 
<circle cx="26476.4" cy="29005.9" r="228.346" /> 
</g>
<g style="fill:#000000; fill-opacity:1.0; 
stroke:#000000; stroke-width:39.3701; stroke-opacity:1; 
stroke-linecap:round; stroke-linejoin:round;">
</g>
<g style="fill:#000000; fill-opacity:1.0; 
stroke:#000000; stroke-width:0; stroke-opacity:1; 
stroke-linecap:round; stroke-linejoin:round;">
<circle cx="26476.4" cy="32253.9" r="228.346" /> 
</g>
<g style="fill:#000000; fill-opacity:1.0; 
stroke:#000000; stroke-width:39.3701; stroke-opacity:1; 
stroke-linecap:round; stroke-linejoin:round;">
</g>
<g style="fill:#000000; fill-opacity:1.0; 
stroke:#000000; stroke-width:0; stroke-opacity:1; 
stroke-linecap:round; stroke-linejoin:round;">
<circle cx="28484.3" cy="32253.9" r="228.346" /> 
</g>
<g style="fill:#000000; fill-opacity:1.0; 
stroke:#000000; stroke-width:39.3701; stroke-opacity:1; 
stroke-linecap:round; stroke-linejoin:round;">
</g>
<g style="fill:#000000; fill-opacity:1.0; 
stroke:#000000; stroke-width:0; stroke-opacity:1; 
stroke-linecap:round; stroke-linejoin:round;">
<circle cx="12318.9" cy="28055.1" r="496.85" /> 
</g>
<g style="fill:#000000; fill-opacity:1.0; 
stroke:#000000; stroke-width:39.3701; stroke-opacity:1; 
stroke-linecap:round; stroke-linejoin:round;">
</g>
<g style="fill:#000000; fill-opacity:1.0; 
stroke:#000000; stroke-width:0; stroke-opacity:1; 
stroke-linecap:round; stroke-linejoin:round;">
<circle cx="12318.9" cy="35141.7" r="496.85" /> 
</g>
<g style="fill:#000000; fill-opacity:1.0; 
stroke:#000000; stroke-width:39.3701; stroke-opacity:1; 
stroke-linecap:round; stroke-linejoin:round;">
</g>
<g style="fill:#000000; fill-opacity:1.0; 
stroke:#000000; stroke-width:750; stroke-opacity:1; 
stroke-linecap:round; stroke-linejoin:round;">
</g>
<g style="fill:#000000; fill-opacity:0.0; 
stroke:#000000; stroke-width:750; stroke-opacity:1; 
stroke-linecap:round; stroke-linejoin:round;">
<path d="M14784 30598
L14821 30598
" />
<path d="M14784 31598
L14821 31598
" />
</g>
<g style="fill:#000000; fill-opacity:0.0; 
stroke:#000000; stroke-width:0; stroke-opacity:1; 
stroke-linecap:round; stroke-linejoin:round;">
</g>
<g style="fill:#000000; fill-opacity:1.0; 
stroke:#000000; stroke-width:0; stroke-opacity:1; 
stroke-linecap:round; stroke-linejoin:round;">
<polyline style="fill-rule:evenodd;"
points="15196,32973
14409,32973
14409,32223
15196,32223
15196,32973
" /> 
<polyline style="fill-rule:evenodd;"
points="24980,29833
24989,29834
24999,29836
25008,29840
25016,29844
25025,29849
25032,29855
25040,29861
25046,29868
25052,29876
25057,29884
25061,29893
25064,29902
25067,29911
25068,29921
25068,29931
25068,30295
25068,30304
25067,30314
25064,30323
25061,30332
25057,30341
25052,30349
25046,30357
25040,30364
25032,30371
25025,30377
25016,30382
25008,30386
24999,30389
24989,30391
24980,30393
24970,30393
24478,30393
24468,30393
24459,30391
24449,30389
24440,30386
24431,30382
24423,30377
24415,30371
24408,30364
24402,30357
24396,30349
24391,30341
24387,30332
24384,30323
24381,30314
24380,30304
24379,30295
24379,29931
24380,29921
24381,29911
24384,29902
24387,29893
24391,29884
24396,29876
24402,29868
24408,29861
24415,29855
24423,29849
24431,29844
24440,29840
24449,29836
24459,29834
24468,29833
24478,29832
24970,29832
24980,29833
" /> 
<polyline style="fill-rule:evenodd;"
points="24980,28661
24989,28663
24999,28665
25008,28668
25016,28673
25025,28678
25032,28683
25040,28690
25046,28697
25052,28705
25057,28713
25061,28722
25064,28731
25067,28740
25068,28750
25068,28759
25068,29124
25068,29133
25067,29143
25064,29152
25061,29161
25057,29170
25052,29178
25046,29186
25040,29193
25032,29200
25025,29205
25016,29210
25008,29214
24999,29218
24989,29220
24980,29221
24970,29222
24478,29222
24468,29221
24459,29220
24449,29218
24440,29214
24431,29210
24423,29205
24415,29200
24408,29193
24402,29186
24396,29178
24391,29170
24387,29161
24384,29152
24381,29143
24380,29133
24379,29124
24379,28759
24380,28750
24381,28740
24384,28731
24387,28722
24391,28713
24396,28705
24402,28697
24408,28690
24415,28683
24423,28678
24431,28673
24440,28668
24449,28665
24459,28663
24468,28661
24478,28661
24970,28661
24980,28661
" /> 
<polyline style="fill-rule:evenodd;"
points="24980,22431
24989,22432
24999,22435
25008,22438
25016,22442
25025,22447
25032,22453
25040,22459
25046,22467
25052,22474
25057,22483
25061,22491
25064,22500
25067,22510
25068,22519
25068,22529
25068,22893
25068,22903
25067,22912
25064,22922
25061,22931
25057,22940
25052,22948
25046,22956
25040,22963
25032,22969
25025,22975
25016,22980
25008,22984
24999,22987
24989,22990
24980,22991
24970,22992
24478,22992
24468,22991
24459,22990
24449,22987
24440,22984
24431,22980
24423,22975
24415,22969
24408,22963
24402,22956
24396,22948
24391,22940
24387,22931
24384,22922
24381,22912
24380,22903
24379,22893
24379,22529
24380,22519
24381,22510
24384,22500
24387,22491
24391,22483
24396,22474
24402,22467
24408,22459
24415,22453
24423,22447
24431,22442
24440,22438
24449,22435
24459,22432
24468,22431
24478,22431
24970,22431
24980,22431
" /> 
<polyline style="fill-rule:evenodd;"
points="24980,21260
24989,21261
24999,21264
25008,21267
25016,21271
25025,21276
25032,21282
25040,21288
25046,21295
25052,21303
25057,21311
25061,21320
25064,21329
25067,21339
25068,21348
25068,21358
25068,21722
25068,21732
25067,21741
25064,21751
25061,21760
25057,21768
25052,21777
25046,21784
25040,21792
25032,21798
25025,21804
25016,21809
25008,21813
24999,21816
24989,21818
24980,21820
24970,21820
24478,21820
24468,21820
24459,21818
24449,21816
24440,21813
24431,21809
24423,21804
24415,21798
24408,21792
24402,21784
24396,21777
24391,21768
24387,21760
24384,21751
24381,21741
24380,21732
24379,21722
24379,21358
24380,21348
24381,21339
24384,21329
24387,21320
24391,21311
24396,21303
24402,21295
24408,21288
24415,21282
24423,21276
24431,21271
24440,21267
24449,21264
24459,21261
24468,21260
24478,21259
24970,21259
24980,21260
" /> 
<polyline style="fill-rule:evenodd;"
points="21249,28632
21259,28633
21268,28636
21277,28639
21286,28643
21294,28648
21302,28654
21309,28660
21316,28667
21321,28675
21326,28683
21331,28692
21334,28701
21336,28711
21338,28720
21338,28730
21338,29222
21338,29232
21336,29241
21334,29251
21331,29260
21326,29268
21321,29277
21316,29284
21309,29292
21302,29298
21294,29304
21286,29309
21277,29313
21268,29316
21259,29318
21249,29320
21240,29320
20875,29320
20866,29320
20856,29318
20847,29316
20838,29313
20829,29309
20821,29304
20813,29298
20806,29292
20799,29284
20794,29277
20789,29268
20785,29260
20781,29251
20779,29241
20778,29232
20777,29222
20777,28730
20778,28720
20779,28711
20781,28701
20785,28692
20789,28683
20794,28675
20799,28667
20806,28660
20813,28654
20821,28648
20829,28643
20838,28639
20847,28636
20856,28633
20866,28632
20875,28631
21240,28631
21249,28632
" /> 
<polyline style="fill-rule:evenodd;"
points="20078,28632
20088,28633
20097,28636
20106,28639
20115,28643
20123,28648
20131,28654
20138,28660
20144,28667
20150,28675
20155,28683
20159,28692
20163,28701
20165,28711
20166,28720
20167,28730
20167,29222
20166,29232
20165,29241
20163,29251
20159,29260
20155,29268
20150,29277
20144,29284
20138,29292
20131,29298
20123,29304
20115,29309
20106,29313
20097,29316
20088,29318
20078,29320
20068,29320
19704,29320
19695,29320
19685,29318
19676,29316
19667,29313
19658,29309
19650,29304
19642,29298
19635,29292
19628,29284
19622,29277
19617,29268
19613,29260
19610,29251
19608,29241
19606,29232
19606,29222
19606,28730
19606,28720
19608,28711
19610,28701
19613,28692
19617,28683
19622,28675
19628,28667
19635,28660
19642,28654
19650,28648
19658,28643
19667,28639
19676,28636
19685,28633
19695,28632
19704,28631
20068,28631
20078,28632
" /> 
<polyline style="fill-rule:evenodd;"
points="21358,22431
21367,22432
21376,22435
21386,22438
21394,22442
21403,22447
21410,22453
21418,22459
21424,22467
21430,22474
21435,22483
21439,22491
21442,22500
21444,22510
21446,22519
21446,22529
21446,22893
21446,22903
21444,22912
21442,22922
21439,22931
21435,22940
21430,22948
21424,22956
21418,22963
21410,22969
21403,22975
21394,22980
21386,22984
21376,22987
21367,22990
21358,22991
21348,22992
20856,22992
20846,22991
20837,22990
20827,22987
20818,22984
20809,22980
20801,22975
20793,22969
20786,22963
20780,22956
20774,22948
20769,22940
20765,22931
20762,22922
20759,22912
20758,22903
20757,22893
20757,22529
20758,22519
20759,22510
20762,22500
20765,22491
20769,22483
20774,22474
20780,22467
20786,22459
20793,22453
20801,22447
20809,22442
20818,22438
20827,22435
20837,22432
20846,22431
20856,22431
21348,22431
21358,22431
" /> 
<polyline style="fill-rule:evenodd;"
points="21358,21260
21367,21261
21376,21264
21386,21267
21394,21271
21403,21276
21410,21282
21418,21288
21424,21295
21430,21303
21435,21311
21439,21320
21442,21329
21444,21339
21446,21348
21446,21358
21446,21722
21446,21732
21444,21741
21442,21751
21439,21760
21435,21768
21430,21777
21424,21784
21418,21792
21410,21798
21403,21804
21394,21809
21386,21813
21376,21816
21367,21818
21358,21820
21348,21820
20856,21820
20846,21820
20837,21818
20827,21816
20818,21813
20809,21809
20801,21804
20793,21798
20786,21792
20780,21784
20774,21777
20769,21768
20765,21760
20762,21751
20759,21741
20758,21732
20757,21722
20757,21358
20758,21348
20759,21339
20762,21329
20765,21320
20769,21311
20774,21303
20780,21295
20786,21288
20793,21282
20801,21276
20809,21271
20818,21267
20827,21264
20837,21261
20846,21260
20856,21259
21348,21259
21358,21260
" /> 
<polyline style="fill-rule:evenodd;"
points="35744,14928
35753,14930
35763,14932
35772,14935
35780,14939
35789,14944
35797,14950
35804,14957
35810,14964
35816,14972
35821,14980
35825,14989
35828,14998
35831,15007
35832,15017
35833,15026
35833,15518
35832,15528
35831,15538
35828,15547
35825,15556
35821,15565
35816,15573
35810,15581
35804,15588
35797,15594
35789,15600
35780,15605
35772,15609
35763,15613
35753,15615
35744,15616
35734,15617
35370,15617
35360,15616
35351,15615
35341,15613
35332,15609
35324,15605
35315,15600
35307,15594
35300,15588
35294,15581
35288,15573
35283,15565
35279,15556
35276,15547
35273,15538
35272,15528
35271,15518
35271,15026
35272,15017
35273,15007
35276,14998
35279,14989
35283,14980
35288,14972
35294,14964
35300,14957
35307,14950
35315,14944
35324,14939
35332,14935
35341,14932
35351,14930
35360,14928
35370,14928
35734,14928
35744,14928
" /> 
<polyline style="fill-rule:evenodd;"
points="36915,14928
36925,14930
36934,14932
36943,14935
36952,14939
36960,14944
36968,14950
36975,14957
36981,14964
36987,14972
36992,14980
36996,14989
37000,14998
37002,15007
37003,15017
37004,15026
37004,15518
37003,15528
37002,15538
37000,15547
36996,15556
36992,15565
36987,15573
36981,15581
36975,15588
36968,15594
36960,15600
36952,15605
36943,15609
36934,15613
36925,15615
36915,15616
36905,15617
36541,15617
36532,15616
36522,15615
36513,15613
36503,15609
36495,15605
36486,15600
36479,15594
36472,15588
36465,15581
36459,15573
36454,15565
36450,15556
36447,15547
36445,15538
36443,15528
36443,15518
36443,15026
36443,15017
36445,15007
36447,14998
36450,14989
36454,14980
36459,14972
36465,14964
36472,14957
36479,14950
36486,14944
36495,14939
36503,14935
36513,14932
36522,14930
36532,14928
36541,14928
36905,14928
36915,14928
" /> 
<polyline style="fill-rule:evenodd;"
points="20255,22431
20265,22432
20274,22435
20283,22438
20292,22442
20300,22447
20308,22453
20315,22459
20322,22467
20327,22474
20332,22483
20336,22491
20340,22500
20342,22510
20344,22519
20344,22529
20344,22893
20344,22903
20342,22912
20340,22922
20336,22931
20332,22940
20327,22948
20322,22956
20315,22963
20308,22969
20300,22975
20292,22980
20283,22984
20274,22987
20265,22990
20255,22991
20246,22992
19753,22992
19744,22991
19734,22990
19725,22987
19716,22984
19707,22980
19699,22975
19691,22969
19684,22963
19677,22956
19672,22948
19667,22940
19663,22931
19659,22922
19657,22912
19655,22903
19655,22893
19655,22529
19655,22519
19657,22510
19659,22500
19663,22491
19667,22483
19672,22474
19677,22467
19684,22459
19691,22453
19699,22447
19707,22442
19716,22438
19725,22435
19734,22432
19744,22431
19753,22431
20246,22431
20255,22431
" /> 
<polyline style="fill-rule:evenodd;"
points="20255,21260
20265,21261
20274,21264
20283,21267
20292,21271
20300,21276
20308,21282
20315,21288
20322,21295
20327,21303
20332,21311
20336,21320
20340,21329
20342,21339
20344,21348
20344,21358
20344,21722
20344,21732
20342,21741
20340,21751
20336,21760
20332,21768
20327,21777
20322,21784
20315,21792
20308,21798
20300,21804
20292,21809
20283,21813
20274,21816
20265,21818
20255,21820
20246,21820
19753,21820
19744,21820
19734,21818
19725,21816
19716,21813
19707,21809
19699,21804
19691,21798
19684,21792
19677,21784
19672,21777
19667,21768
19663,21760
19659,21751
19657,21741
19655,21732
19655,21722
19655,21358
19655,21348
19657,21339
19659,21329
19663,21320
19667,21311
19672,21303
19677,21295
19684,21288
19691,21282
19699,21276
19707,21271
19716,21267
19725,21264
19734,21261
19744,21260
19753,21259
20246,21259
20255,21260
" /> 
<polyline style="fill-rule:evenodd;"
points="19369,30108
19379,30110
19388,30112
19397,30115
19406,30119
19414,30124
19422,30130
19429,30137
19436,30144
19442,30152
19447,30160
19451,30169
19454,30178
19456,30187
19458,30197
19458,30206
19458,31053
19458,31062
19456,31072
19454,31081
19451,31090
19447,31099
19442,31107
19436,31115
19429,31122
19422,31129
19414,31134
19406,31139
19397,31144
19388,31147
19379,31149
19369,31151
19360,31151
18956,31151
18947,31151
18937,31149
18928,31147
18919,31144
18910,31139
18902,31134
18894,31129
18887,31122
18880,31115
18874,31107
18869,31099
18865,31090
18862,31081
18860,31072
18858,31062
18858,31053
18858,30206
18858,30197
18860,30187
18862,30178
18865,30169
18869,30160
18874,30152
18880,30144
18887,30137
18894,30130
18902,30124
18910,30119
18919,30115
18928,30112
18937,30110
18947,30108
18956,30108
19360,30108
19369,30108
" /> 
<polyline style="fill-rule:evenodd;"
points="21210,30108
21219,30110
21229,30112
21238,30115
21247,30119
21255,30124
21263,30130
21270,30137
21276,30144
21282,30152
21287,30160
21291,30169
21294,30178
21297,30187
21298,30197
21299,30206
21299,31053
21298,31062
21297,31072
21294,31081
21291,31090
21287,31099
21282,31107
21276,31115
21270,31122
21263,31129
21255,31134
21247,31139
21238,31144
21229,31147
21219,31149
21210,31151
21200,31151
20797,31151
20787,31151
20778,31149
20768,31147
20759,31144
20750,31139
20742,31134
20734,31129
20727,31122
20721,31115
20715,31107
20710,31099
20706,31090
20703,31081
20700,31072
20699,31062
20698,31053
20698,30206
20699,30197
20700,30187
20703,30178
20706,30169
20710,30160
20715,30152
20721,30144
20727,30137
20734,30130
20742,30124
20750,30119
20759,30115
20768,30112
20778,30110
20787,30108
20797,30108
21200,30108
21210,30108
" /> 
<circle cx="36141.7" cy="13858.3" r="314.961" /> 
</g>
<g style="fill:#000000; fill-opacity:1.0; 
stroke:#000000; stroke-width:39.3701; stroke-opacity:1; 
stroke-linecap:round; stroke-linejoin:round;">
</g>
<g style="fill:#000000; fill-opacity:1.0; 
stroke:#000000; stroke-width:0; stroke-opacity:1; 
stroke-linecap:round; stroke-linejoin:round;">
<circle cx="36141.7" cy="12677.2" r="314.961" /> 
</g>
<g style="fill:#000000; fill-opacity:1.0; 
stroke:#000000; stroke-width:39.3701; stroke-opacity:1; 
stroke-linecap:round; stroke-linejoin:round;">
</g>
<g style="fill:#000000; fill-opacity:1.0; 
stroke:#000000; stroke-width:0; stroke-opacity:1; 
stroke-linecap:round; stroke-linejoin:round;">
<circle cx="22090.6" cy="8492.13" r="354.331" /> 
</g>
<g style="fill:#000000; fill-opacity:1.0; 
stroke:#000000; stroke-width:39.3701; stroke-opacity:1; 
stroke-linecap:round; stroke-linejoin:round;">
</g>
<g style="fill:#000000; fill-opacity:1.0; 
stroke:#000000; stroke-width:0; stroke-opacity:1; 
stroke-linecap:round; stroke-linejoin:round;">
<circle cx="22090.6" cy="17492.1" r="354.331" /> 
</g>
<g style="fill:#000000; fill-opacity:1.0; 
stroke:#000000; stroke-width:39.3701; stroke-opacity:1; 
stroke-linecap:round; stroke-linejoin:round;">
</g>
<g style="fill:#000000; fill-opacity:1.0; 
stroke:#000000; stroke-width:0; stroke-opacity:1; 
stroke-linecap:round; stroke-linejoin:round;">
<circle cx="23090.6" cy="8492.13" r="354.331" /> 
</g>
<g style="fill:#000000; fill-opacity:1.0; 
stroke:#000000; stroke-width:39.3701; stroke-opacity:1; 
stroke-linecap:round; stroke-linejoin:round;">
</g>
<g style="fill:#000000; fill-opacity:1.0; 
stroke:#000000; stroke-width:0; stroke-opacity:1; 
stroke-linecap:round; stroke-linejoin:round;">
<circle cx="23090.6" cy="17492.1" r="354.331" /> 
</g>
<g style="fill:#000000; fill-opacity:1.0; 
stroke:#000000; stroke-width:39.3701; stroke-opacity:1; 
stroke-linecap:round; stroke-linejoin:round;">
</g>
<g style="fill:#000000; fill-opacity:1.0; 
stroke:#000000; stroke-width:0; stroke-opacity:1; 
stroke-linecap:round; stroke-linejoin:round;">
<circle cx="24090.6" cy="8492.13" r="354.331" /> 
</g>
<g style="fill:#000000; fill-opacity:1.0; 
stroke:#000000; stroke-width:39.3701; stroke-opacity:1; 
stroke-linecap:round; stroke-linejoin:round;">
</g>
<g style="fill:#000000; fill-opacity:1.0; 
stroke:#000000; stroke-width:0; stroke-opacity:1; 
stroke-linecap:round; stroke-linejoin:round;">
<circle cx="24090.6" cy="17492.1" r="354.331" /> 
</g>
<g style="fill:#000000; fill-opacity:1.0; 
stroke:#000000; stroke-width:39.3701; stroke-opacity:1; 
stroke-linecap:round; stroke-linejoin:round;">
</g>
<g style="fill:#000000; fill-opacity:1.0; 
stroke:#000000; stroke-width:0; stroke-opacity:1; 
stroke-linecap:round; stroke-linejoin:round;">
<circle cx="25090.6" cy="8492.13" r="354.331" /> 
</g>
<g style="fill:#000000; fill-opacity:1.0; 
stroke:#000000; stroke-width:39.3701; stroke-opacity:1; 
stroke-linecap:round; stroke-linejoin:round;">
</g>
<g style="fill:#000000; fill-opacity:1.0; 
stroke:#000000; stroke-width:0; stroke-opacity:1; 
stroke-linecap:round; stroke-linejoin:round;">
<circle cx="25090.6" cy="17492.1" r="354.331" /> 
</g>
<g style="fill:#000000; fill-opacity:1.0; 
stroke:#000000; stroke-width:39.3701; stroke-opacity:1; 
stroke-linecap:round; stroke-linejoin:round;">
</g>
<g style="fill:#000000; fill-opacity:1.0; 
stroke:#000000; stroke-width:0; stroke-opacity:1; 
stroke-linecap:round; stroke-linejoin:round;">
<circle cx="26090.6" cy="8492.13" r="354.331" /> 
</g>
<g style="fill:#000000; fill-opacity:1.0; 
stroke:#000000; stroke-width:39.3701; stroke-opacity:1; 
stroke-linecap:round; stroke-linejoin:round;">
</g>
<g style="fill:#000000; fill-opacity:1.0; 
stroke:#000000; stroke-width:0; stroke-opacity:1; 
stroke-linecap:round; stroke-linejoin:round;">
<circle cx="26090.6" cy="17492.1" r="354.331" /> 
</g>
<g style="fill:#000000; fill-opacity:1.0; 
stroke:#000000; stroke-width:39.3701; stroke-opacity:1; 
stroke-linecap:round; stroke-linejoin:round;">
</g>
<g style="fill:#000000; fill-opacity:1.0; 
stroke:#000000; stroke-width:0; stroke-opacity:1; 
stroke-linecap:round; stroke-linejoin:round;">
<circle cx="27090.6" cy="8492.13" r="354.331" /> 
</g>
<g style="fill:#000000; fill-opacity:1.0; 
stroke:#000000; stroke-width:39.3701; stroke-opacity:1; 
stroke-linecap:round; stroke-linejoin:round;">
</g>
<g style="fill:#000000; fill-opacity:1.0; 
stroke:#000000; stroke-width:0; stroke-opacity:1; 
stroke-linecap:round; stroke-linejoin:round;">
<circle cx="27090.6" cy="17492.1" r="354.331" /> 
</g>
<g style="fill:#000000; fill-opacity:1.0; 
stroke:#000000; stroke-width:39.3701; stroke-opacity:1; 
stroke-linecap:round; stroke-linejoin:round;">
</g>
<g style="fill:#000000; fill-opacity:1.0; 
stroke:#000000; stroke-width:0; stroke-opacity:1; 
stroke-linecap:round; stroke-linejoin:round;">
<circle cx="28090.6" cy="8492.13" r="354.331" /> 
</g>
<g style="fill:#000000; fill-opacity:1.0; 
stroke:#000000; stroke-width:39.3701; stroke-opacity:1; 
stroke-linecap:round; stroke-linejoin:round;">
</g>
<g style="fill:#000000; fill-opacity:1.0; 
stroke:#000000; stroke-width:0; stroke-opacity:1; 
stroke-linecap:round; stroke-linejoin:round;">
<circle cx="28090.6" cy="17492.1" r="354.331" /> 
</g>
<g style="fill:#000000; fill-opacity:1.0; 
stroke:#000000; stroke-width:39.3701; stroke-opacity:1; 
stroke-linecap:round; stroke-linejoin:round;">
</g>
<g style="fill:#000000; fill-opacity:1.0; 
stroke:#000000; stroke-width:0; stroke-opacity:1; 
stroke-linecap:round; stroke-linejoin:round;">
<circle cx="29090.6" cy="8492.13" r="354.331" /> 
</g>
<g style="fill:#000000; fill-opacity:1.0; 
stroke:#000000; stroke-width:39.3701; stroke-opacity:1; 
stroke-linecap:round; stroke-linejoin:round;">
</g>
<g style="fill:#000000; fill-opacity:1.0; 
stroke:#000000; stroke-width:0; stroke-opacity:1; 
stroke-linecap:round; stroke-linejoin:round;">
<circle cx="29090.6" cy="17492.1" r="354.331" /> 
</g>
<g style="fill:#000000; fill-opacity:1.0; 
stroke:#000000; stroke-width:39.3701; stroke-opacity:1; 
stroke-linecap:round; stroke-linejoin:round;">
</g>
<g style="fill:#000000; fill-opacity:1.0; 
stroke:#000000; stroke-width:0; stroke-opacity:1; 
stroke-linecap:round; stroke-linejoin:round;">
<circle cx="42401.6" cy="19803.1" r="433.071" /> 
</g>
<g style="fill:#000000; fill-opacity:1.0; 
stroke:#000000; stroke-width:39.3701; stroke-opacity:1; 
stroke-linecap:round; stroke-linejoin:round;">
</g>
<g style="fill:#000000; fill-opacity:1.0; 
stroke:#000000; stroke-width:0; stroke-opacity:1; 
stroke-linecap:round; stroke-linejoin:round;">
<circle cx="36338.6" cy="19803.1" r="433.071" /> 
</g>
<g style="fill:#000000; fill-opacity:1.0; 
stroke:#000000; stroke-width:39.3701; stroke-opacity:1; 
stroke-linecap:round; stroke-linejoin:round;">
</g>
<g style="fill:#000000; fill-opacity:1.0; 
stroke:#000000; stroke-width:0; stroke-opacity:1; 
stroke-linecap:round; stroke-linejoin:round;">
<circle cx="40354.3" cy="31378" r="433.071" /> 
</g>
<g style="fill:#000000; fill-opacity:1.0; 
stroke:#000000; stroke-width:39.3701; stroke-opacity:1; 
stroke-linecap:round; stroke-linejoin:round;">
</g>
<g style="fill:#000000; fill-opacity:1.0; 
stroke:#000000; stroke-width:0; stroke-opacity:1; 
stroke-linecap:round; stroke-linejoin:round;">
<circle cx="38385.8" cy="31378" r="433.071" /> 
</g>
<g style="fill:#000000; fill-opacity:1.0; 
stroke:#000000; stroke-width:39.3701; stroke-opacity:1; 
stroke-linecap:round; stroke-linejoin:round;">
</g>
<g style="fill:#000000; fill-opacity:1.0; 
stroke:#000000; stroke-width:0; stroke-opacity:1; 
stroke-linecap:round; stroke-linejoin:round;">
<circle cx="14842.5" cy="19921.3" r="393.701" /> 
</g>
<g style="fill:#000000; fill-opacity:1.0; 
stroke:#000000; stroke-width:39.3701; stroke-opacity:1; 
stroke-linecap:round; stroke-linejoin:round;">
</g>
<g style="fill:#000000; fill-opacity:1.0; 
stroke:#000000; stroke-width:0; stroke-opacity:1; 
stroke-linecap:round; stroke-linejoin:round;">
<circle cx="16614.2" cy="19921.3" r="393.701" /> 
</g>
<g style="fill:#000000; fill-opacity:1.0; 
stroke:#000000; stroke-width:39.3701; stroke-opacity:1; 
stroke-linecap:round; stroke-linejoin:round;">
</g>
<g style="fill:#000000; fill-opacity:1.0; 
stroke:#000000; stroke-width:0; stroke-opacity:1; 
stroke-linecap:round; stroke-linejoin:round;">
<circle cx="14842.5" cy="22480.3" r="393.701" /> 
</g>
<g style="fill:#000000; fill-opacity:1.0; 
stroke:#000000; stroke-width:39.3701; stroke-opacity:1; 
stroke-linecap:round; stroke-linejoin:round;">
</g>
<g style="fill:#000000; fill-opacity:1.0; 
stroke:#000000; stroke-width:0; stroke-opacity:1; 
stroke-linecap:round; stroke-linejoin:round;">
<circle cx="16614.2" cy="22480.3" r="393.701" /> 
</g>
<g style="fill:#000000; fill-opacity:1.0; 
stroke:#000000; stroke-width:39.3701; stroke-opacity:1; 
stroke-linecap:round; stroke-linejoin:round;">
</g>
<g style="fill:#000000; fill-opacity:1.0; 
stroke:#000000; stroke-width:0; stroke-opacity:1; 
stroke-linecap:round; stroke-linejoin:round;">
<circle cx="22913.4" cy="21850.4" r="236.22" /> 
</g>
<g style="fill:#000000; fill-opacity:1.0; 
stroke:#000000; stroke-width:39.3701; stroke-opacity:1; 
stroke-linecap:round; stroke-linejoin:round;">
</g>
<g style="fill:#000000; fill-opacity:1.0; 
stroke:#000000; stroke-width:0; stroke-opacity:1; 
stroke-linecap:round; stroke-linejoin:round;">
<polyline style="fill-rule:evenodd;"
points="23149,22677
22677,22677
22677,22204
23149,22204
23149,22677
" /> 
<circle cx="21023.6" cy="32598.4" r="314.961" /> 
</g>
<g style="fill:#000000; fill-opacity:1.0; 
stroke:#000000; stroke-width:39.3701; stroke-opacity:1; 
stroke-linecap:round; stroke-linejoin:round;">
</g>
<g style="fill:#000000; fill-opacity:1.0; 
stroke:#000000; stroke-width:0; stroke-opacity:1; 
stroke-linecap:round; stroke-linejoin:round;">
<circle cx="19055.1" cy="32598.4" r="314.961" /> 
</g>
<g style="fill:#000000; fill-opacity:1.0; 
stroke:#000000; stroke-width:39.3701; stroke-opacity:1; 
stroke-linecap:round; stroke-linejoin:round;">
</g>
<g style="fill:#000000; fill-opacity:1.0; 
stroke:#000000; stroke-width:0; stroke-opacity:1; 
stroke-linecap:round; stroke-linejoin:round;">
<polyline style="fill-rule:evenodd;"
points="11377,22519
10984,22519
10984,21929
11377,21929
11377,22519
" /> 
<polyline style="fill-rule:evenodd;"
points="12637,22519
12244,22519
12244,21929
12637,21929
12637,22519
" /> 
<polyline style="fill-rule:evenodd;"
points="11377,20590
10984,20590
10984,20000
11377,20000
11377,20590
" /> 
<polyline style="fill-rule:evenodd;"
points="12637,20590
12244,20590
12244,20000
12637,20000
12637,20590
" /> 
<polyline style="fill-rule:evenodd;"
points="31062,40275
31062,41456
29881,41456
29881,40275
31062,40275
" /> 
<circle cx="28472.4" cy="40866.1" r="590.551" /> 
</g>
<g style="fill:#000000; fill-opacity:1.0; 
stroke:#000000; stroke-width:39.3701; stroke-opacity:1; 
stroke-linecap:round; stroke-linejoin:round;">
</g>
<g style="fill:#000000; fill-opacity:1.0; 
stroke:#000000; stroke-width:0; stroke-opacity:1; 
stroke-linecap:round; stroke-linejoin:round;">
<circle cx="26472.4" cy="40866.1" r="590.551" /> 
</g>
<g style="fill:#000000; fill-opacity:1.0; 
stroke:#000000; stroke-width:39.3701; stroke-opacity:1; 
stroke-linecap:round; stroke-linejoin:round;">
</g>
<g style="fill:#000000; fill-opacity:1.0; 
stroke:#000000; stroke-width:0; stroke-opacity:1; 
stroke-linecap:round; stroke-linejoin:round;">
<polyline style="fill-rule:evenodd;"
points="23976,40275
23976,41456
22795,41456
22795,40275
23976,40275
" /> 
<circle cx="21385.8" cy="40866.1" r="590.551" /> 
</g>
<g style="fill:#000000; fill-opacity:1.0; 
stroke:#000000; stroke-width:39.3701; stroke-opacity:1; 
stroke-linecap:round; stroke-linejoin:round;">
</g>
<g style="fill:#000000; fill-opacity:1.0; 
stroke:#000000; stroke-width:629.921; stroke-opacity:1; 
stroke-linecap:round; stroke-linejoin:round;">
</g>
<g style="fill:#000000; fill-opacity:0.0; 
stroke:#000000; stroke-width:629.921; stroke-opacity:1; 
stroke-linecap:round; stroke-linejoin:round;">
<path d="M24724 24086
L24724 24086
" />
<path d="M25724 27086
L25724 27086
" />
<path d="M25724 24086
L25724 24086
" />
</g>
<g style="fill:#000000; fill-opacity:0.0; 
stroke:#000000; stroke-width:0; stroke-opacity:1; 
stroke-linecap:round; stroke-linejoin:round;">
</g>
<g style="fill:#000000; fill-opacity:1.0; 
stroke:#000000; stroke-width:0; stroke-opacity:1; 
stroke-linecap:round; stroke-linejoin:round;">
<polyline style="fill-rule:evenodd;"
points="25039,27401
24409,27401
24409,26771
25039,26771
25039,27401
" /> 
</g>
<g style="fill:#000000; fill-opacity:1.0; 
stroke:#000000; stroke-width:629.921; stroke-opacity:1; 
stroke-linecap:round; stroke-linejoin:round;">
</g>
<g style="fill:#000000; fill-opacity:0.0; 
stroke:#000000; stroke-width:629.921; stroke-opacity:1; 
stroke-linecap:round; stroke-linejoin:round;">
<path d="M21102 27094
L21102 27094
" />
<path d="M19102 24094
L19102 24094
" />
<path d="M20102 27094
L20102 27094
" />
<path d="M20102 24094
L20102 24094
" />
<path d="M19102 27094
L19102 27094
" />
</g>
<g style="fill:#000000; fill-opacity:0.0; 
stroke:#000000; stroke-width:0; stroke-opacity:1; 
stroke-linecap:round; stroke-linejoin:round;">
</g>
<g style="fill:#000000; fill-opacity:1.0; 
stroke:#000000; stroke-width:0; stroke-opacity:1; 
stroke-linecap:round; stroke-linejoin:round;">
<polyline style="fill-rule:evenodd;"
points="20787,23779
21417,23779
21417,24409
20787,24409
20787,23779
" /> 
</g>
<g style="fill:#000000; fill-opacity:1.0; 
stroke:#000000; stroke-width:98.4252; stroke-opacity:1; 
stroke-linecap:round; stroke-linejoin:round;">
</g>
<g style="fill:#000000; fill-opacity:0.0; 
stroke:#000000; stroke-width:98.4252; stroke-opacity:1; 
stroke-linecap:round; stroke-linejoin:round;">
<path d="M21023 30418
L20999 30393
" />
<path d="M21023 30654
L20999 30629
" />
<path d="M21023 30629
L20999 30629
" />
</g>
<g style="fill:#000000; fill-opacity:0.0; 
stroke:#000000; stroke-width:393.701; stroke-opacity:1; 
stroke-linecap:round; stroke-linejoin:round;">
<path d="M21023 32598
L21023 30654
" />
</g>
<g style="fill:#000000; fill-opacity:0.0; 
stroke:#000000; stroke-width:98.4252; stroke-opacity:1; 
stroke-linecap:round; stroke-linejoin:round;">
<path d="M15984 30598
L16002 30598
" />
</g>
<g style="fill:#000000; fill-opacity:0.0; 
stroke:#000000; stroke-width:393.701; stroke-opacity:1; 
stroke-linecap:round; stroke-linejoin:round;">
<path d="M17433 30598
L15984 30598
" />
<path d="M19102 28929
L17433 30598
" />
<path d="M19102 27094
L19102 28929
" />
<path d="M15984 30598
L14803 30598
" />
<path d="M24724 28622
L24724 27086
" />
<path d="M24724 28941
L24724 28622
" />
</g>
<g style="fill:#000000; fill-opacity:0.0; 
stroke:#000000; stroke-width:98.4252; stroke-opacity:1; 
stroke-linecap:round; stroke-linejoin:round;">
<path d="M21058 27138
L21102 27094
" />
</g>
<g style="fill:#000000; fill-opacity:0.0; 
stroke:#000000; stroke-width:393.701; stroke-opacity:1; 
stroke-linecap:round; stroke-linejoin:round;">
<path d="M21058 28976
L21058 27138
" />
</g>
<g style="fill:#000000; fill-opacity:0.0; 
stroke:#000000; stroke-width:98.4252; stroke-opacity:1; 
stroke-linecap:round; stroke-linejoin:round;">
<path d="M21102 24094
L21102 22711
" />
</g>
<g style="fill:#000000; fill-opacity:0.0; 
stroke:#000000; stroke-width:393.701; stroke-opacity:1; 
stroke-linecap:round; stroke-linejoin:round;">
<path d="M25748 30113
L26097 29763
" />
<path d="M28484 29389
L28484 29005
" />
<path d="M28110 29763
L28484 29389
" />
<path d="M26097 29763
L28110 29763
" />
<path d="M25748 30113
L24724 30113
" />
<path d="M25724 27086
L25724 28637
" />
<path d="M26092 29005
L26476 29005
" />
<path d="M25724 28637
L26092 29005
" />
</g>
<g style="fill:#000000; fill-opacity:0.0; 
stroke:#000000; stroke-width:98.4252; stroke-opacity:1; 
stroke-linecap:round; stroke-linejoin:round;">
<path d="M36723 13180
L36723 15272
" />
<path d="M36141 12598
L36723 13180
" />
<path d="M28090 12185
L28090 8492
" />
<path d="M36141 12598
L28503 12598
" />
<path d="M28503 12598
L28090 12185
" />
<path d="M24724 23641
L24724 22711
" />
<path d="M24724 24086
L24724 23641
" />
<path d="M23892 22711
L24724 22711
" />
<path d="M22913 22440
L23622 22440
" />
<path d="M23622 22440
L23892 22711
" />
<path d="M27090 22200
L27090 17492
" />
<path d="M24724 22711
L26579 22711
" />
<path d="M26579 22711
L27090 22200
" />
<path d="M26090 18161
L26090 17492
" />
<path d="M25708 18543
L26090 18161
" />
<path d="M21496 18543
L25708 18543
" />
<path d="M21102 21540
L21102 18937
" />
<path d="M21102 18937
L21496 18543
" />
<path d="M19020 21540
L20000 21540
" />
<path d="M17401 19921
L19020 21540
" />
<path d="M20000 21540
L20000 18818
" />
<path d="M20452 18366
L24783 18366
" />
<path d="M20000 18818
L20452 18366
" />
<path d="M25090 18059
L25090 17492
" />
<path d="M24783 18366
L25090 18059
" />
<path d="M16574 19921
L17401 19921
" />
<path d="M24090 17870
L24090 17492
" />
<path d="M24094 17874
L24090 17870
" />
<path d="M15501 21269
L15984 20787
" />
<path d="M16377 18188
L23779 18188
" />
<path d="M11210 21269
L15501 21269
" />
<path d="M15984 20787
L15984 18582
" />
<path d="M15984 18582
L16377 18188
" />
<path d="M23779 18188
L24094 17874
" />
<path d="M11181 21240
L11210 21269
" />
<path d="M11181 20295
L11181 21240
" />
</g>
<g style="fill:#000000; fill-opacity:0.0; 
stroke:#000000; stroke-width:196.85; stroke-opacity:1; 
stroke-linecap:round; stroke-linejoin:round;">
<path d="M22090 16676
L22090 17492
" />
<path d="M22388 16377
L22090 16676
" />
<path d="M39903 16377
L22388 16377
" />
<path d="M42401 19803
L42401 18875
" />
<path d="M42401 18875
L39903 16377
" />
</g>
<g style="fill:#000000; fill-opacity:0.0; 
stroke:#000000; stroke-width:98.4252; stroke-opacity:1; 
stroke-linecap:round; stroke-linejoin:round;">
<path d="M14409 22874
L14803 22480
" />
<path d="M11437 22874
L14409 22874
" />
<path d="M11181 22224
L11181 22618
" />
<path d="M11181 22618
L11437 22874
" />
<path d="M14803 21923
L15073 21653
" />
<path d="M14803 22480
L14803 21923
" />
<path d="M18582 21653
L19055 22125
" />
<path d="M21732 22125
L22047 21811
" />
<path d="M22047 21811
L22047 21023
" />
<path d="M22047 21023
L22283 20787
" />
<path d="M22283 20787
L24488 20787
" />
<path d="M24724 21023
L24724 21540
" />
<path d="M24488 20787
L24724 21023
" />
<path d="M21732 22125
L19055 22125
" />
<path d="M18582 21653
L15073 21653
" />
<path d="M11181 21830
L11181 22224
" />
<path d="M10856 21505
L11181 21830
" />
<path d="M10856 19897
L10856 21505
" />
<path d="M14088 19763
L10990 19763
" />
<path d="M10990 19763
L10856 19897
" />
<path d="M14803 19921
L14246 19921
" />
<path d="M14246 19921
L14088 19763
" />
<path d="M35696 13858
L22090 13858
" />
<path d="M36141 13858
L35696 13858
" />
<path d="M22090 8492
L22090 13858
" />
<path d="M14842 19921
L14842 16653
" />
<path d="M22090 13858
L15196 13858
" />
<path d="M14842 14212
L14842 16653
" />
<path d="M15196 13858
L14842 14212
" />
</g>
<g style="fill:#000000; fill-opacity:0.0; 
stroke:#000000; stroke-width:393.701; stroke-opacity:1; 
stroke-linecap:round; stroke-linejoin:round;">
<path d="M30984 31377
L38385 31377
" />
<path d="M30472 31889
L30984 31377
" />
<path d="M30472 40866
L30472 31889
" />
<path d="M19158 30629
L19886 29901
" />
<path d="M19886 29901
L19886 28976
" />
<path d="M19158 30629
L18189 31598
" />
<path d="M18189 31598
L15984 31598
" />
<path d="M15984 31598
L14803 31598
" />
</g>
<g style="fill:#000000; fill-opacity:0.0; 
stroke:#000000; stroke-width:787.402; stroke-opacity:1; 
stroke-linecap:round; stroke-linejoin:round;">
<path d="M14173 33858
L13622 33307
" />
<path d="M17637 34881
L16614 33858
" />
<path d="M17637 37244
L17637 34881
" />
<path d="M18267 37874
L17637 37244
" />
<path d="M30472 42244
L30354 42362
" />
<path d="M30472 40866
L30472 42244
" />
<path d="M19921 41574
L19921 38267
" />
<path d="M30354 42362
L20708 42362
" />
<path d="M20708 42362
L19921 41574
" />
<path d="M19921 38267
L19527 37874
" />
<path d="M14184 31598
L14803 31598
" />
<path d="M13622 33307
L13622 32160
" />
<path d="M13622 32160
L14184 31598
" />
<path d="M14173 33858
L16614 33858
" />
<path d="M18267 37874
L19527 37874
" />
<path d="M19055 34566
L19055 36566
" />
<path d="M15295 32598
L19055 32598
" />
<path d="M14803 32598
L15295 32598
" />
<path d="M19055 32598
L19055 34566
" />
</g>
<g style="fill:#000000; fill-opacity:0.0; 
stroke:#000000; stroke-width:98.4252; stroke-opacity:1; 
stroke-linecap:round; stroke-linejoin:round;">
<path d="M28472 32265
L28484 32253
" />
</g>
<g style="fill:#000000; fill-opacity:0.0; 
stroke:#000000; stroke-width:393.701; stroke-opacity:1; 
stroke-linecap:round; stroke-linejoin:round;">
<path d="M28472 40866
L28472 32265
" />
</g>
<g style="fill:#000000; fill-opacity:0.0; 
stroke:#000000; stroke-width:98.4252; stroke-opacity:1; 
stroke-linecap:round; stroke-linejoin:round;">
<path d="M26476 40862
L26472 40866
" />
</g>
<g style="fill:#000000; fill-opacity:0.0; 
stroke:#000000; stroke-width:393.701; stroke-opacity:1; 
stroke-linecap:round; stroke-linejoin:round;">
<path d="M26476 32253
L26476 40862
" />
</g>
<g style="fill:#000000; fill-opacity:0.0; 
stroke:#000000; stroke-width:1181.1; stroke-opacity:1; 
stroke-linecap:round; stroke-linejoin:round;">
<path d="M23385 40866
L26472 40866
" />
</g>
<g style="fill:#000000; fill-opacity:0.0; 
stroke:#000000; stroke-width:393.701; stroke-opacity:1; 
stroke-linecap:round; stroke-linejoin:round;">
<path d="M27856 30551
L39527 30551
" />
<path d="M26476 32253
L26476 31931
" />
<path d="M26476 31931
L27856 30551
" />
<path d="M39527 30551
L40354 31377
" />
</g>
<g style="fill:#000000; fill-opacity:0.0; 
stroke:#000000; stroke-width:787.402; stroke-opacity:1; 
stroke-linecap:round; stroke-linejoin:round;">
<path d="M21385 40866
L21385 36330
" />
<path d="M21385 36330
L22125 35590
" />
<path d="M22125 35590
L24377 35590
" />
</g>
<g style="fill:#000000; fill-opacity:0.0; 
stroke:#000000; stroke-width:98.4252; stroke-opacity:1; 
stroke-linecap:round; stroke-linejoin:round;">
<path d="M24377 35590
L24425 35590
" />
</g>
<g style="fill:#000000; fill-opacity:0.0; 
stroke:#000000; stroke-width:787.402; stroke-opacity:1; 
stroke-linecap:round; stroke-linejoin:round;">
<path d="M25086 34566
L25086 35590
" />
<path d="M25086 35590
L25086 36566
" />
<path d="M24377 35590
L25086 35590
" />
</g>
<g style="fill:#000000; fill-opacity:1.0; 
stroke:#000000; stroke-width:100; stroke-opacity:1; 
stroke-linecap:round; stroke-linejoin:round;">
<polyline style="fill-rule:evenodd;"
points="26808,6233
27887,6331
28958,6489
30019,6707
31066,6984
32096,7318
33106,7710
34093,8157
35052,8659
35983,9214
36881,9819
37743,10474
38568,11176
39353,11923
40094,12713
40790,13542
41439,14410
42039,15312
42587,16246
43082,17209
43522,18199
43907,19211
44234,20244
44504,21293
44714,22355
44865,23428
44955,24507
44960,24674
6223,24674
6242,24237
6256,24094
18526,24094
18570,24314
18695,24501
18881,24626
19046,24659
19158,24659
19322,24626
19509,24501
19610,24350
19648,24431
19812,24579
19964,24642
20052,24594
20052,24144
20044,24144
20044,24044
20052,24044
20052,23594
19964,23546
19812,23609
19648,23757
19610,23838
19509,23687
19322,23562
19158,23529
19046,23529
18881,23562
18695,23687
18570,23874
18526,24094
6256,24094
6347,23159
6513,22089
6738,21029
7022,19984
7051,19897
10551,19897
10557,19927
10557,21476
10551,21505
10574,21622
10608,21674
10640,21721
10665,21738
10752,21825
10748,21831
10729,21929
10729,22519
10748,22617
10804,22699
10886,22755
10916,22761
10917,22762
10965,22833
10990,22850
11204,23064
11221,23089
11246,23106
11246,23106
11272,23124
11320,23155
11407,23173
11407,23173
11437,23179
11466,23173
14379,23173
14409,23179
14438,23173
14438,23173
14526,23155
14625,23089
14626,23087
14714,23124
14970,23124
15207,23026
15388,22844
15486,22608
15486,22352
15388,22115
15225,21952
16231,21952
16068,22115
15970,22352
15970,22608
16068,22844
16249,23026
16486,23124
16742,23124
16978,23026
17159,22844
17168,22824
19405,22824
19405,23041
19443,23133
19513,23204
19605,23242
19887,23242
19950,23179
19950,22761
19468,22761
19405,22824
17168,22824
17257,22608
17257,22352
17159,22115
16996,21952
18458,21952
18822,22316
18839,22341
18938,22407
19025,22425
19025,22425
19055,22431
19084,22425
19405,22425
19405,22599
19468,22661
19950,22661
19950,22653
20050,22653
20050,22661
20057,22661
20057,22761
20050,22761
20050,23179
20112,23242
20394,23242
20486,23204
20556,23133
20573,23093
20606,23143
20721,23220
20803,23236
20803,23524
20787,23524
20689,23544
20607,23599
20551,23681
20539,23743
20392,23609
20239,23546
20152,23594
20152,24044
20160,24044
20160,24144
20152,24144
20152,24594
20239,24642
20392,24579
20539,24445
20551,24506
20607,24589
20689,24644
20787,24664
21417,24664
21514,24644
21597,24589
21652,24506
21672,24409
21672,23779
21652,23681
21597,23599
21514,23544
21417,23524
21401,23524
21401,23236
21483,23220
21598,23143
21674,23028
21701,22893
21701,22529
21680,22425
21702,22425
21732,22431
21761,22425
21761,22425
21849,22407
21948,22341
21964,22316
22237,22043
22262,22026
22290,21985
22329,21927
22340,21869
22346,21840
22346,21840
22352,21811
22346,21781
22346,21510
22644,21510
22913,21779
23182,21510
23162,21421
22979,21359
22786,21371
22663,21421
22644,21510
22346,21510
22346,21147
22407,21086
24261,21086
24228,21108
24151,21223
24125,21358
24125,21722
24151,21857
24228,21972
24343,22048
24478,22075
24970,22075
25105,22048
25220,21972
25296,21857
25323,21722
25323,21358
25296,21223
25220,21108
25105,21031
25028,21016
25023,20994
25023,20994
25006,20906
24940,20807
24915,20791
24720,20596
24703,20571
24604,20505
24517,20488
24517,20488
24488,20482
24458,20488
22312,20488
22283,20482
22253,20488
22253,20488
22166,20505
22067,20571
22051,20596
21856,20791
21831,20807
21814,20832
21814,20832
21765,20906
21742,21023
21748,21053
21748,21687
21699,21736
21701,21722
21701,21358
21674,21223
21598,21108
21483,21031
21401,21015
21401,19060
21620,18842
25679,18842
25708,18848
25738,18842
25738,18842
25825,18825
25924,18759
25941,18734
26281,18393
26306,18377
26322,18352
26322,18352
26372,18278
26372,18278
26389,18190
26389,18190
26395,18161
26389,18131
26389,18022
26432,18004
26590,17846
26748,18004
26791,18022
26791,22076
26455,22412
25300,22412
25296,22394
25220,22279
25105,22203
24970,22176
24478,22176
24343,22203
24228,22279
24151,22394
24148,22412
24016,22412
23854,22250
23837,22225
23738,22159
23651,22141
23651,22141
23622,22135
23592,22141
23391,22141
23385,22107
23354,22061
23404,21916
23392,21723
23341,21600
23253,21581
22984,21850
22989,21855
22918,21926
22913,21921
22907,21926
22837,21855
22842,21850
22573,21581
22484,21600
22422,21783
22434,21976
22470,22064
22441,22107
22422,22204
22422,22677
22441,22774
22496,22857
22579,22912
22677,22932
23149,22932
23247,22912
23329,22857
23385,22774
23391,22740
23498,22740
23660,22902
23676,22927
23701,22944
23775,22993
23794,22997
23863,23010
23863,23010
23892,23016
23922,23010
24148,23010
24151,23028
24228,23143
24343,23220
24425,23236
24425,23607
24317,23679
24192,23866
24148,24086
24192,24307
24317,24493
24503,24618
24668,24651
24780,24651
24944,24618
25131,24493
25232,24342
25270,24423
25434,24571
25586,24634
25674,24586
25674,24136
25774,24136
25774,24586
25861,24634
26014,24571
26178,24423
26272,24224
26224,24136
25774,24136
25674,24136
25666,24136
25666,24036
25674,24036
25674,23586
25774,23586
25774,24036
26224,24036
26272,23949
26178,23749
26014,23601
25861,23538
25774,23586
25674,23586
25586,23538
25434,23601
25270,23749
25232,23830
25131,23679
25023,23607
25023,23236
25105,23220
25220,23143
25296,23028
25300,23010
26550,23010
26579,23016
26609,23010
26609,23010
26696,22993
26795,22927
26812,22902
27281,22433
27306,22416
27372,22317
27389,22230
27389,22230
27395,22200
27389,22171
27389,20285
35927,20285
35970,20394
36225,20490
36496,20481
36706,20394
36750,20285
36338,19873
35927,20285
27389,20285
27389,19689
35651,19689
35660,19961
35747,20171
35856,20214
36267,19803
36409,19803
36820,20214
36929,20171
37025,19916
37016,19645
36929,19435
36820,19391
36409,19803
36267,19803
35856,19391
35747,19435
35651,19689
27389,19689
27389,19320
35927,19320
36338,19732
36750,19320
36706,19211
36452,19116
36180,19124
35970,19211
35927,19320
27389,19320
27389,18022
27432,18004
27590,17846
27748,18004
27970,18096
28210,18096
28432,18004
28590,17846
28748,18004
28970,18096
29210,18096
29432,18004
29602,17834
29694,17612
29694,17371
29602,17149
29432,16979
29210,16887
28970,16887
28748,16979
28590,17137
28432,16979
28210,16887
27970,16887
27748,16979
27590,17137
27432,16979
27210,16887
26970,16887
26748,16979
26590,17137
26432,16979
26210,16887
25970,16887
25748,16979
25590,17137
25432,16979
25210,16887
24970,16887
24748,16979
24590,17137
24432,16979
24210,16887
23970,16887
23748,16979
23578,17149
23575,17157
23515,17137
23161,17492
23166,17497
23096,17568
23090,17562
23084,17568
23014,17497
23019,17492
22665,17137
22606,17157
22602,17149
22519,17066
22736,17066
23090,17421
23445,17066
23411,16965
23185,16883
22945,16893
22770,16965
22736,17066
22519,17066
22438,16985
22438,16820
22532,16726
39759,16726
42053,19020
42053,19208
42014,19224
41822,19416
41718,19667
41718,19939
41822,20190
42014,20382
42265,20486
42537,20486
42788,20382
42980,20190
43084,19939
43084,19667
42980,19416
42788,19224
42750,19208
42750,18910
42756,18875
42750,18841
42750,18841
42729,18739
42652,18624
42623,18605
40174,16155
40154,16126
40039,16049
39938,16029
39938,16029
39903,16022
39869,16029
22422,16029
22388,16022
22354,16029
22354,16029
22252,16049
22166,16107
22166,16107
22137,16126
22118,16155
21868,16405
21839,16424
21762,16540
21742,16641
21742,16641
21735,16676
21742,16710
21742,16985
21578,17149
21486,17371
21486,17612
21578,17834
21633,17889
16407,17889
16377,17883
16348,17889
16348,17889
16261,17907
16162,17973
16145,17998
15793,18350
15768,18366
15751,18391
15751,18391
15702,18465
15679,18582
15685,18612
15685,20663
15378,20970
11480,20970
11480,20822
11558,20770
11613,20688
11632,20590
11632,20407
11994,20407
11994,20640
12032,20732
12102,20802
12194,20840
12328,20840
12390,20778
12390,20345
12490,20345
12490,20778
12553,20840
12687,20840
12779,20802
12849,20732
12887,20640
12887,20407
12825,20345
12490,20345
12390,20345
12056,20345
11994,20407
11632,20407
11632,20062
11994,20062
11994,20182
12056,20245
12390,20245
12390,20237
12490,20237
12490,20245
12825,20245
12887,20182
12887,20062
13964,20062
14013,20111
14030,20136
14129,20203
14216,20220
14216,20220
14246,20226
14270,20221
14296,20285
14477,20466
14714,20564
14970,20564
15207,20466
15388,20285
15486,20049
15486,19793
15388,19556
15207,19375
15141,19348
15141,15385
35021,15385
35021,15667
35060,15758
35130,15829
35222,15867
35439,15867
35502,15804
35502,15322
35602,15322
35602,15804
35664,15867
35882,15867
35974,15829
36044,15758
36083,15667
36083,15385
36020,15322
35602,15322
35502,15322
35084,15322
35021,15385
15141,15385
15141,14878
35021,14878
35021,15160
35084,15222
35502,15222
35502,14740
35602,14740
35602,15222
36020,15222
36083,15160
36083,14878
36044,14786
35974,14716
35882,14678
35664,14678
35602,14740
35502,14740
35439,14678
35222,14678
35130,14716
35060,14786
35021,14878
15141,14878
15141,14336
15320,14157
22061,14157
22090,14163
22120,14157
35654,14157
35662,14178
35821,14337
36029,14423
36254,14423
36424,14352
36424,14696
36406,14700
36291,14776
36215,14891
36188,15026
36188,15518
36215,15654
36291,15768
36406,15845
36541,15872
36905,15872
37041,15845
37155,15768
37232,15654
37259,15518
37259,15026
37232,14891
37155,14776
37041,14700
37022,14696
37022,13209
37028,13180
37022,13150
37022,13150
37005,13063
36939,12964
36914,12948
36706,12740
36706,12564
36620,12357
36461,12198
36254,12112
36029,12112
35821,12198
35720,12299
28627,12299
28389,12061
28389,9022
28432,9004
28590,8846
28748,9004
28970,9096
29210,9096
29432,9004
29602,8834
29694,8612
29694,8371
29602,8149
29432,7979
29210,7887
28970,7887
28748,7979
28590,8137
28432,7979
28210,7887
27970,7887
27748,7979
27590,8137
27432,7979
27210,7887
26970,7887
26748,7979
26590,8137
26432,7979
26210,7887
25970,7887
25748,7979
25590,8137
25432,7979
25210,7887
24970,7887
24748,7979
24590,8137
24432,7979
24210,7887
23970,7887
23748,7979
23590,8137
23432,7979
23210,7887
22970,7887
22748,7979
22590,8137
22432,7979
22210,7887
21970,7887
21748,7979
21578,8149
21486,8371
21486,8612
21578,8834
21748,9004
21791,9022
21791,13559
15226,13559
15196,13553
15167,13559
15167,13559
15080,13576
14981,13642
14964,13667
14651,13980
14626,13996
14560,14095
14543,14183
14543,14183
14537,14212
14543,14242
14543,16624
14543,19348
14477,19375
14304,19548
14304,19548
14205,19481
14118,19464
14118,19464
14088,19458
14059,19464
11019,19464
10990,19458
10960,19464
10960,19464
10873,19481
10774,19548
10757,19573
10665,19665
10640,19681
10574,19780
10557,19868
10557,19868
10551,19897
7051,19897
7364,18956
7763,17949
8217,16966
8726,16010
9287,15083
9899,14190
10559,13331
11267,12512
12020,11732
12814,10996
13649,10306
14521,9663
15427,9070
16365,8529
17332,8040
18324,7607
19339,7229
20374,6909
21425,6647
22489,6444
23563,6301
24643,6218
25725,6195
26808,6233
" /> 
</g> 
</svg>
