<?xml version="1.0" standalone="no"?>
 <!DOCTYPE svg PUBLIC "-//W3C//DTD SVG 1.1//EN" 
 "http://www.w3.org/Graphics/SVG/1.1/DTD/svg11.dtd"> 
<svg xmlns="http://www.w3.org/2000/svg" version="1.1" 
    width="12.9997cm" height="18.001cm" viewBox="0 0 51180 70870 ">
<title>SVG Picture created as mains-light-controller-F.SilkS.svg date 2019/06/14 16:48:34 </title>
  <desc>Picture generated by PCBNEW </desc>
<g style="fill:#000000; fill-opacity:1;stroke:#000000; stroke-opacity:1;
stroke-linecap:round; stroke-linejoin:round; "
 transform="translate(0 0) scale(1 1)">
</g>
<g style="fill:#000000; fill-opacity:0.0; 
stroke:#000000; stroke-width:-0.000393701; stroke-opacity:1; 
stroke-linecap:round; stroke-linejoin:round;">
</g>
<g style="fill:#000000; fill-opacity:0.0; 
stroke:#000000; stroke-width:39.3701; stroke-opacity:1; 
stroke-linecap:round; stroke-linejoin:round;">
</g>
<g style="fill:#000000; fill-opacity:0.0; 
stroke:#000000; stroke-width:59.0551; stroke-opacity:1; 
stroke-linecap:round; stroke-linejoin:round;">
<rect x="3935.91" y="53547.2" width="42519.7" height="12598.4" rx="0" />
</g>
<g style="fill:#000000; fill-opacity:0.0; 
stroke:#000000; stroke-width:39.3701; stroke-opacity:1; 
stroke-linecap:round; stroke-linejoin:round;">
</g>
<g style="fill:#000000; fill-opacity:0.0; 
stroke:#000000; stroke-width:59.0551; stroke-opacity:1; 
stroke-linecap:round; stroke-linejoin:round;">
<rect x="3937.01" y="3937.01" width="43306" height="62996" rx="0" />
</g>
<g style="fill:#000000; fill-opacity:0.0; 
stroke:#000000; stroke-width:39.3701; stroke-opacity:1; 
stroke-linecap:round; stroke-linejoin:round;">
</g>
<g style="fill:#000000; fill-opacity:0.0; 
stroke:#000000; stroke-width:59.0551; stroke-opacity:1; 
stroke-linecap:round; stroke-linejoin:round;">
<rect x="4724.41" y="4724.41" width="41731.2" height="61421.2" rx="0" />
</g>
<g style="fill:#000000; fill-opacity:0.0; 
stroke:#000000; stroke-width:39.3701; stroke-opacity:1; 
stroke-linecap:round; stroke-linejoin:round;">
</g>
<g style="fill:#000000; fill-opacity:0.0; 
stroke:#000000; stroke-width:59.0551; stroke-opacity:1; 
stroke-linecap:round; stroke-linejoin:round;">
<path d="M23622 4724
L23622 3937
" />
</g>
<g style="fill:#000000; fill-opacity:0.0; 
stroke:#000000; stroke-width:39.3701; stroke-opacity:1; 
stroke-linecap:round; stroke-linejoin:round;">
</g>
<g style="fill:#000000; fill-opacity:0.0; 
stroke:#000000; stroke-width:59.0551; stroke-opacity:1; 
stroke-linecap:round; stroke-linejoin:round;">
<path d="M43307 4724
L43307 3937
" />
</g>
<g style="fill:#000000; fill-opacity:0.0; 
stroke:#000000; stroke-width:39.3701; stroke-opacity:1; 
stroke-linecap:round; stroke-linejoin:round;">
</g>
<g style="fill:#000000; fill-opacity:0.0; 
stroke:#000000; stroke-width:59.0551; stroke-opacity:1; 
stroke-linecap:round; stroke-linejoin:round;">
<path d="M14199 4562
L13906 4562
" />
<path d="M14052 4562
L14052 4050
L14004 4123
L13955 4172
L13906 4196
" />
</g>
<g style="fill:#000000; fill-opacity:0.0; 
stroke:#000000; stroke-width:39.3701; stroke-opacity:1; 
stroke-linecap:round; stroke-linejoin:round;">
</g>
<g style="fill:#000000; fill-opacity:0.0; 
stroke:#000000; stroke-width:59.0551; stroke-opacity:1; 
stroke-linecap:round; stroke-linejoin:round;">
<path d="M33591 4099
L33615 4074
L33664 4050
L33786 4050
L33835 4074
L33859 4099
L33884 4147
L33884 4196
L33859 4269
L33567 4562
L33884 4562
" />
</g>
<g style="fill:#000000; fill-opacity:0.0; 
stroke:#000000; stroke-width:39.3701; stroke-opacity:1; 
stroke-linecap:round; stroke-linejoin:round;">
</g>
<g style="fill:#000000; fill-opacity:0.0; 
stroke:#000000; stroke-width:59.0551; stroke-opacity:1; 
stroke-linecap:round; stroke-linejoin:round;">
<path d="M23622 66145
L23622 66932
" />
</g>
<g style="fill:#000000; fill-opacity:0.0; 
stroke:#000000; stroke-width:39.3701; stroke-opacity:1; 
stroke-linecap:round; stroke-linejoin:round;">
</g>
<g style="fill:#000000; fill-opacity:0.0; 
stroke:#000000; stroke-width:59.0551; stroke-opacity:1; 
stroke-linecap:round; stroke-linejoin:round;">
<path d="M43307 66145
L43307 66932
" />
</g>
<g style="fill:#000000; fill-opacity:0.0; 
stroke:#000000; stroke-width:39.3701; stroke-opacity:1; 
stroke-linecap:round; stroke-linejoin:round;">
</g>
<g style="fill:#000000; fill-opacity:0.0; 
stroke:#000000; stroke-width:59.0551; stroke-opacity:1; 
stroke-linecap:round; stroke-linejoin:round;">
<path d="M14199 66770
L13906 66770
" />
<path d="M14052 66770
L14052 66259
L14004 66332
L13955 66380
L13906 66405
" />
</g>
<g style="fill:#000000; fill-opacity:0.0; 
stroke:#000000; stroke-width:39.3701; stroke-opacity:1; 
stroke-linecap:round; stroke-linejoin:round;">
</g>
<g style="fill:#000000; fill-opacity:0.0; 
stroke:#000000; stroke-width:59.0551; stroke-opacity:1; 
stroke-linecap:round; stroke-linejoin:round;">
<path d="M33591 66307
L33615 66283
L33664 66259
L33786 66259
L33835 66283
L33859 66307
L33884 66356
L33884 66405
L33859 66478
L33567 66770
L33884 66770
" />
</g>
<g style="fill:#000000; fill-opacity:0.0; 
stroke:#000000; stroke-width:39.3701; stroke-opacity:1; 
stroke-linecap:round; stroke-linejoin:round;">
</g>
<g style="fill:#000000; fill-opacity:0.0; 
stroke:#000000; stroke-width:59.0551; stroke-opacity:1; 
stroke-linecap:round; stroke-linejoin:round;">
<path d="M3937 23622
L4724 23622
" />
</g>
<g style="fill:#000000; fill-opacity:0.0; 
stroke:#000000; stroke-width:39.3701; stroke-opacity:1; 
stroke-linecap:round; stroke-linejoin:round;">
</g>
<g style="fill:#000000; fill-opacity:0.0; 
stroke:#000000; stroke-width:59.0551; stroke-opacity:1; 
stroke-linecap:round; stroke-linejoin:round;">
<path d="M3937 43307
L4724 43307
" />
</g>
<g style="fill:#000000; fill-opacity:0.0; 
stroke:#000000; stroke-width:39.3701; stroke-opacity:1; 
stroke-linecap:round; stroke-linejoin:round;">
</g>
<g style="fill:#000000; fill-opacity:0.0; 
stroke:#000000; stroke-width:59.0551; stroke-opacity:1; 
stroke-linecap:round; stroke-linejoin:round;">
<path d="M3937 62992
L4724 62992
" />
</g>
<g style="fill:#000000; fill-opacity:0.0; 
stroke:#000000; stroke-width:39.3701; stroke-opacity:1; 
stroke-linecap:round; stroke-linejoin:round;">
</g>
<g style="fill:#000000; fill-opacity:0.0; 
stroke:#000000; stroke-width:59.0551; stroke-opacity:1; 
stroke-linecap:round; stroke-linejoin:round;">
<path d="M4208 13864
L4452 13864
" />
<path d="M4160 14011
L4330 13499
L4501 14011
" />
</g>
<g style="fill:#000000; fill-opacity:0.0; 
stroke:#000000; stroke-width:39.3701; stroke-opacity:1; 
stroke-linecap:round; stroke-linejoin:round;">
</g>
<g style="fill:#000000; fill-opacity:0.0; 
stroke:#000000; stroke-width:59.0551; stroke-opacity:1; 
stroke-linecap:round; stroke-linejoin:round;">
<path d="M4367 33428
L4440 33452
L4464 33476
L4489 33525
L4489 33598
L4464 33647
L4440 33671
L4391 33696
L4196 33696
L4196 33184
L4367 33184
L4416 33208
L4440 33233
L4464 33281
L4464 33330
L4440 33379
L4416 33403
L4367 33428
L4196 33428
" />
</g>
<g style="fill:#000000; fill-opacity:0.0; 
stroke:#000000; stroke-width:39.3701; stroke-opacity:1; 
stroke-linecap:round; stroke-linejoin:round;">
</g>
<g style="fill:#000000; fill-opacity:0.0; 
stroke:#000000; stroke-width:59.0551; stroke-opacity:1; 
stroke-linecap:round; stroke-linejoin:round;">
<path d="M4489 53332
L4464 53356
L4391 53381
L4342 53381
L4269 53356
L4221 53308
L4196 53259
L4172 53161
L4172 53088
L4196 52991
L4221 52942
L4269 52893
L4342 52869
L4391 52869
L4464 52893
L4489 52918
" />
</g>
<g style="fill:#000000; fill-opacity:0.0; 
stroke:#000000; stroke-width:39.3701; stroke-opacity:1; 
stroke-linecap:round; stroke-linejoin:round;">
</g>
<g style="fill:#000000; fill-opacity:0.0; 
stroke:#000000; stroke-width:59.0551; stroke-opacity:1; 
stroke-linecap:round; stroke-linejoin:round;">
<path d="M47242 23622
L46455 23622
" />
</g>
<g style="fill:#000000; fill-opacity:0.0; 
stroke:#000000; stroke-width:39.3701; stroke-opacity:1; 
stroke-linecap:round; stroke-linejoin:round;">
</g>
<g style="fill:#000000; fill-opacity:0.0; 
stroke:#000000; stroke-width:59.0551; stroke-opacity:1; 
stroke-linecap:round; stroke-linejoin:round;">
<path d="M47242 43307
L46455 43307
" />
</g>
<g style="fill:#000000; fill-opacity:0.0; 
stroke:#000000; stroke-width:39.3701; stroke-opacity:1; 
stroke-linecap:round; stroke-linejoin:round;">
</g>
<g style="fill:#000000; fill-opacity:0.0; 
stroke:#000000; stroke-width:59.0551; stroke-opacity:1; 
stroke-linecap:round; stroke-linejoin:round;">
<path d="M47242 62992
L46455 62992
" />
</g>
<g style="fill:#000000; fill-opacity:0.0; 
stroke:#000000; stroke-width:39.3701; stroke-opacity:1; 
stroke-linecap:round; stroke-linejoin:round;">
</g>
<g style="fill:#000000; fill-opacity:0.0; 
stroke:#000000; stroke-width:59.0551; stroke-opacity:1; 
stroke-linecap:round; stroke-linejoin:round;">
<path d="M46727 13864
L46971 13864
" />
<path d="M46678 14011
L46849 13499
L47019 14011
" />
</g>
<g style="fill:#000000; fill-opacity:0.0; 
stroke:#000000; stroke-width:39.3701; stroke-opacity:1; 
stroke-linecap:round; stroke-linejoin:round;">
</g>
<g style="fill:#000000; fill-opacity:0.0; 
stroke:#000000; stroke-width:59.0551; stroke-opacity:1; 
stroke-linecap:round; stroke-linejoin:round;">
<path d="M46885 33428
L46958 33452
L46983 33476
L47007 33525
L47007 33598
L46983 33647
L46958 33671
L46910 33696
L46715 33696
L46715 33184
L46885 33184
L46934 33208
L46958 33233
L46983 33281
L46983 33330
L46958 33379
L46934 33403
L46885 33428
L46715 33428
" />
</g>
<g style="fill:#000000; fill-opacity:0.0; 
stroke:#000000; stroke-width:39.3701; stroke-opacity:1; 
stroke-linecap:round; stroke-linejoin:round;">
</g>
<g style="fill:#000000; fill-opacity:0.0; 
stroke:#000000; stroke-width:59.0551; stroke-opacity:1; 
stroke-linecap:round; stroke-linejoin:round;">
<path d="M47007 53332
L46983 53356
L46910 53381
L46861 53381
L46788 53356
L46739 53308
L46715 53259
L46690 53161
L46690 53088
L46715 52991
L46739 52942
L46788 52893
L46861 52869
L46910 52869
L46983 52893
L47007 52918
" />
</g>
<g style="fill:#000000; fill-opacity:0.0; 
stroke:#000000; stroke-width:39.3701; stroke-opacity:1; 
stroke-linecap:round; stroke-linejoin:round;">
</g>
<g style="fill:#000000; fill-opacity:0.0; 
stroke:#000000; stroke-width:59.0551; stroke-opacity:1; 
stroke-linecap:round; stroke-linejoin:round;">
<path d="M13161 64483
L13161 63893
L13301 63893
L13386 63921
L13442 63977
L13470 64033
L13498 64146
L13498 64230
L13470 64343
L13442 64399
L13386 64455
L13301 64483
L13161 64483
" />
<path d="M14004 64483
L14004 64174
L13976 64118
L13920 64089
L13807 64089
L13751 64118
" />
<path d="M14004 64455
L13948 64483
L13807 64483
L13751 64455
L13723 64399
L13723 64343
L13751 64286
L13807 64258
L13948 64258
L14004 64230
" />
<path d="M14201 64089
L14426 64089
" />
<path d="M14286 63893
L14286 64399
L14314 64455
L14370 64483
L14426 64483
" />
<path d="M14848 64455
L14792 64483
L14679 64483
L14623 64455
L14595 64399
L14595 64174
L14623 64118
L14679 64089
L14792 64089
L14848 64118
L14876 64174
L14876 64230
L14595 64286
" />
<path d="M15129 64427
L15157 64455
L15129 64483
L15101 64455
L15129 64427
L15129 64483
" />
<path d="M15129 64118
L15157 64146
L15129 64174
L15101 64146
L15129 64118
L15129 64174
" />
<path d="M15832 63949
L15860 63921
L15917 63893
L16057 63893
L16113 63921
L16142 63949
L16170 64005
L16170 64061
L16142 64146
L15804 64483
L16170 64483
" />
<path d="M16535 63893
L16591 63893
L16648 63921
L16676 63949
L16704 64005
L16732 64118
L16732 64258
L16704 64371
L16676 64427
L16648 64455
L16591 64483
L16535 64483
L16479 64455
L16451 64427
L16423 64371
L16395 64258
L16395 64118
L16423 64005
L16451 63949
L16479 63921
L16535 63893
" />
<path d="M17295 64483
L16957 64483
" />
<path d="M17126 64483
L17126 63893
L17070 63977
L17013 64033
L16957 64061
" />
<path d="M17576 64483
L17688 64483
L17744 64455
L17773 64427
L17829 64343
L17857 64230
L17857 64005
L17829 63949
L17801 63921
L17744 63893
L17632 63893
L17576 63921
L17548 63949
L17519 64005
L17519 64146
L17548 64202
L17576 64230
L17632 64258
L17744 64258
L17801 64230
L17829 64202
L17857 64146
" />
<path d="M18110 64258
L18560 64258
" />
<path d="M18954 63893
L19010 63893
L19066 63921
L19094 63949
L19122 64005
L19151 64118
L19151 64258
L19122 64371
L19094 64427
L19066 64455
L19010 64483
L18954 64483
L18897 64455
L18869 64427
L18841 64371
L18813 64258
L18813 64118
L18841 64005
L18869 63949
L18897 63921
L18954 63893
" />
<path d="M19685 63893
L19404 63893
L19376 64174
L19404 64146
L19460 64118
L19600 64118
L19657 64146
L19685 64174
L19713 64230
L19713 64371
L19685 64427
L19657 64455
L19600 64483
L19460 64483
L19404 64455
L19376 64427
" />
<path d="M19966 64258
L20416 64258
" />
<path d="M20669 63949
L20697 63921
L20753 63893
L20894 63893
L20950 63921
L20978 63949
L21007 64005
L21007 64061
L20978 64146
L20641 64483
L21007 64483
" />
<path d="M21541 63893
L21260 63893
L21232 64174
L21260 64146
L21316 64118
L21456 64118
L21513 64146
L21541 64174
L21569 64230
L21569 64371
L21541 64427
L21513 64455
L21456 64483
L21316 64483
L21260 64455
L21232 64427
" />
</g>
<g style="fill:#000000; fill-opacity:0.0; 
stroke:#000000; stroke-width:39.3701; stroke-opacity:1; 
stroke-linecap:round; stroke-linejoin:round;">
</g>
<g style="fill:#000000; fill-opacity:0.0; 
stroke:#000000; stroke-width:59.0551; stroke-opacity:1; 
stroke-linecap:round; stroke-linejoin:round;">
<path d="M3935 64767
L46455 64767
" />
</g>
<g style="fill:#000000; fill-opacity:0.0; 
stroke:#000000; stroke-width:39.3701; stroke-opacity:1; 
stroke-linecap:round; stroke-linejoin:round;">
</g>
<g style="fill:#000000; fill-opacity:0.0; 
stroke:#000000; stroke-width:59.0551; stroke-opacity:1; 
stroke-linecap:round; stroke-linejoin:round;">
<path d="M4499 65585
L4499 64995
" />
<path d="M4837 65585
L4584 65248
" />
<path d="M4837 64995
L4499 65332
" />
<path d="M5090 65585
L5090 65192
" />
<path d="M5090 64995
L5062 65023
L5090 65051
L5118 65023
L5090 64995
L5090 65051
" />
<path d="M5708 65529
L5680 65557
L5596 65585
L5540 65585
L5455 65557
L5399 65501
L5371 65445
L5343 65332
L5343 65248
L5371 65136
L5399 65079
L5455 65023
L5540 64995
L5596 64995
L5680 65023
L5708 65051
" />
<path d="M6215 65585
L6215 65276
L6187 65220
L6130 65192
L6018 65192
L5962 65220
" />
<path d="M6215 65557
L6158 65585
L6018 65585
L5962 65557
L5933 65501
L5933 65445
L5962 65389
L6018 65361
L6158 65361
L6215 65332
" />
<path d="M6749 65585
L6749 64995
" />
<path d="M6749 65557
L6693 65585
L6580 65585
L6524 65557
L6496 65529
L6468 65473
L6468 65304
L6496 65248
L6524 65220
L6580 65192
L6693 65192
L6749 65220
" />
<path d="M7480 65276
L7677 65276
" />
<path d="M7761 65585
L7480 65585
L7480 64995
L7761 64995
" />
<path d="M8014 65529
L8043 65557
L8014 65585
L7986 65557
L8014 65529
L8014 65585
" />
<path d="M8296 65585
L8296 64995
L8436 64995
L8521 65023
L8577 65079
L8605 65136
L8633 65248
L8633 65332
L8605 65445
L8577 65501
L8521 65557
L8436 65585
L8296 65585
" />
<path d="M8886 65529
L8914 65557
L8886 65585
L8858 65557
L8886 65529
L8886 65585
" />
<path d="M9139 65417
L9421 65417
" />
<path d="M9083 65585
L9280 64995
L9477 65585
" />
<path d="M9674 65529
L9702 65557
L9674 65585
L9645 65557
L9674 65529
L9674 65585
" />
<path d="M10855 65585
L10855 64995
" />
<path d="M10911 65361
L11080 65585
" />
<path d="M11080 65192
L10855 65417
" />
<path d="M11333 65585
L11333 65192
" />
<path d="M11333 64995
L11305 65023
L11333 65051
L11361 65023
L11333 64995
L11333 65051
" />
<path d="M11867 65557
L11811 65585
L11698 65585
L11642 65557
L11614 65529
L11586 65473
L11586 65304
L11614 65248
L11642 65220
L11698 65192
L11811 65192
L11867 65220
" />
<path d="M12373 65585
L12373 65276
L12345 65220
L12289 65192
L12176 65192
L12120 65220
" />
<path d="M12373 65557
L12317 65585
L12176 65585
L12120 65557
L12092 65501
L12092 65445
L12120 65389
L12176 65361
L12317 65361
L12373 65332
" />
<path d="M12908 65585
L12908 64995
" />
<path d="M12908 65557
L12851 65585
L12739 65585
L12683 65557
L12654 65529
L12626 65473
L12626 65304
L12654 65248
L12683 65220
L12739 65192
L12851 65192
L12908 65220
" />
<path d="M13920 64995
L13639 64995
L13611 65276
L13639 65248
L13695 65220
L13836 65220
L13892 65248
L13920 65276
L13948 65332
L13948 65473
L13920 65529
L13892 65557
L13836 65585
L13695 65585
L13639 65557
L13611 65529
" />
<path d="M14201 65529
L14229 65557
L14201 65585
L14173 65557
L14201 65529
L14201 65585
" />
<path d="M14595 64995
L14651 64995
L14707 65023
L14735 65051
L14764 65107
L14792 65220
L14792 65361
L14764 65473
L14735 65529
L14707 65557
L14651 65585
L14595 65585
L14539 65557
L14510 65529
L14482 65473
L14454 65361
L14454 65220
L14482 65107
L14510 65051
L14539 65023
L14595 64995
" />
<path d="M15045 65529
L15073 65557
L15045 65585
L15017 65557
L15045 65529
L15045 65585
" />
<path d="M15298 65051
L15326 65023
L15382 64995
L15523 64995
L15579 65023
L15607 65051
L15635 65107
L15635 65164
L15607 65248
L15270 65585
L15635 65585
" />
<path d="M15888 65361
L16338 65361
" />
<path d="M16113 65585
L16113 65136
" />
<path d="M16873 65585
L16873 64995
" />
<path d="M16873 65557
L16816 65585
L16704 65585
L16648 65557
L16620 65529
L16591 65473
L16591 65304
L16620 65248
L16648 65220
L16704 65192
L16816 65192
L16873 65220
" />
<path d="M17070 65192
L17295 65192
" />
<path d="M17154 65585
L17154 65079
L17182 65023
L17238 64995
L17295 64995
" />
<path d="M17463 65557
L17519 65585
L17632 65585
L17688 65557
L17716 65501
L17716 65473
L17688 65417
L17632 65389
L17548 65389
L17491 65361
L17463 65304
L17463 65276
L17491 65220
L17548 65192
L17632 65192
L17688 65220
" />
<path d="M18223 65192
L18223 65670
L18194 65726
L18166 65754
L18110 65782
L18026 65782
L17969 65754
" />
<path d="M18223 65557
L18166 65585
L18054 65585
L17998 65557
L17969 65529
L17941 65473
L17941 65304
L17969 65248
L17998 65220
L18054 65192
L18166 65192
L18223 65220
" />
<path d="M18813 65585
L18476 65585
" />
<path d="M18644 65585
L18644 64995
L18588 65079
L18532 65136
L18476 65164
" />
<path d="M19066 65361
L19516 65361
" />
<path d="M20107 65585
L19769 65585
" />
<path d="M19938 65585
L19938 64995
L19882 65079
L19825 65136
L19769 65164
" />
</g>
<g style="fill:#000000; fill-opacity:0.0; 
stroke:#000000; stroke-width:39.3701; stroke-opacity:1; 
stroke-linecap:round; stroke-linejoin:round;">
</g>
<g style="fill:#000000; fill-opacity:0.0; 
stroke:#000000; stroke-width:59.0551; stroke-opacity:1; 
stroke-linecap:round; stroke-linejoin:round;">
<path d="M3935 63586
L46455 63586
" />
</g>
<g style="fill:#000000; fill-opacity:0.0; 
stroke:#000000; stroke-width:39.3701; stroke-opacity:1; 
stroke-linecap:round; stroke-linejoin:round;">
</g>
<g style="fill:#000000; fill-opacity:0.0; 
stroke:#000000; stroke-width:118.11; stroke-opacity:1; 
stroke-linecap:round; stroke-linejoin:round;">
<path d="M38349 64483
L38152 64202
" />
<path d="M38011 64483
L38011 63893
L38236 63893
L38292 63921
L38320 63949
L38349 64005
L38349 64089
L38320 64146
L38292 64174
L38236 64202
L38011 64202
" />
<path d="M38827 64455
L38770 64483
L38658 64483
L38602 64455
L38573 64399
L38573 64174
L38602 64118
L38658 64089
L38770 64089
L38827 64118
L38855 64174
L38855 64230
L38573 64286
" />
<path d="M39052 64089
L39192 64483
L39333 64089
" />
<path d="M39558 64427
L39586 64455
L39558 64483
L39530 64455
L39558 64427
L39558 64483
" />
<path d="M39558 64118
L39586 64146
L39558 64174
L39530 64146
L39558 64118
L39558 64174
" />
<path d="M40233 64089
L40373 64483
L40514 64089
" />
<path d="M41048 64483
L40711 64483
" />
<path d="M40879 64483
L40879 63893
L40823 63977
L40767 64033
L40711 64061
" />
<path d="M41301 64427
L41329 64455
L41301 64483
L41273 64455
L41301 64427
L41301 64483
" />
<path d="M41695 63893
L41751 63893
L41807 63921
L41836 63949
L41864 64005
L41892 64118
L41892 64258
L41864 64371
L41836 64427
L41807 64455
L41751 64483
L41695 64483
L41639 64455
L41611 64427
L41582 64371
L41554 64258
L41554 64118
L41582 64005
L41611 63949
L41639 63921
L41695 63893
" />
<path d="M42145 64427
L42173 64455
L42145 64483
L42117 64455
L42145 64427
L42145 64483
" />
<path d="M42735 64483
L42398 64483
" />
<path d="M42567 64483
L42567 63893
L42510 63977
L42454 64033
L42398 64061
" />
</g>
<g style="fill:#000000; fill-opacity:0.0; 
stroke:#000000; stroke-width:39.3701; stroke-opacity:1; 
stroke-linecap:round; stroke-linejoin:round;">
</g>
<g style="fill:#000000; fill-opacity:0.0; 
stroke:#000000; stroke-width:59.0551; stroke-opacity:1; 
stroke-linecap:round; stroke-linejoin:round;">
<path d="M4471 64455
L4555 64483
L4696 64483
L4752 64455
L4780 64427
L4809 64371
L4809 64314
L4780 64258
L4752 64230
L4696 64202
L4584 64174
L4527 64146
L4499 64118
L4471 64061
L4471 64005
L4499 63949
L4527 63921
L4584 63893
L4724 63893
L4809 63921
" />
<path d="M5062 64483
L5062 64089
" />
<path d="M5062 63893
L5034 63921
L5062 63949
L5090 63921
L5062 63893
L5062 63949
" />
<path d="M5287 64089
L5596 64089
L5287 64483
L5596 64483
" />
<path d="M6046 64455
L5990 64483
L5877 64483
L5821 64455
L5793 64399
L5793 64174
L5821 64118
L5877 64089
L5990 64089
L6046 64118
L6074 64174
L6074 64230
L5793 64286
" />
<path d="M6327 64427
L6355 64455
L6327 64483
L6299 64455
L6327 64427
L6327 64483
" />
<path d="M6327 64118
L6355 64146
L6327 64174
L6299 64146
L6327 64118
L6327 64174
" />
<path d="M7058 63893
L7058 64371
L7086 64427
L7115 64455
L7171 64483
L7283 64483
L7340 64455
L7368 64427
L7396 64371
L7396 63893
" />
<path d="M7649 64455
L7705 64483
L7818 64483
L7874 64455
L7902 64399
L7902 64371
L7874 64314
L7818 64286
L7733 64286
L7677 64258
L7649 64202
L7649 64174
L7677 64118
L7733 64089
L7818 64089
L7874 64118
" />
<path d="M8380 64455
L8324 64483
L8211 64483
L8155 64455
L8127 64399
L8127 64174
L8155 64118
L8211 64089
L8324 64089
L8380 64118
L8408 64174
L8408 64230
L8127 64286
" />
<path d="M8661 64483
L8661 64089
" />
<path d="M8661 64202
L8689 64146
L8717 64118
L8774 64089
L8830 64089
" />
</g>
<g style="fill:#000000; fill-opacity:0.0; 
stroke:#000000; stroke-width:39.3701; stroke-opacity:1; 
stroke-linecap:round; stroke-linejoin:round;">
</g>
<g style="fill:#000000; fill-opacity:0.0; 
stroke:#000000; stroke-width:59.0551; stroke-opacity:1; 
stroke-linecap:round; stroke-linejoin:round;">
<path d="M37964 65585
L37964 64995
" />
<path d="M38498 65585
L38498 64995
" />
<path d="M38498 65557
L38442 65585
L38329 65585
L38273 65557
L38245 65529
L38217 65473
L38217 65304
L38245 65248
L38273 65220
L38329 65192
L38442 65192
L38498 65220
" />
<path d="M38779 65529
L38807 65557
L38779 65585
L38751 65557
L38779 65529
L38779 65585
" />
<path d="M38779 65220
L38807 65248
L38779 65276
L38751 65248
L38779 65220
L38779 65276
" />
<path d="M39820 65585
L39482 65585
" />
<path d="M39651 65585
L39651 64995
L39595 65079
L39539 65136
L39482 65164
" />
<path d="M40495 64967
L39989 65726
" />
<path d="M41001 65585
L40663 65585
" />
<path d="M40832 65585
L40832 64995
L40776 65079
L40720 65136
L40663 65164
" />
</g>
<g style="fill:#000000; fill-opacity:0.0; 
stroke:#000000; stroke-width:39.3701; stroke-opacity:1; 
stroke-linecap:round; stroke-linejoin:round;">
</g>
<g style="fill:#000000; fill-opacity:0.0; 
stroke:#000000; stroke-width:59.0551; stroke-opacity:1; 
stroke-linecap:round; stroke-linejoin:round;">
<path d="M3935 62011
L46455 62011
" />
</g>
<g style="fill:#000000; fill-opacity:0.0; 
stroke:#000000; stroke-width:39.3701; stroke-opacity:1; 
stroke-linecap:round; stroke-linejoin:round;">
</g>
<g style="fill:#000000; fill-opacity:0.0; 
stroke:#000000; stroke-width:157.48; stroke-opacity:1; 
stroke-linecap:round; stroke-linejoin:round;">
<path d="M4610 62289
L5060 62289
" />
<path d="M4736 63076
L4835 62289
" />
<path d="M5224 63076
L5289 62551
" />
<path d="M5322 62289
L5280 62326
L5313 62364
L5355 62326
L5322 62289
L5313 62364
" />
<path d="M5552 62551
L5852 62551
" />
<path d="M5697 62289
L5613 62964
L5641 63039
L5711 63076
L5786 63076
" />
<path d="M6161 63076
L6091 63039
L6063 62964
L6147 62289
" />
<path d="M6766 63039
L6686 63076
L6536 63076
L6466 63039
L6437 62964
L6475 62664
L6522 62589
L6602 62551
L6751 62551
L6822 62589
L6850 62664
L6841 62739
L6456 62814
" />
<path d="M7145 63001
L7178 63039
L7136 63076
L7103 63039
L7145 63001
L7136 63076
" />
<path d="M7197 62589
L7230 62626
L7187 62664
L7155 62626
L7197 62589
L7187 62664
" />
<path d="M8111 63076
L8209 62289
L8401 62851
L8734 62289
L8636 63076
" />
<path d="M9348 63076
L9400 62664
L9371 62589
L9301 62551
L9151 62551
L9072 62589
" />
<path d="M9353 63039
L9273 63076
L9086 63076
L9015 63039
L8987 62964
L8997 62889
L9043 62814
L9123 62776
L9311 62776
L9390 62739
" />
<path d="M9723 63076
L9789 62551
" />
<path d="M9821 62289
L9779 62326
L9812 62364
L9854 62326
L9821 62289
L9812 62364
" />
<path d="M10164 62551
L10098 63076
" />
<path d="M10154 62626
L10196 62589
L10276 62551
L10389 62551
L10459 62589
L10487 62664
L10435 63076
" />
<path d="M10778 63039
L10848 63076
L10998 63076
L11078 63039
L11124 62964
L11129 62926
L11101 62851
L11031 62814
L10918 62814
L10848 62776
L10820 62701
L10824 62664
L10871 62589
L10951 62551
L11063 62551
L11134 62589
" />
<path d="M12423 63076
L12048 63076
L12146 62289
" />
<path d="M12685 63076
L12751 62551
" />
<path d="M12784 62289
L12741 62326
L12774 62364
L12816 62326
L12784 62289
L12774 62364
" />
<path d="M13463 62551
L13383 63189
L13337 63264
L13294 63301
L13215 63339
L13102 63339
L13032 63301
" />
<path d="M13402 63039
L13323 63076
L13173 63076
L13102 63039
L13069 63001
L13041 62926
L13069 62701
L13116 62626
L13159 62589
L13238 62551
L13388 62551
L13458 62589
" />
<path d="M13772 63076
L13871 62289
" />
<path d="M14110 63076
L14162 62664
L14133 62589
L14063 62551
L13951 62551
L13871 62589
L13829 62626
" />
<path d="M14438 62551
L14738 62551
" />
<path d="M14583 62289
L14499 62964
L14527 63039
L14597 63076
L14672 63076
" />
<path d="M15994 63001
L15952 63039
L15835 63076
L15760 63076
L15652 63039
L15586 62964
L15558 62889
L15539 62739
L15554 62626
L15610 62476
L15657 62401
L15741 62326
L15858 62289
L15933 62289
L16041 62326
L16074 62364
" />
<path d="M16435 63076
L16364 63039
L16332 63001
L16303 62926
L16332 62701
L16378 62626
L16421 62589
L16500 62551
L16613 62551
L16683 62589
L16716 62626
L16744 62701
L16716 62926
L16669 63001
L16627 63039
L16547 63076
L16435 63076
" />
<path d="M17100 62551
L17035 63076
" />
<path d="M17091 62626
L17133 62589
L17213 62551
L17325 62551
L17395 62589
L17424 62664
L17372 63076
" />
<path d="M17700 62551
L18000 62551
" />
<path d="M17845 62289
L17761 62964
L17789 63039
L17859 63076
L17934 63076
" />
<path d="M18197 63076
L18263 62551
" />
<path d="M18244 62701
L18291 62626
L18333 62589
L18413 62551
L18488 62551
" />
<path d="M18797 63076
L18727 63039
L18694 63001
L18666 62926
L18694 62701
L18741 62626
L18783 62589
L18862 62551
L18975 62551
L19045 62589
L19078 62626
L19106 62701
L19078 62926
L19031 63001
L18989 63039
L18909 63076
L18797 63076
" />
<path d="M19509 63076
L19439 63039
L19411 62964
L19495 62289
" />
<path d="M19922 63076
L19851 63039
L19823 62964
L19908 62289
" />
<path d="M20526 63039
L20447 63076
L20297 63076
L20226 63039
L20198 62964
L20236 62664
L20283 62589
L20362 62551
L20512 62551
L20583 62589
L20611 62664
L20601 62739
L20217 62814
" />
<path d="M20897 63076
L20962 62551
" />
<path d="M20943 62701
L20990 62626
L21033 62589
L21112 62551
L21187 62551
" />
</g>
<g style="fill:#000000; fill-opacity:0.0; 
stroke:#000000; stroke-width:39.3701; stroke-opacity:1; 
stroke-linecap:round; stroke-linejoin:round;">
</g>
<g style="fill:#000000; fill-opacity:0.0; 
stroke:#000000; stroke-width:59.0551; stroke-opacity:1; 
stroke-linecap:round; stroke-linejoin:round;">
<path d="M4696 61260
L4499 61260
" />
<path d="M4499 61570
L4499 60979
L4780 60979
" />
<path d="M5005 61570
L5005 61176
" />
<path d="M5005 60979
L4977 61007
L5005 61035
L5034 61007
L5005 60979
L5005 61035
" />
<path d="M5371 61570
L5315 61542
L5287 61485
L5287 60979
" />
<path d="M5821 61542
L5765 61570
L5652 61570
L5596 61542
L5568 61485
L5568 61260
L5596 61204
L5652 61176
L5765 61176
L5821 61204
L5849 61260
L5849 61317
L5568 61373
" />
<path d="M6102 61513
L6130 61542
L6102 61570
L6074 61542
L6102 61513
L6102 61570
" />
<path d="M6102 61204
L6130 61232
L6102 61260
L6074 61232
L6102 61204
L6102 61260
" />
<path d="M6833 61570
L6833 61176
" />
<path d="M6833 61232
L6861 61204
L6918 61176
L7002 61176
L7058 61204
L7086 61260
L7086 61570
" />
<path d="M7086 61260
L7115 61204
L7171 61176
L7255 61176
L7311 61204
L7340 61260
L7340 61570
" />
<path d="M7874 61570
L7874 61260
L7846 61204
L7789 61176
L7677 61176
L7621 61204
" />
<path d="M7874 61542
L7818 61570
L7677 61570
L7621 61542
L7593 61485
L7593 61429
L7621 61373
L7677 61345
L7818 61345
L7874 61317
" />
<path d="M8155 61570
L8155 61176
" />
<path d="M8155 60979
L8127 61007
L8155 61035
L8183 61007
L8155 60979
L8155 61035
" />
<path d="M8436 61176
L8436 61570
" />
<path d="M8436 61232
L8464 61204
L8521 61176
L8605 61176
L8661 61204
L8689 61260
L8689 61570
" />
<path d="M8942 61542
L8999 61570
L9111 61570
L9167 61542
L9196 61485
L9196 61457
L9167 61401
L9111 61373
L9027 61373
L8971 61345
L8942 61289
L8942 61260
L8971 61204
L9027 61176
L9111 61176
L9167 61204
" />
<path d="M9449 61345
L9899 61345
" />
<path d="M10264 61570
L10208 61542
L10180 61485
L10180 60979
" />
<path d="M10489 61570
L10489 61176
" />
<path d="M10489 60979
L10461 61007
L10489 61035
L10517 61007
L10489 60979
L10489 61035
" />
<path d="M11023 61176
L11023 61654
L10995 61710
L10967 61738
L10911 61767
L10827 61767
L10770 61738
" />
<path d="M11023 61542
L10967 61570
L10855 61570
L10798 61542
L10770 61513
L10742 61457
L10742 61289
L10770 61232
L10798 61204
L10855 61176
L10967 61176
L11023 61204
" />
<path d="M11305 61570
L11305 60979
" />
<path d="M11558 61570
L11558 61260
L11530 61204
L11473 61176
L11389 61176
L11333 61204
L11305 61232
" />
<path d="M11755 61176
L11980 61176
" />
<path d="M11839 60979
L11839 61485
L11867 61542
L11923 61570
L11980 61570
" />
<path d="M12176 61345
L12626 61345
" />
<path d="M13161 61542
L13104 61570
L12992 61570
L12936 61542
L12908 61513
L12879 61457
L12879 61289
L12908 61232
L12936 61204
L12992 61176
L13104 61176
L13161 61204
" />
<path d="M13498 61570
L13442 61542
L13414 61513
L13386 61457
L13386 61289
L13414 61232
L13442 61204
L13498 61176
L13582 61176
L13639 61204
L13667 61232
L13695 61289
L13695 61457
L13667 61513
L13639 61542
L13582 61570
L13498 61570
" />
<path d="M13948 61176
L13948 61570
" />
<path d="M13948 61232
L13976 61204
L14032 61176
L14117 61176
L14173 61204
L14201 61260
L14201 61570
" />
<path d="M14398 61176
L14623 61176
" />
<path d="M14482 60979
L14482 61485
L14510 61542
L14567 61570
L14623 61570
" />
<path d="M14820 61570
L14820 61176
" />
<path d="M14820 61289
L14848 61232
L14876 61204
L14932 61176
L14989 61176
" />
<path d="M15270 61570
L15214 61542
L15185 61513
L15157 61457
L15157 61289
L15185 61232
L15214 61204
L15270 61176
L15354 61176
L15410 61204
L15438 61232
L15467 61289
L15467 61457
L15438 61513
L15410 61542
L15354 61570
L15270 61570
" />
<path d="M15804 61570
L15748 61542
L15720 61485
L15720 60979
" />
<path d="M16113 61570
L16057 61542
L16029 61485
L16029 60979
" />
<path d="M16563 61542
L16507 61570
L16395 61570
L16338 61542
L16310 61485
L16310 61260
L16338 61204
L16395 61176
L16507 61176
L16563 61204
L16591 61260
L16591 61317
L16310 61373
" />
<path d="M16845 61570
L16845 61176
" />
<path d="M16845 61289
L16873 61232
L16901 61204
L16957 61176
L17013 61176
" />
<path d="M17210 61513
L17238 61542
L17210 61570
L17182 61542
L17210 61513
L17210 61570
" />
<path d="M17491 61570
L17491 60979
" />
<path d="M17548 61345
L17716 61570
" />
<path d="M17716 61176
L17491 61401
" />
<path d="M17969 61570
L17969 61176
" />
<path d="M17969 60979
L17941 61007
L17969 61035
L17998 61007
L17969 60979
L17969 61035
" />
<path d="M18504 61542
L18447 61570
L18335 61570
L18279 61542
L18251 61513
L18223 61457
L18223 61289
L18251 61232
L18279 61204
L18335 61176
L18447 61176
L18504 61204
" />
<path d="M19010 61570
L19010 61260
L18982 61204
L18926 61176
L18813 61176
L18757 61204
" />
<path d="M19010 61542
L18954 61570
L18813 61570
L18757 61542
L18729 61485
L18729 61429
L18757 61373
L18813 61345
L18954 61345
L19010 61317
" />
<path d="M19544 61570
L19544 60979
" />
<path d="M19544 61542
L19488 61570
L19376 61570
L19319 61542
L19291 61513
L19263 61457
L19263 61289
L19291 61232
L19319 61204
L19376 61176
L19488 61176
L19544 61204
" />
<path d="M19685 61626
L20135 61626
" />
<path d="M20275 61176
L20275 61767
" />
<path d="M20275 61204
L20332 61176
L20444 61176
L20500 61204
L20528 61232
L20557 61289
L20557 61457
L20528 61513
L20500 61542
L20444 61570
L20332 61570
L20275 61542
" />
<path d="M21063 61542
L21007 61570
L20894 61570
L20838 61542
L20810 61513
L20782 61457
L20782 61289
L20810 61232
L20838 61204
L20894 61176
L21007 61176
L21063 61204
" />
<path d="M21316 61570
L21316 60979
" />
<path d="M21316 61204
L21372 61176
L21485 61176
L21541 61204
L21569 61232
L21597 61289
L21597 61457
L21569 61513
L21541 61542
L21485 61570
L21372 61570
L21316 61542
" />
</g>
<g style="fill:#000000; fill-opacity:0.0; 
stroke:#000000; stroke-width:39.3701; stroke-opacity:1; 
stroke-linecap:round; stroke-linejoin:round;">
</g>
<g style="fill:#000000; fill-opacity:0.0; 
stroke:#000000; stroke-width:59.0551; stroke-opacity:1; 
stroke-linecap:round; stroke-linejoin:round;">
<path d="M3935 59649
L46455 59649
" />
</g>
<g style="fill:#000000; fill-opacity:0.0; 
stroke:#000000; stroke-width:39.3701; stroke-opacity:1; 
stroke-linecap:round; stroke-linejoin:round;">
</g>
<g style="fill:#000000; fill-opacity:0.0; 
stroke:#000000; stroke-width:59.0551; stroke-opacity:1; 
stroke-linecap:round; stroke-linejoin:round;">
<path d="M4471 60479
L4555 60507
L4696 60507
L4752 60479
L4780 60450
L4809 60394
L4809 60338
L4780 60282
L4752 60254
L4696 60226
L4584 60197
L4527 60169
L4499 60141
L4471 60085
L4471 60029
L4499 59972
L4527 59944
L4584 59916
L4724 59916
L4809 59944
" />
<path d="M5062 60507
L5062 59916
" />
<path d="M5315 60507
L5315 60197
L5287 60141
L5230 60113
L5146 60113
L5090 60141
L5062 60169
" />
<path d="M5821 60479
L5765 60507
L5652 60507
L5596 60479
L5568 60422
L5568 60197
L5596 60141
L5652 60113
L5765 60113
L5821 60141
L5849 60197
L5849 60254
L5568 60310
" />
<path d="M6327 60479
L6271 60507
L6158 60507
L6102 60479
L6074 60422
L6074 60197
L6102 60141
L6158 60113
L6271 60113
L6327 60141
L6355 60197
L6355 60254
L6074 60310
" />
<path d="M6524 60113
L6749 60113
" />
<path d="M6608 59916
L6608 60422
L6636 60479
L6693 60507
L6749 60507
" />
<path d="M6946 60450
L6974 60479
L6946 60507
L6918 60479
L6946 60450
L6946 60507
" />
<path d="M6946 60141
L6974 60169
L6946 60197
L6918 60169
L6946 60141
L6946 60197
" />
</g>
<g style="fill:#000000; fill-opacity:0.0; 
stroke:#000000; stroke-width:39.3701; stroke-opacity:1; 
stroke-linecap:round; stroke-linejoin:round;">
</g>
<g style="fill:#000000; fill-opacity:0.0; 
stroke:#000000; stroke-width:59.0551; stroke-opacity:1; 
stroke-linecap:round; stroke-linejoin:round;">
<path d="M4499 54601
L4499 54011
L4696 54432
L4893 54011
L4893 54601
" />
<path d="M5427 54601
L5427 54292
L5399 54236
L5343 54208
L5230 54208
L5174 54236
" />
<path d="M5427 54573
L5371 54601
L5230 54601
L5174 54573
L5146 54517
L5146 54461
L5174 54404
L5230 54376
L5371 54376
L5427 54348
" />
<path d="M5708 54601
L5708 54208
" />
<path d="M5708 54011
L5680 54039
L5708 54067
L5737 54039
L5708 54011
L5708 54067
" />
<path d="M5990 54208
L5990 54601
" />
<path d="M5990 54264
L6018 54236
L6074 54208
L6158 54208
L6215 54236
L6243 54292
L6243 54601
" />
<path d="M6496 54573
L6552 54601
L6665 54601
L6721 54573
L6749 54517
L6749 54489
L6721 54432
L6665 54404
L6580 54404
L6524 54376
L6496 54320
L6496 54292
L6524 54236
L6580 54208
L6665 54208
L6721 54236
" />
<path d="M7733 54601
L7452 54601
L7452 54011
" />
<path d="M7930 54601
L7930 54208
" />
<path d="M7930 54011
L7902 54039
L7930 54067
L7958 54039
L7930 54011
L7930 54067
" />
<path d="M8464 54208
L8464 54686
L8436 54742
L8408 54770
L8352 54798
L8268 54798
L8211 54770
" />
<path d="M8464 54573
L8408 54601
L8296 54601
L8239 54573
L8211 54545
L8183 54489
L8183 54320
L8211 54264
L8239 54236
L8296 54208
L8408 54208
L8464 54236
" />
<path d="M8746 54601
L8746 54011
" />
<path d="M8999 54601
L8999 54292
L8971 54236
L8914 54208
L8830 54208
L8774 54236
L8746 54264
" />
<path d="M9196 54208
L9421 54208
" />
<path d="M9280 54011
L9280 54517
L9308 54573
L9364 54601
L9421 54601
" />
<path d="M10405 54545
L10377 54573
L10292 54601
L10236 54601
L10152 54573
L10095 54517
L10067 54461
L10039 54348
L10039 54264
L10067 54151
L10095 54095
L10152 54039
L10236 54011
L10292 54011
L10377 54039
L10405 54067
" />
<path d="M10742 54601
L10686 54573
L10658 54545
L10630 54489
L10630 54320
L10658 54264
L10686 54236
L10742 54208
L10827 54208
L10883 54236
L10911 54264
L10939 54320
L10939 54489
L10911 54545
L10883 54573
L10827 54601
L10742 54601
" />
<path d="M11192 54208
L11192 54601
" />
<path d="M11192 54264
L11220 54236
L11277 54208
L11361 54208
L11417 54236
L11445 54292
L11445 54601
" />
<path d="M11642 54208
L11867 54208
" />
<path d="M11726 54011
L11726 54517
L11755 54573
L11811 54601
L11867 54601
" />
<path d="M12064 54601
L12064 54208
" />
<path d="M12064 54320
L12092 54264
L12120 54236
L12176 54208
L12233 54208
" />
<path d="M12514 54601
L12458 54573
L12430 54545
L12401 54489
L12401 54320
L12430 54264
L12458 54236
L12514 54208
L12598 54208
L12654 54236
L12683 54264
L12711 54320
L12711 54489
L12683 54545
L12654 54573
L12598 54601
L12514 54601
" />
<path d="M13048 54601
L12992 54573
L12964 54517
L12964 54011
" />
<path d="M13358 54601
L13301 54573
L13273 54517
L13273 54011
" />
<path d="M13807 54573
L13751 54601
L13639 54601
L13582 54573
L13554 54517
L13554 54292
L13582 54236
L13639 54208
L13751 54208
L13807 54236
L13836 54292
L13836 54348
L13554 54404
" />
<path d="M14089 54601
L14089 54208
" />
<path d="M14089 54320
L14117 54264
L14145 54236
L14201 54208
L14257 54208
" />
</g>
<g style="fill:#000000; fill-opacity:0.0; 
stroke:#000000; stroke-width:39.3701; stroke-opacity:1; 
stroke-linecap:round; stroke-linejoin:round;">
</g>
<g style="fill:#000000; fill-opacity:0.0; 
stroke:#000000; stroke-width:59.0551; stroke-opacity:1; 
stroke-linecap:round; stroke-linejoin:round;">
<path d="M11809 63586
L11809 64767
" />
</g>
<g style="fill:#000000; fill-opacity:0.0; 
stroke:#000000; stroke-width:39.3701; stroke-opacity:1; 
stroke-linecap:round; stroke-linejoin:round;">
</g>
<g style="fill:#000000; fill-opacity:0.0; 
stroke:#000000; stroke-width:59.0551; stroke-opacity:1; 
stroke-linecap:round; stroke-linejoin:round;">
<path d="M37006 63586
L37006 66145
" />
</g>
<g style="fill:#008484; fill-opacity:0.0; 
stroke:#008484; stroke-width:59.0551; stroke-opacity:1; 
stroke-linecap:round; stroke-linejoin:round;">
</g>
<g style="fill:#008484; fill-opacity:0.0; 
stroke:#008484; stroke-width:118.11; stroke-opacity:1; 
stroke-linecap:round; stroke-linejoin:round;">
<path d="M7911 19178
L8502 19178
L8080 19375
L8502 19572
L7911 19572
" />
<path d="M7911 20106
L8221 20106
L8277 20078
L8305 20022
L8305 19910
L8277 19853
" />
<path d="M7940 20106
L7911 20050
L7911 19910
L7940 19853
L7996 19825
L8052 19825
L8108 19853
L8136 19910
L8136 20050
L8165 20106
" />
<path d="M7911 20388
L8305 20388
" />
<path d="M8502 20388
L8474 20359
L8446 20388
L8474 20416
L8502 20388
L8446 20388
" />
<path d="M8305 20669
L7911 20669
" />
<path d="M8249 20669
L8277 20697
L8305 20753
L8305 20838
L8277 20894
L8221 20922
L7911 20922
" />
<path d="M7940 21175
L7911 21231
L7911 21344
L7940 21400
L7996 21428
L8024 21428
L8080 21400
L8108 21344
L8108 21259
L8136 21203
L8193 21175
L8221 21175
L8277 21203
L8305 21259
L8305 21344
L8277 21400
" />
<path d="M7911 22412
L7911 22131
L8502 22131
" />
<path d="M7911 22609
L8305 22609
" />
<path d="M8502 22609
L8474 22581
L8446 22609
L8474 22637
L8502 22609
L8446 22609
" />
<path d="M8305 23143
L7827 23143
L7771 23115
L7743 23087
L7715 23031
L7715 22947
L7743 22890
" />
<path d="M7940 23143
L7911 23087
L7911 22975
L7940 22919
L7968 22890
L8024 22862
L8193 22862
L8249 22890
L8277 22919
L8305 22975
L8305 23087
L8277 23143
" />
<path d="M7911 23425
L8502 23425
" />
<path d="M7911 23678
L8221 23678
L8277 23650
L8305 23593
L8305 23509
L8277 23453
L8249 23425
" />
<path d="M8305 23875
L8305 24100
" />
<path d="M8502 23959
L7996 23959
L7940 23987
L7911 24043
L7911 24100
" />
<path d="M7968 25084
L7940 25056
L7911 24971
L7911 24915
L7940 24831
L7996 24775
L8052 24746
L8165 24718
L8249 24718
L8361 24746
L8418 24775
L8474 24831
L8502 24915
L8502 24971
L8474 25056
L8446 25084
" />
<path d="M7911 25421
L7940 25365
L7968 25337
L8024 25309
L8193 25309
L8249 25337
L8277 25365
L8305 25421
L8305 25506
L8277 25562
L8249 25590
L8193 25618
L8024 25618
L7968 25590
L7940 25562
L7911 25506
L7911 25421
" />
<path d="M8305 25871
L7911 25871
" />
<path d="M8249 25871
L8277 25899
L8305 25956
L8305 26040
L8277 26096
L8221 26124
L7911 26124
" />
<path d="M8305 26321
L8305 26546
" />
<path d="M8502 26406
L7996 26406
L7940 26434
L7911 26490
L7911 26546
" />
<path d="M7911 26743
L8305 26743
" />
<path d="M8193 26743
L8249 26771
L8277 26799
L8305 26856
L8305 26912
" />
<path d="M7911 27193
L7940 27137
L7968 27109
L8024 27080
L8193 27080
L8249 27109
L8277 27137
L8305 27193
L8305 27277
L8277 27334
L8249 27362
L8193 27390
L8024 27390
L7968 27362
L7940 27334
L7911 27277
L7911 27193
" />
<path d="M7911 27727
L7940 27671
L7996 27643
L8502 27643
" />
<path d="M7911 28037
L7940 27980
L7996 27952
L8502 27952
" />
<path d="M7940 28487
L7911 28430
L7911 28318
L7940 28262
L7996 28233
L8221 28233
L8277 28262
L8305 28318
L8305 28430
L8277 28487
L8221 28515
L8165 28515
L8108 28233
" />
<path d="M7911 28768
L8305 28768
" />
<path d="M8193 28768
L8249 28796
L8277 28824
L8305 28880
L8305 28937
" />
<path d="M8305 29527
L7911 29668
L8305 29808
" />
<path d="M7911 30343
L7911 30005
" />
<path d="M7911 30174
L8502 30174
L8418 30118
L8361 30061
L8333 30005
" />
<path d="M7968 30596
L7940 30624
L7911 30596
L7940 30568
L7968 30596
L7911 30596
" />
<path d="M8502 30989
L8502 31046
L8474 31102
L8446 31130
L8390 31158
L8277 31186
L8136 31186
L8024 31158
L7968 31130
L7940 31102
L7911 31046
L7911 30989
L7940 30933
L7968 30905
L8024 30877
L8136 30849
L8277 30849
L8390 30877
L8446 30905
L8474 30933
L8502 30989
" />
<path d="M7968 31439
L7940 31467
L7911 31439
L7940 31411
L7968 31439
L7911 31439
" />
<path d="M7911 32030
L7911 31692
" />
<path d="M7911 31861
L8502 31861
L8418 31805
L8361 31749
L8333 31692
" />
<path d="M7301 22764
L6908 22876
L7189 22989
L6908 23101
L7301 23214
" />
<path d="M7301 23383
L6908 23495
L7189 23607
L6908 23720
L7301 23832
" />
<path d="M7301 24001
L6908 24114
L7189 24226
L6908 24339
L7301 24451
" />
<path d="M6964 24676
L6936 24704
L6908 24676
L6936 24648
L6964 24676
L6908 24676
" />
<path d="M6936 24929
L6908 24985
L6908 25098
L6936 25154
L6992 25182
L7020 25182
L7076 25154
L7104 25098
L7104 25014
L7133 24957
L7189 24929
L7217 24929
L7273 24957
L7301 25014
L7301 25098
L7273 25154
" />
<path d="M6908 25520
L6936 25464
L6992 25435
L7498 25435
" />
<path d="M6908 25745
L7301 25745
" />
<path d="M7498 25745
L7470 25717
L7442 25745
L7470 25773
L7498 25745
L7442 25745
" />
<path d="M6908 26026
L7301 26026
" />
<path d="M7245 26026
L7273 26054
L7301 26110
L7301 26195
L7273 26251
L7217 26279
L6908 26279
" />
<path d="M7217 26279
L7273 26307
L7301 26363
L7301 26448
L7273 26504
L7217 26532
L6908 26532
" />
<path d="M6936 27066
L6908 27010
L6908 26898
L6936 26841
L6964 26813
L7020 26785
L7189 26785
L7245 26813
L7273 26841
L7301 26898
L7301 27010
L7273 27066
" />
<path d="M6964 27320
L6936 27348
L6908 27320
L6936 27291
L6964 27320
L6908 27320
" />
<path d="M6936 27826
L6908 27769
L6908 27657
L6936 27601
L6992 27573
L7217 27573
L7273 27601
L7301 27657
L7301 27769
L7273 27826
L7217 27854
L7161 27854
L7104 27573
" />
<path d="M7301 28360
L6908 28360
" />
<path d="M7301 28107
L6992 28107
L6936 28135
L6908 28191
L6908 28276
L6936 28332
L6964 28360
" />
<path d="M27016 38838
L27297 38838
" />
<path d="M26960 39007
L27156 38416
L27353 39007
" />
<path d="M27888 38951
L27859 38979
L27775 39007
L27719 39007
L27634 38979
L27578 38922
L27550 38866
L27522 38754
L27522 38669
L27550 38557
L27578 38501
L27634 38444
L27719 38416
L27775 38416
L27859 38444
L27888 38473
" />
<path d="M28141 38782
L28591 38782
" />
<path d="M28872 39007
L28872 38416
" />
<path d="M29153 39007
L29153 38416
L29491 39007
L29491 38416
" />
<path d="M21766 39007
L21484 39007
L21484 38416
" />
<path d="M22075 38416
L22187 38416
L22244 38444
L22300 38501
L22328 38613
L22328 38810
L22300 38922
L22244 38979
L22187 39007
L22075 39007
L22019 38979
L21962 38922
L21934 38810
L21934 38613
L21962 38501
L22019 38444
L22075 38416
" />
<path d="M22553 38838
L22834 38838
" />
<path d="M22497 39007
L22694 38416
L22890 39007
" />
<path d="M23087 39007
L23087 38416
L23228 38416
L23312 38444
L23368 38501
L23397 38557
L23425 38669
L23425 38754
L23397 38866
L23368 38922
L23312 38979
L23228 39007
L23087 39007
" />
<path d="M21498 43416
L21217 43416
L21217 42826
" />
<path d="M22145 43191
L22595 43191
" />
<path d="M23326 43416
L23326 42826
L23664 43416
L23664 42826
" />
<path d="M25793 43416
L25793 42826
L26085 43416
L26085 42826
" />
<path d="M26719 43191
L27109 43191
" />
<path d="M27742 43416
L27742 42826
L27913 43248
L28083 42826
L28083 43416
" />
<path d="M28595 43416
L28303 43416
" />
<path d="M28449 43416
L28449 42826
L28400 42910
L28352 42966
L28303 42994
" />
<path d="M29205 43191
L29595 43191
" />
<path d="M30228 43416
L30228 42826
L30399 43248
L30569 42826
L30569 43416
" />
<path d="M30789 42882
L30813 42854
L30862 42826
L30984 42826
L31032 42854
L31057 42882
L31081 42938
L31081 42994
L31057 43079
L30764 43416
L31081 43416
" />
</g>
<g style="fill:#008484; fill-opacity:0.0; 
stroke:#008484; stroke-width:47.2441; stroke-opacity:1; 
stroke-linecap:round; stroke-linejoin:round;">
<path d="M23350 35566
L20791 35566
" />
<path d="M27137 36917
L25637 36917
" />
<path d="M23338 36917
L24535 36917
" />
<path d="M24322 36566
L24535 36566
" />
<path d="M26787 36566
L25736 36566
" />
<path d="M23338 34566
L24437 34566
" />
<path d="M26787 34566
L25736 34566
" />
<path d="M27137 34216
L25688 34216
" />
<path d="M23338 34216
L24488 34216
" />
<path d="M17003 36917
L18456 36917
" />
<path d="M20755 36917
L19653 36917
" />
<path d="M19755 36566
L19704 36566
" />
<path d="M19755 36566
L20755 36566
" />
<path d="M17307 36566
L18405 36566
" />
<path d="M17003 34216
L18503 34216
" />
<path d="M20755 34216
L19653 34216
" />
<path d="M20755 34566
L19704 34566
" />
<path d="M17307 34566
L18405 34566
" />
<path d="M27137 34216
L27137 36917
" />
<path d="M23338 36917
L23338 36566
" />
<path d="M23338 34216
L23338 34566
" />
<path d="M17003 34216
L17003 36917
" />
<path d="M20755 36917
L20755 36566
" />
<path d="M20755 34216
L20755 34618
" />
<path d="M24322 36566
L19720 36566
" />
<path d="M19771 34566
L24322 34566
" />
<path d="M20755 35566
L20755 34566
" />
<path d="M17307 34566
L17307 36566
" />
<path d="M20755 36566
L20755 35566
" />
<path d="M23338 35566
L23338 34566
" />
<path d="M26787 34566
L26787 36566
" />
<path d="M23338 36566
L23338 35566
" />
</g>
<g style="fill:#008484; fill-opacity:0.0; 
stroke:#008484; stroke-width:78.7402; stroke-opacity:1; 
stroke-linecap:round; stroke-linejoin:round;">
<path d="M29155 28777
L29155 31909
" />
<path d="M25805 29350
L25805 31909
" />
</g>
<g style="fill:#008484; fill-opacity:0.0; 
stroke:#008484; stroke-width:59.0551; stroke-opacity:1; 
stroke-linecap:round; stroke-linejoin:round;">
<path d="M13303 31598
L13303 35929
" />
<path d="M13342 31598
L13303 31598
" />
<path d="M15940 35929
L13303 35929
" />
<path d="M15940 36322
L15940 35929
" />
<path d="M9720 36322
L15940 36322
" />
<path d="M9720 26874
L9720 36322
" />
<path d="M15940 26874
L9720 26874
" />
<path d="M15940 27267
L15940 26874
" />
<path d="M13303 27267
L15940 27267
" />
<path d="M13303 31598
L13303 27267
" />
</g>
<g style="fill:#008484; fill-opacity:0.0; 
stroke:#008484; stroke-width:47.2441; stroke-opacity:1; 
stroke-linecap:round; stroke-linejoin:round;">
<path d="M13515 30869
L14110 30869
" />
<path d="M13515 32326
L14110 32326
" />
<path d="M14110 33614
L14110 29582
" />
<path d="M13515 29582
L15342 29582
" />
<path d="M13515 33614
L15342 33614
" />
<path d="M15342 33614
L15342 29582
" />
<path d="M13515 33614
L13515 29582
" />
<path d="M24366 29290
L24366 29764
" />
<path d="M25082 29290
L25082 29764
" />
<path d="M20891 22363
L20891 21888
" />
<path d="M21608 22363
L21608 21888
" />
<path d="M20235 29334
L20709 29334
" />
<path d="M20235 28618
L20709 28618
" />
<path d="M19744 22363
L19744 21888
" />
<path d="M20460 22363
L20460 21888
" />
<path d="M36375 14914
L35901 14914
" />
<path d="M36375 15631
L35901 15631
" />
<path d="M18641 22363
L18641 21888
" />
<path d="M19358 22363
L19358 21888
" />
<path d="M19526 30094
L20630 30094
" />
<path d="M19526 31165
L20630 31165
" />
<path d="M36968 13818
L36968 12716
" />
<path d="M35314 13818
L35314 12716
" />
<path d="M36972.1 12722 A993.656 993.656 0.0 0 0 35315 12716.5 " />
<path d="M35311.3 13813.4 A993.656 993.656 0.0 0 0 36968.5 13818.9 " />
</g>
<g style="fill:#008484; fill-opacity:0.0; 
stroke:#008484; stroke-width:59.0551; stroke-opacity:1; 
stroke-linecap:round; stroke-linejoin:round;">
<path d="M18385 18240
L31409 18240
" />
<path d="M32196 17452
L32196 8531
" />
<path d="M31409 7744
L21141 7744
" />
<path d="M18385 8590
L18385 11685
" />
<path d="M18385 11685
L18779 11685
" />
<path d="M18779 11685
L18779 14921
" />
<path d="M18779 14921
L18385 14921
" />
<path d="M18385 14921
L18385 18240
" />
<path d="M32196.9 8531.5 A787.402 787.402 0.0 0 0 31409.4 7744.09 " />
<path d="M31409.4 18240.2 A787.402 787.402 0.0 0 0 32196.9 17452.8 " />
<path d="M18385 8590
L20748 8590
" />
<path d="M20748 8590.55 A393.701 393.701 0.0 0 0 21141.7 8196.85 " />
<path d="M21141 8200
L21141 7744
" />
<path d="M21141 7744
L21141 7744
" />
</g>
<g style="fill:#008484; fill-opacity:0.0; 
stroke:#008484; stroke-width:50; stroke-opacity:1; 
stroke-linecap:round; stroke-linejoin:round;">
<path d="M35433 18897
L35433 32283
" />
<path d="M43307 32283
L43307 18897
" />
<path d="M35433 32283
L43307 32283
" />
<path d="M43307 18897
L35433 18897
" />
</g>
<g style="fill:#008484; fill-opacity:0.0; 
stroke:#008484; stroke-width:47.2441; stroke-opacity:1; 
stroke-linecap:round; stroke-linejoin:round;">
<path d="M14448 20314
L14448 22086
" />
<path d="M16023 19822
L15433 19822
" />
<path d="M17007 22086
L17007 20314
" />
<path d="M15433 22578
L16023 22578
" />
<path d="M24200 22960
L24358 22960
" />
<path d="M24279 23039
L24279 22881
" />
<path d="M24604 21326
L24895 21326
" />
<path d="M24538 21342
L24961 21342
" />
<path d="M24488 21357
L25011 21357
" />
<path d="M24447 21373
L25052 21373
" />
<path d="M24411 21389
L25088 21389
" />
<path d="M24379 21405
L25120 21405
" />
<path d="M24351 21420
L25148 21420
" />
<path d="M24324 21436
L25175 21436
" />
<path d="M24300 21452
L25199 21452
" />
<path d="M24277 21468
L25222 21468
" />
<path d="M24256 21483
L25243 21483
" />
<path d="M24236 21499
L25263 21499
" />
<path d="M24218 21515
L25281 21515
" />
<path d="M25080 21531
L25299 21531
" />
<path d="M24200 21531
L24419 21531
" />
<path d="M25080 21546
L25316 21546
" />
<path d="M24183 21546
L24419 21546
" />
<path d="M25080 21562
L25331 21562
" />
<path d="M24168 21562
L24419 21562
" />
<path d="M25080 21578
L25346 21578
" />
<path d="M24153 21578
L24419 21578
" />
<path d="M25080 21594
L25361 21594
" />
<path d="M24138 21594
L24419 21594
" />
<path d="M25080 21609
L25374 21609
" />
<path d="M24125 21609
L24419 21609
" />
<path d="M25080 21625
L25387 21625
" />
<path d="M24112 21625
L24419 21625
" />
<path d="M25080 21641
L25399 21641
" />
<path d="M24100 21641
L24419 21641
" />
<path d="M25080 21657
L25411 21657
" />
<path d="M24088 21657
L24419 21657
" />
<path d="M25080 21672
L25422 21672
" />
<path d="M24077 21672
L24419 21672
" />
<path d="M25080 21688
L25433 21688
" />
<path d="M24066 21688
L24419 21688
" />
<path d="M25080 21704
L25442 21704
" />
<path d="M24057 21704
L24419 21704
" />
<path d="M25080 21720
L25452 21720
" />
<path d="M24047 21720
L24419 21720
" />
<path d="M25080 21735
L25461 21735
" />
<path d="M24038 21735
L24419 21735
" />
<path d="M25080 21751
L25470 21751
" />
<path d="M24029 21751
L24419 21751
" />
<path d="M25080 21767
L25478 21767
" />
<path d="M24021 21767
L24419 21767
" />
<path d="M25080 21783
L25486 21783
" />
<path d="M24013 21783
L24419 21783
" />
<path d="M25080 21798
L25493 21798
" />
<path d="M24006 21798
L24419 21798
" />
<path d="M25080 21814
L25500 21814
" />
<path d="M23999 21814
L24419 21814
" />
<path d="M25080 21830
L25507 21830
" />
<path d="M23992 21830
L24419 21830
" />
<path d="M25080 21846
L25513 21846
" />
<path d="M23986 21846
L24419 21846
" />
<path d="M25080 21861
L25519 21861
" />
<path d="M23980 21861
L24419 21861
" />
<path d="M25080 21877
L25524 21877
" />
<path d="M23975 21877
L24419 21877
" />
<path d="M25080 21893
L25530 21893
" />
<path d="M23969 21893
L24419 21893
" />
<path d="M25080 21909
L25535 21909
" />
<path d="M23964 21909
L24419 21909
" />
<path d="M25080 21925
L25539 21925
" />
<path d="M23960 21925
L24419 21925
" />
<path d="M25080 21940
L25543 21940
" />
<path d="M23956 21940
L24419 21940
" />
<path d="M25080 21956
L25547 21956
" />
<path d="M23952 21956
L24419 21956
" />
<path d="M25080 21972
L25550 21972
" />
<path d="M23949 21972
L24419 21972
" />
<path d="M25080 21988
L25553 21988
" />
<path d="M23946 21988
L24419 21988
" />
<path d="M25080 22003
L25557 22003
" />
<path d="M23942 22003
L24419 22003
" />
<path d="M25080 22019
L25559 22019
" />
<path d="M23940 22019
L24419 22019
" />
<path d="M25080 22035
L25561 22035
" />
<path d="M23938 22035
L24419 22035
" />
<path d="M25080 22051
L25563 22051
" />
<path d="M23936 22051
L24419 22051
" />
<path d="M25080 22066
L25565 22066
" />
<path d="M23934 22066
L24419 22066
" />
<path d="M25080 22082
L25566 22082
" />
<path d="M23933 22082
L24419 22082
" />
<path d="M25080 22098
L25567 22098
" />
<path d="M23932 22098
L24419 22098
" />
<path d="M23931 22114
L24419 22114
" />
<path d="M25080 22114
L25568 22114
" />
<path d="M23931 22129
L24419 22129
" />
<path d="M25080 22129
L25568 22129
" />
<path d="M23931 22145
L24419 22145
" />
<path d="M25080 22145
L25568 22145
" />
<circle cx="24750" cy="22145.7" r="834.646" /> 
<path d="M21090 33275
L18988 33275
" />
<path d="M21090 31920
L18988 31920
" />
<path d="M21090 33275
L21090 33013
" />
<path d="M21090 32183
L21090 31920
" />
<path d="M18988 33275
L18988 33013
" />
<path d="M18988 32183
L18988 31920
" />
<path d="M12893 19822
L12440 19822
" />
<path d="M12893 22696
L12893 19822
" />
<path d="M10728 22696
L10728 19822
" />
<path d="M31472 39366
L31472 42366
" />
<path d="M25472 39366
L25472 42366
" />
<path d="M31472 39866
L25472 39866
" />
<path d="M31472 42366
L25472 42366
" />
<path d="M31472 39366
L25472 39366
" />
<path d="M20385 39866
L24385 39866
" />
<path d="M20385 39366
L20385 42366
" />
<path d="M20385 42366
L24385 42366
" />
<path d="M24385 42366
L24385 39366
" />
<path d="M24385 39366
L20385 39366
" />
<path d="M24200 24543
L24200 25192
" />
<path d="M26248 24543
L24200 24543
" />
<path d="M26248 26629
L26248 24543
" />
<path d="M24200 26629
L26248 26629
" />
<path d="M24200 25980
L24200 26629
" />
<path d="M24200.8 25980.3 A393.701 393.701 0.0 0 0 24200.8 25192.9 " />
<path d="M21625 26637
L21625 25988
" />
<path d="M18578 26637
L21625 26637
" />
<path d="M18578 24551
L18578 26637
" />
<path d="M21625 24551
L18578 24551
" />
<path d="M21625 25200
L21625 24551
" />
<path d="M21626 25200.8 A393.701 393.701 0.0 0 0 21626 25988.2 " />
</g>
<g style="fill:#008484; fill-opacity:0.0; 
stroke:#008484; stroke-width:59.0551; stroke-opacity:1; 
stroke-linecap:round; stroke-linejoin:round;">
<path d="M21919 34062
L21788 34062
" />
<path d="M21788 34268
L21788 33874
L21976 33874
" />
<path d="M22332 34268
L22107 34268
" />
<path d="M22219 34268
L22219 33874
L22182 33931
L22144 33968
L22107 33987
" />
</g>
<g style="fill:#008484; fill-opacity:0.0; 
stroke:#008484; stroke-width:100; stroke-opacity:1; 
stroke-linecap:round; stroke-linejoin:round;">
<path d="M27444 31082
L27468 31010
L27492 30987
L27539 30963
L27611 30963
L27658 30987
L27682 31010
L27706 31058
L27706 31248
L27206 31248
L27206 31082
L27230 31034
L27254 31010
L27301 30987
L27349 30987
L27396 31010
L27420 31034
L27444 31082
L27444 31248
" />
<path d="M27706 30463
L27468 30629
" />
<path d="M27706 30748
L27206 30748
L27206 30558
L27230 30510
L27254 30487
L27301 30463
L27373 30463
L27420 30487
L27444 30510
L27468 30558
L27468 30748
" />
<path d="M27706 29987
L27706 30272
" />
<path d="M27706 30129
L27206 30129
L27277 30177
L27325 30225
L27349 30272
" />
</g>
<g style="fill:#008484; fill-opacity:0.0; 
stroke:#008484; stroke-width:59.0551; stroke-opacity:1; 
stroke-linecap:round; stroke-linejoin:round;">
<path d="M13337 31635
L13318 31673
L13281 31710
L13225 31767
L13206 31804
L13206 31842
" />
<path d="M13300 31823
L13281 31860
L13243 31898
L13168 31917
L13037 31917
L12962 31898
L12925 31860
L12906 31823
L12906 31748
L12925 31710
L12962 31673
L13037 31654
L13168 31654
L13243 31673
L13281 31710
L13300 31748
L13300 31823
" />
<path d="M13300 31279
L13300 31504
" />
<path d="M13300 31392
L12906 31392
L12962 31429
L13000 31467
L13018 31504
" />
<path d="M25619 29593
L25431 29724
" />
<path d="M25619 29818
L25225 29818
L25225 29668
L25244 29630
L25262 29611
L25300 29593
L25356 29593
L25394 29611
L25412 29630
L25431 29668
L25431 29818
" />
<path d="M25619 29218
L25619 29443
" />
<path d="M25619 29330
L25225 29330
L25281 29368
L25319 29405
L25337 29443
" />
<path d="M20711 22191
L20524 22322
" />
<path d="M20711 22416
L20317 22416
L20317 22266
L20336 22229
L20355 22210
L20392 22191
L20449 22191
L20486 22210
L20505 22229
L20524 22266
L20524 22416
" />
<path d="M20355 22041
L20336 22022
L20317 21985
L20317 21891
L20336 21854
L20355 21835
L20392 21816
L20430 21816
L20486 21835
L20711 22060
L20711 21816
" />
<path d="M20406 28437
L20275 28250
" />
<path d="M20181 28437
L20181 28044
L20331 28044
L20369 28062
L20388 28081
L20406 28119
L20406 28175
L20388 28212
L20369 28231
L20331 28250
L20181 28250
" />
<path d="M20538 28044
L20781 28044
L20650 28194
L20706 28194
L20744 28212
L20763 28231
L20781 28269
L20781 28362
L20763 28400
L20744 28419
L20706 28437
L20594 28437
L20556 28419
L20538 28400
" />
<path d="M19563 22191
L19376 22322
" />
<path d="M19563 22416
L19170 22416
L19170 22266
L19188 22229
L19207 22210
L19245 22191
L19301 22191
L19338 22210
L19357 22229
L19376 22266
L19376 22416
" />
<path d="M19170 21835
L19170 22022
L19357 22041
L19338 22022
L19320 21985
L19320 21891
L19338 21854
L19357 21835
L19395 21816
L19488 21816
L19526 21835
L19545 21854
L19563 21891
L19563 21985
L19545 22022
L19526 22041
" />
<path d="M36072 16167
L35941 15979
" />
<path d="M35847 16167
L35847 15773
L35997 15773
L36035 15792
L36053 15811
L36072 15848
L36072 15904
L36053 15942
L36035 15961
L35997 15979
L35847 15979
" />
<path d="M36409 15773
L36334 15773
L36297 15792
L36278 15811
L36241 15867
L36222 15942
L36222 16092
L36241 16129
L36259 16148
L36297 16167
L36372 16167
L36409 16148
L36428 16129
L36447 16092
L36447 15998
L36428 15961
L36409 15942
L36372 15923
L36297 15923
L36259 15942
L36241 15961
L36222 15998
" />
<path d="M18461 22191
L18274 22322
" />
<path d="M18461 22416
L18067 22416
L18067 22266
L18086 22229
L18105 22210
L18142 22191
L18199 22191
L18236 22210
L18255 22229
L18274 22266
L18274 22416
" />
<path d="M18236 21966
L18217 22004
L18199 22022
L18161 22041
L18142 22041
L18105 22022
L18086 22004
L18067 21966
L18067 21891
L18086 21854
L18105 21835
L18142 21816
L18161 21816
L18199 21835
L18217 21854
L18236 21891
L18236 21966
L18255 22004
L18274 22022
L18311 22041
L18386 22041
L18424 22022
L18442 22004
L18461 21966
L18461 21891
L18442 21854
L18424 21835
L18386 21816
L18311 21816
L18274 21835
L18255 21854
L18236 21891
" />
<path d="M20013 29910
L19881 29722
" />
<path d="M19788 29910
L19788 29516
L19938 29516
L19975 29535
L19994 29554
L20013 29591
L20013 29647
L19994 29685
L19975 29704
L19938 29722
L19788 29722
" />
<path d="M20350 29647
L20350 29910
" />
<path d="M20256 29497
L20163 29779
L20406 29779
" />
<path d="M35178 13333
L34990 13464
" />
<path d="M35178 13558
L34784 13558
L34784 13408
L34803 13370
L34821 13352
L34859 13333
L34915 13333
L34953 13352
L34971 13370
L34990 13408
L34990 13558
" />
<path d="M34784 13202
L34784 12939
L35178 13108
" />
<path d="M17776 13292
L18095 13292
L18132 13273
L18151 13254
L18170 13217
L18170 13142
L18151 13104
L18132 13085
L18095 13067
L17776 13067
" />
<path d="M17907 12710
L18170 12710
" />
<path d="M17757 12804
L18038 12898
L18038 12654
" />
</g>
<g style="fill:#008484; fill-opacity:0.0; 
stroke:#008484; stroke-width:50; stroke-opacity:1; 
stroke-linecap:round; stroke-linejoin:round;">
<path d="M35441 32426
L35441 32669
L35455 32697
L35470 32711
L35498 32726
L35555 32726
L35584 32711
L35598 32697
L35612 32669
L35612 32426
" />
<path d="M35741 32454
L35755 32440
L35784 32426
L35855 32426
L35884 32440
L35898 32454
L35912 32483
L35912 32511
L35898 32554
L35727 32726
L35912 32726
" />
</g>
<g style="fill:#008484; fill-opacity:0.0; 
stroke:#008484; stroke-width:59.0551; stroke-opacity:1; 
stroke-linecap:round; stroke-linejoin:round;">
<path d="M17560 21725
L17579 21669
L17579 21575
L17560 21538
L17542 21519
L17504 21500
L17467 21500
L17429 21519
L17410 21538
L17392 21575
L17373 21650
L17354 21688
L17335 21706
L17298 21725
L17260 21725
L17223 21706
L17204 21688
L17185 21650
L17185 21556
L17204 21500
" />
<path d="M17185 21369
L17579 21275
L17298 21200
L17579 21125
L17185 21032
" />
<path d="M17579 20675
L17579 20900
" />
<path d="M17579 20788
L17185 20788
L17242 20825
L17279 20863
L17298 20900
" />
<path d="M23611 22211
L23629 22230
L23648 22286
L23648 22323
L23629 22380
L23592 22417
L23554 22436
L23479 22455
L23423 22455
L23348 22436
L23311 22417
L23273 22380
L23254 22323
L23254 22286
L23273 22230
L23292 22211
" />
<path d="M23648 21836
L23648 22061
" />
<path d="M23648 21948
L23254 21948
L23311 21986
L23348 22023
L23367 22061
" />
<path d="M19973 33861
L19955 33879
L19898 33898
L19861 33898
L19805 33879
L19767 33842
L19748 33804
L19730 33729
L19730 33673
L19748 33598
L19767 33561
L19805 33523
L19861 33504
L19898 33504
L19955 33523
L19973 33542
" />
<path d="M20329 33504
L20142 33504
L20123 33692
L20142 33673
L20179 33654
L20273 33654
L20311 33673
L20329 33692
L20348 33729
L20348 33823
L20329 33861
L20311 33879
L20273 33898
L20179 33898
L20142 33879
L20123 33861
" />
<path d="M10611 21550
L10217 21550
L10217 21456
L10236 21400
L10273 21362
L10311 21344
L10386 21325
L10442 21325
L10517 21344
L10554 21362
L10592 21400
L10611 21456
L10611 21550
" />
<path d="M10611 20950
L10611 21175
" />
<path d="M10611 21062
L10217 21062
L10273 21100
L10311 21137
L10329 21175
" />
<path d="M11359 22781
L11359 23006
" />
<path d="M11359 22893
L10965 22893
L11021 22931
L11059 22968
L11077 23006
" />
<path d="M30971 41831
L30971 42112
L30952 42169
L30914 42206
L30858 42225
L30821 42225
" />
<path d="M31364 42225
L31139 42225
" />
<path d="M31252 42225
L31252 41831
L31214 41887
L31177 41925
L31139 41944
" />
<path d="M23884 41831
L23884 42112
L23865 42169
L23828 42206
L23772 42225
L23734 42225
" />
<path d="M24053 41869
L24071 41850
L24109 41831
L24203 41831
L24240 41850
L24259 41869
L24278 41906
L24278 41944
L24259 42000
L24034 42225
L24278 42225
" />
<path d="M23591 25886
L23910 25886
L23947 25867
L23966 25849
L23985 25811
L23985 25736
L23966 25699
L23947 25680
L23910 25661
L23591 25661
" />
<path d="M23985 25267
L23985 25492
" />
<path d="M23985 25380
L23591 25380
L23647 25417
L23685 25455
L23703 25492
" />
<path d="M21804 25894
L22122 25894
L22160 25875
L22179 25856
L22197 25819
L22197 25744
L22179 25706
L22160 25688
L22122 25669
L21804 25669
" />
<path d="M21804 25519
L21804 25275
L21954 25407
L21954 25350
L21972 25313
L21991 25294
L22029 25275
L22122 25275
L22160 25294
L22179 25313
L22197 25350
L22197 25463
L22179 25500
L22160 25519
" />
</g>
<g style="fill:#000000; fill-opacity:0.0; 
stroke:#000000; stroke-width:59.0551; stroke-opacity:1; 
stroke-linecap:round; stroke-linejoin:round;">
</g>
<g style="fill:#C2C200; fill-opacity:0.0; 
stroke:#C2C200; stroke-width:59.0551; stroke-opacity:1; 
stroke-linecap:round; stroke-linejoin:round;">
</g>
<g style="fill:#C2C200; fill-opacity:0.0; 
stroke:#C2C200; stroke-width:78.7402; stroke-opacity:1; 
stroke-linecap:round; stroke-linejoin:round;">
<path d="M32755 43937
L18425 43937
" />
<path d="M9842.52 25000 A590.551 590.551 0.0 0 0 9842.52 26181.1 " />
<path d="M41338.6 26181.1 A590.551 590.551 0.0 0 0 41338.6 25000 " />
<path d="M9842 26181
L41338 26181
" />
<path d="M9842 25000
L41338 25000
" />
<circle cx="25590.6" cy="25590.6" r="19685" /> 
</g> 
</svg>
