solid
 facet normal -1.000000e+00  0.000000e+00  0.000000e+00
   outer loop
     vertex -3.175000e+00  4.140000e+00  1.650000e+00
     vertex -3.175000e+00 -4.140000e+00  1.650000e+00
     vertex -3.175000e+00 -4.140000e+00  1.930000e+00
   endloop
 endfacet
 facet normal -1.000000e+00 -0.000000e+00 -0.000000e+00
   outer loop
     vertex -3.175000e+00  4.140000e+00  1.930000e+00
     vertex -3.175000e+00  4.140000e+00  1.650000e+00
     vertex -3.175000e+00 -4.140000e+00  1.930000e+00
   endloop
 endfacet
 facet normal  0.000000e+00 -1.000000e+00  0.000000e+00
   outer loop
     vertex -3.175000e+00 -4.140000e+00  1.930000e+00
     vertex -3.175000e+00 -4.140000e+00  1.650000e+00
     vertex  3.175000e+00 -4.140000e+00  1.650000e+00
   endloop
 endfacet
 facet normal  0.000000e+00 -1.000000e+00  0.000000e+00
   outer loop
     vertex -3.175000e+00 -4.140000e+00  1.930000e+00
     vertex  3.175000e+00 -4.140000e+00  1.650000e+00
     vertex  3.175000e+00 -4.140000e+00  1.930000e+00
   endloop
 endfacet
 facet normal -9.888882e-01 -0.000000e+00 -1.486610e-01
   outer loop
     vertex -3.016250e+00  3.981250e+00  5.940000e-01
     vertex -3.016250e+00 -3.981250e+00  5.940000e-01
     vertex -3.175000e+00 -4.140000e+00  1.650000e+00
   endloop
 endfacet
 facet normal -9.888882e-01  0.000000e+00 -1.486610e-01
   outer loop
     vertex -3.016250e+00  3.981250e+00  5.940000e-01
     vertex -3.175000e+00 -4.140000e+00  1.650000e+00
     vertex -3.175000e+00  4.140000e+00  1.650000e+00
   endloop
 endfacet
 facet normal -9.933532e-01  0.000000e+00  1.151057e-01
   outer loop
     vertex -3.175000e+00 -4.140000e+00  1.930000e+00
     vertex -3.016250e+00 -3.981250e+00  3.300000e+00
     vertex -3.175000e+00  4.140000e+00  1.930000e+00
   endloop
 endfacet
 facet normal -9.933532e-01  0.000000e+00  1.151057e-01
   outer loop
     vertex -3.175000e+00  4.140000e+00  1.930000e+00
     vertex -3.016250e+00 -3.981250e+00  3.300000e+00
     vertex -3.016250e+00  3.981250e+00  3.300000e+00
   endloop
 endfacet
 facet normal  0.000000e+00  1.000000e+00 -0.000000e+00
   outer loop
     vertex  3.175000e+00  4.140000e+00  1.650000e+00
     vertex -3.175000e+00  4.140000e+00  1.650000e+00
     vertex -3.175000e+00  4.140000e+00  1.930000e+00
   endloop
 endfacet
 facet normal  0.000000e+00  1.000000e+00  0.000000e+00
   outer loop
     vertex  3.175000e+00  4.140000e+00  1.930000e+00
     vertex  3.175000e+00  4.140000e+00  1.650000e+00
     vertex -3.175000e+00  4.140000e+00  1.930000e+00
   endloop
 endfacet
 facet normal  1.000000e+00 -0.000000e+00  0.000000e+00
   outer loop
     vertex  3.175000e+00 -4.140000e+00  1.930000e+00
     vertex  3.175000e+00 -4.140000e+00  1.650000e+00
     vertex  3.175000e+00  4.140000e+00  1.650000e+00
   endloop
 endfacet
 facet normal  1.000000e+00 -0.000000e+00  0.000000e+00
   outer loop
     vertex  3.175000e+00 -4.140000e+00  1.930000e+00
     vertex  3.175000e+00  4.140000e+00  1.650000e+00
     vertex  3.175000e+00  4.140000e+00  1.930000e+00
   endloop
 endfacet
 facet normal  0.000000e+00 -9.888882e-01 -1.486610e-01
   outer loop
     vertex -3.175000e+00 -4.140000e+00  1.650000e+00
     vertex -3.016250e+00 -3.981250e+00  5.940000e-01
     vertex  3.175000e+00 -4.140000e+00  1.650000e+00
   endloop
 endfacet
 facet normal  0.000000e+00 -9.888882e-01 -1.486610e-01
   outer loop
     vertex  3.175000e+00 -4.140000e+00  1.650000e+00
     vertex -3.016250e+00 -3.981250e+00  5.940000e-01
     vertex  3.016250e+00 -3.981250e+00  5.940000e-01
   endloop
 endfacet
 facet normal  0.000000e+00 -9.933532e-01  1.151057e-01
   outer loop
     vertex  3.175000e+00 -4.140000e+00  1.930000e+00
     vertex -3.016250e+00 -3.981250e+00  3.300000e+00
     vertex -3.175000e+00 -4.140000e+00  1.930000e+00
   endloop
 endfacet
 facet normal  0.000000e+00 -9.933532e-01  1.151057e-01
   outer loop
     vertex  3.016250e+00 -3.981250e+00  3.300000e+00
     vertex -3.016250e+00 -3.981250e+00  3.300000e+00
     vertex  3.175000e+00 -4.140000e+00  1.930000e+00
   endloop
 endfacet
 facet normal  0.000000e+00  0.000000e+00 -1.000000e+00
   outer loop
     vertex  3.016250e+00 -3.981250e+00  5.940000e-01
     vertex -3.016250e+00 -3.981250e+00  5.940000e-01
     vertex -3.016250e+00  3.981250e+00  5.940000e-01
   endloop
 endfacet
 facet normal  0.000000e+00  0.000000e+00 -1.000000e+00
   outer loop
     vertex  3.016250e+00 -3.981250e+00  5.940000e-01
     vertex -3.016250e+00  3.981250e+00  5.940000e-01
     vertex  3.016250e+00  3.981250e+00  5.940000e-01
   endloop
 endfacet
 facet normal  0.000000e+00  9.888882e-01 -1.486610e-01
   outer loop
     vertex  3.016250e+00  3.981250e+00  5.940000e-01
     vertex -3.016250e+00  3.981250e+00  5.940000e-01
     vertex -3.175000e+00  4.140000e+00  1.650000e+00
   endloop
 endfacet
 facet normal  0.000000e+00  9.888882e-01 -1.486610e-01
   outer loop
     vertex  3.016250e+00  3.981250e+00  5.940000e-01
     vertex -3.175000e+00  4.140000e+00  1.650000e+00
     vertex  3.175000e+00  4.140000e+00  1.650000e+00
   endloop
 endfacet
 facet normal -2.158139e-16  2.138108e-16  1.000000e+00
   outer loop
     vertex  3.016250e+00  3.981250e+00  3.300000e+00
     vertex  5.925053e-01  3.611818e+00  3.300000e+00
     vertex  5.336843e-01  3.552446e+00  3.300000e+00
   endloop
 endfacet
 facet normal -2.087079e-16  1.671900e-16  1.000000e+00
   outer loop
     vertex  3.016250e+00  3.981250e+00  3.300000e+00
     vertex  6.447575e-01  3.677046e+00  3.300000e+00
     vertex  5.925053e-01  3.611818e+00  3.300000e+00
   endloop
 endfacet
 facet normal -2.040397e-16  1.307983e-16  1.000000e+00
   outer loop
     vertex  3.016250e+00  3.981250e+00  3.300000e+00
     vertex  6.898616e-01  3.747406e+00  3.300000e+00
     vertex  6.447575e-01  3.677046e+00  3.300000e+00
   endloop
 endfacet
 facet normal -2.010222e-16  1.007786e-16  1.000000e+00
   outer loop
     vertex  3.016250e+00  3.981250e+00  3.300000e+00
     vertex  7.273175e-01  3.822119e+00  3.300000e+00
     vertex  6.898616e-01  3.747406e+00  3.300000e+00
   endloop
 endfacet
 facet normal -1.992191e-16  7.484340e-17  1.000000e+00
   outer loop
     vertex  3.016250e+00  3.981250e+00  3.300000e+00
     vertex  7.567099e-01  3.900356e+00  3.300000e+00
     vertex  7.273175e-01  3.822119e+00  3.300000e+00
   endloop
 endfacet
 facet normal -1.983837e-16  5.150787e-17  1.000000e+00
   outer loop
     vertex  3.016250e+00  3.981250e+00  3.300000e+00
     vertex  7.777130e-01  3.981250e+00  3.300000e+00
     vertex  7.567099e-01  3.900356e+00  3.300000e+00
   endloop
 endfacet
 facet normal -1.696784e-16  0.000000e+00  1.000000e+00
   outer loop
     vertex  3.016250e+00  3.981250e+00  3.300000e+00
     vertex  3.990098e-01  3.453829e+00  3.300000e+00
     vertex  3.016250e+00 -3.981250e+00  3.300000e+00
   endloop
 endfacet
 facet normal  2.158139e-16  2.138108e-16  1.000000e+00
   outer loop
     vertex -5.925053e-01  3.611818e+00  3.300000e+00
     vertex -3.016250e+00  3.981250e+00  3.300000e+00
     vertex -5.336843e-01  3.552446e+00  3.300000e+00
   endloop
 endfacet
 facet normal  2.268783e-16  2.778680e-16  1.000000e+00
   outer loop
     vertex -4.689465e-01  3.499587e+00  3.300000e+00
     vertex -5.336843e-01  3.552446e+00  3.300000e+00
     vertex -3.016250e+00  3.981250e+00  3.300000e+00
   endloop
 endfacet
 facet normal  2.087079e-16  1.671900e-16  1.000000e+00
   outer loop
     vertex -6.447575e-01  3.677046e+00  3.300000e+00
     vertex -3.016250e+00  3.981250e+00  3.300000e+00
     vertex -5.925053e-01  3.611818e+00  3.300000e+00
   endloop
 endfacet
 facet normal  1.696784e-16  0.000000e+00  1.000000e+00
   outer loop
     vertex -3.990098e-01  3.453829e+00  3.300000e+00
     vertex -3.016250e+00  3.981250e+00  3.300000e+00
     vertex -3.016250e+00 -3.981250e+00  3.300000e+00
   endloop
 endfacet
 facet normal  2.451999e-16  3.747633e-16  1.000000e+00
   outer loop
     vertex -3.990098e-01  3.453829e+00  3.300000e+00
     vertex -4.689465e-01  3.499587e+00  3.300000e+00
     vertex -3.016250e+00  3.981250e+00  3.300000e+00
   endloop
 endfacet
 facet normal  2.040397e-16  1.307983e-16  1.000000e+00
   outer loop
     vertex -6.898616e-01  3.747406e+00  3.300000e+00
     vertex -3.016250e+00  3.981250e+00  3.300000e+00
     vertex -6.447575e-01  3.677046e+00  3.300000e+00
   endloop
 endfacet
 facet normal  2.595641e-17  5.059194e-17  1.000000e+00
   outer loop
     vertex -3.246493e-01  3.415678e+00  3.300000e+00
     vertex -3.990098e-01  3.453829e+00  3.300000e+00
     vertex -3.016250e+00 -3.981250e+00  3.300000e+00
   endloop
 endfacet
 facet normal  2.010222e-16  1.007786e-16  1.000000e+00
   outer loop
     vertex -7.273175e-01  3.822119e+00  3.300000e+00
     vertex -3.016250e+00  3.981250e+00  3.300000e+00
     vertex -6.898616e-01  3.747406e+00  3.300000e+00
   endloop
 endfacet
 facet normal  2.033688e-17  5.263678e-17  1.000000e+00
   outer loop
     vertex -2.466897e-01  3.385558e+00  3.300000e+00
     vertex -3.246493e-01  3.415678e+00  3.300000e+00
     vertex -3.016250e+00 -3.981250e+00  3.300000e+00
   endloop
 endfacet
 facet normal  1.992191e-16  7.484340e-17  1.000000e+00
   outer loop
     vertex -7.567099e-01  3.900356e+00  3.300000e+00
     vertex -3.016250e+00  3.981250e+00  3.300000e+00
     vertex -7.273175e-01  3.822119e+00  3.300000e+00
   endloop
 endfacet
 facet normal  1.475726e-17  5.473444e-17  1.000000e+00
   outer loop
     vertex -1.659951e-01  3.363801e+00  3.300000e+00
     vertex -2.466897e-01  3.385558e+00  3.300000e+00
     vertex -3.016250e+00 -3.981250e+00  3.300000e+00
   endloop
 endfacet
 facet normal  1.983837e-16  5.150787e-17  1.000000e+00
   outer loop
     vertex -7.777130e-01  3.981250e+00  3.300000e+00
     vertex -3.016250e+00  3.981250e+00  3.300000e+00
     vertex -7.567099e-01  3.900356e+00  3.300000e+00
   endloop
 endfacet
 facet normal  9.072888e-18  5.694027e-17  1.000000e+00
   outer loop
     vertex -8.346019e-02  3.350650e+00  3.300000e+00
     vertex -1.659951e-01  3.363801e+00  3.300000e+00
     vertex -3.016250e+00 -3.981250e+00  3.300000e+00
   endloop
 endfacet
 facet normal -0.000000e+00  6.060583e-17  1.000000e+00
   outer loop
     vertex  8.314090e-15  3.346250e+00  3.300000e+00
     vertex -3.016250e+00 -3.981250e+00  3.300000e+00
     vertex  3.016250e+00 -3.981250e+00  3.300000e+00
   endloop
 endfacet
 facet normal  3.127242e-18  5.931855e-17  1.000000e+00
   outer loop
     vertex  8.314090e-15  3.346250e+00  3.300000e+00
     vertex -8.346019e-02  3.350650e+00  3.300000e+00
     vertex -3.016250e+00 -3.981250e+00  3.300000e+00
   endloop
 endfacet
 facet normal -3.127242e-18  5.931855e-17  1.000000e+00
   outer loop
     vertex  8.346019e-02  3.350650e+00  3.300000e+00
     vertex  8.314090e-15  3.346250e+00  3.300000e+00
     vertex  3.016250e+00 -3.981250e+00  3.300000e+00
   endloop
 endfacet
 facet normal -9.072888e-18  5.694027e-17  1.000000e+00
   outer loop
     vertex  1.659951e-01  3.363801e+00  3.300000e+00
     vertex  8.346019e-02  3.350650e+00  3.300000e+00
     vertex  3.016250e+00 -3.981250e+00  3.300000e+00
   endloop
 endfacet
 facet normal -1.475726e-17  5.473444e-17  1.000000e+00
   outer loop
     vertex  2.466897e-01  3.385558e+00  3.300000e+00
     vertex  1.659951e-01  3.363801e+00  3.300000e+00
     vertex  3.016250e+00 -3.981250e+00  3.300000e+00
   endloop
 endfacet
 facet normal -2.033688e-17  5.263678e-17  1.000000e+00
   outer loop
     vertex  3.246493e-01  3.415678e+00  3.300000e+00
     vertex  2.466897e-01  3.385558e+00  3.300000e+00
     vertex  3.016250e+00 -3.981250e+00  3.300000e+00
   endloop
 endfacet
 facet normal -2.595641e-17  5.059194e-17  1.000000e+00
   outer loop
     vertex  3.990098e-01  3.453829e+00  3.300000e+00
     vertex  3.246493e-01  3.415678e+00  3.300000e+00
     vertex  3.016250e+00 -3.981250e+00  3.300000e+00
   endloop
 endfacet
 facet normal -2.451999e-16  3.747633e-16  1.000000e+00
   outer loop
     vertex  3.016250e+00  3.981250e+00  3.300000e+00
     vertex  4.689465e-01  3.499587e+00  3.300000e+00
     vertex  3.990098e-01  3.453829e+00  3.300000e+00
   endloop
 endfacet
 facet normal -2.268783e-16  2.778680e-16  1.000000e+00
   outer loop
     vertex  3.016250e+00  3.981250e+00  3.300000e+00
     vertex  5.336843e-01  3.552446e+00  3.300000e+00
     vertex  4.689465e-01  3.499587e+00  3.300000e+00
   endloop
 endfacet
 facet normal  1.928316e-16  9.933532e-01  1.151057e-01
   outer loop
     vertex -3.175000e+00  4.140000e+00  1.930000e+00
     vertex -3.016250e+00  3.981250e+00  3.300000e+00
     vertex -7.845484e-01  4.019489e+00  2.970000e+00
   endloop
 endfacet
 facet normal -1.356620e-15  9.933532e-01  1.151057e-01
   outer loop
     vertex -7.845484e-01  4.019489e+00  2.970000e+00
     vertex -3.016250e+00  3.981250e+00  3.300000e+00
     vertex -7.777130e-01  3.981250e+00  3.300000e+00
   endloop
 endfacet
 facet normal -0.000000e+00  9.933532e-01  1.151057e-01
   outer loop
     vertex -7.845484e-01  4.019489e+00  2.970000e+00
     vertex  7.845484e-01  4.019489e+00  2.970000e+00
     vertex  3.175000e+00  4.140000e+00  1.930000e+00
   endloop
 endfacet
 facet normal  0.000000e+00  9.933532e-01  1.151057e-01
   outer loop
     vertex -3.175000e+00  4.140000e+00  1.930000e+00
     vertex -7.845484e-01  4.019489e+00  2.970000e+00
     vertex  3.175000e+00  4.140000e+00  1.930000e+00
   endloop
 endfacet
 facet normal  7.859768e-15  9.933532e-01  1.151057e-01
   outer loop
     vertex  7.845484e-01  4.019489e+00  2.970000e+00
     vertex  7.777130e-01  3.981250e+00  3.300000e+00
     vertex  3.016250e+00  3.981250e+00  3.300000e+00
   endloop
 endfacet
 facet normal -1.928316e-16  9.933532e-01  1.151057e-01
   outer loop
     vertex  3.175000e+00  4.140000e+00  1.930000e+00
     vertex  7.845484e-01  4.019489e+00  2.970000e+00
     vertex  3.016250e+00  3.981250e+00  3.300000e+00
   endloop
 endfacet
 facet normal  9.888882e-01  0.000000e+00 -1.486610e-01
   outer loop
     vertex  3.175000e+00 -4.140000e+00  1.650000e+00
     vertex  3.016250e+00 -3.981250e+00  5.940000e-01
     vertex  3.175000e+00  4.140000e+00  1.650000e+00
   endloop
 endfacet
 facet normal  9.888882e-01  0.000000e+00 -1.486610e-01
   outer loop
     vertex  3.175000e+00  4.140000e+00  1.650000e+00
     vertex  3.016250e+00 -3.981250e+00  5.940000e-01
     vertex  3.016250e+00  3.981250e+00  5.940000e-01
   endloop
 endfacet
 facet normal  9.933532e-01  0.000000e+00  1.151057e-01
   outer loop
     vertex  3.175000e+00  4.140000e+00  1.930000e+00
     vertex  3.016250e+00 -3.981250e+00  3.300000e+00
     vertex  3.175000e+00 -4.140000e+00  1.930000e+00
   endloop
 endfacet
 facet normal  9.933532e-01  0.000000e+00  1.151057e-01
   outer loop
     vertex  3.016250e+00  3.981250e+00  3.300000e+00
     vertex  3.016250e+00 -3.981250e+00  3.300000e+00
     vertex  3.175000e+00  4.140000e+00  1.930000e+00
   endloop
 endfacet
 facet normal -4.714880e-01  8.818701e-01  2.043189e-03
   outer loop
     vertex  4.118551e-01  3.461462e+00  2.970000e+00
     vertex  3.355201e-01  3.420649e+00  2.970000e+00
     vertex  3.990098e-01  3.453829e+00  3.300000e+00
   endloop
 endfacet
 facet normal -5.475023e-01  8.368019e-01 -1.958040e-03
   outer loop
     vertex  4.118551e-01  3.461462e+00  2.970000e+00
     vertex  3.990098e-01  3.453829e+00  3.300000e+00
     vertex  4.689465e-01  3.499587e+00  3.300000e+00
   endloop
 endfacet
 facet normal -5.647108e-01  8.252855e-01  2.349630e-03
   outer loop
     vertex  4.832922e-01  3.510343e+00  2.970000e+00
     vertex  4.118551e-01  3.461462e+00  2.970000e+00
     vertex  4.689465e-01  3.499587e+00  3.300000e+00
   endloop
 endfacet
 facet normal  9.786525e-01  2.054917e-01  3.540395e-03
   outer loop
     vertex -7.667609e-01  3.934776e+00  2.970000e+00
     vertex -7.845484e-01  4.019489e+00  2.970000e+00
     vertex -7.777130e-01  3.981250e+00  3.300000e+00
   endloop
 endfacet
 facet normal -6.324539e-01  7.745947e-01 -2.247443e-03
   outer loop
     vertex  4.832922e-01  3.510343e+00  2.970000e+00
     vertex  4.689465e-01  3.499587e+00  3.300000e+00
     vertex  5.336843e-01  3.552446e+00  3.300000e+00
   endloop
 endfacet
 facet normal -6.512178e-01  7.588863e-01  2.621995e-03
   outer loop
     vertex  5.489817e-01  3.566713e+00  2.970000e+00
     vertex  4.832922e-01  3.510343e+00  2.970000e+00
     vertex  5.336843e-01  3.552446e+00  3.300000e+00
   endloop
 endfacet
 facet normal  9.504574e-01  3.108353e-01  3.472552e-03
   outer loop
     vertex -7.398548e-01  3.852504e+00  2.970000e+00
     vertex -7.667609e-01  3.934776e+00  2.970000e+00
     vertex -7.567099e-01  3.900356e+00  3.300000e+00
   endloop
 endfacet
 facet normal -7.103937e-01  7.038000e-01 -2.502768e-03
   outer loop
     vertex  5.489817e-01  3.566713e+00  2.970000e+00
     vertex  5.336843e-01  3.552446e+00  3.300000e+00
     vertex  5.925053e-01  3.611818e+00  3.300000e+00
   endloop
 endfacet
 facet normal  9.679027e-01  2.513040e-01 -3.268108e-03
   outer loop
     vertex -7.667609e-01  3.934776e+00  2.970000e+00
     vertex -7.777130e-01  3.981250e+00  3.300000e+00
     vertex -7.567099e-01  3.900356e+00  3.300000e+00
   endloop
 endfacet
 facet normal -7.299802e-01  6.834623e-01  2.860279e-03
   outer loop
     vertex  6.081426e-01  3.629900e+00  2.970000e+00
     vertex  5.489817e-01  3.566713e+00  2.970000e+00
     vertex  5.925053e-01  3.611818e+00  3.300000e+00
   endloop
 endfacet
 facet normal  9.109593e-01  4.124824e-01  3.370618e-03
   outer loop
     vertex -7.041500e-01  3.773651e+00  2.970000e+00
     vertex -7.398548e-01  3.852504e+00  2.970000e+00
     vertex -7.273175e-01  3.822119e+00  3.300000e+00
   endloop
 endfacet
 facet normal -7.804576e-01  6.252028e-01 -2.724011e-03
   outer loop
     vertex  6.081426e-01  3.629900e+00  2.970000e+00
     vertex  5.925053e-01  3.611818e+00  3.300000e+00
     vertex  6.447575e-01  3.677046e+00  3.300000e+00
   endloop
 endfacet
 facet normal -8.000613e-01  5.999104e-01  3.064479e-03
   outer loop
     vertex  6.600712e-01  3.699154e+00  2.970000e+00
     vertex  6.081426e-01  3.629900e+00  2.970000e+00
     vertex  6.447575e-01  3.677046e+00  3.300000e+00
   endloop
 endfacet
 facet normal  9.361138e-01  3.516828e-01 -3.183219e-03
   outer loop
     vertex -7.398548e-01  3.852504e+00  2.970000e+00
     vertex -7.567099e-01  3.900356e+00  3.300000e+00
     vertex -7.273175e-01  3.822119e+00  3.300000e+00
   endloop
 endfacet
 facet normal  8.606278e-01  5.092243e-01  3.234592e-03
   outer loop
     vertex -6.600712e-01  3.699154e+00  2.970000e+00
     vertex -7.041500e-01  3.773651e+00  2.970000e+00
     vertex -6.898616e-01  3.747406e+00  3.300000e+00
   endloop
 endfacet
 facet normal -8.418689e-01  5.396743e-01 -2.911169e-03
   outer loop
     vertex  6.600712e-01  3.699154e+00  2.970000e+00
     vertex  6.447575e-01  3.677046e+00  3.300000e+00
     vertex  6.898616e-01  3.747406e+00  3.300000e+00
   endloop
 endfacet
 facet normal -8.606278e-01  5.092243e-01  3.234592e-03
   outer loop
     vertex  7.041500e-01  3.773651e+00  2.970000e+00
     vertex  6.600712e-01  3.699154e+00  2.970000e+00
     vertex  6.898616e-01  3.747406e+00  3.300000e+00
   endloop
 endfacet
 facet normal  8.939467e-01  4.481628e-01 -3.064239e-03
   outer loop
     vertex -7.041500e-01  3.773651e+00  2.970000e+00
     vertex -7.273175e-01  3.822119e+00  3.300000e+00
     vertex -6.898616e-01  3.747406e+00  3.300000e+00
   endloop
 endfacet
 facet normal -9.109593e-01  4.124824e-01  3.370618e-03
   outer loop
     vertex  7.398548e-01  3.852504e+00  2.970000e+00
     vertex  7.041500e-01  3.773651e+00  2.970000e+00
     vertex  7.273175e-01  3.822119e+00  3.300000e+00
   endloop
 endfacet
 facet normal  8.000613e-01  5.999104e-01  3.064479e-03
   outer loop
     vertex -6.081426e-01  3.629900e+00  2.970000e+00
     vertex -6.600712e-01  3.699154e+00  2.970000e+00
     vertex -6.447575e-01  3.677046e+00  3.300000e+00
   endloop
 endfacet
 facet normal  8.418689e-01  5.396743e-01 -2.911169e-03
   outer loop
     vertex -6.600712e-01  3.699154e+00  2.970000e+00
     vertex -6.898616e-01  3.747406e+00  3.300000e+00
     vertex -6.447575e-01  3.677046e+00  3.300000e+00
   endloop
 endfacet
 facet normal -8.939467e-01  4.481628e-01 -3.064239e-03
   outer loop
     vertex  7.041500e-01  3.773651e+00  2.970000e+00
     vertex  6.898616e-01  3.747406e+00  3.300000e+00
     vertex  7.273175e-01  3.822119e+00  3.300000e+00
   endloop
 endfacet
 facet normal  7.299802e-01  6.834623e-01  2.860279e-03
   outer loop
     vertex -5.489817e-01  3.566713e+00  2.970000e+00
     vertex -6.081426e-01  3.629900e+00  2.970000e+00
     vertex -5.925053e-01  3.611818e+00  3.300000e+00
   endloop
 endfacet
 facet normal -9.504574e-01  3.108353e-01  3.472552e-03
   outer loop
     vertex  7.667609e-01  3.934776e+00  2.970000e+00
     vertex  7.398548e-01  3.852504e+00  2.970000e+00
     vertex  7.567099e-01  3.900356e+00  3.300000e+00
   endloop
 endfacet
 facet normal  7.804576e-01  6.252028e-01 -2.724011e-03
   outer loop
     vertex -6.081426e-01  3.629900e+00  2.970000e+00
     vertex -6.447575e-01  3.677046e+00  3.300000e+00
     vertex -5.925053e-01  3.611818e+00  3.300000e+00
   endloop
 endfacet
 facet normal -9.361138e-01  3.516828e-01 -3.183219e-03
   outer loop
     vertex  7.398548e-01  3.852504e+00  2.970000e+00
     vertex  7.273175e-01  3.822119e+00  3.300000e+00
     vertex  7.567099e-01  3.900356e+00  3.300000e+00
   endloop
 endfacet
 facet normal -9.786525e-01  2.054917e-01  3.540395e-03
   outer loop
     vertex  7.845484e-01  4.019489e+00  2.970000e+00
     vertex  7.667609e-01  3.934776e+00  2.970000e+00
     vertex  7.777130e-01  3.981250e+00  3.300000e+00
   endloop
 endfacet
 facet normal -9.679027e-01  2.513040e-01 -3.268108e-03
   outer loop
     vertex  7.667609e-01  3.934776e+00  2.970000e+00
     vertex  7.567099e-01  3.900356e+00  3.300000e+00
     vertex  7.777130e-01  3.981250e+00  3.300000e+00
   endloop
 endfacet
 facet normal  6.512178e-01  7.588863e-01  2.621995e-03
   outer loop
     vertex -4.832922e-01  3.510343e+00  2.970000e+00
     vertex -5.489817e-01  3.566713e+00  2.970000e+00
     vertex -5.336843e-01  3.552446e+00  3.300000e+00
   endloop
 endfacet
 facet normal  7.103937e-01  7.038000e-01 -2.502768e-03
   outer loop
     vertex -5.489817e-01  3.566713e+00  2.970000e+00
     vertex -5.925053e-01  3.611818e+00  3.300000e+00
     vertex -5.336843e-01  3.552446e+00  3.300000e+00
   endloop
 endfacet
 facet normal  5.647108e-01  8.252855e-01  2.349630e-03
   outer loop
     vertex -4.118551e-01  3.461462e+00  2.970000e+00
     vertex -4.832922e-01  3.510343e+00  2.970000e+00
     vertex -4.689465e-01  3.499587e+00  3.300000e+00
   endloop
 endfacet
 facet normal  6.324539e-01  7.745947e-01 -2.247443e-03
   outer loop
     vertex -4.832922e-01  3.510343e+00  2.970000e+00
     vertex -5.336843e-01  3.552446e+00  3.300000e+00
     vertex -4.689465e-01  3.499587e+00  3.300000e+00
   endloop
 endfacet
 facet normal  4.714880e-01  8.818701e-01  2.043189e-03
   outer loop
     vertex -3.355201e-01  3.420649e+00  2.970000e+00
     vertex -4.118551e-01  3.461462e+00  2.970000e+00
     vertex -3.990098e-01  3.453829e+00  3.300000e+00
   endloop
 endfacet
 facet normal  5.475023e-01  8.368019e-01 -1.958040e-03
   outer loop
     vertex -4.118551e-01  3.461462e+00  2.970000e+00
     vertex -4.689465e-01  3.499587e+00  3.300000e+00
     vertex -3.990098e-01  3.453829e+00  3.300000e+00
   endloop
 endfacet
 facet normal  3.726578e-01  9.279673e-01  1.702676e-03
   outer loop
     vertex -2.551950e-01  3.388392e+00  2.970000e+00
     vertex -3.355201e-01  3.420649e+00  2.970000e+00
     vertex -3.246493e-01  3.415678e+00  3.300000e+00
   endloop
 endfacet
 facet normal  4.564807e-01  8.897318e-01 -1.634561e-03
   outer loop
     vertex -3.355201e-01  3.420649e+00  2.970000e+00
     vertex -3.990098e-01  3.453829e+00  3.300000e+00
     vertex -3.246493e-01  3.415678e+00  3.300000e+00
   endloop
 endfacet
 facet normal  2.693958e-01  9.630286e-01  1.328095e-03
   outer loop
     vertex -1.718350e-01  3.365073e+00  2.970000e+00
     vertex -2.551950e-01  3.388392e+00  2.970000e+00
     vertex -2.466897e-01  3.385558e+00  3.300000e+00
   endloop
 endfacet
 facet normal  3.603981e-01  9.327977e-01 -1.277013e-03
   outer loop
     vertex -2.551950e-01  3.388392e+00  2.970000e+00
     vertex -3.246493e-01  3.415678e+00  3.300000e+00
     vertex -2.466897e-01  3.385558e+00  3.300000e+00
   endloop
 endfacet
 facet normal  2.603198e-01  9.655220e-01 -8.853995e-04
   outer loop
     vertex -1.718350e-01  3.365073e+00  2.970000e+00
     vertex -2.466897e-01  3.385558e+00  3.300000e+00
     vertex -1.659951e-01  3.363801e+00  3.300000e+00
   endloop
 endfacet
 facet normal  1.629298e-01  9.866372e-01  9.194509e-04
   outer loop
     vertex -8.643142e-02  3.350970e+00  2.970000e+00
     vertex -1.718350e-01  3.365073e+00  2.970000e+00
     vertex -1.659951e-01  3.363801e+00  3.300000e+00
   endloop
 endfacet
 facet normal  1.573554e-01  9.875419e-01 -4.597264e-04
   outer loop
     vertex -8.643142e-02  3.350970e+00  2.970000e+00
     vertex -1.659951e-01  3.363801e+00  3.300000e+00
     vertex -8.346019e-02  3.350650e+00  3.300000e+00
   endloop
 endfacet
 facet normal  5.452610e-02  9.985122e-01  4.767505e-04
   outer loop
     vertex -1.458095e-16  3.346250e+00  2.970000e+00
     vertex -8.643142e-02  3.350970e+00  2.970000e+00
     vertex -8.346019e-02  3.350650e+00  3.300000e+00
   endloop
 endfacet
 facet normal  5.264636e-02  9.986132e-01 -1.352299e-15
   outer loop
     vertex -1.458095e-16  3.346250e+00  2.970000e+00
     vertex -8.346019e-02  3.350650e+00  3.300000e+00
     vertex  8.314090e-15  3.346250e+00  3.300000e+00
   endloop
 endfacet
 facet normal -5.264636e-02  9.986132e-01  1.349645e-15
   outer loop
     vertex -1.458095e-16  3.346250e+00  2.970000e+00
     vertex  8.314090e-15  3.346250e+00  3.300000e+00
     vertex  8.346019e-02  3.350650e+00  3.300000e+00
   endloop
 endfacet
 facet normal -5.452610e-02  9.985122e-01  4.767505e-04
   outer loop
     vertex  8.643142e-02  3.350970e+00  2.970000e+00
     vertex -1.458095e-16  3.346250e+00  2.970000e+00
     vertex  8.346019e-02  3.350650e+00  3.300000e+00
   endloop
 endfacet
 facet normal -1.573554e-01  9.875419e-01 -4.597264e-04
   outer loop
     vertex  8.643142e-02  3.350970e+00  2.970000e+00
     vertex  8.346019e-02  3.350650e+00  3.300000e+00
     vertex  1.659951e-01  3.363801e+00  3.300000e+00
   endloop
 endfacet
 facet normal -1.629298e-01  9.866372e-01  9.194509e-04
   outer loop
     vertex  1.718350e-01  3.365073e+00  2.970000e+00
     vertex  8.643142e-02  3.350970e+00  2.970000e+00
     vertex  1.659951e-01  3.363801e+00  3.300000e+00
   endloop
 endfacet
 facet normal -2.603198e-01  9.655220e-01 -8.853995e-04
   outer loop
     vertex  1.718350e-01  3.365073e+00  2.970000e+00
     vertex  1.659951e-01  3.363801e+00  3.300000e+00
     vertex  2.466897e-01  3.385558e+00  3.300000e+00
   endloop
 endfacet
 facet normal -2.693958e-01  9.630286e-01  1.328095e-03
   outer loop
     vertex  2.551950e-01  3.388392e+00  2.970000e+00
     vertex  1.718350e-01  3.365073e+00  2.970000e+00
     vertex  2.466897e-01  3.385558e+00  3.300000e+00
   endloop
 endfacet
 facet normal -3.603981e-01  9.327977e-01 -1.277013e-03
   outer loop
     vertex  2.551950e-01  3.388392e+00  2.970000e+00
     vertex  2.466897e-01  3.385558e+00  3.300000e+00
     vertex  3.246493e-01  3.415678e+00  3.300000e+00
   endloop
 endfacet
 facet normal -3.726578e-01  9.279673e-01  1.702676e-03
   outer loop
     vertex  3.355201e-01  3.420649e+00  2.970000e+00
     vertex  2.551950e-01  3.388392e+00  2.970000e+00
     vertex  3.246493e-01  3.415678e+00  3.300000e+00
   endloop
 endfacet
 facet normal -4.564807e-01  8.897318e-01 -1.634561e-03
   outer loop
     vertex  3.355201e-01  3.420649e+00  2.970000e+00
     vertex  3.246493e-01  3.415678e+00  3.300000e+00
     vertex  3.990098e-01  3.453829e+00  3.300000e+00
   endloop
 endfacet
 facet normal  0.000000e+00  0.000000e+00  1.000000e+00
   outer loop
     vertex -4.118551e-01  3.461462e+00  2.970000e+00
     vertex -6.081426e-01  3.629900e+00  2.970000e+00
     vertex -5.489817e-01  3.566713e+00  2.970000e+00
   endloop
 endfacet
 facet normal  0.000000e+00  0.000000e+00  1.000000e+00
   outer loop
     vertex -4.118551e-01  3.461462e+00  2.970000e+00
     vertex -5.489817e-01  3.566713e+00  2.970000e+00
     vertex -4.832922e-01  3.510343e+00  2.970000e+00
   endloop
 endfacet
 facet normal  0.000000e+00  0.000000e+00  1.000000e+00
   outer loop
     vertex -7.041500e-01  3.773651e+00  2.970000e+00
     vertex -6.600712e-01  3.699154e+00  2.970000e+00
     vertex -6.081426e-01  3.629900e+00  2.970000e+00
   endloop
 endfacet
 facet normal  0.000000e+00  0.000000e+00  1.000000e+00
   outer loop
     vertex -7.041500e-01  3.773651e+00  2.970000e+00
     vertex -6.081426e-01  3.629900e+00  2.970000e+00
     vertex -4.118551e-01  3.461462e+00  2.970000e+00
   endloop
 endfacet
 facet normal  0.000000e+00  0.000000e+00  1.000000e+00
   outer loop
     vertex -3.355201e-01  3.420649e+00  2.970000e+00
     vertex -7.041500e-01  3.773651e+00  2.970000e+00
     vertex -4.118551e-01  3.461462e+00  2.970000e+00
   endloop
 endfacet
 facet normal  0.000000e+00  0.000000e+00  1.000000e+00
   outer loop
     vertex -7.667609e-01  3.934776e+00  2.970000e+00
     vertex -7.398548e-01  3.852504e+00  2.970000e+00
     vertex -7.041500e-01  3.773651e+00  2.970000e+00
   endloop
 endfacet
 facet normal  0.000000e+00  0.000000e+00  1.000000e+00
   outer loop
     vertex -7.845484e-01  4.019489e+00  2.970000e+00
     vertex -7.667609e-01  3.934776e+00  2.970000e+00
     vertex -7.041500e-01  3.773651e+00  2.970000e+00
   endloop
 endfacet
 facet normal  0.000000e+00  0.000000e+00  1.000000e+00
   outer loop
     vertex -1.458095e-16  3.346250e+00  2.970000e+00
     vertex -1.718350e-01  3.365073e+00  2.970000e+00
     vertex -8.643142e-02  3.350970e+00  2.970000e+00
   endloop
 endfacet
 facet normal  0.000000e+00  0.000000e+00  1.000000e+00
   outer loop
     vertex  8.643142e-02  3.350970e+00  2.970000e+00
     vertex -3.355201e-01  3.420649e+00  2.970000e+00
     vertex -2.551950e-01  3.388392e+00  2.970000e+00
   endloop
 endfacet
 facet normal  0.000000e+00  0.000000e+00  1.000000e+00
   outer loop
     vertex  8.643142e-02  3.350970e+00  2.970000e+00
     vertex -2.551950e-01  3.388392e+00  2.970000e+00
     vertex -1.718350e-01  3.365073e+00  2.970000e+00
   endloop
 endfacet
 facet normal  0.000000e+00  0.000000e+00  1.000000e+00
   outer loop
     vertex  8.643142e-02  3.350970e+00  2.970000e+00
     vertex -7.041500e-01  3.773651e+00  2.970000e+00
     vertex -3.355201e-01  3.420649e+00  2.970000e+00
   endloop
 endfacet
 facet normal  0.000000e+00  0.000000e+00  1.000000e+00
   outer loop
     vertex  8.643142e-02  3.350970e+00  2.970000e+00
     vertex -1.718350e-01  3.365073e+00  2.970000e+00
     vertex -1.458095e-16  3.346250e+00  2.970000e+00
   endloop
 endfacet
 facet normal -0.000000e+00  0.000000e+00  1.000000e+00
   outer loop
     vertex  3.355201e-01  3.420649e+00  2.970000e+00
     vertex  1.718350e-01  3.365073e+00  2.970000e+00
     vertex  2.551950e-01  3.388392e+00  2.970000e+00
   endloop
 endfacet
 facet normal -0.000000e+00  0.000000e+00  1.000000e+00
   outer loop
     vertex  4.118551e-01  3.461462e+00  2.970000e+00
     vertex  1.718350e-01  3.365073e+00  2.970000e+00
     vertex  3.355201e-01  3.420649e+00  2.970000e+00
   endloop
 endfacet
 facet normal -0.000000e+00  0.000000e+00  1.000000e+00
   outer loop
     vertex  5.489817e-01  3.566713e+00  2.970000e+00
     vertex  4.118551e-01  3.461462e+00  2.970000e+00
     vertex  4.832922e-01  3.510343e+00  2.970000e+00
   endloop
 endfacet
 facet normal -0.000000e+00  0.000000e+00  1.000000e+00
   outer loop
     vertex  7.041500e-01  3.773651e+00  2.970000e+00
     vertex  6.081426e-01  3.629900e+00  2.970000e+00
     vertex  6.600712e-01  3.699154e+00  2.970000e+00
   endloop
 endfacet
 facet normal -0.000000e+00  0.000000e+00  1.000000e+00
   outer loop
     vertex  7.667609e-01  3.934776e+00  2.970000e+00
     vertex  7.041500e-01  3.773651e+00  2.970000e+00
     vertex  7.398548e-01  3.852504e+00  2.970000e+00
   endloop
 endfacet
 facet normal -0.000000e+00  0.000000e+00  1.000000e+00
   outer loop
     vertex  7.845484e-01  4.019489e+00  2.970000e+00
     vertex  8.643142e-02  3.350970e+00  2.970000e+00
     vertex  1.718350e-01  3.365073e+00  2.970000e+00
   endloop
 endfacet
 facet normal -0.000000e+00  0.000000e+00  1.000000e+00
   outer loop
     vertex  7.845484e-01  4.019489e+00  2.970000e+00
     vertex  5.489817e-01  3.566713e+00  2.970000e+00
     vertex  6.081426e-01  3.629900e+00  2.970000e+00
   endloop
 endfacet
 facet normal  0.000000e+00  0.000000e+00  1.000000e+00
   outer loop
     vertex  7.845484e-01  4.019489e+00  2.970000e+00
     vertex -7.845484e-01  4.019489e+00  2.970000e+00
     vertex -7.041500e-01  3.773651e+00  2.970000e+00
   endloop
 endfacet
 facet normal  0.000000e+00  0.000000e+00  1.000000e+00
   outer loop
     vertex  7.845484e-01  4.019489e+00  2.970000e+00
     vertex -7.041500e-01  3.773651e+00  2.970000e+00
     vertex  8.643142e-02  3.350970e+00  2.970000e+00
   endloop
 endfacet
 facet normal -0.000000e+00  0.000000e+00  1.000000e+00
   outer loop
     vertex  7.845484e-01  4.019489e+00  2.970000e+00
     vertex  1.718350e-01  3.365073e+00  2.970000e+00
     vertex  4.118551e-01  3.461462e+00  2.970000e+00
   endloop
 endfacet
 facet normal -0.000000e+00  0.000000e+00  1.000000e+00
   outer loop
     vertex  7.845484e-01  4.019489e+00  2.970000e+00
     vertex  4.118551e-01  3.461462e+00  2.970000e+00
     vertex  5.489817e-01  3.566713e+00  2.970000e+00
   endloop
 endfacet
 facet normal -0.000000e+00  0.000000e+00  1.000000e+00
   outer loop
     vertex  7.845484e-01  4.019489e+00  2.970000e+00
     vertex  6.081426e-01  3.629900e+00  2.970000e+00
     vertex  7.041500e-01  3.773651e+00  2.970000e+00
   endloop
 endfacet
 facet normal -0.000000e+00  0.000000e+00  1.000000e+00
   outer loop
     vertex  7.845484e-01  4.019489e+00  2.970000e+00
     vertex  7.041500e-01  3.773651e+00  2.970000e+00
     vertex  7.667609e-01  3.934776e+00  2.970000e+00
   endloop
 endfacet
 facet normal  1.000000e+00  0.000000e+00  0.000000e+00
   outer loop
     vertex  4.265000e+00  2.270000e+00  0.000000e+00
     vertex  4.265000e+00  2.830000e+00  0.000000e+00
     vertex  4.265000e+00  3.110000e+00  2.800000e-01
   endloop
 endfacet
 facet normal  1.000000e+00 -0.000000e+00  0.000000e+00
   outer loop
     vertex  4.265000e+00  2.270000e+00  0.000000e+00
     vertex  4.265000e+00  2.830000e+00 -3.500000e+00
     vertex  4.265000e+00  2.830000e+00  0.000000e+00
   endloop
 endfacet
 facet normal  1.000000e+00 -0.000000e+00  0.000000e+00
   outer loop
     vertex  4.265000e+00  2.270000e+00  0.000000e+00
     vertex  4.265000e+00  2.270000e+00 -3.500000e+00
     vertex  4.265000e+00  2.830000e+00 -3.500000e+00
   endloop
 endfacet
 facet normal  1.000000e+00 -0.000000e+00  0.000000e+00
   outer loop
     vertex  4.265000e+00  1.990000e+00  2.800000e-01
     vertex  4.265000e+00  2.270000e+00  0.000000e+00
     vertex  4.265000e+00  3.110000e+00  2.800000e-01
   endloop
 endfacet
 facet normal  1.000000e+00 -0.000000e+00  0.000000e+00
   outer loop
     vertex  4.265000e+00  1.990000e+00  1.790000e+00
     vertex  4.265000e+00  3.110000e+00  2.800000e-01
     vertex  4.265000e+00  3.110000e+00  1.790000e+00
   endloop
 endfacet
 facet normal  1.000000e+00 -0.000000e+00  0.000000e+00
   outer loop
     vertex  4.265000e+00  1.990000e+00  1.790000e+00
     vertex  4.265000e+00  1.990000e+00  2.800000e-01
     vertex  4.265000e+00  3.110000e+00  2.800000e-01
   endloop
 endfacet
 facet normal -0.000000e+00  1.000000e+00  0.000000e+00
   outer loop
     vertex  3.175000e+00  3.110000e+00  1.930000e+00
     vertex  4.125000e+00  3.110000e+00  1.930000e+00
     vertex  3.985000e+00  3.110000e+00  1.650000e+00
   endloop
 endfacet
 facet normal -0.000000e+00  1.000000e+00  0.000000e+00
   outer loop
     vertex  3.175000e+00  3.110000e+00  1.650000e+00
     vertex  3.175000e+00  3.110000e+00  1.930000e+00
     vertex  3.985000e+00  3.110000e+00  1.650000e+00
   endloop
 endfacet
 facet normal  0.000000e+00  1.000000e+00  0.000000e+00
   outer loop
     vertex  4.195000e+00  3.110000e+00  1.911244e+00
     vertex  4.223995e+00  3.110000e+00  1.888995e+00
     vertex  4.246244e+00  3.110000e+00  1.860000e+00
   endloop
 endfacet
 facet normal  0.000000e+00  1.000000e+00  0.000000e+00
   outer loop
     vertex  4.161235e+00  3.110000e+00  1.925230e+00
     vertex  4.195000e+00  3.110000e+00  1.911244e+00
     vertex  4.246244e+00  3.110000e+00  1.860000e+00
   endloop
 endfacet
 facet normal  0.000000e+00  1.000000e+00  0.000000e+00
   outer loop
     vertex  4.125000e+00  3.110000e+00  1.930000e+00
     vertex  4.161235e+00  3.110000e+00  1.925230e+00
     vertex  4.246244e+00  3.110000e+00  1.860000e+00
   endloop
 endfacet
 facet normal  0.000000e+00  1.000000e+00  0.000000e+00
   outer loop
     vertex  4.125000e+00  3.110000e+00  1.930000e+00
     vertex  4.246244e+00  3.110000e+00  1.860000e+00
     vertex  4.260230e+00  3.110000e+00  1.826235e+00
   endloop
 endfacet
 facet normal -0.000000e+00  1.000000e+00  0.000000e+00
   outer loop
     vertex  3.985000e+00  3.110000e+00  1.650000e+00
     vertex  4.125000e+00  3.110000e+00  1.930000e+00
     vertex  4.265000e+00  3.110000e+00  1.790000e+00
   endloop
 endfacet
 facet normal  0.000000e+00  1.000000e+00  0.000000e+00
   outer loop
     vertex  4.125000e+00  3.110000e+00  1.930000e+00
     vertex  4.260230e+00  3.110000e+00  1.826235e+00
     vertex  4.265000e+00  3.110000e+00  1.790000e+00
   endloop
 endfacet
 facet normal -0.000000e+00  1.000000e+00  0.000000e+00
   outer loop
     vertex  3.985000e+00  3.110000e+00  2.800000e-01
     vertex  3.985000e+00  3.110000e+00  1.650000e+00
     vertex  4.265000e+00  3.110000e+00  2.800000e-01
   endloop
 endfacet
 facet normal -0.000000e+00  1.000000e+00  0.000000e+00
   outer loop
     vertex  3.985000e+00  3.110000e+00  1.650000e+00
     vertex  4.265000e+00  3.110000e+00  1.790000e+00
     vertex  4.265000e+00  3.110000e+00  2.800000e-01
   endloop
 endfacet
 facet normal  9.914449e-01 -0.000000e+00  1.305262e-01
   outer loop
     vertex  4.260230e+00  1.990000e+00  1.826235e+00
     vertex  4.265000e+00  1.990000e+00  1.790000e+00
     vertex  4.265000e+00  3.110000e+00  1.790000e+00
   endloop
 endfacet
 facet normal  9.914449e-01  0.000000e+00  1.305262e-01
   outer loop
     vertex  4.260230e+00  1.990000e+00  1.826235e+00
     vertex  4.265000e+00  3.110000e+00  1.790000e+00
     vertex  4.260230e+00  3.110000e+00  1.826235e+00
   endloop
 endfacet
 facet normal  9.238795e-01  0.000000e+00  3.826834e-01
   outer loop
     vertex  4.246244e+00  1.990000e+00  1.860000e+00
     vertex  4.260230e+00  1.990000e+00  1.826235e+00
     vertex  4.246244e+00  3.110000e+00  1.860000e+00
   endloop
 endfacet
 facet normal  9.238795e-01 -0.000000e+00  3.826834e-01
   outer loop
     vertex  4.260230e+00  1.990000e+00  1.826235e+00
     vertex  4.260230e+00  3.110000e+00  1.826235e+00
     vertex  4.246244e+00  3.110000e+00  1.860000e+00
   endloop
 endfacet
 facet normal  7.933533e-01  0.000000e+00  6.087614e-01
   outer loop
     vertex  4.223995e+00  1.990000e+00  1.888995e+00
     vertex  4.246244e+00  1.990000e+00  1.860000e+00
     vertex  4.223995e+00  3.110000e+00  1.888995e+00
   endloop
 endfacet
 facet normal  6.087614e-01 -0.000000e+00  7.933533e-01
   outer loop
     vertex  4.195000e+00  1.990000e+00  1.911244e+00
     vertex  4.223995e+00  1.990000e+00  1.888995e+00
     vertex  4.223995e+00  3.110000e+00  1.888995e+00
   endloop
 endfacet
 facet normal  7.933533e-01 -0.000000e+00  6.087614e-01
   outer loop
     vertex  4.246244e+00  1.990000e+00  1.860000e+00
     vertex  4.246244e+00  3.110000e+00  1.860000e+00
     vertex  4.223995e+00  3.110000e+00  1.888995e+00
   endloop
 endfacet
 facet normal  6.087614e-01  0.000000e+00  7.933533e-01
   outer loop
     vertex  4.195000e+00  1.990000e+00  1.911244e+00
     vertex  4.223995e+00  3.110000e+00  1.888995e+00
     vertex  4.195000e+00  3.110000e+00  1.911244e+00
   endloop
 endfacet
 facet normal  3.826834e-01  0.000000e+00  9.238795e-01
   outer loop
     vertex  4.161235e+00  1.990000e+00  1.925230e+00
     vertex  4.195000e+00  1.990000e+00  1.911244e+00
     vertex  4.161235e+00  3.110000e+00  1.925230e+00
   endloop
 endfacet
 facet normal  1.305262e-01 -0.000000e+00  9.914449e-01
   outer loop
     vertex  4.125000e+00  1.990000e+00  1.930000e+00
     vertex  4.161235e+00  1.990000e+00  1.925230e+00
     vertex  4.161235e+00  3.110000e+00  1.925230e+00
   endloop
 endfacet
 facet normal  3.826834e-01 -0.000000e+00  9.238795e-01
   outer loop
     vertex  4.195000e+00  1.990000e+00  1.911244e+00
     vertex  4.195000e+00  3.110000e+00  1.911244e+00
     vertex  4.161235e+00  3.110000e+00  1.925230e+00
   endloop
 endfacet
 facet normal  1.305262e-01  0.000000e+00  9.914449e-01
   outer loop
     vertex  4.125000e+00  1.990000e+00  1.930000e+00
     vertex  4.161235e+00  3.110000e+00  1.925230e+00
     vertex  4.125000e+00  3.110000e+00  1.930000e+00
   endloop
 endfacet
 facet normal  0.000000e+00  7.071068e-01 -7.071068e-01
   outer loop
     vertex  3.985000e+00  2.830000e+00  0.000000e+00
     vertex  3.985000e+00  3.110000e+00  2.800000e-01
     vertex  4.265000e+00  3.110000e+00  2.800000e-01
   endloop
 endfacet
 facet normal  0.000000e+00  7.071068e-01 -7.071068e-01
   outer loop
     vertex  3.985000e+00  2.830000e+00  0.000000e+00
     vertex  4.265000e+00  3.110000e+00  2.800000e-01
     vertex  4.265000e+00  2.830000e+00  0.000000e+00
   endloop
 endfacet
 facet normal  0.000000e+00 -1.000000e+00  0.000000e+00
   outer loop
     vertex  3.985000e+00  1.990000e+00  2.800000e-01
     vertex  4.265000e+00  1.990000e+00  2.800000e-01
     vertex  3.985000e+00  1.990000e+00  1.650000e+00
   endloop
 endfacet
 facet normal  0.000000e+00 -1.000000e+00  0.000000e+00
   outer loop
     vertex  3.175000e+00  1.990000e+00  1.930000e+00
     vertex  3.175000e+00  1.990000e+00  1.650000e+00
     vertex  3.985000e+00  1.990000e+00  1.650000e+00
   endloop
 endfacet
 facet normal  0.000000e+00 -1.000000e+00  0.000000e+00
   outer loop
     vertex  3.985000e+00  1.990000e+00  1.650000e+00
     vertex  4.265000e+00  1.990000e+00  2.800000e-01
     vertex  4.265000e+00  1.990000e+00  1.790000e+00
   endloop
 endfacet
 facet normal  0.000000e+00 -1.000000e+00  0.000000e+00
   outer loop
     vertex  3.175000e+00  1.990000e+00  1.930000e+00
     vertex  3.985000e+00  1.990000e+00  1.650000e+00
     vertex  4.125000e+00  1.990000e+00  1.930000e+00
   endloop
 endfacet
 facet normal  0.000000e+00 -1.000000e+00  0.000000e+00
   outer loop
     vertex  3.985000e+00  1.990000e+00  1.650000e+00
     vertex  4.265000e+00  1.990000e+00  1.790000e+00
     vertex  4.125000e+00  1.990000e+00  1.930000e+00
   endloop
 endfacet
 facet normal  0.000000e+00 -1.000000e+00  0.000000e+00
   outer loop
     vertex  4.125000e+00  1.990000e+00  1.930000e+00
     vertex  4.265000e+00  1.990000e+00  1.790000e+00
     vertex  4.161235e+00  1.990000e+00  1.925230e+00
   endloop
 endfacet
 facet normal  0.000000e+00 -1.000000e+00  0.000000e+00
   outer loop
     vertex  4.265000e+00  1.990000e+00  1.790000e+00
     vertex  4.260230e+00  1.990000e+00  1.826235e+00
     vertex  4.246244e+00  1.990000e+00  1.860000e+00
   endloop
 endfacet
 facet normal  0.000000e+00 -1.000000e+00  0.000000e+00
   outer loop
     vertex  4.161235e+00  1.990000e+00  1.925230e+00
     vertex  4.265000e+00  1.990000e+00  1.790000e+00
     vertex  4.195000e+00  1.990000e+00  1.911244e+00
   endloop
 endfacet
 facet normal  0.000000e+00 -1.000000e+00  0.000000e+00
   outer loop
     vertex  4.265000e+00  1.990000e+00  1.790000e+00
     vertex  4.246244e+00  1.990000e+00  1.860000e+00
     vertex  4.223995e+00  1.990000e+00  1.888995e+00
   endloop
 endfacet
 facet normal  0.000000e+00 -1.000000e+00  0.000000e+00
   outer loop
     vertex  4.195000e+00  1.990000e+00  1.911244e+00
     vertex  4.265000e+00  1.990000e+00  1.790000e+00
     vertex  4.223995e+00  1.990000e+00  1.888995e+00
   endloop
 endfacet
 facet normal  0.000000e+00  1.000000e+00  0.000000e+00
   outer loop
     vertex  3.985000e+00  2.830000e+00 -3.500000e+00
     vertex  3.985000e+00  2.830000e+00  0.000000e+00
     vertex  4.265000e+00  2.830000e+00  0.000000e+00
   endloop
 endfacet
 facet normal -0.000000e+00  1.000000e+00  0.000000e+00
   outer loop
     vertex  3.985000e+00  2.830000e+00 -3.500000e+00
     vertex  4.265000e+00  2.830000e+00  0.000000e+00
     vertex  4.265000e+00  2.830000e+00 -3.500000e+00
   endloop
 endfacet
 facet normal  0.000000e+00 -7.071068e-01 -7.071068e-01
   outer loop
     vertex  3.985000e+00  1.990000e+00  2.800000e-01
     vertex  3.985000e+00  2.270000e+00  0.000000e+00
     vertex  4.265000e+00  2.270000e+00  0.000000e+00
   endloop
 endfacet
 facet normal  0.000000e+00 -7.071068e-01 -7.071068e-01
   outer loop
     vertex  3.985000e+00  1.990000e+00  2.800000e-01
     vertex  4.265000e+00  2.270000e+00  0.000000e+00
     vertex  4.265000e+00  1.990000e+00  2.800000e-01
   endloop
 endfacet
 facet normal  0.000000e+00  0.000000e+00 -1.000000e+00
   outer loop
     vertex  3.985000e+00  2.270000e+00 -3.500000e+00
     vertex  3.985000e+00  2.830000e+00 -3.500000e+00
     vertex  4.265000e+00  2.830000e+00 -3.500000e+00
   endloop
 endfacet
 facet normal  0.000000e+00  0.000000e+00 -1.000000e+00
   outer loop
     vertex  3.985000e+00  2.270000e+00 -3.500000e+00
     vertex  4.265000e+00  2.830000e+00 -3.500000e+00
     vertex  4.265000e+00  2.270000e+00 -3.500000e+00
   endloop
 endfacet
 facet normal  0.000000e+00 -1.000000e+00  0.000000e+00
   outer loop
     vertex  3.985000e+00  2.270000e+00  0.000000e+00
     vertex  3.985000e+00  2.270000e+00 -3.500000e+00
     vertex  4.265000e+00  2.270000e+00 -3.500000e+00
   endloop
 endfacet
 facet normal  0.000000e+00 -1.000000e+00  0.000000e+00
   outer loop
     vertex  3.985000e+00  2.270000e+00  0.000000e+00
     vertex  4.265000e+00  2.270000e+00 -3.500000e+00
     vertex  4.265000e+00  2.270000e+00  0.000000e+00
   endloop
 endfacet
 facet normal -2.337312e-16  0.000000e+00  1.000000e+00
   outer loop
     vertex  3.175000e+00  1.990000e+00  1.930000e+00
     vertex  4.125000e+00  1.990000e+00  1.930000e+00
     vertex  3.175000e+00  3.110000e+00  1.930000e+00
   endloop
 endfacet
 facet normal -2.337312e-16  0.000000e+00  1.000000e+00
   outer loop
     vertex  4.125000e+00  1.990000e+00  1.930000e+00
     vertex  4.125000e+00  3.110000e+00  1.930000e+00
     vertex  3.175000e+00  3.110000e+00  1.930000e+00
   endloop
 endfacet
 facet normal -1.000000e+00  0.000000e+00  0.000000e+00
   outer loop
     vertex  3.175000e+00  3.110000e+00  1.650000e+00
     vertex  3.175000e+00  1.990000e+00  1.650000e+00
     vertex  3.175000e+00  1.990000e+00  1.930000e+00
   endloop
 endfacet
 facet normal -1.000000e+00 -0.000000e+00 -0.000000e+00
   outer loop
     vertex  3.175000e+00  3.110000e+00  1.930000e+00
     vertex  3.175000e+00  3.110000e+00  1.650000e+00
     vertex  3.175000e+00  1.990000e+00  1.930000e+00
   endloop
 endfacet
 facet normal  0.000000e+00  0.000000e+00 -1.000000e+00
   outer loop
     vertex  3.175000e+00  1.990000e+00  1.650000e+00
     vertex  3.175000e+00  3.110000e+00  1.650000e+00
     vertex  3.985000e+00  3.110000e+00  1.650000e+00
   endloop
 endfacet
 facet normal  0.000000e+00  0.000000e+00 -1.000000e+00
   outer loop
     vertex  3.985000e+00  1.990000e+00  1.650000e+00
     vertex  3.175000e+00  1.990000e+00  1.650000e+00
     vertex  3.985000e+00  3.110000e+00  1.650000e+00
   endloop
 endfacet
 facet normal -1.000000e+00 -0.000000e+00  0.000000e+00
   outer loop
     vertex  3.985000e+00  3.110000e+00  2.800000e-01
     vertex  3.985000e+00  2.830000e+00  0.000000e+00
     vertex  3.985000e+00  2.270000e+00  0.000000e+00
   endloop
 endfacet
 facet normal -1.000000e+00 -0.000000e+00 -0.000000e+00
   outer loop
     vertex  3.985000e+00  2.830000e+00  0.000000e+00
     vertex  3.985000e+00  2.830000e+00 -3.500000e+00
     vertex  3.985000e+00  2.270000e+00  0.000000e+00
   endloop
 endfacet
 facet normal -1.000000e+00  0.000000e+00  0.000000e+00
   outer loop
     vertex  3.985000e+00  2.830000e+00 -3.500000e+00
     vertex  3.985000e+00  2.270000e+00 -3.500000e+00
     vertex  3.985000e+00  2.270000e+00  0.000000e+00
   endloop
 endfacet
 facet normal -1.000000e+00 -0.000000e+00  0.000000e+00
   outer loop
     vertex  3.985000e+00  3.110000e+00  2.800000e-01
     vertex  3.985000e+00  2.270000e+00  0.000000e+00
     vertex  3.985000e+00  1.990000e+00  2.800000e-01
   endloop
 endfacet
 facet normal -1.000000e+00 -0.000000e+00 -0.000000e+00
   outer loop
     vertex  3.985000e+00  3.110000e+00  1.650000e+00
     vertex  3.985000e+00  3.110000e+00  2.800000e-01
     vertex  3.985000e+00  1.990000e+00  1.650000e+00
   endloop
 endfacet
 facet normal -1.000000e+00  0.000000e+00  0.000000e+00
   outer loop
     vertex  3.985000e+00  3.110000e+00  2.800000e-01
     vertex  3.985000e+00  1.990000e+00  2.800000e-01
     vertex  3.985000e+00  1.990000e+00  1.650000e+00
   endloop
 endfacet
 facet normal -1.000000e+00  0.000000e+00  0.000000e+00
   outer loop
     vertex -4.265000e+00  1.990000e+00  2.800000e-01
     vertex -4.265000e+00  1.990000e+00  1.790000e+00
     vertex -4.265000e+00  3.110000e+00  1.790000e+00
   endloop
 endfacet
 facet normal -1.000000e+00  0.000000e+00  0.000000e+00
   outer loop
     vertex -4.265000e+00  1.990000e+00  2.800000e-01
     vertex -4.265000e+00  3.110000e+00  1.790000e+00
     vertex -4.265000e+00  3.110000e+00  2.800000e-01
   endloop
 endfacet
 facet normal -1.000000e+00  0.000000e+00 -0.000000e+00
   outer loop
     vertex -4.265000e+00  1.990000e+00  2.800000e-01
     vertex -4.265000e+00  3.110000e+00  2.800000e-01
     vertex -4.265000e+00  2.830000e+00  0.000000e+00
   endloop
 endfacet
 facet normal -1.000000e+00  0.000000e+00  0.000000e+00
   outer loop
     vertex -4.265000e+00  2.270000e+00  0.000000e+00
     vertex -4.265000e+00  1.990000e+00  2.800000e-01
     vertex -4.265000e+00  2.830000e+00  0.000000e+00
   endloop
 endfacet
 facet normal -1.000000e+00  0.000000e+00  0.000000e+00
   outer loop
     vertex -4.265000e+00  2.270000e+00 -3.500000e+00
     vertex -4.265000e+00  2.830000e+00  0.000000e+00
     vertex -4.265000e+00  2.830000e+00 -3.500000e+00
   endloop
 endfacet
 facet normal -1.000000e+00  0.000000e+00  0.000000e+00
   outer loop
     vertex -4.265000e+00  2.270000e+00 -3.500000e+00
     vertex -4.265000e+00  2.270000e+00  0.000000e+00
     vertex -4.265000e+00  2.830000e+00  0.000000e+00
   endloop
 endfacet
 facet normal  0.000000e+00 -1.000000e+00  0.000000e+00
   outer loop
     vertex -4.265000e+00  1.990000e+00  1.790000e+00
     vertex -4.265000e+00  1.990000e+00  2.800000e-01
     vertex -3.985000e+00  1.990000e+00  1.650000e+00
   endloop
 endfacet
 facet normal  0.000000e+00 -1.000000e+00  0.000000e+00
   outer loop
     vertex -4.265000e+00  1.990000e+00  2.800000e-01
     vertex -3.985000e+00  1.990000e+00  2.800000e-01
     vertex -3.985000e+00  1.990000e+00  1.650000e+00
   endloop
 endfacet
 facet normal  0.000000e+00 -1.000000e+00 -0.000000e+00
   outer loop
     vertex -4.246244e+00  1.990000e+00  1.860000e+00
     vertex -4.260230e+00  1.990000e+00  1.826235e+00
     vertex -4.195000e+00  1.990000e+00  1.911244e+00
   endloop
 endfacet
 facet normal  0.000000e+00 -1.000000e+00 -0.000000e+00
   outer loop
     vertex -4.223995e+00  1.990000e+00  1.888995e+00
     vertex -4.246244e+00  1.990000e+00  1.860000e+00
     vertex -4.195000e+00  1.990000e+00  1.911244e+00
   endloop
 endfacet
 facet normal  0.000000e+00 -1.000000e+00 -0.000000e+00
   outer loop
     vertex -4.260230e+00  1.990000e+00  1.826235e+00
     vertex -4.265000e+00  1.990000e+00  1.790000e+00
     vertex -4.125000e+00  1.990000e+00  1.930000e+00
   endloop
 endfacet
 facet normal  0.000000e+00 -1.000000e+00 -0.000000e+00
   outer loop
     vertex -4.161235e+00  1.990000e+00  1.925230e+00
     vertex -4.195000e+00  1.990000e+00  1.911244e+00
     vertex -4.125000e+00  1.990000e+00  1.930000e+00
   endloop
 endfacet
 facet normal  0.000000e+00 -1.000000e+00  0.000000e+00
   outer loop
     vertex -4.265000e+00  1.990000e+00  1.790000e+00
     vertex -3.985000e+00  1.990000e+00  1.650000e+00
     vertex -4.125000e+00  1.990000e+00  1.930000e+00
   endloop
 endfacet
 facet normal  0.000000e+00 -1.000000e+00 -0.000000e+00
   outer loop
     vertex -4.195000e+00  1.990000e+00  1.911244e+00
     vertex -4.260230e+00  1.990000e+00  1.826235e+00
     vertex -4.125000e+00  1.990000e+00  1.930000e+00
   endloop
 endfacet
 facet normal  0.000000e+00 -1.000000e+00  0.000000e+00
   outer loop
     vertex -3.985000e+00  1.990000e+00  1.650000e+00
     vertex -3.175000e+00  1.990000e+00  1.650000e+00
     vertex -3.175000e+00  1.990000e+00  1.930000e+00
   endloop
 endfacet
 facet normal  0.000000e+00 -1.000000e+00  0.000000e+00
   outer loop
     vertex -4.125000e+00  1.990000e+00  1.930000e+00
     vertex -3.985000e+00  1.990000e+00  1.650000e+00
     vertex -3.175000e+00  1.990000e+00  1.930000e+00
   endloop
 endfacet
 facet normal -9.914449e-01  0.000000e+00  1.305262e-01
   outer loop
     vertex -4.260230e+00  3.110000e+00  1.826235e+00
     vertex -4.265000e+00  3.110000e+00  1.790000e+00
     vertex -4.260230e+00  1.990000e+00  1.826235e+00
   endloop
 endfacet
 facet normal -9.914449e-01  0.000000e+00  1.305262e-01
   outer loop
     vertex -4.265000e+00  3.110000e+00  1.790000e+00
     vertex -4.265000e+00  1.990000e+00  1.790000e+00
     vertex -4.260230e+00  1.990000e+00  1.826235e+00
   endloop
 endfacet
 facet normal -9.238795e-01  0.000000e+00  3.826834e-01
   outer loop
     vertex -4.246244e+00  3.110000e+00  1.860000e+00
     vertex -4.260230e+00  3.110000e+00  1.826235e+00
     vertex -4.246244e+00  1.990000e+00  1.860000e+00
   endloop
 endfacet
 facet normal -7.933533e-01  0.000000e+00  6.087614e-01
   outer loop
     vertex -4.223995e+00  3.110000e+00  1.888995e+00
     vertex -4.246244e+00  3.110000e+00  1.860000e+00
     vertex -4.246244e+00  1.990000e+00  1.860000e+00
   endloop
 endfacet
 facet normal -9.238795e-01  0.000000e+00  3.826834e-01
   outer loop
     vertex -4.260230e+00  3.110000e+00  1.826235e+00
     vertex -4.260230e+00  1.990000e+00  1.826235e+00
     vertex -4.246244e+00  1.990000e+00  1.860000e+00
   endloop
 endfacet
 facet normal -7.933533e-01  0.000000e+00  6.087614e-01
   outer loop
     vertex -4.223995e+00  3.110000e+00  1.888995e+00
     vertex -4.246244e+00  1.990000e+00  1.860000e+00
     vertex -4.223995e+00  1.990000e+00  1.888995e+00
   endloop
 endfacet
 facet normal -6.087614e-01  0.000000e+00  7.933533e-01
   outer loop
     vertex -4.195000e+00  3.110000e+00  1.911244e+00
     vertex -4.223995e+00  3.110000e+00  1.888995e+00
     vertex -4.195000e+00  1.990000e+00  1.911244e+00
   endloop
 endfacet
 facet normal -6.087614e-01  0.000000e+00  7.933533e-01
   outer loop
     vertex -4.223995e+00  3.110000e+00  1.888995e+00
     vertex -4.223995e+00  1.990000e+00  1.888995e+00
     vertex -4.195000e+00  1.990000e+00  1.911244e+00
   endloop
 endfacet
 facet normal -3.826834e-01  0.000000e+00  9.238795e-01
   outer loop
     vertex -4.161235e+00  3.110000e+00  1.925230e+00
     vertex -4.195000e+00  3.110000e+00  1.911244e+00
     vertex -4.161235e+00  1.990000e+00  1.925230e+00
   endloop
 endfacet
 facet normal -3.826834e-01  0.000000e+00  9.238795e-01
   outer loop
     vertex -4.195000e+00  3.110000e+00  1.911244e+00
     vertex -4.195000e+00  1.990000e+00  1.911244e+00
     vertex -4.161235e+00  1.990000e+00  1.925230e+00
   endloop
 endfacet
 facet normal -1.305262e-01  0.000000e+00  9.914449e-01
   outer loop
     vertex -4.125000e+00  3.110000e+00  1.930000e+00
     vertex -4.161235e+00  3.110000e+00  1.925230e+00
     vertex -4.125000e+00  1.990000e+00  1.930000e+00
   endloop
 endfacet
 facet normal -1.305262e-01  0.000000e+00  9.914449e-01
   outer loop
     vertex -4.161235e+00  3.110000e+00  1.925230e+00
     vertex -4.161235e+00  1.990000e+00  1.925230e+00
     vertex -4.125000e+00  1.990000e+00  1.930000e+00
   endloop
 endfacet
 facet normal -0.000000e+00 -7.071068e-01 -7.071068e-01
   outer loop
     vertex -3.985000e+00  2.270000e+00  0.000000e+00
     vertex -3.985000e+00  1.990000e+00  2.800000e-01
     vertex -4.265000e+00  1.990000e+00  2.800000e-01
   endloop
 endfacet
 facet normal  0.000000e+00 -7.071068e-01 -7.071068e-01
   outer loop
     vertex -3.985000e+00  2.270000e+00  0.000000e+00
     vertex -4.265000e+00  1.990000e+00  2.800000e-01
     vertex -4.265000e+00  2.270000e+00  0.000000e+00
   endloop
 endfacet
 facet normal  0.000000e+00  1.000000e+00  0.000000e+00
   outer loop
     vertex -4.195000e+00  3.110000e+00  1.911244e+00
     vertex -4.161235e+00  3.110000e+00  1.925230e+00
     vertex -4.125000e+00  3.110000e+00  1.930000e+00
   endloop
 endfacet
 facet normal -0.000000e+00  1.000000e+00  0.000000e+00
   outer loop
     vertex -4.260230e+00  3.110000e+00  1.826235e+00
     vertex -4.246244e+00  3.110000e+00  1.860000e+00
     vertex -4.265000e+00  3.110000e+00  1.790000e+00
   endloop
 endfacet
 facet normal -0.000000e+00  1.000000e+00  0.000000e+00
   outer loop
     vertex -4.246244e+00  3.110000e+00  1.860000e+00
     vertex -4.223995e+00  3.110000e+00  1.888995e+00
     vertex -4.265000e+00  3.110000e+00  1.790000e+00
   endloop
 endfacet
 facet normal -0.000000e+00  1.000000e+00  0.000000e+00
   outer loop
     vertex -4.223995e+00  3.110000e+00  1.888995e+00
     vertex -4.195000e+00  3.110000e+00  1.911244e+00
     vertex -4.265000e+00  3.110000e+00  1.790000e+00
   endloop
 endfacet
 facet normal -0.000000e+00  1.000000e+00  0.000000e+00
   outer loop
     vertex -4.195000e+00  3.110000e+00  1.911244e+00
     vertex -4.125000e+00  3.110000e+00  1.930000e+00
     vertex -4.265000e+00  3.110000e+00  1.790000e+00
   endloop
 endfacet
 facet normal -0.000000e+00  1.000000e+00  0.000000e+00
   outer loop
     vertex -4.265000e+00  3.110000e+00  1.790000e+00
     vertex -4.125000e+00  3.110000e+00  1.930000e+00
     vertex -3.985000e+00  3.110000e+00  1.650000e+00
   endloop
 endfacet
 facet normal -0.000000e+00  1.000000e+00 -0.000000e+00
   outer loop
     vertex -3.985000e+00  3.110000e+00  1.650000e+00
     vertex -4.125000e+00  3.110000e+00  1.930000e+00
     vertex -3.175000e+00  3.110000e+00  1.930000e+00
   endloop
 endfacet
 facet normal -0.000000e+00  1.000000e+00  0.000000e+00
   outer loop
     vertex -3.985000e+00  3.110000e+00  1.650000e+00
     vertex -3.175000e+00  3.110000e+00  1.930000e+00
     vertex -3.175000e+00  3.110000e+00  1.650000e+00
   endloop
 endfacet
 facet normal  0.000000e+00  1.000000e+00  0.000000e+00
   outer loop
     vertex -4.265000e+00  3.110000e+00  1.790000e+00
     vertex -3.985000e+00  3.110000e+00  1.650000e+00
     vertex -4.265000e+00  3.110000e+00  2.800000e-01
   endloop
 endfacet
 facet normal -0.000000e+00  1.000000e+00  0.000000e+00
   outer loop
     vertex -4.265000e+00  3.110000e+00  2.800000e-01
     vertex -3.985000e+00  3.110000e+00  1.650000e+00
     vertex -3.985000e+00  3.110000e+00  2.800000e-01
   endloop
 endfacet
 facet normal  0.000000e+00 -1.000000e+00  0.000000e+00
   outer loop
     vertex -3.985000e+00  2.270000e+00 -3.500000e+00
     vertex -3.985000e+00  2.270000e+00  0.000000e+00
     vertex -4.265000e+00  2.270000e+00  0.000000e+00
   endloop
 endfacet
 facet normal -0.000000e+00 -1.000000e+00 -0.000000e+00
   outer loop
     vertex -3.985000e+00  2.270000e+00 -3.500000e+00
     vertex -4.265000e+00  2.270000e+00  0.000000e+00
     vertex -4.265000e+00  2.270000e+00 -3.500000e+00
   endloop
 endfacet
 facet normal  0.000000e+00  7.071068e-01 -7.071068e-01
   outer loop
     vertex -3.985000e+00  3.110000e+00  2.800000e-01
     vertex -3.985000e+00  2.830000e+00  0.000000e+00
     vertex -4.265000e+00  2.830000e+00  0.000000e+00
   endloop
 endfacet
 facet normal  0.000000e+00  7.071068e-01 -7.071068e-01
   outer loop
     vertex -3.985000e+00  3.110000e+00  2.800000e-01
     vertex -4.265000e+00  2.830000e+00  0.000000e+00
     vertex -4.265000e+00  3.110000e+00  2.800000e-01
   endloop
 endfacet
 facet normal -0.000000e+00 -0.000000e+00 -1.000000e+00
   outer loop
     vertex -3.985000e+00  2.830000e+00 -3.500000e+00
     vertex -3.985000e+00  2.270000e+00 -3.500000e+00
     vertex -4.265000e+00  2.270000e+00 -3.500000e+00
   endloop
 endfacet
 facet normal -0.000000e+00  0.000000e+00 -1.000000e+00
   outer loop
     vertex -3.985000e+00  2.830000e+00 -3.500000e+00
     vertex -4.265000e+00  2.270000e+00 -3.500000e+00
     vertex -4.265000e+00  2.830000e+00 -3.500000e+00
   endloop
 endfacet
 facet normal  0.000000e+00  1.000000e+00  0.000000e+00
   outer loop
     vertex -3.985000e+00  2.830000e+00  0.000000e+00
     vertex -3.985000e+00  2.830000e+00 -3.500000e+00
     vertex -4.265000e+00  2.830000e+00 -3.500000e+00
   endloop
 endfacet
 facet normal  0.000000e+00  1.000000e+00 -0.000000e+00
   outer loop
     vertex -3.985000e+00  2.830000e+00  0.000000e+00
     vertex -4.265000e+00  2.830000e+00 -3.500000e+00
     vertex -4.265000e+00  2.830000e+00  0.000000e+00
   endloop
 endfacet
 facet normal  2.337312e-16  0.000000e+00  1.000000e+00
   outer loop
     vertex -4.125000e+00  1.990000e+00  1.930000e+00
     vertex -3.175000e+00  1.990000e+00  1.930000e+00
     vertex -4.125000e+00  3.110000e+00  1.930000e+00
   endloop
 endfacet
 facet normal  2.337312e-16 -0.000000e+00  1.000000e+00
   outer loop
     vertex -3.175000e+00  1.990000e+00  1.930000e+00
     vertex -3.175000e+00  3.110000e+00  1.930000e+00
     vertex -4.125000e+00  3.110000e+00  1.930000e+00
   endloop
 endfacet
 facet normal  1.000000e+00 -0.000000e+00  0.000000e+00
   outer loop
     vertex -3.175000e+00  1.990000e+00  1.930000e+00
     vertex -3.175000e+00  1.990000e+00  1.650000e+00
     vertex -3.175000e+00  3.110000e+00  1.650000e+00
   endloop
 endfacet
 facet normal  1.000000e+00 -0.000000e+00  0.000000e+00
   outer loop
     vertex -3.175000e+00  1.990000e+00  1.930000e+00
     vertex -3.175000e+00  3.110000e+00  1.650000e+00
     vertex -3.175000e+00  3.110000e+00  1.930000e+00
   endloop
 endfacet
 facet normal  0.000000e+00  0.000000e+00 -1.000000e+00
   outer loop
     vertex -3.985000e+00  1.990000e+00  1.650000e+00
     vertex -3.985000e+00  3.110000e+00  1.650000e+00
     vertex -3.175000e+00  3.110000e+00  1.650000e+00
   endloop
 endfacet
 facet normal  0.000000e+00  0.000000e+00 -1.000000e+00
   outer loop
     vertex -3.175000e+00  1.990000e+00  1.650000e+00
     vertex -3.985000e+00  1.990000e+00  1.650000e+00
     vertex -3.175000e+00  3.110000e+00  1.650000e+00
   endloop
 endfacet
 facet normal  1.000000e+00  0.000000e+00  0.000000e+00
   outer loop
     vertex -3.985000e+00  3.110000e+00  1.650000e+00
     vertex -3.985000e+00  1.990000e+00  1.650000e+00
     vertex -3.985000e+00  1.990000e+00  2.800000e-01
   endloop
 endfacet
 facet normal  1.000000e+00  0.000000e+00 -0.000000e+00
   outer loop
     vertex -3.985000e+00  3.110000e+00  2.800000e-01
     vertex -3.985000e+00  3.110000e+00  1.650000e+00
     vertex -3.985000e+00  1.990000e+00  2.800000e-01
   endloop
 endfacet
 facet normal  1.000000e+00  0.000000e+00 -0.000000e+00
   outer loop
     vertex -3.985000e+00  2.830000e+00  0.000000e+00
     vertex -3.985000e+00  3.110000e+00  2.800000e-01
     vertex -3.985000e+00  1.990000e+00  2.800000e-01
   endloop
 endfacet
 facet normal  1.000000e+00  0.000000e+00 -0.000000e+00
   outer loop
     vertex -3.985000e+00  2.270000e+00  0.000000e+00
     vertex -3.985000e+00  2.830000e+00  0.000000e+00
     vertex -3.985000e+00  1.990000e+00  2.800000e-01
   endloop
 endfacet
 facet normal  1.000000e+00  0.000000e+00 -0.000000e+00
   outer loop
     vertex -3.985000e+00  2.830000e+00 -3.500000e+00
     vertex -3.985000e+00  2.830000e+00  0.000000e+00
     vertex -3.985000e+00  2.270000e+00 -3.500000e+00
   endloop
 endfacet
 facet normal  1.000000e+00  0.000000e+00  0.000000e+00
   outer loop
     vertex -3.985000e+00  2.830000e+00  0.000000e+00
     vertex -3.985000e+00  2.270000e+00  0.000000e+00
     vertex -3.985000e+00  2.270000e+00 -3.500000e+00
   endloop
 endfacet
 facet normal  1.000000e+00  0.000000e+00  0.000000e+00
   outer loop
     vertex  4.265000e+00 -2.830000e+00  0.000000e+00
     vertex  4.265000e+00 -2.270000e+00  0.000000e+00
     vertex  4.265000e+00 -1.990000e+00  2.800000e-01
   endloop
 endfacet
 facet normal  1.000000e+00 -0.000000e+00  0.000000e+00
   outer loop
     vertex  4.265000e+00 -2.830000e+00  0.000000e+00
     vertex  4.265000e+00 -2.270000e+00 -3.500000e+00
     vertex  4.265000e+00 -2.270000e+00  0.000000e+00
   endloop
 endfacet
 facet normal  1.000000e+00 -0.000000e+00  0.000000e+00
   outer loop
     vertex  4.265000e+00 -2.830000e+00  0.000000e+00
     vertex  4.265000e+00 -2.830000e+00 -3.500000e+00
     vertex  4.265000e+00 -2.270000e+00 -3.500000e+00
   endloop
 endfacet
 facet normal  1.000000e+00 -0.000000e+00  0.000000e+00
   outer loop
     vertex  4.265000e+00 -3.110000e+00  2.800000e-01
     vertex  4.265000e+00 -2.830000e+00  0.000000e+00
     vertex  4.265000e+00 -1.990000e+00  2.800000e-01
   endloop
 endfacet
 facet normal  1.000000e+00 -0.000000e+00  0.000000e+00
   outer loop
     vertex  4.265000e+00 -3.110000e+00  1.790000e+00
     vertex  4.265000e+00 -1.990000e+00  2.800000e-01
     vertex  4.265000e+00 -1.990000e+00  1.790000e+00
   endloop
 endfacet
 facet normal  1.000000e+00 -0.000000e+00  0.000000e+00
   outer loop
     vertex  4.265000e+00 -3.110000e+00  1.790000e+00
     vertex  4.265000e+00 -3.110000e+00  2.800000e-01
     vertex  4.265000e+00 -1.990000e+00  2.800000e-01
   endloop
 endfacet
 facet normal -0.000000e+00  1.000000e+00  0.000000e+00
   outer loop
     vertex  3.175000e+00 -1.990000e+00  1.930000e+00
     vertex  4.125000e+00 -1.990000e+00  1.930000e+00
     vertex  3.985000e+00 -1.990000e+00  1.650000e+00
   endloop
 endfacet
 facet normal -0.000000e+00  1.000000e+00  0.000000e+00
   outer loop
     vertex  3.175000e+00 -1.990000e+00  1.650000e+00
     vertex  3.175000e+00 -1.990000e+00  1.930000e+00
     vertex  3.985000e+00 -1.990000e+00  1.650000e+00
   endloop
 endfacet
 facet normal  0.000000e+00  1.000000e+00  0.000000e+00
   outer loop
     vertex  4.195000e+00 -1.990000e+00  1.911244e+00
     vertex  4.223995e+00 -1.990000e+00  1.888995e+00
     vertex  4.246244e+00 -1.990000e+00  1.860000e+00
   endloop
 endfacet
 facet normal  0.000000e+00  1.000000e+00  0.000000e+00
   outer loop
     vertex  4.161235e+00 -1.990000e+00  1.925230e+00
     vertex  4.195000e+00 -1.990000e+00  1.911244e+00
     vertex  4.246244e+00 -1.990000e+00  1.860000e+00
   endloop
 endfacet
 facet normal  0.000000e+00  1.000000e+00  0.000000e+00
   outer loop
     vertex  4.125000e+00 -1.990000e+00  1.930000e+00
     vertex  4.161235e+00 -1.990000e+00  1.925230e+00
     vertex  4.246244e+00 -1.990000e+00  1.860000e+00
   endloop
 endfacet
 facet normal  0.000000e+00  1.000000e+00  0.000000e+00
   outer loop
     vertex  4.125000e+00 -1.990000e+00  1.930000e+00
     vertex  4.246244e+00 -1.990000e+00  1.860000e+00
     vertex  4.260230e+00 -1.990000e+00  1.826235e+00
   endloop
 endfacet
 facet normal -0.000000e+00  1.000000e+00  0.000000e+00
   outer loop
     vertex  3.985000e+00 -1.990000e+00  1.650000e+00
     vertex  4.125000e+00 -1.990000e+00  1.930000e+00
     vertex  4.265000e+00 -1.990000e+00  1.790000e+00
   endloop
 endfacet
 facet normal  0.000000e+00  1.000000e+00  0.000000e+00
   outer loop
     vertex  4.125000e+00 -1.990000e+00  1.930000e+00
     vertex  4.260230e+00 -1.990000e+00  1.826235e+00
     vertex  4.265000e+00 -1.990000e+00  1.790000e+00
   endloop
 endfacet
 facet normal -0.000000e+00  1.000000e+00  0.000000e+00
   outer loop
     vertex  3.985000e+00 -1.990000e+00  2.800000e-01
     vertex  3.985000e+00 -1.990000e+00  1.650000e+00
     vertex  4.265000e+00 -1.990000e+00  2.800000e-01
   endloop
 endfacet
 facet normal -0.000000e+00  1.000000e+00  0.000000e+00
   outer loop
     vertex  3.985000e+00 -1.990000e+00  1.650000e+00
     vertex  4.265000e+00 -1.990000e+00  1.790000e+00
     vertex  4.265000e+00 -1.990000e+00  2.800000e-01
   endloop
 endfacet
 facet normal  9.914449e-01 -0.000000e+00  1.305262e-01
   outer loop
     vertex  4.260230e+00 -3.110000e+00  1.826235e+00
     vertex  4.265000e+00 -3.110000e+00  1.790000e+00
     vertex  4.265000e+00 -1.990000e+00  1.790000e+00
   endloop
 endfacet
 facet normal  9.914449e-01  0.000000e+00  1.305262e-01
   outer loop
     vertex  4.260230e+00 -3.110000e+00  1.826235e+00
     vertex  4.265000e+00 -1.990000e+00  1.790000e+00
     vertex  4.260230e+00 -1.990000e+00  1.826235e+00
   endloop
 endfacet
 facet normal  9.238795e-01  0.000000e+00  3.826834e-01
   outer loop
     vertex  4.246244e+00 -3.110000e+00  1.860000e+00
     vertex  4.260230e+00 -3.110000e+00  1.826235e+00
     vertex  4.246244e+00 -1.990000e+00  1.860000e+00
   endloop
 endfacet
 facet normal  9.238795e-01 -0.000000e+00  3.826834e-01
   outer loop
     vertex  4.260230e+00 -3.110000e+00  1.826235e+00
     vertex  4.260230e+00 -1.990000e+00  1.826235e+00
     vertex  4.246244e+00 -1.990000e+00  1.860000e+00
   endloop
 endfacet
 facet normal  7.933533e-01  0.000000e+00  6.087614e-01
   outer loop
     vertex  4.223995e+00 -3.110000e+00  1.888995e+00
     vertex  4.246244e+00 -3.110000e+00  1.860000e+00
     vertex  4.223995e+00 -1.990000e+00  1.888995e+00
   endloop
 endfacet
 facet normal  6.087614e-01 -0.000000e+00  7.933533e-01
   outer loop
     vertex  4.195000e+00 -3.110000e+00  1.911244e+00
     vertex  4.223995e+00 -3.110000e+00  1.888995e+00
     vertex  4.223995e+00 -1.990000e+00  1.888995e+00
   endloop
 endfacet
 facet normal  7.933533e-01 -0.000000e+00  6.087614e-01
   outer loop
     vertex  4.246244e+00 -3.110000e+00  1.860000e+00
     vertex  4.246244e+00 -1.990000e+00  1.860000e+00
     vertex  4.223995e+00 -1.990000e+00  1.888995e+00
   endloop
 endfacet
 facet normal  6.087614e-01  0.000000e+00  7.933533e-01
   outer loop
     vertex  4.195000e+00 -3.110000e+00  1.911244e+00
     vertex  4.223995e+00 -1.990000e+00  1.888995e+00
     vertex  4.195000e+00 -1.990000e+00  1.911244e+00
   endloop
 endfacet
 facet normal  3.826834e-01  0.000000e+00  9.238795e-01
   outer loop
     vertex  4.161235e+00 -3.110000e+00  1.925230e+00
     vertex  4.195000e+00 -3.110000e+00  1.911244e+00
     vertex  4.161235e+00 -1.990000e+00  1.925230e+00
   endloop
 endfacet
 facet normal  1.305262e-01 -0.000000e+00  9.914449e-01
   outer loop
     vertex  4.125000e+00 -3.110000e+00  1.930000e+00
     vertex  4.161235e+00 -3.110000e+00  1.925230e+00
     vertex  4.161235e+00 -1.990000e+00  1.925230e+00
   endloop
 endfacet
 facet normal  3.826834e-01 -0.000000e+00  9.238795e-01
   outer loop
     vertex  4.195000e+00 -3.110000e+00  1.911244e+00
     vertex  4.195000e+00 -1.990000e+00  1.911244e+00
     vertex  4.161235e+00 -1.990000e+00  1.925230e+00
   endloop
 endfacet
 facet normal  1.305262e-01  0.000000e+00  9.914449e-01
   outer loop
     vertex  4.125000e+00 -3.110000e+00  1.930000e+00
     vertex  4.161235e+00 -1.990000e+00  1.925230e+00
     vertex  4.125000e+00 -1.990000e+00  1.930000e+00
   endloop
 endfacet
 facet normal  0.000000e+00  7.071068e-01 -7.071068e-01
   outer loop
     vertex  3.985000e+00 -2.270000e+00  0.000000e+00
     vertex  3.985000e+00 -1.990000e+00  2.800000e-01
     vertex  4.265000e+00 -1.990000e+00  2.800000e-01
   endloop
 endfacet
 facet normal  0.000000e+00  7.071068e-01 -7.071068e-01
   outer loop
     vertex  3.985000e+00 -2.270000e+00  0.000000e+00
     vertex  4.265000e+00 -1.990000e+00  2.800000e-01
     vertex  4.265000e+00 -2.270000e+00  0.000000e+00
   endloop
 endfacet
 facet normal  0.000000e+00 -1.000000e+00  0.000000e+00
   outer loop
     vertex  3.985000e+00 -3.110000e+00  2.800000e-01
     vertex  4.265000e+00 -3.110000e+00  2.800000e-01
     vertex  3.985000e+00 -3.110000e+00  1.650000e+00
   endloop
 endfacet
 facet normal  0.000000e+00 -1.000000e+00  0.000000e+00
   outer loop
     vertex  3.175000e+00 -3.110000e+00  1.930000e+00
     vertex  3.175000e+00 -3.110000e+00  1.650000e+00
     vertex  3.985000e+00 -3.110000e+00  1.650000e+00
   endloop
 endfacet
 facet normal  0.000000e+00 -1.000000e+00  0.000000e+00
   outer loop
     vertex  3.985000e+00 -3.110000e+00  1.650000e+00
     vertex  4.265000e+00 -3.110000e+00  2.800000e-01
     vertex  4.265000e+00 -3.110000e+00  1.790000e+00
   endloop
 endfacet
 facet normal  0.000000e+00 -1.000000e+00  0.000000e+00
   outer loop
     vertex  3.175000e+00 -3.110000e+00  1.930000e+00
     vertex  3.985000e+00 -3.110000e+00  1.650000e+00
     vertex  4.125000e+00 -3.110000e+00  1.930000e+00
   endloop
 endfacet
 facet normal  0.000000e+00 -1.000000e+00  0.000000e+00
   outer loop
     vertex  3.985000e+00 -3.110000e+00  1.650000e+00
     vertex  4.265000e+00 -3.110000e+00  1.790000e+00
     vertex  4.125000e+00 -3.110000e+00  1.930000e+00
   endloop
 endfacet
 facet normal  0.000000e+00 -1.000000e+00  0.000000e+00
   outer loop
     vertex  4.125000e+00 -3.110000e+00  1.930000e+00
     vertex  4.265000e+00 -3.110000e+00  1.790000e+00
     vertex  4.161235e+00 -3.110000e+00  1.925230e+00
   endloop
 endfacet
 facet normal  0.000000e+00 -1.000000e+00  0.000000e+00
   outer loop
     vertex  4.265000e+00 -3.110000e+00  1.790000e+00
     vertex  4.260230e+00 -3.110000e+00  1.826235e+00
     vertex  4.246244e+00 -3.110000e+00  1.860000e+00
   endloop
 endfacet
 facet normal  0.000000e+00 -1.000000e+00  0.000000e+00
   outer loop
     vertex  4.161235e+00 -3.110000e+00  1.925230e+00
     vertex  4.265000e+00 -3.110000e+00  1.790000e+00
     vertex  4.195000e+00 -3.110000e+00  1.911244e+00
   endloop
 endfacet
 facet normal  0.000000e+00 -1.000000e+00  0.000000e+00
   outer loop
     vertex  4.265000e+00 -3.110000e+00  1.790000e+00
     vertex  4.246244e+00 -3.110000e+00  1.860000e+00
     vertex  4.223995e+00 -3.110000e+00  1.888995e+00
   endloop
 endfacet
 facet normal  0.000000e+00 -1.000000e+00  0.000000e+00
   outer loop
     vertex  4.195000e+00 -3.110000e+00  1.911244e+00
     vertex  4.265000e+00 -3.110000e+00  1.790000e+00
     vertex  4.223995e+00 -3.110000e+00  1.888995e+00
   endloop
 endfacet
 facet normal  0.000000e+00  1.000000e+00  0.000000e+00
   outer loop
     vertex  3.985000e+00 -2.270000e+00 -3.500000e+00
     vertex  3.985000e+00 -2.270000e+00  0.000000e+00
     vertex  4.265000e+00 -2.270000e+00  0.000000e+00
   endloop
 endfacet
 facet normal -0.000000e+00  1.000000e+00  0.000000e+00
   outer loop
     vertex  3.985000e+00 -2.270000e+00 -3.500000e+00
     vertex  4.265000e+00 -2.270000e+00  0.000000e+00
     vertex  4.265000e+00 -2.270000e+00 -3.500000e+00
   endloop
 endfacet
 facet normal  0.000000e+00 -7.071068e-01 -7.071068e-01
   outer loop
     vertex  3.985000e+00 -3.110000e+00  2.800000e-01
     vertex  3.985000e+00 -2.830000e+00  0.000000e+00
     vertex  4.265000e+00 -2.830000e+00  0.000000e+00
   endloop
 endfacet
 facet normal  0.000000e+00 -7.071068e-01 -7.071068e-01
   outer loop
     vertex  3.985000e+00 -3.110000e+00  2.800000e-01
     vertex  4.265000e+00 -2.830000e+00  0.000000e+00
     vertex  4.265000e+00 -3.110000e+00  2.800000e-01
   endloop
 endfacet
 facet normal  0.000000e+00  0.000000e+00 -1.000000e+00
   outer loop
     vertex  3.985000e+00 -2.830000e+00 -3.500000e+00
     vertex  3.985000e+00 -2.270000e+00 -3.500000e+00
     vertex  4.265000e+00 -2.270000e+00 -3.500000e+00
   endloop
 endfacet
 facet normal  0.000000e+00  0.000000e+00 -1.000000e+00
   outer loop
     vertex  3.985000e+00 -2.830000e+00 -3.500000e+00
     vertex  4.265000e+00 -2.270000e+00 -3.500000e+00
     vertex  4.265000e+00 -2.830000e+00 -3.500000e+00
   endloop
 endfacet
 facet normal  0.000000e+00 -1.000000e+00  0.000000e+00
   outer loop
     vertex  3.985000e+00 -2.830000e+00  0.000000e+00
     vertex  3.985000e+00 -2.830000e+00 -3.500000e+00
     vertex  4.265000e+00 -2.830000e+00 -3.500000e+00
   endloop
 endfacet
 facet normal  0.000000e+00 -1.000000e+00  0.000000e+00
   outer loop
     vertex  3.985000e+00 -2.830000e+00  0.000000e+00
     vertex  4.265000e+00 -2.830000e+00 -3.500000e+00
     vertex  4.265000e+00 -2.830000e+00  0.000000e+00
   endloop
 endfacet
 facet normal -2.337312e-16  0.000000e+00  1.000000e+00
   outer loop
     vertex  3.175000e+00 -3.110000e+00  1.930000e+00
     vertex  4.125000e+00 -3.110000e+00  1.930000e+00
     vertex  3.175000e+00 -1.990000e+00  1.930000e+00
   endloop
 endfacet
 facet normal -2.337312e-16  0.000000e+00  1.000000e+00
   outer loop
     vertex  4.125000e+00 -3.110000e+00  1.930000e+00
     vertex  4.125000e+00 -1.990000e+00  1.930000e+00
     vertex  3.175000e+00 -1.990000e+00  1.930000e+00
   endloop
 endfacet
 facet normal -1.000000e+00  0.000000e+00  0.000000e+00
   outer loop
     vertex  3.175000e+00 -1.990000e+00  1.650000e+00
     vertex  3.175000e+00 -3.110000e+00  1.650000e+00
     vertex  3.175000e+00 -3.110000e+00  1.930000e+00
   endloop
 endfacet
 facet normal -1.000000e+00 -0.000000e+00 -0.000000e+00
   outer loop
     vertex  3.175000e+00 -1.990000e+00  1.930000e+00
     vertex  3.175000e+00 -1.990000e+00  1.650000e+00
     vertex  3.175000e+00 -3.110000e+00  1.930000e+00
   endloop
 endfacet
 facet normal  0.000000e+00  0.000000e+00 -1.000000e+00
   outer loop
     vertex  3.175000e+00 -3.110000e+00  1.650000e+00
     vertex  3.175000e+00 -1.990000e+00  1.650000e+00
     vertex  3.985000e+00 -1.990000e+00  1.650000e+00
   endloop
 endfacet
 facet normal  0.000000e+00  0.000000e+00 -1.000000e+00
   outer loop
     vertex  3.985000e+00 -3.110000e+00  1.650000e+00
     vertex  3.175000e+00 -3.110000e+00  1.650000e+00
     vertex  3.985000e+00 -1.990000e+00  1.650000e+00
   endloop
 endfacet
 facet normal -1.000000e+00 -0.000000e+00  0.000000e+00
   outer loop
     vertex  3.985000e+00 -1.990000e+00  2.800000e-01
     vertex  3.985000e+00 -2.270000e+00  0.000000e+00
     vertex  3.985000e+00 -2.830000e+00  0.000000e+00
   endloop
 endfacet
 facet normal -1.000000e+00 -0.000000e+00 -0.000000e+00
   outer loop
     vertex  3.985000e+00 -2.270000e+00  0.000000e+00
     vertex  3.985000e+00 -2.270000e+00 -3.500000e+00
     vertex  3.985000e+00 -2.830000e+00  0.000000e+00
   endloop
 endfacet
 facet normal -1.000000e+00  0.000000e+00  0.000000e+00
   outer loop
     vertex  3.985000e+00 -2.270000e+00 -3.500000e+00
     vertex  3.985000e+00 -2.830000e+00 -3.500000e+00
     vertex  3.985000e+00 -2.830000e+00  0.000000e+00
   endloop
 endfacet
 facet normal -1.000000e+00 -0.000000e+00  0.000000e+00
   outer loop
     vertex  3.985000e+00 -1.990000e+00  2.800000e-01
     vertex  3.985000e+00 -2.830000e+00  0.000000e+00
     vertex  3.985000e+00 -3.110000e+00  2.800000e-01
   endloop
 endfacet
 facet normal -1.000000e+00 -0.000000e+00 -0.000000e+00
   outer loop
     vertex  3.985000e+00 -1.990000e+00  1.650000e+00
     vertex  3.985000e+00 -1.990000e+00  2.800000e-01
     vertex  3.985000e+00 -3.110000e+00  1.650000e+00
   endloop
 endfacet
 facet normal -1.000000e+00  0.000000e+00  0.000000e+00
   outer loop
     vertex  3.985000e+00 -1.990000e+00  2.800000e-01
     vertex  3.985000e+00 -3.110000e+00  2.800000e-01
     vertex  3.985000e+00 -3.110000e+00  1.650000e+00
   endloop
 endfacet
 facet normal -1.000000e+00  0.000000e+00  0.000000e+00
   outer loop
     vertex -4.265000e+00 -3.110000e+00  2.800000e-01
     vertex -4.265000e+00 -3.110000e+00  1.790000e+00
     vertex -4.265000e+00 -1.990000e+00  1.790000e+00
   endloop
 endfacet
 facet normal -1.000000e+00  0.000000e+00  0.000000e+00
   outer loop
     vertex -4.265000e+00 -3.110000e+00  2.800000e-01
     vertex -4.265000e+00 -1.990000e+00  1.790000e+00
     vertex -4.265000e+00 -1.990000e+00  2.800000e-01
   endloop
 endfacet
 facet normal -1.000000e+00  0.000000e+00 -0.000000e+00
   outer loop
     vertex -4.265000e+00 -3.110000e+00  2.800000e-01
     vertex -4.265000e+00 -1.990000e+00  2.800000e-01
     vertex -4.265000e+00 -2.270000e+00  0.000000e+00
   endloop
 endfacet
 facet normal -1.000000e+00  0.000000e+00  0.000000e+00
   outer loop
     vertex -4.265000e+00 -2.830000e+00  0.000000e+00
     vertex -4.265000e+00 -3.110000e+00  2.800000e-01
     vertex -4.265000e+00 -2.270000e+00  0.000000e+00
   endloop
 endfacet
 facet normal -1.000000e+00  0.000000e+00  0.000000e+00
   outer loop
     vertex -4.265000e+00 -2.830000e+00 -3.500000e+00
     vertex -4.265000e+00 -2.270000e+00  0.000000e+00
     vertex -4.265000e+00 -2.270000e+00 -3.500000e+00
   endloop
 endfacet
 facet normal -1.000000e+00  0.000000e+00  0.000000e+00
   outer loop
     vertex -4.265000e+00 -2.830000e+00 -3.500000e+00
     vertex -4.265000e+00 -2.830000e+00  0.000000e+00
     vertex -4.265000e+00 -2.270000e+00  0.000000e+00
   endloop
 endfacet
 facet normal  0.000000e+00 -1.000000e+00  0.000000e+00
   outer loop
     vertex -4.265000e+00 -3.110000e+00  1.790000e+00
     vertex -4.265000e+00 -3.110000e+00  2.800000e-01
     vertex -3.985000e+00 -3.110000e+00  1.650000e+00
   endloop
 endfacet
 facet normal  0.000000e+00 -1.000000e+00  0.000000e+00
   outer loop
     vertex -4.265000e+00 -3.110000e+00  2.800000e-01
     vertex -3.985000e+00 -3.110000e+00  2.800000e-01
     vertex -3.985000e+00 -3.110000e+00  1.650000e+00
   endloop
 endfacet
 facet normal  0.000000e+00 -1.000000e+00 -0.000000e+00
   outer loop
     vertex -4.246244e+00 -3.110000e+00  1.860000e+00
     vertex -4.260230e+00 -3.110000e+00  1.826235e+00
     vertex -4.195000e+00 -3.110000e+00  1.911244e+00
   endloop
 endfacet
 facet normal  0.000000e+00 -1.000000e+00 -0.000000e+00
   outer loop
     vertex -4.223995e+00 -3.110000e+00  1.888995e+00
     vertex -4.246244e+00 -3.110000e+00  1.860000e+00
     vertex -4.195000e+00 -3.110000e+00  1.911244e+00
   endloop
 endfacet
 facet normal  0.000000e+00 -1.000000e+00 -0.000000e+00
   outer loop
     vertex -4.260230e+00 -3.110000e+00  1.826235e+00
     vertex -4.265000e+00 -3.110000e+00  1.790000e+00
     vertex -4.125000e+00 -3.110000e+00  1.930000e+00
   endloop
 endfacet
 facet normal  0.000000e+00 -1.000000e+00 -0.000000e+00
   outer loop
     vertex -4.161235e+00 -3.110000e+00  1.925230e+00
     vertex -4.195000e+00 -3.110000e+00  1.911244e+00
     vertex -4.125000e+00 -3.110000e+00  1.930000e+00
   endloop
 endfacet
 facet normal  0.000000e+00 -1.000000e+00  0.000000e+00
   outer loop
     vertex -4.265000e+00 -3.110000e+00  1.790000e+00
     vertex -3.985000e+00 -3.110000e+00  1.650000e+00
     vertex -4.125000e+00 -3.110000e+00  1.930000e+00
   endloop
 endfacet
 facet normal  0.000000e+00 -1.000000e+00 -0.000000e+00
   outer loop
     vertex -4.195000e+00 -3.110000e+00  1.911244e+00
     vertex -4.260230e+00 -3.110000e+00  1.826235e+00
     vertex -4.125000e+00 -3.110000e+00  1.930000e+00
   endloop
 endfacet
 facet normal  0.000000e+00 -1.000000e+00  0.000000e+00
   outer loop
     vertex -3.985000e+00 -3.110000e+00  1.650000e+00
     vertex -3.175000e+00 -3.110000e+00  1.650000e+00
     vertex -3.175000e+00 -3.110000e+00  1.930000e+00
   endloop
 endfacet
 facet normal  0.000000e+00 -1.000000e+00  0.000000e+00
   outer loop
     vertex -4.125000e+00 -3.110000e+00  1.930000e+00
     vertex -3.985000e+00 -3.110000e+00  1.650000e+00
     vertex -3.175000e+00 -3.110000e+00  1.930000e+00
   endloop
 endfacet
 facet normal -9.914449e-01  0.000000e+00  1.305262e-01
   outer loop
     vertex -4.260230e+00 -1.990000e+00  1.826235e+00
     vertex -4.265000e+00 -1.990000e+00  1.790000e+00
     vertex -4.260230e+00 -3.110000e+00  1.826235e+00
   endloop
 endfacet
 facet normal -9.914449e-01  0.000000e+00  1.305262e-01
   outer loop
     vertex -4.265000e+00 -1.990000e+00  1.790000e+00
     vertex -4.265000e+00 -3.110000e+00  1.790000e+00
     vertex -4.260230e+00 -3.110000e+00  1.826235e+00
   endloop
 endfacet
 facet normal -9.238795e-01  0.000000e+00  3.826834e-01
   outer loop
     vertex -4.246244e+00 -1.990000e+00  1.860000e+00
     vertex -4.260230e+00 -1.990000e+00  1.826235e+00
     vertex -4.246244e+00 -3.110000e+00  1.860000e+00
   endloop
 endfacet
 facet normal -7.933533e-01  0.000000e+00  6.087614e-01
   outer loop
     vertex -4.223995e+00 -1.990000e+00  1.888995e+00
     vertex -4.246244e+00 -1.990000e+00  1.860000e+00
     vertex -4.246244e+00 -3.110000e+00  1.860000e+00
   endloop
 endfacet
 facet normal -9.238795e-01  0.000000e+00  3.826834e-01
   outer loop
     vertex -4.260230e+00 -1.990000e+00  1.826235e+00
     vertex -4.260230e+00 -3.110000e+00  1.826235e+00
     vertex -4.246244e+00 -3.110000e+00  1.860000e+00
   endloop
 endfacet
 facet normal -7.933533e-01  0.000000e+00  6.087614e-01
   outer loop
     vertex -4.223995e+00 -1.990000e+00  1.888995e+00
     vertex -4.246244e+00 -3.110000e+00  1.860000e+00
     vertex -4.223995e+00 -3.110000e+00  1.888995e+00
   endloop
 endfacet
 facet normal -6.087614e-01  0.000000e+00  7.933533e-01
   outer loop
     vertex -4.195000e+00 -1.990000e+00  1.911244e+00
     vertex -4.223995e+00 -1.990000e+00  1.888995e+00
     vertex -4.195000e+00 -3.110000e+00  1.911244e+00
   endloop
 endfacet
 facet normal -6.087614e-01  0.000000e+00  7.933533e-01
   outer loop
     vertex -4.223995e+00 -1.990000e+00  1.888995e+00
     vertex -4.223995e+00 -3.110000e+00  1.888995e+00
     vertex -4.195000e+00 -3.110000e+00  1.911244e+00
   endloop
 endfacet
 facet normal -3.826834e-01  0.000000e+00  9.238795e-01
   outer loop
     vertex -4.161235e+00 -1.990000e+00  1.925230e+00
     vertex -4.195000e+00 -1.990000e+00  1.911244e+00
     vertex -4.161235e+00 -3.110000e+00  1.925230e+00
   endloop
 endfacet
 facet normal -3.826834e-01  0.000000e+00  9.238795e-01
   outer loop
     vertex -4.195000e+00 -1.990000e+00  1.911244e+00
     vertex -4.195000e+00 -3.110000e+00  1.911244e+00
     vertex -4.161235e+00 -3.110000e+00  1.925230e+00
   endloop
 endfacet
 facet normal -1.305262e-01  0.000000e+00  9.914449e-01
   outer loop
     vertex -4.125000e+00 -1.990000e+00  1.930000e+00
     vertex -4.161235e+00 -1.990000e+00  1.925230e+00
     vertex -4.125000e+00 -3.110000e+00  1.930000e+00
   endloop
 endfacet
 facet normal -1.305262e-01  0.000000e+00  9.914449e-01
   outer loop
     vertex -4.161235e+00 -1.990000e+00  1.925230e+00
     vertex -4.161235e+00 -3.110000e+00  1.925230e+00
     vertex -4.125000e+00 -3.110000e+00  1.930000e+00
   endloop
 endfacet
 facet normal -0.000000e+00 -7.071068e-01 -7.071068e-01
   outer loop
     vertex -3.985000e+00 -2.830000e+00  0.000000e+00
     vertex -3.985000e+00 -3.110000e+00  2.800000e-01
     vertex -4.265000e+00 -3.110000e+00  2.800000e-01
   endloop
 endfacet
 facet normal  0.000000e+00 -7.071068e-01 -7.071068e-01
   outer loop
     vertex -3.985000e+00 -2.830000e+00  0.000000e+00
     vertex -4.265000e+00 -3.110000e+00  2.800000e-01
     vertex -4.265000e+00 -2.830000e+00  0.000000e+00
   endloop
 endfacet
 facet normal  0.000000e+00  1.000000e+00  0.000000e+00
   outer loop
     vertex -4.195000e+00 -1.990000e+00  1.911244e+00
     vertex -4.161235e+00 -1.990000e+00  1.925230e+00
     vertex -4.125000e+00 -1.990000e+00  1.930000e+00
   endloop
 endfacet
 facet normal -0.000000e+00  1.000000e+00  0.000000e+00
   outer loop
     vertex -4.260230e+00 -1.990000e+00  1.826235e+00
     vertex -4.246244e+00 -1.990000e+00  1.860000e+00
     vertex -4.265000e+00 -1.990000e+00  1.790000e+00
   endloop
 endfacet
 facet normal -0.000000e+00  1.000000e+00  0.000000e+00
   outer loop
     vertex -4.246244e+00 -1.990000e+00  1.860000e+00
     vertex -4.223995e+00 -1.990000e+00  1.888995e+00
     vertex -4.265000e+00 -1.990000e+00  1.790000e+00
   endloop
 endfacet
 facet normal -0.000000e+00  1.000000e+00  0.000000e+00
   outer loop
     vertex -4.223995e+00 -1.990000e+00  1.888995e+00
     vertex -4.195000e+00 -1.990000e+00  1.911244e+00
     vertex -4.265000e+00 -1.990000e+00  1.790000e+00
   endloop
 endfacet
 facet normal -0.000000e+00  1.000000e+00  0.000000e+00
   outer loop
     vertex -4.195000e+00 -1.990000e+00  1.911244e+00
     vertex -4.125000e+00 -1.990000e+00  1.930000e+00
     vertex -4.265000e+00 -1.990000e+00  1.790000e+00
   endloop
 endfacet
 facet normal -0.000000e+00  1.000000e+00  0.000000e+00
   outer loop
     vertex -4.265000e+00 -1.990000e+00  1.790000e+00
     vertex -4.125000e+00 -1.990000e+00  1.930000e+00
     vertex -3.985000e+00 -1.990000e+00  1.650000e+00
   endloop
 endfacet
 facet normal -0.000000e+00  1.000000e+00 -0.000000e+00
   outer loop
     vertex -3.985000e+00 -1.990000e+00  1.650000e+00
     vertex -4.125000e+00 -1.990000e+00  1.930000e+00
     vertex -3.175000e+00 -1.990000e+00  1.930000e+00
   endloop
 endfacet
 facet normal -0.000000e+00  1.000000e+00  0.000000e+00
   outer loop
     vertex -3.985000e+00 -1.990000e+00  1.650000e+00
     vertex -3.175000e+00 -1.990000e+00  1.930000e+00
     vertex -3.175000e+00 -1.990000e+00  1.650000e+00
   endloop
 endfacet
 facet normal  0.000000e+00  1.000000e+00  0.000000e+00
   outer loop
     vertex -4.265000e+00 -1.990000e+00  1.790000e+00
     vertex -3.985000e+00 -1.990000e+00  1.650000e+00
     vertex -4.265000e+00 -1.990000e+00  2.800000e-01
   endloop
 endfacet
 facet normal -0.000000e+00  1.000000e+00  0.000000e+00
   outer loop
     vertex -4.265000e+00 -1.990000e+00  2.800000e-01
     vertex -3.985000e+00 -1.990000e+00  1.650000e+00
     vertex -3.985000e+00 -1.990000e+00  2.800000e-01
   endloop
 endfacet
 facet normal  0.000000e+00 -1.000000e+00  0.000000e+00
   outer loop
     vertex -3.985000e+00 -2.830000e+00 -3.500000e+00
     vertex -3.985000e+00 -2.830000e+00  0.000000e+00
     vertex -4.265000e+00 -2.830000e+00  0.000000e+00
   endloop
 endfacet
 facet normal -0.000000e+00 -1.000000e+00 -0.000000e+00
   outer loop
     vertex -3.985000e+00 -2.830000e+00 -3.500000e+00
     vertex -4.265000e+00 -2.830000e+00  0.000000e+00
     vertex -4.265000e+00 -2.830000e+00 -3.500000e+00
   endloop
 endfacet
 facet normal  0.000000e+00  7.071068e-01 -7.071068e-01
   outer loop
     vertex -3.985000e+00 -1.990000e+00  2.800000e-01
     vertex -3.985000e+00 -2.270000e+00  0.000000e+00
     vertex -4.265000e+00 -2.270000e+00  0.000000e+00
   endloop
 endfacet
 facet normal  0.000000e+00  7.071068e-01 -7.071068e-01
   outer loop
     vertex -3.985000e+00 -1.990000e+00  2.800000e-01
     vertex -4.265000e+00 -2.270000e+00  0.000000e+00
     vertex -4.265000e+00 -1.990000e+00  2.800000e-01
   endloop
 endfacet
 facet normal -0.000000e+00 -0.000000e+00 -1.000000e+00
   outer loop
     vertex -3.985000e+00 -2.270000e+00 -3.500000e+00
     vertex -3.985000e+00 -2.830000e+00 -3.500000e+00
     vertex -4.265000e+00 -2.830000e+00 -3.500000e+00
   endloop
 endfacet
 facet normal -0.000000e+00  0.000000e+00 -1.000000e+00
   outer loop
     vertex -3.985000e+00 -2.270000e+00 -3.500000e+00
     vertex -4.265000e+00 -2.830000e+00 -3.500000e+00
     vertex -4.265000e+00 -2.270000e+00 -3.500000e+00
   endloop
 endfacet
 facet normal  0.000000e+00  1.000000e+00  0.000000e+00
   outer loop
     vertex -3.985000e+00 -2.270000e+00  0.000000e+00
     vertex -3.985000e+00 -2.270000e+00 -3.500000e+00
     vertex -4.265000e+00 -2.270000e+00 -3.500000e+00
   endloop
 endfacet
 facet normal  0.000000e+00  1.000000e+00 -0.000000e+00
   outer loop
     vertex -3.985000e+00 -2.270000e+00  0.000000e+00
     vertex -4.265000e+00 -2.270000e+00 -3.500000e+00
     vertex -4.265000e+00 -2.270000e+00  0.000000e+00
   endloop
 endfacet
 facet normal  2.337312e-16  0.000000e+00  1.000000e+00
   outer loop
     vertex -4.125000e+00 -3.110000e+00  1.930000e+00
     vertex -3.175000e+00 -3.110000e+00  1.930000e+00
     vertex -4.125000e+00 -1.990000e+00  1.930000e+00
   endloop
 endfacet
 facet normal  2.337312e-16 -0.000000e+00  1.000000e+00
   outer loop
     vertex -3.175000e+00 -3.110000e+00  1.930000e+00
     vertex -3.175000e+00 -1.990000e+00  1.930000e+00
     vertex -4.125000e+00 -1.990000e+00  1.930000e+00
   endloop
 endfacet
 facet normal  1.000000e+00 -0.000000e+00  0.000000e+00
   outer loop
     vertex -3.175000e+00 -3.110000e+00  1.930000e+00
     vertex -3.175000e+00 -3.110000e+00  1.650000e+00
     vertex -3.175000e+00 -1.990000e+00  1.650000e+00
   endloop
 endfacet
 facet normal  1.000000e+00 -0.000000e+00  0.000000e+00
   outer loop
     vertex -3.175000e+00 -3.110000e+00  1.930000e+00
     vertex -3.175000e+00 -1.990000e+00  1.650000e+00
     vertex -3.175000e+00 -1.990000e+00  1.930000e+00
   endloop
 endfacet
 facet normal  0.000000e+00  0.000000e+00 -1.000000e+00
   outer loop
     vertex -3.985000e+00 -3.110000e+00  1.650000e+00
     vertex -3.985000e+00 -1.990000e+00  1.650000e+00
     vertex -3.175000e+00 -1.990000e+00  1.650000e+00
   endloop
 endfacet
 facet normal  0.000000e+00  0.000000e+00 -1.000000e+00
   outer loop
     vertex -3.175000e+00 -3.110000e+00  1.650000e+00
     vertex -3.985000e+00 -3.110000e+00  1.650000e+00
     vertex -3.175000e+00 -1.990000e+00  1.650000e+00
   endloop
 endfacet
 facet normal  1.000000e+00  0.000000e+00  0.000000e+00
   outer loop
     vertex -3.985000e+00 -1.990000e+00  1.650000e+00
     vertex -3.985000e+00 -3.110000e+00  1.650000e+00
     vertex -3.985000e+00 -3.110000e+00  2.800000e-01
   endloop
 endfacet
 facet normal  1.000000e+00  0.000000e+00 -0.000000e+00
   outer loop
     vertex -3.985000e+00 -1.990000e+00  2.800000e-01
     vertex -3.985000e+00 -1.990000e+00  1.650000e+00
     vertex -3.985000e+00 -3.110000e+00  2.800000e-01
   endloop
 endfacet
 facet normal  1.000000e+00  0.000000e+00 -0.000000e+00
   outer loop
     vertex -3.985000e+00 -2.270000e+00  0.000000e+00
     vertex -3.985000e+00 -1.990000e+00  2.800000e-01
     vertex -3.985000e+00 -3.110000e+00  2.800000e-01
   endloop
 endfacet
 facet normal  1.000000e+00  0.000000e+00 -0.000000e+00
   outer loop
     vertex -3.985000e+00 -2.830000e+00  0.000000e+00
     vertex -3.985000e+00 -2.270000e+00  0.000000e+00
     vertex -3.985000e+00 -3.110000e+00  2.800000e-01
   endloop
 endfacet
 facet normal  1.000000e+00  0.000000e+00 -0.000000e+00
   outer loop
     vertex -3.985000e+00 -2.270000e+00 -3.500000e+00
     vertex -3.985000e+00 -2.270000e+00  0.000000e+00
     vertex -3.985000e+00 -2.830000e+00 -3.500000e+00
   endloop
 endfacet
 facet normal  1.000000e+00  0.000000e+00  0.000000e+00
   outer loop
     vertex -3.985000e+00 -2.270000e+00  0.000000e+00
     vertex -3.985000e+00 -2.830000e+00  0.000000e+00
     vertex -3.985000e+00 -2.830000e+00 -3.500000e+00
   endloop
 endfacet
endsolid
