G04 #@! TF.GenerationSoftware,KiCad,Pcbnew,5.0.0+dfsg1-2*
G04 #@! TF.CreationDate,2019-05-26T04:41:42+02:00*
G04 #@! TF.ProjectId,ceiling-light-controller,6365696C696E672D6C696768742D636F,rev?*
G04 #@! TF.SameCoordinates,Original*
G04 #@! TF.FileFunction,Copper,L2,Bot,Signal*
G04 #@! TF.FilePolarity,Positive*
%FSLAX46Y46*%
G04 Gerber Fmt 4.6, Leading zero omitted, Abs format (unit mm)*
G04 Created by KiCad (PCBNEW 5.0.0+dfsg1-2) date Sun May 26 04:41:42 2019*
%MOMM*%
%LPD*%
G01*
G04 APERTURE LIST*
G04 #@! TA.AperFunction,ComponentPad*
%ADD10O,1.600000X1.600000*%
G04 #@! TD*
G04 #@! TA.AperFunction,ComponentPad*
%ADD11R,1.600000X1.600000*%
G04 #@! TD*
G04 #@! TA.AperFunction,ComponentPad*
%ADD12R,1.160000X1.160000*%
G04 #@! TD*
G04 #@! TA.AperFunction,ComponentPad*
%ADD13C,1.160000*%
G04 #@! TD*
G04 #@! TA.AperFunction,ComponentPad*
%ADD14C,1.600000*%
G04 #@! TD*
G04 #@! TA.AperFunction,ComponentPad*
%ADD15R,1.905000X2.000000*%
G04 #@! TD*
G04 #@! TA.AperFunction,ComponentPad*
%ADD16O,1.905000X2.000000*%
G04 #@! TD*
G04 #@! TA.AperFunction,ComponentPad*
%ADD17C,2.524000*%
G04 #@! TD*
G04 #@! TA.AperFunction,ComponentPad*
%ADD18R,1.200000X1.200000*%
G04 #@! TD*
G04 #@! TA.AperFunction,ComponentPad*
%ADD19C,1.200000*%
G04 #@! TD*
G04 #@! TA.AperFunction,ComponentPad*
%ADD20C,3.000000*%
G04 #@! TD*
G04 #@! TA.AperFunction,Conductor*
%ADD21C,0.100000*%
G04 #@! TD*
G04 #@! TA.AperFunction,ComponentPad*
%ADD22C,2.200000*%
G04 #@! TD*
G04 #@! TA.AperFunction,ComponentPad*
%ADD23C,1.800000*%
G04 #@! TD*
G04 #@! TA.AperFunction,Conductor*
%ADD24C,0.254000*%
G04 #@! TD*
G04 APERTURE END LIST*
D10*
G04 #@! TO.P,U3,6*
G04 #@! TO.N,Net-(R3-Pad2)*
X139700000Y-98425000D03*
G04 #@! TO.P,U3,3*
G04 #@! TO.N,Net-(U3-Pad3)*
X147320000Y-93345000D03*
G04 #@! TO.P,U3,5*
G04 #@! TO.N,Net-(U3-Pad5)*
X139700000Y-95885000D03*
G04 #@! TO.P,U3,2*
G04 #@! TO.N,GND*
X147320000Y-95885000D03*
G04 #@! TO.P,U3,4*
G04 #@! TO.N,Net-(Q1-Pad3)*
X139700000Y-93345000D03*
D11*
G04 #@! TO.P,U3,1*
G04 #@! TO.N,Net-(R5-Pad1)*
X147320000Y-98425000D03*
G04 #@! TD*
D12*
G04 #@! TO.P,BR1,1*
G04 #@! TO.N,Net-(BR1-Pad1)*
X148905000Y-110500000D03*
D13*
G04 #@! TO.P,BR1,2*
G04 #@! TO.N,Net-(BR1-Pad2)*
X148905000Y-105400000D03*
G04 #@! TO.P,BR1,3*
G04 #@! TO.N,Net-(BR1-Pad3)*
X140655000Y-105400000D03*
G04 #@! TO.P,BR1,4*
G04 #@! TO.N,Net-(BR1-Pad4)*
X140655000Y-110500000D03*
G04 #@! TD*
D14*
G04 #@! TO.P,R7,1*
G04 #@! TO.N,Net-(R7-Pad1)*
X121920000Y-78740000D03*
G04 #@! TO.P,R7,2*
G04 #@! TO.N,Net-(R6-Pad1)*
X121920000Y-71140000D03*
G04 #@! TD*
G04 #@! TO.P,R6,1*
G04 #@! TO.N,Net-(R6-Pad1)*
X143510000Y-78105000D03*
D10*
G04 #@! TO.P,R6,2*
G04 #@! TO.N,GND*
X156210000Y-78105000D03*
G04 #@! TD*
D15*
G04 #@! TO.P,Q1,1*
G04 #@! TO.N,Net-(C5-Pad2)*
X126365000Y-127000000D03*
D16*
G04 #@! TO.P,Q1,2*
G04 #@! TO.N,Net-(J1-Pad1)*
X128905000Y-127000000D03*
G04 #@! TO.P,Q1,3*
G04 #@! TO.N,Net-(Q1-Pad3)*
X131445000Y-127000000D03*
D17*
G04 #@! TO.P,Q1,4*
G04 #@! TO.N,N/C*
X119780000Y-120500000D03*
G04 #@! TO.P,Q1,5*
X138030000Y-120500000D03*
G04 #@! TD*
D18*
G04 #@! TO.P,C1,1*
G04 #@! TO.N,Net-(C1-Pad1)*
X160020000Y-95885000D03*
D19*
G04 #@! TO.P,C1,2*
G04 #@! TO.N,GND*
X160020000Y-94385000D03*
G04 #@! TD*
D14*
G04 #@! TO.P,C5,1*
G04 #@! TO.N,Net-(C5-Pad1)*
X130175000Y-108585000D03*
G04 #@! TO.P,C5,2*
G04 #@! TO.N,Net-(C5-Pad2)*
X130175000Y-113585000D03*
G04 #@! TD*
G04 #@! TO.P,R1,1*
G04 #@! TO.N,Net-(R1-Pad1)*
X154305000Y-104775000D03*
D10*
G04 #@! TO.P,R1,2*
G04 #@! TO.N,Net-(BR1-Pad1)*
X154305000Y-117475000D03*
G04 #@! TD*
D14*
G04 #@! TO.P,R5,1*
G04 #@! TO.N,Net-(R5-Pad1)*
X143510000Y-82550000D03*
D10*
G04 #@! TO.P,R5,2*
G04 #@! TO.N,Net-(R5-Pad2)*
X156210000Y-82550000D03*
G04 #@! TD*
G04 #@! TO.P,R4,2*
G04 #@! TO.N,Net-(C5-Pad1)*
X130175000Y-105410000D03*
D14*
G04 #@! TO.P,R4,1*
G04 #@! TO.N,Net-(J1-Pad1)*
X130175000Y-92710000D03*
G04 #@! TD*
G04 #@! TO.P,R3,1*
G04 #@! TO.N,Net-(J1-Pad1)*
X135255000Y-105410000D03*
D10*
G04 #@! TO.P,R3,2*
G04 #@! TO.N,Net-(R3-Pad2)*
X135255000Y-92710000D03*
G04 #@! TD*
G04 #@! TO.P,R2,2*
G04 #@! TO.N,Net-(C1-Pad1)*
X143510000Y-86995000D03*
D14*
G04 #@! TO.P,R2,1*
G04 #@! TO.N,Net-(D1-Pad1)*
X156210000Y-86995000D03*
G04 #@! TD*
D20*
G04 #@! TO.P,J2,1*
G04 #@! TO.N,Net-(BR1-Pad4)*
X114517898Y-111542102D03*
D21*
G04 #@! TD*
G04 #@! TO.N,Net-(BR1-Pad4)*
G04 #@! TO.C,J2*
G36*
X114517898Y-113663422D02*
X112396578Y-111542102D01*
X114517898Y-109420782D01*
X116639218Y-111542102D01*
X114517898Y-113663422D01*
X114517898Y-113663422D01*
G37*
D20*
G04 #@! TO.P,J2,2*
G04 #@! TO.N,Net-(C5-Pad2)*
X118110000Y-107950000D03*
G04 #@! TD*
G04 #@! TO.P,J1,1*
G04 #@! TO.N,Net-(J1-Pad1)*
X121285000Y-95885000D03*
D21*
G04 #@! TD*
G04 #@! TO.N,Net-(J1-Pad1)*
G04 #@! TO.C,J1*
G36*
X123244844Y-96696794D02*
X120473206Y-97844844D01*
X119325156Y-95073206D01*
X122096794Y-93925156D01*
X123244844Y-96696794D01*
X123244844Y-96696794D01*
G37*
D20*
G04 #@! TO.P,J1,2*
G04 #@! TO.N,Net-(BR1-Pad3)*
X119457687Y-91473475D03*
G04 #@! TO.P,J1,3*
G04 #@! TO.N,Net-(BR1-Pad4)*
X117396936Y-86498384D03*
G04 #@! TD*
D10*
G04 #@! TO.P,U1,4*
G04 #@! TO.N,Net-(C1-Pad1)*
X152400000Y-92710000D03*
G04 #@! TO.P,U1,2*
G04 #@! TO.N,Net-(BR1-Pad2)*
X154940000Y-100330000D03*
G04 #@! TO.P,U1,3*
G04 #@! TO.N,GND*
X154940000Y-92710000D03*
D11*
G04 #@! TO.P,U1,1*
G04 #@! TO.N,Net-(R1-Pad1)*
X152400000Y-100330000D03*
G04 #@! TD*
D22*
G04 #@! TO.P,U2,1*
G04 #@! TO.N,Net-(BR1-Pad4)*
X166500545Y-118962062D03*
G04 #@! TO.P,U2,2*
G04 #@! TO.N,Net-(J1-Pad1)*
X171330175Y-120256157D03*
G04 #@! TO.P,U2,3*
G04 #@! TO.N,GND*
X169087011Y-89217984D03*
G04 #@! TO.P,U2,4*
G04 #@! TO.N,Net-(D1-Pad1)*
X183962269Y-93203797D03*
G04 #@! TD*
D23*
G04 #@! TO.P,U4,16*
G04 #@! TO.N,Net-(R7-Pad1)*
X130315000Y-80455000D03*
G04 #@! TO.P,U4,1*
G04 #@! TO.N,Net-(D1-Pad1)*
X163335000Y-80455000D03*
G04 #@! TO.P,U4,15*
G04 #@! TO.N,Net-(U4-Pad15)*
X130315000Y-77915000D03*
G04 #@! TO.P,U4,2*
G04 #@! TO.N,GND*
X163335000Y-77915000D03*
G04 #@! TO.P,U4,14*
G04 #@! TO.N,Net-(U4-Pad14)*
X130315000Y-75375000D03*
G04 #@! TO.P,U4,3*
G04 #@! TO.N,Net-(C1-Pad1)*
X163335000Y-75375000D03*
G04 #@! TO.P,U4,13*
G04 #@! TO.N,Net-(U4-Pad13)*
X130315000Y-72835000D03*
G04 #@! TO.P,U4,4*
G04 #@! TO.N,Net-(R5-Pad2)*
X163335000Y-72835000D03*
G04 #@! TO.P,U4,12*
G04 #@! TO.N,Net-(U4-Pad12)*
X130315000Y-70295000D03*
G04 #@! TO.P,U4,5*
G04 #@! TO.N,Net-(D1-Pad4)*
X163335000Y-70295000D03*
G04 #@! TO.P,U4,11*
G04 #@! TO.N,Net-(U4-Pad11)*
X130315000Y-67755000D03*
G04 #@! TO.P,U4,6*
G04 #@! TO.N,Net-(U4-Pad6)*
X163335000Y-67755000D03*
G04 #@! TO.P,U4,10*
G04 #@! TO.N,Net-(R6-Pad1)*
X130315000Y-65215000D03*
G04 #@! TO.P,U4,7*
G04 #@! TO.N,Net-(U4-Pad7)*
X163335000Y-65215000D03*
G04 #@! TO.P,U4,9*
G04 #@! TO.N,Net-(U4-Pad9)*
X130315000Y-62675000D03*
G04 #@! TO.P,U4,8*
G04 #@! TO.N,Net-(U4-Pad8)*
X163335000Y-62675000D03*
G04 #@! TD*
D24*
G04 #@! TO.N,GND*
G36*
X148603144Y-57838799D02*
X151086103Y-58023315D01*
X153553166Y-58359067D01*
X155995130Y-58844804D01*
X158402886Y-59478714D01*
X160767451Y-60258430D01*
X163003890Y-61150679D01*
X162465493Y-61373690D01*
X162033690Y-61805493D01*
X161800000Y-62369670D01*
X161800000Y-62980330D01*
X162033690Y-63544507D01*
X162434183Y-63945000D01*
X162033690Y-64345493D01*
X161800000Y-64909670D01*
X161800000Y-65520330D01*
X162033690Y-66084507D01*
X162434183Y-66485000D01*
X162033690Y-66885493D01*
X161800000Y-67449670D01*
X161800000Y-68060330D01*
X162033690Y-68624507D01*
X162434183Y-69025000D01*
X162033690Y-69425493D01*
X161800000Y-69989670D01*
X161800000Y-70600330D01*
X162033690Y-71164507D01*
X162434183Y-71565000D01*
X162033690Y-71965493D01*
X161800000Y-72529670D01*
X161800000Y-73140330D01*
X162033690Y-73704507D01*
X162434183Y-74105000D01*
X162033690Y-74505493D01*
X161800000Y-75069670D01*
X161800000Y-75680330D01*
X162033690Y-76244507D01*
X162465493Y-76676310D01*
X162485115Y-76684438D01*
X162434446Y-76834841D01*
X163335000Y-77735395D01*
X164235554Y-76834841D01*
X164184885Y-76684438D01*
X164204507Y-76676310D01*
X164636310Y-76244507D01*
X164870000Y-75680330D01*
X164870000Y-75069670D01*
X164636310Y-74505493D01*
X164235817Y-74105000D01*
X164636310Y-73704507D01*
X164870000Y-73140330D01*
X164870000Y-72529670D01*
X164636310Y-71965493D01*
X164235817Y-71565000D01*
X164636310Y-71164507D01*
X164870000Y-70600330D01*
X164870000Y-69989670D01*
X164636310Y-69425493D01*
X164235817Y-69025000D01*
X164636310Y-68624507D01*
X164870000Y-68060330D01*
X164870000Y-67449670D01*
X164636310Y-66885493D01*
X164235817Y-66485000D01*
X164636310Y-66084507D01*
X164870000Y-65520330D01*
X164870000Y-64909670D01*
X164636310Y-64345493D01*
X164235817Y-63945000D01*
X164636310Y-63544507D01*
X164870000Y-62980330D01*
X164870000Y-62369670D01*
X164692706Y-61941645D01*
X165331923Y-62243119D01*
X167514801Y-63440687D01*
X169620499Y-64769283D01*
X171641160Y-66223951D01*
X173569246Y-67799264D01*
X175397566Y-69489345D01*
X177119299Y-71287891D01*
X178728022Y-73188191D01*
X180217733Y-75183157D01*
X181582876Y-77265346D01*
X182818359Y-79426992D01*
X183919571Y-81660030D01*
X184882406Y-83956131D01*
X185703271Y-86306728D01*
X186379105Y-88703054D01*
X186907386Y-91136169D01*
X187286144Y-93596996D01*
X187513965Y-96076356D01*
X187590000Y-98565000D01*
X187534133Y-100698475D01*
X187327957Y-103179729D01*
X186970688Y-105643768D01*
X186463660Y-108081400D01*
X186356946Y-108472821D01*
X163228675Y-102112546D01*
X163195000Y-102108000D01*
X145542000Y-102108000D01*
X145542000Y-97625000D01*
X145872560Y-97625000D01*
X145872560Y-99225000D01*
X145921843Y-99472765D01*
X146062191Y-99682809D01*
X146272235Y-99823157D01*
X146520000Y-99872440D01*
X148120000Y-99872440D01*
X148367765Y-99823157D01*
X148577809Y-99682809D01*
X148679913Y-99530000D01*
X150952560Y-99530000D01*
X150952560Y-101130000D01*
X151001843Y-101377765D01*
X151142191Y-101587809D01*
X151352235Y-101728157D01*
X151600000Y-101777440D01*
X153200000Y-101777440D01*
X153447765Y-101728157D01*
X153657809Y-101587809D01*
X153798157Y-101377765D01*
X153824785Y-101243894D01*
X153905423Y-101364577D01*
X154380091Y-101681740D01*
X154798667Y-101765000D01*
X155081333Y-101765000D01*
X155499909Y-101681740D01*
X155974577Y-101364577D01*
X156291740Y-100889909D01*
X156403113Y-100330000D01*
X156291740Y-99770091D01*
X155974577Y-99295423D01*
X155499909Y-98978260D01*
X155081333Y-98895000D01*
X154798667Y-98895000D01*
X154380091Y-98978260D01*
X153905423Y-99295423D01*
X153824785Y-99416106D01*
X153798157Y-99282235D01*
X153657809Y-99072191D01*
X153447765Y-98931843D01*
X153200000Y-98882560D01*
X151600000Y-98882560D01*
X151352235Y-98931843D01*
X151142191Y-99072191D01*
X151001843Y-99282235D01*
X150952560Y-99530000D01*
X148679913Y-99530000D01*
X148718157Y-99472765D01*
X148767440Y-99225000D01*
X148767440Y-97625000D01*
X148718157Y-97377235D01*
X148577809Y-97167191D01*
X148367765Y-97026843D01*
X148212639Y-96995987D01*
X148551041Y-96622423D01*
X148711904Y-96234039D01*
X148589915Y-96012000D01*
X147447000Y-96012000D01*
X147447000Y-96032000D01*
X147193000Y-96032000D01*
X147193000Y-96012000D01*
X146050085Y-96012000D01*
X145928096Y-96234039D01*
X146088959Y-96622423D01*
X146427361Y-96995987D01*
X146272235Y-97026843D01*
X146062191Y-97167191D01*
X145921843Y-97377235D01*
X145872560Y-97625000D01*
X145542000Y-97625000D01*
X145542000Y-93345000D01*
X145856887Y-93345000D01*
X145968260Y-93904909D01*
X146285423Y-94379577D01*
X146669108Y-94635947D01*
X146464866Y-94732611D01*
X146088959Y-95147577D01*
X145928096Y-95535961D01*
X146050085Y-95758000D01*
X147193000Y-95758000D01*
X147193000Y-95738000D01*
X147447000Y-95738000D01*
X147447000Y-95758000D01*
X148589915Y-95758000D01*
X148711904Y-95535961D01*
X148551041Y-95147577D01*
X148175134Y-94732611D01*
X147970892Y-94635947D01*
X148354577Y-94379577D01*
X148463851Y-94216036D01*
X158772193Y-94216036D01*
X158802518Y-94706413D01*
X158894505Y-94928490D01*
X158821843Y-95037235D01*
X158772560Y-95285000D01*
X158772560Y-96485000D01*
X158821843Y-96732765D01*
X158962191Y-96942809D01*
X159172235Y-97083157D01*
X159420000Y-97132440D01*
X160620000Y-97132440D01*
X160867765Y-97083157D01*
X161077809Y-96942809D01*
X161218157Y-96732765D01*
X161267440Y-96485000D01*
X161267440Y-95285000D01*
X161218157Y-95037235D01*
X161141291Y-94922198D01*
X161267807Y-94553964D01*
X161237482Y-94063587D01*
X161108164Y-93751383D01*
X160882735Y-93701870D01*
X160199605Y-94385000D01*
X160213748Y-94399143D01*
X160034143Y-94578748D01*
X160020000Y-94564605D01*
X160005858Y-94578748D01*
X159826253Y-94399143D01*
X159840395Y-94385000D01*
X159157265Y-93701870D01*
X158931836Y-93751383D01*
X158772193Y-94216036D01*
X148463851Y-94216036D01*
X148671740Y-93904909D01*
X148783113Y-93345000D01*
X148671740Y-92785091D01*
X148621566Y-92710000D01*
X150936887Y-92710000D01*
X151048260Y-93269909D01*
X151365423Y-93744577D01*
X151840091Y-94061740D01*
X152258667Y-94145000D01*
X152541333Y-94145000D01*
X152959909Y-94061740D01*
X153434577Y-93744577D01*
X153690947Y-93360892D01*
X153787611Y-93565134D01*
X154202577Y-93941041D01*
X154590961Y-94101904D01*
X154813000Y-93979915D01*
X154813000Y-92837000D01*
X155067000Y-92837000D01*
X155067000Y-93979915D01*
X155289039Y-94101904D01*
X155677423Y-93941041D01*
X156092389Y-93565134D01*
X156112678Y-93522265D01*
X159336870Y-93522265D01*
X160020000Y-94205395D01*
X160703130Y-93522265D01*
X160653617Y-93296836D01*
X160188964Y-93137193D01*
X159698587Y-93167518D01*
X159386383Y-93296836D01*
X159336870Y-93522265D01*
X156112678Y-93522265D01*
X156331914Y-93059041D01*
X156222474Y-92858684D01*
X182227269Y-92858684D01*
X182227269Y-93548910D01*
X182491407Y-94186596D01*
X182979470Y-94674659D01*
X183617156Y-94938797D01*
X184307382Y-94938797D01*
X184945068Y-94674659D01*
X185433131Y-94186596D01*
X185697269Y-93548910D01*
X185697269Y-92858684D01*
X185433131Y-92220998D01*
X184945068Y-91732935D01*
X184307382Y-91468797D01*
X183617156Y-91468797D01*
X182979470Y-91732935D01*
X182491407Y-92220998D01*
X182227269Y-92858684D01*
X156222474Y-92858684D01*
X156210629Y-92837000D01*
X155067000Y-92837000D01*
X154813000Y-92837000D01*
X154793000Y-92837000D01*
X154793000Y-92583000D01*
X154813000Y-92583000D01*
X154813000Y-91440085D01*
X155067000Y-91440085D01*
X155067000Y-92583000D01*
X156210629Y-92583000D01*
X156331914Y-92360959D01*
X156092389Y-91854866D01*
X155677423Y-91478959D01*
X155289039Y-91318096D01*
X155067000Y-91440085D01*
X154813000Y-91440085D01*
X154590961Y-91318096D01*
X154202577Y-91478959D01*
X153787611Y-91854866D01*
X153690947Y-92059108D01*
X153434577Y-91675423D01*
X152959909Y-91358260D01*
X152541333Y-91275000D01*
X152258667Y-91275000D01*
X151840091Y-91358260D01*
X151365423Y-91675423D01*
X151048260Y-92150091D01*
X150936887Y-92710000D01*
X148621566Y-92710000D01*
X148354577Y-92310423D01*
X147879909Y-91993260D01*
X147461333Y-91910000D01*
X147178667Y-91910000D01*
X146760091Y-91993260D01*
X146285423Y-92310423D01*
X145968260Y-92785091D01*
X145856887Y-93345000D01*
X145542000Y-93345000D01*
X145542000Y-92710000D01*
X145532333Y-92661399D01*
X145504803Y-92620197D01*
X143015188Y-90130582D01*
X167760345Y-90130582D01*
X167795718Y-90427070D01*
X168356709Y-90829191D01*
X169028882Y-90986019D01*
X169600761Y-90910730D01*
X169779638Y-90671650D01*
X169040526Y-89391469D01*
X167760345Y-90130582D01*
X143015188Y-90130582D01*
X142044461Y-89159855D01*
X167318976Y-89159855D01*
X167394265Y-89731734D01*
X167633345Y-89910611D01*
X168752497Y-89264469D01*
X169260496Y-89264469D01*
X169999609Y-90544650D01*
X170296097Y-90509277D01*
X170698218Y-89948286D01*
X170855046Y-89276113D01*
X170779757Y-88704234D01*
X170540677Y-88525357D01*
X169260496Y-89264469D01*
X168752497Y-89264469D01*
X168913526Y-89171499D01*
X168174413Y-87891318D01*
X167877925Y-87926691D01*
X167475804Y-88487682D01*
X167318976Y-89159855D01*
X142044461Y-89159855D01*
X141694803Y-88810197D01*
X141653601Y-88782667D01*
X141605000Y-88773000D01*
X131480178Y-88773000D01*
X128516845Y-86995000D01*
X142046887Y-86995000D01*
X142158260Y-87554909D01*
X142475423Y-88029577D01*
X142950091Y-88346740D01*
X143368667Y-88430000D01*
X143651333Y-88430000D01*
X144069909Y-88346740D01*
X144544577Y-88029577D01*
X144861740Y-87554909D01*
X144973113Y-86995000D01*
X144916336Y-86709561D01*
X154775000Y-86709561D01*
X154775000Y-87280439D01*
X154993466Y-87807862D01*
X155397138Y-88211534D01*
X155924561Y-88430000D01*
X156495439Y-88430000D01*
X157022862Y-88211534D01*
X157426534Y-87807862D01*
X157444570Y-87764318D01*
X168394384Y-87764318D01*
X169133496Y-89044499D01*
X170413677Y-88305386D01*
X170378304Y-88008898D01*
X169817313Y-87606777D01*
X169145140Y-87449949D01*
X168573261Y-87525238D01*
X168394384Y-87764318D01*
X157444570Y-87764318D01*
X157645000Y-87280439D01*
X157645000Y-86709561D01*
X157426534Y-86182138D01*
X157022862Y-85778466D01*
X156495439Y-85560000D01*
X155924561Y-85560000D01*
X155397138Y-85778466D01*
X154993466Y-86182138D01*
X154775000Y-86709561D01*
X144916336Y-86709561D01*
X144861740Y-86435091D01*
X144544577Y-85960423D01*
X144069909Y-85643260D01*
X143651333Y-85560000D01*
X143368667Y-85560000D01*
X142950091Y-85643260D01*
X142475423Y-85960423D01*
X142158260Y-86435091D01*
X142046887Y-86995000D01*
X128516845Y-86995000D01*
X120632780Y-82264561D01*
X142075000Y-82264561D01*
X142075000Y-82835439D01*
X142293466Y-83362862D01*
X142697138Y-83766534D01*
X143224561Y-83985000D01*
X143795439Y-83985000D01*
X144322862Y-83766534D01*
X144726534Y-83362862D01*
X144945000Y-82835439D01*
X144945000Y-82550000D01*
X154746887Y-82550000D01*
X154858260Y-83109909D01*
X155175423Y-83584577D01*
X155650091Y-83901740D01*
X156068667Y-83985000D01*
X156351333Y-83985000D01*
X156769909Y-83901740D01*
X157244577Y-83584577D01*
X157561740Y-83109909D01*
X157673113Y-82550000D01*
X157561740Y-81990091D01*
X157244577Y-81515423D01*
X156769909Y-81198260D01*
X156351333Y-81115000D01*
X156068667Y-81115000D01*
X155650091Y-81198260D01*
X155175423Y-81515423D01*
X154858260Y-81990091D01*
X154746887Y-82550000D01*
X144945000Y-82550000D01*
X144945000Y-82264561D01*
X144726534Y-81737138D01*
X144322862Y-81333466D01*
X143795439Y-81115000D01*
X143224561Y-81115000D01*
X142697138Y-81333466D01*
X142293466Y-81737138D01*
X142075000Y-82264561D01*
X120632780Y-82264561D01*
X114282780Y-78454561D01*
X120485000Y-78454561D01*
X120485000Y-79025439D01*
X120703466Y-79552862D01*
X121107138Y-79956534D01*
X121634561Y-80175000D01*
X122205439Y-80175000D01*
X122732862Y-79956534D01*
X123136534Y-79552862D01*
X123355000Y-79025439D01*
X123355000Y-78454561D01*
X123136534Y-77927138D01*
X122732862Y-77523466D01*
X122205439Y-77305000D01*
X121634561Y-77305000D01*
X121107138Y-77523466D01*
X120703466Y-77927138D01*
X120485000Y-78454561D01*
X114282780Y-78454561D01*
X112145453Y-77172165D01*
X112636594Y-76362790D01*
X114055775Y-74317049D01*
X115597198Y-72361763D01*
X116942427Y-70854561D01*
X120485000Y-70854561D01*
X120485000Y-71425439D01*
X120703466Y-71952862D01*
X121107138Y-72356534D01*
X121634561Y-72575000D01*
X122205439Y-72575000D01*
X122732862Y-72356534D01*
X123136534Y-71952862D01*
X123355000Y-71425439D01*
X123355000Y-70854561D01*
X123136534Y-70327138D01*
X122732862Y-69923466D01*
X122205439Y-69705000D01*
X121634561Y-69705000D01*
X121107138Y-69923466D01*
X120703466Y-70327138D01*
X120485000Y-70854561D01*
X116942427Y-70854561D01*
X117255114Y-70504226D01*
X119023337Y-68751366D01*
X120895271Y-67109724D01*
X122863934Y-65585422D01*
X124921981Y-64184148D01*
X127061736Y-62911128D01*
X128960871Y-61933009D01*
X128780000Y-62369670D01*
X128780000Y-62980330D01*
X129013690Y-63544507D01*
X129414183Y-63945000D01*
X129013690Y-64345493D01*
X128780000Y-64909670D01*
X128780000Y-65520330D01*
X129013690Y-66084507D01*
X129414183Y-66485000D01*
X129013690Y-66885493D01*
X128780000Y-67449670D01*
X128780000Y-68060330D01*
X129013690Y-68624507D01*
X129414183Y-69025000D01*
X129013690Y-69425493D01*
X128780000Y-69989670D01*
X128780000Y-70600330D01*
X129013690Y-71164507D01*
X129414183Y-71565000D01*
X129013690Y-71965493D01*
X128780000Y-72529670D01*
X128780000Y-73140330D01*
X129013690Y-73704507D01*
X129414183Y-74105000D01*
X129013690Y-74505493D01*
X128780000Y-75069670D01*
X128780000Y-75680330D01*
X129013690Y-76244507D01*
X129414183Y-76645000D01*
X129013690Y-77045493D01*
X128780000Y-77609670D01*
X128780000Y-78220330D01*
X129013690Y-78784507D01*
X129414183Y-79185000D01*
X129013690Y-79585493D01*
X128780000Y-80149670D01*
X128780000Y-80760330D01*
X129013690Y-81324507D01*
X129445493Y-81756310D01*
X130009670Y-81990000D01*
X130620330Y-81990000D01*
X131184507Y-81756310D01*
X131616310Y-81324507D01*
X131850000Y-80760330D01*
X131850000Y-80149670D01*
X161800000Y-80149670D01*
X161800000Y-80760330D01*
X162033690Y-81324507D01*
X162465493Y-81756310D01*
X163029670Y-81990000D01*
X163640330Y-81990000D01*
X164204507Y-81756310D01*
X164636310Y-81324507D01*
X164870000Y-80760330D01*
X164870000Y-80149670D01*
X164636310Y-79585493D01*
X164204507Y-79153690D01*
X164184885Y-79145562D01*
X164235554Y-78995159D01*
X163335000Y-78094605D01*
X162434446Y-78995159D01*
X162485115Y-79145562D01*
X162465493Y-79153690D01*
X162033690Y-79585493D01*
X161800000Y-80149670D01*
X131850000Y-80149670D01*
X131616310Y-79585493D01*
X131215817Y-79185000D01*
X131616310Y-78784507D01*
X131850000Y-78220330D01*
X131850000Y-77819561D01*
X142075000Y-77819561D01*
X142075000Y-78390439D01*
X142293466Y-78917862D01*
X142697138Y-79321534D01*
X143224561Y-79540000D01*
X143795439Y-79540000D01*
X144322862Y-79321534D01*
X144726534Y-78917862D01*
X144918655Y-78454039D01*
X154818096Y-78454039D01*
X154978959Y-78842423D01*
X155354866Y-79257389D01*
X155860959Y-79496914D01*
X156083000Y-79375629D01*
X156083000Y-78232000D01*
X156337000Y-78232000D01*
X156337000Y-79375629D01*
X156559041Y-79496914D01*
X157065134Y-79257389D01*
X157441041Y-78842423D01*
X157601904Y-78454039D01*
X157479915Y-78232000D01*
X156337000Y-78232000D01*
X156083000Y-78232000D01*
X154940085Y-78232000D01*
X154818096Y-78454039D01*
X144918655Y-78454039D01*
X144945000Y-78390439D01*
X144945000Y-77819561D01*
X144918656Y-77755961D01*
X154818096Y-77755961D01*
X154940085Y-77978000D01*
X156083000Y-77978000D01*
X156083000Y-76834371D01*
X156337000Y-76834371D01*
X156337000Y-77978000D01*
X157479915Y-77978000D01*
X157601904Y-77755961D01*
X157568097Y-77674336D01*
X161788542Y-77674336D01*
X161814161Y-78284460D01*
X161998357Y-78729148D01*
X162254841Y-78815554D01*
X163155395Y-77915000D01*
X163514605Y-77915000D01*
X164415159Y-78815554D01*
X164671643Y-78729148D01*
X164881458Y-78155664D01*
X164855839Y-77545540D01*
X164671643Y-77100852D01*
X164415159Y-77014446D01*
X163514605Y-77915000D01*
X163155395Y-77915000D01*
X162254841Y-77014446D01*
X161998357Y-77100852D01*
X161788542Y-77674336D01*
X157568097Y-77674336D01*
X157441041Y-77367577D01*
X157065134Y-76952611D01*
X156559041Y-76713086D01*
X156337000Y-76834371D01*
X156083000Y-76834371D01*
X155860959Y-76713086D01*
X155354866Y-76952611D01*
X154978959Y-77367577D01*
X154818096Y-77755961D01*
X144918656Y-77755961D01*
X144726534Y-77292138D01*
X144322862Y-76888466D01*
X143795439Y-76670000D01*
X143224561Y-76670000D01*
X142697138Y-76888466D01*
X142293466Y-77292138D01*
X142075000Y-77819561D01*
X131850000Y-77819561D01*
X131850000Y-77609670D01*
X131616310Y-77045493D01*
X131215817Y-76645000D01*
X131616310Y-76244507D01*
X131850000Y-75680330D01*
X131850000Y-75069670D01*
X131616310Y-74505493D01*
X131215817Y-74105000D01*
X131616310Y-73704507D01*
X131850000Y-73140330D01*
X131850000Y-72529670D01*
X131616310Y-71965493D01*
X131215817Y-71565000D01*
X131616310Y-71164507D01*
X131826509Y-70657040D01*
X143595667Y-70657040D01*
X143595667Y-71472960D01*
X143798578Y-72263245D01*
X144191650Y-72978241D01*
X144750185Y-73573021D01*
X145439088Y-74010212D01*
X146215074Y-74262345D01*
X147029383Y-74313577D01*
X147830850Y-74160689D01*
X148569116Y-73813287D01*
X149197793Y-73293201D01*
X149677378Y-72633108D01*
X149977738Y-71874486D01*
X150080000Y-71065000D01*
X149977738Y-70255514D01*
X149677378Y-69496892D01*
X149197793Y-68836799D01*
X148569116Y-68316713D01*
X147830850Y-67969311D01*
X147029383Y-67816423D01*
X146215074Y-67867655D01*
X145439088Y-68119788D01*
X144750185Y-68556979D01*
X144191650Y-69151759D01*
X143798578Y-69866755D01*
X143595667Y-70657040D01*
X131826509Y-70657040D01*
X131850000Y-70600330D01*
X131850000Y-69989670D01*
X131616310Y-69425493D01*
X131215817Y-69025000D01*
X131616310Y-68624507D01*
X131850000Y-68060330D01*
X131850000Y-67449670D01*
X131616310Y-66885493D01*
X131215817Y-66485000D01*
X131616310Y-66084507D01*
X131850000Y-65520330D01*
X131850000Y-64909670D01*
X131616310Y-64345493D01*
X131215817Y-63945000D01*
X131616310Y-63544507D01*
X131850000Y-62980330D01*
X131850000Y-62369670D01*
X131616310Y-61805493D01*
X131184507Y-61373690D01*
X130666273Y-61159030D01*
X131554162Y-60768350D01*
X133890076Y-59906586D01*
X136274242Y-59189034D01*
X138697766Y-58618369D01*
X141151609Y-58196722D01*
X143626615Y-57925665D01*
X146113553Y-57806209D01*
X148603144Y-57838799D01*
X148603144Y-57838799D01*
G37*
X148603144Y-57838799D02*
X151086103Y-58023315D01*
X153553166Y-58359067D01*
X155995130Y-58844804D01*
X158402886Y-59478714D01*
X160767451Y-60258430D01*
X163003890Y-61150679D01*
X162465493Y-61373690D01*
X162033690Y-61805493D01*
X161800000Y-62369670D01*
X161800000Y-62980330D01*
X162033690Y-63544507D01*
X162434183Y-63945000D01*
X162033690Y-64345493D01*
X161800000Y-64909670D01*
X161800000Y-65520330D01*
X162033690Y-66084507D01*
X162434183Y-66485000D01*
X162033690Y-66885493D01*
X161800000Y-67449670D01*
X161800000Y-68060330D01*
X162033690Y-68624507D01*
X162434183Y-69025000D01*
X162033690Y-69425493D01*
X161800000Y-69989670D01*
X161800000Y-70600330D01*
X162033690Y-71164507D01*
X162434183Y-71565000D01*
X162033690Y-71965493D01*
X161800000Y-72529670D01*
X161800000Y-73140330D01*
X162033690Y-73704507D01*
X162434183Y-74105000D01*
X162033690Y-74505493D01*
X161800000Y-75069670D01*
X161800000Y-75680330D01*
X162033690Y-76244507D01*
X162465493Y-76676310D01*
X162485115Y-76684438D01*
X162434446Y-76834841D01*
X163335000Y-77735395D01*
X164235554Y-76834841D01*
X164184885Y-76684438D01*
X164204507Y-76676310D01*
X164636310Y-76244507D01*
X164870000Y-75680330D01*
X164870000Y-75069670D01*
X164636310Y-74505493D01*
X164235817Y-74105000D01*
X164636310Y-73704507D01*
X164870000Y-73140330D01*
X164870000Y-72529670D01*
X164636310Y-71965493D01*
X164235817Y-71565000D01*
X164636310Y-71164507D01*
X164870000Y-70600330D01*
X164870000Y-69989670D01*
X164636310Y-69425493D01*
X164235817Y-69025000D01*
X164636310Y-68624507D01*
X164870000Y-68060330D01*
X164870000Y-67449670D01*
X164636310Y-66885493D01*
X164235817Y-66485000D01*
X164636310Y-66084507D01*
X164870000Y-65520330D01*
X164870000Y-64909670D01*
X164636310Y-64345493D01*
X164235817Y-63945000D01*
X164636310Y-63544507D01*
X164870000Y-62980330D01*
X164870000Y-62369670D01*
X164692706Y-61941645D01*
X165331923Y-62243119D01*
X167514801Y-63440687D01*
X169620499Y-64769283D01*
X171641160Y-66223951D01*
X173569246Y-67799264D01*
X175397566Y-69489345D01*
X177119299Y-71287891D01*
X178728022Y-73188191D01*
X180217733Y-75183157D01*
X181582876Y-77265346D01*
X182818359Y-79426992D01*
X183919571Y-81660030D01*
X184882406Y-83956131D01*
X185703271Y-86306728D01*
X186379105Y-88703054D01*
X186907386Y-91136169D01*
X187286144Y-93596996D01*
X187513965Y-96076356D01*
X187590000Y-98565000D01*
X187534133Y-100698475D01*
X187327957Y-103179729D01*
X186970688Y-105643768D01*
X186463660Y-108081400D01*
X186356946Y-108472821D01*
X163228675Y-102112546D01*
X163195000Y-102108000D01*
X145542000Y-102108000D01*
X145542000Y-97625000D01*
X145872560Y-97625000D01*
X145872560Y-99225000D01*
X145921843Y-99472765D01*
X146062191Y-99682809D01*
X146272235Y-99823157D01*
X146520000Y-99872440D01*
X148120000Y-99872440D01*
X148367765Y-99823157D01*
X148577809Y-99682809D01*
X148679913Y-99530000D01*
X150952560Y-99530000D01*
X150952560Y-101130000D01*
X151001843Y-101377765D01*
X151142191Y-101587809D01*
X151352235Y-101728157D01*
X151600000Y-101777440D01*
X153200000Y-101777440D01*
X153447765Y-101728157D01*
X153657809Y-101587809D01*
X153798157Y-101377765D01*
X153824785Y-101243894D01*
X153905423Y-101364577D01*
X154380091Y-101681740D01*
X154798667Y-101765000D01*
X155081333Y-101765000D01*
X155499909Y-101681740D01*
X155974577Y-101364577D01*
X156291740Y-100889909D01*
X156403113Y-100330000D01*
X156291740Y-99770091D01*
X155974577Y-99295423D01*
X155499909Y-98978260D01*
X155081333Y-98895000D01*
X154798667Y-98895000D01*
X154380091Y-98978260D01*
X153905423Y-99295423D01*
X153824785Y-99416106D01*
X153798157Y-99282235D01*
X153657809Y-99072191D01*
X153447765Y-98931843D01*
X153200000Y-98882560D01*
X151600000Y-98882560D01*
X151352235Y-98931843D01*
X151142191Y-99072191D01*
X151001843Y-99282235D01*
X150952560Y-99530000D01*
X148679913Y-99530000D01*
X148718157Y-99472765D01*
X148767440Y-99225000D01*
X148767440Y-97625000D01*
X148718157Y-97377235D01*
X148577809Y-97167191D01*
X148367765Y-97026843D01*
X148212639Y-96995987D01*
X148551041Y-96622423D01*
X148711904Y-96234039D01*
X148589915Y-96012000D01*
X147447000Y-96012000D01*
X147447000Y-96032000D01*
X147193000Y-96032000D01*
X147193000Y-96012000D01*
X146050085Y-96012000D01*
X145928096Y-96234039D01*
X146088959Y-96622423D01*
X146427361Y-96995987D01*
X146272235Y-97026843D01*
X146062191Y-97167191D01*
X145921843Y-97377235D01*
X145872560Y-97625000D01*
X145542000Y-97625000D01*
X145542000Y-93345000D01*
X145856887Y-93345000D01*
X145968260Y-93904909D01*
X146285423Y-94379577D01*
X146669108Y-94635947D01*
X146464866Y-94732611D01*
X146088959Y-95147577D01*
X145928096Y-95535961D01*
X146050085Y-95758000D01*
X147193000Y-95758000D01*
X147193000Y-95738000D01*
X147447000Y-95738000D01*
X147447000Y-95758000D01*
X148589915Y-95758000D01*
X148711904Y-95535961D01*
X148551041Y-95147577D01*
X148175134Y-94732611D01*
X147970892Y-94635947D01*
X148354577Y-94379577D01*
X148463851Y-94216036D01*
X158772193Y-94216036D01*
X158802518Y-94706413D01*
X158894505Y-94928490D01*
X158821843Y-95037235D01*
X158772560Y-95285000D01*
X158772560Y-96485000D01*
X158821843Y-96732765D01*
X158962191Y-96942809D01*
X159172235Y-97083157D01*
X159420000Y-97132440D01*
X160620000Y-97132440D01*
X160867765Y-97083157D01*
X161077809Y-96942809D01*
X161218157Y-96732765D01*
X161267440Y-96485000D01*
X161267440Y-95285000D01*
X161218157Y-95037235D01*
X161141291Y-94922198D01*
X161267807Y-94553964D01*
X161237482Y-94063587D01*
X161108164Y-93751383D01*
X160882735Y-93701870D01*
X160199605Y-94385000D01*
X160213748Y-94399143D01*
X160034143Y-94578748D01*
X160020000Y-94564605D01*
X160005858Y-94578748D01*
X159826253Y-94399143D01*
X159840395Y-94385000D01*
X159157265Y-93701870D01*
X158931836Y-93751383D01*
X158772193Y-94216036D01*
X148463851Y-94216036D01*
X148671740Y-93904909D01*
X148783113Y-93345000D01*
X148671740Y-92785091D01*
X148621566Y-92710000D01*
X150936887Y-92710000D01*
X151048260Y-93269909D01*
X151365423Y-93744577D01*
X151840091Y-94061740D01*
X152258667Y-94145000D01*
X152541333Y-94145000D01*
X152959909Y-94061740D01*
X153434577Y-93744577D01*
X153690947Y-93360892D01*
X153787611Y-93565134D01*
X154202577Y-93941041D01*
X154590961Y-94101904D01*
X154813000Y-93979915D01*
X154813000Y-92837000D01*
X155067000Y-92837000D01*
X155067000Y-93979915D01*
X155289039Y-94101904D01*
X155677423Y-93941041D01*
X156092389Y-93565134D01*
X156112678Y-93522265D01*
X159336870Y-93522265D01*
X160020000Y-94205395D01*
X160703130Y-93522265D01*
X160653617Y-93296836D01*
X160188964Y-93137193D01*
X159698587Y-93167518D01*
X159386383Y-93296836D01*
X159336870Y-93522265D01*
X156112678Y-93522265D01*
X156331914Y-93059041D01*
X156222474Y-92858684D01*
X182227269Y-92858684D01*
X182227269Y-93548910D01*
X182491407Y-94186596D01*
X182979470Y-94674659D01*
X183617156Y-94938797D01*
X184307382Y-94938797D01*
X184945068Y-94674659D01*
X185433131Y-94186596D01*
X185697269Y-93548910D01*
X185697269Y-92858684D01*
X185433131Y-92220998D01*
X184945068Y-91732935D01*
X184307382Y-91468797D01*
X183617156Y-91468797D01*
X182979470Y-91732935D01*
X182491407Y-92220998D01*
X182227269Y-92858684D01*
X156222474Y-92858684D01*
X156210629Y-92837000D01*
X155067000Y-92837000D01*
X154813000Y-92837000D01*
X154793000Y-92837000D01*
X154793000Y-92583000D01*
X154813000Y-92583000D01*
X154813000Y-91440085D01*
X155067000Y-91440085D01*
X155067000Y-92583000D01*
X156210629Y-92583000D01*
X156331914Y-92360959D01*
X156092389Y-91854866D01*
X155677423Y-91478959D01*
X155289039Y-91318096D01*
X155067000Y-91440085D01*
X154813000Y-91440085D01*
X154590961Y-91318096D01*
X154202577Y-91478959D01*
X153787611Y-91854866D01*
X153690947Y-92059108D01*
X153434577Y-91675423D01*
X152959909Y-91358260D01*
X152541333Y-91275000D01*
X152258667Y-91275000D01*
X151840091Y-91358260D01*
X151365423Y-91675423D01*
X151048260Y-92150091D01*
X150936887Y-92710000D01*
X148621566Y-92710000D01*
X148354577Y-92310423D01*
X147879909Y-91993260D01*
X147461333Y-91910000D01*
X147178667Y-91910000D01*
X146760091Y-91993260D01*
X146285423Y-92310423D01*
X145968260Y-92785091D01*
X145856887Y-93345000D01*
X145542000Y-93345000D01*
X145542000Y-92710000D01*
X145532333Y-92661399D01*
X145504803Y-92620197D01*
X143015188Y-90130582D01*
X167760345Y-90130582D01*
X167795718Y-90427070D01*
X168356709Y-90829191D01*
X169028882Y-90986019D01*
X169600761Y-90910730D01*
X169779638Y-90671650D01*
X169040526Y-89391469D01*
X167760345Y-90130582D01*
X143015188Y-90130582D01*
X142044461Y-89159855D01*
X167318976Y-89159855D01*
X167394265Y-89731734D01*
X167633345Y-89910611D01*
X168752497Y-89264469D01*
X169260496Y-89264469D01*
X169999609Y-90544650D01*
X170296097Y-90509277D01*
X170698218Y-89948286D01*
X170855046Y-89276113D01*
X170779757Y-88704234D01*
X170540677Y-88525357D01*
X169260496Y-89264469D01*
X168752497Y-89264469D01*
X168913526Y-89171499D01*
X168174413Y-87891318D01*
X167877925Y-87926691D01*
X167475804Y-88487682D01*
X167318976Y-89159855D01*
X142044461Y-89159855D01*
X141694803Y-88810197D01*
X141653601Y-88782667D01*
X141605000Y-88773000D01*
X131480178Y-88773000D01*
X128516845Y-86995000D01*
X142046887Y-86995000D01*
X142158260Y-87554909D01*
X142475423Y-88029577D01*
X142950091Y-88346740D01*
X143368667Y-88430000D01*
X143651333Y-88430000D01*
X144069909Y-88346740D01*
X144544577Y-88029577D01*
X144861740Y-87554909D01*
X144973113Y-86995000D01*
X144916336Y-86709561D01*
X154775000Y-86709561D01*
X154775000Y-87280439D01*
X154993466Y-87807862D01*
X155397138Y-88211534D01*
X155924561Y-88430000D01*
X156495439Y-88430000D01*
X157022862Y-88211534D01*
X157426534Y-87807862D01*
X157444570Y-87764318D01*
X168394384Y-87764318D01*
X169133496Y-89044499D01*
X170413677Y-88305386D01*
X170378304Y-88008898D01*
X169817313Y-87606777D01*
X169145140Y-87449949D01*
X168573261Y-87525238D01*
X168394384Y-87764318D01*
X157444570Y-87764318D01*
X157645000Y-87280439D01*
X157645000Y-86709561D01*
X157426534Y-86182138D01*
X157022862Y-85778466D01*
X156495439Y-85560000D01*
X155924561Y-85560000D01*
X155397138Y-85778466D01*
X154993466Y-86182138D01*
X154775000Y-86709561D01*
X144916336Y-86709561D01*
X144861740Y-86435091D01*
X144544577Y-85960423D01*
X144069909Y-85643260D01*
X143651333Y-85560000D01*
X143368667Y-85560000D01*
X142950091Y-85643260D01*
X142475423Y-85960423D01*
X142158260Y-86435091D01*
X142046887Y-86995000D01*
X128516845Y-86995000D01*
X120632780Y-82264561D01*
X142075000Y-82264561D01*
X142075000Y-82835439D01*
X142293466Y-83362862D01*
X142697138Y-83766534D01*
X143224561Y-83985000D01*
X143795439Y-83985000D01*
X144322862Y-83766534D01*
X144726534Y-83362862D01*
X144945000Y-82835439D01*
X144945000Y-82550000D01*
X154746887Y-82550000D01*
X154858260Y-83109909D01*
X155175423Y-83584577D01*
X155650091Y-83901740D01*
X156068667Y-83985000D01*
X156351333Y-83985000D01*
X156769909Y-83901740D01*
X157244577Y-83584577D01*
X157561740Y-83109909D01*
X157673113Y-82550000D01*
X157561740Y-81990091D01*
X157244577Y-81515423D01*
X156769909Y-81198260D01*
X156351333Y-81115000D01*
X156068667Y-81115000D01*
X155650091Y-81198260D01*
X155175423Y-81515423D01*
X154858260Y-81990091D01*
X154746887Y-82550000D01*
X144945000Y-82550000D01*
X144945000Y-82264561D01*
X144726534Y-81737138D01*
X144322862Y-81333466D01*
X143795439Y-81115000D01*
X143224561Y-81115000D01*
X142697138Y-81333466D01*
X142293466Y-81737138D01*
X142075000Y-82264561D01*
X120632780Y-82264561D01*
X114282780Y-78454561D01*
X120485000Y-78454561D01*
X120485000Y-79025439D01*
X120703466Y-79552862D01*
X121107138Y-79956534D01*
X121634561Y-80175000D01*
X122205439Y-80175000D01*
X122732862Y-79956534D01*
X123136534Y-79552862D01*
X123355000Y-79025439D01*
X123355000Y-78454561D01*
X123136534Y-77927138D01*
X122732862Y-77523466D01*
X122205439Y-77305000D01*
X121634561Y-77305000D01*
X121107138Y-77523466D01*
X120703466Y-77927138D01*
X120485000Y-78454561D01*
X114282780Y-78454561D01*
X112145453Y-77172165D01*
X112636594Y-76362790D01*
X114055775Y-74317049D01*
X115597198Y-72361763D01*
X116942427Y-70854561D01*
X120485000Y-70854561D01*
X120485000Y-71425439D01*
X120703466Y-71952862D01*
X121107138Y-72356534D01*
X121634561Y-72575000D01*
X122205439Y-72575000D01*
X122732862Y-72356534D01*
X123136534Y-71952862D01*
X123355000Y-71425439D01*
X123355000Y-70854561D01*
X123136534Y-70327138D01*
X122732862Y-69923466D01*
X122205439Y-69705000D01*
X121634561Y-69705000D01*
X121107138Y-69923466D01*
X120703466Y-70327138D01*
X120485000Y-70854561D01*
X116942427Y-70854561D01*
X117255114Y-70504226D01*
X119023337Y-68751366D01*
X120895271Y-67109724D01*
X122863934Y-65585422D01*
X124921981Y-64184148D01*
X127061736Y-62911128D01*
X128960871Y-61933009D01*
X128780000Y-62369670D01*
X128780000Y-62980330D01*
X129013690Y-63544507D01*
X129414183Y-63945000D01*
X129013690Y-64345493D01*
X128780000Y-64909670D01*
X128780000Y-65520330D01*
X129013690Y-66084507D01*
X129414183Y-66485000D01*
X129013690Y-66885493D01*
X128780000Y-67449670D01*
X128780000Y-68060330D01*
X129013690Y-68624507D01*
X129414183Y-69025000D01*
X129013690Y-69425493D01*
X128780000Y-69989670D01*
X128780000Y-70600330D01*
X129013690Y-71164507D01*
X129414183Y-71565000D01*
X129013690Y-71965493D01*
X128780000Y-72529670D01*
X128780000Y-73140330D01*
X129013690Y-73704507D01*
X129414183Y-74105000D01*
X129013690Y-74505493D01*
X128780000Y-75069670D01*
X128780000Y-75680330D01*
X129013690Y-76244507D01*
X129414183Y-76645000D01*
X129013690Y-77045493D01*
X128780000Y-77609670D01*
X128780000Y-78220330D01*
X129013690Y-78784507D01*
X129414183Y-79185000D01*
X129013690Y-79585493D01*
X128780000Y-80149670D01*
X128780000Y-80760330D01*
X129013690Y-81324507D01*
X129445493Y-81756310D01*
X130009670Y-81990000D01*
X130620330Y-81990000D01*
X131184507Y-81756310D01*
X131616310Y-81324507D01*
X131850000Y-80760330D01*
X131850000Y-80149670D01*
X161800000Y-80149670D01*
X161800000Y-80760330D01*
X162033690Y-81324507D01*
X162465493Y-81756310D01*
X163029670Y-81990000D01*
X163640330Y-81990000D01*
X164204507Y-81756310D01*
X164636310Y-81324507D01*
X164870000Y-80760330D01*
X164870000Y-80149670D01*
X164636310Y-79585493D01*
X164204507Y-79153690D01*
X164184885Y-79145562D01*
X164235554Y-78995159D01*
X163335000Y-78094605D01*
X162434446Y-78995159D01*
X162485115Y-79145562D01*
X162465493Y-79153690D01*
X162033690Y-79585493D01*
X161800000Y-80149670D01*
X131850000Y-80149670D01*
X131616310Y-79585493D01*
X131215817Y-79185000D01*
X131616310Y-78784507D01*
X131850000Y-78220330D01*
X131850000Y-77819561D01*
X142075000Y-77819561D01*
X142075000Y-78390439D01*
X142293466Y-78917862D01*
X142697138Y-79321534D01*
X143224561Y-79540000D01*
X143795439Y-79540000D01*
X144322862Y-79321534D01*
X144726534Y-78917862D01*
X144918655Y-78454039D01*
X154818096Y-78454039D01*
X154978959Y-78842423D01*
X155354866Y-79257389D01*
X155860959Y-79496914D01*
X156083000Y-79375629D01*
X156083000Y-78232000D01*
X156337000Y-78232000D01*
X156337000Y-79375629D01*
X156559041Y-79496914D01*
X157065134Y-79257389D01*
X157441041Y-78842423D01*
X157601904Y-78454039D01*
X157479915Y-78232000D01*
X156337000Y-78232000D01*
X156083000Y-78232000D01*
X154940085Y-78232000D01*
X154818096Y-78454039D01*
X144918655Y-78454039D01*
X144945000Y-78390439D01*
X144945000Y-77819561D01*
X144918656Y-77755961D01*
X154818096Y-77755961D01*
X154940085Y-77978000D01*
X156083000Y-77978000D01*
X156083000Y-76834371D01*
X156337000Y-76834371D01*
X156337000Y-77978000D01*
X157479915Y-77978000D01*
X157601904Y-77755961D01*
X157568097Y-77674336D01*
X161788542Y-77674336D01*
X161814161Y-78284460D01*
X161998357Y-78729148D01*
X162254841Y-78815554D01*
X163155395Y-77915000D01*
X163514605Y-77915000D01*
X164415159Y-78815554D01*
X164671643Y-78729148D01*
X164881458Y-78155664D01*
X164855839Y-77545540D01*
X164671643Y-77100852D01*
X164415159Y-77014446D01*
X163514605Y-77915000D01*
X163155395Y-77915000D01*
X162254841Y-77014446D01*
X161998357Y-77100852D01*
X161788542Y-77674336D01*
X157568097Y-77674336D01*
X157441041Y-77367577D01*
X157065134Y-76952611D01*
X156559041Y-76713086D01*
X156337000Y-76834371D01*
X156083000Y-76834371D01*
X155860959Y-76713086D01*
X155354866Y-76952611D01*
X154978959Y-77367577D01*
X154818096Y-77755961D01*
X144918656Y-77755961D01*
X144726534Y-77292138D01*
X144322862Y-76888466D01*
X143795439Y-76670000D01*
X143224561Y-76670000D01*
X142697138Y-76888466D01*
X142293466Y-77292138D01*
X142075000Y-77819561D01*
X131850000Y-77819561D01*
X131850000Y-77609670D01*
X131616310Y-77045493D01*
X131215817Y-76645000D01*
X131616310Y-76244507D01*
X131850000Y-75680330D01*
X131850000Y-75069670D01*
X131616310Y-74505493D01*
X131215817Y-74105000D01*
X131616310Y-73704507D01*
X131850000Y-73140330D01*
X131850000Y-72529670D01*
X131616310Y-71965493D01*
X131215817Y-71565000D01*
X131616310Y-71164507D01*
X131826509Y-70657040D01*
X143595667Y-70657040D01*
X143595667Y-71472960D01*
X143798578Y-72263245D01*
X144191650Y-72978241D01*
X144750185Y-73573021D01*
X145439088Y-74010212D01*
X146215074Y-74262345D01*
X147029383Y-74313577D01*
X147830850Y-74160689D01*
X148569116Y-73813287D01*
X149197793Y-73293201D01*
X149677378Y-72633108D01*
X149977738Y-71874486D01*
X150080000Y-71065000D01*
X149977738Y-70255514D01*
X149677378Y-69496892D01*
X149197793Y-68836799D01*
X148569116Y-68316713D01*
X147830850Y-67969311D01*
X147029383Y-67816423D01*
X146215074Y-67867655D01*
X145439088Y-68119788D01*
X144750185Y-68556979D01*
X144191650Y-69151759D01*
X143798578Y-69866755D01*
X143595667Y-70657040D01*
X131826509Y-70657040D01*
X131850000Y-70600330D01*
X131850000Y-69989670D01*
X131616310Y-69425493D01*
X131215817Y-69025000D01*
X131616310Y-68624507D01*
X131850000Y-68060330D01*
X131850000Y-67449670D01*
X131616310Y-66885493D01*
X131215817Y-66485000D01*
X131616310Y-66084507D01*
X131850000Y-65520330D01*
X131850000Y-64909670D01*
X131616310Y-64345493D01*
X131215817Y-63945000D01*
X131616310Y-63544507D01*
X131850000Y-62980330D01*
X131850000Y-62369670D01*
X131616310Y-61805493D01*
X131184507Y-61373690D01*
X130666273Y-61159030D01*
X131554162Y-60768350D01*
X133890076Y-59906586D01*
X136274242Y-59189034D01*
X138697766Y-58618369D01*
X141151609Y-58196722D01*
X143626615Y-57925665D01*
X146113553Y-57806209D01*
X148603144Y-57838799D01*
G04 #@! TD*
M02*
