<?xml version="1.0" standalone="no"?>
 <!DOCTYPE svg PUBLIC "-//W3C//DTD SVG 1.1//EN" 
 "http://www.w3.org/Graphics/SVG/1.1/DTD/svg11.dtd"> 
<svg xmlns="http://www.w3.org/2000/svg" version="1.1" 
    width="12.9997cm" height="18.001cm" viewBox="0 0 51180 70870 ">
<title>SVG Picture created as ceiling-light-dimmable-F.Cu.svg date 2019/08/02 05:00:31 </title>
  <desc>Picture generated by PCBNEW </desc>
<g style="fill:#000000; fill-opacity:1;stroke:#000000; stroke-opacity:1;
stroke-linecap:round; stroke-linejoin:round; "
 transform="translate(0 0) scale(1 1)">
</g>
<g style="fill:#000000; fill-opacity:0.0; 
stroke:#000000; stroke-width:-0.000393701; stroke-opacity:1; 
stroke-linecap:round; stroke-linejoin:round;">
</g>
<g style="fill:#000000; fill-opacity:0.0; 
stroke:#000000; stroke-width:0; stroke-opacity:1; 
stroke-linecap:round; stroke-linejoin:round;">
</g>
<g style="fill:#000000; fill-opacity:1.0; 
stroke:#000000; stroke-width:0; stroke-opacity:1; 
stroke-linecap:round; stroke-linejoin:round;">
<polyline style="fill-rule:evenodd;"
points="35692,10846
35692,10157
35948,10157
35948,10846
35692,10846
" /> 
<polyline style="fill-rule:evenodd;"
points="36086,10846
36086,10157
36342,10157
36342,10846
36086,10846
" /> 
<polyline style="fill-rule:evenodd;"
points="36480,10846
36480,10157
36736,10157
36736,10846
36480,10846
" /> 
<polyline style="fill-rule:evenodd;"
points="36874,10846
36874,10157
37129,10157
37129,10846
36874,10846
" /> 
<polyline style="fill-rule:evenodd;"
points="37267,10846
37267,10157
37523,10157
37523,10846
37267,10846
" /> 
<polyline style="fill-rule:evenodd;"
points="37267,13051
37267,12362
37523,12362
37523,13051
37267,13051
" /> 
<polyline style="fill-rule:evenodd;"
points="36874,13051
36874,12362
37129,12362
37129,13051
36874,13051
" /> 
<polyline style="fill-rule:evenodd;"
points="36480,13051
36480,12362
36736,12362
36736,13051
36480,13051
" /> 
<polyline style="fill-rule:evenodd;"
points="36086,13051
36086,12362
36342,12362
36342,13051
36086,13051
" /> 
<polyline style="fill-rule:evenodd;"
points="35692,13051
35692,12362
35948,12362
35948,13051
35692,13051
" /> 
<polyline style="fill-rule:evenodd;"
points="27297,22041
27297,21529
27907,21529
27907,22041
27297,22041
" /> 
<polyline style="fill-rule:evenodd;"
points="24167,22041
24167,21529
24777,21529
24777,22041
24167,22041
" /> 
<polyline style="fill-rule:evenodd;"
points="27297,20269
27297,19757
27907,19757
27907,20269
27297,20269
" /> 
<polyline style="fill-rule:evenodd;"
points="24167,20269
24167,19757
24777,19757
24777,20269
24167,20269
" /> 
<polyline style="fill-rule:evenodd;"
points="31765,10994
31765,10482
32375,10482
32375,10994
31765,10994
" /> 
<polyline style="fill-rule:evenodd;"
points="34895,10994
34895,10482
35505,10482
35505,10994
34895,10994
" /> 
<polyline style="fill-rule:evenodd;"
points="31765,12765
31765,12253
32375,12253
32375,12765
31765,12765
" /> 
<polyline style="fill-rule:evenodd;"
points="34895,12765
34895,12253
35505,12253
35505,12765
34895,12765
" /> 
<circle cx="28616.1" cy="21805.1" r="393.701" /> 
</g>
<g style="fill:#000000; fill-opacity:1.0; 
stroke:#000000; stroke-width:39.3701; stroke-opacity:1; 
stroke-linecap:round; stroke-linejoin:round;">
</g>
<g style="fill:#000000; fill-opacity:1.0; 
stroke:#000000; stroke-width:0; stroke-opacity:1; 
stroke-linecap:round; stroke-linejoin:round;">
<circle cx="28616.1" cy="20033.5" r="393.701" /> 
</g>
<g style="fill:#000000; fill-opacity:1.0; 
stroke:#000000; stroke-width:39.3701; stroke-opacity:1; 
stroke-linecap:round; stroke-linejoin:round;">
</g>
<g style="fill:#000000; fill-opacity:1.0; 
stroke:#000000; stroke-width:0; stroke-opacity:1; 
stroke-linecap:round; stroke-linejoin:round;">
<circle cx="31175.2" cy="21805.1" r="393.701" /> 
</g>
<g style="fill:#000000; fill-opacity:1.0; 
stroke:#000000; stroke-width:39.3701; stroke-opacity:1; 
stroke-linecap:round; stroke-linejoin:round;">
</g>
<g style="fill:#000000; fill-opacity:1.0; 
stroke:#000000; stroke-width:0; stroke-opacity:1; 
stroke-linecap:round; stroke-linejoin:round;">
<circle cx="31175.2" cy="20033.5" r="393.701" /> 
</g>
<g style="fill:#000000; fill-opacity:1.0; 
stroke:#000000; stroke-width:39.3701; stroke-opacity:1; 
stroke-linecap:round; stroke-linejoin:round;">
</g>
<g style="fill:#000000; fill-opacity:1.0; 
stroke:#000000; stroke-width:0; stroke-opacity:1; 
stroke-linecap:round; stroke-linejoin:round;">
<polyline style="fill-rule:evenodd;"
points="35960,14222
35960,13750
36432,13750
36432,14222
35960,14222
" /> 
<circle cx="36787.3" cy="13986.2" r="236.22" /> 
</g>
<g style="fill:#000000; fill-opacity:1.0; 
stroke:#000000; stroke-width:39.3701; stroke-opacity:1; 
stroke-linecap:round; stroke-linejoin:round;">
</g>
<g style="fill:#000000; fill-opacity:1.0; 
stroke:#000000; stroke-width:0; stroke-opacity:1; 
stroke-linecap:round; stroke-linejoin:round;">
<circle cx="25147.6" cy="17356.3" r="314.961" /> 
</g>
<g style="fill:#000000; fill-opacity:1.0; 
stroke:#000000; stroke-width:39.3701; stroke-opacity:1; 
stroke-linecap:round; stroke-linejoin:round;">
</g>
<g style="fill:#000000; fill-opacity:1.0; 
stroke:#000000; stroke-width:0; stroke-opacity:1; 
stroke-linecap:round; stroke-linejoin:round;">
<circle cx="27116.1" cy="17356.3" r="314.961" /> 
</g>
<g style="fill:#000000; fill-opacity:1.0; 
stroke:#000000; stroke-width:39.3701; stroke-opacity:1; 
stroke-linecap:round; stroke-linejoin:round;">
</g>
<g style="fill:#000000; fill-opacity:1.0; 
stroke:#000000; stroke-width:0; stroke-opacity:1; 
stroke-linecap:round; stroke-linejoin:round;">
<circle cx="34269.7" cy="17903.5" r="236.22" /> 
</g>
<g style="fill:#000000; fill-opacity:1.0; 
stroke:#000000; stroke-width:39.3701; stroke-opacity:1; 
stroke-linecap:round; stroke-linejoin:round;">
</g>
<g style="fill:#000000; fill-opacity:1.0; 
stroke:#000000; stroke-width:0; stroke-opacity:1; 
stroke-linecap:round; stroke-linejoin:round;">
<circle cx="33679.1" cy="17903.5" r="236.22" /> 
</g>
<g style="fill:#000000; fill-opacity:1.0; 
stroke:#000000; stroke-width:39.3701; stroke-opacity:1; 
stroke-linecap:round; stroke-linejoin:round;">
</g>
<g style="fill:#000000; fill-opacity:1.0; 
stroke:#000000; stroke-width:0; stroke-opacity:1; 
stroke-linecap:round; stroke-linejoin:round;">
<circle cx="36175.2" cy="15777.6" r="236.22" /> 
</g>
<g style="fill:#000000; fill-opacity:1.0; 
stroke:#000000; stroke-width:39.3701; stroke-opacity:1; 
stroke-linecap:round; stroke-linejoin:round;">
</g>
<g style="fill:#000000; fill-opacity:1.0; 
stroke:#000000; stroke-width:0; stroke-opacity:1; 
stroke-linecap:round; stroke-linejoin:round;">
<circle cx="36765.7" cy="15777.6" r="236.22" /> 
</g>
<g style="fill:#000000; fill-opacity:1.0; 
stroke:#000000; stroke-width:39.3701; stroke-opacity:1; 
stroke-linecap:round; stroke-linejoin:round;">
</g>
<g style="fill:#000000; fill-opacity:1.0; 
stroke:#000000; stroke-width:0; stroke-opacity:1; 
stroke-linecap:round; stroke-linejoin:round;">
<circle cx="36061" cy="17903.5" r="236.22" /> 
</g>
<g style="fill:#000000; fill-opacity:1.0; 
stroke:#000000; stroke-width:39.3701; stroke-opacity:1; 
stroke-linecap:round; stroke-linejoin:round;">
</g>
<g style="fill:#000000; fill-opacity:1.0; 
stroke:#000000; stroke-width:0; stroke-opacity:1; 
stroke-linecap:round; stroke-linejoin:round;">
<circle cx="35470.5" cy="17903.5" r="236.22" /> 
</g>
<g style="fill:#000000; fill-opacity:1.0; 
stroke:#000000; stroke-width:39.3701; stroke-opacity:1; 
stroke-linecap:round; stroke-linejoin:round;">
</g>
<g style="fill:#000000; fill-opacity:1.0; 
stroke:#000000; stroke-width:0; stroke-opacity:1; 
stroke-linecap:round; stroke-linejoin:round;">
<circle cx="32376" cy="19694.9" r="236.22" /> 
</g>
<g style="fill:#000000; fill-opacity:1.0; 
stroke:#000000; stroke-width:39.3701; stroke-opacity:1; 
stroke-linecap:round; stroke-linejoin:round;">
</g>
<g style="fill:#000000; fill-opacity:1.0; 
stroke:#000000; stroke-width:0; stroke-opacity:1; 
stroke-linecap:round; stroke-linejoin:round;">
<circle cx="32966.5" cy="19694.9" r="236.22" /> 
</g>
<g style="fill:#000000; fill-opacity:1.0; 
stroke:#000000; stroke-width:39.3701; stroke-opacity:1; 
stroke-linecap:round; stroke-linejoin:round;">
</g>
<g style="fill:#000000; fill-opacity:1.0; 
stroke:#000000; stroke-width:0; stroke-opacity:1; 
stroke-linecap:round; stroke-linejoin:round;">
<polyline style="fill-rule:evenodd;"
points="30875,23458
30875,22789
31545,22789
31545,23458
30875,23458
" /> 
<polyline style="fill-rule:evenodd;"
points="33950,19852
33950,19183
34620,19183
34620,19852
33950,19852
" /> 
<polyline style="fill-rule:evenodd;"
points="20285,11210
20285,10541
20954,10541
20954,11210
20285,11210
" /> 
</g>
<g style="fill:#000000; fill-opacity:1.0; 
stroke:#000000; stroke-width:669.291; stroke-opacity:1; 
stroke-linecap:round; stroke-linejoin:round;">
</g>
<g style="fill:#000000; fill-opacity:0.0; 
stroke:#000000; stroke-width:669.291; stroke-opacity:1; 
stroke-linecap:round; stroke-linejoin:round;">
<path d="M20620 11875
L20620 11875
" />
<path d="M20620 12875
L20620 12875
" />
<path d="M20620 13875
L20620 13875
" />
<path d="M20620 14875
L20620 14875
" />
<path d="M20620 15875
L20620 15875
" />
<path d="M20620 16875
L20620 16875
" />
</g>
<g style="fill:#000000; fill-opacity:0.0; 
stroke:#000000; stroke-width:0; stroke-opacity:1; 
stroke-linecap:round; stroke-linejoin:round;">
</g>
<g style="fill:#000000; fill-opacity:1.0; 
stroke:#000000; stroke-width:0; stroke-opacity:1; 
stroke-linecap:round; stroke-linejoin:round;">
<polyline style="fill-rule:evenodd;"
points="19084,23651
19084,22785
19950,22785
19950,23651
19084,23651
" /> 
</g>
<g style="fill:#000000; fill-opacity:1.0; 
stroke:#000000; stroke-width:866.142; stroke-opacity:1; 
stroke-linecap:round; stroke-linejoin:round;">
</g>
<g style="fill:#000000; fill-opacity:0.0; 
stroke:#000000; stroke-width:866.142; stroke-opacity:1; 
stroke-linecap:round; stroke-linejoin:round;">
<path d="M23517 23218
L23517 23218
" />
</g>
<g style="fill:#000000; fill-opacity:1.0; 
stroke:#000000; stroke-width:0; stroke-opacity:1; 
stroke-linecap:round; stroke-linejoin:round;">
<circle cx="31192.9" cy="10937" r="228.346" /> 
</g>
<g style="fill:#000000; fill-opacity:1.0; 
stroke:#000000; stroke-width:39.3701; stroke-opacity:1; 
stroke-linecap:round; stroke-linejoin:round;">
</g>
<g style="fill:#000000; fill-opacity:1.0; 
stroke:#000000; stroke-width:0; stroke-opacity:1; 
stroke-linecap:round; stroke-linejoin:round;">
<circle cx="31192.9" cy="12944.9" r="228.346" /> 
</g>
<g style="fill:#000000; fill-opacity:1.0; 
stroke:#000000; stroke-width:39.3701; stroke-opacity:1; 
stroke-linecap:round; stroke-linejoin:round;">
</g>
<g style="fill:#000000; fill-opacity:1.0; 
stroke:#000000; stroke-width:0; stroke-opacity:1; 
stroke-linecap:round; stroke-linejoin:round;">
<circle cx="27944.9" cy="12944.9" r="228.346" /> 
</g>
<g style="fill:#000000; fill-opacity:1.0; 
stroke:#000000; stroke-width:39.3701; stroke-opacity:1; 
stroke-linecap:round; stroke-linejoin:round;">
</g>
<g style="fill:#000000; fill-opacity:1.0; 
stroke:#000000; stroke-width:0; stroke-opacity:1; 
stroke-linecap:round; stroke-linejoin:round;">
<circle cx="27944.9" cy="10937" r="228.346" /> 
</g>
<g style="fill:#000000; fill-opacity:1.0; 
stroke:#000000; stroke-width:39.3701; stroke-opacity:1; 
stroke-linecap:round; stroke-linejoin:round;">
</g>
<g style="fill:#000000; fill-opacity:1.0; 
stroke:#000000; stroke-width:0; stroke-opacity:1; 
stroke-linecap:round; stroke-linejoin:round;">
<circle cx="16824.8" cy="23147.6" r="462.598" /> 
</g>
<g style="fill:#000000; fill-opacity:1.0; 
stroke:#000000; stroke-width:39.3701; stroke-opacity:1; 
stroke-linecap:round; stroke-linejoin:round;">
</g>
<g style="fill:#000000; fill-opacity:1.0; 
stroke:#000000; stroke-width:0; stroke-opacity:1; 
stroke-linecap:round; stroke-linejoin:round;">
<circle cx="16824.8" cy="25147.6" r="462.598" /> 
</g>
<g style="fill:#000000; fill-opacity:1.0; 
stroke:#000000; stroke-width:39.3701; stroke-opacity:1; 
stroke-linecap:round; stroke-linejoin:round;">
</g>
<g style="fill:#000000; fill-opacity:1.0; 
stroke:#000000; stroke-width:0; stroke-opacity:1; 
stroke-linecap:round; stroke-linejoin:round;">
<circle cx="10793.3" cy="23147.6" r="462.598" /> 
</g>
<g style="fill:#000000; fill-opacity:1.0; 
stroke:#000000; stroke-width:39.3701; stroke-opacity:1; 
stroke-linecap:round; stroke-linejoin:round;">
</g>
<g style="fill:#000000; fill-opacity:1.0; 
stroke:#000000; stroke-width:0; stroke-opacity:1; 
stroke-linecap:round; stroke-linejoin:round;">
<circle cx="10793.3" cy="25147.6" r="462.598" /> 
</g>
<g style="fill:#000000; fill-opacity:1.0; 
stroke:#000000; stroke-width:39.3701; stroke-opacity:1; 
stroke-linecap:round; stroke-linejoin:round;">
</g>
<g style="fill:#000000; fill-opacity:1.0; 
stroke:#000000; stroke-width:0; stroke-opacity:1; 
stroke-linecap:round; stroke-linejoin:round;">
<polyline style="fill-rule:evenodd;"
points="30338,17803
30338,17409
30929,17409
30929,17803
30338,17803
" /> 
<polyline style="fill-rule:evenodd;"
points="30338,16543
30338,16149
30929,16149
30929,16543
30338,16543
" /> 
<polyline style="fill-rule:evenodd;"
points="28409,17803
28409,17409
29000,17409
29000,17803
28409,17803
" /> 
<polyline style="fill-rule:evenodd;"
points="28409,16543
28409,16149
29000,16149
29000,16543
28409,16543
" /> 
<circle cx="21793.3" cy="16194.9" r="314.961" /> 
</g>
<g style="fill:#000000; fill-opacity:1.0; 
stroke:#000000; stroke-width:39.3701; stroke-opacity:1; 
stroke-linecap:round; stroke-linejoin:round;">
</g>
<g style="fill:#000000; fill-opacity:1.0; 
stroke:#000000; stroke-width:0; stroke-opacity:1; 
stroke-linecap:round; stroke-linejoin:round;">
<circle cx="22974.4" cy="16194.9" r="314.961" /> 
</g>
<g style="fill:#000000; fill-opacity:1.0; 
stroke:#000000; stroke-width:39.3701; stroke-opacity:1; 
stroke-linecap:round; stroke-linejoin:round;">
</g>
<g style="fill:#000000; fill-opacity:1.0; 
stroke:#000000; stroke-width:0; stroke-opacity:1; 
stroke-linecap:round; stroke-linejoin:round;">
<polyline style="fill-rule:evenodd;"
points="23257,24793
23257,24163
23887,24163
23887,24793
23257,24793
" /> 
</g>
<g style="fill:#000000; fill-opacity:1.0; 
stroke:#000000; stroke-width:629.921; stroke-opacity:1; 
stroke-linecap:round; stroke-linejoin:round;">
</g>
<g style="fill:#000000; fill-opacity:0.0; 
stroke:#000000; stroke-width:629.921; stroke-opacity:1; 
stroke-linecap:round; stroke-linejoin:round;">
<path d="M26572 25478
L26572 25478
" />
<path d="M23572 25478
L23572 25478
" />
<path d="M26572 24478
L26572 24478
" />
</g>
<g style="fill:#000000; fill-opacity:0.0; 
stroke:#000000; stroke-width:0; stroke-opacity:1; 
stroke-linecap:round; stroke-linejoin:round;">
</g>
<g style="fill:#000000; fill-opacity:1.0; 
stroke:#000000; stroke-width:0; stroke-opacity:1; 
stroke-linecap:round; stroke-linejoin:round;">
<polyline style="fill-rule:evenodd;"
points="28318,14165
28318,13929
28929,13929
28929,14165
28318,14165
" /> 
<polyline style="fill-rule:evenodd;"
points="28318,14665
28318,14429
28929,14429
28929,14665
28318,14665
" /> 
<polyline style="fill-rule:evenodd;"
points="28318,15165
28318,14929
28929,14929
28929,15165
28318,15165
" /> 
<polyline style="fill-rule:evenodd;"
points="28318,15665
28318,15429
28929,15429
28929,15665
28318,15665
" /> 
<polyline style="fill-rule:evenodd;"
points="30444,15665
30444,15429
31055,15429
31055,15665
30444,15665
" /> 
<polyline style="fill-rule:evenodd;"
points="30444,15165
30444,14929
31055,14929
31055,15165
30444,15165
" /> 
<polyline style="fill-rule:evenodd;"
points="30444,14665
30444,14429
31055,14429
31055,14665
30444,14665
" /> 
<polyline style="fill-rule:evenodd;"
points="30444,14165
30444,13929
31055,13929
31055,14165
30444,14165
" /> 
<polyline style="fill-rule:evenodd;"
points="29596,24580
29596,23084
30383,23084
30383,24580
29596,24580
" /> 
<polyline style="fill-rule:evenodd;"
points="27116,24127
27116,23537
27903,23537
27903,24127
27116,24127
" /> 
<polyline style="fill-rule:evenodd;"
points="27116,25033
27116,24442
27903,24442
27903,25033
27116,25033
" /> 
<polyline style="fill-rule:evenodd;"
points="27116,23222
27116,22631
27903,22631
27903,23222
27116,23222
" /> 
</g>
<g style="fill:#000000; fill-opacity:1.0; 
stroke:#000000; stroke-width:750; stroke-opacity:1; 
stroke-linecap:round; stroke-linejoin:round;">
</g>
<g style="fill:#000000; fill-opacity:0.0; 
stroke:#000000; stroke-width:750; stroke-opacity:1; 
stroke-linecap:round; stroke-linejoin:round;">
<path d="M22053 25187
L22053 25225
" />
<path d="M21053 25187
L21053 25225
" />
</g>
<g style="fill:#000000; fill-opacity:0.0; 
stroke:#000000; stroke-width:0; stroke-opacity:1; 
stroke-linecap:round; stroke-linejoin:round;">
</g>
<g style="fill:#000000; fill-opacity:1.0; 
stroke:#000000; stroke-width:0; stroke-opacity:1; 
stroke-linecap:round; stroke-linejoin:round;">
<polyline style="fill-rule:evenodd;"
points="19678,25600
19678,24812
20428,24812
20428,25600
19678,25600
" /> 
<polyline style="fill-rule:evenodd;"
points="22020,15068
22020,14281
22770,14281
22770,15068
22020,15068
" /> 
</g>
<g style="fill:#000000; fill-opacity:1.0; 
stroke:#000000; stroke-width:750; stroke-opacity:1; 
stroke-linecap:round; stroke-linejoin:round;">
</g>
<g style="fill:#000000; fill-opacity:0.0; 
stroke:#000000; stroke-width:750; stroke-opacity:1; 
stroke-linecap:round; stroke-linejoin:round;">
<path d="M23395 14656
L23395 14693
" />
<path d="M24395 14656
L24395 14693
" />
</g>
<g style="fill:#000000; fill-opacity:0.0; 
stroke:#000000; stroke-width:472.441; stroke-opacity:1; 
stroke-linecap:round; stroke-linejoin:round;">
<path d="M32537 15049
L32694 15049
" />
<path d="M33616 16049
L33616 16049
" />
<path d="M34616 15049
L34616 15049
" />
</g>
<g style="fill:#000000; fill-opacity:1.0; 
stroke:#000000; stroke-width:0; stroke-opacity:1; 
stroke-linecap:round; stroke-linejoin:round;">
<circle cx="9881.89" cy="29409.4" r="433.071" /> 
</g>
<g style="fill:#000000; fill-opacity:1.0; 
stroke:#000000; stroke-width:39.3701; stroke-opacity:1; 
stroke-linecap:round; stroke-linejoin:round;">
</g>
<g style="fill:#000000; fill-opacity:1.0; 
stroke:#000000; stroke-width:0; stroke-opacity:1; 
stroke-linecap:round; stroke-linejoin:round;">
<circle cx="9881.89" cy="31378" r="433.071" /> 
</g>
<g style="fill:#000000; fill-opacity:1.0; 
stroke:#000000; stroke-width:39.3701; stroke-opacity:1; 
stroke-linecap:round; stroke-linejoin:round;">
</g>
<g style="fill:#000000; fill-opacity:1.0; 
stroke:#000000; stroke-width:0; stroke-opacity:1; 
stroke-linecap:round; stroke-linejoin:round;">
<circle cx="21456.7" cy="27362.2" r="433.071" /> 
</g>
<g style="fill:#000000; fill-opacity:1.0; 
stroke:#000000; stroke-width:39.3701; stroke-opacity:1; 
stroke-linecap:round; stroke-linejoin:round;">
</g>
<g style="fill:#000000; fill-opacity:1.0; 
stroke:#000000; stroke-width:0; stroke-opacity:1; 
stroke-linecap:round; stroke-linejoin:round;">
<circle cx="21456.7" cy="33425.2" r="433.071" /> 
</g>
<g style="fill:#000000; fill-opacity:1.0; 
stroke:#000000; stroke-width:39.3701; stroke-opacity:1; 
stroke-linecap:round; stroke-linejoin:round;">
</g>
<g style="fill:#000000; fill-opacity:1.0; 
stroke:#000000; stroke-width:0; stroke-opacity:1; 
stroke-linecap:round; stroke-linejoin:round;">
<polyline style="fill-rule:evenodd;"
points="12903,19122
12903,17153
14872,17153
14872,19122
12903,19122
" /> 
<polyline style="fill-rule:evenodd;"
points="10541,15362
10541,15007
11328,15007
11328,15362
10541,15362
" /> 
<polyline style="fill-rule:evenodd;"
points="10541,15862
10541,15507
11328,15507
11328,15862
10541,15862
" /> 
<polyline style="fill-rule:evenodd;"
points="10541,16362
10541,16007
11328,16007
11328,16362
10541,16362
" /> 
<polyline style="fill-rule:evenodd;"
points="10541,16862
10541,16507
11328,16507
11328,16862
10541,16862
" /> 
<polyline style="fill-rule:evenodd;"
points="10541,17362
10541,17007
11328,17007
11328,17362
10541,17362
" /> 
<polyline style="fill-rule:evenodd;"
points="10541,17862
10541,17507
11328,17507
11328,17862
10541,17862
" /> 
<polyline style="fill-rule:evenodd;"
points="10541,18362
10541,18007
11328,18007
11328,18362
10541,18362
" /> 
<polyline style="fill-rule:evenodd;"
points="10541,18862
10541,18507
11328,18507
11328,18862
10541,18862
" /> 
<polyline style="fill-rule:evenodd;"
points="10541,19362
10541,19007
11328,19007
11328,19362
10541,19362
" /> 
<polyline style="fill-rule:evenodd;"
points="10541,19862
10541,19507
11328,19507
11328,19862
10541,19862
" /> 
<polyline style="fill-rule:evenodd;"
points="10541,20362
10541,20007
11328,20007
11328,20362
10541,20362
" /> 
<polyline style="fill-rule:evenodd;"
points="10541,20862
10541,20507
11328,20507
11328,20862
10541,20862
" /> 
<polyline style="fill-rule:evenodd;"
points="10541,21362
10541,21007
11328,21007
11328,21362
10541,21362
" /> 
<polyline style="fill-rule:evenodd;"
points="10541,21862
10541,21507
11328,21507
11328,21862
10541,21862
" /> 
<polyline style="fill-rule:evenodd;"
points="12208,22472
11854,22472
11854,21685
12208,21685
12208,22472
" /> 
<polyline style="fill-rule:evenodd;"
points="12708,22472
12354,22472
12354,21685
12708,21685
12708,22472
" /> 
<polyline style="fill-rule:evenodd;"
points="13208,22472
12854,22472
12854,21685
13208,21685
13208,22472
" /> 
<polyline style="fill-rule:evenodd;"
points="13708,22472
13354,22472
13354,21685
13708,21685
13708,22472
" /> 
<polyline style="fill-rule:evenodd;"
points="14208,22472
13854,22472
13854,21685
14208,21685
14208,22472
" /> 
<polyline style="fill-rule:evenodd;"
points="14708,22472
14354,22472
14354,21685
14708,21685
14708,22472
" /> 
<polyline style="fill-rule:evenodd;"
points="15208,22472
14854,22472
14854,21685
15208,21685
15208,22472
" /> 
<polyline style="fill-rule:evenodd;"
points="15708,22472
15354,22472
15354,21685
15708,21685
15708,22472
" /> 
<polyline style="fill-rule:evenodd;"
points="16208,22472
15854,22472
15854,21685
16208,21685
16208,22472
" /> 
<polyline style="fill-rule:evenodd;"
points="16708,22472
16354,22472
16354,21685
16708,21685
16708,22472
" /> 
<polyline style="fill-rule:evenodd;"
points="17234,21862
17234,21507
18021,21507
18021,21862
17234,21862
" /> 
<polyline style="fill-rule:evenodd;"
points="17234,21362
17234,21007
18021,21007
18021,21362
17234,21362
" /> 
<polyline style="fill-rule:evenodd;"
points="17234,20862
17234,20507
18021,20507
18021,20862
17234,20862
" /> 
<polyline style="fill-rule:evenodd;"
points="17234,20362
17234,20007
18021,20007
18021,20362
17234,20362
" /> 
<polyline style="fill-rule:evenodd;"
points="17234,19862
17234,19507
18021,19507
18021,19862
17234,19862
" /> 
<polyline style="fill-rule:evenodd;"
points="17234,19362
17234,19007
18021,19007
18021,19362
17234,19362
" /> 
<polyline style="fill-rule:evenodd;"
points="17234,18862
17234,18507
18021,18507
18021,18862
17234,18862
" /> 
<polyline style="fill-rule:evenodd;"
points="17234,18362
17234,18007
18021,18007
18021,18362
17234,18362
" /> 
<polyline style="fill-rule:evenodd;"
points="17234,17862
17234,17507
18021,17507
18021,17862
17234,17862
" /> 
<polyline style="fill-rule:evenodd;"
points="17234,17362
17234,17007
18021,17007
18021,17362
17234,17362
" /> 
<polyline style="fill-rule:evenodd;"
points="17234,16862
17234,16507
18021,16507
18021,16862
17234,16862
" /> 
<polyline style="fill-rule:evenodd;"
points="17234,16362
17234,16007
18021,16007
18021,16362
17234,16362
" /> 
<polyline style="fill-rule:evenodd;"
points="17234,15862
17234,15507
18021,15507
18021,15862
17234,15862
" /> 
<polyline style="fill-rule:evenodd;"
points="17234,15362
17234,15007
18021,15007
18021,15362
17234,15362
" /> 
<polyline style="fill-rule:evenodd;"
points="31710,17114
31719,17116
31729,17118
31738,17121
31747,17125
31755,17130
31763,17136
31770,17143
31776,17150
31782,17157
31787,17166
31791,17174
31794,17184
31797,17193
31798,17202
31799,17212
31799,17704
31798,17714
31797,17723
31794,17733
31791,17742
31787,17751
31782,17759
31776,17767
31770,17774
31763,17780
31755,17786
31747,17791
31738,17795
31729,17798
31719,17801
31710,17802
31700,17803
31336,17803
31326,17802
31317,17801
31308,17798
31298,17795
31290,17791
31281,17786
31274,17780
31267,17774
31260,17767
31254,17759
31249,17751
31245,17742
31242,17733
31240,17723
31238,17714
31238,17704
31238,17212
31238,17202
31240,17193
31242,17184
31245,17174
31249,17166
31254,17157
31260,17150
31267,17143
31274,17136
31281,17130
31290,17125
31298,17121
31308,17118
31317,17116
31326,17114
31336,17114
31700,17114
31710,17114
" /> 
<polyline style="fill-rule:evenodd;"
points="32881,17114
32891,17116
32900,17118
32909,17121
32918,17125
32926,17130
32934,17136
32941,17143
32948,17150
32953,17157
32958,17166
32962,17174
32966,17184
32968,17193
32969,17202
32970,17212
32970,17704
32969,17714
32968,17723
32966,17733
32962,17742
32958,17751
32953,17759
32948,17767
32941,17774
32934,17780
32926,17786
32918,17791
32909,17795
32900,17798
32891,17801
32881,17802
32872,17803
32507,17803
32498,17802
32488,17801
32479,17798
32470,17795
32461,17791
32453,17786
32445,17780
32438,17774
32431,17767
32426,17759
32421,17751
32416,17742
32413,17733
32411,17723
32409,17714
32409,17704
32409,17212
32409,17202
32411,17193
32413,17184
32416,17174
32421,17166
32426,17157
32431,17150
32438,17143
32445,17136
32453,17130
32461,17125
32470,17121
32479,17118
32488,17116
32498,17114
32507,17114
32872,17114
32881,17114
" /> 
<polyline style="fill-rule:evenodd;"
points="29960,18189
29969,18190
29979,18193
29988,18196
29997,18200
30005,18205
30013,18211
30020,18217
30026,18224
30032,18232
30037,18241
30041,18249
30044,18258
30047,18268
30048,18277
30049,18287
30049,18779
30048,18789
30047,18798
30044,18808
30041,18817
30037,18825
30032,18834
30026,18841
30020,18849
30013,18855
30005,18861
29997,18866
29988,18870
29979,18873
29969,18876
29960,18877
29950,18877
29586,18877
29576,18877
29567,18876
29558,18873
29548,18870
29540,18866
29531,18861
29524,18855
29517,18849
29510,18841
29504,18834
29499,18825
29495,18817
29492,18808
29490,18798
29488,18789
29488,18779
29488,18287
29488,18277
29490,18268
29492,18258
29495,18249
29499,18241
29504,18232
29510,18224
29517,18217
29524,18211
29531,18205
29540,18200
29548,18196
29558,18193
29567,18190
29576,18189
29586,18188
29950,18188
29960,18189
" /> 
<polyline style="fill-rule:evenodd;"
points="28789,18189
28798,18190
28808,18193
28817,18196
28825,18200
28834,18205
28841,18211
28849,18217
28855,18224
28861,18232
28866,18241
28870,18249
28873,18258
28876,18268
28877,18277
28877,18287
28877,18779
28877,18789
28876,18798
28873,18808
28870,18817
28866,18825
28861,18834
28855,18841
28849,18849
28841,18855
28834,18861
28825,18866
28817,18870
28808,18873
28798,18876
28789,18877
28779,18877
28415,18877
28405,18877
28396,18876
28386,18873
28377,18870
28368,18866
28360,18861
28352,18855
28345,18849
28339,18841
28333,18834
28328,18825
28324,18817
28321,18808
28318,18798
28317,18789
28316,18779
28316,18287
28317,18277
28318,18268
28321,18258
28324,18249
28328,18241
28333,18232
28339,18224
28345,18217
28352,18211
28360,18205
28368,18200
28377,18196
28386,18193
28396,18190
28405,18189
28415,18188
28779,18188
28789,18189
" /> 
<polyline style="fill-rule:evenodd;"
points="24639,22472
24649,22474
24658,22476
24667,22479
24676,22484
24684,22489
24692,22494
24699,22501
24706,22508
24711,22516
24716,22524
24720,22533
24724,22542
24726,22551
24727,22561
24728,22570
24728,23062
24727,23072
24726,23082
24724,23091
24720,23100
24716,23109
24711,23117
24706,23125
24699,23132
24692,23139
24684,23144
24676,23149
24667,23153
24658,23157
24649,23159
24639,23160
24629,23161
24265,23161
24256,23160
24246,23159
24237,23157
24228,23153
24219,23149
24211,23144
24203,23139
24196,23132
24189,23125
24183,23117
24178,23109
24174,23100
24171,23091
24169,23082
24167,23072
24167,23062
24167,22570
24167,22561
24169,22551
24171,22542
24174,22533
24178,22524
24183,22516
24189,22508
24196,22501
24203,22494
24211,22489
24219,22484
24228,22479
24237,22476
24246,22474
24256,22472
24265,22472
24629,22472
24639,22472
" /> 
<polyline style="fill-rule:evenodd;"
points="25810,22472
25820,22474
25829,22476
25838,22479
25847,22484
25855,22489
25863,22494
25870,22501
25877,22508
25883,22516
25887,22524
25892,22533
25895,22542
25897,22551
25899,22561
25899,22570
25899,23062
25899,23072
25897,23082
25895,23091
25892,23100
25887,23109
25883,23117
25877,23125
25870,23132
25863,23139
25855,23144
25847,23149
25838,23153
25829,23157
25820,23159
25810,23160
25801,23161
25437,23161
25427,23160
25417,23159
25408,23157
25399,23153
25390,23149
25382,23144
25374,23139
25367,23132
25360,23125
25355,23117
25350,23109
25346,23100
25342,23091
25340,23082
25339,23072
25338,23062
25338,22570
25339,22561
25340,22551
25342,22542
25346,22533
25350,22524
25355,22516
25360,22508
25367,22501
25374,22494
25382,22489
25390,22484
25399,22479
25408,22476
25417,22474
25427,22472
25437,22472
25801,22472
25810,22472
" /> 
<polyline style="fill-rule:evenodd;"
points="23602,21756
23611,21757
23621,21760
23630,21763
23638,21767
23647,21772
23654,21778
23662,21784
23668,21791
23674,21799
23679,21807
23683,21816
23686,21825
23689,21835
23690,21844
23690,21854
23690,22346
23690,22356
23689,22365
23686,22375
23683,22384
23679,22392
23674,22401
23668,22408
23662,22416
23654,22422
23647,22428
23638,22433
23630,22437
23621,22440
23611,22442
23602,22444
23592,22444
23228,22444
23218,22444
23209,22442
23199,22440
23190,22437
23181,22433
23173,22428
23165,22422
23158,22416
23152,22408
23146,22401
23141,22392
23137,22384
23134,22375
23131,22365
23130,22356
23129,22346
23129,21854
23130,21844
23131,21835
23134,21825
23137,21816
23141,21807
23146,21799
23152,21791
23158,21784
23165,21778
23173,21772
23181,21767
23190,21763
23199,21760
23209,21757
23218,21756
23228,21755
23592,21755
23602,21756
" /> 
<polyline style="fill-rule:evenodd;"
points="22430,21756
22440,21757
22449,21760
22458,21763
22467,21767
22475,21772
22483,21778
22490,21784
22497,21791
22503,21799
22508,21807
22512,21816
22515,21825
22517,21835
22519,21844
22519,21854
22519,22346
22519,22356
22517,22365
22515,22375
22512,22384
22508,22392
22503,22401
22497,22408
22490,22416
22483,22422
22475,22428
22467,22433
22458,22437
22449,22440
22440,22442
22430,22444
22421,22444
22057,22444
22047,22444
22037,22442
22028,22440
22019,22437
22010,22433
22002,22428
21994,22422
21987,22416
21981,22408
21975,22401
21970,22392
21966,22384
21962,22375
21960,22365
21959,22356
21958,22346
21958,21854
21959,21844
21960,21835
21962,21825
21966,21816
21970,21807
21975,21799
21981,21791
21987,21784
21994,21778
22002,21772
22010,21767
22019,21763
22028,21760
22037,21757
22047,21756
22057,21755
22421,21755
22430,21756
" /> 
<polyline style="fill-rule:evenodd;"
points="20482,21756
20491,21757
20501,21760
20510,21763
20518,21767
20527,21772
20534,21778
20542,21784
20548,21791
20554,21799
20559,21807
20563,21816
20566,21825
20568,21835
20570,21844
20570,21854
20570,22346
20570,22356
20568,22365
20566,22375
20563,22384
20559,22392
20554,22401
20548,22408
20542,22416
20534,22422
20527,22428
20518,22433
20510,22437
20501,22440
20491,22442
20482,22444
20472,22444
20108,22444
20098,22444
20089,22442
20079,22440
20070,22437
20061,22433
20053,22428
20045,22422
20038,22416
20032,22408
20026,22401
20021,22392
20017,22384
20014,22375
20011,22365
20010,22356
20009,22346
20009,21854
20010,21844
20011,21835
20014,21825
20017,21816
20021,21807
20026,21799
20032,21791
20038,21784
20045,21778
20053,21772
20061,21767
20070,21763
20079,21760
20089,21757
20098,21756
20108,21755
20472,21755
20482,21756
" /> 
<polyline style="fill-rule:evenodd;"
points="21653,21756
21662,21757
21672,21760
21681,21763
21690,21767
21698,21772
21706,21778
21713,21784
21719,21791
21725,21799
21730,21807
21734,21816
21737,21825
21740,21835
21741,21844
21742,21854
21742,22346
21741,22356
21740,22365
21737,22375
21734,22384
21730,22392
21725,22401
21719,22408
21713,22416
21706,22422
21698,22428
21690,22433
21681,22437
21672,22440
21662,22442
21653,22444
21643,22444
21279,22444
21269,22444
21260,22442
21250,22440
21241,22437
21233,22433
21224,22428
21217,22422
21209,22416
21203,22408
21197,22401
21192,22392
21188,22384
21185,22375
21182,22365
21181,22356
21181,22346
21181,21854
21181,21844
21182,21835
21185,21825
21188,21816
21192,21807
21197,21799
21203,21791
21209,21784
21217,21778
21224,21772
21233,21767
21241,21763
21250,21760
21260,21757
21269,21756
21279,21755
21643,21755
21653,21756
" /> 
<polyline style="fill-rule:evenodd;"
points="23602,20854
23611,20856
23621,20858
23630,20861
23638,20865
23647,20870
23654,20876
23662,20883
23668,20890
23674,20898
23679,20906
23683,20915
23686,20924
23689,20933
23690,20943
23690,20952
23690,21444
23690,21454
23689,21464
23686,21473
23683,21482
23679,21491
23674,21499
23668,21507
23662,21514
23654,21520
23647,21526
23638,21531
23630,21535
23621,21539
23611,21541
23602,21542
23592,21543
23228,21543
23218,21542
23209,21541
23199,21539
23190,21535
23181,21531
23173,21526
23165,21520
23158,21514
23152,21507
23146,21499
23141,21491
23137,21482
23134,21473
23131,21464
23130,21454
23129,21444
23129,20952
23130,20943
23131,20933
23134,20924
23137,20915
23141,20906
23146,20898
23152,20890
23158,20883
23165,20876
23173,20870
23181,20865
23190,20861
23199,20858
23209,20856
23218,20854
23228,20854
23592,20854
23602,20854
" /> 
<polyline style="fill-rule:evenodd;"
points="22430,20854
22440,20856
22449,20858
22458,20861
22467,20865
22475,20870
22483,20876
22490,20883
22497,20890
22503,20898
22508,20906
22512,20915
22515,20924
22517,20933
22519,20943
22519,20952
22519,21444
22519,21454
22517,21464
22515,21473
22512,21482
22508,21491
22503,21499
22497,21507
22490,21514
22483,21520
22475,21526
22467,21531
22458,21535
22449,21539
22440,21541
22430,21542
22421,21543
22057,21543
22047,21542
22037,21541
22028,21539
22019,21535
22010,21531
22002,21526
21994,21520
21987,21514
21981,21507
21975,21499
21970,21491
21966,21482
21962,21473
21960,21464
21959,21454
21958,21444
21958,20952
21959,20943
21960,20933
21962,20924
21966,20915
21970,20906
21975,20898
21981,20890
21987,20883
21994,20876
22002,20870
22010,20865
22019,20861
22028,20858
22037,20856
22047,20854
22057,20854
22421,20854
22430,20854
" /> 
<polyline style="fill-rule:evenodd;"
points="26052,14335
26062,14336
26071,14338
26080,14342
26089,14346
26097,14351
26105,14356
26112,14363
26119,14370
26125,14378
26130,14386
26134,14395
26137,14404
26139,14413
26141,14423
26141,14433
26141,14925
26141,14934
26139,14944
26137,14953
26134,14962
26130,14971
26125,14979
26119,14987
26112,14994
26105,15001
26097,15007
26089,15012
26080,15016
26071,15019
26062,15021
26052,15023
26043,15023
25679,15023
25669,15023
25659,15021
25650,15019
25641,15016
25632,15012
25624,15007
25616,15001
25609,14994
25603,14987
25597,14979
25592,14971
25588,14962
25584,14953
25582,14944
25581,14934
25580,14925
25580,14433
25581,14423
25582,14413
25584,14404
25588,14395
25592,14386
25597,14378
25603,14370
25609,14363
25616,14356
25624,14351
25632,14346
25641,14342
25650,14338
25659,14336
25669,14335
25679,14334
26043,14334
26052,14335
" /> 
<polyline style="fill-rule:evenodd;"
points="27224,14335
27233,14336
27243,14338
27252,14342
27260,14346
27269,14351
27277,14356
27284,14363
27290,14370
27296,14378
27301,14386
27305,14395
27308,14404
27311,14413
27312,14423
27312,14433
27312,14925
27312,14934
27311,14944
27308,14953
27305,14962
27301,14971
27296,14979
27290,14987
27284,14994
27277,15001
27269,15007
27260,15012
27252,15016
27243,15019
27233,15021
27224,15023
27214,15023
26850,15023
26840,15023
26831,15021
26821,15019
26812,15016
26803,15012
26795,15007
26787,15001
26780,14994
26774,14987
26768,14979
26763,14971
26759,14962
26756,14953
26753,14944
26752,14934
26751,14925
26751,14433
26752,14423
26753,14413
26756,14404
26759,14395
26763,14386
26768,14378
26774,14370
26780,14363
26787,14356
26795,14351
26803,14346
26812,14342
26821,14338
26831,14336
26840,14335
26850,14334
27214,14334
27224,14335
" /> 
<polyline style="fill-rule:evenodd;"
points="27224,13433
27233,13434
27243,13437
27252,13440
27260,13444
27269,13449
27277,13455
27284,13461
27290,13469
27296,13476
27301,13485
27305,13493
27308,13502
27311,13512
27312,13521
27312,13531
27312,14023
27312,14033
27311,14042
27308,14052
27305,14061
27301,14070
27296,14078
27290,14086
27284,14093
27277,14099
27269,14105
27260,14110
27252,14114
27243,14117
27233,14120
27224,14121
27214,14122
26850,14122
26840,14121
26831,14120
26821,14117
26812,14114
26803,14110
26795,14105
26787,14099
26780,14093
26774,14086
26768,14078
26763,14070
26759,14061
26756,14052
26753,14042
26752,14033
26751,14023
26751,13531
26752,13521
26753,13512
26756,13502
26759,13493
26763,13485
26768,13476
26774,13469
26780,13461
26787,13455
26795,13449
26803,13444
26812,13440
26821,13437
26831,13434
26840,13433
26850,13433
27214,13433
27224,13433
" /> 
<polyline style="fill-rule:evenodd;"
points="26052,13433
26062,13434
26071,13437
26080,13440
26089,13444
26097,13449
26105,13455
26112,13461
26119,13469
26125,13476
26130,13485
26134,13493
26137,13502
26139,13512
26141,13521
26141,13531
26141,14023
26141,14033
26139,14042
26137,14052
26134,14061
26130,14070
26125,14078
26119,14086
26112,14093
26105,14099
26097,14105
26089,14110
26080,14114
26071,14117
26062,14120
26052,14121
26043,14122
25679,14122
25669,14121
25659,14120
25650,14117
25641,14114
25632,14110
25624,14105
25616,14099
25609,14093
25603,14086
25597,14078
25592,14070
25588,14061
25584,14052
25582,14042
25581,14033
25580,14023
25580,13531
25581,13521
25582,13512
25584,13502
25588,13493
25592,13485
25597,13476
25603,13469
25609,13461
25616,13455
25624,13449
25632,13444
25641,13440
25650,13437
25659,13434
25669,13433
25679,13433
26043,13433
26052,13433
" /> 
<polyline style="fill-rule:evenodd;"
points="20482,20854
20491,20856
20501,20858
20510,20861
20518,20865
20527,20870
20534,20876
20542,20883
20548,20890
20554,20898
20559,20906
20563,20915
20566,20924
20568,20933
20570,20943
20570,20952
20570,21444
20570,21454
20568,21464
20566,21473
20563,21482
20559,21491
20554,21499
20548,21507
20542,21514
20534,21520
20527,21526
20518,21531
20510,21535
20501,21539
20491,21541
20482,21542
20472,21543
20108,21543
20098,21542
20089,21541
20079,21539
20070,21535
20061,21531
20053,21526
20045,21520
20038,21514
20032,21507
20026,21499
20021,21491
20017,21482
20014,21473
20011,21464
20010,21454
20009,21444
20009,20952
20010,20943
20011,20933
20014,20924
20017,20915
20021,20906
20026,20898
20032,20890
20038,20883
20045,20876
20053,20870
20061,20865
20070,20861
20079,20858
20089,20856
20098,20854
20108,20854
20472,20854
20482,20854
" /> 
<polyline style="fill-rule:evenodd;"
points="21653,20854
21662,20856
21672,20858
21681,20861
21690,20865
21698,20870
21706,20876
21713,20883
21719,20890
21725,20898
21730,20906
21734,20915
21737,20924
21740,20933
21741,20943
21742,20952
21742,21444
21741,21454
21740,21464
21737,21473
21734,21482
21730,21491
21725,21499
21719,21507
21713,21514
21706,21520
21698,21526
21690,21531
21681,21535
21672,21539
21662,21541
21653,21542
21643,21543
21279,21543
21269,21542
21260,21541
21250,21539
21241,21535
21233,21531
21224,21526
21217,21520
21209,21514
21203,21507
21197,21499
21192,21491
21188,21482
21185,21473
21182,21464
21181,21454
21181,21444
21181,20952
21181,20943
21182,20933
21185,20924
21188,20915
21192,20906
21197,20898
21203,20890
21209,20883
21217,20876
21224,20870
21233,20865
21241,20861
21250,20858
21260,20856
21269,20854
21279,20854
21643,20854
21653,20854
" /> 
<polyline style="fill-rule:evenodd;"
points="20387,19753
20387,18572
21568,18572
21568,19753
20387,19753
" /> 
<circle cx="22978.3" cy="19163.4" r="590.551" /> 
</g>
<g style="fill:#000000; fill-opacity:1.0; 
stroke:#000000; stroke-width:39.3701; stroke-opacity:1; 
stroke-linecap:round; stroke-linejoin:round;">
</g>
<g style="fill:#000000; fill-opacity:1.0; 
stroke:#000000; stroke-width:0; stroke-opacity:1; 
stroke-linecap:round; stroke-linejoin:round;">
<polyline style="fill-rule:evenodd;"
points="21809,12332
21809,11151
22990,11151
22990,12332
21809,12332
" /> 
<circle cx="24399.6" cy="11742.1" r="590.551" /> 
</g>
<g style="fill:#000000; fill-opacity:1.0; 
stroke:#000000; stroke-width:39.3701; stroke-opacity:1; 
stroke-linecap:round; stroke-linejoin:round;">
</g>
<g style="fill:#000000; fill-opacity:1.0; 
stroke:#000000; stroke-width:0; stroke-opacity:1; 
stroke-linecap:round; stroke-linejoin:round;">
<circle cx="26399.6" cy="11742.1" r="590.551" /> 
</g>
<g style="fill:#000000; fill-opacity:1.0; 
stroke:#000000; stroke-width:39.3701; stroke-opacity:1; 
stroke-linecap:round; stroke-linejoin:round;">
</g> 
</svg>
