<?xml version="1.0" standalone="no"?>
 <!DOCTYPE svg PUBLIC "-//W3C//DTD SVG 1.1//EN" 
 "http://www.w3.org/Graphics/SVG/1.1/DTD/svg11.dtd"> 
<svg xmlns="http://www.w3.org/2000/svg" version="1.1" 
    width="12.9997cm" height="18.001cm" viewBox="0 0 51180 70870 ">
<title>SVG Picture created as ceiling-light-dimmable-B.Mask.svg date 2019/08/02 05:00:31 </title>
  <desc>Picture generated by PCBNEW </desc>
<g style="fill:#000000; fill-opacity:1;stroke:#000000; stroke-opacity:1;
stroke-linecap:round; stroke-linejoin:round; "
 transform="translate(0 0) scale(1 1)">
</g>
<g style="fill:#000000; fill-opacity:0.0; 
stroke:#000000; stroke-width:-0.000393701; stroke-opacity:1; 
stroke-linecap:round; stroke-linejoin:round;">
</g>
<g style="fill:#000000; fill-opacity:1.0; 
stroke:#000000; stroke-width:0; stroke-opacity:1; 
stroke-linecap:round; stroke-linejoin:round;">
<polyline style="fill-rule:evenodd;"
points="21583,33008
21661,33041
21732,33088
21793,33149
21840,33220
21873,33298
21889,33382
21889,33467
21873,33551
21840,33630
21793,33701
21732,33761
21661,33808
21583,33841
21499,33858
21414,33858
21330,33841
21251,33808
21180,33761
21120,33701
21072,33630
21040,33551
21023,33467
21023,33382
21040,33298
21072,33220
21120,33149
21180,33088
21251,33041
21330,33008
21414,32992
21499,32992
21583,33008
" /> 
<polyline style="fill-rule:evenodd;"
points="10008,30961
10087,30994
10157,31041
10218,31101
10265,31172
10298,31251
10314,31335
10314,31420
10298,31504
10265,31583
10218,31654
10157,31714
10087,31761
10008,31794
9924,31811
9839,31811
9755,31794
9676,31761
9605,31714
9545,31654
9498,31583
9465,31504
9448,31420
9448,31335
9465,31251
9498,31172
9545,31101
9605,31041
9676,30994
9755,30961
9839,30944
9924,30944
10008,30961
" /> 
<polyline style="fill-rule:evenodd;"
points="10008,28993
10087,29025
10157,29073
10218,29133
10265,29204
10298,29283
10314,29366
10314,29452
10298,29535
10265,29614
10218,29685
10157,29745
10087,29793
10008,29825
9924,29842
9839,29842
9755,29825
9676,29793
9605,29745
9545,29685
9498,29614
9465,29535
9448,29452
9448,29366
9465,29283
9498,29204
9545,29133
9605,29073
9676,29025
9755,28993
9839,28976
9924,28976
10008,28993
" /> 
<polyline style="fill-rule:evenodd;"
points="21583,26945
21661,26978
21732,27025
21793,27086
21840,27157
21873,27235
21889,27319
21889,27404
21873,27488
21840,27567
21793,27638
21732,27698
21661,27745
21583,27778
21499,27795
21414,27795
21330,27778
21251,27745
21180,27698
21120,27638
21072,27567
21040,27488
21023,27404
21023,27319
21040,27235
21072,27157
21120,27086
21180,27025
21251,26978
21330,26945
21414,26929
21499,26929
21583,26945
" /> 
<polyline style="fill-rule:evenodd;"
points="23619,25166
23634,25167
23664,25176
23693,25185
23748,25215
23796,25254
23835,25302
23865,25357
23865,25357
23883,25416
23889,25478
23883,25540
23865,25599
23835,25654
23796,25702
23748,25741
23693,25770
23664,25779
23634,25788
23619,25790
23588,25793
23557,25793
23526,25790
23511,25788
23481,25779
23451,25770
23397,25741
23349,25702
23309,25654
23280,25599
23262,25540
23256,25478
23262,25416
23280,25357
23280,25357
23309,25302
23349,25254
23397,25215
23451,25185
23481,25176
23511,25167
23526,25166
23557,25163
23588,25163
23619,25166
" /> 
<polyline style="fill-rule:evenodd;"
points="26619,25166
26634,25167
26664,25176
26693,25185
26748,25215
26796,25254
26835,25302
26865,25357
26865,25357
26883,25416
26889,25478
26883,25540
26865,25599
26835,25654
26796,25702
26748,25741
26693,25770
26664,25779
26634,25788
26619,25790
26588,25793
26557,25793
26526,25790
26511,25788
26481,25779
26451,25770
26397,25741
26349,25702
26309,25654
26280,25599
26262,25540
26256,25478
26262,25416
26280,25357
26280,25357
26309,25302
26349,25254
26397,25215
26451,25185
26481,25176
26511,25167
26526,25166
26557,25163
26588,25163
26619,25166
" /> 
<polyline style="fill-rule:evenodd;"
points="16959,24702
16959,24702
16959,24702
16990,24715
17043,24737
17119,24788
17184,24852
17234,24928
17269,25012
17287,25102
17287,25193
17269,25282
17234,25366
17184,25442
17119,25506
17043,25557
17005,25573
16959,25592
16959,25592
16959,25592
16870,25610
16779,25610
16689,25592
16689,25592
16689,25592
16644,25573
16605,25557
16529,25506
16465,25442
16414,25366
16379,25282
16362,25193
16362,25102
16379,25012
16414,24928
16465,24852
16529,24788
16605,24737
16658,24715
16689,24702
16689,24702
16689,24702
16779,24685
16870,24685
16959,24702
" /> 
<polyline style="fill-rule:evenodd;"
points="10928,24702
10928,24702
10928,24702
10959,24715
11012,24737
11088,24788
11152,24852
11203,24928
11238,25012
11255,25102
11255,25193
11238,25282
11203,25366
11152,25442
11088,25506
11012,25557
10973,25573
10928,25592
10928,25592
10928,25592
10838,25610
10747,25610
10658,25592
10658,25592
10658,25592
10612,25573
10574,25557
10498,25506
10433,25442
10383,25366
10348,25282
10330,25193
10330,25102
10348,25012
10383,24928
10433,24852
10498,24788
10574,24737
10627,24715
10658,24702
10658,24702
10658,24702
10747,24685
10838,24685
10928,24702
" /> 
<polyline style="fill-rule:evenodd;"
points="22126,24818
22197,24839
22262,24874
22319,24921
22366,24978
22401,25043
22422,25114
22428,25169
22428,25243
22422,25298
22401,25369
22366,25434
22319,25491
22262,25538
22197,25573
22126,25594
22053,25602
21979,25594
21908,25573
21843,25538
21843,25538
21843,25538
21786,25491
21786,25491
21786,25491
21739,25434
21705,25369
21683,25298
21678,25243
21678,25169
21683,25114
21705,25043
21739,24978
21786,24921
21843,24874
21908,24839
21979,24818
22053,24811
22126,24818
" /> 
<polyline style="fill-rule:evenodd;"
points="21126,24818
21197,24839
21262,24874
21319,24921
21366,24978
21401,25043
21422,25114
21428,25169
21428,25243
21422,25298
21401,25369
21366,25434
21319,25491
21262,25538
21197,25573
21126,25594
21053,25602
20979,25594
20908,25573
20843,25538
20843,25538
20843,25538
20786,25491
20786,25491
20786,25491
20739,25434
20705,25369
20683,25298
20678,25243
20678,25169
20683,25114
20705,25043
20739,24978
20786,24921
20843,24874
20908,24839
20979,24818
21053,24811
21126,24818
" /> 
<polyline style="fill-rule:evenodd;"
points="20428,25600
19678,25600
19678,24812
20428,24812
20428,25600
" /> 
<polyline style="fill-rule:evenodd;"
points="23887,24793
23257,24793
23257,24163
23887,24163
23887,24793
" /> 
<polyline style="fill-rule:evenodd;"
points="26619,24166
26634,24167
26664,24176
26693,24185
26748,24215
26796,24254
26835,24302
26865,24357
26883,24416
26889,24478
26883,24540
26865,24599
26835,24654
26796,24702
26748,24741
26693,24770
26664,24779
26634,24788
26619,24790
26588,24793
26557,24793
26526,24790
26511,24788
26481,24779
26451,24770
26397,24741
26349,24702
26309,24654
26280,24599
26262,24540
26256,24478
26262,24416
26280,24357
26309,24302
26349,24254
26397,24215
26451,24185
26481,24176
26511,24167
26526,24166
26557,24163
26588,24163
26619,24166
" /> 
<polyline style="fill-rule:evenodd;"
points="19950,23651
19084,23651
19084,22785
19950,22785
19950,23651
" /> 
<polyline style="fill-rule:evenodd;"
points="23602,22791
23684,22816
23684,22816
23759,22856
23825,22910
23879,22976
23898,23012
23919,23051
23944,23133
23952,23218
23944,23303
23925,23366
23919,23385
23879,23460
23825,23526
23759,23580
23703,23610
23684,23620
23602,23645
23538,23651
23496,23651
23432,23645
23351,23620
23331,23610
23275,23580
23210,23526
23155,23460
23115,23385
23110,23366
23090,23303
23082,23218
23090,23133
23115,23051
23136,23012
23155,22976
23210,22910
23275,22856
23351,22816
23351,22816
23432,22791
23496,22785
23538,22785
23602,22791
" /> 
<polyline style="fill-rule:evenodd;"
points="10928,22702
10928,22702
10928,22702
10959,22715
11012,22737
11088,22788
11152,22852
11203,22928
11238,23012
11255,23102
11255,23193
11238,23282
11203,23366
11152,23442
11088,23506
11012,23557
10959,23579
10928,23592
10928,23592
10928,23592
10838,23610
10747,23610
10658,23592
10658,23592
10658,23592
10627,23579
10574,23557
10498,23506
10433,23442
10383,23366
10348,23282
10330,23193
10330,23102
10348,23012
10383,22928
10433,22852
10498,22788
10574,22737
10627,22715
10658,22702
10658,22702
10658,22702
10747,22685
10838,22685
10928,22702
" /> 
<polyline style="fill-rule:evenodd;"
points="16959,22702
16959,22702
16959,22702
16990,22715
17043,22737
17119,22788
17184,22852
17234,22928
17269,23012
17287,23102
17287,23193
17269,23282
17234,23366
17184,23442
17119,23506
17043,23557
16990,23579
16959,23592
16959,23592
16959,23592
16870,23610
16779,23610
16689,23592
16689,23592
16689,23592
16658,23579
16605,23557
16529,23506
16465,23442
16414,23366
16379,23282
16362,23193
16362,23102
16379,23012
16414,22928
16465,22852
16529,22788
16605,22737
16658,22715
16689,22702
16689,22702
16689,22702
16779,22685
16870,22685
16959,22702
" /> 
<polyline style="fill-rule:evenodd;"
points="31545,23458
30875,23458
30875,22789
31545,22789
31545,23458
" /> 
<polyline style="fill-rule:evenodd;"
points="31244,21417
31290,21426
31361,21456
31426,21499
31481,21554
31524,21618
31553,21690
31568,21766
31568,21843
31553,21919
31524,21991
31481,22056
31426,22110
31361,22154
31290,22183
31244,22192
31213,22198
31136,22198
31105,22192
31060,22183
30988,22154
30924,22110
30869,22056
30826,21991
30796,21919
30781,21843
30781,21766
30796,21690
30826,21618
30869,21554
30924,21499
30988,21456
31060,21426
31105,21417
31136,21411
31213,21411
31244,21417
" /> 
<polyline style="fill-rule:evenodd;"
points="28685,21417
28730,21426
28802,21456
28867,21499
28921,21554
28965,21618
28994,21690
29009,21766
29009,21843
28994,21919
28965,21991
28921,22056
28867,22110
28802,22154
28730,22183
28685,22192
28654,22198
28577,22198
28546,22192
28501,22183
28429,22154
28365,22110
28310,22056
28267,21991
28237,21919
28222,21843
28222,21766
28237,21690
28267,21618
28310,21554
28365,21499
28429,21456
28501,21426
28546,21417
28577,21411
28654,21411
28685,21417
" /> 
<polyline style="fill-rule:evenodd;"
points="31244,19645
31290,19654
31361,19684
31426,19727
31481,19782
31524,19846
31553,19918
31568,19994
31568,20072
31553,20148
31524,20219
31481,20284
31426,20339
31361,20382
31290,20412
31244,20421
31213,20427
31136,20427
31105,20421
31060,20412
30988,20382
30924,20339
30869,20284
30826,20219
30796,20148
30781,20072
30781,19994
30796,19918
30826,19846
30869,19782
30924,19727
30988,19684
31060,19654
31105,19645
31136,19639
31213,19639
31244,19645
" /> 
<polyline style="fill-rule:evenodd;"
points="28685,19645
28730,19654
28802,19684
28867,19727
28921,19782
28965,19846
28994,19918
29009,19994
29009,20072
28994,20148
28965,20219
28921,20284
28867,20339
28802,20382
28730,20412
28685,20421
28654,20427
28577,20427
28546,20421
28501,20412
28429,20382
28365,20339
28310,20284
28267,20219
28237,20148
28222,20072
28222,19994
28237,19918
28267,19846
28310,19782
28365,19727
28429,19684
28501,19654
28546,19645
28577,19639
28654,19639
28685,19645
" /> 
<polyline style="fill-rule:evenodd;"
points="33035,19467
33078,19485
33117,19511
33150,19544
33175,19582
33193,19625
33202,19671
33202,19718
33193,19763
33175,19806
33150,19845
33117,19878
33078,19904
33035,19922
32989,19931
32943,19931
32897,19922
32854,19904
32815,19878
32783,19845
32757,19806
32739,19763
32730,19718
32730,19671
32739,19625
32757,19582
32783,19544
32815,19511
32854,19485
32897,19467
32943,19458
32989,19458
33035,19467
" /> 
<polyline style="fill-rule:evenodd;"
points="32444,19467
32487,19485
32526,19511
32559,19544
32585,19582
32603,19625
32612,19671
32612,19718
32603,19763
32585,19806
32559,19845
32526,19878
32487,19904
32444,19922
32399,19931
32352,19931
32307,19922
32264,19904
32225,19878
32192,19845
32166,19806
32148,19763
32139,19718
32139,19671
32148,19625
32166,19582
32192,19544
32225,19511
32264,19485
32307,19467
32352,19458
32399,19458
32444,19467
" /> 
<polyline style="fill-rule:evenodd;"
points="34620,19852
33950,19852
33950,19183
34620,19183
34620,19852
" /> 
<polyline style="fill-rule:evenodd;"
points="21568,19753
20387,19753
20387,18572
21568,18572
21568,19753
" /> 
<polyline style="fill-rule:evenodd;"
points="23112,18587
23150,18595
23258,18640
23353,18703
23354,18704
23437,18786
23501,18883
23546,18991
23568,19105
23568,19221
23546,19335
23501,19443
23437,19539
23354,19622
23354,19622
23258,19686
23150,19731
23112,19738
23036,19753
22920,19753
22844,19738
22806,19731
22698,19686
22601,19622
22601,19622
22519,19539
22455,19443
22410,19335
22387,19221
22387,19105
22410,18991
22455,18883
22519,18786
22601,18704
22603,18703
22698,18640
22806,18595
22844,18587
22920,18572
23036,18572
23112,18587
" /> 
<polyline style="fill-rule:evenodd;"
points="36129,17676
36172,17694
36211,17720
36244,17752
36270,17791
36288,17834
36297,17880
36297,17926
36288,17972
36270,18015
36244,18054
36211,18087
36172,18112
36129,18130
36084,18139
36037,18139
35992,18130
35949,18112
35910,18087
35877,18054
35851,18015
35833,17972
35824,17926
35824,17880
35833,17834
35851,17791
35877,17752
35910,17720
35949,17694
35992,17676
36037,17667
36084,17667
36129,17676
" /> 
<polyline style="fill-rule:evenodd;"
points="35539,17676
35582,17694
35621,17720
35653,17752
35679,17791
35697,17834
35706,17880
35706,17926
35697,17972
35679,18015
35653,18054
35621,18087
35582,18112
35539,18130
35493,18139
35447,18139
35401,18130
35358,18112
35319,18087
35286,18054
35261,18015
35243,17972
35234,17926
35234,17880
35243,17834
35261,17791
35286,17752
35319,17720
35358,17694
35401,17676
35447,17667
35493,17667
35539,17676
" /> 
<polyline style="fill-rule:evenodd;"
points="34338,17676
34381,17694
34420,17720
34453,17752
34479,17791
34496,17834
34505,17880
34505,17926
34496,17972
34479,18015
34453,18054
34420,18087
34381,18112
34338,18130
34292,18139
34246,18139
34200,18130
34157,18112
34119,18087
34086,18054
34060,18015
34042,17972
34033,17926
34033,17880
34042,17834
34060,17791
34086,17752
34119,17720
34157,17694
34200,17676
34246,17667
34292,17667
34338,17676
" /> 
<polyline style="fill-rule:evenodd;"
points="33748,17676
33791,17694
33829,17720
33862,17752
33888,17791
33906,17834
33915,17880
33915,17926
33906,17972
33888,18015
33862,18054
33829,18087
33791,18112
33748,18130
33702,18139
33655,18139
33610,18130
33567,18112
33528,18087
33495,18054
33469,18015
33451,17972
33442,17926
33442,17880
33451,17834
33469,17791
33495,17752
33528,17720
33567,17694
33610,17676
33655,17667
33702,17667
33748,17676
" /> 
<polyline style="fill-rule:evenodd;"
points="25239,17053
25296,17077
25348,17111
25392,17155
25426,17207
25450,17264
25462,17325
25462,17387
25450,17448
25426,17505
25392,17557
25348,17600
25296,17635
25239,17659
25178,17671
25116,17671
25055,17659
24998,17635
24946,17600
24902,17557
24868,17505
24844,17448
24832,17387
24832,17325
24844,17264
24868,17207
24902,17155
24946,17111
24998,17077
25055,17053
25116,17041
25178,17041
25239,17053
" /> 
<polyline style="fill-rule:evenodd;"
points="27208,17053
27265,17077
27316,17111
27360,17155
27395,17207
27418,17264
27431,17325
27431,17387
27418,17448
27395,17505
27360,17557
27316,17600
27265,17635
27208,17659
27147,17671
27085,17671
27024,17659
26966,17635
26915,17600
26871,17557
26837,17505
26813,17448
26801,17387
26801,17325
26813,17264
26837,17207
26871,17155
26915,17111
26966,17077
27024,17053
27085,17041
27147,17041
27208,17053
" /> 
<polyline style="fill-rule:evenodd;"
points="20685,16546
20748,16565
20806,16596
20857,16638
20899,16689
20930,16747
20949,16810
20956,16875
20949,16941
20930,17004
20899,17062
20857,17113
20806,17155
20748,17186
20685,17205
20636,17210
20603,17210
20554,17205
20491,17186
20433,17155
20382,17113
20340,17062
20309,17004
20290,16941
20283,16875
20290,16810
20309,16747
20340,16689
20382,16638
20433,16596
20491,16565
20554,16546
20603,16541
20636,16541
20685,16546
" /> 
<polyline style="fill-rule:evenodd;"
points="23066,15892
23123,15915
23175,15950
23219,15994
23253,16045
23277,16103
23289,16163
23289,16225
23277,16286
23253,16344
23219,16395
23175,16439
23123,16473
23066,16497
23005,16509
22943,16509
22882,16497
22825,16473
22773,16439
22729,16395
22695,16344
22671,16286
22659,16225
22659,16163
22671,16103
22695,16045
22729,15994
22773,15950
22825,15915
22882,15892
22943,15879
23005,15879
23066,15892
" /> 
<polyline style="fill-rule:evenodd;"
points="21885,15892
21942,15915
21994,15950
22037,15994
22072,16045
22096,16103
22108,16163
22108,16225
22096,16286
22072,16344
22037,16395
21994,16439
21942,16473
21885,16497
21824,16509
21762,16509
21701,16497
21644,16473
21592,16439
21548,16395
21514,16344
21490,16286
21478,16225
21478,16163
21490,16103
21514,16045
21548,15994
21592,15950
21644,15915
21701,15892
21762,15879
21824,15879
21885,15892
" /> 
<polyline style="fill-rule:evenodd;"
points="33662,15816
33706,15829
33748,15851
33783,15881
33813,15917
33835,15958
33848,16002
33853,16049
33848,16095
33835,16140
33813,16181
33783,16217
33748,16246
33706,16268
33662,16282
33627,16285
33604,16285
33569,16282
33525,16268
33484,16246
33448,16217
33418,16181
33396,16140
33383,16095
33378,16049
33383,16002
33396,15958
33418,15917
33448,15881
33484,15851
33525,15829
33569,15816
33604,15812
33627,15812
33662,15816
" /> 
<polyline style="fill-rule:evenodd;"
points="20685,15546
20748,15565
20806,15596
20857,15638
20899,15689
20930,15747
20949,15810
20956,15875
20949,15941
20930,16004
20899,16062
20857,16113
20806,16155
20748,16186
20685,16205
20636,16210
20603,16210
20554,16205
20491,16186
20433,16155
20382,16113
20340,16062
20309,16004
20290,15941
20283,15875
20290,15810
20309,15747
20340,15689
20382,15638
20433,15596
20491,15565
20554,15546
20603,15541
20636,15541
20685,15546
" /> 
<polyline style="fill-rule:evenodd;"
points="36244,15550
36287,15568
36325,15594
36358,15626
36384,15665
36402,15708
36411,15754
36411,15800
36402,15846
36384,15889
36358,15928
36325,15961
36287,15986
36244,16004
36198,16013
36151,16013
36106,16004
36063,15986
36024,15961
35991,15928
35965,15889
35948,15846
35938,15800
35938,15754
35948,15708
35965,15665
35991,15626
36024,15594
36063,15568
36106,15550
36151,15541
36198,15541
36244,15550
" /> 
<polyline style="fill-rule:evenodd;"
points="36834,15550
36877,15568
36916,15594
36949,15626
36975,15665
36992,15708
37001,15754
37001,15800
36992,15846
36975,15889
36949,15928
36916,15961
36877,15986
36834,16004
36789,16013
36742,16013
36696,16004
36653,15986
36615,15961
36582,15928
36556,15889
36538,15846
36529,15800
36529,15754
36538,15708
36556,15665
36582,15626
36615,15594
36653,15568
36696,15550
36742,15541
36789,15541
36834,15550
" /> 
<polyline style="fill-rule:evenodd;"
points="32741,14816
32785,14829
32826,14851
32862,14881
32892,14917
32914,14958
32927,15002
32932,15049
32927,15095
32914,15140
32892,15181
32862,15217
32826,15246
32785,15268
32741,15282
32706,15285
32525,15285
32491,15282
32446,15268
32405,15246
32369,15217
32340,15181
32318,15140
32304,15095
32300,15049
32304,15002
32318,14958
32340,14917
32369,14881
32405,14851
32446,14829
32491,14816
32525,14812
32706,14812
32741,14816
" /> 
<polyline style="fill-rule:evenodd;"
points="34662,14816
34706,14829
34748,14851
34783,14881
34813,14917
34835,14958
34848,15002
34853,15049
34848,15095
34835,15140
34813,15181
34783,15217
34748,15246
34706,15268
34662,15282
34627,15285
34604,15285
34569,15282
34525,15268
34484,15246
34448,15217
34418,15181
34396,15140
34383,15095
34378,15049
34383,15002
34396,14958
34418,14917
34448,14881
34484,14851
34525,14829
34569,14816
34604,14812
34627,14812
34662,14816
" /> 
<polyline style="fill-rule:evenodd;"
points="20685,14546
20748,14565
20806,14596
20857,14638
20899,14689
20930,14747
20949,14810
20956,14875
20949,14941
20930,15004
20899,15062
20857,15113
20806,15155
20748,15186
20685,15205
20636,15210
20603,15210
20554,15205
20491,15186
20433,15155
20382,15113
20340,15062
20309,15004
20290,14941
20283,14875
20290,14810
20309,14747
20340,14689
20382,14638
20433,14596
20491,14565
20554,14546
20603,14541
20636,14541
20685,14546
" /> 
<polyline style="fill-rule:evenodd;"
points="23469,14286
23539,14308
23605,14343
23662,14390
23708,14447
23743,14512
23765,14582
23770,14638
23770,14712
23765,14767
23743,14838
23708,14903
23662,14960
23605,15007
23539,15042
23469,15063
23395,15070
23322,15063
23251,15042
23186,15007
23186,15007
23186,15007
23129,14960
23129,14960
23129,14960
23082,14903
23047,14838
23026,14767
23020,14712
23020,14638
23026,14582
23047,14512
23082,14447
23129,14390
23186,14343
23251,14308
23322,14286
23395,14279
23469,14286
" /> 
<polyline style="fill-rule:evenodd;"
points="24469,14286
24539,14308
24605,14343
24662,14390
24708,14447
24743,14512
24765,14582
24770,14638
24770,14712
24765,14767
24743,14838
24708,14903
24662,14960
24605,15007
24539,15042
24469,15063
24395,15070
24322,15063
24251,15042
24186,15007
24186,15007
24186,15007
24129,14960
24129,14960
24129,14960
24082,14903
24047,14838
24026,14767
24020,14712
24020,14638
24026,14582
24047,14512
24082,14447
24129,14390
24186,14343
24251,14308
24322,14286
24395,14279
24469,14286
" /> 
<polyline style="fill-rule:evenodd;"
points="22770,15068
22020,15068
22020,14281
22770,14281
22770,15068
" /> 
<polyline style="fill-rule:evenodd;"
points="36432,14222
35960,14222
35960,13750
36432,13750
36432,14222
" /> 
<polyline style="fill-rule:evenodd;"
points="36856,13759
36899,13776
36937,13802
36970,13835
36996,13874
37014,13917
37023,13962
37023,14009
37014,14055
36996,14098
36970,14136
36937,14169
36899,14195
36856,14213
36810,14222
36764,14222
36718,14213
36675,14195
36636,14169
36603,14136
36577,14098
36560,14055
36551,14009
36551,13962
36560,13917
36577,13874
36603,13835
36636,13802
36675,13776
36718,13759
36764,13750
36810,13750
36856,13759
" /> 
<polyline style="fill-rule:evenodd;"
points="20685,13546
20748,13565
20806,13596
20857,13638
20899,13689
20930,13747
20949,13810
20956,13875
20949,13941
20930,14004
20899,14062
20857,14113
20806,14155
20748,14186
20685,14205
20636,14210
20603,14210
20554,14205
20491,14186
20433,14155
20382,14113
20340,14062
20309,14004
20290,13941
20283,13875
20290,13810
20309,13747
20340,13689
20382,13638
20433,13596
20491,13565
20554,13546
20603,13541
20636,13541
20685,13546
" /> 
<polyline style="fill-rule:evenodd;"
points="20685,12546
20748,12565
20806,12596
20857,12638
20899,12689
20930,12747
20949,12810
20956,12875
20949,12941
20930,13004
20899,13062
20857,13113
20806,13155
20748,13186
20685,13205
20636,13210
20603,13210
20554,13205
20491,13186
20433,13155
20382,13113
20340,13062
20309,13004
20290,12941
20283,12875
20290,12810
20309,12747
20340,12689
20382,12638
20433,12596
20491,12565
20554,12546
20603,12541
20636,12541
20685,12546
" /> 
<polyline style="fill-rule:evenodd;"
points="31259,12725
31301,12742
31338,12767
31370,12799
31395,12836
31412,12878
31421,12922
31421,12967
31412,13011
31395,13053
31370,13090
31338,13122
31301,13147
31259,13164
31215,13173
31170,13173
31126,13164
31084,13147
31047,13122
31015,13090
30990,13053
30973,13011
30964,12967
30964,12922
30973,12878
30990,12836
31015,12799
31047,12767
31084,12742
31126,12725
31170,12716
31215,12716
31259,12725
" /> 
<polyline style="fill-rule:evenodd;"
points="28011,12725
28053,12742
28090,12767
28122,12799
28147,12836
28164,12878
28173,12922
28173,12967
28164,13011
28147,13053
28122,13090
28090,13122
28053,13147
28011,13164
27967,13173
27922,13173
27878,13164
27836,13147
27799,13122
27767,13090
27742,13053
27725,13011
27716,12967
27716,12922
27725,12878
27742,12836
27767,12799
27799,12767
27836,12742
27878,12725
27922,12716
27967,12716
28011,12725
" /> 
<polyline style="fill-rule:evenodd;"
points="26527,11165
26571,11174
26679,11218
26774,11282
26776,11283
26858,11365
26858,11365
26922,11462
26955,11541
26967,11569
26990,11683
26990,11800
26988,11810
26967,11914
26935,11990
26922,12021
26858,12118
26776,12200
26776,12200
26679,12265
26571,12309
26533,12317
26457,12332
26341,12332
26265,12317
26227,12309
26119,12265
26023,12200
26023,12200
25940,12118
25876,12021
25863,11990
25831,11914
25811,11810
25809,11800
25809,11683
25831,11569
25843,11541
25876,11462
25940,11365
25940,11365
26023,11283
26024,11282
26119,11218
26227,11174
26272,11165
26341,11151
26457,11151
26527,11165
" /> 
<polyline style="fill-rule:evenodd;"
points="24527,11165
24571,11174
24679,11218
24774,11282
24776,11283
24858,11365
24858,11365
24922,11462
24955,11541
24967,11569
24990,11683
24990,11800
24988,11810
24967,11914
24935,11990
24922,12021
24858,12118
24776,12200
24776,12200
24679,12265
24571,12309
24533,12317
24457,12332
24341,12332
24265,12317
24227,12309
24119,12265
24023,12200
24023,12200
23940,12118
23876,12021
23863,11990
23831,11914
23811,11810
23809,11800
23809,11683
23831,11569
23843,11541
23876,11462
23940,11365
23940,11365
24023,11283
24024,11282
24119,11218
24227,11174
24272,11165
24341,11151
24457,11151
24527,11165
" /> 
<polyline style="fill-rule:evenodd;"
points="22990,12332
21809,12332
21809,11151
22990,11151
22990,12332
" /> 
<polyline style="fill-rule:evenodd;"
points="20685,11546
20748,11565
20806,11596
20857,11638
20899,11689
20930,11747
20949,11810
20956,11875
20949,11941
20930,12004
20899,12062
20857,12113
20806,12155
20748,12186
20685,12205
20636,12210
20603,12210
20554,12205
20491,12186
20433,12155
20382,12113
20340,12062
20309,12004
20290,11941
20283,11875
20290,11810
20309,11747
20340,11689
20382,11638
20433,11596
20491,11565
20554,11546
20603,11541
20636,11541
20685,11546
" /> 
<polyline style="fill-rule:evenodd;"
points="20954,11210
20285,11210
20285,10541
20954,10541
20954,11210
" /> 
<polyline style="fill-rule:evenodd;"
points="28011,10717
28053,10734
28090,10759
28122,10791
28147,10828
28164,10870
28173,10914
28173,10959
28164,11003
28147,11045
28122,11082
28090,11114
28053,11139
28011,11156
27967,11165
27922,11165
27878,11156
27836,11139
27799,11114
27767,11082
27742,11045
27725,11003
27716,10959
27716,10914
27725,10870
27742,10828
27767,10791
27799,10759
27836,10734
27878,10717
27922,10708
27967,10708
28011,10717
" /> 
<polyline style="fill-rule:evenodd;"
points="31259,10717
31301,10734
31338,10759
31370,10791
31395,10828
31412,10870
31421,10914
31421,10959
31412,11003
31395,11045
31370,11082
31338,11114
31301,11139
31259,11156
31215,11165
31170,11165
31126,11156
31084,11139
31047,11114
31015,11082
30990,11045
30973,11003
30964,10959
30964,10914
30973,10870
30990,10828
31015,10791
31047,10759
31084,10734
31126,10717
31170,10708
31215,10708
31259,10717
" /> 
</g> 
</svg>
