<?xml version="1.0" standalone="no"?>
 <!DOCTYPE svg PUBLIC "-//W3C//DTD SVG 1.1//EN" 
 "http://www.w3.org/Graphics/SVG/1.1/DTD/svg11.dtd"> 
<svg xmlns="http://www.w3.org/2000/svg" version="1.1" 
    width="12.9997cm" height="18.001cm" viewBox="0 0 51180 70870 ">
<title>SVG Picture created as ceiling-light-dimmable-F.SilkS.svg date 2019/08/02 05:00:31 </title>
  <desc>Picture generated by PCBNEW </desc>
<g style="fill:#000000; fill-opacity:1;stroke:#000000; stroke-opacity:1;
stroke-linecap:round; stroke-linejoin:round; "
 transform="translate(0 0) scale(1 1)">
</g>
<g style="fill:#000000; fill-opacity:0.0; 
stroke:#000000; stroke-width:-0.000393701; stroke-opacity:1; 
stroke-linecap:round; stroke-linejoin:round;">
</g>
<g style="fill:#000000; fill-opacity:0.0; 
stroke:#000000; stroke-width:59.0551; stroke-opacity:1; 
stroke-linecap:round; stroke-linejoin:round;">
<path d="M35643 10836
L35643 12372
" />
<path d="M35643 12372
L37572 12372
" />
<path d="M37572 10836
L37572 12372
" />
<path d="M35643 10836
L37572 10836
" />
</g>
<g style="fill:#000000; fill-opacity:0.0; 
stroke:#000000; stroke-width:196.85; stroke-opacity:1; 
stroke-linecap:round; stroke-linejoin:round;">
<circle cx="35939" cy="12076.8" r="98.4252" /> 
</g>
<g style="fill:#000000; fill-opacity:0.0; 
stroke:#000000; stroke-width:47.2441; stroke-opacity:1; 
stroke-linecap:round; stroke-linejoin:round;">
<path d="M27277 20387
L27277 21411
" />
<path d="M24797 22257
L24797 22159
" />
<path d="M27277 22257
L24797 22257
" />
<path d="M27277 22159
L27277 22257
" />
<path d="M24797 21411
L24797 20387
" />
<path d="M27277 19541
L27277 19639
" />
<path d="M24797 19541
L27277 19541
" />
<path d="M24797 19639
L24797 19541
" />
<path d="M32395 10364
L32395 10265
" />
<path d="M32395 10265
L34875 10265
" />
<path d="M34875 10265
L34875 10364
" />
<path d="M32395 12135
L32395 11112
" />
<path d="M34875 12883
L34875 12982
" />
<path d="M34875 12982
L32395 12982
" />
<path d="M32395 12982
L32395 12883
" />
<path d="M34875 11112
L34875 12135
" />
<path d="M29009 22198
L30781 22198
" />
<path d="M28517 20624
L28517 21214
" />
<path d="M30781 19639
L29009 19639
" />
<path d="M31273 21214
L31273 20624
" />
<circle cx="36492" cy="13986.2" r="834.646" /> 
<path d="M36492 14316
L36492 14805
" />
<path d="M36492 13167
L36492 13655
" />
<path d="M36507 14316
L36507 14805
" />
<path d="M36507 13167
L36507 13655
" />
<path d="M36523 14316
L36523 14804
" />
<path d="M36523 13167
L36523 13655
" />
<path d="M36539 13168
L36539 13655
" />
<path d="M36539 14316
L36539 14803
" />
<path d="M36555 13169
L36555 13655
" />
<path d="M36555 14316
L36555 14802
" />
<path d="M36570 13170
L36570 13655
" />
<path d="M36570 14316
L36570 14801
" />
<path d="M36586 13172
L36586 13655
" />
<path d="M36586 14316
L36586 14800
" />
<path d="M36602 13174
L36602 13655
" />
<path d="M36602 14316
L36602 14798
" />
<path d="M36618 13176
L36618 13655
" />
<path d="M36618 14316
L36618 14795
" />
<path d="M36633 13179
L36633 13655
" />
<path d="M36633 14316
L36633 14793
" />
<path d="M36649 13182
L36649 13655
" />
<path d="M36649 14316
L36649 14790
" />
<path d="M36665 13185
L36665 13655
" />
<path d="M36665 14316
L36665 14787
" />
<path d="M36681 13188
L36681 13655
" />
<path d="M36681 14316
L36681 14783
" />
<path d="M36696 13192
L36696 13655
" />
<path d="M36696 14316
L36696 14779
" />
<path d="M36712 13196
L36712 13655
" />
<path d="M36712 14316
L36712 14775
" />
<path d="M36728 13201
L36728 13655
" />
<path d="M36728 14316
L36728 14771
" />
<path d="M36744 13205
L36744 13655
" />
<path d="M36744 14316
L36744 14766
" />
<path d="M36759 13211
L36759 13655
" />
<path d="M36759 14316
L36759 14761
" />
<path d="M36775 13216
L36775 13655
" />
<path d="M36775 14316
L36775 14755
" />
<path d="M36791 13222
L36791 13655
" />
<path d="M36791 14316
L36791 14750
" />
<path d="M36807 13228
L36807 13655
" />
<path d="M36807 14316
L36807 14743
" />
<path d="M36823 13235
L36823 13655
" />
<path d="M36823 14316
L36823 14737
" />
<path d="M36838 13242
L36838 13655
" />
<path d="M36838 14316
L36838 14729
" />
<path d="M36854 13250
L36854 13655
" />
<path d="M36854 14316
L36854 14722
" />
<path d="M36870 13257
L36870 13655
" />
<path d="M36870 14316
L36870 14714
" />
<path d="M36886 13265
L36886 13655
" />
<path d="M36886 14316
L36886 14706
" />
<path d="M36901 13274
L36901 13655
" />
<path d="M36901 14316
L36901 14698
" />
<path d="M36917 13283
L36917 13655
" />
<path d="M36917 14316
L36917 14688
" />
<path d="M36933 13293
L36933 13655
" />
<path d="M36933 14316
L36933 14679
" />
<path d="M36949 13303
L36949 13655
" />
<path d="M36949 14316
L36949 14669
" />
<path d="M36964 13313
L36964 13655
" />
<path d="M36964 14316
L36964 14658
" />
<path d="M36980 13324
L36980 13655
" />
<path d="M36980 14316
L36980 14647
" />
<path d="M36996 13336
L36996 13655
" />
<path d="M36996 14316
L36996 14635
" />
<path d="M37012 13348
L37012 13655
" />
<path d="M37012 14316
L37012 14623
" />
<path d="M37027 13361
L37027 13655
" />
<path d="M37027 14316
L37027 14611
" />
<path d="M37043 13375
L37043 13655
" />
<path d="M37043 14316
L37043 14597
" />
<path d="M37059 13389
L37059 13655
" />
<path d="M37059 14316
L37059 14583
" />
<path d="M37075 13404
L37075 13655
" />
<path d="M37075 14316
L37075 14568
" />
<path d="M37090 13420
L37090 13655
" />
<path d="M37090 14316
L37090 14552
" />
<path d="M37106 13436
L37106 13655
" />
<path d="M37106 14316
L37106 14535
" />
<path d="M37122 13454
L37122 14518
" />
<path d="M37138 13472
L37138 14499
" />
<path d="M37153 13492
L37153 14479
" />
<path d="M37169 13513
L37169 14458
" />
<path d="M37185 13536
L37185 14435
" />
<path d="M37201 13561
L37201 14411
" />
<path d="M37216 13587
L37216 14385
" />
<path d="M37232 13616
L37232 14356
" />
<path d="M37248 13648
L37248 14324
" />
<path d="M37264 13683
L37264 14288
" />
<path d="M37279 13724
L37279 14247
" />
<path d="M37295 13774
L37295 14197
" />
<path d="M37311 13840
L37311 14131
" />
<path d="M35598 13515
L35755 13515
" />
<path d="M35677 13437
L35677 13594
" />
<circle cx="26131.9" cy="17356.3" r="2015.75" /> 
<circle cx="33974.4" cy="17903.5" r="834.646" /> 
<circle cx="36470.5" cy="15777.6" r="834.646" /> 
<circle cx="35765.7" cy="17903.5" r="834.646" /> 
<circle cx="32671.3" cy="19694.9" r="834.646" /> 
<path d="M31210 22600
L31734 22600
" />
<path d="M31734 22600
L31734 23124
" />
<path d="M31734 23600
L31734 23647
" />
<path d="M30687 23600
L30687 23647
" />
<path d="M30687 23647
L31734 23647
" />
<path d="M33761 20041
L34809 20041
" />
<path d="M33761 19994
L33761 20041
" />
<path d="M34809 19994
L34809 20041
" />
<path d="M34809 18994
L34809 19517
" />
<path d="M34285 18994
L34809 18994
" />
<path d="M20096 11375
L21143 11375
" />
<path d="M20096 11375
L20096 17399
" />
<path d="M20096 17399
L21143 17399
" />
<path d="M21143 11375
L21143 17399
" />
<path d="M21143 10352
L21143 10875
" />
<path d="M20620 10352
L21143 10352
" />
<path d="M20446 22639
L20446 23797
" />
<path d="M20446 23797
L22588 23797
" />
<path d="M22588 23797
L22588 22639
" />
<path d="M22588 22639
L20446 22639
" />
<path d="M20045 23218
L20446 23218
" />
<path d="M22990 23218
L22588 23218
" />
<path d="M20801 22639
L20801 23797
" />
<path d="M20848 22639
L20848 23797
" />
<path d="M20753 22639
L20753 23797
" />
</g>
<g style="fill:#000000; fill-opacity:0.0; 
stroke:#000000; stroke-width:78.7402; stroke-opacity:1; 
stroke-linecap:round; stroke-linejoin:round;">
<path d="M28289 13616
L30848 13616
" />
<path d="M27716 10265
L30848 10265
" />
</g>
<g style="fill:#000000; fill-opacity:0.0; 
stroke:#000000; stroke-width:47.2441; stroke-opacity:1; 
stroke-linecap:round; stroke-linejoin:round;">
<path d="M15088 24147
L12529 24147
" />
<path d="M18875 25498
L17375 25498
" />
<path d="M15076 25498
L16273 25498
" />
<path d="M16061 25147
L16273 25147
" />
<path d="M18525 25147
L17474 25147
" />
<path d="M15076 23147
L16175 23147
" />
<path d="M18525 23147
L17474 23147
" />
<path d="M18875 22797
L17427 22797
" />
<path d="M15076 22797
L16226 22797
" />
<path d="M8742 25498
L10194 25498
" />
<path d="M12494 25498
L11391 25498
" />
<path d="M11494 25147
L11442 25147
" />
<path d="M11494 25147
L12494 25147
" />
<path d="M9045 25147
L10143 25147
" />
<path d="M8742 22797
L10242 22797
" />
<path d="M12494 22797
L11391 22797
" />
<path d="M12494 23147
L11442 23147
" />
<path d="M9045 23147
L10143 23147
" />
<path d="M18875 22797
L18875 25498
" />
<path d="M15076 25498
L15076 25147
" />
<path d="M15076 22797
L15076 23147
" />
<path d="M8742 22797
L8742 25498
" />
<path d="M12494 25498
L12494 25147
" />
<path d="M12494 22797
L12494 23198
" />
<path d="M16061 25147
L11458 25147
" />
<path d="M11509 23147
L16061 23147
" />
<path d="M12494 24147
L12494 23147
" />
<path d="M9045 23147
L9045 25147
" />
<path d="M12494 25147
L12494 24147
" />
<path d="M15076 24147
L15076 23147
" />
<path d="M18525 23147
L18525 25147
" />
<path d="M15076 25147
L15076 24147
" />
<path d="M28232 15893
L31106 15893
" />
<path d="M28232 18059
L31106 18059
" />
<path d="M31106 18059
L31106 17606
" />
<path d="M21832 17021
L22935 17021
" />
<path d="M21832 15368
L22935 15368
" />
<path d="M22929.5 17025.3 A993.656 993.656 0.0 0 0 22935 15368.1 " />
<path d="M21838.2 15364.5 A993.656 993.656 0.0 0 0 21832.7 17021.7 " />
<path d="M24679.1 23954.7 A393.701 393.701 0.0 0 0 25466.5 23954.7 " />
<path d="M24679 23954
L24029 23954
" />
<path d="M24029 23954
L24029 26001
" />
<path d="M24029 26001
L26116 26001
" />
<path d="M26116 26001
L26116 23954
" />
<path d="M26116 23954
L25466 23954
" />
</g>
<g style="fill:#000000; fill-opacity:0.0; 
stroke:#000000; stroke-width:59.0551; stroke-opacity:1; 
stroke-linecap:round; stroke-linejoin:round;">
<path d="M28870 13783
L28870 13803
" />
<path d="M30503 13783
L30503 13840
" />
<path d="M30503 15811
L30503 15753
" />
<path d="M28870 15811
L28870 15753
" />
<path d="M28870 13783
L30503 13783
" />
<path d="M28870 15811
L30503 15811
" />
<path d="M28870 13803
L28318 13803
" />
</g>
<g style="fill:#000000; fill-opacity:0.0; 
stroke:#000000; stroke-width:47.2441; stroke-opacity:1; 
stroke-linecap:round; stroke-linejoin:round;">
<path d="M29501 25175
L29501 24679
" />
<path d="M29501 22490
L29501 22986
" />
<path d="M28021 25175
L29501 25175
" />
<path d="M27135 22490
L29501 22490
" />
<path d="M21781 23919
L21781 24513
" />
<path d="M20324 23919
L20324 24513
" />
<path d="M19037 24513
L23068 24513
" />
<path d="M23068 23919
L23068 25746
" />
<path d="M19037 23919
L19037 25746
" />
<path d="M19037 25746
L23068 25746
" />
<path d="M19037 23919
L23068 23919
" />
<path d="M21379 13387
L25411 13387
" />
<path d="M21379 15214
L25411 15214
" />
<path d="M21379 13387
L21379 15214
" />
<path d="M25411 13387
L25411 15214
" />
<path d="M21379 13982
L25411 13982
" />
<path d="M22667 13387
L22667 13982
" />
<path d="M24124 13387
L24124 13982
" />
<path d="M32436 13563
L32085 13212
" />
<path d="M32085 13212
L31779 13518
" />
<path d="M31779 13518
L32129 13869
" />
<path d="M32130 13869.1 A1897.64 1897.64 0.0 1 0 32436.2 13563 " />
</g>
<g style="fill:#000000; fill-opacity:0.0; 
stroke:#000000; stroke-width:50; stroke-opacity:1; 
stroke-linecap:round; stroke-linejoin:round;">
<path d="M22362 34330
L22362 26456
" />
<path d="M8976 26456
L8976 34330
" />
<path d="M8976 34330
L22362 34330
" />
<path d="M22362 26456
L8976 26456
" />
</g>
<g style="fill:#000000; fill-opacity:0.0; 
stroke:#000000; stroke-width:47.2441; stroke-opacity:1; 
stroke-linecap:round; stroke-linejoin:round;">
<path d="M10690 22017
L10690 22324
" />
<path d="M10690 22324
L11084 22324
" />
<path d="M17872 22017
L17872 22324
" />
<path d="M17872 22324
L17478 22324
" />
<path d="M10690 12188
L17872 12188
" />
<path d="M17872 12188
L17872 14716
" />
<path d="M10690 12188
L10690 14716
" />
<path d="M10690 14716
L10541 14716
" />
<path d="M31867 17100
L32341 17100
" />
<path d="M31867 17816
L32341 17816
" />
<path d="M28946 18891
L29420 18891
" />
<path d="M28946 18175
L29420 18175
" />
<path d="M24796 22458
L25270 22458
" />
<path d="M24796 23175
L25270 23175
" />
<path d="M22587 22458
L23061 22458
" />
<path d="M22587 21742
L23061 21742
" />
<path d="M20638 21742
L21113 21742
" />
<path d="M20638 22458
L21113 22458
" />
<path d="M22587 21557
L23061 21557
" />
<path d="M22587 20840
L23061 20840
" />
<path d="M26209 14320
L26683 14320
" />
<path d="M26209 15037
L26683 15037
" />
<path d="M26209 14135
L26683 14135
" />
<path d="M26209 13419
L26683 13419
" />
<path d="M20638 20840
L21113 20840
" />
<path d="M20638 21557
L21113 21557
" />
<path d="M23978 20163
L19978 20163
" />
<path d="M23978 20663
L23978 17663
" />
<path d="M23978 17663
L19978 17663
" />
<path d="M19978 17663
L19978 20663
" />
<path d="M19978 20663
L23978 20663
" />
<path d="M21399 13242
L21399 10242
" />
<path d="M27399 13242
L27399 10242
" />
<path d="M21399 12742
L27399 12742
" />
<path d="M21399 10242
L27399 10242
" />
<path d="M21399 13242
L27399 13242
" />
</g>
<g style="fill:#000000; fill-opacity:0.0; 
stroke:#000000; stroke-width:59.0551; stroke-opacity:1; 
stroke-linecap:round; stroke-linejoin:round;">
<path d="M36308 9420
L36308 9738
L36327 9776
L36345 9795
L36383 9813
L36458 9813
L36495 9795
L36514 9776
L36533 9738
L36533 9420
" />
<path d="M36889 9551
L36889 9813
" />
<path d="M36795 9401
L36702 9682
L36945 9682
" />
<path d="M25512 19287
L25568 19306
L25662 19306
L25699 19287
L25718 19268
L25737 19231
L25737 19193
L25718 19156
L25699 19137
L25662 19118
L25587 19099
L25549 19081
L25531 19062
L25512 19024
L25512 18987
L25531 18949
L25549 18931
L25587 18912
L25681 18912
L25737 18931
" />
<path d="M25868 18912
L25962 19306
L26037 19024
L26112 19306
L26206 18912
" />
<path d="M26318 18912
L26562 18912
L26431 19062
L26487 19062
L26524 19081
L26543 19099
L26562 19137
L26562 19231
L26543 19268
L26524 19287
L26487 19306
L26374 19306
L26337 19287
L26318 19268
" />
<path d="M33110 10011
L33167 10030
L33260 10030
L33298 10011
L33317 9992
L33335 9955
L33335 9917
L33317 9880
L33298 9861
L33260 9842
L33185 9824
L33148 9805
L33129 9786
L33110 9749
L33110 9711
L33129 9674
L33148 9655
L33185 9636
L33279 9636
L33335 9655
" />
<path d="M33467 9636
L33560 10030
L33635 9749
L33710 10030
L33804 9636
" />
<path d="M33935 9674
L33954 9655
L33992 9636
L34085 9636
L34123 9655
L34142 9674
L34160 9711
L34160 9749
L34142 9805
L33917 10030
L34160 10030
" />
<path d="M29370 19405
L29426 19424
L29520 19424
L29558 19405
L29576 19386
L29595 19349
L29595 19311
L29576 19274
L29558 19255
L29520 19236
L29445 19217
L29408 19199
L29389 19180
L29370 19142
L29370 19105
L29389 19067
L29408 19049
L29445 19030
L29539 19030
L29595 19049
" />
<path d="M29726 19030
L29820 19424
L29895 19142
L29970 19424
L30064 19030
" />
<path d="M30420 19424
L30195 19424
" />
<path d="M30308 19424
L30308 19030
L30270 19086
L30233 19124
L30195 19142
" />
<path d="M36426 12847
L36407 12866
L36351 12884
L36313 12884
L36257 12866
L36220 12828
L36201 12791
L36182 12716
L36182 12659
L36201 12584
L36220 12547
L36257 12509
L36313 12491
L36351 12491
L36407 12509
L36426 12528
" />
<path d="M36801 12884
L36576 12884
" />
<path d="M36688 12884
L36688 12491
L36651 12547
L36613 12584
L36576 12603
" />
<path d="M26066 15036
L26047 15055
L25991 15073
L25953 15073
L25897 15055
L25860 15017
L25841 14980
L25822 14905
L25822 14848
L25841 14773
L25860 14736
L25897 14698
L25953 14680
L25991 14680
L26047 14698
L26066 14717
" />
<path d="M26216 14717
L26235 14698
L26272 14680
L26366 14680
L26403 14698
L26422 14717
L26441 14755
L26441 14792
L26422 14848
L26197 15073
L26441 15073
" />
<path d="M33908 16764
L33890 16783
L33833 16802
L33796 16802
L33740 16783
L33702 16745
L33683 16708
L33665 16633
L33665 16577
L33683 16502
L33702 16464
L33740 16427
L33796 16408
L33833 16408
L33890 16427
L33908 16445
" />
<path d="M34040 16408
L34283 16408
L34152 16558
L34208 16558
L34246 16577
L34264 16595
L34283 16633
L34283 16727
L34264 16764
L34246 16783
L34208 16802
L34096 16802
L34058 16783
L34040 16764
" />
<path d="M36404 14638
L36386 14657
L36329 14676
L36292 14676
L36236 14657
L36198 14619
L36179 14582
L36161 14507
L36161 14451
L36179 14376
L36198 14338
L36236 14301
L36292 14282
L36329 14282
L36386 14301
L36404 14319
" />
<path d="M36761 14282
L36573 14282
L36554 14469
L36573 14451
L36611 14432
L36704 14432
L36742 14451
L36761 14469
L36779 14507
L36779 14601
L36761 14638
L36742 14657
L36704 14676
L36611 14676
L36573 14657
L36554 14638
" />
<path d="M35700 16764
L35681 16783
L35625 16802
L35587 16802
L35531 16783
L35493 16745
L35475 16708
L35456 16633
L35456 16577
L35475 16502
L35493 16464
L35531 16427
L35587 16408
L35625 16408
L35681 16427
L35700 16445
" />
<path d="M36037 16408
L35962 16408
L35925 16427
L35906 16445
L35868 16502
L35850 16577
L35850 16727
L35868 16764
L35887 16783
L35925 16802
L36000 16802
L36037 16783
L36056 16764
L36075 16727
L36075 16633
L36056 16595
L36037 16577
L36000 16558
L35925 16558
L35887 16577
L35868 16595
L35850 16633
" />
<path d="M32605 18555
L32586 18574
L32530 18593
L32493 18593
L32436 18574
L32399 18537
L32380 18499
L32361 18424
L32361 18368
L32380 18293
L32399 18255
L32436 18218
L32493 18199
L32530 18199
L32586 18218
L32605 18237
" />
<path d="M32943 18330
L32943 18593
" />
<path d="M32849 18181
L32755 18462
L32999 18462
" />
<path d="M31079 21817
L31079 22099
L31060 22155
L31023 22192
L30966 22211
L30929 22211
" />
<path d="M31454 21817
L31266 21817
L31248 22005
L31266 21986
L31304 21967
L31398 21967
L31435 21986
L31454 22005
L31473 22042
L31473 22136
L31454 22174
L31435 22192
L31398 22211
L31304 22211
L31266 22192
L31248 22174
" />
<path d="M34154 18211
L34154 18492
L34135 18549
L34097 18586
L34041 18605
L34004 18605
" />
<path d="M34510 18342
L34510 18605
" />
<path d="M34416 18192
L34322 18474
L34566 18474
" />
<path d="M20488 9569
L20488 9851
L20470 9907
L20432 9944
L20376 9963
L20338 9963
" />
<path d="M20638 9569
L20882 9569
L20751 9719
L20807 9719
L20845 9738
L20863 9757
L20882 9794
L20882 9888
L20863 9926
L20845 9944
L20807 9963
L20695 9963
L20657 9944
L20638 9926
" />
<path d="M21227 22424
L21227 22030
L21320 22030
L21377 22049
L21414 22086
L21433 22124
L21452 22199
L21452 22255
L21433 22330
L21414 22367
L21377 22405
L21320 22424
L21227 22424
" />
<path d="M21602 22067
L21620 22049
L21658 22030
L21752 22030
L21789 22049
L21808 22067
L21827 22105
L21827 22142
L21808 22199
L21583 22424
L21827 22424
" />
<path d="M19414 22569
L19414 22176
" />
<path d="M19639 22569
L19470 22344
" />
<path d="M19639 22176
L19414 22401
" />
</g>
<g style="fill:#000000; fill-opacity:0.0; 
stroke:#000000; stroke-width:100; stroke-opacity:1; 
stroke-linecap:round; stroke-linejoin:round;">
<path d="M29116 9543
L29187 9566
L29211 9590
L29235 9638
L29235 9709
L29211 9757
L29187 9781
L29140 9804
L28949 9804
L28949 9304
L29116 9304
L29164 9328
L29187 9352
L29211 9400
L29211 9447
L29187 9495
L29164 9519
L29116 9543
L28949 9543
" />
<path d="M29735 9804
L29568 9566
" />
<path d="M29449 9804
L29449 9304
L29640 9304
L29687 9328
L29711 9352
L29735 9400
L29735 9471
L29711 9519
L29687 9543
L29640 9566
L29449 9566
" />
<path d="M30211 9804
L29926 9804
" />
<path d="M30068 9804
L30068 9304
L30021 9376
L29973 9423
L29926 9447
" />
</g>
<g style="fill:#000000; fill-opacity:0.0; 
stroke:#000000; stroke-width:59.0551; stroke-opacity:1; 
stroke-linecap:round; stroke-linejoin:round;">
<path d="M13658 22643
L13526 22643
" />
<path d="M13526 22849
L13526 22455
L13714 22455
" />
<path d="M14070 22849
L13845 22849
" />
<path d="M13958 22849
L13958 22455
L13920 22511
L13883 22549
L13845 22568
" />
<path d="M29378 15776
L29378 15382
L29472 15382
L29528 15401
L29566 15439
L29584 15476
L29603 15551
L29603 15607
L29584 15682
L29566 15720
L29528 15757
L29472 15776
L29378 15776
" />
<path d="M29978 15776
L29753 15776
" />
<path d="M29866 15776
L29866 15382
L29828 15439
L29791 15476
L29753 15495
" />
<path d="M28147 16524
L27922 16524
" />
<path d="M28035 16524
L28035 16130
L27997 16187
L27960 16224
L27922 16243
" />
<path d="M22318 15231
L22187 15043
" />
<path d="M22093 15231
L22093 14837
L22243 14837
L22280 14856
L22299 14875
L22318 14912
L22318 14968
L22299 15006
L22280 15025
L22243 15043
L22093 15043
" />
<path d="M22449 14837
L22711 14837
L22543 15231
" />
<path d="M24772 23345
L24772 23664
L24791 23701
L24810 23720
L24847 23739
L24922 23739
L24960 23720
L24979 23701
L24997 23664
L24997 23345
" />
<path d="M25391 23739
L25166 23739
" />
<path d="M25279 23739
L25279 23345
L25241 23401
L25204 23439
L25166 23457
" />
<path d="M29387 13203
L29387 13522
L29405 13559
L29424 13578
L29462 13597
L29537 13597
L29574 13578
L29593 13559
L29612 13522
L29612 13203
" />
<path d="M29986 13203
L29799 13203
L29780 13391
L29799 13372
L29836 13353
L29930 13353
L29968 13372
L29986 13391
L30005 13428
L30005 13522
L29986 13559
L29968 13578
L29930 13597
L29836 13597
L29799 13578
L29780 13559
" />
<path d="M28450 21845
L28450 22164
L28468 22201
L28487 22220
L28525 22239
L28600 22239
L28637 22220
L28656 22201
L28675 22164
L28675 21845
" />
<path d="M28824 21845
L29068 21845
L28937 21995
L28993 21995
L29031 22014
L29049 22032
L29068 22070
L29068 22164
L29049 22201
L29031 22220
L28993 22239
L28881 22239
L28843 22220
L28824 22201
" />
<path d="M21015 23741
L20978 23722
L20940 23684
L20884 23628
L20846 23609
L20809 23609
" />
<path d="M20828 23703
L20790 23684
L20753 23647
L20734 23572
L20734 23441
L20753 23366
L20790 23328
L20828 23309
L20903 23309
L20940 23328
L20978 23366
L20996 23441
L20996 23572
L20978 23647
L20940 23684
L20903 23703
L20828 23703
" />
<path d="M21128 23309
L21371 23309
L21240 23459
L21296 23459
L21334 23478
L21353 23497
L21371 23534
L21371 23628
L21353 23666
L21334 23684
L21296 23703
L21184 23703
L21146 23684
L21128 23666
" />
<path d="M23358 13209
L23320 13190
L23283 13153
L23226 13097
L23189 13078
L23151 13078
" />
<path d="M23170 13172
L23133 13153
L23095 13115
L23076 13040
L23076 12909
L23095 12834
L23133 12797
L23170 12778
L23245 12778
L23283 12797
L23320 12834
L23339 12909
L23339 13040
L23320 13115
L23283 13153
L23245 13172
L23170 13172
" />
<path d="M23489 12815
L23508 12797
L23545 12778
L23639 12778
L23676 12797
L23695 12815
L23714 12853
L23714 12890
L23695 12947
L23470 13172
L23714 13172
" />
<path d="M33578 12973
L33541 12954
L33503 12917
L33447 12860
L33409 12842
L33372 12842
" />
<path d="M33391 12935
L33353 12917
L33316 12879
L33297 12804
L33297 12673
L33316 12598
L33353 12561
L33391 12542
L33466 12542
L33503 12561
L33541 12598
L33559 12673
L33559 12804
L33541 12879
L33503 12917
L33466 12935
L33391 12935
" />
<path d="M33897 12673
L33897 12935
" />
<path d="M33803 12523
L33709 12804
L33953 12804
" />
</g>
<g style="fill:#000000; fill-opacity:0.0; 
stroke:#000000; stroke-width:50; stroke-opacity:1; 
stroke-linecap:round; stroke-linejoin:round;">
<path d="M8505 26922
L8747 26922
L8776 26907
L8790 26893
L8805 26865
L8805 26807
L8790 26779
L8776 26765
L8747 26750
L8505 26750
" />
<path d="M8533 26622
L8519 26607
L8505 26579
L8505 26507
L8519 26479
L8533 26465
L8562 26450
L8590 26450
L8633 26465
L8805 26636
L8805 26450
" />
</g>
<g style="fill:#000000; fill-opacity:0.0; 
stroke:#000000; stroke-width:59.0551; stroke-opacity:1; 
stroke-linecap:round; stroke-linejoin:round;">
<path d="M9888 22053
L10207 22053
L10244 22035
L10263 22016
L10282 21978
L10282 21903
L10263 21866
L10244 21847
L10207 21828
L9888 21828
" />
<path d="M9888 21472
L9888 21547
L9907 21585
L9926 21603
L9982 21641
L10057 21660
L10207 21660
L10244 21641
L10263 21622
L10282 21585
L10282 21510
L10263 21472
L10244 21453
L10207 21435
L10113 21435
L10076 21453
L10057 21472
L10038 21510
L10038 21585
L10057 21622
L10076 21641
L10113 21660
" />
<path d="M31851 16920
L31720 16732
" />
<path d="M31626 16920
L31626 16526
L31776 16526
L31813 16545
L31832 16564
L31851 16601
L31851 16657
L31832 16695
L31813 16714
L31776 16732
L31626 16732
" />
<path d="M32226 16920
L32001 16920
" />
<path d="M32113 16920
L32113 16526
L32076 16582
L32038 16620
L32001 16639
" />
<path d="M32357 16526
L32601 16526
L32469 16676
L32526 16676
L32563 16695
L32582 16714
L32601 16751
L32601 16845
L32582 16882
L32563 16901
L32526 16920
L32413 16920
L32376 16901
L32357 16882
" />
<path d="M28929 17995
L28798 17807
" />
<path d="M28705 17995
L28705 17601
L28854 17601
L28892 17620
L28911 17638
L28929 17676
L28929 17732
L28911 17770
L28892 17788
L28854 17807
L28705 17807
" />
<path d="M29304 17995
L29079 17995
" />
<path d="M29192 17995
L29192 17601
L29154 17657
L29117 17695
L29079 17713
" />
<path d="M29679 17995
L29454 17995
" />
<path d="M29567 17995
L29567 17601
L29529 17657
L29492 17695
L29454 17713
" />
<path d="M24780 22278
L24649 22091
" />
<path d="M24555 22278
L24555 21884
L24705 21884
L24742 21903
L24761 21922
L24780 21959
L24780 22016
L24761 22053
L24742 22072
L24705 22091
L24555 22091
" />
<path d="M25155 22278
L24930 22278
" />
<path d="M25042 22278
L25042 21884
L25005 21941
L24967 21978
L24930 21997
" />
<path d="M25399 21884
L25436 21884
L25474 21903
L25492 21922
L25511 21959
L25530 22034
L25530 22128
L25511 22203
L25492 22241
L25474 22259
L25436 22278
L25399 22278
L25361 22259
L25342 22241
L25324 22203
L25305 22128
L25305 22034
L25324 21959
L25342 21922
L25361 21903
L25399 21884
" />
<path d="M22759 21561
L22627 21374
" />
<path d="M22534 21561
L22534 21168
L22684 21168
L22721 21187
L22740 21205
L22759 21243
L22759 21299
L22740 21336
L22721 21355
L22684 21374
L22534 21374
" />
<path d="M22946 21561
L23021 21561
L23059 21543
L23077 21524
L23115 21468
L23134 21393
L23134 21243
L23115 21205
L23096 21187
L23059 21168
L22984 21168
L22946 21187
L22927 21205
L22909 21243
L22909 21336
L22927 21374
L22946 21393
L22984 21411
L23059 21411
L23096 21393
L23115 21374
L23134 21336
" />
<path d="M20810 21561
L20679 21374
" />
<path d="M20585 21561
L20585 21168
L20735 21168
L20772 21187
L20791 21205
L20810 21243
L20810 21299
L20791 21336
L20772 21355
L20735 21374
L20585 21374
" />
<path d="M21147 21168
L21072 21168
L21035 21187
L21016 21205
L20979 21261
L20960 21336
L20960 21486
L20979 21524
L20997 21543
L21035 21561
L21110 21561
L21147 21543
L21166 21524
L21185 21486
L21185 21393
L21166 21355
L21147 21336
L21110 21318
L21035 21318
L20997 21336
L20979 21355
L20960 21393
" />
<path d="M22759 20660
L22627 20472
" />
<path d="M22534 20660
L22534 20266
L22684 20266
L22721 20285
L22740 20304
L22759 20341
L22759 20397
L22740 20435
L22721 20454
L22684 20472
L22534 20472
" />
<path d="M23115 20266
L22927 20266
L22909 20454
L22927 20435
L22965 20416
L23059 20416
L23096 20435
L23115 20454
L23134 20491
L23134 20585
L23115 20622
L23096 20641
L23059 20660
L22965 20660
L22927 20641
L22909 20622
" />
<path d="M26381 14140
L26250 13953
" />
<path d="M26156 14140
L26156 13747
L26306 13747
L26343 13765
L26362 13784
L26381 13821
L26381 13878
L26362 13915
L26343 13934
L26306 13953
L26156 13953
" />
<path d="M26531 13784
L26549 13765
L26587 13747
L26681 13747
L26718 13765
L26737 13784
L26756 13821
L26756 13859
L26737 13915
L26512 14140
L26756 14140
" />
<path d="M26381 13239
L26250 13051
" />
<path d="M26156 13239
L26156 12845
L26306 12845
L26343 12864
L26362 12882
L26381 12920
L26381 12976
L26362 13014
L26343 13032
L26306 13051
L26156 13051
" />
<path d="M26756 13239
L26531 13239
" />
<path d="M26643 13239
L26643 12845
L26606 12901
L26568 12939
L26531 12957
" />
<path d="M20622 20660
L20491 20472
" />
<path d="M20397 20660
L20397 20266
L20547 20266
L20585 20285
L20604 20304
L20622 20341
L20622 20397
L20604 20435
L20585 20454
L20547 20472
L20397 20472
" />
<path d="M20997 20660
L20772 20660
" />
<path d="M20885 20660
L20885 20266
L20847 20322
L20810 20360
L20772 20379
" />
<path d="M21147 20304
L21166 20285
L21204 20266
L21297 20266
L21335 20285
L21354 20304
L21372 20341
L21372 20379
L21354 20435
L21129 20660
L21372 20660
" />
<path d="M21847 16947
L21847 17229
L21828 17285
L21790 17322
L21734 17341
L21697 17341
" />
<path d="M22015 16985
L22034 16966
L22072 16947
L22165 16947
L22203 16966
L22222 16985
L22240 17022
L22240 17060
L22222 17116
L21997 17341
L22240 17341
" />
<path d="M24256 9695
L24256 9977
L24237 10033
L24200 10070
L24144 10089
L24106 10089
" />
<path d="M24650 10089
L24425 10089
" />
<path d="M24537 10089
L24537 9695
L24500 9752
L24462 9789
L24425 9808
" />
</g> 
</svg>
