<?xml version="1.0" standalone="no"?>
 <!DOCTYPE svg PUBLIC "-//W3C//DTD SVG 1.1//EN" 
 "http://www.w3.org/Graphics/SVG/1.1/DTD/svg11.dtd"> 
<svg xmlns="http://www.w3.org/2000/svg" version="1.1" 
    width="12.9997cm" height="18.001cm" viewBox="0 0 51180 70870 ">
<title>SVG Picture created as ceiling-light-dimmable-F.Mask.svg date 2019/08/02 05:00:31 </title>
  <desc>Picture generated by PCBNEW </desc>
<g style="fill:#000000; fill-opacity:1;stroke:#000000; stroke-opacity:1;
stroke-linecap:round; stroke-linejoin:round; "
 transform="translate(0 0) scale(1 1)">
</g>
<g style="fill:#000000; fill-opacity:0.0; 
stroke:#000000; stroke-width:-0.000393701; stroke-opacity:1; 
stroke-linecap:round; stroke-linejoin:round;">
</g>
<g style="fill:#000000; fill-opacity:1.0; 
stroke:#000000; stroke-width:0; stroke-opacity:1; 
stroke-linecap:round; stroke-linejoin:round;">
<polyline style="fill-rule:evenodd;"
points="21583,33008
21661,33041
21732,33088
21793,33149
21840,33220
21873,33298
21889,33382
21889,33467
21873,33551
21840,33630
21793,33701
21732,33761
21661,33808
21583,33841
21499,33858
21414,33858
21330,33841
21251,33808
21180,33761
21120,33701
21072,33630
21040,33551
21023,33467
21023,33382
21040,33298
21072,33220
21120,33149
21180,33088
21251,33041
21330,33008
21414,32992
21499,32992
21583,33008
" /> 
<polyline style="fill-rule:evenodd;"
points="10008,30961
10087,30994
10157,31041
10218,31101
10265,31172
10298,31251
10314,31335
10314,31420
10298,31504
10265,31583
10218,31654
10157,31714
10087,31761
10008,31794
9924,31811
9839,31811
9755,31794
9676,31761
9605,31714
9545,31654
9498,31583
9465,31504
9448,31420
9448,31335
9465,31251
9498,31172
9545,31101
9605,31041
9676,30994
9755,30961
9839,30944
9924,30944
10008,30961
" /> 
<polyline style="fill-rule:evenodd;"
points="10008,28993
10087,29025
10157,29073
10218,29133
10265,29204
10298,29283
10314,29366
10314,29452
10298,29535
10265,29614
10218,29685
10157,29745
10087,29793
10008,29825
9924,29842
9839,29842
9755,29825
9676,29793
9605,29745
9545,29685
9498,29614
9465,29535
9448,29452
9448,29366
9465,29283
9498,29204
9545,29133
9605,29073
9676,29025
9755,28993
9839,28976
9924,28976
10008,28993
" /> 
<polyline style="fill-rule:evenodd;"
points="21583,26945
21661,26978
21732,27025
21793,27086
21840,27157
21873,27235
21889,27319
21889,27404
21873,27488
21840,27567
21793,27638
21732,27698
21661,27745
21583,27778
21499,27795
21414,27795
21330,27778
21251,27745
21180,27698
21120,27638
21072,27567
21040,27488
21023,27404
21023,27319
21040,27235
21072,27157
21120,27086
21180,27025
21251,26978
21330,26945
21414,26929
21499,26929
21583,26945
" /> 
<polyline style="fill-rule:evenodd;"
points="26619,25166
26634,25167
26664,25176
26693,25185
26748,25215
26796,25254
26835,25302
26865,25357
26865,25357
26883,25416
26889,25478
26883,25540
26865,25599
26835,25654
26796,25702
26748,25741
26693,25770
26664,25779
26634,25788
26619,25790
26588,25793
26557,25793
26526,25790
26511,25788
26481,25779
26451,25770
26397,25741
26349,25702
26309,25654
26280,25599
26262,25540
26256,25478
26262,25416
26280,25357
26280,25357
26309,25302
26349,25254
26397,25215
26451,25185
26481,25176
26511,25167
26526,25166
26557,25163
26588,25163
26619,25166
" /> 
<polyline style="fill-rule:evenodd;"
points="23619,25166
23634,25167
23664,25176
23693,25185
23748,25215
23796,25254
23835,25302
23865,25357
23865,25357
23883,25416
23889,25478
23883,25540
23865,25599
23835,25654
23796,25702
23748,25741
23693,25770
23664,25779
23634,25788
23619,25790
23588,25793
23557,25793
23526,25790
23511,25788
23481,25779
23451,25770
23397,25741
23349,25702
23309,25654
23280,25599
23262,25540
23256,25478
23262,25416
23280,25357
23280,25357
23309,25302
23349,25254
23397,25215
23451,25185
23481,25176
23511,25167
23526,25166
23557,25163
23588,25163
23619,25166
" /> 
<polyline style="fill-rule:evenodd;"
points="16959,24702
16959,24702
16959,24702
16990,24715
17043,24737
17119,24788
17184,24852
17234,24928
17269,25012
17287,25102
17287,25193
17269,25282
17234,25366
17184,25442
17119,25506
17043,25557
17005,25573
16959,25592
16959,25592
16959,25592
16870,25610
16779,25610
16689,25592
16689,25592
16689,25592
16644,25573
16605,25557
16529,25506
16465,25442
16414,25366
16379,25282
16362,25193
16362,25102
16379,25012
16414,24928
16465,24852
16529,24788
16605,24737
16658,24715
16689,24702
16689,24702
16689,24702
16779,24685
16870,24685
16959,24702
" /> 
<polyline style="fill-rule:evenodd;"
points="10928,24702
10928,24702
10928,24702
10959,24715
11012,24737
11088,24788
11152,24852
11203,24928
11238,25012
11255,25102
11255,25193
11238,25282
11203,25366
11152,25442
11088,25506
11012,25557
10973,25573
10928,25592
10928,25592
10928,25592
10838,25610
10747,25610
10658,25592
10658,25592
10658,25592
10612,25573
10574,25557
10498,25506
10433,25442
10383,25366
10348,25282
10330,25193
10330,25102
10348,25012
10383,24928
10433,24852
10498,24788
10574,24737
10627,24715
10658,24702
10658,24702
10658,24702
10747,24685
10838,24685
10928,24702
" /> 
<polyline style="fill-rule:evenodd;"
points="22126,24818
22197,24839
22262,24874
22319,24921
22366,24978
22401,25043
22422,25114
22428,25169
22428,25243
22422,25298
22401,25369
22366,25434
22319,25491
22262,25538
22197,25573
22126,25594
22053,25602
21979,25594
21908,25573
21843,25538
21843,25538
21843,25538
21786,25491
21786,25491
21786,25491
21739,25434
21705,25369
21683,25298
21678,25243
21678,25169
21683,25114
21705,25043
21739,24978
21786,24921
21843,24874
21908,24839
21979,24818
22053,24811
22126,24818
" /> 
<polyline style="fill-rule:evenodd;"
points="21126,24818
21197,24839
21262,24874
21319,24921
21366,24978
21401,25043
21422,25114
21428,25169
21428,25243
21422,25298
21401,25369
21366,25434
21319,25491
21262,25538
21197,25573
21126,25594
21053,25602
20979,25594
20908,25573
20843,25538
20843,25538
20843,25538
20786,25491
20786,25491
20786,25491
20739,25434
20705,25369
20683,25298
20678,25243
20678,25169
20683,25114
20705,25043
20739,24978
20786,24921
20843,24874
20908,24839
20979,24818
21053,24811
21126,24818
" /> 
<polyline style="fill-rule:evenodd;"
points="20428,25600
19678,25600
19678,24812
20428,24812
20428,25600
" /> 
<polyline style="fill-rule:evenodd;"
points="27903,25033
27116,25033
27116,24442
27903,24442
27903,25033
" /> 
<polyline style="fill-rule:evenodd;"
points="23887,24793
23257,24793
23257,24163
23887,24163
23887,24793
" /> 
<polyline style="fill-rule:evenodd;"
points="26619,24166
26634,24167
26664,24176
26693,24185
26748,24215
26796,24254
26835,24302
26865,24357
26883,24416
26889,24478
26883,24540
26865,24599
26835,24654
26796,24702
26748,24741
26693,24770
26664,24779
26634,24788
26619,24790
26588,24793
26557,24793
26526,24790
26511,24788
26481,24779
26451,24770
26397,24741
26349,24702
26309,24654
26280,24599
26262,24540
26256,24478
26262,24416
26280,24357
26309,24302
26349,24254
26397,24215
26451,24185
26481,24176
26511,24167
26526,24166
26557,24163
26588,24163
26619,24166
" /> 
<polyline style="fill-rule:evenodd;"
points="30383,24580
29596,24580
29596,23084
30383,23084
30383,24580
" /> 
<polyline style="fill-rule:evenodd;"
points="27903,24127
27116,24127
27116,23537
27903,23537
27903,24127
" /> 
<polyline style="fill-rule:evenodd;"
points="19950,23651
19084,23651
19084,22785
19950,22785
19950,23651
" /> 
<polyline style="fill-rule:evenodd;"
points="23602,22791
23684,22816
23684,22816
23759,22856
23825,22910
23879,22976
23898,23012
23919,23051
23944,23133
23952,23218
23944,23303
23925,23366
23919,23385
23879,23460
23825,23526
23759,23580
23703,23610
23684,23620
23602,23645
23538,23651
23496,23651
23432,23645
23351,23620
23331,23610
23275,23580
23210,23526
23155,23460
23115,23385
23110,23366
23090,23303
23082,23218
23090,23133
23115,23051
23136,23012
23155,22976
23210,22910
23275,22856
23351,22816
23351,22816
23432,22791
23496,22785
23538,22785
23602,22791
" /> 
<polyline style="fill-rule:evenodd;"
points="10928,22702
10928,22702
10928,22702
10959,22715
11012,22737
11088,22788
11152,22852
11203,22928
11238,23012
11255,23102
11255,23193
11238,23282
11203,23366
11152,23442
11088,23506
11012,23557
10959,23579
10928,23592
10928,23592
10928,23592
10838,23610
10747,23610
10658,23592
10658,23592
10658,23592
10627,23579
10574,23557
10498,23506
10433,23442
10383,23366
10348,23282
10330,23193
10330,23102
10348,23012
10383,22928
10433,22852
10498,22788
10574,22737
10627,22715
10658,22702
10658,22702
10658,22702
10747,22685
10838,22685
10928,22702
" /> 
<polyline style="fill-rule:evenodd;"
points="16959,22702
16959,22702
16959,22702
16990,22715
17043,22737
17119,22788
17184,22852
17234,22928
17269,23012
17287,23102
17287,23193
17269,23282
17234,23366
17184,23442
17119,23506
17043,23557
16990,23579
16959,23592
16959,23592
16959,23592
16870,23610
16779,23610
16689,23592
16689,23592
16689,23592
16658,23579
16605,23557
16529,23506
16465,23442
16414,23366
16379,23282
16362,23193
16362,23102
16379,23012
16414,22928
16465,22852
16529,22788
16605,22737
16658,22715
16689,22702
16689,22702
16689,22702
16779,22685
16870,22685
16959,22702
" /> 
<polyline style="fill-rule:evenodd;"
points="31545,23458
30875,23458
30875,22789
31545,22789
31545,23458
" /> 
<polyline style="fill-rule:evenodd;"
points="27903,23222
27116,23222
27116,22631
27903,22631
27903,23222
" /> 
<polyline style="fill-rule:evenodd;"
points="24674,22473
24687,22477
24698,22483
24708,22492
24716,22502
24723,22513
24726,22525
24728,22541
24728,23092
24726,23107
24723,23120
24716,23131
24708,23141
24698,23150
24687,23156
24674,23159
24659,23161
24236,23161
24220,23159
24208,23156
24197,23150
24186,23141
24178,23131
24172,23120
24168,23107
24167,23092
24167,22541
24168,22525
24172,22513
24178,22502
24186,22492
24197,22483
24208,22477
24220,22473
24236,22472
24659,22472
24674,22473
" /> 
<polyline style="fill-rule:evenodd;"
points="25846,22473
25858,22477
25869,22483
25879,22492
25888,22502
25894,22513
25898,22525
25899,22541
25899,23092
25898,23107
25894,23120
25888,23131
25879,23141
25869,23150
25858,23156
25846,23159
25830,23161
25407,23161
25392,23159
25379,23156
25368,23150
25358,23141
25349,23131
25343,23120
25340,23107
25338,23092
25338,22541
25340,22525
25343,22513
25349,22502
25358,22492
25368,22483
25379,22477
25392,22473
25407,22472
25830,22472
25846,22473
" /> 
<polyline style="fill-rule:evenodd;"
points="14208,22472
13854,22472
13854,21685
14208,21685
14208,22472
" /> 
<polyline style="fill-rule:evenodd;"
points="12208,22472
11854,22472
11854,21685
12208,21685
12208,22472
" /> 
<polyline style="fill-rule:evenodd;"
points="12708,22472
12354,22472
12354,21685
12708,21685
12708,22472
" /> 
<polyline style="fill-rule:evenodd;"
points="13208,22472
12854,22472
12854,21685
13208,21685
13208,22472
" /> 
<polyline style="fill-rule:evenodd;"
points="16708,22472
16354,22472
16354,21685
16708,21685
16708,22472
" /> 
<polyline style="fill-rule:evenodd;"
points="16208,22472
15854,22472
15854,21685
16208,21685
16208,22472
" /> 
<polyline style="fill-rule:evenodd;"
points="15708,22472
15354,22472
15354,21685
15708,21685
15708,22472
" /> 
<polyline style="fill-rule:evenodd;"
points="15208,22472
14854,22472
14854,21685
15208,21685
15208,22472
" /> 
<polyline style="fill-rule:evenodd;"
points="13708,22472
13354,22472
13354,21685
13708,21685
13708,22472
" /> 
<polyline style="fill-rule:evenodd;"
points="14708,22472
14354,22472
14354,21685
14708,21685
14708,22472
" /> 
<polyline style="fill-rule:evenodd;"
points="23637,21757
23649,21761
23661,21767
23671,21775
23679,21785
23685,21797
23689,21809
23690,21824
23690,22375
23689,22391
23685,22403
23679,22415
23671,22425
23661,22433
23649,22439
23637,22443
23622,22444
23198,22444
23183,22443
23171,22439
23159,22433
23149,22425
23141,22415
23135,22403
23131,22391
23129,22375
23129,21824
23131,21809
23135,21797
23141,21785
23149,21775
23159,21767
23171,21761
23183,21757
23198,21755
23622,21755
23637,21757
" /> 
<polyline style="fill-rule:evenodd;"
points="22466,21757
22478,21761
22490,21767
22500,21775
22508,21785
22514,21797
22518,21809
22519,21824
22519,22375
22518,22391
22514,22403
22508,22415
22500,22425
22490,22433
22478,22439
22466,22443
22450,22444
22027,22444
22012,22443
21999,22439
21988,22433
21978,22425
21970,22415
21963,22403
21960,22391
21958,22375
21958,21824
21960,21809
21963,21797
21970,21785
21978,21775
21988,21767
21999,21761
22012,21757
22027,21755
22450,21755
22466,21757
" /> 
<polyline style="fill-rule:evenodd;"
points="21688,21757
21700,21761
21712,21767
21722,21775
21730,21785
21736,21797
21740,21809
21742,21824
21742,22375
21740,22391
21736,22403
21730,22415
21722,22425
21712,22433
21700,22439
21688,22443
21673,22444
21249,22444
21234,22443
21222,22439
21210,22433
21200,22425
21192,22415
21186,22403
21182,22391
21181,22375
21181,21824
21182,21809
21186,21797
21192,21785
21200,21775
21210,21767
21222,21761
21234,21757
21249,21755
21673,21755
21688,21757
" /> 
<polyline style="fill-rule:evenodd;"
points="20517,21757
20529,21761
20541,21767
20551,21775
20559,21785
20565,21797
20569,21809
20570,21824
20570,22375
20569,22391
20565,22403
20559,22415
20551,22425
20541,22433
20529,22439
20517,22443
20501,22444
20078,22444
20063,22443
20050,22439
20039,22433
20029,22425
20021,22415
20015,22403
20011,22391
20009,22375
20009,21824
20011,21809
20015,21797
20021,21785
20029,21775
20039,21767
20050,21761
20063,21757
20078,21755
20501,21755
20517,21757
" /> 
<polyline style="fill-rule:evenodd;"
points="31244,21417
31290,21426
31361,21456
31426,21499
31481,21554
31524,21618
31553,21690
31562,21735
31568,21763
31568,21766
31568,21843
31553,21919
31524,21991
31481,22056
31426,22110
31361,22154
31290,22183
31244,22192
31213,22198
31136,22198
31105,22192
31060,22183
30988,22154
30924,22110
30869,22056
30826,21991
30796,21919
30781,21843
30781,21766
30782,21763
30787,21735
30796,21690
30826,21618
30869,21554
30924,21499
30988,21456
31060,21426
31105,21417
31136,21411
31213,21411
31244,21417
" /> 
<polyline style="fill-rule:evenodd;"
points="28685,21417
28730,21426
28802,21456
28867,21499
28921,21554
28965,21618
28994,21690
29003,21735
29009,21763
29009,21766
29009,21843
28994,21919
28965,21991
28921,22056
28867,22110
28802,22154
28730,22183
28685,22192
28654,22198
28577,22198
28546,22192
28501,22183
28429,22154
28365,22110
28310,22056
28267,21991
28237,21919
28222,21843
28222,21766
28223,21763
28228,21735
28237,21690
28267,21618
28310,21554
28365,21499
28429,21456
28501,21426
28546,21417
28577,21411
28654,21411
28685,21417
" /> 
<polyline style="fill-rule:evenodd;"
points="27907,22041
27297,22041
27297,21529
27907,21529
27907,22041
" /> 
<polyline style="fill-rule:evenodd;"
points="24777,22041
24167,22041
24167,21529
24777,21529
24777,22041
" /> 
<polyline style="fill-rule:evenodd;"
points="11328,21862
10541,21862
10541,21507
11328,21507
11328,21862
" /> 
<polyline style="fill-rule:evenodd;"
points="18021,21862
17234,21862
17234,21507
18021,21507
18021,21862
" /> 
<polyline style="fill-rule:evenodd;"
points="21688,20855
21700,20859
21712,20865
21722,20873
21730,20884
21736,20895
21740,20907
21742,20923
21742,21474
21740,21489
21736,21502
21730,21513
21722,21523
21712,21531
21700,21538
21688,21541
21673,21543
21249,21543
21234,21541
21222,21538
21210,21531
21200,21523
21192,21513
21186,21502
21182,21489
21181,21474
21181,20923
21182,20907
21186,20895
21192,20884
21200,20873
21210,20865
21222,20859
21234,20855
21249,20854
21673,20854
21688,20855
" /> 
<polyline style="fill-rule:evenodd;"
points="23637,20855
23649,20859
23661,20865
23671,20873
23679,20884
23685,20895
23689,20907
23690,20923
23690,21474
23689,21489
23685,21502
23679,21513
23671,21523
23661,21531
23649,21538
23637,21541
23622,21543
23198,21543
23183,21541
23171,21538
23159,21531
23149,21523
23141,21513
23135,21502
23131,21489
23129,21474
23129,20923
23131,20907
23135,20895
23141,20884
23149,20873
23159,20865
23171,20859
23183,20855
23198,20854
23622,20854
23637,20855
" /> 
<polyline style="fill-rule:evenodd;"
points="22466,20855
22478,20859
22490,20865
22500,20873
22508,20884
22514,20895
22518,20907
22519,20923
22519,21474
22518,21489
22514,21502
22508,21513
22500,21523
22490,21531
22478,21538
22466,21541
22450,21543
22027,21543
22012,21541
21999,21538
21988,21531
21978,21523
21970,21513
21963,21502
21960,21489
21958,21474
21958,20923
21960,20907
21963,20895
21970,20884
21978,20873
21988,20865
21999,20859
22012,20855
22027,20854
22450,20854
22466,20855
" /> 
<polyline style="fill-rule:evenodd;"
points="20517,20855
20529,20859
20541,20865
20551,20873
20559,20884
20565,20895
20569,20907
20570,20923
20570,21474
20569,21489
20565,21502
20559,21513
20551,21523
20541,21531
20529,21538
20517,21541
20501,21543
20078,21543
20063,21541
20050,21538
20039,21531
20029,21523
20021,21513
20015,21502
20011,21489
20009,21474
20009,20923
20011,20907
20015,20895
20021,20884
20029,20873
20039,20865
20050,20859
20063,20855
20078,20854
20501,20854
20517,20855
" /> 
<polyline style="fill-rule:evenodd;"
points="11328,21362
10541,21362
10541,21007
11328,21007
11328,21362
" /> 
<polyline style="fill-rule:evenodd;"
points="18021,21362
17234,21362
17234,21007
18021,21007
18021,21362
" /> 
<polyline style="fill-rule:evenodd;"
points="11328,20862
10541,20862
10541,20507
11328,20507
11328,20862
" /> 
<polyline style="fill-rule:evenodd;"
points="18021,20862
17234,20862
17234,20507
18021,20507
18021,20862
" /> 
<polyline style="fill-rule:evenodd;"
points="31244,19645
31290,19654
31361,19684
31426,19727
31481,19782
31524,19846
31553,19918
31568,19994
31568,20072
31553,20148
31524,20219
31481,20284
31426,20339
31361,20382
31290,20412
31244,20421
31213,20427
31136,20427
31105,20421
31060,20412
30988,20382
30924,20339
30869,20284
30826,20219
30796,20148
30781,20072
30781,19994
30796,19918
30826,19846
30869,19782
30924,19727
30988,19684
31060,19654
31105,19645
31136,19639
31213,19639
31244,19645
" /> 
<polyline style="fill-rule:evenodd;"
points="28685,19645
28730,19654
28802,19684
28867,19727
28921,19782
28965,19846
28994,19918
29009,19994
29009,20072
28994,20148
28965,20219
28921,20284
28867,20339
28802,20382
28730,20412
28685,20421
28654,20427
28577,20427
28546,20421
28501,20412
28429,20382
28365,20339
28310,20284
28267,20219
28237,20148
28222,20072
28222,19994
28237,19918
28267,19846
28310,19782
28365,19727
28429,19684
28501,19654
28546,19645
28577,19639
28654,19639
28685,19645
" /> 
<polyline style="fill-rule:evenodd;"
points="18021,20362
17234,20362
17234,20007
18021,20007
18021,20362
" /> 
<polyline style="fill-rule:evenodd;"
points="11328,20362
10541,20362
10541,20007
11328,20007
11328,20362
" /> 
<polyline style="fill-rule:evenodd;"
points="27907,20269
27297,20269
27297,19757
27907,19757
27907,20269
" /> 
<polyline style="fill-rule:evenodd;"
points="24777,20269
24167,20269
24167,19757
24777,19757
24777,20269
" /> 
<polyline style="fill-rule:evenodd;"
points="32444,19467
32487,19485
32526,19511
32559,19544
32585,19582
32603,19625
32612,19671
32612,19718
32603,19763
32585,19806
32559,19845
32526,19878
32487,19904
32444,19922
32399,19931
32352,19931
32307,19922
32264,19904
32225,19878
32192,19845
32166,19806
32148,19763
32139,19718
32139,19671
32148,19625
32166,19582
32192,19544
32225,19511
32264,19485
32307,19467
32352,19458
32399,19458
32444,19467
" /> 
<polyline style="fill-rule:evenodd;"
points="33035,19467
33078,19485
33117,19511
33150,19544
33175,19582
33193,19625
33202,19671
33202,19718
33193,19763
33175,19806
33150,19845
33117,19878
33078,19904
33035,19922
32989,19931
32943,19931
32897,19922
32854,19904
32815,19878
32783,19845
32757,19806
32739,19763
32730,19718
32730,19671
32739,19625
32757,19582
32783,19544
32815,19511
32854,19485
32897,19467
32943,19458
32989,19458
33035,19467
" /> 
<polyline style="fill-rule:evenodd;"
points="18021,19862
17234,19862
17234,19507
18021,19507
18021,19862
" /> 
<polyline style="fill-rule:evenodd;"
points="11328,19862
10541,19862
10541,19507
11328,19507
11328,19862
" /> 
<polyline style="fill-rule:evenodd;"
points="34620,19852
33950,19852
33950,19183
34620,19183
34620,19852
" /> 
<polyline style="fill-rule:evenodd;"
points="21568,19753
20387,19753
20387,18572
21568,18572
21568,19753
" /> 
<polyline style="fill-rule:evenodd;"
points="23112,18587
23150,18595
23258,18640
23353,18703
23354,18704
23437,18786
23437,18786
23501,18883
23546,18991
23568,19105
23568,19221
23546,19335
23514,19411
23501,19443
23437,19539
23354,19622
23354,19622
23258,19686
23150,19731
23112,19738
23036,19753
22920,19753
22844,19738
22806,19731
22698,19686
22601,19622
22601,19622
22519,19539
22455,19443
22441,19411
22410,19335
22387,19221
22387,19105
22410,18991
22455,18883
22519,18786
22519,18786
22601,18704
22603,18703
22698,18640
22806,18595
22844,18587
22920,18572
23036,18572
23112,18587
" /> 
<polyline style="fill-rule:evenodd;"
points="18021,19362
17234,19362
17234,19007
18021,19007
18021,19362
" /> 
<polyline style="fill-rule:evenodd;"
points="11328,19362
10541,19362
10541,19007
11328,19007
11328,19362
" /> 
<polyline style="fill-rule:evenodd;"
points="14872,19122
12903,19122
12903,17153
14872,17153
14872,19122
" /> 
<polyline style="fill-rule:evenodd;"
points="29995,18190
30008,18194
30019,18200
30029,18208
30037,18218
30043,18230
30047,18242
30049,18257
30049,18809
30047,18824
30043,18836
30037,18848
30029,18858
30019,18866
30008,18872
29995,18876
29980,18877
29557,18877
29541,18876
29529,18872
29517,18866
29507,18858
29499,18848
29493,18836
29489,18824
29488,18809
29488,18257
29489,18242
29493,18230
29499,18218
29507,18208
29517,18200
29529,18194
29541,18190
29557,18188
29980,18188
29995,18190
" /> 
<polyline style="fill-rule:evenodd;"
points="28824,18190
28836,18194
28848,18200
28858,18208
28866,18218
28872,18230
28876,18242
28877,18257
28877,18809
28876,18824
28872,18836
28866,18848
28858,18858
28848,18866
28836,18872
28824,18876
28809,18877
28385,18877
28370,18876
28358,18872
28346,18866
28336,18858
28328,18848
28322,18836
28318,18824
28316,18809
28316,18257
28318,18242
28322,18230
28328,18218
28336,18208
28346,18200
28358,18194
28370,18190
28385,18188
28809,18188
28824,18190
" /> 
<polyline style="fill-rule:evenodd;"
points="18021,18862
17234,18862
17234,18507
18021,18507
18021,18862
" /> 
<polyline style="fill-rule:evenodd;"
points="11328,18862
10541,18862
10541,18507
11328,18507
11328,18862
" /> 
<polyline style="fill-rule:evenodd;"
points="18021,18362
17234,18362
17234,18007
18021,18007
18021,18362
" /> 
<polyline style="fill-rule:evenodd;"
points="11328,18362
10541,18362
10541,18007
11328,18007
11328,18362
" /> 
<polyline style="fill-rule:evenodd;"
points="33748,17676
33791,17694
33829,17720
33862,17752
33888,17791
33906,17834
33915,17880
33915,17926
33906,17972
33888,18015
33862,18054
33829,18087
33791,18112
33748,18130
33702,18139
33655,18139
33610,18130
33567,18112
33528,18087
33495,18054
33469,18015
33451,17972
33442,17926
33442,17880
33451,17834
33469,17791
33495,17752
33528,17720
33567,17694
33610,17676
33655,17667
33702,17667
33748,17676
" /> 
<polyline style="fill-rule:evenodd;"
points="35539,17676
35582,17694
35621,17720
35653,17752
35679,17791
35697,17834
35706,17880
35706,17926
35697,17972
35679,18015
35653,18054
35621,18087
35582,18112
35539,18130
35493,18139
35447,18139
35401,18130
35358,18112
35319,18087
35286,18054
35261,18015
35243,17972
35234,17926
35234,17880
35243,17834
35261,17791
35286,17752
35319,17720
35358,17694
35401,17676
35447,17667
35493,17667
35539,17676
" /> 
<polyline style="fill-rule:evenodd;"
points="36129,17676
36172,17694
36211,17720
36244,17752
36270,17791
36288,17834
36297,17880
36297,17926
36288,17972
36270,18015
36244,18054
36211,18087
36172,18112
36129,18130
36084,18139
36037,18139
35992,18130
35949,18112
35910,18087
35877,18054
35851,18015
35833,17972
35824,17926
35824,17880
35833,17834
35851,17791
35877,17752
35910,17720
35949,17694
35992,17676
36037,17667
36084,17667
36129,17676
" /> 
<polyline style="fill-rule:evenodd;"
points="34338,17676
34381,17694
34420,17720
34453,17752
34479,17791
34496,17834
34505,17880
34505,17926
34496,17972
34479,18015
34453,18054
34420,18087
34381,18112
34338,18130
34292,18139
34246,18139
34200,18130
34157,18112
34119,18087
34086,18054
34060,18015
34042,17972
34033,17926
34033,17880
34042,17834
34060,17791
34086,17752
34119,17720
34157,17694
34200,17676
34246,17667
34292,17667
34338,17676
" /> 
<polyline style="fill-rule:evenodd;"
points="18021,17862
17234,17862
17234,17507
18021,17507
18021,17862
" /> 
<polyline style="fill-rule:evenodd;"
points="11328,17862
10541,17862
10541,17507
11328,17507
11328,17862
" /> 
<polyline style="fill-rule:evenodd;"
points="30929,17803
30338,17803
30338,17409
30929,17409
30929,17803
" /> 
<polyline style="fill-rule:evenodd;"
points="32916,17115
32929,17119
32940,17125
32950,17133
32959,17143
32965,17155
32968,17167
32970,17183
32970,17734
32968,17749
32965,17762
32959,17773
32950,17783
32940,17791
32929,17797
32916,17801
32901,17803
32478,17803
32463,17801
32450,17797
32439,17791
32429,17783
32420,17773
32414,17762
32410,17749
32409,17734
32409,17183
32410,17167
32414,17155
32420,17143
32429,17133
32439,17125
32450,17119
32463,17115
32478,17114
32901,17114
32916,17115
" /> 
<polyline style="fill-rule:evenodd;"
points="29000,17803
28409,17803
28409,17409
29000,17409
29000,17803
" /> 
<polyline style="fill-rule:evenodd;"
points="31745,17115
31758,17119
31769,17125
31779,17133
31787,17143
31793,17155
31797,17167
31799,17183
31799,17734
31797,17749
31793,17762
31787,17773
31779,17783
31769,17791
31758,17797
31745,17801
31730,17803
31307,17803
31291,17801
31279,17797
31267,17791
31257,17783
31249,17773
31243,17762
31239,17749
31238,17734
31238,17183
31239,17167
31243,17155
31249,17143
31257,17133
31267,17125
31279,17119
31291,17115
31307,17114
31730,17114
31745,17115
" /> 
<polyline style="fill-rule:evenodd;"
points="25239,17053
25296,17077
25348,17111
25392,17155
25426,17207
25450,17264
25462,17325
25462,17387
25450,17448
25426,17505
25392,17557
25348,17600
25296,17635
25239,17659
25178,17671
25116,17671
25055,17659
24998,17635
24946,17600
24902,17557
24868,17505
24844,17448
24832,17387
24832,17325
24844,17264
24868,17207
24902,17155
24946,17111
24998,17077
25055,17053
25116,17041
25178,17041
25239,17053
" /> 
<polyline style="fill-rule:evenodd;"
points="27208,17053
27265,17077
27316,17111
27360,17155
27395,17207
27418,17264
27431,17325
27431,17387
27418,17448
27395,17505
27360,17557
27316,17600
27265,17635
27208,17659
27147,17671
27085,17671
27024,17659
26966,17635
26915,17600
26871,17557
26837,17505
26813,17448
26801,17387
26801,17325
26813,17264
26837,17207
26871,17155
26915,17111
26966,17077
27024,17053
27085,17041
27147,17041
27208,17053
" /> 
<polyline style="fill-rule:evenodd;"
points="18021,17362
17234,17362
17234,17007
18021,17007
18021,17362
" /> 
<polyline style="fill-rule:evenodd;"
points="11328,17362
10541,17362
10541,17007
11328,17007
11328,17362
" /> 
<polyline style="fill-rule:evenodd;"
points="20685,16546
20748,16565
20806,16596
20857,16638
20899,16689
20930,16747
20949,16810
20956,16875
20949,16941
20930,17004
20899,17062
20857,17113
20806,17155
20748,17186
20685,17205
20636,17210
20603,17210
20554,17205
20491,17186
20433,17155
20382,17113
20340,17062
20309,17004
20290,16941
20283,16875
20290,16810
20309,16747
20340,16689
20382,16638
20433,16596
20491,16565
20554,16546
20603,16541
20636,16541
20685,16546
" /> 
<polyline style="fill-rule:evenodd;"
points="11328,16862
10541,16862
10541,16507
11328,16507
11328,16862
" /> 
<polyline style="fill-rule:evenodd;"
points="18021,16862
17234,16862
17234,16507
18021,16507
18021,16862
" /> 
<polyline style="fill-rule:evenodd;"
points="29000,16543
28409,16543
28409,16149
29000,16149
29000,16543
" /> 
<polyline style="fill-rule:evenodd;"
points="30929,16543
30338,16543
30338,16149
30929,16149
30929,16543
" /> 
<polyline style="fill-rule:evenodd;"
points="23066,15892
23123,15915
23175,15950
23219,15994
23253,16045
23277,16103
23289,16163
23289,16225
23277,16286
23253,16344
23219,16395
23175,16439
23123,16473
23066,16497
23005,16509
22943,16509
22882,16497
22825,16473
22773,16439
22729,16395
22695,16344
22671,16286
22659,16225
22659,16163
22671,16103
22695,16045
22729,15994
22773,15950
22825,15915
22882,15892
22943,15879
23005,15879
23066,15892
" /> 
<polyline style="fill-rule:evenodd;"
points="21885,15892
21942,15915
21994,15950
22037,15994
22072,16045
22096,16103
22108,16163
22108,16225
22096,16286
22072,16344
22037,16395
21994,16439
21942,16473
21885,16497
21824,16509
21762,16509
21701,16497
21644,16473
21592,16439
21548,16395
21514,16344
21490,16286
21478,16225
21478,16163
21490,16103
21514,16045
21548,15994
21592,15950
21644,15915
21701,15892
21762,15879
21824,15879
21885,15892
" /> 
<polyline style="fill-rule:evenodd;"
points="18021,16362
17234,16362
17234,16007
18021,16007
18021,16362
" /> 
<polyline style="fill-rule:evenodd;"
points="11328,16362
10541,16362
10541,16007
11328,16007
11328,16362
" /> 
<polyline style="fill-rule:evenodd;"
points="33662,15816
33706,15829
33748,15851
33783,15881
33813,15917
33835,15958
33848,16002
33853,16049
33848,16095
33835,16140
33813,16181
33783,16217
33748,16246
33706,16268
33662,16282
33627,16285
33604,16285
33569,16282
33525,16268
33484,16246
33448,16217
33418,16181
33396,16140
33383,16095
33378,16049
33383,16002
33396,15958
33418,15917
33448,15881
33484,15851
33525,15829
33569,15816
33604,15812
33627,15812
33662,15816
" /> 
<polyline style="fill-rule:evenodd;"
points="20685,15546
20748,15565
20806,15596
20857,15638
20899,15689
20930,15747
20949,15810
20956,15875
20949,15941
20930,16004
20899,16062
20857,16113
20806,16155
20748,16186
20685,16205
20636,16210
20603,16210
20554,16205
20491,16186
20433,16155
20382,16113
20340,16062
20309,16004
20290,15941
20283,15875
20290,15810
20309,15747
20340,15689
20382,15638
20433,15596
20491,15565
20554,15546
20603,15541
20636,15541
20685,15546
" /> 
<polyline style="fill-rule:evenodd;"
points="36834,15550
36877,15568
36916,15594
36949,15626
36975,15665
36992,15708
37001,15754
37001,15800
36992,15846
36975,15889
36949,15928
36916,15961
36877,15986
36834,16004
36789,16013
36742,16013
36696,16004
36653,15986
36615,15961
36582,15928
36556,15889
36538,15846
36529,15800
36529,15754
36538,15708
36556,15665
36582,15626
36615,15594
36653,15568
36696,15550
36742,15541
36789,15541
36834,15550
" /> 
<polyline style="fill-rule:evenodd;"
points="36244,15550
36287,15568
36325,15594
36358,15626
36384,15665
36402,15708
36411,15754
36411,15800
36402,15846
36384,15889
36358,15928
36325,15961
36287,15986
36244,16004
36198,16013
36151,16013
36106,16004
36063,15986
36024,15961
35991,15928
35965,15889
35948,15846
35938,15800
35938,15754
35948,15708
35965,15665
35991,15626
36024,15594
36063,15568
36106,15550
36151,15541
36198,15541
36244,15550
" /> 
<polyline style="fill-rule:evenodd;"
points="18021,15862
17234,15862
17234,15507
18021,15507
18021,15862
" /> 
<polyline style="fill-rule:evenodd;"
points="11328,15862
10541,15862
10541,15507
11328,15507
11328,15862
" /> 
<polyline style="fill-rule:evenodd;"
points="28929,15665
28318,15665
28318,15429
28929,15429
28929,15665
" /> 
<polyline style="fill-rule:evenodd;"
points="31055,15665
30444,15665
30444,15429
31055,15429
31055,15665
" /> 
<polyline style="fill-rule:evenodd;"
points="11328,15362
10541,15362
10541,15007
11328,15007
11328,15362
" /> 
<polyline style="fill-rule:evenodd;"
points="18021,15362
17234,15362
17234,15007
18021,15007
18021,15362
" /> 
<polyline style="fill-rule:evenodd;"
points="34662,14816
34706,14829
34748,14851
34783,14881
34813,14917
34835,14958
34848,15002
34853,15049
34848,15095
34835,15140
34813,15181
34783,15217
34748,15246
34706,15268
34662,15282
34627,15285
34604,15285
34569,15282
34525,15268
34484,15246
34448,15217
34418,15181
34396,15140
34383,15095
34378,15049
34383,15002
34396,14958
34418,14917
34448,14881
34484,14851
34525,14829
34569,14816
34604,14812
34627,14812
34662,14816
" /> 
<polyline style="fill-rule:evenodd;"
points="32741,14816
32785,14829
32826,14851
32862,14881
32892,14917
32914,14958
32927,15002
32932,15049
32927,15095
32914,15140
32892,15181
32862,15217
32826,15246
32785,15268
32741,15282
32706,15285
32525,15285
32491,15282
32446,15268
32405,15246
32369,15217
32340,15181
32318,15140
32304,15095
32300,15049
32304,15002
32318,14958
32340,14917
32369,14881
32405,14851
32446,14829
32491,14816
32525,14812
32706,14812
32741,14816
" /> 
<polyline style="fill-rule:evenodd;"
points="20685,14546
20748,14565
20806,14596
20857,14638
20899,14689
20930,14747
20949,14810
20956,14875
20949,14941
20930,15004
20899,15062
20857,15113
20806,15155
20748,15186
20685,15205
20636,15210
20603,15210
20554,15205
20491,15186
20433,15155
20382,15113
20340,15062
20309,15004
20290,14941
20283,14875
20290,14810
20309,14747
20340,14689
20382,14638
20433,14596
20491,14565
20554,14546
20603,14541
20636,14541
20685,14546
" /> 
<polyline style="fill-rule:evenodd;"
points="31055,15165
30444,15165
30444,14929
31055,14929
31055,15165
" /> 
<polyline style="fill-rule:evenodd;"
points="28929,15165
28318,15165
28318,14929
28929,14929
28929,15165
" /> 
<polyline style="fill-rule:evenodd;"
points="23469,14286
23539,14308
23605,14343
23662,14390
23708,14447
23743,14512
23765,14582
23770,14638
23770,14712
23765,14767
23743,14838
23708,14903
23662,14960
23605,15007
23539,15042
23469,15063
23395,15070
23322,15063
23251,15042
23186,15007
23186,15007
23186,15007
23129,14960
23129,14960
23129,14960
23082,14903
23047,14838
23026,14767
23020,14712
23020,14638
23026,14582
23047,14512
23082,14447
23129,14390
23186,14343
23251,14308
23322,14286
23395,14279
23469,14286
" /> 
<polyline style="fill-rule:evenodd;"
points="24469,14286
24539,14308
24605,14343
24662,14390
24708,14447
24743,14512
24765,14582
24770,14638
24770,14712
24765,14767
24743,14838
24708,14903
24662,14960
24605,15007
24539,15042
24469,15063
24395,15070
24322,15063
24251,15042
24186,15007
24186,15007
24186,15007
24129,14960
24129,14960
24129,14960
24082,14903
24047,14838
24026,14767
24020,14712
24020,14638
24026,14582
24047,14512
24082,14447
24129,14390
24186,14343
24251,14308
24322,14286
24395,14279
24469,14286
" /> 
<polyline style="fill-rule:evenodd;"
points="22770,15068
22020,15068
22020,14281
22770,14281
22770,15068
" /> 
<polyline style="fill-rule:evenodd;"
points="26088,14336
26100,14339
26112,14346
26122,14354
26130,14364
26136,14375
26140,14388
26141,14403
26141,14954
26140,14970
26136,14982
26130,14993
26122,15003
26112,15012
26100,15018
26088,15022
26072,15023
25649,15023
25634,15022
25621,15018
25610,15012
25600,15003
25592,14993
25585,14982
25582,14970
25580,14954
25580,14403
25582,14388
25585,14375
25592,14364
25600,14354
25610,14346
25621,14339
25634,14336
25649,14334
26072,14334
26088,14336
" /> 
<polyline style="fill-rule:evenodd;"
points="27259,14336
27271,14339
27283,14346
27293,14354
27301,14364
27307,14375
27311,14388
27312,14403
27312,14954
27311,14970
27307,14982
27301,14993
27293,15003
27283,15012
27271,15018
27259,15022
27244,15023
26820,15023
26805,15022
26793,15018
26781,15012
26771,15003
26763,14993
26757,14982
26753,14970
26751,14954
26751,14403
26753,14388
26757,14375
26763,14364
26771,14354
26781,14346
26793,14339
26805,14336
26820,14334
27244,14334
27259,14336
" /> 
<polyline style="fill-rule:evenodd;"
points="28929,14665
28318,14665
28318,14429
28929,14429
28929,14665
" /> 
<polyline style="fill-rule:evenodd;"
points="31055,14665
30444,14665
30444,14429
31055,14429
31055,14665
" /> 
<polyline style="fill-rule:evenodd;"
points="36856,13759
36899,13776
36937,13802
36970,13835
36996,13874
37014,13917
37023,13962
37023,14009
37014,14055
36996,14098
36970,14136
36937,14169
36899,14195
36856,14213
36810,14222
36764,14222
36718,14213
36675,14195
36636,14169
36603,14136
36577,14098
36560,14055
36551,14009
36551,13962
36560,13917
36577,13874
36603,13835
36636,13802
36675,13776
36718,13759
36764,13750
36810,13750
36856,13759
" /> 
<polyline style="fill-rule:evenodd;"
points="36432,14222
35960,14222
35960,13750
36432,13750
36432,14222
" /> 
<polyline style="fill-rule:evenodd;"
points="20685,13546
20748,13565
20806,13596
20857,13638
20899,13689
20930,13747
20949,13810
20956,13875
20949,13941
20930,14004
20899,14062
20857,14113
20806,14155
20748,14186
20685,14205
20636,14210
20603,14210
20554,14205
20491,14186
20433,14155
20382,14113
20340,14062
20309,14004
20290,13941
20283,13875
20290,13810
20309,13747
20340,13689
20382,13638
20433,13596
20491,13565
20554,13546
20603,13541
20636,13541
20685,13546
" /> 
<polyline style="fill-rule:evenodd;"
points="31055,14165
30444,14165
30444,13929
31055,13929
31055,14165
" /> 
<polyline style="fill-rule:evenodd;"
points="28929,14165
28318,14165
28318,13929
28929,13929
28929,14165
" /> 
<polyline style="fill-rule:evenodd;"
points="27259,13434
27271,13438
27283,13444
27293,13452
27301,13462
27307,13474
27311,13486
27312,13501
27312,14053
27311,14068
27307,14080
27301,14092
27293,14102
27283,14110
27271,14116
27259,14120
27244,14122
26820,14122
26805,14120
26793,14116
26781,14110
26771,14102
26763,14092
26757,14080
26753,14068
26751,14053
26751,13501
26753,13486
26757,13474
26763,13462
26771,13452
26781,13444
26793,13438
26805,13434
26820,13433
27244,13433
27259,13434
" /> 
<polyline style="fill-rule:evenodd;"
points="26088,13434
26100,13438
26112,13444
26122,13452
26130,13462
26136,13474
26140,13486
26141,13501
26141,14053
26140,14068
26136,14080
26130,14092
26122,14102
26112,14110
26100,14116
26088,14120
26072,14122
25649,14122
25634,14120
25621,14116
25610,14110
25600,14102
25592,14092
25585,14080
25582,14068
25580,14053
25580,13501
25582,13486
25585,13474
25592,13462
25600,13452
25610,13444
25621,13438
25634,13434
25649,13433
26072,13433
26088,13434
" /> 
<polyline style="fill-rule:evenodd;"
points="20685,12546
20748,12565
20806,12596
20857,12638
20899,12689
20930,12747
20949,12810
20956,12875
20949,12941
20930,13004
20899,13062
20857,13113
20806,13155
20748,13186
20685,13205
20636,13210
20603,13210
20554,13205
20491,13186
20433,13155
20382,13113
20340,13062
20309,13004
20290,12941
20283,12875
20290,12810
20309,12747
20340,12689
20382,12638
20433,12596
20491,12565
20554,12546
20603,12541
20636,12541
20685,12546
" /> 
<polyline style="fill-rule:evenodd;"
points="31259,12725
31301,12742
31338,12767
31370,12799
31395,12836
31412,12878
31421,12922
31421,12967
31412,13011
31395,13053
31370,13090
31338,13122
31301,13147
31259,13164
31215,13173
31170,13173
31126,13164
31084,13147
31047,13122
31015,13090
30990,13053
30973,13011
30964,12967
30964,12922
30973,12878
30990,12836
31015,12799
31047,12767
31084,12742
31126,12725
31170,12716
31215,12716
31259,12725
" /> 
<polyline style="fill-rule:evenodd;"
points="28011,12725
28053,12742
28090,12767
28122,12799
28147,12836
28164,12878
28173,12922
28173,12967
28164,13011
28147,13053
28122,13090
28090,13122
28053,13147
28011,13164
27967,13173
27922,13173
27878,13164
27836,13147
27799,13122
27767,13090
27742,13053
27725,13011
27716,12967
27716,12922
27725,12878
27742,12836
27767,12799
27799,12767
27836,12742
27878,12725
27922,12716
27967,12716
28011,12725
" /> 
<polyline style="fill-rule:evenodd;"
points="37523,13051
37267,13051
37267,12362
37523,12362
37523,13051
" /> 
<polyline style="fill-rule:evenodd;"
points="36736,13051
36480,13051
36480,12362
36736,12362
36736,13051
" /> 
<polyline style="fill-rule:evenodd;"
points="36342,13051
36086,13051
36086,12362
36342,12362
36342,13051
" /> 
<polyline style="fill-rule:evenodd;"
points="37129,13051
36874,13051
36874,12362
37129,12362
37129,13051
" /> 
<polyline style="fill-rule:evenodd;"
points="35948,13051
35692,13051
35692,12362
35948,12362
35948,13051
" /> 
<polyline style="fill-rule:evenodd;"
points="32375,12765
31765,12765
31765,12253
32375,12253
32375,12765
" /> 
<polyline style="fill-rule:evenodd;"
points="35505,12765
34895,12765
34895,12253
35505,12253
35505,12765
" /> 
<polyline style="fill-rule:evenodd;"
points="24527,11165
24571,11174
24679,11218
24774,11282
24776,11283
24858,11365
24858,11365
24922,11462
24955,11541
24967,11569
24990,11683
24990,11800
24988,11810
24967,11914
24935,11990
24922,12021
24858,12118
24776,12200
24776,12200
24679,12265
24571,12309
24533,12317
24457,12332
24341,12332
24265,12317
24227,12309
24119,12265
24023,12200
24023,12200
23940,12118
23876,12021
23863,11990
23831,11914
23811,11810
23809,11800
23809,11683
23831,11569
23843,11541
23876,11462
23940,11365
23940,11365
24023,11283
24024,11282
24119,11218
24227,11174
24272,11165
24341,11151
24457,11151
24527,11165
" /> 
<polyline style="fill-rule:evenodd;"
points="22990,12332
21809,12332
21809,11151
22990,11151
22990,12332
" /> 
<polyline style="fill-rule:evenodd;"
points="26527,11165
26571,11174
26679,11218
26774,11282
26776,11283
26858,11365
26858,11365
26922,11462
26955,11541
26967,11569
26990,11683
26990,11800
26988,11810
26967,11914
26935,11990
26922,12021
26858,12118
26776,12200
26776,12200
26679,12265
26571,12309
26533,12317
26457,12332
26341,12332
26265,12317
26227,12309
26119,12265
26023,12200
26023,12200
25940,12118
25876,12021
25863,11990
25831,11914
25811,11810
25809,11800
25809,11683
25831,11569
25843,11541
25876,11462
25940,11365
25940,11365
26023,11283
26024,11282
26119,11218
26227,11174
26272,11165
26341,11151
26457,11151
26527,11165
" /> 
<polyline style="fill-rule:evenodd;"
points="20685,11546
20748,11565
20806,11596
20857,11638
20899,11689
20930,11747
20949,11810
20956,11875
20949,11941
20930,12004
20899,12062
20857,12113
20806,12155
20748,12186
20685,12205
20636,12210
20603,12210
20554,12205
20491,12186
20433,12155
20382,12113
20340,12062
20309,12004
20290,11941
20283,11875
20290,11810
20309,11747
20340,11689
20382,11638
20433,11596
20491,11565
20554,11546
20603,11541
20636,11541
20685,11546
" /> 
<polyline style="fill-rule:evenodd;"
points="20954,11210
20285,11210
20285,10541
20954,10541
20954,11210
" /> 
<polyline style="fill-rule:evenodd;"
points="31259,10717
31301,10734
31338,10759
31370,10791
31395,10828
31412,10870
31421,10914
31421,10959
31412,11003
31395,11045
31370,11082
31338,11114
31301,11139
31259,11156
31215,11165
31170,11165
31126,11156
31084,11139
31047,11114
31015,11082
30990,11045
30973,11003
30964,10959
30964,10914
30973,10870
30990,10828
31015,10791
31047,10759
31084,10734
31126,10717
31170,10708
31215,10708
31259,10717
" /> 
<polyline style="fill-rule:evenodd;"
points="28011,10717
28053,10734
28090,10759
28122,10791
28147,10828
28164,10870
28173,10914
28173,10959
28164,11003
28147,11045
28122,11082
28090,11114
28053,11139
28011,11156
27967,11165
27922,11165
27878,11156
27836,11139
27799,11114
27767,11082
27742,11045
27725,11003
27716,10959
27716,10914
27725,10870
27742,10828
27767,10791
27799,10759
27836,10734
27878,10717
27922,10708
27967,10708
28011,10717
" /> 
<polyline style="fill-rule:evenodd;"
points="32375,10994
31765,10994
31765,10482
32375,10482
32375,10994
" /> 
<polyline style="fill-rule:evenodd;"
points="35505,10994
34895,10994
34895,10482
35505,10482
35505,10994
" /> 
<polyline style="fill-rule:evenodd;"
points="35948,10846
35692,10846
35692,10157
35948,10157
35948,10846
" /> 
<polyline style="fill-rule:evenodd;"
points="36342,10846
36086,10846
36086,10157
36342,10157
36342,10846
" /> 
<polyline style="fill-rule:evenodd;"
points="36736,10846
36480,10846
36480,10157
36736,10157
36736,10846
" /> 
<polyline style="fill-rule:evenodd;"
points="37129,10846
36874,10846
36874,10157
37129,10157
37129,10846
" /> 
<polyline style="fill-rule:evenodd;"
points="37523,10846
37267,10846
37267,10157
37523,10157
37523,10846
" /> 
</g> 
</svg>
