<?xml version="1.0" standalone="no"?>
 <!DOCTYPE svg PUBLIC "-//W3C//DTD SVG 1.1//EN" 
 "http://www.w3.org/Graphics/SVG/1.1/DTD/svg11.dtd"> 
<svg xmlns="http://www.w3.org/2000/svg" version="1.1" 
    width="12.9997cm" height="18.001cm" viewBox="0 0 51180 70870 ">
<title>SVG Picture created as ceiling-light-dimmable-F.Mask.svg date 2019/08/06 00:53:07 </title>
  <desc>Picture generated by PCBNEW </desc>
<g style="fill:#000000; fill-opacity:1;stroke:#000000; stroke-opacity:1;
stroke-linecap:round; stroke-linejoin:round; "
 transform="translate(0 0) scale(1 1)">
</g>
<g style="fill:#000000; fill-opacity:0.0; 
stroke:#000000; stroke-width:-0.000393701; stroke-opacity:1; 
stroke-linecap:round; stroke-linejoin:round;">
</g>
<g style="fill:#000000; fill-opacity:0.0; 
stroke:#000000; stroke-width:39.3701; stroke-opacity:1; 
stroke-linecap:round; stroke-linejoin:round;">
</g>
<g style="fill:#000000; fill-opacity:0.0; 
stroke:#000000; stroke-width:59.0551; stroke-opacity:1; 
stroke-linecap:round; stroke-linejoin:round;">
<rect x="3935.91" y="53547.2" width="42519.7" height="12598.4" rx="0" />
</g>
<g style="fill:#000000; fill-opacity:0.0; 
stroke:#000000; stroke-width:39.3701; stroke-opacity:1; 
stroke-linecap:round; stroke-linejoin:round;">
</g>
<g style="fill:#000000; fill-opacity:0.0; 
stroke:#000000; stroke-width:59.0551; stroke-opacity:1; 
stroke-linecap:round; stroke-linejoin:round;">
<rect x="3937.01" y="3937.01" width="43306" height="62996" rx="0" />
</g>
<g style="fill:#000000; fill-opacity:0.0; 
stroke:#000000; stroke-width:39.3701; stroke-opacity:1; 
stroke-linecap:round; stroke-linejoin:round;">
</g>
<g style="fill:#000000; fill-opacity:0.0; 
stroke:#000000; stroke-width:59.0551; stroke-opacity:1; 
stroke-linecap:round; stroke-linejoin:round;">
<rect x="4724.41" y="4724.41" width="41731.2" height="61421.2" rx="0" />
</g>
<g style="fill:#000000; fill-opacity:0.0; 
stroke:#000000; stroke-width:39.3701; stroke-opacity:1; 
stroke-linecap:round; stroke-linejoin:round;">
</g>
<g style="fill:#000000; fill-opacity:0.0; 
stroke:#000000; stroke-width:59.0551; stroke-opacity:1; 
stroke-linecap:round; stroke-linejoin:round;">
<path d="M23622 4724
L23622 3937
" />
</g>
<g style="fill:#000000; fill-opacity:0.0; 
stroke:#000000; stroke-width:39.3701; stroke-opacity:1; 
stroke-linecap:round; stroke-linejoin:round;">
</g>
<g style="fill:#000000; fill-opacity:0.0; 
stroke:#000000; stroke-width:59.0551; stroke-opacity:1; 
stroke-linecap:round; stroke-linejoin:round;">
<path d="M43307 4724
L43307 3937
" />
</g>
<g style="fill:#000000; fill-opacity:0.0; 
stroke:#000000; stroke-width:39.3701; stroke-opacity:1; 
stroke-linecap:round; stroke-linejoin:round;">
</g>
<g style="fill:#000000; fill-opacity:0.0; 
stroke:#000000; stroke-width:59.0551; stroke-opacity:1; 
stroke-linecap:round; stroke-linejoin:round;">
<path d="M14199 4562
L13906 4562
" />
<path d="M14052 4562
L14052 4050
L14004 4123
L13955 4172
L13906 4196
" />
</g>
<g style="fill:#000000; fill-opacity:0.0; 
stroke:#000000; stroke-width:39.3701; stroke-opacity:1; 
stroke-linecap:round; stroke-linejoin:round;">
</g>
<g style="fill:#000000; fill-opacity:0.0; 
stroke:#000000; stroke-width:59.0551; stroke-opacity:1; 
stroke-linecap:round; stroke-linejoin:round;">
<path d="M33591 4099
L33615 4074
L33664 4050
L33786 4050
L33835 4074
L33859 4099
L33884 4147
L33884 4196
L33859 4269
L33567 4562
L33884 4562
" />
</g>
<g style="fill:#000000; fill-opacity:0.0; 
stroke:#000000; stroke-width:39.3701; stroke-opacity:1; 
stroke-linecap:round; stroke-linejoin:round;">
</g>
<g style="fill:#000000; fill-opacity:0.0; 
stroke:#000000; stroke-width:59.0551; stroke-opacity:1; 
stroke-linecap:round; stroke-linejoin:round;">
<path d="M23622 66145
L23622 66932
" />
</g>
<g style="fill:#000000; fill-opacity:0.0; 
stroke:#000000; stroke-width:39.3701; stroke-opacity:1; 
stroke-linecap:round; stroke-linejoin:round;">
</g>
<g style="fill:#000000; fill-opacity:0.0; 
stroke:#000000; stroke-width:59.0551; stroke-opacity:1; 
stroke-linecap:round; stroke-linejoin:round;">
<path d="M43307 66145
L43307 66932
" />
</g>
<g style="fill:#000000; fill-opacity:0.0; 
stroke:#000000; stroke-width:39.3701; stroke-opacity:1; 
stroke-linecap:round; stroke-linejoin:round;">
</g>
<g style="fill:#000000; fill-opacity:0.0; 
stroke:#000000; stroke-width:59.0551; stroke-opacity:1; 
stroke-linecap:round; stroke-linejoin:round;">
<path d="M14199 66770
L13906 66770
" />
<path d="M14052 66770
L14052 66259
L14004 66332
L13955 66380
L13906 66405
" />
</g>
<g style="fill:#000000; fill-opacity:0.0; 
stroke:#000000; stroke-width:39.3701; stroke-opacity:1; 
stroke-linecap:round; stroke-linejoin:round;">
</g>
<g style="fill:#000000; fill-opacity:0.0; 
stroke:#000000; stroke-width:59.0551; stroke-opacity:1; 
stroke-linecap:round; stroke-linejoin:round;">
<path d="M33591 66307
L33615 66283
L33664 66259
L33786 66259
L33835 66283
L33859 66307
L33884 66356
L33884 66405
L33859 66478
L33567 66770
L33884 66770
" />
</g>
<g style="fill:#000000; fill-opacity:0.0; 
stroke:#000000; stroke-width:39.3701; stroke-opacity:1; 
stroke-linecap:round; stroke-linejoin:round;">
</g>
<g style="fill:#000000; fill-opacity:0.0; 
stroke:#000000; stroke-width:59.0551; stroke-opacity:1; 
stroke-linecap:round; stroke-linejoin:round;">
<path d="M3937 23622
L4724 23622
" />
</g>
<g style="fill:#000000; fill-opacity:0.0; 
stroke:#000000; stroke-width:39.3701; stroke-opacity:1; 
stroke-linecap:round; stroke-linejoin:round;">
</g>
<g style="fill:#000000; fill-opacity:0.0; 
stroke:#000000; stroke-width:59.0551; stroke-opacity:1; 
stroke-linecap:round; stroke-linejoin:round;">
<path d="M3937 43307
L4724 43307
" />
</g>
<g style="fill:#000000; fill-opacity:0.0; 
stroke:#000000; stroke-width:39.3701; stroke-opacity:1; 
stroke-linecap:round; stroke-linejoin:round;">
</g>
<g style="fill:#000000; fill-opacity:0.0; 
stroke:#000000; stroke-width:59.0551; stroke-opacity:1; 
stroke-linecap:round; stroke-linejoin:round;">
<path d="M3937 62992
L4724 62992
" />
</g>
<g style="fill:#000000; fill-opacity:0.0; 
stroke:#000000; stroke-width:39.3701; stroke-opacity:1; 
stroke-linecap:round; stroke-linejoin:round;">
</g>
<g style="fill:#000000; fill-opacity:0.0; 
stroke:#000000; stroke-width:59.0551; stroke-opacity:1; 
stroke-linecap:round; stroke-linejoin:round;">
<path d="M4208 13864
L4452 13864
" />
<path d="M4160 14011
L4330 13499
L4501 14011
" />
</g>
<g style="fill:#000000; fill-opacity:0.0; 
stroke:#000000; stroke-width:39.3701; stroke-opacity:1; 
stroke-linecap:round; stroke-linejoin:round;">
</g>
<g style="fill:#000000; fill-opacity:0.0; 
stroke:#000000; stroke-width:59.0551; stroke-opacity:1; 
stroke-linecap:round; stroke-linejoin:round;">
<path d="M4367 33428
L4440 33452
L4464 33476
L4489 33525
L4489 33598
L4464 33647
L4440 33671
L4391 33696
L4196 33696
L4196 33184
L4367 33184
L4416 33208
L4440 33233
L4464 33281
L4464 33330
L4440 33379
L4416 33403
L4367 33428
L4196 33428
" />
</g>
<g style="fill:#000000; fill-opacity:0.0; 
stroke:#000000; stroke-width:39.3701; stroke-opacity:1; 
stroke-linecap:round; stroke-linejoin:round;">
</g>
<g style="fill:#000000; fill-opacity:0.0; 
stroke:#000000; stroke-width:59.0551; stroke-opacity:1; 
stroke-linecap:round; stroke-linejoin:round;">
<path d="M4489 53332
L4464 53356
L4391 53381
L4342 53381
L4269 53356
L4221 53308
L4196 53259
L4172 53161
L4172 53088
L4196 52991
L4221 52942
L4269 52893
L4342 52869
L4391 52869
L4464 52893
L4489 52918
" />
</g>
<g style="fill:#000000; fill-opacity:0.0; 
stroke:#000000; stroke-width:39.3701; stroke-opacity:1; 
stroke-linecap:round; stroke-linejoin:round;">
</g>
<g style="fill:#000000; fill-opacity:0.0; 
stroke:#000000; stroke-width:59.0551; stroke-opacity:1; 
stroke-linecap:round; stroke-linejoin:round;">
<path d="M47242 23622
L46455 23622
" />
</g>
<g style="fill:#000000; fill-opacity:0.0; 
stroke:#000000; stroke-width:39.3701; stroke-opacity:1; 
stroke-linecap:round; stroke-linejoin:round;">
</g>
<g style="fill:#000000; fill-opacity:0.0; 
stroke:#000000; stroke-width:59.0551; stroke-opacity:1; 
stroke-linecap:round; stroke-linejoin:round;">
<path d="M47242 43307
L46455 43307
" />
</g>
<g style="fill:#000000; fill-opacity:0.0; 
stroke:#000000; stroke-width:39.3701; stroke-opacity:1; 
stroke-linecap:round; stroke-linejoin:round;">
</g>
<g style="fill:#000000; fill-opacity:0.0; 
stroke:#000000; stroke-width:59.0551; stroke-opacity:1; 
stroke-linecap:round; stroke-linejoin:round;">
<path d="M47242 62992
L46455 62992
" />
</g>
<g style="fill:#000000; fill-opacity:0.0; 
stroke:#000000; stroke-width:39.3701; stroke-opacity:1; 
stroke-linecap:round; stroke-linejoin:round;">
</g>
<g style="fill:#000000; fill-opacity:0.0; 
stroke:#000000; stroke-width:59.0551; stroke-opacity:1; 
stroke-linecap:round; stroke-linejoin:round;">
<path d="M46727 13864
L46971 13864
" />
<path d="M46678 14011
L46849 13499
L47019 14011
" />
</g>
<g style="fill:#000000; fill-opacity:0.0; 
stroke:#000000; stroke-width:39.3701; stroke-opacity:1; 
stroke-linecap:round; stroke-linejoin:round;">
</g>
<g style="fill:#000000; fill-opacity:0.0; 
stroke:#000000; stroke-width:59.0551; stroke-opacity:1; 
stroke-linecap:round; stroke-linejoin:round;">
<path d="M46885 33428
L46958 33452
L46983 33476
L47007 33525
L47007 33598
L46983 33647
L46958 33671
L46910 33696
L46715 33696
L46715 33184
L46885 33184
L46934 33208
L46958 33233
L46983 33281
L46983 33330
L46958 33379
L46934 33403
L46885 33428
L46715 33428
" />
</g>
<g style="fill:#000000; fill-opacity:0.0; 
stroke:#000000; stroke-width:39.3701; stroke-opacity:1; 
stroke-linecap:round; stroke-linejoin:round;">
</g>
<g style="fill:#000000; fill-opacity:0.0; 
stroke:#000000; stroke-width:59.0551; stroke-opacity:1; 
stroke-linecap:round; stroke-linejoin:round;">
<path d="M47007 53332
L46983 53356
L46910 53381
L46861 53381
L46788 53356
L46739 53308
L46715 53259
L46690 53161
L46690 53088
L46715 52991
L46739 52942
L46788 52893
L46861 52869
L46910 52869
L46983 52893
L47007 52918
" />
</g>
<g style="fill:#000000; fill-opacity:0.0; 
stroke:#000000; stroke-width:39.3701; stroke-opacity:1; 
stroke-linecap:round; stroke-linejoin:round;">
</g>
<g style="fill:#000000; fill-opacity:0.0; 
stroke:#000000; stroke-width:59.0551; stroke-opacity:1; 
stroke-linecap:round; stroke-linejoin:round;">
<path d="M13161 64483
L13161 63893
L13301 63893
L13386 63921
L13442 63977
L13470 64033
L13498 64146
L13498 64230
L13470 64343
L13442 64399
L13386 64455
L13301 64483
L13161 64483
" />
<path d="M14004 64483
L14004 64174
L13976 64118
L13920 64089
L13807 64089
L13751 64118
" />
<path d="M14004 64455
L13948 64483
L13807 64483
L13751 64455
L13723 64399
L13723 64343
L13751 64286
L13807 64258
L13948 64258
L14004 64230
" />
<path d="M14201 64089
L14426 64089
" />
<path d="M14286 63893
L14286 64399
L14314 64455
L14370 64483
L14426 64483
" />
<path d="M14848 64455
L14792 64483
L14679 64483
L14623 64455
L14595 64399
L14595 64174
L14623 64118
L14679 64089
L14792 64089
L14848 64118
L14876 64174
L14876 64230
L14595 64286
" />
<path d="M15129 64427
L15157 64455
L15129 64483
L15101 64455
L15129 64427
L15129 64483
" />
<path d="M15129 64118
L15157 64146
L15129 64174
L15101 64146
L15129 64118
L15129 64174
" />
<path d="M15832 63949
L15860 63921
L15917 63893
L16057 63893
L16113 63921
L16142 63949
L16170 64005
L16170 64061
L16142 64146
L15804 64483
L16170 64483
" />
<path d="M16535 63893
L16591 63893
L16648 63921
L16676 63949
L16704 64005
L16732 64118
L16732 64258
L16704 64371
L16676 64427
L16648 64455
L16591 64483
L16535 64483
L16479 64455
L16451 64427
L16423 64371
L16395 64258
L16395 64118
L16423 64005
L16451 63949
L16479 63921
L16535 63893
" />
<path d="M17295 64483
L16957 64483
" />
<path d="M17126 64483
L17126 63893
L17070 63977
L17013 64033
L16957 64061
" />
<path d="M17576 64483
L17688 64483
L17744 64455
L17773 64427
L17829 64343
L17857 64230
L17857 64005
L17829 63949
L17801 63921
L17744 63893
L17632 63893
L17576 63921
L17548 63949
L17519 64005
L17519 64146
L17548 64202
L17576 64230
L17632 64258
L17744 64258
L17801 64230
L17829 64202
L17857 64146
" />
<path d="M18110 64258
L18560 64258
" />
<path d="M18954 63893
L19010 63893
L19066 63921
L19094 63949
L19122 64005
L19151 64118
L19151 64258
L19122 64371
L19094 64427
L19066 64455
L19010 64483
L18954 64483
L18897 64455
L18869 64427
L18841 64371
L18813 64258
L18813 64118
L18841 64005
L18869 63949
L18897 63921
L18954 63893
" />
<path d="M19488 64146
L19432 64118
L19404 64089
L19376 64033
L19376 64005
L19404 63949
L19432 63921
L19488 63893
L19600 63893
L19657 63921
L19685 63949
L19713 64005
L19713 64033
L19685 64089
L19657 64118
L19600 64146
L19488 64146
L19432 64174
L19404 64202
L19376 64258
L19376 64371
L19404 64427
L19432 64455
L19488 64483
L19600 64483
L19657 64455
L19685 64427
L19713 64371
L19713 64258
L19685 64202
L19657 64174
L19600 64146
" />
<path d="M19966 64258
L20416 64258
" />
<path d="M20810 63893
L20866 63893
L20922 63921
L20950 63949
L20978 64005
L21007 64118
L21007 64258
L20978 64371
L20950 64427
L20922 64455
L20866 64483
L20810 64483
L20753 64455
L20725 64427
L20697 64371
L20669 64258
L20669 64118
L20697 64005
L20725 63949
L20753 63921
L20810 63893
" />
<path d="M21232 63949
L21260 63921
L21316 63893
L21456 63893
L21513 63921
L21541 63949
L21569 64005
L21569 64061
L21541 64146
L21203 64483
L21569 64483
" />
</g>
<g style="fill:#000000; fill-opacity:0.0; 
stroke:#000000; stroke-width:39.3701; stroke-opacity:1; 
stroke-linecap:round; stroke-linejoin:round;">
</g>
<g style="fill:#000000; fill-opacity:0.0; 
stroke:#000000; stroke-width:59.0551; stroke-opacity:1; 
stroke-linecap:round; stroke-linejoin:round;">
<path d="M3935 64767
L46455 64767
" />
</g>
<g style="fill:#000000; fill-opacity:0.0; 
stroke:#000000; stroke-width:39.3701; stroke-opacity:1; 
stroke-linecap:round; stroke-linejoin:round;">
</g>
<g style="fill:#000000; fill-opacity:0.0; 
stroke:#000000; stroke-width:59.0551; stroke-opacity:1; 
stroke-linecap:round; stroke-linejoin:round;">
<path d="M4499 65585
L4499 64995
" />
<path d="M4837 65585
L4584 65248
" />
<path d="M4837 64995
L4499 65332
" />
<path d="M5090 65585
L5090 65192
" />
<path d="M5090 64995
L5062 65023
L5090 65051
L5118 65023
L5090 64995
L5090 65051
" />
<path d="M5708 65529
L5680 65557
L5596 65585
L5540 65585
L5455 65557
L5399 65501
L5371 65445
L5343 65332
L5343 65248
L5371 65136
L5399 65079
L5455 65023
L5540 64995
L5596 64995
L5680 65023
L5708 65051
" />
<path d="M6215 65585
L6215 65276
L6187 65220
L6130 65192
L6018 65192
L5962 65220
" />
<path d="M6215 65557
L6158 65585
L6018 65585
L5962 65557
L5933 65501
L5933 65445
L5962 65389
L6018 65361
L6158 65361
L6215 65332
" />
<path d="M6749 65585
L6749 64995
" />
<path d="M6749 65557
L6693 65585
L6580 65585
L6524 65557
L6496 65529
L6468 65473
L6468 65304
L6496 65248
L6524 65220
L6580 65192
L6693 65192
L6749 65220
" />
<path d="M7480 65276
L7677 65276
" />
<path d="M7761 65585
L7480 65585
L7480 64995
L7761 64995
" />
<path d="M8014 65529
L8043 65557
L8014 65585
L7986 65557
L8014 65529
L8014 65585
" />
<path d="M8296 65585
L8296 64995
L8436 64995
L8521 65023
L8577 65079
L8605 65136
L8633 65248
L8633 65332
L8605 65445
L8577 65501
L8521 65557
L8436 65585
L8296 65585
" />
<path d="M8886 65529
L8914 65557
L8886 65585
L8858 65557
L8886 65529
L8886 65585
" />
<path d="M9139 65417
L9421 65417
" />
<path d="M9083 65585
L9280 64995
L9477 65585
" />
<path d="M9674 65529
L9702 65557
L9674 65585
L9645 65557
L9674 65529
L9674 65585
" />
<path d="M10855 65585
L10855 64995
" />
<path d="M10911 65361
L11080 65585
" />
<path d="M11080 65192
L10855 65417
" />
<path d="M11333 65585
L11333 65192
" />
<path d="M11333 64995
L11305 65023
L11333 65051
L11361 65023
L11333 64995
L11333 65051
" />
<path d="M11867 65557
L11811 65585
L11698 65585
L11642 65557
L11614 65529
L11586 65473
L11586 65304
L11614 65248
L11642 65220
L11698 65192
L11811 65192
L11867 65220
" />
<path d="M12373 65585
L12373 65276
L12345 65220
L12289 65192
L12176 65192
L12120 65220
" />
<path d="M12373 65557
L12317 65585
L12176 65585
L12120 65557
L12092 65501
L12092 65445
L12120 65389
L12176 65361
L12317 65361
L12373 65332
" />
<path d="M12908 65585
L12908 64995
" />
<path d="M12908 65557
L12851 65585
L12739 65585
L12683 65557
L12654 65529
L12626 65473
L12626 65304
L12654 65248
L12683 65220
L12739 65192
L12851 65192
L12908 65220
" />
<path d="M13920 64995
L13639 64995
L13611 65276
L13639 65248
L13695 65220
L13836 65220
L13892 65248
L13920 65276
L13948 65332
L13948 65473
L13920 65529
L13892 65557
L13836 65585
L13695 65585
L13639 65557
L13611 65529
" />
<path d="M14201 65529
L14229 65557
L14201 65585
L14173 65557
L14201 65529
L14201 65585
" />
<path d="M14595 64995
L14651 64995
L14707 65023
L14735 65051
L14764 65107
L14792 65220
L14792 65361
L14764 65473
L14735 65529
L14707 65557
L14651 65585
L14595 65585
L14539 65557
L14510 65529
L14482 65473
L14454 65361
L14454 65220
L14482 65107
L14510 65051
L14539 65023
L14595 64995
" />
<path d="M15045 65529
L15073 65557
L15045 65585
L15017 65557
L15045 65529
L15045 65585
" />
<path d="M15298 65051
L15326 65023
L15382 64995
L15523 64995
L15579 65023
L15607 65051
L15635 65107
L15635 65164
L15607 65248
L15270 65585
L15635 65585
" />
<path d="M15888 65361
L16338 65361
" />
<path d="M16113 65585
L16113 65136
" />
<path d="M16873 65585
L16873 64995
" />
<path d="M16873 65557
L16816 65585
L16704 65585
L16648 65557
L16620 65529
L16591 65473
L16591 65304
L16620 65248
L16648 65220
L16704 65192
L16816 65192
L16873 65220
" />
<path d="M17070 65192
L17295 65192
" />
<path d="M17154 65585
L17154 65079
L17182 65023
L17238 64995
L17295 64995
" />
<path d="M17463 65557
L17519 65585
L17632 65585
L17688 65557
L17716 65501
L17716 65473
L17688 65417
L17632 65389
L17548 65389
L17491 65361
L17463 65304
L17463 65276
L17491 65220
L17548 65192
L17632 65192
L17688 65220
" />
<path d="M18223 65192
L18223 65670
L18194 65726
L18166 65754
L18110 65782
L18026 65782
L17969 65754
" />
<path d="M18223 65557
L18166 65585
L18054 65585
L17998 65557
L17969 65529
L17941 65473
L17941 65304
L17969 65248
L17998 65220
L18054 65192
L18166 65192
L18223 65220
" />
<path d="M18813 65585
L18476 65585
" />
<path d="M18644 65585
L18644 64995
L18588 65079
L18532 65136
L18476 65164
" />
<path d="M19066 65361
L19516 65361
" />
<path d="M20107 65585
L19769 65585
" />
<path d="M19938 65585
L19938 64995
L19882 65079
L19825 65136
L19769 65164
" />
</g>
<g style="fill:#000000; fill-opacity:0.0; 
stroke:#000000; stroke-width:39.3701; stroke-opacity:1; 
stroke-linecap:round; stroke-linejoin:round;">
</g>
<g style="fill:#000000; fill-opacity:0.0; 
stroke:#000000; stroke-width:59.0551; stroke-opacity:1; 
stroke-linecap:round; stroke-linejoin:round;">
<path d="M3935 63586
L46455 63586
" />
</g>
<g style="fill:#000000; fill-opacity:0.0; 
stroke:#000000; stroke-width:39.3701; stroke-opacity:1; 
stroke-linecap:round; stroke-linejoin:round;">
</g>
<g style="fill:#000000; fill-opacity:0.0; 
stroke:#000000; stroke-width:118.11; stroke-opacity:1; 
stroke-linecap:round; stroke-linejoin:round;">
<path d="M38349 64483
L38152 64202
" />
<path d="M38011 64483
L38011 63893
L38236 63893
L38292 63921
L38320 63949
L38349 64005
L38349 64089
L38320 64146
L38292 64174
L38236 64202
L38011 64202
" />
<path d="M38827 64455
L38770 64483
L38658 64483
L38602 64455
L38573 64399
L38573 64174
L38602 64118
L38658 64089
L38770 64089
L38827 64118
L38855 64174
L38855 64230
L38573 64286
" />
<path d="M39052 64089
L39192 64483
L39333 64089
" />
<path d="M39558 64427
L39586 64455
L39558 64483
L39530 64455
L39558 64427
L39558 64483
" />
<path d="M39558 64118
L39586 64146
L39558 64174
L39530 64146
L39558 64118
L39558 64174
" />
<path d="M40233 64089
L40373 64483
L40514 64089
" />
<path d="M41048 64483
L40711 64483
" />
<path d="M40879 64483
L40879 63893
L40823 63977
L40767 64033
L40711 64061
" />
<path d="M41301 64427
L41329 64455
L41301 64483
L41273 64455
L41301 64427
L41301 64483
" />
<path d="M41892 64483
L41554 64483
" />
<path d="M41723 64483
L41723 63893
L41667 63977
L41611 64033
L41554 64061
" />
<path d="M42145 64427
L42173 64455
L42145 64483
L42117 64455
L42145 64427
L42145 64483
" />
<path d="M42539 63893
L42595 63893
L42651 63921
L42679 63949
L42707 64005
L42735 64118
L42735 64258
L42707 64371
L42679 64427
L42651 64455
L42595 64483
L42539 64483
L42482 64455
L42454 64427
L42426 64371
L42398 64258
L42398 64118
L42426 64005
L42454 63949
L42482 63921
L42539 63893
" />
</g>
<g style="fill:#000000; fill-opacity:0.0; 
stroke:#000000; stroke-width:39.3701; stroke-opacity:1; 
stroke-linecap:round; stroke-linejoin:round;">
</g>
<g style="fill:#000000; fill-opacity:0.0; 
stroke:#000000; stroke-width:59.0551; stroke-opacity:1; 
stroke-linecap:round; stroke-linejoin:round;">
<path d="M4471 64455
L4555 64483
L4696 64483
L4752 64455
L4780 64427
L4809 64371
L4809 64314
L4780 64258
L4752 64230
L4696 64202
L4584 64174
L4527 64146
L4499 64118
L4471 64061
L4471 64005
L4499 63949
L4527 63921
L4584 63893
L4724 63893
L4809 63921
" />
<path d="M5062 64483
L5062 64089
" />
<path d="M5062 63893
L5034 63921
L5062 63949
L5090 63921
L5062 63893
L5062 63949
" />
<path d="M5287 64089
L5596 64089
L5287 64483
L5596 64483
" />
<path d="M6046 64455
L5990 64483
L5877 64483
L5821 64455
L5793 64399
L5793 64174
L5821 64118
L5877 64089
L5990 64089
L6046 64118
L6074 64174
L6074 64230
L5793 64286
" />
<path d="M6327 64427
L6355 64455
L6327 64483
L6299 64455
L6327 64427
L6327 64483
" />
<path d="M6327 64118
L6355 64146
L6327 64174
L6299 64146
L6327 64118
L6327 64174
" />
<path d="M7058 63893
L7058 64371
L7086 64427
L7115 64455
L7171 64483
L7283 64483
L7340 64455
L7368 64427
L7396 64371
L7396 63893
" />
<path d="M7649 64455
L7705 64483
L7818 64483
L7874 64455
L7902 64399
L7902 64371
L7874 64314
L7818 64286
L7733 64286
L7677 64258
L7649 64202
L7649 64174
L7677 64118
L7733 64089
L7818 64089
L7874 64118
" />
<path d="M8380 64455
L8324 64483
L8211 64483
L8155 64455
L8127 64399
L8127 64174
L8155 64118
L8211 64089
L8324 64089
L8380 64118
L8408 64174
L8408 64230
L8127 64286
" />
<path d="M8661 64483
L8661 64089
" />
<path d="M8661 64202
L8689 64146
L8717 64118
L8774 64089
L8830 64089
" />
</g>
<g style="fill:#000000; fill-opacity:0.0; 
stroke:#000000; stroke-width:39.3701; stroke-opacity:1; 
stroke-linecap:round; stroke-linejoin:round;">
</g>
<g style="fill:#000000; fill-opacity:0.0; 
stroke:#000000; stroke-width:59.0551; stroke-opacity:1; 
stroke-linecap:round; stroke-linejoin:round;">
<path d="M37964 65585
L37964 64995
" />
<path d="M38498 65585
L38498 64995
" />
<path d="M38498 65557
L38442 65585
L38329 65585
L38273 65557
L38245 65529
L38217 65473
L38217 65304
L38245 65248
L38273 65220
L38329 65192
L38442 65192
L38498 65220
" />
<path d="M38779 65529
L38807 65557
L38779 65585
L38751 65557
L38779 65529
L38779 65585
" />
<path d="M38779 65220
L38807 65248
L38779 65276
L38751 65248
L38779 65220
L38779 65276
" />
<path d="M39820 65585
L39482 65585
" />
<path d="M39651 65585
L39651 64995
L39595 65079
L39539 65136
L39482 65164
" />
<path d="M40495 64967
L39989 65726
" />
<path d="M41001 65585
L40663 65585
" />
<path d="M40832 65585
L40832 64995
L40776 65079
L40720 65136
L40663 65164
" />
</g>
<g style="fill:#000000; fill-opacity:0.0; 
stroke:#000000; stroke-width:39.3701; stroke-opacity:1; 
stroke-linecap:round; stroke-linejoin:round;">
</g>
<g style="fill:#000000; fill-opacity:0.0; 
stroke:#000000; stroke-width:59.0551; stroke-opacity:1; 
stroke-linecap:round; stroke-linejoin:round;">
<path d="M3935 62011
L46455 62011
" />
</g>
<g style="fill:#000000; fill-opacity:0.0; 
stroke:#000000; stroke-width:39.3701; stroke-opacity:1; 
stroke-linecap:round; stroke-linejoin:round;">
</g>
<g style="fill:#000000; fill-opacity:0.0; 
stroke:#000000; stroke-width:157.48; stroke-opacity:1; 
stroke-linecap:round; stroke-linejoin:round;">
<path d="M4610 62289
L5060 62289
" />
<path d="M4736 63076
L4835 62289
" />
<path d="M5224 63076
L5289 62551
" />
<path d="M5322 62289
L5280 62326
L5313 62364
L5355 62326
L5322 62289
L5313 62364
" />
<path d="M5552 62551
L5852 62551
" />
<path d="M5697 62289
L5613 62964
L5641 63039
L5711 63076
L5786 63076
" />
<path d="M6161 63076
L6091 63039
L6063 62964
L6147 62289
" />
<path d="M6766 63039
L6686 63076
L6536 63076
L6466 63039
L6437 62964
L6475 62664
L6522 62589
L6602 62551
L6751 62551
L6822 62589
L6850 62664
L6841 62739
L6456 62814
" />
<path d="M7145 63001
L7178 63039
L7136 63076
L7103 63039
L7145 63001
L7136 63076
" />
<path d="M7197 62589
L7230 62626
L7187 62664
L7155 62626
L7197 62589
L7187 62664
" />
<path d="M8111 63076
L8209 62289
L8397 62289
L8504 62326
L8570 62401
L8598 62476
L8617 62626
L8603 62739
L8547 62889
L8500 62964
L8415 63039
L8298 63076
L8111 63076
" />
<path d="M8898 63076
L8964 62551
" />
<path d="M8997 62289
L8954 62326
L8987 62364
L9029 62326
L8997 62289
L8987 62364
" />
<path d="M9273 63076
L9339 62551
" />
<path d="M9329 62626
L9371 62589
L9451 62551
L9564 62551
L9634 62589
L9662 62664
L9611 63076
" />
<path d="M9662 62664
L9709 62589
L9789 62551
L9901 62551
L9971 62589
L10000 62664
L9948 63076
" />
<path d="M10323 63076
L10389 62551
" />
<path d="M10379 62626
L10421 62589
L10501 62551
L10614 62551
L10684 62589
L10712 62664
L10660 63076
" />
<path d="M10712 62664
L10759 62589
L10838 62551
L10951 62551
L11021 62589
L11049 62664
L10998 63076
" />
<path d="M11710 63076
L11762 62664
L11734 62589
L11663 62551
L11513 62551
L11434 62589
" />
<path d="M11715 63039
L11635 63076
L11448 63076
L11377 63039
L11349 62964
L11359 62889
L11406 62814
L11485 62776
L11673 62776
L11752 62739
" />
<path d="M12085 63076
L12184 62289
" />
<path d="M12146 62589
L12226 62551
L12376 62551
L12446 62589
L12479 62626
L12507 62701
L12479 62926
L12432 63001
L12390 63039
L12310 63076
L12160 63076
L12090 63039
" />
<path d="M12910 63076
L12840 63039
L12812 62964
L12896 62289
" />
<path d="M13515 63039
L13435 63076
L13285 63076
L13215 63039
L13187 62964
L13224 62664
L13271 62589
L13351 62551
L13501 62551
L13571 62589
L13599 62664
L13590 62739
L13205 62814
" />
<path d="M14944 63001
L14902 63039
L14785 63076
L14710 63076
L14602 63039
L14536 62964
L14508 62889
L14490 62739
L14504 62626
L14560 62476
L14607 62401
L14691 62326
L14808 62289
L14883 62289
L14991 62326
L15024 62364
" />
<path d="M15577 63039
L15497 63076
L15347 63076
L15277 63039
L15249 62964
L15286 62664
L15333 62589
L15413 62551
L15563 62551
L15633 62589
L15661 62664
L15652 62739
L15268 62814
" />
<path d="M15947 63076
L16013 62551
" />
<path d="M16046 62289
L16003 62326
L16036 62364
L16078 62326
L16046 62289
L16036 62364
" />
<path d="M16435 63076
L16364 63039
L16336 62964
L16421 62289
" />
<path d="M16735 63076
L16800 62551
" />
<path d="M16833 62289
L16791 62326
L16824 62364
L16866 62326
L16833 62289
L16824 62364
" />
<path d="M17175 62551
L17110 63076
" />
<path d="M17166 62626
L17208 62589
L17288 62551
L17400 62551
L17470 62589
L17499 62664
L17447 63076
" />
<path d="M18225 62551
L18145 63189
L18099 63264
L18056 63301
L17977 63339
L17864 63339
L17794 63301
" />
<path d="M18164 63039
L18084 63076
L17934 63076
L17864 63039
L17831 63001
L17803 62926
L17831 62701
L17878 62626
L17920 62589
L18000 62551
L18150 62551
L18220 62589
" />
<path d="M19509 63076
L19134 63076
L19233 62289
" />
<path d="M19772 63076
L19837 62551
" />
<path d="M19870 62289
L19828 62326
L19861 62364
L19903 62326
L19870 62289
L19861 62364
" />
<path d="M20550 62551
L20470 63189
L20423 63264
L20381 63301
L20301 63339
L20189 63339
L20119 63301
" />
<path d="M20489 63039
L20409 63076
L20259 63076
L20189 63039
L20156 63001
L20128 62926
L20156 62701
L20203 62626
L20245 62589
L20325 62551
L20475 62551
L20545 62589
" />
<path d="M20859 63076
L20958 62289
" />
<path d="M21197 63076
L21248 62664
L21220 62589
L21150 62551
L21037 62551
L20958 62589
L20915 62626
" />
<path d="M21525 62551
L21825 62551
" />
<path d="M21670 62289
L21586 62964
L21614 63039
L21684 63076
L21759 63076
" />
<path d="M23081 63001
L23039 63039
L22921 63076
L22846 63076
L22739 63039
L22673 62964
L22645 62889
L22626 62739
L22640 62626
L22696 62476
L22743 62401
L22828 62326
L22945 62289
L23020 62289
L23128 62326
L23160 62364
" />
<path d="M23521 63076
L23451 63039
L23418 63001
L23390 62926
L23418 62701
L23465 62626
L23507 62589
L23587 62551
L23699 62551
L23770 62589
L23802 62626
L23831 62701
L23802 62926
L23756 63001
L23713 63039
L23634 63076
L23521 63076
" />
<path d="M24187 62551
L24121 63076
" />
<path d="M24177 62626
L24220 62589
L24299 62551
L24412 62551
L24482 62589
L24510 62664
L24459 63076
" />
<path d="M24787 62551
L25087 62551
" />
<path d="M24932 62289
L24848 62964
L24876 63039
L24946 63076
L25021 63076
" />
<path d="M25284 63076
L25349 62551
" />
<path d="M25330 62701
L25377 62626
L25419 62589
L25499 62551
L25574 62551
" />
<path d="M25883 63076
L25813 63039
L25780 63001
L25752 62926
L25780 62701
L25827 62626
L25869 62589
L25949 62551
L26062 62551
L26132 62589
L26165 62626
L26193 62701
L26165 62926
L26118 63001
L26076 63039
L25996 63076
L25883 63076
" />
<path d="M26596 63076
L26526 63039
L26497 62964
L26582 62289
" />
<path d="M27008 63076
L26938 63039
L26910 62964
L26994 62289
" />
<path d="M27613 63039
L27533 63076
L27383 63076
L27313 63039
L27285 62964
L27322 62664
L27369 62589
L27449 62551
L27599 62551
L27669 62589
L27697 62664
L27688 62739
L27304 62814
" />
<path d="M27983 63076
L28049 62551
" />
<path d="M28030 62701
L28077 62626
L28119 62589
L28199 62551
L28274 62551
" />
</g>
<g style="fill:#000000; fill-opacity:0.0; 
stroke:#000000; stroke-width:39.3701; stroke-opacity:1; 
stroke-linecap:round; stroke-linejoin:round;">
</g>
<g style="fill:#000000; fill-opacity:0.0; 
stroke:#000000; stroke-width:59.0551; stroke-opacity:1; 
stroke-linecap:round; stroke-linejoin:round;">
<path d="M4696 61260
L4499 61260
" />
<path d="M4499 61570
L4499 60979
L4780 60979
" />
<path d="M5005 61570
L5005 61176
" />
<path d="M5005 60979
L4977 61007
L5005 61035
L5034 61007
L5005 60979
L5005 61035
" />
<path d="M5371 61570
L5315 61542
L5287 61485
L5287 60979
" />
<path d="M5821 61542
L5765 61570
L5652 61570
L5596 61542
L5568 61485
L5568 61260
L5596 61204
L5652 61176
L5765 61176
L5821 61204
L5849 61260
L5849 61317
L5568 61373
" />
<path d="M6102 61513
L6130 61542
L6102 61570
L6074 61542
L6102 61513
L6102 61570
" />
<path d="M6102 61204
L6130 61232
L6102 61260
L6074 61232
L6102 61204
L6102 61260
" />
<path d="M7086 61542
L7030 61570
L6918 61570
L6861 61542
L6833 61513
L6805 61457
L6805 61289
L6833 61232
L6861 61204
L6918 61176
L7030 61176
L7086 61204
" />
<path d="M7564 61542
L7508 61570
L7396 61570
L7340 61542
L7311 61485
L7311 61260
L7340 61204
L7396 61176
L7508 61176
L7564 61204
L7593 61260
L7593 61317
L7311 61373
" />
<path d="M7846 61570
L7846 61176
" />
<path d="M7846 60979
L7818 61007
L7846 61035
L7874 61007
L7846 60979
L7846 61035
" />
<path d="M8211 61570
L8155 61542
L8127 61485
L8127 60979
" />
<path d="M8436 61570
L8436 61176
" />
<path d="M8436 60979
L8408 61007
L8436 61035
L8464 61007
L8436 60979
L8436 61035
" />
<path d="M8717 61176
L8717 61570
" />
<path d="M8717 61232
L8746 61204
L8802 61176
L8886 61176
L8942 61204
L8971 61260
L8971 61570
" />
<path d="M9505 61176
L9505 61654
L9477 61710
L9449 61738
L9392 61767
L9308 61767
L9252 61738
" />
<path d="M9505 61542
L9449 61570
L9336 61570
L9280 61542
L9252 61513
L9224 61457
L9224 61289
L9252 61232
L9280 61204
L9336 61176
L9449 61176
L9505 61204
" />
<path d="M9786 61345
L10236 61345
" />
<path d="M10602 61570
L10545 61542
L10517 61485
L10517 60979
" />
<path d="M10827 61570
L10827 61176
" />
<path d="M10827 60979
L10798 61007
L10827 61035
L10855 61007
L10827 60979
L10827 61035
" />
<path d="M11361 61176
L11361 61654
L11333 61710
L11305 61738
L11248 61767
L11164 61767
L11108 61738
" />
<path d="M11361 61542
L11305 61570
L11192 61570
L11136 61542
L11108 61513
L11080 61457
L11080 61289
L11108 61232
L11136 61204
L11192 61176
L11305 61176
L11361 61204
" />
<path d="M11642 61570
L11642 60979
" />
<path d="M11895 61570
L11895 61260
L11867 61204
L11811 61176
L11726 61176
L11670 61204
L11642 61232
" />
<path d="M12092 61176
L12317 61176
" />
<path d="M12176 60979
L12176 61485
L12205 61542
L12261 61570
L12317 61570
" />
<path d="M12514 61345
L12964 61345
" />
<path d="M13498 61570
L13498 60979
" />
<path d="M13498 61542
L13442 61570
L13329 61570
L13273 61542
L13245 61513
L13217 61457
L13217 61289
L13245 61232
L13273 61204
L13329 61176
L13442 61176
L13498 61204
" />
<path d="M13779 61570
L13779 61176
" />
<path d="M13779 60979
L13751 61007
L13779 61035
L13807 61007
L13779 60979
L13779 61035
" />
<path d="M14061 61570
L14061 61176
" />
<path d="M14061 61232
L14089 61204
L14145 61176
L14229 61176
L14286 61204
L14314 61260
L14314 61570
" />
<path d="M14314 61260
L14342 61204
L14398 61176
L14482 61176
L14539 61204
L14567 61260
L14567 61570
" />
<path d="M14848 61570
L14848 61176
" />
<path d="M14848 61232
L14876 61204
L14932 61176
L15017 61176
L15073 61204
L15101 61260
L15101 61570
" />
<path d="M15101 61260
L15129 61204
L15185 61176
L15270 61176
L15326 61204
L15354 61260
L15354 61570
" />
<path d="M15888 61570
L15888 61260
L15860 61204
L15804 61176
L15692 61176
L15635 61204
" />
<path d="M15888 61542
L15832 61570
L15692 61570
L15635 61542
L15607 61485
L15607 61429
L15635 61373
L15692 61345
L15832 61345
L15888 61317
" />
<path d="M16170 61570
L16170 60979
" />
<path d="M16170 61204
L16226 61176
L16338 61176
L16395 61204
L16423 61232
L16451 61289
L16451 61457
L16423 61513
L16395 61542
L16338 61570
L16226 61570
L16170 61542
" />
<path d="M16788 61570
L16732 61542
L16704 61485
L16704 60979
" />
<path d="M17238 61542
L17182 61570
L17070 61570
L17013 61542
L16985 61485
L16985 61260
L17013 61204
L17070 61176
L17182 61176
L17238 61204
L17266 61260
L17266 61317
L16985 61373
" />
<path d="M17519 61513
L17548 61542
L17519 61570
L17491 61542
L17519 61513
L17519 61570
" />
<path d="M17801 61570
L17801 60979
" />
<path d="M17857 61345
L18026 61570
" />
<path d="M18026 61176
L17801 61401
" />
<path d="M18279 61570
L18279 61176
" />
<path d="M18279 60979
L18251 61007
L18279 61035
L18307 61007
L18279 60979
L18279 61035
" />
<path d="M18813 61542
L18757 61570
L18644 61570
L18588 61542
L18560 61513
L18532 61457
L18532 61289
L18560 61232
L18588 61204
L18644 61176
L18757 61176
L18813 61204
" />
<path d="M19319 61570
L19319 61260
L19291 61204
L19235 61176
L19122 61176
L19066 61204
" />
<path d="M19319 61542
L19263 61570
L19122 61570
L19066 61542
L19038 61485
L19038 61429
L19066 61373
L19122 61345
L19263 61345
L19319 61317
" />
<path d="M19854 61570
L19854 60979
" />
<path d="M19854 61542
L19797 61570
L19685 61570
L19629 61542
L19600 61513
L19572 61457
L19572 61289
L19600 61232
L19629 61204
L19685 61176
L19797 61176
L19854 61204
" />
<path d="M19994 61626
L20444 61626
" />
<path d="M20585 61176
L20585 61767
" />
<path d="M20585 61204
L20641 61176
L20753 61176
L20810 61204
L20838 61232
L20866 61289
L20866 61457
L20838 61513
L20810 61542
L20753 61570
L20641 61570
L20585 61542
" />
<path d="M21372 61542
L21316 61570
L21203 61570
L21147 61542
L21119 61513
L21091 61457
L21091 61289
L21119 61232
L21147 61204
L21203 61176
L21316 61176
L21372 61204
" />
<path d="M21625 61570
L21625 60979
" />
<path d="M21625 61204
L21681 61176
L21794 61176
L21850 61204
L21878 61232
L21906 61289
L21906 61457
L21878 61513
L21850 61542
L21794 61570
L21681 61570
L21625 61542
" />
</g>
<g style="fill:#000000; fill-opacity:0.0; 
stroke:#000000; stroke-width:39.3701; stroke-opacity:1; 
stroke-linecap:round; stroke-linejoin:round;">
</g>
<g style="fill:#000000; fill-opacity:0.0; 
stroke:#000000; stroke-width:59.0551; stroke-opacity:1; 
stroke-linecap:round; stroke-linejoin:round;">
<path d="M3935 59649
L46455 59649
" />
</g>
<g style="fill:#000000; fill-opacity:0.0; 
stroke:#000000; stroke-width:39.3701; stroke-opacity:1; 
stroke-linecap:round; stroke-linejoin:round;">
</g>
<g style="fill:#000000; fill-opacity:0.0; 
stroke:#000000; stroke-width:59.0551; stroke-opacity:1; 
stroke-linecap:round; stroke-linejoin:round;">
<path d="M4471 60479
L4555 60507
L4696 60507
L4752 60479
L4780 60450
L4809 60394
L4809 60338
L4780 60282
L4752 60254
L4696 60226
L4584 60197
L4527 60169
L4499 60141
L4471 60085
L4471 60029
L4499 59972
L4527 59944
L4584 59916
L4724 59916
L4809 59944
" />
<path d="M5062 60507
L5062 59916
" />
<path d="M5315 60507
L5315 60197
L5287 60141
L5230 60113
L5146 60113
L5090 60141
L5062 60169
" />
<path d="M5821 60479
L5765 60507
L5652 60507
L5596 60479
L5568 60422
L5568 60197
L5596 60141
L5652 60113
L5765 60113
L5821 60141
L5849 60197
L5849 60254
L5568 60310
" />
<path d="M6327 60479
L6271 60507
L6158 60507
L6102 60479
L6074 60422
L6074 60197
L6102 60141
L6158 60113
L6271 60113
L6327 60141
L6355 60197
L6355 60254
L6074 60310
" />
<path d="M6524 60113
L6749 60113
" />
<path d="M6608 59916
L6608 60422
L6636 60479
L6693 60507
L6749 60507
" />
<path d="M6946 60450
L6974 60479
L6946 60507
L6918 60479
L6946 60450
L6946 60507
" />
<path d="M6946 60141
L6974 60169
L6946 60197
L6918 60169
L6946 60141
L6946 60197
" />
</g>
<g style="fill:#000000; fill-opacity:0.0; 
stroke:#000000; stroke-width:39.3701; stroke-opacity:1; 
stroke-linecap:round; stroke-linejoin:round;">
</g>
<g style="fill:#000000; fill-opacity:0.0; 
stroke:#000000; stroke-width:118.11; stroke-opacity:1; 
stroke-linecap:round; stroke-linejoin:round;">
<path d="M4518 59298
L4575 59326
L4687 59326
L4743 59298
L4771 59241
L4771 59213
L4743 59157
L4687 59129
L4603 59129
L4546 59101
L4518 59044
L4518 59016
L4546 58960
L4603 58932
L4687 58932
L4743 58960
" />
<path d="M5109 59326
L5053 59298
L5025 59241
L5025 58735
" />
<path d="M5334 59326
L5334 58932
" />
<path d="M5334 58735
L5306 58763
L5334 58791
L5362 58763
L5334 58735
L5334 58791
" />
<path d="M5615 59326
L5615 58932
" />
<path d="M5615 58988
L5643 58960
L5699 58932
L5784 58932
L5840 58960
L5868 59016
L5868 59326
" />
<path d="M5868 59016
L5896 58960
L5953 58932
L6037 58932
L6093 58960
L6121 59016
L6121 59326
" />
<path d="M6656 59298
L6599 59326
L6487 59326
L6431 59298
L6403 59269
L6374 59213
L6374 59044
L6403 58988
L6431 58960
L6487 58932
L6599 58932
L6656 58960
" />
</g>
<g style="fill:#000000; fill-opacity:0.0; 
stroke:#000000; stroke-width:39.3701; stroke-opacity:1; 
stroke-linecap:round; stroke-linejoin:round;">
</g>
<g style="fill:#000000; fill-opacity:0.0; 
stroke:#000000; stroke-width:59.0551; stroke-opacity:1; 
stroke-linecap:round; stroke-linejoin:round;">
<path d="M4612 57554
L4724 57554
L4780 57582
L4837 57638
L4865 57751
L4865 57948
L4837 58060
L4780 58116
L4724 58145
L4612 58145
L4555 58116
L4499 58060
L4471 57948
L4471 57751
L4499 57638
L4555 57582
L4612 57554
" />
<path d="M5118 57751
L5118 58341
" />
<path d="M5118 57779
L5174 57751
L5287 57751
L5343 57779
L5371 57807
L5399 57863
L5399 58032
L5371 58088
L5343 58116
L5287 58145
L5174 58145
L5118 58116
" />
<path d="M5877 58116
L5821 58145
L5708 58145
L5652 58116
L5624 58060
L5624 57835
L5652 57779
L5708 57751
L5821 57751
L5877 57779
L5905 57835
L5905 57891
L5624 57948
" />
<path d="M6158 57751
L6158 58145
" />
<path d="M6158 57807
L6187 57779
L6243 57751
L6327 57751
L6383 57779
L6412 57835
L6412 58145
" />
<path d="M7115 58116
L7199 58145
L7340 58145
L7396 58116
L7424 58088
L7452 58032
L7452 57976
L7424 57920
L7396 57891
L7340 57863
L7227 57835
L7171 57807
L7143 57779
L7115 57723
L7115 57666
L7143 57610
L7171 57582
L7227 57554
L7368 57554
L7452 57582
" />
<path d="M7789 58145
L7733 58116
L7705 58088
L7677 58032
L7677 57863
L7705 57807
L7733 57779
L7789 57751
L7874 57751
L7930 57779
L7958 57807
L7986 57863
L7986 58032
L7958 58088
L7930 58116
L7874 58145
L7789 58145
" />
<path d="M8492 57751
L8492 58145
" />
<path d="M8239 57751
L8239 58060
L8268 58116
L8324 58145
L8408 58145
L8464 58116
L8492 58088
" />
<path d="M8774 58145
L8774 57751
" />
<path d="M8774 57863
L8802 57807
L8830 57779
L8886 57751
L8942 57751
" />
<path d="M9392 58116
L9336 58145
L9224 58145
L9167 58116
L9139 58088
L9111 58032
L9111 57863
L9139 57807
L9167 57779
L9224 57751
L9336 57751
L9392 57779
" />
<path d="M9870 58116
L9814 58145
L9702 58145
L9645 58116
L9617 58060
L9617 57835
L9645 57779
L9702 57751
L9814 57751
L9870 57779
L9899 57835
L9899 57891
L9617 57948
" />
<path d="M10602 58145
L10602 57554
L10827 57554
L10883 57582
L10911 57610
L10939 57666
L10939 57751
L10911 57807
L10883 57835
L10827 57863
L10602 57863
" />
<path d="M11192 58145
L11192 57751
" />
<path d="M11192 57863
L11220 57807
L11248 57779
L11305 57751
L11361 57751
" />
<path d="M11642 58145
L11586 58116
L11558 58088
L11530 58032
L11530 57863
L11558 57807
L11586 57779
L11642 57751
L11726 57751
L11783 57779
L11811 57807
L11839 57863
L11839 58032
L11811 58088
L11783 58116
L11726 58145
L11642 58145
" />
<path d="M12092 57751
L12092 58257
L12064 58313
L12008 58341
L11980 58341
" />
<path d="M12092 57554
L12064 57582
L12092 57610
L12120 57582
L12092 57554
L12092 57610
" />
<path d="M12598 58116
L12542 58145
L12429 58145
L12373 58116
L12345 58060
L12345 57835
L12373 57779
L12429 57751
L12542 57751
L12598 57779
L12626 57835
L12626 57891
L12345 57948
" />
<path d="M13133 58116
L13076 58145
L12964 58145
L12908 58116
L12879 58088
L12851 58032
L12851 57863
L12879 57807
L12908 57779
L12964 57751
L13076 57751
L13133 57779
" />
<path d="M13301 57751
L13526 57751
" />
<path d="M13386 57554
L13386 58060
L13414 58116
L13470 58145
L13526 58145
" />
</g>
<g style="fill:#000000; fill-opacity:0.0; 
stroke:#000000; stroke-width:39.3701; stroke-opacity:1; 
stroke-linecap:round; stroke-linejoin:round;">
</g>
<g style="fill:#000000; fill-opacity:0.0; 
stroke:#000000; stroke-width:59.0551; stroke-opacity:1; 
stroke-linecap:round; stroke-linejoin:round;">
<path d="M4752 56570
L4752 57048
L4724 57104
L4696 57132
L4640 57160
L4555 57160
L4499 57132
" />
<path d="M4752 56935
L4696 56963
L4584 56963
L4527 56935
L4499 56907
L4471 56851
L4471 56682
L4499 56626
L4527 56598
L4584 56570
L4696 56570
L4752 56598
" />
<path d="M5034 56963
L5034 56570
" />
<path d="M5034 56373
L5005 56401
L5034 56429
L5062 56401
L5034 56373
L5034 56429
" />
<path d="M5230 56570
L5455 56570
" />
<path d="M5315 56373
L5315 56879
L5343 56935
L5399 56963
L5455 56963
" />
<path d="M5652 56963
L5652 56373
" />
<path d="M5905 56963
L5905 56654
L5877 56598
L5821 56570
L5737 56570
L5680 56598
L5652 56626
" />
<path d="M6440 56570
L6440 56963
" />
<path d="M6187 56570
L6187 56879
L6215 56935
L6271 56963
L6355 56963
L6412 56935
L6440 56907
" />
<path d="M6721 56963
L6721 56373
" />
<path d="M6721 56598
L6777 56570
L6890 56570
L6946 56598
L6974 56626
L7002 56682
L7002 56851
L6974 56907
L6946 56935
L6890 56963
L6777 56963
L6721 56935
" />
<path d="M7255 56907
L7283 56935
L7255 56963
L7227 56935
L7255 56907
L7255 56963
" />
<path d="M7789 56935
L7733 56963
L7621 56963
L7564 56935
L7536 56907
L7508 56851
L7508 56682
L7536 56626
L7564 56598
L7621 56570
L7733 56570
L7789 56598
" />
<path d="M8127 56963
L8071 56935
L8043 56907
L8014 56851
L8014 56682
L8043 56626
L8071 56598
L8127 56570
L8211 56570
L8268 56598
L8296 56626
L8324 56682
L8324 56851
L8296 56907
L8268 56935
L8211 56963
L8127 56963
" />
<path d="M8577 56963
L8577 56570
" />
<path d="M8577 56626
L8605 56598
L8661 56570
L8746 56570
L8802 56598
L8830 56654
L8830 56963
" />
<path d="M8830 56654
L8858 56598
L8914 56570
L8999 56570
L9055 56598
L9083 56654
L9083 56963
" />
<path d="M9786 56345
L9280 57104
" />
<path d="M9955 56935
L10011 56963
L10124 56963
L10180 56935
L10208 56879
L10208 56851
L10180 56795
L10124 56767
L10039 56767
L9983 56738
L9955 56682
L9955 56654
L9983 56598
L10039 56570
L10124 56570
L10180 56598
" />
<path d="M10545 56963
L10489 56935
L10461 56879
L10461 56373
" />
<path d="M10770 56963
L10770 56570
" />
<path d="M10770 56373
L10742 56401
L10770 56429
L10798 56401
L10770 56373
L10770 56429
" />
<path d="M11052 56963
L11052 56570
" />
<path d="M11052 56626
L11080 56598
L11136 56570
L11220 56570
L11277 56598
L11305 56654
L11305 56963
" />
<path d="M11305 56654
L11333 56598
L11389 56570
L11473 56570
L11530 56598
L11558 56654
L11558 56963
" />
<path d="M12092 56935
L12036 56963
L11923 56963
L11867 56935
L11839 56907
L11811 56851
L11811 56682
L11839 56626
L11867 56598
L11923 56570
L12036 56570
L12092 56598
" />
<path d="M12598 56963
L12598 56373
" />
<path d="M12598 56935
L12542 56963
L12430 56963
L12373 56935
L12345 56907
L12317 56851
L12317 56682
L12345 56626
L12373 56598
L12430 56570
L12542 56570
L12598 56598
" />
<path d="M12879 56963
L12879 56373
" />
<path d="M12936 56738
L13104 56963
" />
<path d="M13104 56570
L12879 56795
" />
<path d="M13779 56345
L13273 57104
" />
<path d="M13948 56935
L14004 56963
L14117 56963
L14173 56935
L14201 56879
L14201 56851
L14173 56795
L14117 56767
L14032 56767
L13976 56738
L13948 56682
L13948 56654
L13976 56598
L14032 56570
L14117 56570
L14173 56598
" />
<path d="M14454 56963
L14454 56570
" />
<path d="M14454 56626
L14482 56598
L14539 56570
L14623 56570
L14679 56598
L14707 56654
L14707 56963
" />
<path d="M14707 56654
L14735 56598
L14792 56570
L14876 56570
L14932 56598
L14960 56654
L14960 56963
" />
<path d="M15495 56963
L15495 56654
L15467 56598
L15410 56570
L15298 56570
L15242 56598
" />
<path d="M15495 56935
L15438 56963
L15298 56963
L15242 56935
L15214 56879
L15214 56823
L15242 56767
L15298 56738
L15438 56738
L15495 56710
" />
<path d="M15776 56963
L15776 56570
" />
<path d="M15776 56682
L15804 56626
L15832 56598
L15888 56570
L15945 56570
" />
<path d="M16057 56570
L16282 56570
" />
<path d="M16142 56373
L16142 56879
L16170 56935
L16226 56963
L16282 56963
" />
<path d="M16479 56738
L16929 56738
" />
<path d="M17210 56963
L17210 56373
" />
<path d="M17463 56963
L17463 56654
L17435 56598
L17379 56570
L17295 56570
L17238 56598
L17210 56626
" />
<path d="M17829 56963
L17773 56935
L17744 56907
L17716 56851
L17716 56682
L17744 56626
L17773 56598
L17829 56570
L17913 56570
L17969 56598
L17998 56626
L18026 56682
L18026 56851
L17998 56907
L17969 56935
L17913 56963
L17829 56963
" />
<path d="M18279 56963
L18279 56570
" />
<path d="M18279 56626
L18307 56598
L18363 56570
L18447 56570
L18504 56598
L18532 56654
L18532 56963
" />
<path d="M18532 56654
L18560 56598
L18616 56570
L18701 56570
L18757 56598
L18785 56654
L18785 56963
" />
<path d="M19291 56935
L19235 56963
L19122 56963
L19066 56935
L19038 56879
L19038 56654
L19066 56598
L19122 56570
L19235 56570
L19291 56598
L19319 56654
L19319 56710
L19038 56767
" />
<path d="M19572 56738
L20022 56738
" />
<path d="M20304 56963
L20304 56570
" />
<path d="M20304 56626
L20332 56598
L20388 56570
L20472 56570
L20528 56598
L20557 56654
L20557 56963
" />
<path d="M20557 56654
L20585 56598
L20641 56570
L20725 56570
L20782 56598
L20810 56654
L20810 56963
" />
<path d="M21175 56963
L21119 56935
L21091 56907
L21063 56851
L21063 56682
L21091 56626
L21119 56598
L21175 56570
L21260 56570
L21316 56598
L21344 56626
L21372 56682
L21372 56851
L21344 56907
L21316 56935
L21260 56963
L21175 56963
" />
<path d="M21878 56963
L21878 56373
" />
<path d="M21878 56935
L21822 56963
L21710 56963
L21653 56935
L21625 56907
L21597 56851
L21597 56682
L21625 56626
L21653 56598
L21710 56570
L21822 56570
L21878 56598
" />
<path d="M22413 56570
L22413 56963
" />
<path d="M22160 56570
L22160 56879
L22188 56935
L22244 56963
L22328 56963
L22385 56935
L22413 56907
" />
<path d="M22778 56963
L22722 56935
L22694 56879
L22694 56373
" />
<path d="M23228 56935
L23172 56963
L23059 56963
L23003 56935
L22975 56879
L22975 56654
L23003 56598
L23059 56570
L23172 56570
L23228 56598
L23256 56654
L23256 56710
L22975 56767
" />
<path d="M23481 56935
L23537 56963
L23650 56963
L23706 56935
L23734 56879
L23734 56851
L23706 56795
L23650 56767
L23566 56767
L23509 56738
L23481 56682
L23481 56654
L23509 56598
L23566 56570
L23650 56570
L23706 56598
" />
</g>
<g style="fill:#000000; fill-opacity:0.0; 
stroke:#000000; stroke-width:39.3701; stroke-opacity:1; 
stroke-linecap:round; stroke-linejoin:round;">
</g>
<g style="fill:#000000; fill-opacity:0.0; 
stroke:#000000; stroke-width:59.0551; stroke-opacity:1; 
stroke-linecap:round; stroke-linejoin:round;">
<path d="M4471 55754
L4555 55782
L4696 55782
L4752 55754
L4780 55726
L4809 55670
L4809 55614
L4780 55557
L4752 55529
L4696 55501
L4584 55473
L4527 55445
L4499 55417
L4471 55361
L4471 55304
L4499 55248
L4527 55220
L4584 55192
L4724 55192
L4809 55220
" />
<path d="M5062 55782
L5062 55389
" />
<path d="M5062 55445
L5090 55417
L5146 55389
L5230 55389
L5287 55417
L5315 55473
L5315 55782
" />
<path d="M5315 55473
L5343 55417
L5399 55389
L5483 55389
L5540 55417
L5568 55473
L5568 55782
" />
<path d="M6102 55782
L6102 55473
L6074 55417
L6018 55389
L5905 55389
L5849 55417
" />
<path d="M6102 55754
L6046 55782
L5905 55782
L5849 55754
L5821 55698
L5821 55642
L5849 55585
L5905 55557
L6046 55557
L6102 55529
" />
<path d="M6383 55782
L6383 55389
" />
<path d="M6383 55501
L6412 55445
L6440 55417
L6496 55389
L6552 55389
" />
<path d="M6665 55389
L6890 55389
" />
<path d="M6749 55192
L6749 55698
L6777 55754
L6833 55782
L6890 55782
" />
<path d="M7536 55782
L7536 55192
" />
<path d="M7536 55473
L7874 55473
" />
<path d="M7874 55782
L7874 55192
" />
<path d="M8239 55782
L8183 55754
L8155 55726
L8127 55670
L8127 55501
L8155 55445
L8183 55417
L8239 55389
L8324 55389
L8380 55417
L8408 55445
L8436 55501
L8436 55670
L8408 55726
L8380 55754
L8324 55782
L8239 55782
" />
<path d="M8689 55782
L8689 55389
" />
<path d="M8689 55445
L8717 55417
L8774 55389
L8858 55389
L8914 55417
L8942 55473
L8942 55782
" />
<path d="M8942 55473
L8971 55417
L9027 55389
L9111 55389
L9167 55417
L9196 55473
L9196 55782
" />
<path d="M9702 55754
L9645 55782
L9533 55782
L9477 55754
L9449 55698
L9449 55473
L9477 55417
L9533 55389
L9645 55389
L9702 55417
L9730 55473
L9730 55529
L9449 55585
" />
<path d="M10433 55782
L10433 55192
L10630 55614
L10827 55192
L10827 55782
" />
<path d="M11192 55782
L11136 55754
L11108 55726
L11080 55670
L11080 55501
L11108 55445
L11136 55417
L11192 55389
L11277 55389
L11333 55417
L11361 55445
L11389 55501
L11389 55670
L11361 55726
L11333 55754
L11277 55782
L11192 55782
" />
<path d="M11895 55782
L11895 55192
" />
<path d="M11895 55754
L11839 55782
L11726 55782
L11670 55754
L11642 55726
L11614 55670
L11614 55501
L11642 55445
L11670 55417
L11726 55389
L11839 55389
L11895 55417
" />
<path d="M12430 55389
L12430 55782
" />
<path d="M12176 55389
L12176 55698
L12205 55754
L12261 55782
L12345 55782
L12401 55754
L12430 55726
" />
<path d="M12795 55782
L12739 55754
L12711 55698
L12711 55192
" />
<path d="M13245 55754
L13189 55782
L13076 55782
L13020 55754
L12992 55698
L12992 55473
L13020 55417
L13076 55389
L13189 55389
L13245 55417
L13273 55473
L13273 55529
L12992 55585
" />
<path d="M13498 55754
L13554 55782
L13667 55782
L13723 55754
L13751 55698
L13751 55670
L13723 55614
L13667 55585
L13582 55585
L13526 55557
L13498 55501
L13498 55473
L13526 55417
L13582 55389
L13667 55389
L13723 55417
" />
</g>
<g style="fill:#000000; fill-opacity:0.0; 
stroke:#000000; stroke-width:39.3701; stroke-opacity:1; 
stroke-linecap:round; stroke-linejoin:round;">
</g>
<g style="fill:#000000; fill-opacity:0.0; 
stroke:#000000; stroke-width:59.0551; stroke-opacity:1; 
stroke-linecap:round; stroke-linejoin:round;">
<path d="M4471 54432
L4752 54432
" />
<path d="M4415 54601
L4612 54011
L4809 54601
" />
<path d="M5259 54208
L5259 54601
" />
<path d="M5005 54208
L5005 54517
L5034 54573
L5090 54601
L5174 54601
L5230 54573
L5259 54545
" />
<path d="M5455 54208
L5680 54208
" />
<path d="M5540 54011
L5540 54517
L5568 54573
L5624 54601
L5680 54601
" />
<path d="M5877 54601
L5877 54011
" />
<path d="M6130 54601
L6130 54292
L6102 54236
L6046 54208
L5962 54208
L5905 54236
L5877 54264
" />
<path d="M6636 54573
L6580 54601
L6468 54601
L6412 54573
L6383 54517
L6383 54292
L6412 54236
L6468 54208
L6580 54208
L6636 54236
L6665 54292
L6665 54348
L6383 54404
" />
<path d="M6918 54601
L6918 54208
" />
<path d="M6918 54320
L6946 54264
L6974 54236
L7030 54208
L7086 54208
" />
<path d="M7283 54545
L7311 54573
L7283 54601
L7255 54573
L7283 54545
L7283 54601
" />
<path d="M7283 54236
L7311 54264
L7283 54292
L7255 54264
L7283 54236
L7283 54292
" />
<path d="M8352 54545
L8324 54573
L8239 54601
L8183 54601
L8099 54573
L8043 54517
L8014 54461
L7986 54348
L7986 54264
L8014 54151
L8043 54095
L8099 54039
L8183 54011
L8239 54011
L8324 54039
L8352 54067
" />
<path d="M8605 54601
L8605 54011
" />
<path d="M8858 54601
L8858 54292
L8830 54236
L8774 54208
L8689 54208
L8633 54236
L8605 54264
" />
<path d="M9139 54601
L9139 54208
" />
<path d="M9139 54320
L9167 54264
L9196 54236
L9252 54208
L9308 54208
" />
<path d="M9505 54601
L9505 54208
" />
<path d="M9505 54011
L9477 54039
L9505 54067
L9533 54039
L9505 54011
L9505 54067
" />
<path d="M9758 54573
L9814 54601
L9927 54601
L9983 54573
L10011 54517
L10011 54489
L9983 54432
L9927 54404
L9842 54404
L9786 54376
L9758 54320
L9758 54292
L9786 54236
L9842 54208
L9927 54208
L9983 54236
" />
<path d="M10180 54208
L10405 54208
" />
<path d="M10264 54011
L10264 54517
L10292 54573
L10349 54601
L10405 54601
" />
<path d="M10602 54601
L10602 54208
" />
<path d="M10602 54011
L10573 54039
L10602 54067
L10630 54039
L10602 54011
L10602 54067
" />
<path d="M11136 54601
L11136 54292
L11108 54236
L11052 54208
L10939 54208
L10883 54236
" />
<path d="M11136 54573
L11080 54601
L10939 54601
L10883 54573
L10855 54517
L10855 54461
L10883 54404
L10939 54376
L11080 54376
L11136 54348
" />
<path d="M11417 54208
L11417 54601
" />
<path d="M11417 54264
L11445 54236
L11501 54208
L11586 54208
L11642 54236
L11670 54292
L11670 54601
" />
<path d="M12373 54573
L12458 54601
L12598 54601
L12654 54573
L12683 54545
L12711 54489
L12711 54432
L12683 54376
L12654 54348
L12598 54320
L12486 54292
L12430 54264
L12401 54236
L12373 54179
L12373 54123
L12401 54067
L12430 54039
L12486 54011
L12626 54011
L12711 54039
" />
<path d="M12964 54601
L12964 54011
" />
<path d="M13020 54376
L13189 54601
" />
<path d="M13189 54208
L12964 54432
" />
<path d="M13442 54208
L13442 54714
L13414 54770
L13358 54798
L13329 54798
" />
<path d="M13442 54011
L13414 54039
L13442 54067
L13470 54039
L13442 54011
L13442 54067
" />
<path d="M13948 54573
L13892 54601
L13779 54601
L13723 54573
L13695 54517
L13695 54292
L13723 54236
L13779 54208
L13892 54208
L13948 54236
L13976 54292
L13976 54348
L13695 54404
" />
<path d="M14229 54601
L14229 54208
" />
<path d="M14229 54320
L14257 54264
L14286 54236
L14342 54208
L14398 54208
" />
<path d="M14595 54208
L14595 54601
" />
<path d="M14595 54264
L14623 54236
L14679 54208
L14764 54208
L14820 54236
L14848 54292
L14848 54601
" />
<path d="M15129 54601
L15129 54208
" />
<path d="M15129 54011
L15101 54039
L15129 54067
L15157 54039
L15129 54011
L15129 54067
" />
<path d="M15410 54208
L15410 54601
" />
<path d="M15410 54264
L15438 54236
L15495 54208
L15579 54208
L15635 54236
L15663 54292
L15663 54601
" />
<path d="M16198 54208
L16198 54686
L16170 54742
L16142 54770
L16085 54798
L16001 54798
L15945 54770
" />
<path d="M16198 54573
L16142 54601
L16029 54601
L15973 54573
L15945 54545
L15917 54489
L15917 54320
L15945 54264
L15973 54236
L16029 54208
L16142 54208
L16198 54236
" />
<path d="M17070 54798
L17070 53954
" />
<path d="M17913 54573
L17969 54601
L18082 54601
L18138 54573
L18166 54517
L18166 54489
L18138 54432
L18082 54404
L17998 54404
L17941 54376
L17913 54320
L17913 54292
L17941 54236
L17998 54208
L18082 54208
L18138 54236
" />
<path d="M18504 54601
L18447 54573
L18419 54517
L18419 54011
" />
<path d="M18729 54601
L18729 54208
" />
<path d="M18729 54011
L18701 54039
L18729 54067
L18757 54039
L18729 54011
L18729 54067
" />
<path d="M19010 54601
L19010 54208
" />
<path d="M19010 54264
L19038 54236
L19094 54208
L19179 54208
L19235 54236
L19263 54292
L19263 54601
" />
<path d="M19263 54292
L19291 54236
L19347 54208
L19432 54208
L19488 54236
L19516 54292
L19516 54601
" />
<path d="M20050 54573
L19994 54601
L19882 54601
L19825 54573
L19797 54545
L19769 54489
L19769 54320
L19797 54264
L19825 54236
L19882 54208
L19994 54208
L20050 54236
" />
</g>
<g style="fill:#000000; fill-opacity:0.0; 
stroke:#000000; stroke-width:39.3701; stroke-opacity:1; 
stroke-linecap:round; stroke-linejoin:round;">
</g>
<g style="fill:#000000; fill-opacity:0.0; 
stroke:#000000; stroke-width:59.0551; stroke-opacity:1; 
stroke-linecap:round; stroke-linejoin:round;">
<path d="M11809 63586
L11809 64767
" />
</g>
<g style="fill:#000000; fill-opacity:0.0; 
stroke:#000000; stroke-width:39.3701; stroke-opacity:1; 
stroke-linecap:round; stroke-linejoin:round;">
</g>
<g style="fill:#000000; fill-opacity:0.0; 
stroke:#000000; stroke-width:59.0551; stroke-opacity:1; 
stroke-linecap:round; stroke-linejoin:round;">
<path d="M37006 63586
L37006 66145
" />
</g>
<g style="fill:#840084; fill-opacity:0.0; 
stroke:#840084; stroke-width:59.0551; stroke-opacity:1; 
stroke-linecap:round; stroke-linejoin:round;">
</g>
<g style="fill:#840084; fill-opacity:1.0; 
stroke:#840084; stroke-width:0; stroke-opacity:1; 
stroke-linecap:round; stroke-linejoin:round;">
<polyline style="fill-rule:evenodd;"
points="34885,36133
34935,36153
34980,36184
35018,36222
35048,36267
35069,36317
35080,36370
35080,36424
35069,36477
35048,36527
35018,36572
34980,36611
34935,36641
34885,36662
34832,36672
34778,36672
34724,36662
34674,36641
34629,36611
34591,36572
34561,36527
34540,36477
34530,36424
34530,36370
34540,36317
34561,36267
34591,36222
34629,36184
34674,36153
34724,36133
34778,36122
34832,36122
34885,36133
" /> 
<polyline style="fill-rule:evenodd;"
points="32885,36133
32935,36153
32980,36184
33018,36222
33048,36267
33069,36317
33080,36370
33080,36424
33069,36477
33048,36527
33018,36572
32980,36611
32935,36641
32885,36662
32832,36672
32778,36672
32724,36662
32674,36641
32629,36611
32591,36572
32561,36527
32540,36477
32530,36424
32530,36370
32540,36317
32561,36267
32591,36222
32629,36184
32674,36153
32724,36133
32778,36122
32832,36122
32885,36133
" /> 
<polyline style="fill-rule:evenodd;"
points="29385,36133
29435,36153
29480,36184
29518,36222
29548,36267
29569,36317
29580,36370
29580,36424
29569,36477
29548,36527
29518,36572
29480,36611
29435,36641
29385,36662
29332,36672
29278,36672
29224,36662
29174,36641
29129,36611
29091,36572
29061,36527
29040,36477
29030,36424
29030,36370
29040,36317
29061,36267
29091,36222
29129,36184
29174,36153
29224,36133
29278,36122
29332,36122
29385,36133
" /> 
<polyline style="fill-rule:evenodd;"
points="31385,36133
31435,36153
31480,36184
31518,36222
31548,36267
31569,36317
31580,36370
31580,36424
31569,36477
31548,36527
31518,36572
31480,36611
31435,36641
31385,36662
31332,36672
31278,36672
31224,36662
31174,36641
31129,36611
31091,36572
31061,36527
31040,36477
31030,36424
31030,36370
31040,36317
31061,36267
31091,36222
31129,36184
31174,36153
31224,36133
31278,36122
31332,36122
31385,36133
" /> 
<polyline style="fill-rule:evenodd;"
points="20332,36637
19977,36637
19977,35850
20332,35850
20332,36637
" /> 
<polyline style="fill-rule:evenodd;"
points="22332,36637
21977,36637
21977,35850
22332,35850
22332,36637
" /> 
<polyline style="fill-rule:evenodd;"
points="21832,36637
21477,36637
21477,35850
21832,35850
21832,36637
" /> 
<polyline style="fill-rule:evenodd;"
points="21332,36637
20977,36637
20977,35850
21332,35850
21332,36637
" /> 
<polyline style="fill-rule:evenodd;"
points="20832,36637
20477,36637
20477,35850
20832,35850
20832,36637
" /> 
<polyline style="fill-rule:evenodd;"
points="19832,36637
19477,36637
19477,35850
19832,35850
19832,36637
" /> 
<polyline style="fill-rule:evenodd;"
points="23332,36637
22977,36637
22977,35850
23332,35850
23332,36637
" /> 
<polyline style="fill-rule:evenodd;"
points="19332,36637
18977,36637
18977,35850
19332,35850
19332,36637
" /> 
<polyline style="fill-rule:evenodd;"
points="18832,36637
18477,36637
18477,35850
18832,35850
18832,36637
" /> 
<polyline style="fill-rule:evenodd;"
points="18332,36637
17977,36637
17977,35850
18332,35850
18332,36637
" /> 
<polyline style="fill-rule:evenodd;"
points="17832,36637
17477,36637
17477,35850
17832,35850
17832,36637
" /> 
<polyline style="fill-rule:evenodd;"
points="23832,36637
23477,36637
23477,35850
23832,35850
23832,36637
" /> 
<polyline style="fill-rule:evenodd;"
points="24332,36637
23977,36637
23977,35850
24332,35850
24332,36637
" /> 
<polyline style="fill-rule:evenodd;"
points="22832,36637
22477,36637
22477,35850
22832,35850
22832,36637
" /> 
<polyline style="fill-rule:evenodd;"
points="27770,35767
27833,35786
27891,35818
27942,35859
27984,35910
28015,35968
28034,36032
28041,36097
28034,36163
28015,36226
27984,36284
27942,36335
27891,36377
27833,36408
27770,36427
27721,36432
27688,36432
27639,36427
27576,36408
27518,36377
27467,36335
27425,36284
27394,36226
27375,36163
27368,36097
27375,36032
27394,35968
27425,35910
27467,35859
27518,35818
27576,35786
27639,35767
27688,35762
27721,35762
27770,35767
" /> 
<polyline style="fill-rule:evenodd;"
points="27039,36432
26370,36432
26370,35762
27039,35762
27039,36432
" /> 
<polyline style="fill-rule:evenodd;"
points="26770,34767
26833,34786
26891,34818
26942,34859
26984,34910
27015,34968
27034,35032
27041,35097
27034,35163
27015,35226
26984,35284
26942,35335
26891,35377
26833,35408
26770,35427
26721,35432
26688,35432
26639,35427
26576,35408
26518,35377
26467,35335
26425,35284
26394,35226
26375,35163
26368,35097
26375,35032
26394,34968
26425,34910
26467,34859
26518,34818
26576,34786
26639,34767
26688,34762
26721,34762
26770,34767
" /> 
<polyline style="fill-rule:evenodd;"
points="27770,34767
27833,34786
27891,34818
27942,34859
27984,34910
28015,34968
28034,35032
28041,35097
28034,35163
28015,35226
27984,35284
27942,35335
27891,35377
27833,35408
27770,35427
27721,35432
27688,35432
27639,35427
27576,35408
27518,35377
27467,35335
27425,35284
27394,35226
27375,35163
27368,35097
27375,35032
27394,34968
27425,34910
27467,34859
27518,34818
27576,34786
27639,34767
27688,34762
27721,34762
27770,34767
" /> 
<polyline style="fill-rule:evenodd;"
points="24942,35324
24155,35324
24155,34970
24942,34970
24942,35324
" /> 
<polyline style="fill-rule:evenodd;"
points="24942,34824
24155,34824
24155,34470
24942,34470
24942,34824
" /> 
<polyline style="fill-rule:evenodd;"
points="26770,33767
26833,33786
26891,33818
26942,33859
26984,33910
27015,33968
27034,34032
27041,34097
27034,34163
27015,34226
26984,34284
26942,34335
26891,34377
26833,34408
26770,34427
26721,34432
26688,34432
26639,34427
26576,34408
26518,34377
26467,34335
26425,34284
26394,34226
26375,34163
26368,34097
26375,34032
26394,33968
26425,33910
26467,33859
26518,33818
26576,33786
26639,33767
26688,33762
26721,33762
26770,33767
" /> 
<polyline style="fill-rule:evenodd;"
points="27770,33767
27833,33786
27891,33818
27942,33859
27984,33910
28015,33968
28034,34032
28041,34097
28034,34163
28015,34226
27984,34284
27942,34335
27891,34377
27833,34408
27770,34427
27721,34432
27688,34432
27639,34427
27576,34408
27518,34377
27467,34335
27425,34284
27394,34226
27375,34163
27368,34097
27375,34032
27394,33968
27425,33910
27467,33859
27518,33818
27576,33786
27639,33767
27688,33762
27721,33762
27770,33767
" /> 
<polyline style="fill-rule:evenodd;"
points="24942,34324
24155,34324
24155,33970
24942,33970
24942,34324
" /> 
<polyline style="fill-rule:evenodd;"
points="21592,34275
19623,34275
19623,32307
21592,32307
21592,34275
" /> 
<polyline style="fill-rule:evenodd;"
points="24942,33824
24155,33824
24155,33470
24942,33470
24942,33824
" /> 
<polyline style="fill-rule:evenodd;"
points="34885,33133
34935,33153
34980,33184
35018,33222
35048,33267
35069,33317
35080,33370
35080,33424
35069,33477
35048,33527
35018,33572
34980,33611
34935,33641
34885,33662
34832,33672
34778,33672
34724,33662
34674,33641
34629,33611
34591,33572
34561,33527
34540,33477
34530,33424
34530,33370
34540,33317
34561,33267
34591,33222
34629,33184
34674,33153
34724,33133
34778,33122
34832,33122
34885,33133
" /> 
<polyline style="fill-rule:evenodd;"
points="32885,33133
32935,33153
32980,33184
33018,33222
33048,33267
33069,33317
33080,33370
33080,33424
33069,33477
33048,33527
33018,33572
32980,33611
32935,33641
32885,33662
32832,33672
32778,33672
32724,33662
32674,33641
32629,33611
32591,33572
32561,33527
32540,33477
32530,33424
32530,33370
32540,33317
32561,33267
32591,33222
32629,33184
32674,33153
32724,33133
32778,33122
32832,33122
32885,33133
" /> 
<polyline style="fill-rule:evenodd;"
points="29385,33133
29435,33153
29480,33184
29518,33222
29548,33267
29569,33317
29580,33370
29580,33424
29569,33477
29548,33527
29518,33572
29480,33611
29435,33641
29385,33662
29332,33672
29278,33672
29224,33662
29174,33641
29129,33611
29091,33572
29061,33527
29040,33477
29030,33424
29030,33370
29040,33317
29061,33267
29091,33222
29129,33184
29174,33153
29224,33133
29278,33122
29332,33122
29385,33133
" /> 
<polyline style="fill-rule:evenodd;"
points="31385,33133
31435,33153
31480,33184
31518,33222
31548,33267
31569,33317
31580,33370
31580,33424
31569,33477
31548,33527
31518,33572
31480,33611
31435,33641
31385,33662
31332,33672
31278,33672
31224,33662
31174,33641
31129,33611
31091,33572
31061,33527
31040,33477
31030,33424
31030,33370
31040,33317
31061,33267
31091,33222
31129,33184
31174,33153
31224,33133
31278,33122
31332,33122
31385,33133
" /> 
<polyline style="fill-rule:evenodd;"
points="27770,32767
27833,32786
27891,32818
27942,32859
27984,32910
28015,32968
28034,33032
28041,33097
28034,33163
28015,33226
27984,33284
27942,33335
27891,33377
27833,33408
27770,33427
27721,33432
27688,33432
27639,33427
27576,33408
27518,33377
27467,33335
27425,33284
27394,33226
27375,33163
27368,33097
27375,33032
27394,32968
27425,32910
27467,32859
27518,32818
27576,32786
27639,32767
27688,32762
27721,32762
27770,32767
" /> 
<polyline style="fill-rule:evenodd;"
points="26770,32767
26833,32786
26891,32818
26942,32859
26984,32910
27015,32968
27034,33032
27041,33097
27034,33163
27015,33226
26984,33284
26942,33335
26891,33377
26833,33408
26770,33427
26721,33432
26688,33432
26639,33427
26576,33408
26518,33377
26467,33335
26425,33284
26394,33226
26375,33163
26368,33097
26375,33032
26394,32968
26425,32910
26467,32859
26518,32818
26576,32786
26639,32767
26688,32762
26721,32762
26770,32767
" /> 
<polyline style="fill-rule:evenodd;"
points="24942,33324
24155,33324
24155,32970
24942,32970
24942,33324
" /> 
<polyline style="fill-rule:evenodd;"
points="24942,32824
24155,32824
24155,32470
24942,32470
24942,32824
" /> 
<polyline style="fill-rule:evenodd;"
points="30953,32431
29457,32431
29457,31644
30953,31644
30953,32431
" /> 
<polyline style="fill-rule:evenodd;"
points="24942,32324
24155,32324
24155,31970
24942,31970
24942,32324
" /> 
<polyline style="fill-rule:evenodd;"
points="34396,31675
34454,31699
34505,31734
34549,31777
34584,31829
34607,31886
34620,31947
34620,32009
34607,32070
34584,32127
34549,32179
34505,32223
34454,32257
34396,32281
34336,32293
34274,32293
34213,32281
34155,32257
34104,32223
34060,32179
34026,32127
34002,32070
33990,32009
33990,31947
34002,31886
34026,31829
34060,31777
34104,31734
34155,31699
34213,31675
34274,31663
34336,31663
34396,31675
" /> 
<polyline style="fill-rule:evenodd;"
points="24942,31824
24155,31824
24155,31470
24942,31470
24942,31824
" /> 
<polyline style="fill-rule:evenodd;"
points="28031,31657
27638,31657
27638,31066
28031,31066
28031,31657
" /> 
<polyline style="fill-rule:evenodd;"
points="26772,31657
26378,31657
26378,31066
26772,31066
26772,31657
" /> 
<polyline style="fill-rule:evenodd;"
points="24942,31324
24155,31324
24155,30970
24942,30970
24942,31324
" /> 
<polyline style="fill-rule:evenodd;"
points="34396,30494
34454,30518
34505,30552
34549,30596
34584,30648
34607,30705
34620,30766
34620,30828
34607,30889
34584,30946
34549,30998
34505,31042
34454,31076
34396,31100
34336,31112
34274,31112
34213,31100
34155,31076
34104,31042
34060,30998
34026,30946
34002,30889
33990,30828
33990,30766
34002,30705
34026,30648
34060,30596
34104,30552
34155,30518
34213,30494
34274,30482
34336,30482
34396,30494
" /> 
<polyline style="fill-rule:evenodd;"
points="24942,30824
24155,30824
24155,30470
24942,30470
24942,30824
" /> 
<polyline style="fill-rule:evenodd;"
points="30500,29951
29909,29951
29909,29163
30500,29163
30500,29951
" /> 
<polyline style="fill-rule:evenodd;"
points="29594,29951
29004,29951
29004,29163
29594,29163
29594,29951
" /> 
<polyline style="fill-rule:evenodd;"
points="31405,29951
30815,29951
30815,29163
31405,29163
31405,29951
" /> 
<polyline style="fill-rule:evenodd;"
points="23332,29944
22977,29944
22977,29157
23332,29157
23332,29944
" /> 
<polyline style="fill-rule:evenodd;"
points="24332,29944
23977,29944
23977,29157
24332,29157
24332,29944
" /> 
<polyline style="fill-rule:evenodd;"
points="23832,29944
23477,29944
23477,29157
23832,29157
23832,29944
" /> 
<polyline style="fill-rule:evenodd;"
points="22332,29944
21977,29944
21977,29157
22332,29157
22332,29944
" /> 
<polyline style="fill-rule:evenodd;"
points="21832,29944
21477,29944
21477,29157
21832,29157
21832,29944
" /> 
<polyline style="fill-rule:evenodd;"
points="21332,29944
20977,29944
20977,29157
21332,29157
21332,29944
" /> 
<polyline style="fill-rule:evenodd;"
points="20832,29944
20477,29944
20477,29157
20832,29157
20832,29944
" /> 
<polyline style="fill-rule:evenodd;"
points="19832,29944
19477,29944
19477,29157
19832,29157
19832,29944
" /> 
<polyline style="fill-rule:evenodd;"
points="19332,29944
18977,29944
18977,29157
19332,29157
19332,29944
" /> 
<polyline style="fill-rule:evenodd;"
points="18832,29944
18477,29944
18477,29157
18832,29157
18832,29944
" /> 
<polyline style="fill-rule:evenodd;"
points="18332,29944
17977,29944
17977,29157
18332,29157
18332,29944
" /> 
<polyline style="fill-rule:evenodd;"
points="17832,29944
17477,29944
17477,29157
17832,29157
17832,29944
" /> 
<polyline style="fill-rule:evenodd;"
points="22832,29944
22477,29944
22477,29157
22832,29157
22832,29944
" /> 
<polyline style="fill-rule:evenodd;"
points="20332,29944
19977,29944
19977,29157
20332,29157
20332,29944
" /> 
<polyline style="fill-rule:evenodd;"
points="28031,29728
27638,29728
27638,29137
28031,29137
28031,29728
" /> 
<polyline style="fill-rule:evenodd;"
points="26772,29728
26378,29728
26378,29137
26772,29137
26772,29728
" /> 
<polyline style="fill-rule:evenodd;"
points="21951,27585
21966,27587
21991,27594
22026,27605
22080,27634
22128,27673
22168,27721
22197,27776
22215,27835
22221,27897
22215,27959
22197,28018
22168,28073
22128,28121
22080,28160
22026,28190
21996,28199
21966,28208
21951,28209
21920,28212
21889,28212
21858,28209
21843,28208
21813,28199
21784,28190
21729,28160
21681,28121
21641,28073
21612,28018
21594,27959
21588,27897
21594,27835
21612,27776
21641,27721
21681,27673
21729,27634
21784,27605
21818,27594
21843,27587
21858,27585
21889,27582
21920,27582
21951,27585
" /> 
<polyline style="fill-rule:evenodd;"
points="17996,27594
18054,27618
18105,27652
18149,27696
18184,27748
18207,27805
18220,27866
18220,27928
18207,27989
18184,28046
18149,28098
18105,28142
18054,28176
17996,28200
17936,28212
17874,28212
17813,28200
17755,28176
17704,28142
17660,28098
17626,28046
17602,27989
17590,27928
17590,27866
17602,27805
17626,27748
17660,27696
17704,27652
17755,27618
17813,27594
17874,27582
17936,27582
17996,27594
" /> 
<polyline style="fill-rule:evenodd;"
points="27096,27594
27154,27618
27205,27652
27249,27696
27284,27748
27307,27805
27320,27866
27320,27928
27307,27989
27284,28046
27249,28098
27205,28142
27154,28176
27096,28200
27036,28212
26974,28212
26913,28200
26855,28176
26804,28142
26760,28098
26726,28046
26702,27989
26690,27928
26690,27866
26702,27805
26726,27748
26760,27696
26804,27652
26855,27618
26913,27594
26974,27582
27036,27582
27096,27594
" /> 
<polyline style="fill-rule:evenodd;"
points="23051,27585
23066,27587
23091,27594
23126,27605
23180,27634
23228,27673
23268,27721
23297,27776
23315,27835
23321,27897
23315,27959
23297,28018
23268,28073
23228,28121
23180,28160
23126,28190
23096,28199
23066,28208
23051,28209
23020,28212
22989,28212
22958,28209
22943,28208
22913,28199
22884,28190
22829,28160
22781,28121
22741,28073
22712,28018
22694,27959
22688,27897
22694,27835
22712,27776
22741,27721
22781,27673
22829,27634
22884,27605
22918,27594
22943,27587
22958,27585
22989,27582
23020,27582
23051,27585
" /> 
<polyline style="fill-rule:evenodd;"
points="29981,27294
30038,27318
30090,27352
30134,27396
30168,27448
30192,27505
30204,27566
30204,27628
30192,27689
30168,27746
30134,27798
30090,27842
30038,27876
29981,27900
29920,27912
29858,27912
29797,27900
29740,27876
29688,27842
29644,27798
29610,27746
29586,27689
29574,27628
29574,27566
29586,27505
29610,27448
29644,27396
29688,27352
29740,27318
29797,27294
29858,27282
29920,27282
29981,27294
" /> 
<polyline style="fill-rule:evenodd;"
points="29220,27912
28590,27912
28590,27282
29220,27282
29220,27912
" /> 
<polyline style="fill-rule:evenodd;"
points="32320,27212
31690,27212
31690,26582
32320,26582
32320,27212
" /> 
<polyline style="fill-rule:evenodd;"
points="37196,26579
37254,26602
37305,26637
37349,26681
37384,26732
37407,26790
37420,26850
37420,26912
37407,26973
37384,27031
37349,27082
37305,27126
37254,27161
37196,27184
37136,27196
37074,27196
37013,27184
36955,27161
36904,27126
36860,27082
36826,27031
36802,26973
36790,26912
36790,26850
36802,26790
36826,26732
36860,26681
36904,26637
36955,26602
37013,26579
37074,26566
37136,26566
37196,26579
" /> 
<polyline style="fill-rule:evenodd;"
points="34545,26005
34545,26005
34545,26005
34584,26017
34620,26036
34651,26062
34677,26093
34686,26110
34697,26129
34702,26146
34705,26155
34711,26163
34717,26170
34726,26175
34734,26179
34744,26181
34754,26181
34763,26179
34772,26175
34780,26170
34787,26163
34792,26155
34796,26146
34798,26136
34798,26132
34798,26002
35211,26002
35211,26592
34798,26592
34798,26463
34797,26453
34794,26444
34790,26435
34784,26428
34776,26422
34768,26417
34758,26414
34749,26413
34739,26414
34730,26417
34721,26422
34714,26428
34708,26435
34703,26444
34702,26448
34697,26465
34697,26465
34677,26501
34677,26501
34651,26533
34651,26533
34651,26533
34620,26558
34584,26578
34545,26589
34545,26589
34545,26589
34505,26593
34464,26589
34464,26589
34464,26589
34425,26578
34389,26558
34381,26552
34358,26533
34358,26533
34358,26533
34332,26501
34313,26465
34312,26463
34302,26429
34298,26420
34293,26412
34286,26405
34278,26400
34269,26396
34259,26394
34250,26394
34240,26396
34231,26400
34223,26405
34217,26412
34211,26420
34208,26429
34197,26465
34177,26501
34177,26501
34151,26533
34151,26533
34151,26533
34120,26558
34084,26578
34045,26589
34045,26589
34045,26589
34005,26593
33964,26589
33964,26589
33964,26589
33925,26578
33889,26558
33881,26552
33858,26533
33858,26533
33858,26533
33832,26501
33813,26465
33801,26426
33801,26426
33801,26426
33798,26396
33798,26198
33801,26168
33813,26129
33832,26093
33858,26062
33889,26036
33889,26036
33889,26036
33925,26017
33964,26005
33964,26005
33964,26005
34005,26001
34045,26005
34045,26005
34045,26005
34084,26017
34120,26036
34151,26062
34177,26093
34197,26129
34202,26146
34208,26165
34211,26174
34217,26182
34223,26189
34231,26195
34240,26198
34250,26200
34259,26200
34269,26198
34278,26195
34286,26189
34293,26182
34298,26174
34302,26165
34313,26129
34332,26093
34358,26062
34389,26036
34389,26036
34389,26036
34425,26017
34464,26005
34464,26005
34464,26005
34505,26001
34545,26005
" /> 
<polyline style="fill-rule:evenodd;"
points="24418,25412
24497,25445
24568,25492
24628,25553
24676,25623
24708,25702
24725,25786
24725,25871
24708,25955
24676,26034
24676,26034
24657,26062
24628,26105
24568,26165
24568,26165
24568,26165
24518,26198
24497,26212
24418,26245
24335,26262
24249,26262
24166,26245
24087,26212
24066,26198
24016,26165
24016,26165
24016,26165
23956,26105
23927,26062
23908,26034
23908,26034
23876,25955
23859,25871
23859,25786
23876,25702
23908,25623
23956,25553
24016,25492
24087,25445
24166,25412
24249,25396
24335,25396
24418,25412
" /> 
<polyline style="fill-rule:evenodd;"
points="32096,25610
32154,25634
32205,25668
32249,25712
32284,25764
32307,25821
32320,25882
32320,25944
32307,26005
32284,26062
32249,26114
32205,26158
32154,26192
32096,26216
32036,26228
31974,26228
31913,26216
31855,26192
31804,26158
31760,26114
31726,26062
31702,26005
31690,25944
31690,25882
31702,25821
31726,25764
31760,25712
31804,25668
31855,25634
31913,25610
31974,25598
32036,25598
32096,25610
" /> 
<polyline style="fill-rule:evenodd;"
points="37420,26212
36790,26212
36790,25582
37420,25582
37420,26212
" /> 
<polyline style="fill-rule:evenodd;"
points="28926,25944
28670,25944
28670,25255
28926,25255
28926,25944
" /> 
<polyline style="fill-rule:evenodd;"
points="29320,25944
29064,25944
29064,25255
29320,25255
29320,25944
" /> 
<polyline style="fill-rule:evenodd;"
points="28533,25944
28277,25944
28277,25255
28533,25255
28533,25944
" /> 
<polyline style="fill-rule:evenodd;"
points="28139,25944
27883,25944
27883,25255
28139,25255
28139,25944
" /> 
<polyline style="fill-rule:evenodd;"
points="27745,25944
27489,25944
27489,25255
27745,25255
27745,25944
" /> 
<polyline style="fill-rule:evenodd;"
points="37686,23946
37772,23982
37849,24033
37915,24099
37967,24177
38002,24262
38020,24354
38020,24447
38002,24538
37967,24624
37915,24701
37849,24767
37772,24819
37686,24855
37594,24873
37501,24873
37410,24855
37324,24819
37247,24767
37181,24701
37129,24624
37094,24538
37075,24447
37075,24354
37094,24262
37129,24177
37181,24099
37247,24033
37324,23982
37410,23946
37501,23928
37594,23928
37686,23946
" /> 
<polyline style="fill-rule:evenodd;"
points="35842,23926
35897,23932
35986,23959
35986,23959
35986,23959
36068,24002
36140,24061
36199,24133
36243,24215
36243,24215
36243,24215
36270,24305
36279,24397
36270,24490
36243,24579
36243,24579
36199,24661
36140,24733
36068,24792
35986,24836
35986,24836
35986,24836
35897,24863
35842,24868
35828,24870
35781,24870
35768,24868
35712,24863
35623,24836
35623,24836
35623,24836
35541,24792
35469,24733
35410,24661
35366,24579
35366,24579
35339,24490
35330,24397
35339,24305
35366,24215
35366,24215
35366,24215
35410,24133
35469,24061
35541,24002
35623,23959
35623,23959
35623,23959
35712,23932
35768,23926
35781,23925
35828,23925
35842,23926
" /> 
<polyline style="fill-rule:evenodd;"
points="26342,23943
26428,23978
26506,24030
26572,24096
26623,24173
26659,24259
26677,24351
26677,24444
26659,24535
26623,24621
26572,24698
26506,24764
26428,24816
26342,24851
26251,24870
26158,24870
26067,24851
25981,24816
25903,24764
25838,24698
25786,24621
25750,24535
25732,24444
25732,24351
25750,24259
25786,24173
25838,24096
25903,24030
25981,23978
26067,23943
26158,23925
26251,23925
26342,23943
" /> 
<polyline style="fill-rule:evenodd;"
points="30296,24249
30354,24273
30405,24308
30449,24351
30484,24403
30507,24460
30520,24521
30520,24583
30507,24644
30484,24701
30449,24753
30405,24797
30354,24831
30296,24855
30236,24867
30174,24867
30113,24855
30055,24831
30004,24797
29960,24753
29926,24701
29902,24644
29890,24583
29890,24521
29902,24460
29926,24403
29960,24351
30004,24308
30055,24273
30113,24249
30174,24237
30236,24237
30296,24249
" /> 
<polyline style="fill-rule:evenodd;"
points="34290,24007
34371,24031
34371,24031
34446,24072
34512,24126
34566,24192
34604,24262
34607,24267
34631,24348
34640,24433
34631,24518
34612,24583
34607,24600
34566,24675
34512,24741
34446,24795
34379,24831
34371,24835
34290,24860
34226,24866
34183,24866
34120,24860
34038,24835
34031,24831
33963,24795
33897,24741
33843,24675
33803,24600
33798,24583
33778,24518
33769,24433
33778,24348
33803,24267
33805,24262
33843,24192
33897,24126
33963,24072
34038,24031
34038,24031
34120,24007
34183,24000
34226,24000
34290,24007
" /> 
<polyline style="fill-rule:evenodd;"
points="31596,24245
31654,24269
31705,24304
31749,24348
31784,24399
31807,24456
31820,24517
31820,24579
31807,24640
31784,24698
31749,24749
31705,24793
31654,24827
31596,24851
31536,24863
31474,24863
31413,24851
31355,24827
31304,24793
31260,24749
31226,24698
31202,24640
31190,24579
31190,24517
31202,24456
31226,24399
31260,24348
31304,24304
31355,24269
31413,24245
31474,24233
31536,24233
31596,24245
" /> 
<polyline style="fill-rule:evenodd;"
points="32896,24245
32954,24269
33005,24304
33049,24348
33084,24399
33107,24456
33120,24517
33120,24579
33107,24640
33084,24698
33049,24749
33005,24793
32954,24827
32896,24851
32836,24863
32774,24863
32713,24851
32655,24827
32604,24793
32560,24749
32526,24698
32502,24640
32490,24579
32490,24517
32502,24456
32526,24399
32560,24348
32604,24304
32655,24269
32713,24245
32774,24233
32836,24233
32896,24245
" /> 
<polyline style="fill-rule:evenodd;"
points="12844,23365
12922,23398
12993,23445
13054,23505
13101,23576
13134,23655
13150,23739
13150,23824
13134,23908
13101,23987
13101,23987
13072,24030
13054,24057
12993,24118
12922,24165
12844,24198
12760,24214
12675,24214
12591,24198
12512,24165
12441,24118
12381,24057
12363,24030
12333,23987
12333,23987
12301,23908
12284,23824
12284,23739
12301,23655
12333,23576
12381,23505
12441,23445
12512,23398
12591,23365
12675,23348
12760,23348
12844,23365
" /> 
<polyline style="fill-rule:evenodd;"
points="28533,23739
28277,23739
28277,23050
28533,23050
28533,23739
" /> 
<polyline style="fill-rule:evenodd;"
points="28926,23739
28670,23739
28670,23050
28926,23050
28926,23739
" /> 
<polyline style="fill-rule:evenodd;"
points="29320,23739
29064,23739
29064,23050
29320,23050
29320,23739
" /> 
<polyline style="fill-rule:evenodd;"
points="28139,23739
27883,23739
27883,23050
28139,23050
28139,23739
" /> 
<polyline style="fill-rule:evenodd;"
points="27745,23739
27489,23739
27489,23050
27745,23050
27745,23739
" /> 
<polyline style="fill-rule:evenodd;"
points="12844,21396
12922,21429
12993,21476
13054,21537
13101,21608
13134,21687
13150,21770
13150,21856
13134,21939
13101,22018
13054,22089
12993,22149
12922,22197
12844,22229
12760,22246
12675,22246
12591,22229
12512,22197
12441,22149
12381,22089
12333,22018
12301,21939
12284,21856
12284,21770
12301,21687
12333,21608
12381,21537
12441,21476
12512,21429
12591,21396
12675,21380
12760,21380
12844,21396
" /> 
<polyline style="fill-rule:evenodd;"
points="28139,21417
27509,21417
27509,20787
28139,20787
28139,21417
" /> 
<polyline style="fill-rule:evenodd;"
points="28900,20799
28958,20823
29009,20857
29053,20901
29088,20953
29111,21010
29124,21071
29124,21133
29111,21194
29088,21251
29053,21303
29009,21347
28958,21381
28900,21405
28840,21417
28778,21417
28717,21405
28659,21381
28608,21347
28564,21303
28529,21251
28506,21194
28494,21133
28494,21071
28506,21010
28529,20953
28564,20901
28608,20857
28659,20823
28717,20799
28778,20787
28840,20787
28900,20799
" /> 
<polyline style="fill-rule:evenodd;"
points="30251,20240
30266,20242
30296,20251
30326,20260
30380,20289
30428,20328
30468,20376
30497,20431
30497,20431
30514,20487
30515,20491
30521,20552
30515,20614
30497,20673
30468,20728
30428,20776
30380,20815
30326,20845
30296,20854
30266,20863
30260,20863
30220,20867
30189,20867
30149,20863
30143,20863
30113,20854
30084,20845
30029,20815
29981,20776
29941,20728
29912,20673
29894,20614
29888,20552
29894,20491
29895,20487
29912,20431
29912,20431
29941,20376
29981,20328
30029,20289
30084,20260
30113,20251
30143,20242
30158,20240
30189,20237
30220,20237
30251,20240
" /> 
<polyline style="fill-rule:evenodd;"
points="34638,20866
33772,20866
33772,20000
34638,20000
34638,20866
" /> 
<polyline style="fill-rule:evenodd;"
points="32851,20236
32866,20238
32896,20247
32926,20256
32980,20285
33028,20325
33068,20372
33097,20427
33106,20457
33115,20487
33121,20548
33115,20610
33106,20640
33097,20669
33068,20724
33028,20772
32980,20811
32926,20841
32896,20850
32866,20859
32851,20860
32820,20863
32789,20863
32758,20860
32743,20859
32713,20850
32684,20841
32629,20811
32581,20772
32541,20724
32512,20669
32503,20640
32494,20610
32488,20548
32494,20487
32503,20457
32512,20427
32541,20372
32581,20325
32629,20285
32684,20256
32713,20247
32743,20238
32758,20236
32789,20233
32820,20233
32851,20236
" /> 
<polyline style="fill-rule:evenodd;"
points="31551,20236
31566,20238
31596,20247
31626,20256
31680,20285
31728,20325
31768,20372
31797,20427
31806,20457
31815,20487
31821,20548
31815,20610
31806,20640
31797,20669
31768,20724
31728,20772
31680,20811
31626,20841
31596,20850
31566,20859
31551,20860
31520,20863
31489,20863
31458,20860
31443,20859
31413,20850
31384,20841
31329,20811
31281,20772
31241,20724
31212,20669
31203,20640
31194,20610
31188,20548
31194,20487
31203,20457
31212,20427
31241,20372
31281,20325
31329,20285
31384,20256
31413,20247
31443,20238
31458,20236
31489,20233
31520,20233
31551,20236
" /> 
<polyline style="fill-rule:evenodd;"
points="24418,19349
24497,19382
24497,19382
24520,19397
24568,19429
24628,19490
24628,19490
24628,19490
24631,19493
24676,19561
24708,19639
24725,19723
24725,19808
24708,19892
24676,19971
24676,19971
24656,20000
24628,20042
24568,20102
24497,20149
24418,20182
24335,20199
24249,20199
24166,20182
24087,20149
24016,20102
23956,20042
23928,20000
23908,19971
23908,19971
23876,19892
23859,19808
23859,19723
23876,19639
23908,19561
23953,19493
23956,19490
23956,19490
23956,19490
24016,19429
24064,19397
24087,19382
24087,19382
24166,19349
24249,19333
24335,19333
24418,19349
" /> 
<polyline style="fill-rule:evenodd;"
points="37585,18929
37641,18935
37730,18962
37730,18962
37730,18962
37812,19006
37884,19065
37943,19137
37987,19219
37987,19219
37987,19219
38014,19308
38023,19400
38014,19493
37987,19579
37987,19582
37943,19664
37884,19736
37812,19795
37730,19839
37730,19839
37730,19839
37641,19866
37585,19871
37571,19873
37525,19873
37511,19871
37455,19866
37366,19839
37366,19839
37366,19839
37284,19795
37212,19736
37153,19664
37109,19582
37108,19579
37082,19493
37073,19400
37082,19308
37109,19219
37109,19219
37109,19219
37153,19137
37212,19065
37284,19006
37366,18962
37366,18962
37366,18962
37455,18935
37511,18929
37525,18928
37571,18928
37585,18929
" /> 
<polyline style="fill-rule:evenodd;"
points="26242,18926
26297,18932
26386,18959
26386,18959
26386,18959
26468,19002
26540,19061
26599,19133
26643,19215
26643,19215
26643,19215
26670,19305
26679,19397
26670,19490
26643,19579
26643,19579
26599,19661
26540,19733
26468,19792
26386,19836
26386,19836
26386,19836
26297,19863
26242,19868
26228,19870
26181,19870
26168,19868
26112,19863
26023,19836
26023,19836
26023,19836
25941,19792
25869,19733
25810,19661
25766,19579
25766,19579
25739,19490
25730,19397
25739,19305
25766,19215
25766,19215
25766,19215
25810,19133
25869,19061
25941,19002
26023,18959
26023,18959
26023,18959
26112,18932
26168,18926
26181,18925
26228,18925
26242,18926
" /> 
<polyline style="fill-rule:evenodd;"
points="35942,18943
36028,18978
36106,19030
36172,19096
36223,19173
36259,19259
36277,19351
36277,19444
36259,19535
36223,19621
36172,19698
36106,19764
36028,19816
35942,19851
35851,19870
35758,19870
35667,19851
35581,19816
35503,19764
35438,19698
35386,19621
35350,19535
35332,19444
35332,19351
35350,19259
35386,19173
35438,19096
35503,19030
35581,18978
35667,18943
35758,18925
35851,18925
35942,18943
" /> 
<polyline style="fill-rule:evenodd;"
points="30218,19114
29982,19114
29982,18503
30218,18503
30218,19114
" /> 
<polyline style="fill-rule:evenodd;"
points="29718,19114
29482,19114
29482,18503
29718,18503
29718,19114
" /> 
<polyline style="fill-rule:evenodd;"
points="28718,19114
28482,19114
28482,18503
28718,18503
28718,19114
" /> 
<polyline style="fill-rule:evenodd;"
points="29218,19114
28982,19114
28982,18503
29218,18503
29218,19114
" /> 
<polyline style="fill-rule:evenodd;"
points="27584,18423
23883,18423
23883,14171
27584,14171
27584,18423
" /> 
<polyline style="fill-rule:evenodd;"
points="34726,18423
31025,18423
31025,14171
34726,14171
34726,18423
" /> 
<polyline style="fill-rule:evenodd;"
points="15451,17685
15466,17687
15491,17694
15526,17705
15580,17734
15628,17773
15668,17821
15697,17876
15715,17935
15721,17997
15715,18059
15697,18118
15668,18173
15628,18221
15580,18260
15526,18290
15496,18299
15466,18308
15451,18309
15420,18312
15389,18312
15358,18309
15343,18308
15313,18299
15284,18290
15229,18260
15181,18221
15141,18173
15112,18118
15094,18059
15088,17997
15094,17935
15112,17876
15141,17821
15181,17773
15229,17734
15284,17705
15318,17694
15343,17687
15358,17685
15389,17682
15420,17682
15451,17685
" /> 
<polyline style="fill-rule:evenodd;"
points="12496,17694
12554,17718
12605,17752
12649,17796
12684,17848
12707,17905
12720,17966
12720,18028
12707,18089
12684,18146
12649,18198
12605,18242
12554,18276
12496,18300
12436,18312
12374,18312
12313,18300
12255,18276
12204,18242
12160,18198
12126,18146
12102,18089
12090,18028
12090,17966
12102,17905
12126,17848
12160,17796
12204,17752
12255,17718
12313,17694
12374,17682
12436,17682
12496,17694
" /> 
<polyline style="fill-rule:evenodd;"
points="14720,18312
14090,18312
14090,17682
14720,17682
14720,18312
" /> 
<polyline style="fill-rule:evenodd;"
points="17667,17802
17709,17819
17746,17844
17778,17876
17803,17913
17820,17955
17829,17999
17829,18044
17820,18088
17803,18129
17778,18167
17746,18199
17709,18224
17667,18241
17623,18250
17578,18250
17534,18241
17493,18224
17455,18199
17423,18167
17398,18129
17381,18088
17372,18044
17372,17999
17381,17955
17398,17913
17423,17876
17455,17844
17493,17819
17534,17802
17578,17793
17623,17793
17667,17802
" /> 
<polyline style="fill-rule:evenodd;"
points="19675,17802
19717,17819
19754,17844
19786,17876
19811,17913
19828,17955
19837,17999
19837,18044
19828,18088
19811,18129
19786,18167
19754,18199
19717,18224
19675,18241
19631,18250
19586,18250
19542,18241
19500,18224
19463,18199
19431,18167
19406,18129
19389,18088
19380,18044
19380,17999
19389,17955
19406,17913
19431,17876
19463,17844
19500,17819
19542,17802
19586,17793
19631,17793
19675,17802
" /> 
<polyline style="fill-rule:evenodd;"
points="23037,17514
21225,17514
21225,17081
23037,17081
23037,17514
" /> 
<polyline style="fill-rule:evenodd;"
points="37384,17514
35573,17514
35573,17081
37384,17081
37384,17514
" /> 
<polyline style="fill-rule:evenodd;"
points="29718,16988
29482,16988
29482,16377
29718,16377
29718,16988
" /> 
<polyline style="fill-rule:evenodd;"
points="29218,16988
28982,16988
28982,16377
29218,16377
29218,16988
" /> 
<polyline style="fill-rule:evenodd;"
points="30218,16988
29982,16988
29982,16377
30218,16377
30218,16988
" /> 
<polyline style="fill-rule:evenodd;"
points="28718,16988
28482,16988
28482,16377
28718,16377
28718,16988
" /> 
<polyline style="fill-rule:evenodd;"
points="37384,16514
35573,16514
35573,16081
37384,16081
37384,16514
" /> 
<polyline style="fill-rule:evenodd;"
points="23037,16514
21225,16514
21225,16081
23037,16081
23037,16514
" /> 
<polyline style="fill-rule:evenodd;"
points="29402,15110
29460,15134
29511,15168
29555,15212
29590,15264
29613,15321
29625,15382
29625,15444
29613,15505
29590,15562
29555,15614
29511,15658
29460,15692
29402,15716
29342,15728
29280,15728
29219,15716
29161,15692
29110,15658
29066,15614
29031,15562
29008,15505
28996,15444
28996,15382
29008,15321
29031,15264
29066,15212
29110,15168
29161,15134
29219,15110
29280,15098
29342,15098
29402,15110
" /> 
<polyline style="fill-rule:evenodd;"
points="23037,15514
21225,15514
21225,15081
23037,15081
23037,15514
" /> 
<polyline style="fill-rule:evenodd;"
points="37384,15514
35573,15514
35573,15081
37384,15081
37384,15514
" /> 
<polyline style="fill-rule:evenodd;"
points="15451,14685
15466,14687
15496,14696
15526,14705
15580,14734
15628,14773
15668,14821
15697,14876
15715,14935
15721,14997
15715,15059
15697,15118
15668,15173
15628,15221
15580,15260
15526,15290
15496,15299
15466,15308
15451,15309
15420,15312
15389,15312
15358,15309
15343,15308
15313,15299
15284,15290
15229,15260
15181,15221
15141,15173
15112,15118
15094,15059
15088,14997
15094,14935
15112,14876
15141,14821
15181,14773
15229,14734
15284,14705
15313,14696
15343,14687
15358,14685
15389,14682
15420,14682
15451,14685
" /> 
<polyline style="fill-rule:evenodd;"
points="14451,14685
14466,14687
14496,14696
14526,14705
14580,14734
14628,14773
14668,14821
14697,14876
14715,14935
14721,14997
14715,15059
14697,15118
14668,15173
14628,15221
14580,15260
14526,15290
14496,15299
14466,15308
14451,15309
14420,15312
14389,15312
14358,15309
14343,15308
14313,15299
14284,15290
14229,15260
14181,15221
14141,15173
14112,15118
14094,15059
14088,14997
14094,14935
14112,14876
14141,14821
14181,14773
14229,14734
14284,14705
14313,14696
14343,14687
14358,14685
14389,14682
14420,14682
14451,14685
" /> 
<polyline style="fill-rule:evenodd;"
points="17667,14554
17709,14571
17746,14596
17778,14628
17803,14665
17820,14707
17829,14751
17829,14796
17820,14840
17803,14881
17778,14919
17746,14950
17709,14975
17667,14993
17623,15001
17578,15001
17534,14993
17493,14975
17455,14950
17423,14919
17398,14881
17381,14840
17372,14796
17372,14751
17381,14707
17398,14665
17423,14628
17455,14596
17493,14571
17534,14554
17578,14545
17623,14545
17667,14554
" /> 
<polyline style="fill-rule:evenodd;"
points="19675,14554
19717,14571
19754,14596
19786,14628
19811,14665
19828,14707
19837,14751
19837,14796
19828,14840
19811,14881
19786,14919
19754,14950
19717,14975
19675,14993
19631,15001
19586,15001
19542,14993
19500,14975
19463,14950
19431,14919
19406,14881
19389,14840
19380,14796
19380,14751
19389,14707
19406,14665
19431,14628
19463,14596
19500,14571
19542,14554
19586,14545
19631,14545
19675,14554
" /> 
<polyline style="fill-rule:evenodd;"
points="29625,14744
28996,14744
28996,14114
29625,14114
29625,14744
" /> 
<polyline style="fill-rule:evenodd;"
points="12451,13685
12466,13687
12496,13696
12526,13705
12580,13734
12628,13773
12668,13821
12697,13876
12715,13935
12721,13997
12715,14059
12697,14118
12668,14173
12628,14221
12580,14260
12526,14290
12496,14299
12466,14308
12451,14309
12420,14312
12389,14312
12358,14309
12343,14308
12313,14299
12284,14290
12229,14260
12181,14221
12141,14173
12112,14118
12094,14059
12088,13997
12094,13935
12112,13876
12141,13821
12181,13773
12229,13734
12284,13705
12313,13696
12343,13687
12358,13685
12389,13682
12420,13682
12451,13685
" /> 
<polyline style="fill-rule:evenodd;"
points="33540,12452
33540,12452
33540,12452
33570,12465
33624,12487
33700,12538
33764,12602
33815,12678
33849,12762
33867,12852
33867,12943
33849,13032
33815,13116
33764,13192
33700,13256
33624,13307
33571,13329
33540,13342
33540,13342
33540,13342
33450,13360
33359,13360
33270,13342
33270,13342
33270,13342
33239,13329
33185,13307
33110,13256
33045,13192
32995,13116
32960,13032
32942,12943
32942,12852
32960,12762
32995,12678
33045,12602
33110,12538
33185,12487
33239,12465
33270,12452
33270,12452
33270,12452
33359,12435
33450,12435
33540,12452
" /> 
<polyline style="fill-rule:evenodd;"
points="27508,12452
27508,12452
27508,12452
27539,12465
27592,12487
27668,12538
27732,12602
27783,12678
27818,12762
27836,12852
27836,12943
27818,13032
27783,13116
27732,13192
27668,13256
27592,13307
27539,13329
27508,13342
27508,13342
27508,13342
27419,13360
27328,13360
27238,13342
27238,13342
27238,13342
27207,13329
27154,13307
27078,13256
27014,13192
26963,13116
26928,13032
26911,12943
26911,12852
26928,12762
26963,12678
27014,12602
27078,12538
27154,12487
27208,12465
27238,12452
27238,12452
27238,12452
27328,12435
27419,12435
27508,12452
" /> 
<polyline style="fill-rule:evenodd;"
points="17739,11322
17777,11329
17884,11374
17980,11438
17981,11438
18063,11521
18128,11617
18172,11725
18195,11839
18195,11955
18172,12069
18128,12177
18063,12274
17981,12356
17981,12356
17884,12420
17777,12465
17739,12473
17663,12488
17546,12488
17470,12473
17432,12465
17325,12420
17228,12356
17228,12356
17146,12274
17081,12177
17037,12069
17014,11955
17014,11839
17037,11725
17081,11617
17146,11521
17228,11438
17229,11438
17325,11374
17432,11329
17470,11322
17546,11307
17663,11307
17739,11322
" /> 
<polyline style="fill-rule:evenodd;"
points="16195,12488
15014,12488
15014,11307
16195,11307
16195,12488
" /> 
<polyline style="fill-rule:evenodd;"
points="24139,11322
24177,11329
24284,11374
24380,11438
24381,11438
24463,11521
24528,11617
24572,11725
24595,11839
24595,11955
24572,12069
24528,12177
24463,12274
24381,12356
24381,12356
24284,12420
24177,12465
24139,12473
24063,12488
23946,12488
23870,12473
23832,12465
23725,12420
23628,12356
23628,12356
23546,12274
23481,12177
23437,12069
23414,11955
23414,11839
23437,11725
23481,11617
23546,11521
23628,11438
23629,11438
23725,11374
23832,11329
23870,11322
23946,11307
24063,11307
24139,11322
" /> 
<polyline style="fill-rule:evenodd;"
points="22595,12488
21414,12488
21414,11307
22595,11307
22595,12488
" /> 
<polyline style="fill-rule:evenodd;"
points="19739,11322
19777,11329
19884,11374
19980,11438
19981,11438
20063,11521
20128,11617
20172,11725
20195,11839
20195,11955
20172,12069
20128,12177
20063,12274
19981,12356
19981,12356
19884,12420
19777,12465
19739,12473
19663,12488
19546,12488
19470,12473
19432,12465
19325,12420
19228,12356
19228,12356
19146,12274
19081,12177
19037,12069
19014,11955
19014,11839
19037,11725
19081,11617
19146,11521
19228,11438
19229,11438
19325,11374
19432,11329
19470,11322
19546,11307
19663,11307
19739,11322
" /> 
<polyline style="fill-rule:evenodd;"
points="33540,10452
33540,10452
33540,10452
33571,10465
33624,10487
33700,10538
33764,10602
33815,10678
33849,10762
33867,10852
33867,10943
33849,11032
33815,11116
33764,11192
33700,11256
33624,11307
33571,11329
33540,11342
33540,11342
33540,11342
33450,11360
33359,11360
33270,11342
33270,11342
33270,11342
33239,11329
33185,11307
33110,11256
33045,11192
32995,11116
32960,11032
32942,10943
32942,10852
32960,10762
32995,10678
33045,10602
33110,10538
33185,10487
33239,10465
33270,10452
33270,10452
33270,10452
33359,10435
33450,10435
33540,10452
" /> 
<polyline style="fill-rule:evenodd;"
points="27508,10452
27508,10452
27508,10452
27539,10465
27592,10487
27668,10538
27732,10602
27783,10678
27818,10762
27836,10852
27836,10943
27818,11032
27783,11116
27732,11192
27668,11256
27592,11307
27539,11329
27508,11342
27508,11342
27508,11342
27419,11360
27328,11360
27238,11342
27238,11342
27238,11342
27207,11329
27154,11307
27078,11256
27014,11192
26963,11116
26928,11032
26911,10943
26911,10852
26928,10762
26963,10678
27014,10602
27078,10538
27154,10487
27207,10465
27238,10452
27238,10452
27238,10452
27328,10435
27419,10435
27508,10452
" /> 
</g>
<g style="fill:#000000; fill-opacity:1.0; 
stroke:#000000; stroke-width:0; stroke-opacity:1; 
stroke-linecap:round; stroke-linejoin:round;">
</g>
<g style="fill:#C2C200; fill-opacity:1.0; 
stroke:#C2C200; stroke-width:0; stroke-opacity:1; 
stroke-linecap:round; stroke-linejoin:round;">
</g>
<g style="fill:#C2C200; fill-opacity:0.0; 
stroke:#C2C200; stroke-width:78.7402; stroke-opacity:1; 
stroke-linecap:round; stroke-linejoin:round;">
<circle cx="36801.2" cy="11771.7" r="708.661" /> 
<circle cx="36801.2" cy="35393.7" r="708.661" /> 
<circle cx="13179.1" cy="35393.7" r="708.661" /> 
<circle cx="13179.1" cy="11771.7" r="708.661" /> 
<path d="M11210 9803
L11210 37362
" />
<path d="M11210 37362
L38769 37362
" />
<path d="M38769 9803
L38769 37362
" />
<path d="M11210 9803
L38769 9803
" />
</g> 
</svg>
