M48
;DRILL file {KiCad 5.0.0+dfsg1-2} date Sun May 26 04:41:39 2019
;FORMAT={-:-/ absolute / inch / decimal}
FMAT,2
INCH,TZ
T1C0.0236
T2C0.0299
T3C0.0315
T4C0.0400
T5C0.0433
T6C0.0492
T7C0.0598
T8C0.0787
%
G90
G05
M72
T1
X6.3Y-3.7159
X6.3Y-3.775
T2
X5.5376Y-4.1496
X5.5376Y-4.3504
X5.8624Y-4.1496
X5.8624Y-4.3504
T3
X5.65Y-3.425
X6.15Y-3.425
X5.65Y-3.25
X6.15Y-3.25
X5.65Y-3.075
X6.15Y-3.075
X4.8Y-2.8008
X4.8Y-3.1
X5.125Y-4.275
X5.125Y-4.4719
X6.075Y-4.125
X6.075Y-4.625
X5.125Y-3.65
X5.125Y-4.15
X5.5Y-3.675
X5.5Y-3.775
X5.5Y-3.875
X5.8Y-3.675
X5.8Y-3.775
X5.8Y-3.875
X6.Y-3.65
X6.Y-3.95
X6.1Y-3.65
X6.1Y-3.95
X5.325Y-3.65
X5.325Y-4.15
T4
X5.1305Y-2.4675
X5.1305Y-2.5675
X5.1305Y-2.6675
X5.1305Y-2.7675
X5.1305Y-2.8675
X5.1305Y-2.9675
X5.1305Y-3.0675
X5.1305Y-3.1675
X6.4305Y-2.4675
X6.4305Y-2.5675
X6.4305Y-2.6675
X6.4305Y-2.7675
X6.4305Y-2.8675
X6.4305Y-2.9675
X6.4305Y-3.0675
X6.4305Y-3.1675
T5
X4.975Y-5.
X5.075Y-5.
X5.175Y-5.
T6
X6.5551Y-4.6835
X6.657Y-3.5125
X6.7453Y-4.7345
X7.2426Y-3.6694
T7
X4.5086Y-4.3914
X4.65Y-4.25
X4.6219Y-3.4054
X4.7031Y-3.6013
X4.775Y-3.775
T8
X4.7157Y-4.7441
X5.4343Y-4.7441
T0
M30
