G04 #@! TF.GenerationSoftware,KiCad,Pcbnew,5.0.0+dfsg1-2*
G04 #@! TF.CreationDate,2019-05-26T04:41:42+02:00*
G04 #@! TF.ProjectId,ceiling-light-controller,6365696C696E672D6C696768742D636F,rev?*
G04 #@! TF.SameCoordinates,Original*
G04 #@! TF.FileFunction,Soldermask,Top*
G04 #@! TF.FilePolarity,Negative*
%FSLAX46Y46*%
G04 Gerber Fmt 4.6, Leading zero omitted, Abs format (unit mm)*
G04 Created by KiCad (PCBNEW 5.0.0+dfsg1-2) date Sun May 26 04:41:42 2019*
%MOMM*%
%LPD*%
G01*
G04 APERTURE LIST*
%ADD10O,1.600000X1.600000*%
%ADD11R,1.600000X1.600000*%
%ADD12R,1.160000X1.160000*%
%ADD13C,1.160000*%
%ADD14R,1.000000X1.500000*%
%ADD15C,1.600000*%
%ADD16R,1.905000X2.000000*%
%ADD17O,1.905000X2.000000*%
%ADD18C,2.524000*%
%ADD19R,1.200000X1.200000*%
%ADD20C,1.200000*%
%ADD21C,3.000000*%
%ADD22C,0.100000*%
%ADD23C,2.200000*%
%ADD24C,1.800000*%
G04 APERTURE END LIST*
D10*
G04 #@! TO.C,U3*
X139700000Y-98425000D03*
X147320000Y-93345000D03*
X139700000Y-95885000D03*
X147320000Y-95885000D03*
X139700000Y-93345000D03*
D11*
X147320000Y-98425000D03*
G04 #@! TD*
D12*
G04 #@! TO.C,BR1*
X148905000Y-110500000D03*
D13*
X148905000Y-105400000D03*
X140655000Y-105400000D03*
X140655000Y-110500000D03*
G04 #@! TD*
D14*
G04 #@! TO.C,D1*
X174320000Y-75655000D03*
X171120000Y-75655000D03*
X174320000Y-80555000D03*
X171120000Y-80555000D03*
G04 #@! TD*
D15*
G04 #@! TO.C,R7*
X121920000Y-78740000D03*
X121920000Y-71140000D03*
G04 #@! TD*
G04 #@! TO.C,R6*
X143510000Y-78105000D03*
D10*
X156210000Y-78105000D03*
G04 #@! TD*
D16*
G04 #@! TO.C,Q1*
X126365000Y-127000000D03*
D17*
X128905000Y-127000000D03*
X131445000Y-127000000D03*
D18*
X119780000Y-120500000D03*
X138030000Y-120500000D03*
G04 #@! TD*
D19*
G04 #@! TO.C,C1*
X160020000Y-95885000D03*
D20*
X160020000Y-94385000D03*
G04 #@! TD*
D15*
G04 #@! TO.C,C5*
X130175000Y-108585000D03*
X130175000Y-113585000D03*
G04 #@! TD*
G04 #@! TO.C,R1*
X154305000Y-104775000D03*
D10*
X154305000Y-117475000D03*
G04 #@! TD*
D15*
G04 #@! TO.C,R5*
X143510000Y-82550000D03*
D10*
X156210000Y-82550000D03*
G04 #@! TD*
G04 #@! TO.C,R4*
X130175000Y-105410000D03*
D15*
X130175000Y-92710000D03*
G04 #@! TD*
G04 #@! TO.C,R3*
X135255000Y-105410000D03*
D10*
X135255000Y-92710000D03*
G04 #@! TD*
G04 #@! TO.C,R2*
X143510000Y-86995000D03*
D15*
X156210000Y-86995000D03*
G04 #@! TD*
D21*
G04 #@! TO.C,J2*
X114517898Y-111542102D03*
D22*
G36*
X114517898Y-113663422D02*
X112396578Y-111542102D01*
X114517898Y-109420782D01*
X116639218Y-111542102D01*
X114517898Y-113663422D01*
X114517898Y-113663422D01*
G37*
D21*
X118110000Y-107950000D03*
G04 #@! TD*
G04 #@! TO.C,J1*
X121285000Y-95885000D03*
D22*
G36*
X123244844Y-96696794D02*
X120473206Y-97844844D01*
X119325156Y-95073206D01*
X122096794Y-93925156D01*
X123244844Y-96696794D01*
X123244844Y-96696794D01*
G37*
D21*
X119457687Y-91473475D03*
X117396936Y-86498384D03*
G04 #@! TD*
D10*
G04 #@! TO.C,U1*
X152400000Y-92710000D03*
X154940000Y-100330000D03*
X154940000Y-92710000D03*
D11*
X152400000Y-100330000D03*
G04 #@! TD*
D23*
G04 #@! TO.C,U2*
X166500545Y-118962062D03*
X171330175Y-120256157D03*
X169087011Y-89217984D03*
X183962269Y-93203797D03*
G04 #@! TD*
D24*
G04 #@! TO.C,U4*
X130315000Y-80455000D03*
X163335000Y-80455000D03*
X130315000Y-77915000D03*
X163335000Y-77915000D03*
X130315000Y-75375000D03*
X163335000Y-75375000D03*
X130315000Y-72835000D03*
X163335000Y-72835000D03*
X130315000Y-70295000D03*
X163335000Y-70295000D03*
X130315000Y-67755000D03*
X163335000Y-67755000D03*
X130315000Y-65215000D03*
X163335000Y-65215000D03*
X130315000Y-62675000D03*
X163335000Y-62675000D03*
G04 #@! TD*
M02*
