G04 #@! TF.GenerationSoftware,KiCad,Pcbnew,5.0.2+dfsg1-1*
G04 #@! TF.CreationDate,2019-08-06T01:46:57+02:00*
G04 #@! TF.ProjectId,ceiling-light-dimmable,6365696c-696e-4672-9d6c-696768742d64,v1.1.0*
G04 #@! TF.SameCoordinates,Original*
G04 #@! TF.FileFunction,Copper,L2,Bot*
G04 #@! TF.FilePolarity,Positive*
%FSLAX46Y46*%
G04 Gerber Fmt 4.6, Leading zero omitted, Abs format (unit mm)*
G04 Created by KiCad (PCBNEW 5.0.2+dfsg1-1) date Tue 06 Aug 2019 01:46:57 AM CEST*
%MOMM*%
%LPD*%
G01*
G04 APERTURE LIST*
G04 #@! TA.AperFunction,ComponentPad*
%ADD10R,1.700000X1.700000*%
G04 #@! TD*
G04 #@! TA.AperFunction,ComponentPad*
%ADD11O,1.700000X1.700000*%
G04 #@! TD*
G04 #@! TA.AperFunction,ComponentPad*
%ADD12R,1.600000X1.600000*%
G04 #@! TD*
G04 #@! TA.AperFunction,ComponentPad*
%ADD13C,1.600000*%
G04 #@! TD*
G04 #@! TA.AperFunction,ComponentPad*
%ADD14C,1.397000*%
G04 #@! TD*
G04 #@! TA.AperFunction,ComponentPad*
%ADD15R,2.200000X2.200000*%
G04 #@! TD*
G04 #@! TA.AperFunction,ComponentPad*
%ADD16O,2.200000X2.200000*%
G04 #@! TD*
G04 #@! TA.AperFunction,ComponentPad*
%ADD17C,1.160000*%
G04 #@! TD*
G04 #@! TA.AperFunction,ComponentPad*
%ADD18C,2.350000*%
G04 #@! TD*
G04 #@! TA.AperFunction,ComponentPad*
%ADD19O,1.600000X1.600000*%
G04 #@! TD*
G04 #@! TA.AperFunction,ComponentPad*
%ADD20O,1.050000X1.500000*%
G04 #@! TD*
G04 #@! TA.AperFunction,ComponentPad*
%ADD21R,1.050000X1.500000*%
G04 #@! TD*
G04 #@! TA.AperFunction,ComponentPad*
%ADD22C,2.200000*%
G04 #@! TD*
G04 #@! TA.AperFunction,ComponentPad*
%ADD23C,2.400000*%
G04 #@! TD*
G04 #@! TA.AperFunction,ComponentPad*
%ADD24O,2.400000X2.400000*%
G04 #@! TD*
G04 #@! TA.AperFunction,ComponentPad*
%ADD25R,3.000000X3.000000*%
G04 #@! TD*
G04 #@! TA.AperFunction,ComponentPad*
%ADD26C,3.000000*%
G04 #@! TD*
G04 #@! TA.AperFunction,ViaPad*
%ADD27C,0.800000*%
G04 #@! TD*
G04 #@! TA.AperFunction,ViaPad*
%ADD28C,2.000000*%
G04 #@! TD*
G04 #@! TA.AperFunction,Conductor*
%ADD29C,1.000000*%
G04 #@! TD*
G04 #@! TA.AperFunction,Conductor*
%ADD30C,0.250000*%
G04 #@! TD*
G04 #@! TA.AperFunction,Conductor*
%ADD31C,0.500000*%
G04 #@! TD*
G04 #@! TA.AperFunction,Conductor*
%ADD32C,2.000000*%
G04 #@! TD*
G04 #@! TA.AperFunction,Conductor*
%ADD33C,0.254000*%
G04 #@! TD*
G04 APERTURE END LIST*
D10*
G04 #@! TO.P,J3,1*
G04 #@! TO.N,/ESP_EN*
X67831000Y-91688000D03*
D11*
G04 #@! TO.P,J3,2*
G04 #@! TO.N,GND*
X70371000Y-91688000D03*
G04 #@! TO.P,J3,3*
G04 #@! TO.N,/ESP_TXD0*
X67831000Y-89148000D03*
G04 #@! TO.P,J3,4*
G04 #@! TO.N,GND*
X70371000Y-89148000D03*
G04 #@! TO.P,J3,5*
G04 #@! TO.N,/ESP_RXD0*
X67831000Y-86608000D03*
G04 #@! TO.P,J3,6*
G04 #@! TO.N,+3V3*
X70371000Y-86608000D03*
G04 #@! TO.P,J3,7*
G04 #@! TO.N,/ESP_GPIO_00*
X67831000Y-84068000D03*
G04 #@! TO.P,J3,8*
G04 #@! TO.N,+5V*
X70371000Y-84068000D03*
G04 #@! TD*
D12*
G04 #@! TO.P,C5,1*
G04 #@! TO.N,+3V3*
X70675000Y-53600000D03*
D13*
G04 #@! TO.P,C5,2*
G04 #@! TO.N,GND*
X73175000Y-53600000D03*
G04 #@! TD*
G04 #@! TO.P,C4,2*
G04 #@! TO.N,+5V*
X81293000Y-65820000D03*
D12*
G04 #@! TO.P,C4,1*
G04 #@! TO.N,GND*
X81293000Y-68320000D03*
G04 #@! TD*
G04 #@! TO.P,C1,1*
G04 #@! TO.N,GND*
X73419000Y-70098000D03*
D13*
G04 #@! TO.P,C1,2*
G04 #@! TO.N,/ESP_GPIO_25*
X75919000Y-70098000D03*
G04 #@! TD*
G04 #@! TO.P,C2,2*
G04 #@! TO.N,GND*
X74450000Y-39150000D03*
D12*
G04 #@! TO.P,C2,1*
G04 #@! TO.N,Net-(C2-Pad1)*
X74450000Y-36650000D03*
G04 #@! TD*
G04 #@! TO.P,C3,1*
G04 #@! TO.N,Net-(C3-Pad1)*
X94247000Y-65780000D03*
D13*
G04 #@! TO.P,C3,2*
G04 #@! TO.N,GND*
X94247000Y-68280000D03*
G04 #@! TD*
D14*
G04 #@! TO.P,SW2,2*
G04 #@! TO.N,/ESP_EN*
X74435000Y-84830000D03*
G04 #@! TO.P,SW2,1*
G04 #@! TO.N,GND*
X79515000Y-84830000D03*
G04 #@! TO.P,SW2,2*
G04 #@! TO.N,/ESP_EN*
X74435000Y-92450000D03*
G04 #@! TO.P,SW2,1*
G04 #@! TO.N,GND*
X79515000Y-92450000D03*
G04 #@! TD*
G04 #@! TO.P,SW1,1*
G04 #@! TO.N,Net-(SW1-Pad1)*
X83325000Y-84830000D03*
G04 #@! TO.P,SW1,2*
G04 #@! TO.N,GND*
X88405000Y-84830000D03*
G04 #@! TO.P,SW1,1*
G04 #@! TO.N,Net-(SW1-Pad1)*
X83325000Y-92450000D03*
G04 #@! TO.P,SW1,2*
G04 #@! TO.N,GND*
X88405000Y-92450000D03*
G04 #@! TD*
D15*
G04 #@! TO.P,D2,1*
G04 #@! TO.N,Net-(D2-Pad1)*
X86881000Y-51902000D03*
D16*
G04 #@! TO.P,D2,2*
G04 #@! TO.N,/N_MAIN*
X86881000Y-62062000D03*
G04 #@! TD*
D17*
G04 #@! TO.P,BR1,4*
G04 #@! TO.N,/L_M1*
X44707000Y-37525000D03*
G04 #@! TO.P,BR1,3*
G04 #@! TO.N,/N_MAIN*
X49807000Y-37525000D03*
G04 #@! TO.P,BR1,2*
G04 #@! TO.N,Net-(BR1-Pad2)*
X49807000Y-45775000D03*
G04 #@! TO.P,BR1,1*
G04 #@! TO.N,Net-(BR1-Pad1)*
X44707000Y-45775000D03*
G04 #@! TD*
D18*
G04 #@! TO.P,F1,2*
G04 #@! TO.N,Net-(F1-Pad2)*
X69529000Y-32760000D03*
X69529000Y-27680000D03*
G04 #@! TO.P,F1,1*
G04 #@! TO.N,/L_OUT*
X84849000Y-32760000D03*
X84849000Y-27680000D03*
G04 #@! TD*
D13*
G04 #@! TO.P,R7,1*
G04 #@! TO.N,+3V3*
X87135000Y-78226000D03*
G04 #@! TO.P,R7,2*
G04 #@! TO.N,/ESP_GPIO_34*
X87135000Y-81226000D03*
G04 #@! TD*
D12*
G04 #@! TO.P,U1,1*
G04 #@! TO.N,Net-(R1-Pad1)*
X36589000Y-45714000D03*
D19*
G04 #@! TO.P,U1,3*
G04 #@! TO.N,GND*
X39129000Y-38094000D03*
G04 #@! TO.P,U1,2*
G04 #@! TO.N,Net-(BR1-Pad2)*
X39129000Y-45714000D03*
G04 #@! TO.P,U1,4*
G04 #@! TO.N,/ESP_GPIO_23*
X36589000Y-38094000D03*
G04 #@! TD*
D20*
G04 #@! TO.P,Q4,2*
G04 #@! TO.N,Net-(Q4-Pad2)*
X87643000Y-66796000D03*
G04 #@! TO.P,Q4,3*
G04 #@! TO.N,Net-(Q4-Pad3)*
X86373000Y-66796000D03*
D21*
G04 #@! TO.P,Q4,1*
G04 #@! TO.N,Net-(C3-Pad1)*
X88913000Y-66796000D03*
G04 #@! TD*
D22*
G04 #@! TO.P,U2,1*
G04 #@! TO.N,/L_M2*
X32303000Y-55406000D03*
G04 #@! TO.P,U2,2*
G04 #@! TO.N,/N_MAIN*
X32303000Y-60406000D03*
G04 #@! TO.P,U2,3*
G04 #@! TO.N,GND*
X61703000Y-50206000D03*
G04 #@! TO.P,U2,4*
G04 #@! TO.N,+5V*
X61703000Y-65606000D03*
G04 #@! TD*
D19*
G04 #@! TO.P,R1,2*
G04 #@! TO.N,Net-(BR1-Pad1)*
X31509000Y-35554000D03*
D13*
G04 #@! TO.P,R1,1*
G04 #@! TO.N,Net-(R1-Pad1)*
X31509000Y-45714000D03*
G04 #@! TD*
G04 #@! TO.P,R2,1*
G04 #@! TO.N,/ESP_GPIO_23*
X45479000Y-70860000D03*
D19*
G04 #@! TO.P,R2,2*
G04 #@! TO.N,+3V3*
X55639000Y-70860000D03*
G04 #@! TD*
D13*
G04 #@! TO.P,R5,1*
G04 #@! TO.N,Net-(Q4-Pad2)*
X83325000Y-62354000D03*
D19*
G04 #@! TO.P,R5,2*
G04 #@! TO.N,Net-(D2-Pad1)*
X83325000Y-52194000D03*
G04 #@! TD*
D13*
G04 #@! TO.P,R6,1*
G04 #@! TO.N,/ESP_GPIO_34*
X68593000Y-70860000D03*
D19*
G04 #@! TO.P,R6,2*
G04 #@! TO.N,GND*
X58433000Y-70860000D03*
G04 #@! TD*
D13*
G04 #@! TO.P,R9,1*
G04 #@! TO.N,Net-(Q4-Pad3)*
X80023000Y-62354000D03*
D19*
G04 #@! TO.P,R9,2*
G04 #@! TO.N,Net-(D2-Pad1)*
X80023000Y-52194000D03*
G04 #@! TD*
G04 #@! TO.P,R11,2*
G04 #@! TO.N,Net-(C2-Pad1)*
X76721000Y-52204000D03*
D13*
G04 #@! TO.P,R11,1*
G04 #@! TO.N,Net-(R11-Pad1)*
X76721000Y-62364000D03*
G04 #@! TD*
D23*
G04 #@! TO.P,R10,1*
G04 #@! TO.N,Net-(R10-Pad1)*
X66561000Y-61970000D03*
D24*
G04 #@! TO.P,R10,2*
G04 #@! TO.N,/L_M2*
X66561000Y-49270000D03*
G04 #@! TD*
G04 #@! TO.P,R12,2*
G04 #@! TO.N,/L_OUT*
X95373000Y-49278000D03*
D23*
G04 #@! TO.P,R12,1*
G04 #@! TO.N,Net-(R12-Pad1)*
X95373000Y-61978000D03*
G04 #@! TD*
G04 #@! TO.P,R13,1*
G04 #@! TO.N,Net-(R13-Pad1)*
X90945000Y-49270000D03*
D24*
G04 #@! TO.P,R13,2*
G04 #@! TO.N,/N_MAIN*
X90945000Y-61970000D03*
G04 #@! TD*
D25*
G04 #@! TO.P,J2,1*
G04 #@! TO.N,/N_MAIN*
X55893000Y-30220000D03*
D26*
G04 #@! TO.P,J2,2*
G04 #@! TO.N,Net-(F1-Pad2)*
X60973000Y-30220000D03*
G04 #@! TD*
D25*
G04 #@! TO.P,J1,1*
G04 #@! TO.N,/L_M2*
X39637000Y-30220000D03*
D26*
G04 #@! TO.P,J1,2*
G04 #@! TO.N,/L_M1*
X44717000Y-30220000D03*
G04 #@! TO.P,J1,3*
G04 #@! TO.N,/N_MAIN*
X49797000Y-30220000D03*
G04 #@! TD*
D27*
G04 #@! TO.N,+3V3*
X46125000Y-89125000D03*
X64600000Y-66725000D03*
X64600000Y-70875000D03*
X76721000Y-81376000D03*
X76721000Y-75076000D03*
G04 #@! TO.N,GND*
X62150000Y-89275000D03*
X44850000Y-92050000D03*
X44850000Y-75075000D03*
X82125000Y-34850000D03*
X92600000Y-37575000D03*
G04 #@! TO.N,Net-(R10-Pad1)*
X70149000Y-59424000D03*
D28*
G04 #@! TO.N,Net-(C2-Pad1)*
X56845000Y-36675000D03*
X92650000Y-45900000D03*
D27*
G04 #@! TO.N,+5V*
X74421000Y-75076000D03*
G04 #@! TO.N,/ESP_GPIO_35*
X52464000Y-92060000D03*
X63425000Y-66750000D03*
G04 #@! TO.N,/ESP_GPIO_25*
X63950000Y-91009989D03*
G04 #@! TD*
D29*
G04 #@! TO.N,/N_MAIN*
X49807000Y-41486930D02*
X53029010Y-44708940D01*
X49807000Y-37525000D02*
X49807000Y-41486930D01*
X53029010Y-44708940D02*
X53029009Y-52815061D01*
X49807000Y-37525000D02*
X49807000Y-30230000D01*
X86881000Y-60506366D02*
X83799634Y-57425000D01*
X86881000Y-62062000D02*
X86881000Y-60506366D01*
X83799634Y-57425000D02*
X48400000Y-57425000D01*
X49218991Y-56606009D02*
X48400000Y-57425000D01*
X53029009Y-52815061D02*
X49238061Y-56606009D01*
X49238061Y-56606009D02*
X49218991Y-56606009D01*
X45419000Y-60406000D02*
X48400000Y-57425000D01*
X32303000Y-60406000D02*
X45419000Y-60406000D01*
D30*
G04 #@! TO.N,Net-(BR1-Pad1)*
X41669000Y-44444000D02*
X43000000Y-45775000D01*
X43000000Y-45775000D02*
X44707000Y-45775000D01*
X41669000Y-36824000D02*
X41669000Y-44444000D01*
X31509000Y-35554000D02*
X40399000Y-35554000D01*
X40399000Y-35554000D02*
X41669000Y-36824000D01*
D31*
G04 #@! TO.N,+3V3*
X55639000Y-70860000D02*
X50890000Y-70860000D01*
X50890000Y-70860000D02*
X46125000Y-75625000D01*
X46125000Y-75625000D02*
X46125000Y-89125000D01*
X64600000Y-66725000D02*
X64600000Y-70875000D01*
X76721000Y-81376000D02*
X76721000Y-75076000D01*
D30*
G04 #@! TO.N,GND*
X72375001Y-52800001D02*
X73175000Y-53600000D01*
X70880999Y-51305999D02*
X72375001Y-52800001D01*
X61703000Y-50206000D02*
X62802999Y-51305999D01*
X62802999Y-51305999D02*
X70880999Y-51305999D01*
X82150000Y-34825000D02*
X82125000Y-34850000D01*
X82690685Y-34850000D02*
X82125000Y-34850000D01*
X95378370Y-68280000D02*
X94247000Y-68280000D01*
X97575000Y-66083370D02*
X95378370Y-68280000D01*
X97575000Y-42550000D02*
X97575000Y-66083370D01*
X92600000Y-37575000D02*
X97575000Y-42550000D01*
X89875000Y-34850000D02*
X82125000Y-34850000D01*
X92600000Y-37575000D02*
X89875000Y-34850000D01*
G04 #@! TO.N,Net-(R10-Pad1)*
X66561000Y-61970000D02*
X69107000Y-59424000D01*
X69107000Y-59424000D02*
X70149000Y-59424000D01*
D32*
G04 #@! TO.N,Net-(C2-Pad1)*
X74425000Y-36675000D02*
X74450000Y-36650000D01*
X56845000Y-36675000D02*
X74425000Y-36675000D01*
X77250000Y-36650000D02*
X74450000Y-36650000D01*
X77520999Y-36920999D02*
X77250000Y-36650000D01*
D30*
X76721000Y-52204000D02*
X77520999Y-51404001D01*
X77520999Y-51404001D02*
X77520999Y-36920999D01*
D32*
X86500000Y-45900000D02*
X77520999Y-36920999D01*
X92650000Y-45900000D02*
X86500000Y-45900000D01*
D31*
G04 #@! TO.N,+5V*
X81079000Y-65606000D02*
X81293000Y-65820000D01*
X61703000Y-65606000D02*
X81079000Y-65606000D01*
X71220999Y-83218001D02*
X71220999Y-83204001D01*
X70371000Y-84068000D02*
X71220999Y-83218001D01*
X71220999Y-83204001D02*
X74421000Y-80004000D01*
X74421000Y-80004000D02*
X74421000Y-75076000D01*
D29*
G04 #@! TO.N,/L_M2*
X48741000Y-55406000D02*
X32303000Y-55406000D01*
X51829000Y-52318000D02*
X48741000Y-55406000D01*
X51829000Y-45206000D02*
X51829000Y-52318000D01*
X50559000Y-43936000D02*
X51829000Y-45206000D01*
X39637000Y-30220000D02*
X39637000Y-32720000D01*
X43193000Y-36276000D02*
X43193000Y-42920000D01*
X43193000Y-42920000D02*
X44209000Y-43936000D01*
X39637000Y-32720000D02*
X43193000Y-36276000D01*
X44209000Y-43936000D02*
X50559000Y-43936000D01*
G04 #@! TO.N,/L_M1*
X44707000Y-37525000D02*
X44707000Y-30230000D01*
D30*
G04 #@! TO.N,/ESP_GPIO_35*
X52464000Y-90810000D02*
X52464000Y-92060000D01*
X62765000Y-90810000D02*
X52464000Y-90810000D01*
X63425000Y-66750000D02*
X63425000Y-90150000D01*
X63425000Y-90150000D02*
X62765000Y-90810000D01*
G04 #@! TO.N,/ESP_GPIO_25*
X63950000Y-82067000D02*
X63950000Y-91009989D01*
X75919000Y-70098000D02*
X73592000Y-72425000D01*
X63950000Y-73725000D02*
X63950000Y-82067000D01*
X73592000Y-72425000D02*
X65250000Y-72425000D01*
X65250000Y-72425000D02*
X63950000Y-73725000D01*
G04 #@! TD*
D33*
G04 #@! TO.N,GND*
G36*
X63473000Y-64125199D02*
X63482744Y-64173785D01*
X63510339Y-64214943D01*
X63551583Y-64242409D01*
X63599916Y-64252000D01*
X97740001Y-64274505D01*
X97740001Y-94165000D01*
X29210000Y-94165000D01*
X29210000Y-89539997D01*
X30945490Y-89539997D01*
X30951456Y-90299690D01*
X31180540Y-91024045D01*
X31612485Y-91649018D01*
X32209103Y-92119354D01*
X32917644Y-92393467D01*
X33675463Y-92447124D01*
X34415558Y-92275579D01*
X35072495Y-91894000D01*
X35109354Y-91854126D01*
X51429000Y-91854126D01*
X51429000Y-92265874D01*
X51586569Y-92646280D01*
X51877720Y-92937431D01*
X52258126Y-93095000D01*
X52669874Y-93095000D01*
X53050280Y-92937431D01*
X53341431Y-92646280D01*
X53499000Y-92265874D01*
X53499000Y-91854126D01*
X53381311Y-91570000D01*
X62690153Y-91570000D01*
X62765000Y-91584888D01*
X62839847Y-91570000D01*
X62839852Y-91570000D01*
X63044802Y-91529233D01*
X63072569Y-91596269D01*
X63363720Y-91887420D01*
X63744126Y-92044989D01*
X64155874Y-92044989D01*
X64536280Y-91887420D01*
X64827431Y-91596269D01*
X64985000Y-91215863D01*
X64985000Y-90804115D01*
X64827431Y-90423709D01*
X64710000Y-90306278D01*
X64710000Y-84068000D01*
X66316908Y-84068000D01*
X66432161Y-84647418D01*
X66760375Y-85138625D01*
X67058761Y-85338000D01*
X66760375Y-85537375D01*
X66432161Y-86028582D01*
X66316908Y-86608000D01*
X66432161Y-87187418D01*
X66760375Y-87678625D01*
X67058761Y-87878000D01*
X66760375Y-88077375D01*
X66432161Y-88568582D01*
X66316908Y-89148000D01*
X66432161Y-89727418D01*
X66760375Y-90218625D01*
X66778619Y-90230816D01*
X66733235Y-90239843D01*
X66523191Y-90380191D01*
X66382843Y-90590235D01*
X66333560Y-90838000D01*
X66333560Y-92538000D01*
X66382843Y-92785765D01*
X66523191Y-92995809D01*
X66733235Y-93136157D01*
X66981000Y-93185440D01*
X68681000Y-93185440D01*
X68928765Y-93136157D01*
X69138809Y-92995809D01*
X69279157Y-92785765D01*
X69300961Y-92676145D01*
X69489642Y-92883183D01*
X70014108Y-93129486D01*
X70244000Y-93008819D01*
X70244000Y-91815000D01*
X70498000Y-91815000D01*
X70498000Y-93008819D01*
X70727892Y-93129486D01*
X71252358Y-92883183D01*
X71642645Y-92454924D01*
X71754547Y-92184750D01*
X73101500Y-92184750D01*
X73101500Y-92715250D01*
X73304513Y-93205367D01*
X73679633Y-93580487D01*
X74169750Y-93783500D01*
X74700250Y-93783500D01*
X75190367Y-93580487D01*
X75386666Y-93384188D01*
X78760417Y-93384188D01*
X78822071Y-93619800D01*
X79322480Y-93795927D01*
X79852199Y-93767148D01*
X80207929Y-93619800D01*
X80269583Y-93384188D01*
X79515000Y-92629605D01*
X78760417Y-93384188D01*
X75386666Y-93384188D01*
X75565487Y-93205367D01*
X75768500Y-92715250D01*
X75768500Y-92257480D01*
X78169073Y-92257480D01*
X78197852Y-92787199D01*
X78345200Y-93142929D01*
X78580812Y-93204583D01*
X79335395Y-92450000D01*
X79694605Y-92450000D01*
X80449188Y-93204583D01*
X80684800Y-93142929D01*
X80860927Y-92642520D01*
X80836057Y-92184750D01*
X81991500Y-92184750D01*
X81991500Y-92715250D01*
X82194513Y-93205367D01*
X82569633Y-93580487D01*
X83059750Y-93783500D01*
X83590250Y-93783500D01*
X84080367Y-93580487D01*
X84276666Y-93384188D01*
X87650417Y-93384188D01*
X87712071Y-93619800D01*
X88212480Y-93795927D01*
X88742199Y-93767148D01*
X89097929Y-93619800D01*
X89159583Y-93384188D01*
X88405000Y-92629605D01*
X87650417Y-93384188D01*
X84276666Y-93384188D01*
X84455487Y-93205367D01*
X84658500Y-92715250D01*
X84658500Y-92257480D01*
X87059073Y-92257480D01*
X87087852Y-92787199D01*
X87235200Y-93142929D01*
X87470812Y-93204583D01*
X88225395Y-92450000D01*
X88584605Y-92450000D01*
X89339188Y-93204583D01*
X89574800Y-93142929D01*
X89750927Y-92642520D01*
X89722148Y-92112801D01*
X89574800Y-91757071D01*
X89339188Y-91695417D01*
X88584605Y-92450000D01*
X88225395Y-92450000D01*
X87470812Y-91695417D01*
X87235200Y-91757071D01*
X87059073Y-92257480D01*
X84658500Y-92257480D01*
X84658500Y-92184750D01*
X84455487Y-91694633D01*
X84276666Y-91515812D01*
X87650417Y-91515812D01*
X88405000Y-92270395D01*
X89159583Y-91515812D01*
X89097929Y-91280200D01*
X88597520Y-91104073D01*
X88067801Y-91132852D01*
X87712071Y-91280200D01*
X87650417Y-91515812D01*
X84276666Y-91515812D01*
X84080367Y-91319513D01*
X83590250Y-91116500D01*
X83059750Y-91116500D01*
X82569633Y-91319513D01*
X82194513Y-91694633D01*
X81991500Y-92184750D01*
X80836057Y-92184750D01*
X80832148Y-92112801D01*
X80684800Y-91757071D01*
X80449188Y-91695417D01*
X79694605Y-92450000D01*
X79335395Y-92450000D01*
X78580812Y-91695417D01*
X78345200Y-91757071D01*
X78169073Y-92257480D01*
X75768500Y-92257480D01*
X75768500Y-92184750D01*
X75565487Y-91694633D01*
X75386666Y-91515812D01*
X78760417Y-91515812D01*
X79515000Y-92270395D01*
X80269583Y-91515812D01*
X80207929Y-91280200D01*
X79707520Y-91104073D01*
X79177801Y-91132852D01*
X78822071Y-91280200D01*
X78760417Y-91515812D01*
X75386666Y-91515812D01*
X75190367Y-91319513D01*
X74700250Y-91116500D01*
X74169750Y-91116500D01*
X73679633Y-91319513D01*
X73304513Y-91694633D01*
X73101500Y-92184750D01*
X71754547Y-92184750D01*
X71812476Y-92044890D01*
X71691155Y-91815000D01*
X70498000Y-91815000D01*
X70244000Y-91815000D01*
X70224000Y-91815000D01*
X70224000Y-91561000D01*
X70244000Y-91561000D01*
X70244000Y-89275000D01*
X70498000Y-89275000D01*
X70498000Y-91561000D01*
X71691155Y-91561000D01*
X71812476Y-91331110D01*
X71642645Y-90921076D01*
X71252358Y-90492817D01*
X71093046Y-90418000D01*
X71252358Y-90343183D01*
X71642645Y-89914924D01*
X71797935Y-89539997D01*
X90945490Y-89539997D01*
X90951456Y-90299690D01*
X91180540Y-91024045D01*
X91612485Y-91649018D01*
X92209103Y-92119354D01*
X92917644Y-92393467D01*
X93675463Y-92447124D01*
X94415558Y-92275579D01*
X95072495Y-91894000D01*
X95588191Y-91336123D01*
X95917051Y-90651273D01*
X96030000Y-89900000D01*
X96029685Y-89859868D01*
X95904949Y-89110462D01*
X95565373Y-88430862D01*
X95040978Y-87881154D01*
X94378128Y-87509941D01*
X93635430Y-87350042D01*
X92878547Y-87415595D01*
X92174399Y-87700804D01*
X91585243Y-88180453D01*
X91163167Y-88812134D01*
X90945490Y-89539997D01*
X71797935Y-89539997D01*
X71812476Y-89504890D01*
X71691155Y-89275000D01*
X70498000Y-89275000D01*
X70244000Y-89275000D01*
X70224000Y-89275000D01*
X70224000Y-89021000D01*
X70244000Y-89021000D01*
X70244000Y-89001000D01*
X70498000Y-89001000D01*
X70498000Y-89021000D01*
X71691155Y-89021000D01*
X71812476Y-88791110D01*
X71642645Y-88381076D01*
X71252358Y-87952817D01*
X71122522Y-87891843D01*
X71441625Y-87678625D01*
X71769839Y-87187418D01*
X71885092Y-86608000D01*
X71769839Y-86028582D01*
X71441625Y-85537375D01*
X71143239Y-85338000D01*
X71441625Y-85138625D01*
X71769839Y-84647418D01*
X71786282Y-84564750D01*
X73101500Y-84564750D01*
X73101500Y-85095250D01*
X73304513Y-85585367D01*
X73679633Y-85960487D01*
X74169750Y-86163500D01*
X74700250Y-86163500D01*
X75190367Y-85960487D01*
X75386666Y-85764188D01*
X78760417Y-85764188D01*
X78822071Y-85999800D01*
X79322480Y-86175927D01*
X79852199Y-86147148D01*
X80207929Y-85999800D01*
X80269583Y-85764188D01*
X79515000Y-85009605D01*
X78760417Y-85764188D01*
X75386666Y-85764188D01*
X75565487Y-85585367D01*
X75768500Y-85095250D01*
X75768500Y-84637480D01*
X78169073Y-84637480D01*
X78197852Y-85167199D01*
X78345200Y-85522929D01*
X78580812Y-85584583D01*
X79335395Y-84830000D01*
X79694605Y-84830000D01*
X80449188Y-85584583D01*
X80684800Y-85522929D01*
X80860927Y-85022520D01*
X80836057Y-84564750D01*
X81991500Y-84564750D01*
X81991500Y-85095250D01*
X82194513Y-85585367D01*
X82569633Y-85960487D01*
X83059750Y-86163500D01*
X83590250Y-86163500D01*
X84080367Y-85960487D01*
X84276666Y-85764188D01*
X87650417Y-85764188D01*
X87712071Y-85999800D01*
X88212480Y-86175927D01*
X88742199Y-86147148D01*
X89097929Y-85999800D01*
X89159583Y-85764188D01*
X88405000Y-85009605D01*
X87650417Y-85764188D01*
X84276666Y-85764188D01*
X84455487Y-85585367D01*
X84658500Y-85095250D01*
X84658500Y-84637480D01*
X87059073Y-84637480D01*
X87087852Y-85167199D01*
X87235200Y-85522929D01*
X87470812Y-85584583D01*
X88225395Y-84830000D01*
X88584605Y-84830000D01*
X89339188Y-85584583D01*
X89574800Y-85522929D01*
X89750927Y-85022520D01*
X89722148Y-84492801D01*
X89574800Y-84137071D01*
X89339188Y-84075417D01*
X88584605Y-84830000D01*
X88225395Y-84830000D01*
X87470812Y-84075417D01*
X87235200Y-84137071D01*
X87059073Y-84637480D01*
X84658500Y-84637480D01*
X84658500Y-84564750D01*
X84455487Y-84074633D01*
X84276666Y-83895812D01*
X87650417Y-83895812D01*
X88405000Y-84650395D01*
X89159583Y-83895812D01*
X89097929Y-83660200D01*
X88597520Y-83484073D01*
X88067801Y-83512852D01*
X87712071Y-83660200D01*
X87650417Y-83895812D01*
X84276666Y-83895812D01*
X84080367Y-83699513D01*
X83590250Y-83496500D01*
X83059750Y-83496500D01*
X82569633Y-83699513D01*
X82194513Y-84074633D01*
X81991500Y-84564750D01*
X80836057Y-84564750D01*
X80832148Y-84492801D01*
X80684800Y-84137071D01*
X80449188Y-84075417D01*
X79694605Y-84830000D01*
X79335395Y-84830000D01*
X78580812Y-84075417D01*
X78345200Y-84137071D01*
X78169073Y-84637480D01*
X75768500Y-84637480D01*
X75768500Y-84564750D01*
X75565487Y-84074633D01*
X75386666Y-83895812D01*
X78760417Y-83895812D01*
X79515000Y-84650395D01*
X80269583Y-83895812D01*
X80207929Y-83660200D01*
X79707520Y-83484073D01*
X79177801Y-83512852D01*
X78822071Y-83660200D01*
X78760417Y-83895812D01*
X75386666Y-83895812D01*
X75190367Y-83699513D01*
X74700250Y-83496500D01*
X74169750Y-83496500D01*
X73679633Y-83699513D01*
X73304513Y-84074633D01*
X73101500Y-84564750D01*
X71786282Y-84564750D01*
X71885092Y-84068000D01*
X71844823Y-83865555D01*
X71859048Y-83856050D01*
X71936616Y-83739962D01*
X74985156Y-80691423D01*
X75059049Y-80642049D01*
X75254652Y-80349310D01*
X75306000Y-80091165D01*
X75306000Y-80091161D01*
X75323337Y-80004000D01*
X75306000Y-79916839D01*
X75306000Y-75644007D01*
X75456000Y-75281874D01*
X75456000Y-74870126D01*
X75686000Y-74870126D01*
X75686000Y-75281874D01*
X75836001Y-75644009D01*
X75836000Y-80807993D01*
X75686000Y-81170126D01*
X75686000Y-81581874D01*
X75843569Y-81962280D01*
X76134720Y-82253431D01*
X76515126Y-82411000D01*
X76926874Y-82411000D01*
X77307280Y-82253431D01*
X77598431Y-81962280D01*
X77756000Y-81581874D01*
X77756000Y-81170126D01*
X77660912Y-80940561D01*
X85700000Y-80940561D01*
X85700000Y-81511439D01*
X85918466Y-82038862D01*
X86322138Y-82442534D01*
X86849561Y-82661000D01*
X87420439Y-82661000D01*
X87947862Y-82442534D01*
X88351534Y-82038862D01*
X88570000Y-81511439D01*
X88570000Y-80940561D01*
X88351534Y-80413138D01*
X87947862Y-80009466D01*
X87420439Y-79791000D01*
X86849561Y-79791000D01*
X86322138Y-80009466D01*
X85918466Y-80413138D01*
X85700000Y-80940561D01*
X77660912Y-80940561D01*
X77606000Y-80807993D01*
X77606000Y-77940561D01*
X85700000Y-77940561D01*
X85700000Y-78511439D01*
X85918466Y-79038862D01*
X86322138Y-79442534D01*
X86849561Y-79661000D01*
X87420439Y-79661000D01*
X87947862Y-79442534D01*
X88351534Y-79038862D01*
X88570000Y-78511439D01*
X88570000Y-77940561D01*
X88351534Y-77413138D01*
X87947862Y-77009466D01*
X87420439Y-76791000D01*
X86849561Y-76791000D01*
X86322138Y-77009466D01*
X85918466Y-77413138D01*
X85700000Y-77940561D01*
X77606000Y-77940561D01*
X77606000Y-75644007D01*
X77756000Y-75281874D01*
X77756000Y-74870126D01*
X77598431Y-74489720D01*
X77307280Y-74198569D01*
X76926874Y-74041000D01*
X76515126Y-74041000D01*
X76134720Y-74198569D01*
X75843569Y-74489720D01*
X75686000Y-74870126D01*
X75456000Y-74870126D01*
X75298431Y-74489720D01*
X75007280Y-74198569D01*
X74626874Y-74041000D01*
X74215126Y-74041000D01*
X73834720Y-74198569D01*
X73543569Y-74489720D01*
X73386000Y-74870126D01*
X73386000Y-75281874D01*
X73536001Y-75644009D01*
X73536000Y-79637421D01*
X70656845Y-82516577D01*
X70582950Y-82565952D01*
X70565188Y-82592534D01*
X70517256Y-82583000D01*
X70224744Y-82583000D01*
X69791582Y-82669161D01*
X69300375Y-82997375D01*
X69101000Y-83295761D01*
X68901625Y-82997375D01*
X68410418Y-82669161D01*
X67977256Y-82583000D01*
X67684744Y-82583000D01*
X67251582Y-82669161D01*
X66760375Y-82997375D01*
X66432161Y-83488582D01*
X66316908Y-84068000D01*
X64710000Y-84068000D01*
X64710000Y-74039801D01*
X65564802Y-73185000D01*
X73517153Y-73185000D01*
X73592000Y-73199888D01*
X73666847Y-73185000D01*
X73666852Y-73185000D01*
X73888537Y-73140904D01*
X74139929Y-72972929D01*
X74182331Y-72909470D01*
X75580698Y-71511103D01*
X75633561Y-71533000D01*
X76204439Y-71533000D01*
X76731862Y-71314534D01*
X77135534Y-70910862D01*
X77354000Y-70383439D01*
X77354000Y-69812561D01*
X77135534Y-69285138D01*
X76731862Y-68881466D01*
X76204439Y-68663000D01*
X75633561Y-68663000D01*
X75106138Y-68881466D01*
X74842845Y-69144759D01*
X74757327Y-68938301D01*
X74578698Y-68759673D01*
X74345309Y-68663000D01*
X73704750Y-68663000D01*
X73546000Y-68821750D01*
X73546000Y-69971000D01*
X73566000Y-69971000D01*
X73566000Y-70225000D01*
X73546000Y-70225000D01*
X73546000Y-70245000D01*
X73292000Y-70245000D01*
X73292000Y-70225000D01*
X72142750Y-70225000D01*
X71984000Y-70383750D01*
X71984000Y-71024310D01*
X72080673Y-71257699D01*
X72259302Y-71436327D01*
X72492691Y-71533000D01*
X73133250Y-71533000D01*
X73291998Y-71374252D01*
X73291998Y-71533000D01*
X73409199Y-71533000D01*
X73277199Y-71665000D01*
X69812791Y-71665000D01*
X70028000Y-71145439D01*
X70028000Y-70574561D01*
X69809534Y-70047138D01*
X69405862Y-69643466D01*
X68878439Y-69425000D01*
X68307561Y-69425000D01*
X67780138Y-69643466D01*
X67376466Y-70047138D01*
X67158000Y-70574561D01*
X67158000Y-71145439D01*
X67373209Y-71665000D01*
X65324848Y-71665000D01*
X65282195Y-71656516D01*
X65477431Y-71461280D01*
X65635000Y-71080874D01*
X65635000Y-70669126D01*
X65485000Y-70306993D01*
X65485000Y-69171690D01*
X71984000Y-69171690D01*
X71984000Y-69812250D01*
X72142750Y-69971000D01*
X73292000Y-69971000D01*
X73292000Y-68821750D01*
X73133250Y-68663000D01*
X72492691Y-68663000D01*
X72259302Y-68759673D01*
X72080673Y-68938301D01*
X71984000Y-69171690D01*
X65485000Y-69171690D01*
X65485000Y-68605750D01*
X79858000Y-68605750D01*
X79858000Y-69246309D01*
X79954673Y-69479698D01*
X80133301Y-69658327D01*
X80366690Y-69755000D01*
X81007250Y-69755000D01*
X81166000Y-69596250D01*
X81166000Y-68447000D01*
X81420000Y-68447000D01*
X81420000Y-69596250D01*
X81578750Y-69755000D01*
X82219310Y-69755000D01*
X82452699Y-69658327D01*
X82631327Y-69479698D01*
X82710836Y-69287745D01*
X93418861Y-69287745D01*
X93492995Y-69533864D01*
X94030223Y-69726965D01*
X94600454Y-69699778D01*
X95001005Y-69533864D01*
X95075139Y-69287745D01*
X94247000Y-68459605D01*
X93418861Y-69287745D01*
X82710836Y-69287745D01*
X82728000Y-69246309D01*
X82728000Y-68605750D01*
X82569250Y-68447000D01*
X81420000Y-68447000D01*
X81166000Y-68447000D01*
X80016750Y-68447000D01*
X79858000Y-68605750D01*
X65485000Y-68605750D01*
X65485000Y-67293007D01*
X65635000Y-66930874D01*
X65635000Y-66519126D01*
X65623350Y-66491000D01*
X80017705Y-66491000D01*
X80076466Y-66632862D01*
X80339759Y-66896155D01*
X80133301Y-66981673D01*
X79954673Y-67160302D01*
X79858000Y-67393691D01*
X79858000Y-68034250D01*
X80016750Y-68193000D01*
X81166000Y-68193000D01*
X81166000Y-68173000D01*
X81420000Y-68173000D01*
X81420000Y-68193000D01*
X82569250Y-68193000D01*
X82728000Y-68034250D01*
X82728000Y-67393691D01*
X82631327Y-67160302D01*
X82452699Y-66981673D01*
X82246241Y-66896155D01*
X82509534Y-66632862D01*
X82582480Y-66456754D01*
X85213000Y-66456754D01*
X85213000Y-67135245D01*
X85280305Y-67473608D01*
X85536687Y-67857313D01*
X85920391Y-68113695D01*
X86373000Y-68203725D01*
X86825608Y-68113695D01*
X87008000Y-67991825D01*
X87190391Y-68113695D01*
X87643000Y-68203725D01*
X88094866Y-68113842D01*
X88140235Y-68144157D01*
X88388000Y-68193440D01*
X89438000Y-68193440D01*
X89685765Y-68144157D01*
X89806890Y-68063223D01*
X92800035Y-68063223D01*
X92827222Y-68633454D01*
X92993136Y-69034005D01*
X93239255Y-69108139D01*
X94067395Y-68280000D01*
X94426605Y-68280000D01*
X95254745Y-69108139D01*
X95500864Y-69034005D01*
X95693965Y-68496777D01*
X95666778Y-67926546D01*
X95500864Y-67525995D01*
X95254745Y-67451861D01*
X94426605Y-68280000D01*
X94067395Y-68280000D01*
X93239255Y-67451861D01*
X92993136Y-67525995D01*
X92800035Y-68063223D01*
X89806890Y-68063223D01*
X89895809Y-68003809D01*
X90036157Y-67793765D01*
X90085440Y-67546000D01*
X90085440Y-66046000D01*
X90036157Y-65798235D01*
X89895809Y-65588191D01*
X89685765Y-65447843D01*
X89438000Y-65398560D01*
X88388000Y-65398560D01*
X88140235Y-65447843D01*
X88094867Y-65478157D01*
X87643000Y-65388275D01*
X87190392Y-65478305D01*
X87008001Y-65600175D01*
X86825609Y-65478305D01*
X86373000Y-65388275D01*
X85920392Y-65478305D01*
X85536688Y-65734687D01*
X85280305Y-66118391D01*
X85213000Y-66456754D01*
X82582480Y-66456754D01*
X82728000Y-66105439D01*
X82728000Y-65534561D01*
X82509534Y-65007138D01*
X82482396Y-64980000D01*
X92799560Y-64980000D01*
X92799560Y-66580000D01*
X92848843Y-66827765D01*
X92989191Y-67037809D01*
X93199235Y-67178157D01*
X93433187Y-67224693D01*
X93418861Y-67272255D01*
X94247000Y-68100395D01*
X95075139Y-67272255D01*
X95060813Y-67224693D01*
X95294765Y-67178157D01*
X95504809Y-67037809D01*
X95645157Y-66827765D01*
X95694440Y-66580000D01*
X95694440Y-64980000D01*
X95645157Y-64732235D01*
X95504809Y-64522191D01*
X95294765Y-64381843D01*
X95047000Y-64332560D01*
X93447000Y-64332560D01*
X93199235Y-64381843D01*
X92989191Y-64522191D01*
X92848843Y-64732235D01*
X92799560Y-64980000D01*
X82482396Y-64980000D01*
X82105862Y-64603466D01*
X81578439Y-64385000D01*
X81007561Y-64385000D01*
X80480138Y-64603466D01*
X80362604Y-64721000D01*
X63214372Y-64721000D01*
X63173862Y-64623201D01*
X62685799Y-64135138D01*
X62048113Y-63871000D01*
X61357887Y-63871000D01*
X60720201Y-64135138D01*
X60232138Y-64623201D01*
X59968000Y-65260887D01*
X59968000Y-65951113D01*
X60232138Y-66588799D01*
X60720201Y-67076862D01*
X61357887Y-67341000D01*
X62048113Y-67341000D01*
X62476094Y-67163724D01*
X62547569Y-67336280D01*
X62665000Y-67453711D01*
X62665001Y-89835197D01*
X62450199Y-90050000D01*
X52538852Y-90050000D01*
X52464000Y-90035111D01*
X52389148Y-90050000D01*
X52167463Y-90094096D01*
X51916071Y-90262071D01*
X51748096Y-90513463D01*
X51689111Y-90810000D01*
X51704000Y-90884852D01*
X51704000Y-91356289D01*
X51586569Y-91473720D01*
X51429000Y-91854126D01*
X35109354Y-91854126D01*
X35588191Y-91336123D01*
X35917051Y-90651273D01*
X36030000Y-89900000D01*
X36029685Y-89859868D01*
X35904949Y-89110462D01*
X35809345Y-88919126D01*
X45090000Y-88919126D01*
X45090000Y-89330874D01*
X45247569Y-89711280D01*
X45538720Y-90002431D01*
X45919126Y-90160000D01*
X46330874Y-90160000D01*
X46711280Y-90002431D01*
X47002431Y-89711280D01*
X47160000Y-89330874D01*
X47160000Y-88919126D01*
X47010000Y-88556993D01*
X47010000Y-75991578D01*
X51256579Y-71745000D01*
X54504479Y-71745000D01*
X54604423Y-71894577D01*
X55079091Y-72211740D01*
X55497667Y-72295000D01*
X55780333Y-72295000D01*
X56198909Y-72211740D01*
X56673577Y-71894577D01*
X56990740Y-71419909D01*
X57076851Y-70987002D01*
X57163084Y-70987002D01*
X57041096Y-71209039D01*
X57201959Y-71597423D01*
X57577866Y-72012389D01*
X58083959Y-72251914D01*
X58306000Y-72130629D01*
X58306000Y-70987000D01*
X58560000Y-70987000D01*
X58560000Y-72130629D01*
X58782041Y-72251914D01*
X59288134Y-72012389D01*
X59664041Y-71597423D01*
X59824904Y-71209039D01*
X59702915Y-70987000D01*
X58560000Y-70987000D01*
X58306000Y-70987000D01*
X58286000Y-70987000D01*
X58286000Y-70733000D01*
X58306000Y-70733000D01*
X58306000Y-69589371D01*
X58560000Y-69589371D01*
X58560000Y-70733000D01*
X59702915Y-70733000D01*
X59824904Y-70510961D01*
X59664041Y-70122577D01*
X59288134Y-69707611D01*
X58782041Y-69468086D01*
X58560000Y-69589371D01*
X58306000Y-69589371D01*
X58083959Y-69468086D01*
X57577866Y-69707611D01*
X57201959Y-70122577D01*
X57041096Y-70510961D01*
X57163084Y-70732998D01*
X57076851Y-70732998D01*
X56990740Y-70300091D01*
X56673577Y-69825423D01*
X56198909Y-69508260D01*
X55780333Y-69425000D01*
X55497667Y-69425000D01*
X55079091Y-69508260D01*
X54604423Y-69825423D01*
X54504479Y-69975000D01*
X50977161Y-69975000D01*
X50890000Y-69957663D01*
X50802839Y-69975000D01*
X50802835Y-69975000D01*
X50544690Y-70026348D01*
X50325845Y-70172576D01*
X50325844Y-70172577D01*
X50251951Y-70221951D01*
X50202577Y-70295844D01*
X45560847Y-74937575D01*
X45486951Y-74986951D01*
X45291348Y-75279691D01*
X45240000Y-75537836D01*
X45240000Y-75537839D01*
X45222663Y-75625000D01*
X45240000Y-75712161D01*
X45240001Y-88556991D01*
X45090000Y-88919126D01*
X35809345Y-88919126D01*
X35565373Y-88430862D01*
X35040978Y-87881154D01*
X34378128Y-87509941D01*
X33635430Y-87350042D01*
X32878547Y-87415595D01*
X32174399Y-87700804D01*
X31585243Y-88180453D01*
X31163167Y-88812134D01*
X30945490Y-89539997D01*
X29210000Y-89539997D01*
X29210000Y-70574561D01*
X44044000Y-70574561D01*
X44044000Y-71145439D01*
X44262466Y-71672862D01*
X44666138Y-72076534D01*
X45193561Y-72295000D01*
X45764439Y-72295000D01*
X46291862Y-72076534D01*
X46695534Y-71672862D01*
X46914000Y-71145439D01*
X46914000Y-70574561D01*
X46695534Y-70047138D01*
X46291862Y-69643466D01*
X45764439Y-69425000D01*
X45193561Y-69425000D01*
X44666138Y-69643466D01*
X44262466Y-70047138D01*
X44044000Y-70574561D01*
X29210000Y-70574561D01*
X29210000Y-67047035D01*
X59675292Y-66977000D01*
X59723870Y-66967221D01*
X59765009Y-66939596D01*
X59792444Y-66898331D01*
X59802000Y-66850000D01*
X59802000Y-58560000D01*
X63464263Y-58560000D01*
X63473000Y-64125199D01*
X63473000Y-64125199D01*
G37*
X63473000Y-64125199D02*
X63482744Y-64173785D01*
X63510339Y-64214943D01*
X63551583Y-64242409D01*
X63599916Y-64252000D01*
X97740001Y-64274505D01*
X97740001Y-94165000D01*
X29210000Y-94165000D01*
X29210000Y-89539997D01*
X30945490Y-89539997D01*
X30951456Y-90299690D01*
X31180540Y-91024045D01*
X31612485Y-91649018D01*
X32209103Y-92119354D01*
X32917644Y-92393467D01*
X33675463Y-92447124D01*
X34415558Y-92275579D01*
X35072495Y-91894000D01*
X35109354Y-91854126D01*
X51429000Y-91854126D01*
X51429000Y-92265874D01*
X51586569Y-92646280D01*
X51877720Y-92937431D01*
X52258126Y-93095000D01*
X52669874Y-93095000D01*
X53050280Y-92937431D01*
X53341431Y-92646280D01*
X53499000Y-92265874D01*
X53499000Y-91854126D01*
X53381311Y-91570000D01*
X62690153Y-91570000D01*
X62765000Y-91584888D01*
X62839847Y-91570000D01*
X62839852Y-91570000D01*
X63044802Y-91529233D01*
X63072569Y-91596269D01*
X63363720Y-91887420D01*
X63744126Y-92044989D01*
X64155874Y-92044989D01*
X64536280Y-91887420D01*
X64827431Y-91596269D01*
X64985000Y-91215863D01*
X64985000Y-90804115D01*
X64827431Y-90423709D01*
X64710000Y-90306278D01*
X64710000Y-84068000D01*
X66316908Y-84068000D01*
X66432161Y-84647418D01*
X66760375Y-85138625D01*
X67058761Y-85338000D01*
X66760375Y-85537375D01*
X66432161Y-86028582D01*
X66316908Y-86608000D01*
X66432161Y-87187418D01*
X66760375Y-87678625D01*
X67058761Y-87878000D01*
X66760375Y-88077375D01*
X66432161Y-88568582D01*
X66316908Y-89148000D01*
X66432161Y-89727418D01*
X66760375Y-90218625D01*
X66778619Y-90230816D01*
X66733235Y-90239843D01*
X66523191Y-90380191D01*
X66382843Y-90590235D01*
X66333560Y-90838000D01*
X66333560Y-92538000D01*
X66382843Y-92785765D01*
X66523191Y-92995809D01*
X66733235Y-93136157D01*
X66981000Y-93185440D01*
X68681000Y-93185440D01*
X68928765Y-93136157D01*
X69138809Y-92995809D01*
X69279157Y-92785765D01*
X69300961Y-92676145D01*
X69489642Y-92883183D01*
X70014108Y-93129486D01*
X70244000Y-93008819D01*
X70244000Y-91815000D01*
X70498000Y-91815000D01*
X70498000Y-93008819D01*
X70727892Y-93129486D01*
X71252358Y-92883183D01*
X71642645Y-92454924D01*
X71754547Y-92184750D01*
X73101500Y-92184750D01*
X73101500Y-92715250D01*
X73304513Y-93205367D01*
X73679633Y-93580487D01*
X74169750Y-93783500D01*
X74700250Y-93783500D01*
X75190367Y-93580487D01*
X75386666Y-93384188D01*
X78760417Y-93384188D01*
X78822071Y-93619800D01*
X79322480Y-93795927D01*
X79852199Y-93767148D01*
X80207929Y-93619800D01*
X80269583Y-93384188D01*
X79515000Y-92629605D01*
X78760417Y-93384188D01*
X75386666Y-93384188D01*
X75565487Y-93205367D01*
X75768500Y-92715250D01*
X75768500Y-92257480D01*
X78169073Y-92257480D01*
X78197852Y-92787199D01*
X78345200Y-93142929D01*
X78580812Y-93204583D01*
X79335395Y-92450000D01*
X79694605Y-92450000D01*
X80449188Y-93204583D01*
X80684800Y-93142929D01*
X80860927Y-92642520D01*
X80836057Y-92184750D01*
X81991500Y-92184750D01*
X81991500Y-92715250D01*
X82194513Y-93205367D01*
X82569633Y-93580487D01*
X83059750Y-93783500D01*
X83590250Y-93783500D01*
X84080367Y-93580487D01*
X84276666Y-93384188D01*
X87650417Y-93384188D01*
X87712071Y-93619800D01*
X88212480Y-93795927D01*
X88742199Y-93767148D01*
X89097929Y-93619800D01*
X89159583Y-93384188D01*
X88405000Y-92629605D01*
X87650417Y-93384188D01*
X84276666Y-93384188D01*
X84455487Y-93205367D01*
X84658500Y-92715250D01*
X84658500Y-92257480D01*
X87059073Y-92257480D01*
X87087852Y-92787199D01*
X87235200Y-93142929D01*
X87470812Y-93204583D01*
X88225395Y-92450000D01*
X88584605Y-92450000D01*
X89339188Y-93204583D01*
X89574800Y-93142929D01*
X89750927Y-92642520D01*
X89722148Y-92112801D01*
X89574800Y-91757071D01*
X89339188Y-91695417D01*
X88584605Y-92450000D01*
X88225395Y-92450000D01*
X87470812Y-91695417D01*
X87235200Y-91757071D01*
X87059073Y-92257480D01*
X84658500Y-92257480D01*
X84658500Y-92184750D01*
X84455487Y-91694633D01*
X84276666Y-91515812D01*
X87650417Y-91515812D01*
X88405000Y-92270395D01*
X89159583Y-91515812D01*
X89097929Y-91280200D01*
X88597520Y-91104073D01*
X88067801Y-91132852D01*
X87712071Y-91280200D01*
X87650417Y-91515812D01*
X84276666Y-91515812D01*
X84080367Y-91319513D01*
X83590250Y-91116500D01*
X83059750Y-91116500D01*
X82569633Y-91319513D01*
X82194513Y-91694633D01*
X81991500Y-92184750D01*
X80836057Y-92184750D01*
X80832148Y-92112801D01*
X80684800Y-91757071D01*
X80449188Y-91695417D01*
X79694605Y-92450000D01*
X79335395Y-92450000D01*
X78580812Y-91695417D01*
X78345200Y-91757071D01*
X78169073Y-92257480D01*
X75768500Y-92257480D01*
X75768500Y-92184750D01*
X75565487Y-91694633D01*
X75386666Y-91515812D01*
X78760417Y-91515812D01*
X79515000Y-92270395D01*
X80269583Y-91515812D01*
X80207929Y-91280200D01*
X79707520Y-91104073D01*
X79177801Y-91132852D01*
X78822071Y-91280200D01*
X78760417Y-91515812D01*
X75386666Y-91515812D01*
X75190367Y-91319513D01*
X74700250Y-91116500D01*
X74169750Y-91116500D01*
X73679633Y-91319513D01*
X73304513Y-91694633D01*
X73101500Y-92184750D01*
X71754547Y-92184750D01*
X71812476Y-92044890D01*
X71691155Y-91815000D01*
X70498000Y-91815000D01*
X70244000Y-91815000D01*
X70224000Y-91815000D01*
X70224000Y-91561000D01*
X70244000Y-91561000D01*
X70244000Y-89275000D01*
X70498000Y-89275000D01*
X70498000Y-91561000D01*
X71691155Y-91561000D01*
X71812476Y-91331110D01*
X71642645Y-90921076D01*
X71252358Y-90492817D01*
X71093046Y-90418000D01*
X71252358Y-90343183D01*
X71642645Y-89914924D01*
X71797935Y-89539997D01*
X90945490Y-89539997D01*
X90951456Y-90299690D01*
X91180540Y-91024045D01*
X91612485Y-91649018D01*
X92209103Y-92119354D01*
X92917644Y-92393467D01*
X93675463Y-92447124D01*
X94415558Y-92275579D01*
X95072495Y-91894000D01*
X95588191Y-91336123D01*
X95917051Y-90651273D01*
X96030000Y-89900000D01*
X96029685Y-89859868D01*
X95904949Y-89110462D01*
X95565373Y-88430862D01*
X95040978Y-87881154D01*
X94378128Y-87509941D01*
X93635430Y-87350042D01*
X92878547Y-87415595D01*
X92174399Y-87700804D01*
X91585243Y-88180453D01*
X91163167Y-88812134D01*
X90945490Y-89539997D01*
X71797935Y-89539997D01*
X71812476Y-89504890D01*
X71691155Y-89275000D01*
X70498000Y-89275000D01*
X70244000Y-89275000D01*
X70224000Y-89275000D01*
X70224000Y-89021000D01*
X70244000Y-89021000D01*
X70244000Y-89001000D01*
X70498000Y-89001000D01*
X70498000Y-89021000D01*
X71691155Y-89021000D01*
X71812476Y-88791110D01*
X71642645Y-88381076D01*
X71252358Y-87952817D01*
X71122522Y-87891843D01*
X71441625Y-87678625D01*
X71769839Y-87187418D01*
X71885092Y-86608000D01*
X71769839Y-86028582D01*
X71441625Y-85537375D01*
X71143239Y-85338000D01*
X71441625Y-85138625D01*
X71769839Y-84647418D01*
X71786282Y-84564750D01*
X73101500Y-84564750D01*
X73101500Y-85095250D01*
X73304513Y-85585367D01*
X73679633Y-85960487D01*
X74169750Y-86163500D01*
X74700250Y-86163500D01*
X75190367Y-85960487D01*
X75386666Y-85764188D01*
X78760417Y-85764188D01*
X78822071Y-85999800D01*
X79322480Y-86175927D01*
X79852199Y-86147148D01*
X80207929Y-85999800D01*
X80269583Y-85764188D01*
X79515000Y-85009605D01*
X78760417Y-85764188D01*
X75386666Y-85764188D01*
X75565487Y-85585367D01*
X75768500Y-85095250D01*
X75768500Y-84637480D01*
X78169073Y-84637480D01*
X78197852Y-85167199D01*
X78345200Y-85522929D01*
X78580812Y-85584583D01*
X79335395Y-84830000D01*
X79694605Y-84830000D01*
X80449188Y-85584583D01*
X80684800Y-85522929D01*
X80860927Y-85022520D01*
X80836057Y-84564750D01*
X81991500Y-84564750D01*
X81991500Y-85095250D01*
X82194513Y-85585367D01*
X82569633Y-85960487D01*
X83059750Y-86163500D01*
X83590250Y-86163500D01*
X84080367Y-85960487D01*
X84276666Y-85764188D01*
X87650417Y-85764188D01*
X87712071Y-85999800D01*
X88212480Y-86175927D01*
X88742199Y-86147148D01*
X89097929Y-85999800D01*
X89159583Y-85764188D01*
X88405000Y-85009605D01*
X87650417Y-85764188D01*
X84276666Y-85764188D01*
X84455487Y-85585367D01*
X84658500Y-85095250D01*
X84658500Y-84637480D01*
X87059073Y-84637480D01*
X87087852Y-85167199D01*
X87235200Y-85522929D01*
X87470812Y-85584583D01*
X88225395Y-84830000D01*
X88584605Y-84830000D01*
X89339188Y-85584583D01*
X89574800Y-85522929D01*
X89750927Y-85022520D01*
X89722148Y-84492801D01*
X89574800Y-84137071D01*
X89339188Y-84075417D01*
X88584605Y-84830000D01*
X88225395Y-84830000D01*
X87470812Y-84075417D01*
X87235200Y-84137071D01*
X87059073Y-84637480D01*
X84658500Y-84637480D01*
X84658500Y-84564750D01*
X84455487Y-84074633D01*
X84276666Y-83895812D01*
X87650417Y-83895812D01*
X88405000Y-84650395D01*
X89159583Y-83895812D01*
X89097929Y-83660200D01*
X88597520Y-83484073D01*
X88067801Y-83512852D01*
X87712071Y-83660200D01*
X87650417Y-83895812D01*
X84276666Y-83895812D01*
X84080367Y-83699513D01*
X83590250Y-83496500D01*
X83059750Y-83496500D01*
X82569633Y-83699513D01*
X82194513Y-84074633D01*
X81991500Y-84564750D01*
X80836057Y-84564750D01*
X80832148Y-84492801D01*
X80684800Y-84137071D01*
X80449188Y-84075417D01*
X79694605Y-84830000D01*
X79335395Y-84830000D01*
X78580812Y-84075417D01*
X78345200Y-84137071D01*
X78169073Y-84637480D01*
X75768500Y-84637480D01*
X75768500Y-84564750D01*
X75565487Y-84074633D01*
X75386666Y-83895812D01*
X78760417Y-83895812D01*
X79515000Y-84650395D01*
X80269583Y-83895812D01*
X80207929Y-83660200D01*
X79707520Y-83484073D01*
X79177801Y-83512852D01*
X78822071Y-83660200D01*
X78760417Y-83895812D01*
X75386666Y-83895812D01*
X75190367Y-83699513D01*
X74700250Y-83496500D01*
X74169750Y-83496500D01*
X73679633Y-83699513D01*
X73304513Y-84074633D01*
X73101500Y-84564750D01*
X71786282Y-84564750D01*
X71885092Y-84068000D01*
X71844823Y-83865555D01*
X71859048Y-83856050D01*
X71936616Y-83739962D01*
X74985156Y-80691423D01*
X75059049Y-80642049D01*
X75254652Y-80349310D01*
X75306000Y-80091165D01*
X75306000Y-80091161D01*
X75323337Y-80004000D01*
X75306000Y-79916839D01*
X75306000Y-75644007D01*
X75456000Y-75281874D01*
X75456000Y-74870126D01*
X75686000Y-74870126D01*
X75686000Y-75281874D01*
X75836001Y-75644009D01*
X75836000Y-80807993D01*
X75686000Y-81170126D01*
X75686000Y-81581874D01*
X75843569Y-81962280D01*
X76134720Y-82253431D01*
X76515126Y-82411000D01*
X76926874Y-82411000D01*
X77307280Y-82253431D01*
X77598431Y-81962280D01*
X77756000Y-81581874D01*
X77756000Y-81170126D01*
X77660912Y-80940561D01*
X85700000Y-80940561D01*
X85700000Y-81511439D01*
X85918466Y-82038862D01*
X86322138Y-82442534D01*
X86849561Y-82661000D01*
X87420439Y-82661000D01*
X87947862Y-82442534D01*
X88351534Y-82038862D01*
X88570000Y-81511439D01*
X88570000Y-80940561D01*
X88351534Y-80413138D01*
X87947862Y-80009466D01*
X87420439Y-79791000D01*
X86849561Y-79791000D01*
X86322138Y-80009466D01*
X85918466Y-80413138D01*
X85700000Y-80940561D01*
X77660912Y-80940561D01*
X77606000Y-80807993D01*
X77606000Y-77940561D01*
X85700000Y-77940561D01*
X85700000Y-78511439D01*
X85918466Y-79038862D01*
X86322138Y-79442534D01*
X86849561Y-79661000D01*
X87420439Y-79661000D01*
X87947862Y-79442534D01*
X88351534Y-79038862D01*
X88570000Y-78511439D01*
X88570000Y-77940561D01*
X88351534Y-77413138D01*
X87947862Y-77009466D01*
X87420439Y-76791000D01*
X86849561Y-76791000D01*
X86322138Y-77009466D01*
X85918466Y-77413138D01*
X85700000Y-77940561D01*
X77606000Y-77940561D01*
X77606000Y-75644007D01*
X77756000Y-75281874D01*
X77756000Y-74870126D01*
X77598431Y-74489720D01*
X77307280Y-74198569D01*
X76926874Y-74041000D01*
X76515126Y-74041000D01*
X76134720Y-74198569D01*
X75843569Y-74489720D01*
X75686000Y-74870126D01*
X75456000Y-74870126D01*
X75298431Y-74489720D01*
X75007280Y-74198569D01*
X74626874Y-74041000D01*
X74215126Y-74041000D01*
X73834720Y-74198569D01*
X73543569Y-74489720D01*
X73386000Y-74870126D01*
X73386000Y-75281874D01*
X73536001Y-75644009D01*
X73536000Y-79637421D01*
X70656845Y-82516577D01*
X70582950Y-82565952D01*
X70565188Y-82592534D01*
X70517256Y-82583000D01*
X70224744Y-82583000D01*
X69791582Y-82669161D01*
X69300375Y-82997375D01*
X69101000Y-83295761D01*
X68901625Y-82997375D01*
X68410418Y-82669161D01*
X67977256Y-82583000D01*
X67684744Y-82583000D01*
X67251582Y-82669161D01*
X66760375Y-82997375D01*
X66432161Y-83488582D01*
X66316908Y-84068000D01*
X64710000Y-84068000D01*
X64710000Y-74039801D01*
X65564802Y-73185000D01*
X73517153Y-73185000D01*
X73592000Y-73199888D01*
X73666847Y-73185000D01*
X73666852Y-73185000D01*
X73888537Y-73140904D01*
X74139929Y-72972929D01*
X74182331Y-72909470D01*
X75580698Y-71511103D01*
X75633561Y-71533000D01*
X76204439Y-71533000D01*
X76731862Y-71314534D01*
X77135534Y-70910862D01*
X77354000Y-70383439D01*
X77354000Y-69812561D01*
X77135534Y-69285138D01*
X76731862Y-68881466D01*
X76204439Y-68663000D01*
X75633561Y-68663000D01*
X75106138Y-68881466D01*
X74842845Y-69144759D01*
X74757327Y-68938301D01*
X74578698Y-68759673D01*
X74345309Y-68663000D01*
X73704750Y-68663000D01*
X73546000Y-68821750D01*
X73546000Y-69971000D01*
X73566000Y-69971000D01*
X73566000Y-70225000D01*
X73546000Y-70225000D01*
X73546000Y-70245000D01*
X73292000Y-70245000D01*
X73292000Y-70225000D01*
X72142750Y-70225000D01*
X71984000Y-70383750D01*
X71984000Y-71024310D01*
X72080673Y-71257699D01*
X72259302Y-71436327D01*
X72492691Y-71533000D01*
X73133250Y-71533000D01*
X73291998Y-71374252D01*
X73291998Y-71533000D01*
X73409199Y-71533000D01*
X73277199Y-71665000D01*
X69812791Y-71665000D01*
X70028000Y-71145439D01*
X70028000Y-70574561D01*
X69809534Y-70047138D01*
X69405862Y-69643466D01*
X68878439Y-69425000D01*
X68307561Y-69425000D01*
X67780138Y-69643466D01*
X67376466Y-70047138D01*
X67158000Y-70574561D01*
X67158000Y-71145439D01*
X67373209Y-71665000D01*
X65324848Y-71665000D01*
X65282195Y-71656516D01*
X65477431Y-71461280D01*
X65635000Y-71080874D01*
X65635000Y-70669126D01*
X65485000Y-70306993D01*
X65485000Y-69171690D01*
X71984000Y-69171690D01*
X71984000Y-69812250D01*
X72142750Y-69971000D01*
X73292000Y-69971000D01*
X73292000Y-68821750D01*
X73133250Y-68663000D01*
X72492691Y-68663000D01*
X72259302Y-68759673D01*
X72080673Y-68938301D01*
X71984000Y-69171690D01*
X65485000Y-69171690D01*
X65485000Y-68605750D01*
X79858000Y-68605750D01*
X79858000Y-69246309D01*
X79954673Y-69479698D01*
X80133301Y-69658327D01*
X80366690Y-69755000D01*
X81007250Y-69755000D01*
X81166000Y-69596250D01*
X81166000Y-68447000D01*
X81420000Y-68447000D01*
X81420000Y-69596250D01*
X81578750Y-69755000D01*
X82219310Y-69755000D01*
X82452699Y-69658327D01*
X82631327Y-69479698D01*
X82710836Y-69287745D01*
X93418861Y-69287745D01*
X93492995Y-69533864D01*
X94030223Y-69726965D01*
X94600454Y-69699778D01*
X95001005Y-69533864D01*
X95075139Y-69287745D01*
X94247000Y-68459605D01*
X93418861Y-69287745D01*
X82710836Y-69287745D01*
X82728000Y-69246309D01*
X82728000Y-68605750D01*
X82569250Y-68447000D01*
X81420000Y-68447000D01*
X81166000Y-68447000D01*
X80016750Y-68447000D01*
X79858000Y-68605750D01*
X65485000Y-68605750D01*
X65485000Y-67293007D01*
X65635000Y-66930874D01*
X65635000Y-66519126D01*
X65623350Y-66491000D01*
X80017705Y-66491000D01*
X80076466Y-66632862D01*
X80339759Y-66896155D01*
X80133301Y-66981673D01*
X79954673Y-67160302D01*
X79858000Y-67393691D01*
X79858000Y-68034250D01*
X80016750Y-68193000D01*
X81166000Y-68193000D01*
X81166000Y-68173000D01*
X81420000Y-68173000D01*
X81420000Y-68193000D01*
X82569250Y-68193000D01*
X82728000Y-68034250D01*
X82728000Y-67393691D01*
X82631327Y-67160302D01*
X82452699Y-66981673D01*
X82246241Y-66896155D01*
X82509534Y-66632862D01*
X82582480Y-66456754D01*
X85213000Y-66456754D01*
X85213000Y-67135245D01*
X85280305Y-67473608D01*
X85536687Y-67857313D01*
X85920391Y-68113695D01*
X86373000Y-68203725D01*
X86825608Y-68113695D01*
X87008000Y-67991825D01*
X87190391Y-68113695D01*
X87643000Y-68203725D01*
X88094866Y-68113842D01*
X88140235Y-68144157D01*
X88388000Y-68193440D01*
X89438000Y-68193440D01*
X89685765Y-68144157D01*
X89806890Y-68063223D01*
X92800035Y-68063223D01*
X92827222Y-68633454D01*
X92993136Y-69034005D01*
X93239255Y-69108139D01*
X94067395Y-68280000D01*
X94426605Y-68280000D01*
X95254745Y-69108139D01*
X95500864Y-69034005D01*
X95693965Y-68496777D01*
X95666778Y-67926546D01*
X95500864Y-67525995D01*
X95254745Y-67451861D01*
X94426605Y-68280000D01*
X94067395Y-68280000D01*
X93239255Y-67451861D01*
X92993136Y-67525995D01*
X92800035Y-68063223D01*
X89806890Y-68063223D01*
X89895809Y-68003809D01*
X90036157Y-67793765D01*
X90085440Y-67546000D01*
X90085440Y-66046000D01*
X90036157Y-65798235D01*
X89895809Y-65588191D01*
X89685765Y-65447843D01*
X89438000Y-65398560D01*
X88388000Y-65398560D01*
X88140235Y-65447843D01*
X88094867Y-65478157D01*
X87643000Y-65388275D01*
X87190392Y-65478305D01*
X87008001Y-65600175D01*
X86825609Y-65478305D01*
X86373000Y-65388275D01*
X85920392Y-65478305D01*
X85536688Y-65734687D01*
X85280305Y-66118391D01*
X85213000Y-66456754D01*
X82582480Y-66456754D01*
X82728000Y-66105439D01*
X82728000Y-65534561D01*
X82509534Y-65007138D01*
X82482396Y-64980000D01*
X92799560Y-64980000D01*
X92799560Y-66580000D01*
X92848843Y-66827765D01*
X92989191Y-67037809D01*
X93199235Y-67178157D01*
X93433187Y-67224693D01*
X93418861Y-67272255D01*
X94247000Y-68100395D01*
X95075139Y-67272255D01*
X95060813Y-67224693D01*
X95294765Y-67178157D01*
X95504809Y-67037809D01*
X95645157Y-66827765D01*
X95694440Y-66580000D01*
X95694440Y-64980000D01*
X95645157Y-64732235D01*
X95504809Y-64522191D01*
X95294765Y-64381843D01*
X95047000Y-64332560D01*
X93447000Y-64332560D01*
X93199235Y-64381843D01*
X92989191Y-64522191D01*
X92848843Y-64732235D01*
X92799560Y-64980000D01*
X82482396Y-64980000D01*
X82105862Y-64603466D01*
X81578439Y-64385000D01*
X81007561Y-64385000D01*
X80480138Y-64603466D01*
X80362604Y-64721000D01*
X63214372Y-64721000D01*
X63173862Y-64623201D01*
X62685799Y-64135138D01*
X62048113Y-63871000D01*
X61357887Y-63871000D01*
X60720201Y-64135138D01*
X60232138Y-64623201D01*
X59968000Y-65260887D01*
X59968000Y-65951113D01*
X60232138Y-66588799D01*
X60720201Y-67076862D01*
X61357887Y-67341000D01*
X62048113Y-67341000D01*
X62476094Y-67163724D01*
X62547569Y-67336280D01*
X62665000Y-67453711D01*
X62665001Y-89835197D01*
X62450199Y-90050000D01*
X52538852Y-90050000D01*
X52464000Y-90035111D01*
X52389148Y-90050000D01*
X52167463Y-90094096D01*
X51916071Y-90262071D01*
X51748096Y-90513463D01*
X51689111Y-90810000D01*
X51704000Y-90884852D01*
X51704000Y-91356289D01*
X51586569Y-91473720D01*
X51429000Y-91854126D01*
X35109354Y-91854126D01*
X35588191Y-91336123D01*
X35917051Y-90651273D01*
X36030000Y-89900000D01*
X36029685Y-89859868D01*
X35904949Y-89110462D01*
X35809345Y-88919126D01*
X45090000Y-88919126D01*
X45090000Y-89330874D01*
X45247569Y-89711280D01*
X45538720Y-90002431D01*
X45919126Y-90160000D01*
X46330874Y-90160000D01*
X46711280Y-90002431D01*
X47002431Y-89711280D01*
X47160000Y-89330874D01*
X47160000Y-88919126D01*
X47010000Y-88556993D01*
X47010000Y-75991578D01*
X51256579Y-71745000D01*
X54504479Y-71745000D01*
X54604423Y-71894577D01*
X55079091Y-72211740D01*
X55497667Y-72295000D01*
X55780333Y-72295000D01*
X56198909Y-72211740D01*
X56673577Y-71894577D01*
X56990740Y-71419909D01*
X57076851Y-70987002D01*
X57163084Y-70987002D01*
X57041096Y-71209039D01*
X57201959Y-71597423D01*
X57577866Y-72012389D01*
X58083959Y-72251914D01*
X58306000Y-72130629D01*
X58306000Y-70987000D01*
X58560000Y-70987000D01*
X58560000Y-72130629D01*
X58782041Y-72251914D01*
X59288134Y-72012389D01*
X59664041Y-71597423D01*
X59824904Y-71209039D01*
X59702915Y-70987000D01*
X58560000Y-70987000D01*
X58306000Y-70987000D01*
X58286000Y-70987000D01*
X58286000Y-70733000D01*
X58306000Y-70733000D01*
X58306000Y-69589371D01*
X58560000Y-69589371D01*
X58560000Y-70733000D01*
X59702915Y-70733000D01*
X59824904Y-70510961D01*
X59664041Y-70122577D01*
X59288134Y-69707611D01*
X58782041Y-69468086D01*
X58560000Y-69589371D01*
X58306000Y-69589371D01*
X58083959Y-69468086D01*
X57577866Y-69707611D01*
X57201959Y-70122577D01*
X57041096Y-70510961D01*
X57163084Y-70732998D01*
X57076851Y-70732998D01*
X56990740Y-70300091D01*
X56673577Y-69825423D01*
X56198909Y-69508260D01*
X55780333Y-69425000D01*
X55497667Y-69425000D01*
X55079091Y-69508260D01*
X54604423Y-69825423D01*
X54504479Y-69975000D01*
X50977161Y-69975000D01*
X50890000Y-69957663D01*
X50802839Y-69975000D01*
X50802835Y-69975000D01*
X50544690Y-70026348D01*
X50325845Y-70172576D01*
X50325844Y-70172577D01*
X50251951Y-70221951D01*
X50202577Y-70295844D01*
X45560847Y-74937575D01*
X45486951Y-74986951D01*
X45291348Y-75279691D01*
X45240000Y-75537836D01*
X45240000Y-75537839D01*
X45222663Y-75625000D01*
X45240000Y-75712161D01*
X45240001Y-88556991D01*
X45090000Y-88919126D01*
X35809345Y-88919126D01*
X35565373Y-88430862D01*
X35040978Y-87881154D01*
X34378128Y-87509941D01*
X33635430Y-87350042D01*
X32878547Y-87415595D01*
X32174399Y-87700804D01*
X31585243Y-88180453D01*
X31163167Y-88812134D01*
X30945490Y-89539997D01*
X29210000Y-89539997D01*
X29210000Y-70574561D01*
X44044000Y-70574561D01*
X44044000Y-71145439D01*
X44262466Y-71672862D01*
X44666138Y-72076534D01*
X45193561Y-72295000D01*
X45764439Y-72295000D01*
X46291862Y-72076534D01*
X46695534Y-71672862D01*
X46914000Y-71145439D01*
X46914000Y-70574561D01*
X46695534Y-70047138D01*
X46291862Y-69643466D01*
X45764439Y-69425000D01*
X45193561Y-69425000D01*
X44666138Y-69643466D01*
X44262466Y-70047138D01*
X44044000Y-70574561D01*
X29210000Y-70574561D01*
X29210000Y-67047035D01*
X59675292Y-66977000D01*
X59723870Y-66967221D01*
X59765009Y-66939596D01*
X59792444Y-66898331D01*
X59802000Y-66850000D01*
X59802000Y-58560000D01*
X63464263Y-58560000D01*
X63473000Y-64125199D01*
G36*
X63460700Y-56290000D02*
X59802000Y-56290000D01*
X59802000Y-51430868D01*
X60657737Y-51430868D01*
X60768641Y-51708099D01*
X61414593Y-51951323D01*
X62104453Y-51928836D01*
X62637359Y-51708099D01*
X62748263Y-51430868D01*
X61703000Y-50385605D01*
X60657737Y-51430868D01*
X59802000Y-51430868D01*
X59802000Y-49917593D01*
X59957677Y-49917593D01*
X59980164Y-50607453D01*
X60200901Y-51140359D01*
X60478132Y-51251263D01*
X61523395Y-50206000D01*
X61882605Y-50206000D01*
X62927868Y-51251263D01*
X63205099Y-51140359D01*
X63448323Y-50494407D01*
X63425836Y-49804547D01*
X63205099Y-49271641D01*
X62927868Y-49160737D01*
X61882605Y-50206000D01*
X61523395Y-50206000D01*
X60478132Y-49160737D01*
X60200901Y-49271641D01*
X59957677Y-49917593D01*
X59802000Y-49917593D01*
X59802000Y-48981132D01*
X60657737Y-48981132D01*
X61703000Y-50026395D01*
X62748263Y-48981132D01*
X62637359Y-48703901D01*
X61991407Y-48460677D01*
X61301547Y-48483164D01*
X60768641Y-48703901D01*
X60657737Y-48981132D01*
X59802000Y-48981132D01*
X59802000Y-48351188D01*
X63448200Y-48327815D01*
X63460700Y-56290000D01*
X63460700Y-56290000D01*
G37*
X63460700Y-56290000D02*
X59802000Y-56290000D01*
X59802000Y-51430868D01*
X60657737Y-51430868D01*
X60768641Y-51708099D01*
X61414593Y-51951323D01*
X62104453Y-51928836D01*
X62637359Y-51708099D01*
X62748263Y-51430868D01*
X61703000Y-50385605D01*
X60657737Y-51430868D01*
X59802000Y-51430868D01*
X59802000Y-49917593D01*
X59957677Y-49917593D01*
X59980164Y-50607453D01*
X60200901Y-51140359D01*
X60478132Y-51251263D01*
X61523395Y-50206000D01*
X61882605Y-50206000D01*
X62927868Y-51251263D01*
X63205099Y-51140359D01*
X63448323Y-50494407D01*
X63425836Y-49804547D01*
X63205099Y-49271641D01*
X62927868Y-49160737D01*
X61882605Y-50206000D01*
X61523395Y-50206000D01*
X60478132Y-49160737D01*
X60200901Y-49271641D01*
X59957677Y-49917593D01*
X59802000Y-49917593D01*
X59802000Y-48981132D01*
X60657737Y-48981132D01*
X61703000Y-50026395D01*
X62748263Y-48981132D01*
X62637359Y-48703901D01*
X61991407Y-48460677D01*
X61301547Y-48483164D01*
X60768641Y-48703901D01*
X60657737Y-48981132D01*
X59802000Y-48981132D01*
X59802000Y-48351188D01*
X63448200Y-48327815D01*
X63460700Y-56290000D01*
G04 #@! TD*
M02*
