G04 #@! TF.GenerationSoftware,KiCad,Pcbnew,5.0.2+dfsg1-1*
G04 #@! TF.CreationDate,2019-08-06T01:46:57+02:00*
G04 #@! TF.ProjectId,ceiling-light-dimmable,6365696c-696e-4672-9d6c-696768742d64,v1.1.0*
G04 #@! TF.SameCoordinates,Original*
G04 #@! TF.FileFunction,Soldermask,Top*
G04 #@! TF.FilePolarity,Negative*
%FSLAX46Y46*%
G04 Gerber Fmt 4.6, Leading zero omitted, Abs format (unit mm)*
G04 Created by KiCad (PCBNEW 5.0.2+dfsg1-1) date Tue 06 Aug 2019 01:46:57 AM CEST*
%MOMM*%
%LPD*%
G01*
G04 APERTURE LIST*
%ADD10C,0.100000*%
G04 APERTURE END LIST*
D10*
G36*
X88608745Y-91778342D02*
X88735863Y-91830996D01*
X88850271Y-91907441D01*
X88947559Y-92004729D01*
X89024004Y-92119137D01*
X89076658Y-92246255D01*
X89103500Y-92381202D01*
X89103500Y-92518798D01*
X89076658Y-92653745D01*
X89024004Y-92780863D01*
X88947559Y-92895271D01*
X88850271Y-92992559D01*
X88735863Y-93069004D01*
X88608745Y-93121658D01*
X88473798Y-93148500D01*
X88336202Y-93148500D01*
X88201255Y-93121658D01*
X88074137Y-93069004D01*
X87959729Y-92992559D01*
X87862441Y-92895271D01*
X87785996Y-92780863D01*
X87733342Y-92653745D01*
X87706500Y-92518798D01*
X87706500Y-92381202D01*
X87733342Y-92246255D01*
X87785996Y-92119137D01*
X87862441Y-92004729D01*
X87959729Y-91907441D01*
X88074137Y-91830996D01*
X88201255Y-91778342D01*
X88336202Y-91751500D01*
X88473798Y-91751500D01*
X88608745Y-91778342D01*
X88608745Y-91778342D01*
G37*
G36*
X83528745Y-91778342D02*
X83655863Y-91830996D01*
X83770271Y-91907441D01*
X83867559Y-92004729D01*
X83944004Y-92119137D01*
X83996658Y-92246255D01*
X84023500Y-92381202D01*
X84023500Y-92518798D01*
X83996658Y-92653745D01*
X83944004Y-92780863D01*
X83867559Y-92895271D01*
X83770271Y-92992559D01*
X83655863Y-93069004D01*
X83528745Y-93121658D01*
X83393798Y-93148500D01*
X83256202Y-93148500D01*
X83121255Y-93121658D01*
X82994137Y-93069004D01*
X82879729Y-92992559D01*
X82782441Y-92895271D01*
X82705996Y-92780863D01*
X82653342Y-92653745D01*
X82626500Y-92518798D01*
X82626500Y-92381202D01*
X82653342Y-92246255D01*
X82705996Y-92119137D01*
X82782441Y-92004729D01*
X82879729Y-91907441D01*
X82994137Y-91830996D01*
X83121255Y-91778342D01*
X83256202Y-91751500D01*
X83393798Y-91751500D01*
X83528745Y-91778342D01*
X83528745Y-91778342D01*
G37*
G36*
X74638745Y-91778342D02*
X74765863Y-91830996D01*
X74880271Y-91907441D01*
X74977559Y-92004729D01*
X75054004Y-92119137D01*
X75106658Y-92246255D01*
X75133500Y-92381202D01*
X75133500Y-92518798D01*
X75106658Y-92653745D01*
X75054004Y-92780863D01*
X74977559Y-92895271D01*
X74880271Y-92992559D01*
X74765863Y-93069004D01*
X74638745Y-93121658D01*
X74503798Y-93148500D01*
X74366202Y-93148500D01*
X74231255Y-93121658D01*
X74104137Y-93069004D01*
X73989729Y-92992559D01*
X73892441Y-92895271D01*
X73815996Y-92780863D01*
X73763342Y-92653745D01*
X73736500Y-92518798D01*
X73736500Y-92381202D01*
X73763342Y-92246255D01*
X73815996Y-92119137D01*
X73892441Y-92004729D01*
X73989729Y-91907441D01*
X74104137Y-91830996D01*
X74231255Y-91778342D01*
X74366202Y-91751500D01*
X74503798Y-91751500D01*
X74638745Y-91778342D01*
X74638745Y-91778342D01*
G37*
G36*
X79718745Y-91778342D02*
X79845863Y-91830996D01*
X79960271Y-91907441D01*
X80057559Y-92004729D01*
X80134004Y-92119137D01*
X80186658Y-92246255D01*
X80213500Y-92381202D01*
X80213500Y-92518798D01*
X80186658Y-92653745D01*
X80134004Y-92780863D01*
X80057559Y-92895271D01*
X79960271Y-92992559D01*
X79845863Y-93069004D01*
X79718745Y-93121658D01*
X79583798Y-93148500D01*
X79446202Y-93148500D01*
X79311255Y-93121658D01*
X79184137Y-93069004D01*
X79069729Y-92992559D01*
X78972441Y-92895271D01*
X78895996Y-92780863D01*
X78843342Y-92653745D01*
X78816500Y-92518798D01*
X78816500Y-92381202D01*
X78843342Y-92246255D01*
X78895996Y-92119137D01*
X78972441Y-92004729D01*
X79069729Y-91907441D01*
X79184137Y-91830996D01*
X79311255Y-91778342D01*
X79446202Y-91751500D01*
X79583798Y-91751500D01*
X79718745Y-91778342D01*
X79718745Y-91778342D01*
G37*
G36*
X51644000Y-93060000D02*
X50744000Y-93060000D01*
X50744000Y-91060000D01*
X51644000Y-91060000D01*
X51644000Y-93060000D01*
X51644000Y-93060000D01*
G37*
G36*
X56724000Y-93060000D02*
X55824000Y-93060000D01*
X55824000Y-91060000D01*
X56724000Y-91060000D01*
X56724000Y-93060000D01*
X56724000Y-93060000D01*
G37*
G36*
X55454000Y-93060000D02*
X54554000Y-93060000D01*
X54554000Y-91060000D01*
X55454000Y-91060000D01*
X55454000Y-93060000D01*
X55454000Y-93060000D01*
G37*
G36*
X54184000Y-93060000D02*
X53284000Y-93060000D01*
X53284000Y-91060000D01*
X54184000Y-91060000D01*
X54184000Y-93060000D01*
X54184000Y-93060000D01*
G37*
G36*
X52914000Y-93060000D02*
X52014000Y-93060000D01*
X52014000Y-91060000D01*
X52914000Y-91060000D01*
X52914000Y-93060000D01*
X52914000Y-93060000D01*
G37*
G36*
X50374000Y-93060000D02*
X49474000Y-93060000D01*
X49474000Y-91060000D01*
X50374000Y-91060000D01*
X50374000Y-93060000D01*
X50374000Y-93060000D01*
G37*
G36*
X59264000Y-93060000D02*
X58364000Y-93060000D01*
X58364000Y-91060000D01*
X59264000Y-91060000D01*
X59264000Y-93060000D01*
X59264000Y-93060000D01*
G37*
G36*
X49104000Y-93060000D02*
X48204000Y-93060000D01*
X48204000Y-91060000D01*
X49104000Y-91060000D01*
X49104000Y-93060000D01*
X49104000Y-93060000D01*
G37*
G36*
X47834000Y-93060000D02*
X46934000Y-93060000D01*
X46934000Y-91060000D01*
X47834000Y-91060000D01*
X47834000Y-93060000D01*
X47834000Y-93060000D01*
G37*
G36*
X46564000Y-93060000D02*
X45664000Y-93060000D01*
X45664000Y-91060000D01*
X46564000Y-91060000D01*
X46564000Y-93060000D01*
X46564000Y-93060000D01*
G37*
G36*
X45294000Y-93060000D02*
X44394000Y-93060000D01*
X44394000Y-91060000D01*
X45294000Y-91060000D01*
X45294000Y-93060000D01*
X45294000Y-93060000D01*
G37*
G36*
X60534000Y-93060000D02*
X59634000Y-93060000D01*
X59634000Y-91060000D01*
X60534000Y-91060000D01*
X60534000Y-93060000D01*
X60534000Y-93060000D01*
G37*
G36*
X61804000Y-93060000D02*
X60904000Y-93060000D01*
X60904000Y-91060000D01*
X61804000Y-91060000D01*
X61804000Y-93060000D01*
X61804000Y-93060000D01*
G37*
G36*
X57994000Y-93060000D02*
X57094000Y-93060000D01*
X57094000Y-91060000D01*
X57994000Y-91060000D01*
X57994000Y-93060000D01*
X57994000Y-93060000D01*
G37*
G36*
X70537630Y-90850299D02*
X70697855Y-90898903D01*
X70845520Y-90977831D01*
X70974949Y-91084051D01*
X71081169Y-91213480D01*
X71160097Y-91361145D01*
X71208701Y-91521370D01*
X71225112Y-91688000D01*
X71208701Y-91854630D01*
X71160097Y-92014855D01*
X71081169Y-92162520D01*
X70974949Y-92291949D01*
X70845520Y-92398169D01*
X70697855Y-92477097D01*
X70537630Y-92525701D01*
X70412752Y-92538000D01*
X70329248Y-92538000D01*
X70204370Y-92525701D01*
X70044145Y-92477097D01*
X69896480Y-92398169D01*
X69767051Y-92291949D01*
X69660831Y-92162520D01*
X69581903Y-92014855D01*
X69533299Y-91854630D01*
X69516888Y-91688000D01*
X69533299Y-91521370D01*
X69581903Y-91361145D01*
X69660831Y-91213480D01*
X69767051Y-91084051D01*
X69896480Y-90977831D01*
X70044145Y-90898903D01*
X70204370Y-90850299D01*
X70329248Y-90838000D01*
X70412752Y-90838000D01*
X70537630Y-90850299D01*
X70537630Y-90850299D01*
G37*
G36*
X68681000Y-92538000D02*
X66981000Y-92538000D01*
X66981000Y-90838000D01*
X68681000Y-90838000D01*
X68681000Y-92538000D01*
X68681000Y-92538000D01*
G37*
G36*
X67997630Y-88310299D02*
X68157855Y-88358903D01*
X68305520Y-88437831D01*
X68434949Y-88544051D01*
X68541169Y-88673480D01*
X68620097Y-88821145D01*
X68668701Y-88981370D01*
X68685112Y-89148000D01*
X68668701Y-89314630D01*
X68620097Y-89474855D01*
X68541169Y-89622520D01*
X68434949Y-89751949D01*
X68305520Y-89858169D01*
X68157855Y-89937097D01*
X67997630Y-89985701D01*
X67872752Y-89998000D01*
X67789248Y-89998000D01*
X67664370Y-89985701D01*
X67504145Y-89937097D01*
X67356480Y-89858169D01*
X67227051Y-89751949D01*
X67120831Y-89622520D01*
X67041903Y-89474855D01*
X66993299Y-89314630D01*
X66976888Y-89148000D01*
X66993299Y-88981370D01*
X67041903Y-88821145D01*
X67120831Y-88673480D01*
X67227051Y-88544051D01*
X67356480Y-88437831D01*
X67504145Y-88358903D01*
X67664370Y-88310299D01*
X67789248Y-88298000D01*
X67872752Y-88298000D01*
X67997630Y-88310299D01*
X67997630Y-88310299D01*
G37*
G36*
X70537630Y-88310299D02*
X70697855Y-88358903D01*
X70845520Y-88437831D01*
X70974949Y-88544051D01*
X71081169Y-88673480D01*
X71160097Y-88821145D01*
X71208701Y-88981370D01*
X71225112Y-89148000D01*
X71208701Y-89314630D01*
X71160097Y-89474855D01*
X71081169Y-89622520D01*
X70974949Y-89751949D01*
X70845520Y-89858169D01*
X70697855Y-89937097D01*
X70537630Y-89985701D01*
X70412752Y-89998000D01*
X70329248Y-89998000D01*
X70204370Y-89985701D01*
X70044145Y-89937097D01*
X69896480Y-89858169D01*
X69767051Y-89751949D01*
X69660831Y-89622520D01*
X69581903Y-89474855D01*
X69533299Y-89314630D01*
X69516888Y-89148000D01*
X69533299Y-88981370D01*
X69581903Y-88821145D01*
X69660831Y-88673480D01*
X69767051Y-88544051D01*
X69896480Y-88437831D01*
X70044145Y-88358903D01*
X70204370Y-88310299D01*
X70329248Y-88298000D01*
X70412752Y-88298000D01*
X70537630Y-88310299D01*
X70537630Y-88310299D01*
G37*
G36*
X63354000Y-89725000D02*
X61354000Y-89725000D01*
X61354000Y-88825000D01*
X63354000Y-88825000D01*
X63354000Y-89725000D01*
X63354000Y-89725000D01*
G37*
G36*
X63354000Y-88455000D02*
X61354000Y-88455000D01*
X61354000Y-87555000D01*
X63354000Y-87555000D01*
X63354000Y-88455000D01*
X63354000Y-88455000D01*
G37*
G36*
X67997630Y-85770299D02*
X68157855Y-85818903D01*
X68305520Y-85897831D01*
X68434949Y-86004051D01*
X68541169Y-86133480D01*
X68620097Y-86281145D01*
X68668701Y-86441370D01*
X68685112Y-86608000D01*
X68668701Y-86774630D01*
X68620097Y-86934855D01*
X68541169Y-87082520D01*
X68434949Y-87211949D01*
X68305520Y-87318169D01*
X68157855Y-87397097D01*
X67997630Y-87445701D01*
X67872752Y-87458000D01*
X67789248Y-87458000D01*
X67664370Y-87445701D01*
X67504145Y-87397097D01*
X67356480Y-87318169D01*
X67227051Y-87211949D01*
X67120831Y-87082520D01*
X67041903Y-86934855D01*
X66993299Y-86774630D01*
X66976888Y-86608000D01*
X66993299Y-86441370D01*
X67041903Y-86281145D01*
X67120831Y-86133480D01*
X67227051Y-86004051D01*
X67356480Y-85897831D01*
X67504145Y-85818903D01*
X67664370Y-85770299D01*
X67789248Y-85758000D01*
X67872752Y-85758000D01*
X67997630Y-85770299D01*
X67997630Y-85770299D01*
G37*
G36*
X70537630Y-85770299D02*
X70697855Y-85818903D01*
X70845520Y-85897831D01*
X70974949Y-86004051D01*
X71081169Y-86133480D01*
X71160097Y-86281145D01*
X71208701Y-86441370D01*
X71225112Y-86608000D01*
X71208701Y-86774630D01*
X71160097Y-86934855D01*
X71081169Y-87082520D01*
X70974949Y-87211949D01*
X70845520Y-87318169D01*
X70697855Y-87397097D01*
X70537630Y-87445701D01*
X70412752Y-87458000D01*
X70329248Y-87458000D01*
X70204370Y-87445701D01*
X70044145Y-87397097D01*
X69896480Y-87318169D01*
X69767051Y-87211949D01*
X69660831Y-87082520D01*
X69581903Y-86934855D01*
X69533299Y-86774630D01*
X69516888Y-86608000D01*
X69533299Y-86441370D01*
X69581903Y-86281145D01*
X69660831Y-86133480D01*
X69767051Y-86004051D01*
X69896480Y-85897831D01*
X70044145Y-85818903D01*
X70204370Y-85770299D01*
X70329248Y-85758000D01*
X70412752Y-85758000D01*
X70537630Y-85770299D01*
X70537630Y-85770299D01*
G37*
G36*
X63354000Y-87185000D02*
X61354000Y-87185000D01*
X61354000Y-86285000D01*
X63354000Y-86285000D01*
X63354000Y-87185000D01*
X63354000Y-87185000D01*
G37*
G36*
X54844000Y-87060000D02*
X49844000Y-87060000D01*
X49844000Y-82060000D01*
X54844000Y-82060000D01*
X54844000Y-87060000D01*
X54844000Y-87060000D01*
G37*
G36*
X63354000Y-85915000D02*
X61354000Y-85915000D01*
X61354000Y-85015000D01*
X63354000Y-85015000D01*
X63354000Y-85915000D01*
X63354000Y-85915000D01*
G37*
G36*
X88608745Y-84158342D02*
X88735863Y-84210996D01*
X88850271Y-84287441D01*
X88947559Y-84384729D01*
X89024004Y-84499137D01*
X89076658Y-84626255D01*
X89103500Y-84761202D01*
X89103500Y-84898798D01*
X89076658Y-85033745D01*
X89024004Y-85160863D01*
X88947559Y-85275271D01*
X88850271Y-85372559D01*
X88735863Y-85449004D01*
X88608745Y-85501658D01*
X88473798Y-85528500D01*
X88336202Y-85528500D01*
X88201255Y-85501658D01*
X88074137Y-85449004D01*
X87959729Y-85372559D01*
X87862441Y-85275271D01*
X87785996Y-85160863D01*
X87733342Y-85033745D01*
X87706500Y-84898798D01*
X87706500Y-84761202D01*
X87733342Y-84626255D01*
X87785996Y-84499137D01*
X87862441Y-84384729D01*
X87959729Y-84287441D01*
X88074137Y-84210996D01*
X88201255Y-84158342D01*
X88336202Y-84131500D01*
X88473798Y-84131500D01*
X88608745Y-84158342D01*
X88608745Y-84158342D01*
G37*
G36*
X83528745Y-84158342D02*
X83655863Y-84210996D01*
X83770271Y-84287441D01*
X83867559Y-84384729D01*
X83944004Y-84499137D01*
X83996658Y-84626255D01*
X84023500Y-84761202D01*
X84023500Y-84898798D01*
X83996658Y-85033745D01*
X83944004Y-85160863D01*
X83867559Y-85275271D01*
X83770271Y-85372559D01*
X83655863Y-85449004D01*
X83528745Y-85501658D01*
X83393798Y-85528500D01*
X83256202Y-85528500D01*
X83121255Y-85501658D01*
X82994137Y-85449004D01*
X82879729Y-85372559D01*
X82782441Y-85275271D01*
X82705996Y-85160863D01*
X82653342Y-85033745D01*
X82626500Y-84898798D01*
X82626500Y-84761202D01*
X82653342Y-84626255D01*
X82705996Y-84499137D01*
X82782441Y-84384729D01*
X82879729Y-84287441D01*
X82994137Y-84210996D01*
X83121255Y-84158342D01*
X83256202Y-84131500D01*
X83393798Y-84131500D01*
X83528745Y-84158342D01*
X83528745Y-84158342D01*
G37*
G36*
X74638745Y-84158342D02*
X74765863Y-84210996D01*
X74880271Y-84287441D01*
X74977559Y-84384729D01*
X75054004Y-84499137D01*
X75106658Y-84626255D01*
X75133500Y-84761202D01*
X75133500Y-84898798D01*
X75106658Y-85033745D01*
X75054004Y-85160863D01*
X74977559Y-85275271D01*
X74880271Y-85372559D01*
X74765863Y-85449004D01*
X74638745Y-85501658D01*
X74503798Y-85528500D01*
X74366202Y-85528500D01*
X74231255Y-85501658D01*
X74104137Y-85449004D01*
X73989729Y-85372559D01*
X73892441Y-85275271D01*
X73815996Y-85160863D01*
X73763342Y-85033745D01*
X73736500Y-84898798D01*
X73736500Y-84761202D01*
X73763342Y-84626255D01*
X73815996Y-84499137D01*
X73892441Y-84384729D01*
X73989729Y-84287441D01*
X74104137Y-84210996D01*
X74231255Y-84158342D01*
X74366202Y-84131500D01*
X74503798Y-84131500D01*
X74638745Y-84158342D01*
X74638745Y-84158342D01*
G37*
G36*
X79718745Y-84158342D02*
X79845863Y-84210996D01*
X79960271Y-84287441D01*
X80057559Y-84384729D01*
X80134004Y-84499137D01*
X80186658Y-84626255D01*
X80213500Y-84761202D01*
X80213500Y-84898798D01*
X80186658Y-85033745D01*
X80134004Y-85160863D01*
X80057559Y-85275271D01*
X79960271Y-85372559D01*
X79845863Y-85449004D01*
X79718745Y-85501658D01*
X79583798Y-85528500D01*
X79446202Y-85528500D01*
X79311255Y-85501658D01*
X79184137Y-85449004D01*
X79069729Y-85372559D01*
X78972441Y-85275271D01*
X78895996Y-85160863D01*
X78843342Y-85033745D01*
X78816500Y-84898798D01*
X78816500Y-84761202D01*
X78843342Y-84626255D01*
X78895996Y-84499137D01*
X78972441Y-84384729D01*
X79069729Y-84287441D01*
X79184137Y-84210996D01*
X79311255Y-84158342D01*
X79446202Y-84131500D01*
X79583798Y-84131500D01*
X79718745Y-84158342D01*
X79718745Y-84158342D01*
G37*
G36*
X70537630Y-83230299D02*
X70697855Y-83278903D01*
X70845520Y-83357831D01*
X70974949Y-83464051D01*
X71081169Y-83593480D01*
X71160097Y-83741145D01*
X71208701Y-83901370D01*
X71225112Y-84068000D01*
X71208701Y-84234630D01*
X71160097Y-84394855D01*
X71081169Y-84542520D01*
X70974949Y-84671949D01*
X70845520Y-84778169D01*
X70697855Y-84857097D01*
X70537630Y-84905701D01*
X70412752Y-84918000D01*
X70329248Y-84918000D01*
X70204370Y-84905701D01*
X70044145Y-84857097D01*
X69896480Y-84778169D01*
X69767051Y-84671949D01*
X69660831Y-84542520D01*
X69581903Y-84394855D01*
X69533299Y-84234630D01*
X69516888Y-84068000D01*
X69533299Y-83901370D01*
X69581903Y-83741145D01*
X69660831Y-83593480D01*
X69767051Y-83464051D01*
X69896480Y-83357831D01*
X70044145Y-83278903D01*
X70204370Y-83230299D01*
X70329248Y-83218000D01*
X70412752Y-83218000D01*
X70537630Y-83230299D01*
X70537630Y-83230299D01*
G37*
G36*
X67997630Y-83230299D02*
X68157855Y-83278903D01*
X68305520Y-83357831D01*
X68434949Y-83464051D01*
X68541169Y-83593480D01*
X68620097Y-83741145D01*
X68668701Y-83901370D01*
X68685112Y-84068000D01*
X68668701Y-84234630D01*
X68620097Y-84394855D01*
X68541169Y-84542520D01*
X68434949Y-84671949D01*
X68305520Y-84778169D01*
X68157855Y-84857097D01*
X67997630Y-84905701D01*
X67872752Y-84918000D01*
X67789248Y-84918000D01*
X67664370Y-84905701D01*
X67504145Y-84857097D01*
X67356480Y-84778169D01*
X67227051Y-84671949D01*
X67120831Y-84542520D01*
X67041903Y-84394855D01*
X66993299Y-84234630D01*
X66976888Y-84068000D01*
X66993299Y-83901370D01*
X67041903Y-83741145D01*
X67120831Y-83593480D01*
X67227051Y-83464051D01*
X67356480Y-83357831D01*
X67504145Y-83278903D01*
X67664370Y-83230299D01*
X67789248Y-83218000D01*
X67872752Y-83218000D01*
X67997630Y-83230299D01*
X67997630Y-83230299D01*
G37*
G36*
X63354000Y-84645000D02*
X61354000Y-84645000D01*
X61354000Y-83745000D01*
X63354000Y-83745000D01*
X63354000Y-84645000D01*
X63354000Y-84645000D01*
G37*
G36*
X63354000Y-83375000D02*
X61354000Y-83375000D01*
X61354000Y-82475000D01*
X63354000Y-82475000D01*
X63354000Y-83375000D01*
X63354000Y-83375000D01*
G37*
G36*
X78621000Y-82376000D02*
X74821000Y-82376000D01*
X74821000Y-80376000D01*
X78621000Y-80376000D01*
X78621000Y-82376000D01*
X78621000Y-82376000D01*
G37*
G36*
X63354000Y-82105000D02*
X61354000Y-82105000D01*
X61354000Y-81205000D01*
X63354000Y-81205000D01*
X63354000Y-82105000D01*
X63354000Y-82105000D01*
G37*
G36*
X87368352Y-80456743D02*
X87513941Y-80517048D01*
X87644973Y-80604601D01*
X87756399Y-80716027D01*
X87843952Y-80847059D01*
X87904257Y-80992648D01*
X87935000Y-81147205D01*
X87935000Y-81304795D01*
X87904257Y-81459352D01*
X87843952Y-81604941D01*
X87756399Y-81735973D01*
X87644973Y-81847399D01*
X87513941Y-81934952D01*
X87368352Y-81995257D01*
X87213795Y-82026000D01*
X87056205Y-82026000D01*
X86901648Y-81995257D01*
X86756059Y-81934952D01*
X86625027Y-81847399D01*
X86513601Y-81735973D01*
X86426048Y-81604941D01*
X86365743Y-81459352D01*
X86335000Y-81304795D01*
X86335000Y-81147205D01*
X86365743Y-80992648D01*
X86426048Y-80847059D01*
X86513601Y-80716027D01*
X86625027Y-80604601D01*
X86756059Y-80517048D01*
X86901648Y-80456743D01*
X87056205Y-80426000D01*
X87213795Y-80426000D01*
X87368352Y-80456743D01*
X87368352Y-80456743D01*
G37*
G36*
X63354000Y-80835000D02*
X61354000Y-80835000D01*
X61354000Y-79935000D01*
X63354000Y-79935000D01*
X63354000Y-80835000D01*
X63354000Y-80835000D01*
G37*
G36*
X71201000Y-80410000D02*
X70201000Y-80410000D01*
X70201000Y-78910000D01*
X71201000Y-78910000D01*
X71201000Y-80410000D01*
X71201000Y-80410000D01*
G37*
G36*
X68001000Y-80410000D02*
X67001000Y-80410000D01*
X67001000Y-78910000D01*
X68001000Y-78910000D01*
X68001000Y-80410000D01*
X68001000Y-80410000D01*
G37*
G36*
X63354000Y-79565000D02*
X61354000Y-79565000D01*
X61354000Y-78665000D01*
X63354000Y-78665000D01*
X63354000Y-79565000D01*
X63354000Y-79565000D01*
G37*
G36*
X87368352Y-77456743D02*
X87513941Y-77517048D01*
X87644973Y-77604601D01*
X87756399Y-77716027D01*
X87843952Y-77847059D01*
X87904257Y-77992648D01*
X87935000Y-78147205D01*
X87935000Y-78304795D01*
X87904257Y-78459352D01*
X87843952Y-78604941D01*
X87756399Y-78735973D01*
X87644973Y-78847399D01*
X87513941Y-78934952D01*
X87368352Y-78995257D01*
X87213795Y-79026000D01*
X87056205Y-79026000D01*
X86901648Y-78995257D01*
X86756059Y-78934952D01*
X86625027Y-78847399D01*
X86513601Y-78735973D01*
X86426048Y-78604941D01*
X86365743Y-78459352D01*
X86335000Y-78304795D01*
X86335000Y-78147205D01*
X86365743Y-77992648D01*
X86426048Y-77847059D01*
X86513601Y-77716027D01*
X86625027Y-77604601D01*
X86756059Y-77517048D01*
X86901648Y-77456743D01*
X87056205Y-77426000D01*
X87213795Y-77426000D01*
X87368352Y-77456743D01*
X87368352Y-77456743D01*
G37*
G36*
X63354000Y-78295000D02*
X61354000Y-78295000D01*
X61354000Y-77395000D01*
X63354000Y-77395000D01*
X63354000Y-78295000D01*
X63354000Y-78295000D01*
G37*
G36*
X77471000Y-76076000D02*
X75971000Y-76076000D01*
X75971000Y-74076000D01*
X77471000Y-74076000D01*
X77471000Y-76076000D01*
X77471000Y-76076000D01*
G37*
G36*
X75171000Y-76076000D02*
X73671000Y-76076000D01*
X73671000Y-74076000D01*
X75171000Y-74076000D01*
X75171000Y-76076000D01*
X75171000Y-76076000D01*
G37*
G36*
X79771000Y-76076000D02*
X78271000Y-76076000D01*
X78271000Y-74076000D01*
X79771000Y-74076000D01*
X79771000Y-76076000D01*
X79771000Y-76076000D01*
G37*
G36*
X59264000Y-76060000D02*
X58364000Y-76060000D01*
X58364000Y-74060000D01*
X59264000Y-74060000D01*
X59264000Y-76060000D01*
X59264000Y-76060000D01*
G37*
G36*
X61804000Y-76060000D02*
X60904000Y-76060000D01*
X60904000Y-74060000D01*
X61804000Y-74060000D01*
X61804000Y-76060000D01*
X61804000Y-76060000D01*
G37*
G36*
X60534000Y-76060000D02*
X59634000Y-76060000D01*
X59634000Y-74060000D01*
X60534000Y-74060000D01*
X60534000Y-76060000D01*
X60534000Y-76060000D01*
G37*
G36*
X56724000Y-76060000D02*
X55824000Y-76060000D01*
X55824000Y-74060000D01*
X56724000Y-74060000D01*
X56724000Y-76060000D01*
X56724000Y-76060000D01*
G37*
G36*
X55454000Y-76060000D02*
X54554000Y-76060000D01*
X54554000Y-74060000D01*
X55454000Y-74060000D01*
X55454000Y-76060000D01*
X55454000Y-76060000D01*
G37*
G36*
X54184000Y-76060000D02*
X53284000Y-76060000D01*
X53284000Y-74060000D01*
X54184000Y-74060000D01*
X54184000Y-76060000D01*
X54184000Y-76060000D01*
G37*
G36*
X52914000Y-76060000D02*
X52014000Y-76060000D01*
X52014000Y-74060000D01*
X52914000Y-74060000D01*
X52914000Y-76060000D01*
X52914000Y-76060000D01*
G37*
G36*
X50374000Y-76060000D02*
X49474000Y-76060000D01*
X49474000Y-74060000D01*
X50374000Y-74060000D01*
X50374000Y-76060000D01*
X50374000Y-76060000D01*
G37*
G36*
X49104000Y-76060000D02*
X48204000Y-76060000D01*
X48204000Y-74060000D01*
X49104000Y-74060000D01*
X49104000Y-76060000D01*
X49104000Y-76060000D01*
G37*
G36*
X47834000Y-76060000D02*
X46934000Y-76060000D01*
X46934000Y-74060000D01*
X47834000Y-74060000D01*
X47834000Y-76060000D01*
X47834000Y-76060000D01*
G37*
G36*
X46564000Y-76060000D02*
X45664000Y-76060000D01*
X45664000Y-74060000D01*
X46564000Y-74060000D01*
X46564000Y-76060000D01*
X46564000Y-76060000D01*
G37*
G36*
X45294000Y-76060000D02*
X44394000Y-76060000D01*
X44394000Y-74060000D01*
X45294000Y-74060000D01*
X45294000Y-76060000D01*
X45294000Y-76060000D01*
G37*
G36*
X57994000Y-76060000D02*
X57094000Y-76060000D01*
X57094000Y-74060000D01*
X57994000Y-74060000D01*
X57994000Y-76060000D01*
X57994000Y-76060000D01*
G37*
G36*
X51644000Y-76060000D02*
X50744000Y-76060000D01*
X50744000Y-74060000D01*
X51644000Y-74060000D01*
X51644000Y-76060000D01*
X51644000Y-76060000D01*
G37*
G36*
X71201000Y-75510000D02*
X70201000Y-75510000D01*
X70201000Y-74010000D01*
X71201000Y-74010000D01*
X71201000Y-75510000D01*
X71201000Y-75510000D01*
G37*
G36*
X68001000Y-75510000D02*
X67001000Y-75510000D01*
X67001000Y-74010000D01*
X68001000Y-74010000D01*
X68001000Y-75510000D01*
X68001000Y-75510000D01*
G37*
G36*
X55756649Y-70067717D02*
X55795827Y-70071576D01*
X55859012Y-70090743D01*
X55946629Y-70117321D01*
X56085608Y-70191608D01*
X56207422Y-70291578D01*
X56307392Y-70413392D01*
X56381679Y-70552371D01*
X56427424Y-70703174D01*
X56442870Y-70860000D01*
X56427424Y-71016826D01*
X56381679Y-71167629D01*
X56307392Y-71306608D01*
X56207422Y-71428422D01*
X56085608Y-71528392D01*
X55946629Y-71602679D01*
X55871227Y-71625552D01*
X55795827Y-71648424D01*
X55756649Y-71652283D01*
X55678295Y-71660000D01*
X55599705Y-71660000D01*
X55521351Y-71652283D01*
X55482173Y-71648424D01*
X55406772Y-71625551D01*
X55331371Y-71602679D01*
X55192392Y-71528392D01*
X55070578Y-71428422D01*
X54970608Y-71306608D01*
X54896321Y-71167629D01*
X54850576Y-71016826D01*
X54835130Y-70860000D01*
X54850576Y-70703174D01*
X54896321Y-70552371D01*
X54970608Y-70413392D01*
X55070578Y-70291578D01*
X55192392Y-70191608D01*
X55331371Y-70117321D01*
X55418988Y-70090743D01*
X55482173Y-70071576D01*
X55521351Y-70067717D01*
X55599705Y-70060000D01*
X55678295Y-70060000D01*
X55756649Y-70067717D01*
X55756649Y-70067717D01*
G37*
G36*
X45712352Y-70090743D02*
X45857941Y-70151048D01*
X45988973Y-70238601D01*
X46100399Y-70350027D01*
X46187952Y-70481059D01*
X46248257Y-70626648D01*
X46279000Y-70781205D01*
X46279000Y-70938795D01*
X46248257Y-71093352D01*
X46187952Y-71238941D01*
X46100399Y-71369973D01*
X45988973Y-71481399D01*
X45857941Y-71568952D01*
X45712352Y-71629257D01*
X45557795Y-71660000D01*
X45400205Y-71660000D01*
X45245648Y-71629257D01*
X45100059Y-71568952D01*
X44969027Y-71481399D01*
X44857601Y-71369973D01*
X44770048Y-71238941D01*
X44709743Y-71093352D01*
X44679000Y-70938795D01*
X44679000Y-70781205D01*
X44709743Y-70626648D01*
X44770048Y-70481059D01*
X44857601Y-70350027D01*
X44969027Y-70238601D01*
X45100059Y-70151048D01*
X45245648Y-70090743D01*
X45400205Y-70060000D01*
X45557795Y-70060000D01*
X45712352Y-70090743D01*
X45712352Y-70090743D01*
G37*
G36*
X68826352Y-70090743D02*
X68971941Y-70151048D01*
X69102973Y-70238601D01*
X69214399Y-70350027D01*
X69301952Y-70481059D01*
X69362257Y-70626648D01*
X69393000Y-70781205D01*
X69393000Y-70938795D01*
X69362257Y-71093352D01*
X69301952Y-71238941D01*
X69214399Y-71369973D01*
X69102973Y-71481399D01*
X68971941Y-71568952D01*
X68826352Y-71629257D01*
X68671795Y-71660000D01*
X68514205Y-71660000D01*
X68359648Y-71629257D01*
X68214059Y-71568952D01*
X68083027Y-71481399D01*
X67971601Y-71369973D01*
X67884048Y-71238941D01*
X67823743Y-71093352D01*
X67793000Y-70938795D01*
X67793000Y-70781205D01*
X67823743Y-70626648D01*
X67884048Y-70481059D01*
X67971601Y-70350027D01*
X68083027Y-70238601D01*
X68214059Y-70151048D01*
X68359648Y-70090743D01*
X68514205Y-70060000D01*
X68671795Y-70060000D01*
X68826352Y-70090743D01*
X68826352Y-70090743D01*
G37*
G36*
X58550649Y-70067717D02*
X58589827Y-70071576D01*
X58653012Y-70090743D01*
X58740629Y-70117321D01*
X58879608Y-70191608D01*
X59001422Y-70291578D01*
X59101392Y-70413392D01*
X59175679Y-70552371D01*
X59221424Y-70703174D01*
X59236870Y-70860000D01*
X59221424Y-71016826D01*
X59175679Y-71167629D01*
X59101392Y-71306608D01*
X59001422Y-71428422D01*
X58879608Y-71528392D01*
X58740629Y-71602679D01*
X58665227Y-71625552D01*
X58589827Y-71648424D01*
X58550649Y-71652283D01*
X58472295Y-71660000D01*
X58393705Y-71660000D01*
X58315351Y-71652283D01*
X58276173Y-71648424D01*
X58200772Y-71625551D01*
X58125371Y-71602679D01*
X57986392Y-71528392D01*
X57864578Y-71428422D01*
X57764608Y-71306608D01*
X57690321Y-71167629D01*
X57644576Y-71016826D01*
X57629130Y-70860000D01*
X57644576Y-70703174D01*
X57690321Y-70552371D01*
X57764608Y-70413392D01*
X57864578Y-70291578D01*
X57986392Y-70191608D01*
X58125371Y-70117321D01*
X58212988Y-70090743D01*
X58276173Y-70071576D01*
X58315351Y-70067717D01*
X58393705Y-70060000D01*
X58472295Y-70060000D01*
X58550649Y-70067717D01*
X58550649Y-70067717D01*
G37*
G36*
X76152352Y-69328743D02*
X76297941Y-69389048D01*
X76428973Y-69476601D01*
X76540399Y-69588027D01*
X76627952Y-69719059D01*
X76688257Y-69864648D01*
X76719000Y-70019205D01*
X76719000Y-70176795D01*
X76688257Y-70331352D01*
X76627952Y-70476941D01*
X76540399Y-70607973D01*
X76428973Y-70719399D01*
X76297941Y-70806952D01*
X76152352Y-70867257D01*
X75997795Y-70898000D01*
X75840205Y-70898000D01*
X75685648Y-70867257D01*
X75540059Y-70806952D01*
X75409027Y-70719399D01*
X75297601Y-70607973D01*
X75210048Y-70476941D01*
X75149743Y-70331352D01*
X75119000Y-70176795D01*
X75119000Y-70019205D01*
X75149743Y-69864648D01*
X75210048Y-69719059D01*
X75297601Y-69588027D01*
X75409027Y-69476601D01*
X75540059Y-69389048D01*
X75685648Y-69328743D01*
X75840205Y-69298000D01*
X75997795Y-69298000D01*
X76152352Y-69328743D01*
X76152352Y-69328743D01*
G37*
G36*
X74219000Y-70898000D02*
X72619000Y-70898000D01*
X72619000Y-69298000D01*
X74219000Y-69298000D01*
X74219000Y-70898000D01*
X74219000Y-70898000D01*
G37*
G36*
X82093000Y-69120000D02*
X80493000Y-69120000D01*
X80493000Y-67520000D01*
X82093000Y-67520000D01*
X82093000Y-69120000D01*
X82093000Y-69120000D01*
G37*
G36*
X94480352Y-67510743D02*
X94625941Y-67571048D01*
X94756973Y-67658601D01*
X94868399Y-67770027D01*
X94955952Y-67901059D01*
X95016257Y-68046648D01*
X95047000Y-68201205D01*
X95047000Y-68358795D01*
X95016257Y-68513352D01*
X94955952Y-68658941D01*
X94868399Y-68789973D01*
X94756973Y-68901399D01*
X94625941Y-68988952D01*
X94480352Y-69049257D01*
X94325795Y-69080000D01*
X94168205Y-69080000D01*
X94013648Y-69049257D01*
X93868059Y-68988952D01*
X93737027Y-68901399D01*
X93625601Y-68789973D01*
X93538048Y-68658941D01*
X93477743Y-68513352D01*
X93447000Y-68358795D01*
X93447000Y-68201205D01*
X93477743Y-68046648D01*
X93538048Y-67901059D01*
X93625601Y-67770027D01*
X93737027Y-67658601D01*
X93868059Y-67571048D01*
X94013648Y-67510743D01*
X94168205Y-67480000D01*
X94325795Y-67480000D01*
X94480352Y-67510743D01*
X94480352Y-67510743D01*
G37*
G36*
X87745914Y-66053596D02*
X87745917Y-66053597D01*
X87745918Y-66053597D01*
X87844881Y-66083617D01*
X87936086Y-66132367D01*
X88016027Y-66197973D01*
X88081633Y-66277914D01*
X88104325Y-66320368D01*
X88130383Y-66369118D01*
X88143382Y-66411971D01*
X88152760Y-66434611D01*
X88166374Y-66454985D01*
X88183701Y-66472312D01*
X88204075Y-66485926D01*
X88226714Y-66495304D01*
X88250748Y-66500084D01*
X88275252Y-66500084D01*
X88299285Y-66495304D01*
X88321925Y-66485926D01*
X88342299Y-66472312D01*
X88359626Y-66454985D01*
X88373240Y-66434611D01*
X88382618Y-66411972D01*
X88387398Y-66387938D01*
X88388000Y-66375686D01*
X88388000Y-66046000D01*
X89438000Y-66046000D01*
X89438000Y-67546000D01*
X88388000Y-67546000D01*
X88388000Y-67216314D01*
X88385598Y-67191928D01*
X88378485Y-67168479D01*
X88366934Y-67146868D01*
X88351388Y-67127926D01*
X88332446Y-67112380D01*
X88310835Y-67100829D01*
X88287386Y-67093716D01*
X88263000Y-67091314D01*
X88238614Y-67093716D01*
X88215165Y-67100829D01*
X88193554Y-67112380D01*
X88174612Y-67127926D01*
X88159066Y-67146868D01*
X88147515Y-67168479D01*
X88143382Y-67180029D01*
X88130383Y-67222882D01*
X88130382Y-67222883D01*
X88081635Y-67314083D01*
X88081632Y-67314087D01*
X88016030Y-67394024D01*
X88016028Y-67394025D01*
X88016027Y-67394027D01*
X87936086Y-67459633D01*
X87844880Y-67508383D01*
X87745917Y-67538403D01*
X87745916Y-67538403D01*
X87745913Y-67538404D01*
X87643000Y-67548540D01*
X87540086Y-67538404D01*
X87540083Y-67538403D01*
X87540082Y-67538403D01*
X87441119Y-67508383D01*
X87349914Y-67459633D01*
X87329929Y-67443231D01*
X87269976Y-67394030D01*
X87269975Y-67394028D01*
X87269973Y-67394027D01*
X87204367Y-67314086D01*
X87155617Y-67222880D01*
X87153625Y-67216314D01*
X87127617Y-67130580D01*
X87118240Y-67107941D01*
X87104626Y-67087567D01*
X87087299Y-67070239D01*
X87066924Y-67056626D01*
X87044285Y-67047248D01*
X87020252Y-67042468D01*
X86995747Y-67042468D01*
X86971714Y-67047249D01*
X86949075Y-67056626D01*
X86928701Y-67070240D01*
X86911373Y-67087567D01*
X86897760Y-67107942D01*
X86888382Y-67130579D01*
X86860383Y-67222881D01*
X86811635Y-67314083D01*
X86811632Y-67314087D01*
X86746030Y-67394024D01*
X86746028Y-67394025D01*
X86746027Y-67394027D01*
X86666086Y-67459633D01*
X86574880Y-67508383D01*
X86475917Y-67538403D01*
X86475916Y-67538403D01*
X86475913Y-67538404D01*
X86373000Y-67548540D01*
X86270086Y-67538404D01*
X86270083Y-67538403D01*
X86270082Y-67538403D01*
X86171119Y-67508383D01*
X86079914Y-67459633D01*
X86059929Y-67443231D01*
X85999976Y-67394030D01*
X85999975Y-67394028D01*
X85999973Y-67394027D01*
X85934367Y-67314086D01*
X85885617Y-67222880D01*
X85855597Y-67123917D01*
X85855597Y-67123916D01*
X85855596Y-67123913D01*
X85848000Y-67046791D01*
X85848000Y-66545208D01*
X85855596Y-66468086D01*
X85885618Y-66369117D01*
X85934366Y-66277916D01*
X85999976Y-66197971D01*
X86079914Y-66132368D01*
X86079913Y-66132368D01*
X86079915Y-66132367D01*
X86171120Y-66083617D01*
X86270083Y-66053597D01*
X86270084Y-66053597D01*
X86270087Y-66053596D01*
X86373000Y-66043460D01*
X86475914Y-66053596D01*
X86475917Y-66053597D01*
X86475918Y-66053597D01*
X86574881Y-66083617D01*
X86666086Y-66132367D01*
X86746027Y-66197973D01*
X86811633Y-66277914D01*
X86860383Y-66369119D01*
X86873382Y-66411971D01*
X86888382Y-66461420D01*
X86897760Y-66484059D01*
X86911374Y-66504433D01*
X86928701Y-66521760D01*
X86949075Y-66535374D01*
X86971714Y-66544752D01*
X86995748Y-66549532D01*
X87020252Y-66549532D01*
X87044286Y-66544752D01*
X87066925Y-66535374D01*
X87087299Y-66521760D01*
X87104626Y-66504433D01*
X87118240Y-66484059D01*
X87127618Y-66461420D01*
X87155618Y-66369117D01*
X87204366Y-66277916D01*
X87269976Y-66197971D01*
X87349914Y-66132368D01*
X87349913Y-66132368D01*
X87349915Y-66132367D01*
X87441120Y-66083617D01*
X87540083Y-66053597D01*
X87540084Y-66053597D01*
X87540087Y-66053596D01*
X87643000Y-66043460D01*
X87745914Y-66053596D01*
X87745914Y-66053596D01*
G37*
G36*
X62023857Y-64548272D02*
X62224042Y-64631191D01*
X62404213Y-64751578D01*
X62557422Y-64904787D01*
X62677809Y-65084958D01*
X62760728Y-65285143D01*
X62803000Y-65497658D01*
X62803000Y-65714342D01*
X62760728Y-65926857D01*
X62677809Y-66127042D01*
X62677807Y-66127045D01*
X62629768Y-66198941D01*
X62557422Y-66307213D01*
X62404213Y-66460422D01*
X62404210Y-66460424D01*
X62404209Y-66460425D01*
X62277315Y-66545213D01*
X62224042Y-66580809D01*
X62023857Y-66663728D01*
X61811342Y-66706000D01*
X61594658Y-66706000D01*
X61382143Y-66663728D01*
X61181958Y-66580809D01*
X61128685Y-66545213D01*
X61001791Y-66460425D01*
X61001790Y-66460424D01*
X61001787Y-66460422D01*
X60848578Y-66307213D01*
X60776233Y-66198941D01*
X60728193Y-66127045D01*
X60728191Y-66127042D01*
X60645272Y-65926857D01*
X60603000Y-65714342D01*
X60603000Y-65497658D01*
X60645272Y-65285143D01*
X60728191Y-65084958D01*
X60848578Y-64904787D01*
X61001787Y-64751578D01*
X61181958Y-64631191D01*
X61382143Y-64548272D01*
X61594658Y-64506000D01*
X61811342Y-64506000D01*
X62023857Y-64548272D01*
X62023857Y-64548272D01*
G37*
G36*
X81526352Y-65050743D02*
X81671941Y-65111048D01*
X81802973Y-65198601D01*
X81914399Y-65310027D01*
X82001952Y-65441059D01*
X82062257Y-65586648D01*
X82093000Y-65741205D01*
X82093000Y-65898795D01*
X82062257Y-66053352D01*
X82001952Y-66198941D01*
X81914399Y-66329973D01*
X81802973Y-66441399D01*
X81671941Y-66528952D01*
X81526352Y-66589257D01*
X81371795Y-66620000D01*
X81214205Y-66620000D01*
X81059648Y-66589257D01*
X80914059Y-66528952D01*
X80783027Y-66441399D01*
X80671601Y-66329973D01*
X80584048Y-66198941D01*
X80523743Y-66053352D01*
X80493000Y-65898795D01*
X80493000Y-65741205D01*
X80523743Y-65586648D01*
X80584048Y-65441059D01*
X80671601Y-65310027D01*
X80783027Y-65198601D01*
X80914059Y-65111048D01*
X81059648Y-65050743D01*
X81214205Y-65020000D01*
X81371795Y-65020000D01*
X81526352Y-65050743D01*
X81526352Y-65050743D01*
G37*
G36*
X95047000Y-66580000D02*
X93447000Y-66580000D01*
X93447000Y-64980000D01*
X95047000Y-64980000D01*
X95047000Y-66580000D01*
X95047000Y-66580000D01*
G37*
G36*
X73474000Y-65899000D02*
X72824000Y-65899000D01*
X72824000Y-64149000D01*
X73474000Y-64149000D01*
X73474000Y-65899000D01*
X73474000Y-65899000D01*
G37*
G36*
X74474000Y-65899000D02*
X73824000Y-65899000D01*
X73824000Y-64149000D01*
X74474000Y-64149000D01*
X74474000Y-65899000D01*
X74474000Y-65899000D01*
G37*
G36*
X72474000Y-65899000D02*
X71824000Y-65899000D01*
X71824000Y-64149000D01*
X72474000Y-64149000D01*
X72474000Y-65899000D01*
X72474000Y-65899000D01*
G37*
G36*
X71474000Y-65899000D02*
X70824000Y-65899000D01*
X70824000Y-64149000D01*
X71474000Y-64149000D01*
X71474000Y-65899000D01*
X71474000Y-65899000D01*
G37*
G36*
X70474000Y-65899000D02*
X69824000Y-65899000D01*
X69824000Y-64149000D01*
X70474000Y-64149000D01*
X70474000Y-65899000D01*
X70474000Y-65899000D01*
G37*
G36*
X95723026Y-60824115D02*
X95941412Y-60914573D01*
X96137958Y-61045901D01*
X96305099Y-61213042D01*
X96436427Y-61409588D01*
X96526885Y-61627974D01*
X96573000Y-61859809D01*
X96573000Y-62096191D01*
X96526885Y-62328026D01*
X96436427Y-62546412D01*
X96305099Y-62742958D01*
X96137958Y-62910099D01*
X95941412Y-63041427D01*
X95723026Y-63131885D01*
X95491191Y-63178000D01*
X95254809Y-63178000D01*
X95022974Y-63131885D01*
X94804588Y-63041427D01*
X94608042Y-62910099D01*
X94440901Y-62742958D01*
X94309573Y-62546412D01*
X94219115Y-62328026D01*
X94173000Y-62096191D01*
X94173000Y-61859809D01*
X94219115Y-61627974D01*
X94309573Y-61409588D01*
X94440901Y-61213042D01*
X94608042Y-61045901D01*
X94804588Y-60914573D01*
X95022974Y-60824115D01*
X95254809Y-60778000D01*
X95491191Y-60778000D01*
X95723026Y-60824115D01*
X95723026Y-60824115D01*
G37*
G36*
X91039208Y-60773473D02*
X91180241Y-60787363D01*
X91406442Y-60855981D01*
X91406444Y-60855982D01*
X91406447Y-60855983D01*
X91614910Y-60967408D01*
X91797634Y-61117366D01*
X91947592Y-61300090D01*
X92059017Y-61508553D01*
X92059018Y-61508556D01*
X92059019Y-61508558D01*
X92127637Y-61734759D01*
X92150806Y-61970000D01*
X92127637Y-62205241D01*
X92059019Y-62431442D01*
X92059017Y-62431447D01*
X91947592Y-62639910D01*
X91797634Y-62822634D01*
X91614910Y-62972592D01*
X91406447Y-63084017D01*
X91406444Y-63084018D01*
X91406442Y-63084019D01*
X91180241Y-63152637D01*
X91039208Y-63166527D01*
X91003951Y-63170000D01*
X90886049Y-63170000D01*
X90850792Y-63166527D01*
X90709759Y-63152637D01*
X90483558Y-63084019D01*
X90483556Y-63084018D01*
X90483553Y-63084017D01*
X90275090Y-62972592D01*
X90092366Y-62822634D01*
X89942408Y-62639910D01*
X89830983Y-62431447D01*
X89830981Y-62431442D01*
X89762363Y-62205241D01*
X89739194Y-61970000D01*
X89762363Y-61734759D01*
X89830981Y-61508558D01*
X89830982Y-61508556D01*
X89830983Y-61508553D01*
X89942408Y-61300090D01*
X90092366Y-61117366D01*
X90275090Y-60967408D01*
X90483553Y-60855983D01*
X90483556Y-60855982D01*
X90483558Y-60855981D01*
X90709759Y-60787363D01*
X90850792Y-60773473D01*
X90886049Y-60770000D01*
X91003951Y-60770000D01*
X91039208Y-60773473D01*
X91039208Y-60773473D01*
G37*
G36*
X66911026Y-60816115D02*
X67129412Y-60906573D01*
X67325958Y-61037901D01*
X67493099Y-61205042D01*
X67624427Y-61401588D01*
X67714885Y-61619974D01*
X67761000Y-61851809D01*
X67761000Y-62088191D01*
X67714885Y-62320026D01*
X67624427Y-62538412D01*
X67493099Y-62734958D01*
X67325958Y-62902099D01*
X67129412Y-63033427D01*
X66911026Y-63123885D01*
X66679191Y-63170000D01*
X66442809Y-63170000D01*
X66210974Y-63123885D01*
X65992588Y-63033427D01*
X65796042Y-62902099D01*
X65628901Y-62734958D01*
X65497573Y-62538412D01*
X65407115Y-62320026D01*
X65361000Y-62088191D01*
X65361000Y-61851809D01*
X65407115Y-61619974D01*
X65497573Y-61401588D01*
X65628901Y-61205042D01*
X65796042Y-61037901D01*
X65992588Y-60906573D01*
X66210974Y-60816115D01*
X66442809Y-60770000D01*
X66679191Y-60770000D01*
X66911026Y-60816115D01*
X66911026Y-60816115D01*
G37*
G36*
X76954352Y-61594743D02*
X77099941Y-61655048D01*
X77230973Y-61742601D01*
X77342399Y-61854027D01*
X77429952Y-61985059D01*
X77490257Y-62130648D01*
X77521000Y-62285205D01*
X77521000Y-62442795D01*
X77490257Y-62597352D01*
X77429952Y-62742941D01*
X77342399Y-62873973D01*
X77230973Y-62985399D01*
X77099941Y-63072952D01*
X76954352Y-63133257D01*
X76799795Y-63164000D01*
X76642205Y-63164000D01*
X76487648Y-63133257D01*
X76342059Y-63072952D01*
X76211027Y-62985399D01*
X76099601Y-62873973D01*
X76012048Y-62742941D01*
X75951743Y-62597352D01*
X75921000Y-62442795D01*
X75921000Y-62285205D01*
X75951743Y-62130648D01*
X76012048Y-61985059D01*
X76099601Y-61854027D01*
X76211027Y-61742601D01*
X76342059Y-61655048D01*
X76487648Y-61594743D01*
X76642205Y-61564000D01*
X76799795Y-61564000D01*
X76954352Y-61594743D01*
X76954352Y-61594743D01*
G37*
G36*
X87096639Y-60977916D02*
X87303986Y-61040815D01*
X87303988Y-61040816D01*
X87495084Y-61142958D01*
X87662581Y-61280419D01*
X87800042Y-61447916D01*
X87896284Y-61627974D01*
X87902185Y-61639014D01*
X87965084Y-61846361D01*
X87986322Y-62062000D01*
X87965084Y-62277639D01*
X87914984Y-62442795D01*
X87902184Y-62484988D01*
X87800042Y-62676084D01*
X87662581Y-62843581D01*
X87495084Y-62981042D01*
X87323131Y-63072952D01*
X87303986Y-63083185D01*
X87096639Y-63146084D01*
X86935038Y-63162000D01*
X86826962Y-63162000D01*
X86665361Y-63146084D01*
X86458014Y-63083185D01*
X86438869Y-63072952D01*
X86266916Y-62981042D01*
X86099419Y-62843581D01*
X85961958Y-62676084D01*
X85859816Y-62484988D01*
X85847017Y-62442795D01*
X85796916Y-62277639D01*
X85775678Y-62062000D01*
X85796916Y-61846361D01*
X85859815Y-61639014D01*
X85865716Y-61627974D01*
X85961958Y-61447916D01*
X86099419Y-61280419D01*
X86266916Y-61142958D01*
X86458012Y-61040816D01*
X86458014Y-61040815D01*
X86665361Y-60977916D01*
X86826962Y-60962000D01*
X86935038Y-60962000D01*
X87096639Y-60977916D01*
X87096639Y-60977916D01*
G37*
G36*
X80256352Y-61584743D02*
X80401941Y-61645048D01*
X80532973Y-61732601D01*
X80644399Y-61844027D01*
X80731952Y-61975059D01*
X80792257Y-62120648D01*
X80823000Y-62275205D01*
X80823000Y-62432795D01*
X80792257Y-62587352D01*
X80731952Y-62732941D01*
X80644399Y-62863973D01*
X80532973Y-62975399D01*
X80401941Y-63062952D01*
X80256352Y-63123257D01*
X80101795Y-63154000D01*
X79944205Y-63154000D01*
X79789648Y-63123257D01*
X79644059Y-63062952D01*
X79513027Y-62975399D01*
X79401601Y-62863973D01*
X79314048Y-62732941D01*
X79253743Y-62587352D01*
X79223000Y-62432795D01*
X79223000Y-62275205D01*
X79253743Y-62120648D01*
X79314048Y-61975059D01*
X79401601Y-61844027D01*
X79513027Y-61732601D01*
X79644059Y-61645048D01*
X79789648Y-61584743D01*
X79944205Y-61554000D01*
X80101795Y-61554000D01*
X80256352Y-61584743D01*
X80256352Y-61584743D01*
G37*
G36*
X83558352Y-61584743D02*
X83703941Y-61645048D01*
X83834973Y-61732601D01*
X83946399Y-61844027D01*
X84033952Y-61975059D01*
X84094257Y-62120648D01*
X84125000Y-62275205D01*
X84125000Y-62432795D01*
X84094257Y-62587352D01*
X84033952Y-62732941D01*
X83946399Y-62863973D01*
X83834973Y-62975399D01*
X83703941Y-63062952D01*
X83558352Y-63123257D01*
X83403795Y-63154000D01*
X83246205Y-63154000D01*
X83091648Y-63123257D01*
X82946059Y-63062952D01*
X82815027Y-62975399D01*
X82703601Y-62863973D01*
X82616048Y-62732941D01*
X82555743Y-62587352D01*
X82525000Y-62432795D01*
X82525000Y-62275205D01*
X82555743Y-62120648D01*
X82616048Y-61975059D01*
X82703601Y-61844027D01*
X82815027Y-61732601D01*
X82946059Y-61645048D01*
X83091648Y-61584743D01*
X83246205Y-61554000D01*
X83403795Y-61554000D01*
X83558352Y-61584743D01*
X83558352Y-61584743D01*
G37*
G36*
X32623857Y-59348272D02*
X32824042Y-59431191D01*
X33004213Y-59551578D01*
X33157422Y-59704787D01*
X33277809Y-59884958D01*
X33360728Y-60085143D01*
X33403000Y-60297658D01*
X33403000Y-60514342D01*
X33360728Y-60726857D01*
X33277809Y-60927042D01*
X33277807Y-60927045D01*
X33203737Y-61037899D01*
X33157422Y-61107213D01*
X33004213Y-61260422D01*
X32824042Y-61380809D01*
X32623857Y-61463728D01*
X32411342Y-61506000D01*
X32194658Y-61506000D01*
X31982143Y-61463728D01*
X31781958Y-61380809D01*
X31601787Y-61260422D01*
X31448578Y-61107213D01*
X31402264Y-61037899D01*
X31328193Y-60927045D01*
X31328191Y-60927042D01*
X31245272Y-60726857D01*
X31203000Y-60514342D01*
X31203000Y-60297658D01*
X31245272Y-60085143D01*
X31328191Y-59884958D01*
X31448578Y-59704787D01*
X31601787Y-59551578D01*
X31781958Y-59431191D01*
X31982143Y-59348272D01*
X32194658Y-59306000D01*
X32411342Y-59306000D01*
X32623857Y-59348272D01*
X32623857Y-59348272D01*
G37*
G36*
X72474000Y-60299000D02*
X71824000Y-60299000D01*
X71824000Y-58549000D01*
X72474000Y-58549000D01*
X72474000Y-60299000D01*
X72474000Y-60299000D01*
G37*
G36*
X73474000Y-60299000D02*
X72824000Y-60299000D01*
X72824000Y-58549000D01*
X73474000Y-58549000D01*
X73474000Y-60299000D01*
X73474000Y-60299000D01*
G37*
G36*
X74474000Y-60299000D02*
X73824000Y-60299000D01*
X73824000Y-58549000D01*
X74474000Y-58549000D01*
X74474000Y-60299000D01*
X74474000Y-60299000D01*
G37*
G36*
X71474000Y-60299000D02*
X70824000Y-60299000D01*
X70824000Y-58549000D01*
X71474000Y-58549000D01*
X71474000Y-60299000D01*
X71474000Y-60299000D01*
G37*
G36*
X70474000Y-60299000D02*
X69824000Y-60299000D01*
X69824000Y-58549000D01*
X70474000Y-58549000D01*
X70474000Y-60299000D01*
X70474000Y-60299000D01*
G37*
G36*
X32623857Y-54348272D02*
X32824042Y-54431191D01*
X33004213Y-54551578D01*
X33157422Y-54704787D01*
X33277809Y-54884958D01*
X33360728Y-55085143D01*
X33403000Y-55297658D01*
X33403000Y-55514342D01*
X33360728Y-55726857D01*
X33277809Y-55927042D01*
X33157422Y-56107213D01*
X33004213Y-56260422D01*
X32824042Y-56380809D01*
X32623857Y-56463728D01*
X32411342Y-56506000D01*
X32194658Y-56506000D01*
X31982143Y-56463728D01*
X31781958Y-56380809D01*
X31601787Y-56260422D01*
X31448578Y-56107213D01*
X31328191Y-55927042D01*
X31245272Y-55726857D01*
X31203000Y-55514342D01*
X31203000Y-55297658D01*
X31245272Y-55085143D01*
X31328191Y-54884958D01*
X31448578Y-54704787D01*
X31601787Y-54551578D01*
X31781958Y-54431191D01*
X31982143Y-54348272D01*
X32194658Y-54306000D01*
X32411342Y-54306000D01*
X32623857Y-54348272D01*
X32623857Y-54348272D01*
G37*
G36*
X71475000Y-54400000D02*
X69875000Y-54400000D01*
X69875000Y-52800000D01*
X71475000Y-52800000D01*
X71475000Y-54400000D01*
X71475000Y-54400000D01*
G37*
G36*
X73408352Y-52830743D02*
X73553941Y-52891048D01*
X73684973Y-52978601D01*
X73796399Y-53090027D01*
X73883952Y-53221059D01*
X73944257Y-53366648D01*
X73975000Y-53521205D01*
X73975000Y-53678795D01*
X73944257Y-53833352D01*
X73883952Y-53978941D01*
X73796399Y-54109973D01*
X73684973Y-54221399D01*
X73553941Y-54308952D01*
X73408352Y-54369257D01*
X73253795Y-54400000D01*
X73096205Y-54400000D01*
X72941648Y-54369257D01*
X72796059Y-54308952D01*
X72665027Y-54221399D01*
X72553601Y-54109973D01*
X72466048Y-53978941D01*
X72405743Y-53833352D01*
X72375000Y-53678795D01*
X72375000Y-53521205D01*
X72405743Y-53366648D01*
X72466048Y-53221059D01*
X72553601Y-53090027D01*
X72665027Y-52978601D01*
X72796059Y-52891048D01*
X72941648Y-52830743D01*
X73096205Y-52800000D01*
X73253795Y-52800000D01*
X73408352Y-52830743D01*
X73408352Y-52830743D01*
G37*
G36*
X76838649Y-51411717D02*
X76877827Y-51415576D01*
X76953227Y-51438448D01*
X77028629Y-51461321D01*
X77167608Y-51535608D01*
X77289422Y-51635578D01*
X77389392Y-51757392D01*
X77463679Y-51896371D01*
X77463679Y-51896372D01*
X77506391Y-52037173D01*
X77509424Y-52047174D01*
X77524870Y-52204000D01*
X77509424Y-52360826D01*
X77463679Y-52511629D01*
X77389392Y-52650608D01*
X77289422Y-52772422D01*
X77167608Y-52872392D01*
X77028629Y-52946679D01*
X76953227Y-52969552D01*
X76877827Y-52992424D01*
X76861825Y-52994000D01*
X76760295Y-53004000D01*
X76681705Y-53004000D01*
X76580175Y-52994000D01*
X76564173Y-52992424D01*
X76488773Y-52969552D01*
X76413371Y-52946679D01*
X76274392Y-52872392D01*
X76152578Y-52772422D01*
X76052608Y-52650608D01*
X75978321Y-52511629D01*
X75932576Y-52360826D01*
X75917130Y-52204000D01*
X75932576Y-52047174D01*
X75935610Y-52037173D01*
X75978321Y-51896372D01*
X75978321Y-51896371D01*
X76052608Y-51757392D01*
X76152578Y-51635578D01*
X76274392Y-51535608D01*
X76413371Y-51461321D01*
X76488773Y-51438448D01*
X76564173Y-51415576D01*
X76603351Y-51411717D01*
X76681705Y-51404000D01*
X76760295Y-51404000D01*
X76838649Y-51411717D01*
X76838649Y-51411717D01*
G37*
G36*
X87981000Y-53002000D02*
X85781000Y-53002000D01*
X85781000Y-50802000D01*
X87981000Y-50802000D01*
X87981000Y-53002000D01*
X87981000Y-53002000D01*
G37*
G36*
X83442649Y-51401717D02*
X83481827Y-51405576D01*
X83557228Y-51428449D01*
X83632629Y-51451321D01*
X83771608Y-51525608D01*
X83893422Y-51625578D01*
X83993392Y-51747392D01*
X84067679Y-51886371D01*
X84090551Y-51961772D01*
X84113424Y-52037173D01*
X84128870Y-52194000D01*
X84113424Y-52350827D01*
X84090551Y-52426228D01*
X84067679Y-52501629D01*
X83993392Y-52640608D01*
X83893422Y-52762422D01*
X83771608Y-52862392D01*
X83632629Y-52936679D01*
X83557227Y-52959552D01*
X83481827Y-52982424D01*
X83442649Y-52986283D01*
X83364295Y-52994000D01*
X83285705Y-52994000D01*
X83207351Y-52986283D01*
X83168173Y-52982424D01*
X83092773Y-52959552D01*
X83017371Y-52936679D01*
X82878392Y-52862392D01*
X82756578Y-52762422D01*
X82656608Y-52640608D01*
X82582321Y-52501629D01*
X82559449Y-52426228D01*
X82536576Y-52350827D01*
X82521130Y-52194000D01*
X82536576Y-52037173D01*
X82559449Y-51961772D01*
X82582321Y-51886371D01*
X82656608Y-51747392D01*
X82756578Y-51625578D01*
X82878392Y-51525608D01*
X83017371Y-51451321D01*
X83092772Y-51428449D01*
X83168173Y-51405576D01*
X83207351Y-51401717D01*
X83285705Y-51394000D01*
X83364295Y-51394000D01*
X83442649Y-51401717D01*
X83442649Y-51401717D01*
G37*
G36*
X80140649Y-51401717D02*
X80179827Y-51405576D01*
X80255228Y-51428449D01*
X80330629Y-51451321D01*
X80469608Y-51525608D01*
X80591422Y-51625578D01*
X80691392Y-51747392D01*
X80765679Y-51886371D01*
X80788551Y-51961772D01*
X80811424Y-52037173D01*
X80826870Y-52194000D01*
X80811424Y-52350827D01*
X80788551Y-52426228D01*
X80765679Y-52501629D01*
X80691392Y-52640608D01*
X80591422Y-52762422D01*
X80469608Y-52862392D01*
X80330629Y-52936679D01*
X80255227Y-52959552D01*
X80179827Y-52982424D01*
X80140649Y-52986283D01*
X80062295Y-52994000D01*
X79983705Y-52994000D01*
X79905351Y-52986283D01*
X79866173Y-52982424D01*
X79790773Y-52959552D01*
X79715371Y-52936679D01*
X79576392Y-52862392D01*
X79454578Y-52762422D01*
X79354608Y-52640608D01*
X79280321Y-52501629D01*
X79257449Y-52426228D01*
X79234576Y-52350827D01*
X79219130Y-52194000D01*
X79234576Y-52037173D01*
X79257449Y-51961772D01*
X79280321Y-51886371D01*
X79354608Y-51747392D01*
X79454578Y-51625578D01*
X79576392Y-51525608D01*
X79715371Y-51451321D01*
X79790772Y-51428449D01*
X79866173Y-51405576D01*
X79905351Y-51401717D01*
X79983705Y-51394000D01*
X80062295Y-51394000D01*
X80140649Y-51401717D01*
X80140649Y-51401717D01*
G37*
G36*
X62023857Y-49148272D02*
X62224042Y-49231191D01*
X62224045Y-49231193D01*
X62282124Y-49270000D01*
X62404213Y-49351578D01*
X62557422Y-49504787D01*
X62557424Y-49504790D01*
X62557425Y-49504791D01*
X62563068Y-49513237D01*
X62677809Y-49684958D01*
X62760728Y-49885143D01*
X62803000Y-50097658D01*
X62803000Y-50314342D01*
X62760728Y-50526857D01*
X62677809Y-50727042D01*
X62677807Y-50727045D01*
X62627724Y-50802000D01*
X62557422Y-50907213D01*
X62404213Y-51060422D01*
X62224042Y-51180809D01*
X62023857Y-51263728D01*
X61811342Y-51306000D01*
X61594658Y-51306000D01*
X61382143Y-51263728D01*
X61181958Y-51180809D01*
X61001787Y-51060422D01*
X60848578Y-50907213D01*
X60778277Y-50802000D01*
X60728193Y-50727045D01*
X60728191Y-50727042D01*
X60645272Y-50526857D01*
X60603000Y-50314342D01*
X60603000Y-50097658D01*
X60645272Y-49885143D01*
X60728191Y-49684958D01*
X60842932Y-49513237D01*
X60848575Y-49504791D01*
X60848576Y-49504790D01*
X60848578Y-49504787D01*
X61001787Y-49351578D01*
X61123877Y-49270000D01*
X61181955Y-49231193D01*
X61181958Y-49231191D01*
X61382143Y-49148272D01*
X61594658Y-49106000D01*
X61811342Y-49106000D01*
X62023857Y-49148272D01*
X62023857Y-49148272D01*
G37*
G36*
X95467208Y-48081473D02*
X95608241Y-48095363D01*
X95834442Y-48163981D01*
X95834444Y-48163982D01*
X95834447Y-48163983D01*
X96042910Y-48275408D01*
X96225634Y-48425366D01*
X96375592Y-48608090D01*
X96487017Y-48816553D01*
X96487018Y-48816556D01*
X96487019Y-48816558D01*
X96555637Y-49042759D01*
X96578806Y-49278000D01*
X96555637Y-49513241D01*
X96489444Y-49731447D01*
X96487017Y-49739447D01*
X96375592Y-49947910D01*
X96225634Y-50130634D01*
X96042910Y-50280592D01*
X95834447Y-50392017D01*
X95834444Y-50392018D01*
X95834442Y-50392019D01*
X95608241Y-50460637D01*
X95467208Y-50474527D01*
X95431951Y-50478000D01*
X95314049Y-50478000D01*
X95278792Y-50474527D01*
X95137759Y-50460637D01*
X94911558Y-50392019D01*
X94911556Y-50392018D01*
X94911553Y-50392017D01*
X94703090Y-50280592D01*
X94520366Y-50130634D01*
X94370408Y-49947910D01*
X94258983Y-49739447D01*
X94256556Y-49731447D01*
X94190363Y-49513241D01*
X94167194Y-49278000D01*
X94190363Y-49042759D01*
X94258981Y-48816558D01*
X94258982Y-48816556D01*
X94258983Y-48816553D01*
X94370408Y-48608090D01*
X94520366Y-48425366D01*
X94703090Y-48275408D01*
X94911553Y-48163983D01*
X94911556Y-48163982D01*
X94911558Y-48163981D01*
X95137759Y-48095363D01*
X95278792Y-48081473D01*
X95314049Y-48078000D01*
X95431951Y-48078000D01*
X95467208Y-48081473D01*
X95467208Y-48081473D01*
G37*
G36*
X66655208Y-48073473D02*
X66796241Y-48087363D01*
X67022442Y-48155981D01*
X67022444Y-48155982D01*
X67022447Y-48155983D01*
X67230910Y-48267408D01*
X67413634Y-48417366D01*
X67563592Y-48600090D01*
X67675017Y-48808553D01*
X67675018Y-48808556D01*
X67675019Y-48808558D01*
X67743637Y-49034759D01*
X67766806Y-49270000D01*
X67743637Y-49505241D01*
X67675019Y-49731442D01*
X67675017Y-49731447D01*
X67563592Y-49939910D01*
X67413634Y-50122634D01*
X67230910Y-50272592D01*
X67022447Y-50384017D01*
X67022444Y-50384018D01*
X67022442Y-50384019D01*
X66796241Y-50452637D01*
X66655208Y-50466527D01*
X66619951Y-50470000D01*
X66502049Y-50470000D01*
X66466792Y-50466527D01*
X66325759Y-50452637D01*
X66099558Y-50384019D01*
X66099556Y-50384018D01*
X66099553Y-50384017D01*
X65891090Y-50272592D01*
X65708366Y-50122634D01*
X65558408Y-49939910D01*
X65446983Y-49731447D01*
X65446981Y-49731442D01*
X65378363Y-49505241D01*
X65355194Y-49270000D01*
X65378363Y-49034759D01*
X65446981Y-48808558D01*
X65446982Y-48808556D01*
X65446983Y-48808553D01*
X65558408Y-48600090D01*
X65708366Y-48417366D01*
X65891090Y-48267408D01*
X66099553Y-48155983D01*
X66099556Y-48155982D01*
X66099558Y-48155981D01*
X66325759Y-48087363D01*
X66466792Y-48073473D01*
X66502049Y-48070000D01*
X66619951Y-48070000D01*
X66655208Y-48073473D01*
X66655208Y-48073473D01*
G37*
G36*
X91295026Y-48116115D02*
X91513412Y-48206573D01*
X91709958Y-48337901D01*
X91877099Y-48505042D01*
X92008427Y-48701588D01*
X92098885Y-48919974D01*
X92145000Y-49151809D01*
X92145000Y-49388191D01*
X92098885Y-49620026D01*
X92008427Y-49838412D01*
X91877099Y-50034958D01*
X91709958Y-50202099D01*
X91513412Y-50333427D01*
X91295026Y-50423885D01*
X91063191Y-50470000D01*
X90826809Y-50470000D01*
X90594974Y-50423885D01*
X90376588Y-50333427D01*
X90180042Y-50202099D01*
X90012901Y-50034958D01*
X89881573Y-49838412D01*
X89791115Y-49620026D01*
X89745000Y-49388191D01*
X89745000Y-49151809D01*
X89791115Y-48919974D01*
X89881573Y-48701588D01*
X90012901Y-48505042D01*
X90180042Y-48337901D01*
X90376588Y-48206573D01*
X90594974Y-48116115D01*
X90826809Y-48070000D01*
X91063191Y-48070000D01*
X91295026Y-48116115D01*
X91295026Y-48116115D01*
G37*
G36*
X76755000Y-48550000D02*
X76155000Y-48550000D01*
X76155000Y-47000000D01*
X76755000Y-47000000D01*
X76755000Y-48550000D01*
X76755000Y-48550000D01*
G37*
G36*
X75485000Y-48550000D02*
X74885000Y-48550000D01*
X74885000Y-47000000D01*
X75485000Y-47000000D01*
X75485000Y-48550000D01*
X75485000Y-48550000D01*
G37*
G36*
X72945000Y-48550000D02*
X72345000Y-48550000D01*
X72345000Y-47000000D01*
X72945000Y-47000000D01*
X72945000Y-48550000D01*
X72945000Y-48550000D01*
G37*
G36*
X74215000Y-48550000D02*
X73615000Y-48550000D01*
X73615000Y-47000000D01*
X74215000Y-47000000D01*
X74215000Y-48550000D01*
X74215000Y-48550000D01*
G37*
G36*
X70064000Y-46796000D02*
X60664000Y-46796000D01*
X60664000Y-35996000D01*
X70064000Y-35996000D01*
X70064000Y-46796000D01*
X70064000Y-46796000D01*
G37*
G36*
X88206000Y-46796000D02*
X78806000Y-46796000D01*
X78806000Y-35996000D01*
X88206000Y-35996000D01*
X88206000Y-46796000D01*
X88206000Y-46796000D01*
G37*
G36*
X39246649Y-44921717D02*
X39285827Y-44925576D01*
X39349012Y-44944743D01*
X39436629Y-44971321D01*
X39575608Y-45045608D01*
X39697422Y-45145578D01*
X39797392Y-45267392D01*
X39871679Y-45406371D01*
X39917424Y-45557174D01*
X39932870Y-45714000D01*
X39917424Y-45870826D01*
X39871679Y-46021629D01*
X39797392Y-46160608D01*
X39697422Y-46282422D01*
X39575608Y-46382392D01*
X39436629Y-46456679D01*
X39361228Y-46479551D01*
X39285827Y-46502424D01*
X39246649Y-46506283D01*
X39168295Y-46514000D01*
X39089705Y-46514000D01*
X39011351Y-46506283D01*
X38972173Y-46502424D01*
X38896772Y-46479551D01*
X38821371Y-46456679D01*
X38682392Y-46382392D01*
X38560578Y-46282422D01*
X38460608Y-46160608D01*
X38386321Y-46021629D01*
X38340576Y-45870826D01*
X38325130Y-45714000D01*
X38340576Y-45557174D01*
X38386321Y-45406371D01*
X38460608Y-45267392D01*
X38560578Y-45145578D01*
X38682392Y-45045608D01*
X38821371Y-44971321D01*
X38908988Y-44944743D01*
X38972173Y-44925576D01*
X39011351Y-44921717D01*
X39089705Y-44914000D01*
X39168295Y-44914000D01*
X39246649Y-44921717D01*
X39246649Y-44921717D01*
G37*
G36*
X31742352Y-44944743D02*
X31887941Y-45005048D01*
X32018973Y-45092601D01*
X32130399Y-45204027D01*
X32217952Y-45335059D01*
X32278257Y-45480648D01*
X32309000Y-45635205D01*
X32309000Y-45792795D01*
X32278257Y-45947352D01*
X32217952Y-46092941D01*
X32130399Y-46223973D01*
X32018973Y-46335399D01*
X31887941Y-46422952D01*
X31742352Y-46483257D01*
X31587795Y-46514000D01*
X31430205Y-46514000D01*
X31275648Y-46483257D01*
X31130059Y-46422952D01*
X30999027Y-46335399D01*
X30887601Y-46223973D01*
X30800048Y-46092941D01*
X30739743Y-45947352D01*
X30709000Y-45792795D01*
X30709000Y-45635205D01*
X30739743Y-45480648D01*
X30800048Y-45335059D01*
X30887601Y-45204027D01*
X30999027Y-45092601D01*
X31130059Y-45005048D01*
X31275648Y-44944743D01*
X31430205Y-44914000D01*
X31587795Y-44914000D01*
X31742352Y-44944743D01*
X31742352Y-44944743D01*
G37*
G36*
X37389000Y-46514000D02*
X35789000Y-46514000D01*
X35789000Y-44914000D01*
X37389000Y-44914000D01*
X37389000Y-46514000D01*
X37389000Y-46514000D01*
G37*
G36*
X44876180Y-45217289D02*
X44981734Y-45261011D01*
X45076729Y-45324485D01*
X45157515Y-45405271D01*
X45220989Y-45500266D01*
X45264711Y-45605820D01*
X45287000Y-45717874D01*
X45287000Y-45832126D01*
X45264711Y-45944180D01*
X45220989Y-46049734D01*
X45157515Y-46144729D01*
X45076729Y-46225515D01*
X44981734Y-46288989D01*
X44876180Y-46332711D01*
X44764126Y-46355000D01*
X44649874Y-46355000D01*
X44537820Y-46332711D01*
X44432266Y-46288989D01*
X44337271Y-46225515D01*
X44256485Y-46144729D01*
X44193011Y-46049734D01*
X44149289Y-45944180D01*
X44127000Y-45832126D01*
X44127000Y-45717874D01*
X44149289Y-45605820D01*
X44193011Y-45500266D01*
X44256485Y-45405271D01*
X44337271Y-45324485D01*
X44432266Y-45261011D01*
X44537820Y-45217289D01*
X44649874Y-45195000D01*
X44764126Y-45195000D01*
X44876180Y-45217289D01*
X44876180Y-45217289D01*
G37*
G36*
X49976180Y-45217289D02*
X50081734Y-45261011D01*
X50176729Y-45324485D01*
X50257515Y-45405271D01*
X50320989Y-45500266D01*
X50364711Y-45605820D01*
X50387000Y-45717874D01*
X50387000Y-45832126D01*
X50364711Y-45944180D01*
X50320989Y-46049734D01*
X50257515Y-46144729D01*
X50176729Y-46225515D01*
X50081734Y-46288989D01*
X49976180Y-46332711D01*
X49864126Y-46355000D01*
X49749874Y-46355000D01*
X49637820Y-46332711D01*
X49532266Y-46288989D01*
X49437271Y-46225515D01*
X49356485Y-46144729D01*
X49293011Y-46049734D01*
X49249289Y-45944180D01*
X49227000Y-45832126D01*
X49227000Y-45717874D01*
X49249289Y-45605820D01*
X49293011Y-45500266D01*
X49356485Y-45405271D01*
X49437271Y-45324485D01*
X49532266Y-45261011D01*
X49637820Y-45217289D01*
X49749874Y-45195000D01*
X49864126Y-45195000D01*
X49976180Y-45217289D01*
X49976180Y-45217289D01*
G37*
G36*
X58514000Y-44486000D02*
X53914000Y-44486000D01*
X53914000Y-43386000D01*
X58514000Y-43386000D01*
X58514000Y-44486000D01*
X58514000Y-44486000D01*
G37*
G36*
X94956000Y-44486000D02*
X90356000Y-44486000D01*
X90356000Y-43386000D01*
X94956000Y-43386000D01*
X94956000Y-44486000D01*
X94956000Y-44486000D01*
G37*
G36*
X75485000Y-43150000D02*
X74885000Y-43150000D01*
X74885000Y-41600000D01*
X75485000Y-41600000D01*
X75485000Y-43150000D01*
X75485000Y-43150000D01*
G37*
G36*
X74215000Y-43150000D02*
X73615000Y-43150000D01*
X73615000Y-41600000D01*
X74215000Y-41600000D01*
X74215000Y-43150000D01*
X74215000Y-43150000D01*
G37*
G36*
X76755000Y-43150000D02*
X76155000Y-43150000D01*
X76155000Y-41600000D01*
X76755000Y-41600000D01*
X76755000Y-43150000D01*
X76755000Y-43150000D01*
G37*
G36*
X72945000Y-43150000D02*
X72345000Y-43150000D01*
X72345000Y-41600000D01*
X72945000Y-41600000D01*
X72945000Y-43150000D01*
X72945000Y-43150000D01*
G37*
G36*
X94956000Y-41946000D02*
X90356000Y-41946000D01*
X90356000Y-40846000D01*
X94956000Y-40846000D01*
X94956000Y-41946000D01*
X94956000Y-41946000D01*
G37*
G36*
X58514000Y-41946000D02*
X53914000Y-41946000D01*
X53914000Y-40846000D01*
X58514000Y-40846000D01*
X58514000Y-41946000D01*
X58514000Y-41946000D01*
G37*
G36*
X74683352Y-38380743D02*
X74828941Y-38441048D01*
X74959973Y-38528601D01*
X75071399Y-38640027D01*
X75158952Y-38771059D01*
X75219257Y-38916648D01*
X75250000Y-39071205D01*
X75250000Y-39228795D01*
X75219257Y-39383352D01*
X75158952Y-39528941D01*
X75071399Y-39659973D01*
X74959973Y-39771399D01*
X74828941Y-39858952D01*
X74683352Y-39919257D01*
X74528795Y-39950000D01*
X74371205Y-39950000D01*
X74216648Y-39919257D01*
X74071059Y-39858952D01*
X73940027Y-39771399D01*
X73828601Y-39659973D01*
X73741048Y-39528941D01*
X73680743Y-39383352D01*
X73650000Y-39228795D01*
X73650000Y-39071205D01*
X73680743Y-38916648D01*
X73741048Y-38771059D01*
X73828601Y-38640027D01*
X73940027Y-38528601D01*
X74071059Y-38441048D01*
X74216648Y-38380743D01*
X74371205Y-38350000D01*
X74528795Y-38350000D01*
X74683352Y-38380743D01*
X74683352Y-38380743D01*
G37*
G36*
X58514000Y-39406000D02*
X53914000Y-39406000D01*
X53914000Y-38306000D01*
X58514000Y-38306000D01*
X58514000Y-39406000D01*
X58514000Y-39406000D01*
G37*
G36*
X94956000Y-39406000D02*
X90356000Y-39406000D01*
X90356000Y-38306000D01*
X94956000Y-38306000D01*
X94956000Y-39406000D01*
X94956000Y-39406000D01*
G37*
G36*
X39246649Y-37301717D02*
X39285827Y-37305576D01*
X39361228Y-37328449D01*
X39436629Y-37351321D01*
X39575608Y-37425608D01*
X39697422Y-37525578D01*
X39797392Y-37647392D01*
X39871679Y-37786371D01*
X39917424Y-37937174D01*
X39932870Y-38094000D01*
X39917424Y-38250826D01*
X39871679Y-38401629D01*
X39797392Y-38540608D01*
X39697422Y-38662422D01*
X39575608Y-38762392D01*
X39436629Y-38836679D01*
X39361227Y-38859552D01*
X39285827Y-38882424D01*
X39246649Y-38886283D01*
X39168295Y-38894000D01*
X39089705Y-38894000D01*
X39011351Y-38886283D01*
X38972173Y-38882424D01*
X38896773Y-38859552D01*
X38821371Y-38836679D01*
X38682392Y-38762392D01*
X38560578Y-38662422D01*
X38460608Y-38540608D01*
X38386321Y-38401629D01*
X38340576Y-38250826D01*
X38325130Y-38094000D01*
X38340576Y-37937174D01*
X38386321Y-37786371D01*
X38460608Y-37647392D01*
X38560578Y-37525578D01*
X38682392Y-37425608D01*
X38821371Y-37351321D01*
X38896772Y-37328449D01*
X38972173Y-37305576D01*
X39011351Y-37301717D01*
X39089705Y-37294000D01*
X39168295Y-37294000D01*
X39246649Y-37301717D01*
X39246649Y-37301717D01*
G37*
G36*
X36706649Y-37301717D02*
X36745827Y-37305576D01*
X36821228Y-37328449D01*
X36896629Y-37351321D01*
X37035608Y-37425608D01*
X37157422Y-37525578D01*
X37257392Y-37647392D01*
X37331679Y-37786371D01*
X37377424Y-37937174D01*
X37392870Y-38094000D01*
X37377424Y-38250826D01*
X37331679Y-38401629D01*
X37257392Y-38540608D01*
X37157422Y-38662422D01*
X37035608Y-38762392D01*
X36896629Y-38836679D01*
X36821227Y-38859552D01*
X36745827Y-38882424D01*
X36706649Y-38886283D01*
X36628295Y-38894000D01*
X36549705Y-38894000D01*
X36471351Y-38886283D01*
X36432173Y-38882424D01*
X36356773Y-38859552D01*
X36281371Y-38836679D01*
X36142392Y-38762392D01*
X36020578Y-38662422D01*
X35920608Y-38540608D01*
X35846321Y-38401629D01*
X35800576Y-38250826D01*
X35785130Y-38094000D01*
X35800576Y-37937174D01*
X35846321Y-37786371D01*
X35920608Y-37647392D01*
X36020578Y-37525578D01*
X36142392Y-37425608D01*
X36281371Y-37351321D01*
X36356772Y-37328449D01*
X36432173Y-37305576D01*
X36471351Y-37301717D01*
X36549705Y-37294000D01*
X36628295Y-37294000D01*
X36706649Y-37301717D01*
X36706649Y-37301717D01*
G37*
G36*
X44876180Y-36967289D02*
X44981734Y-37011011D01*
X45076729Y-37074485D01*
X45157515Y-37155271D01*
X45220989Y-37250266D01*
X45264711Y-37355820D01*
X45287000Y-37467874D01*
X45287000Y-37582126D01*
X45264711Y-37694180D01*
X45220989Y-37799734D01*
X45157515Y-37894729D01*
X45076729Y-37975515D01*
X44981734Y-38038989D01*
X44876180Y-38082711D01*
X44764126Y-38105000D01*
X44649874Y-38105000D01*
X44537820Y-38082711D01*
X44432266Y-38038989D01*
X44337271Y-37975515D01*
X44256485Y-37894729D01*
X44193011Y-37799734D01*
X44149289Y-37694180D01*
X44127000Y-37582126D01*
X44127000Y-37467874D01*
X44149289Y-37355820D01*
X44193011Y-37250266D01*
X44256485Y-37155271D01*
X44337271Y-37074485D01*
X44432266Y-37011011D01*
X44537820Y-36967289D01*
X44649874Y-36945000D01*
X44764126Y-36945000D01*
X44876180Y-36967289D01*
X44876180Y-36967289D01*
G37*
G36*
X49976180Y-36967289D02*
X50081734Y-37011011D01*
X50176729Y-37074485D01*
X50257515Y-37155271D01*
X50320989Y-37250266D01*
X50364711Y-37355820D01*
X50387000Y-37467874D01*
X50387000Y-37582126D01*
X50364711Y-37694180D01*
X50320989Y-37799734D01*
X50257515Y-37894729D01*
X50176729Y-37975515D01*
X50081734Y-38038989D01*
X49976180Y-38082711D01*
X49864126Y-38105000D01*
X49749874Y-38105000D01*
X49637820Y-38082711D01*
X49532266Y-38038989D01*
X49437271Y-37975515D01*
X49356485Y-37894729D01*
X49293011Y-37799734D01*
X49249289Y-37694180D01*
X49227000Y-37582126D01*
X49227000Y-37467874D01*
X49249289Y-37355820D01*
X49293011Y-37250266D01*
X49356485Y-37155271D01*
X49437271Y-37074485D01*
X49532266Y-37011011D01*
X49637820Y-36967289D01*
X49749874Y-36945000D01*
X49864126Y-36945000D01*
X49976180Y-36967289D01*
X49976180Y-36967289D01*
G37*
G36*
X75250000Y-37450000D02*
X73650000Y-37450000D01*
X73650000Y-35850000D01*
X75250000Y-35850000D01*
X75250000Y-37450000D01*
X75250000Y-37450000D01*
G37*
G36*
X31626649Y-34761717D02*
X31665827Y-34765576D01*
X31741228Y-34788449D01*
X31816629Y-34811321D01*
X31955608Y-34885608D01*
X32077422Y-34985578D01*
X32177392Y-35107392D01*
X32251679Y-35246371D01*
X32297424Y-35397174D01*
X32312870Y-35554000D01*
X32297424Y-35710826D01*
X32251679Y-35861629D01*
X32177392Y-36000608D01*
X32077422Y-36122422D01*
X31955608Y-36222392D01*
X31816629Y-36296679D01*
X31741227Y-36319552D01*
X31665827Y-36342424D01*
X31626649Y-36346283D01*
X31548295Y-36354000D01*
X31469705Y-36354000D01*
X31391351Y-36346283D01*
X31352173Y-36342424D01*
X31276772Y-36319551D01*
X31201371Y-36296679D01*
X31062392Y-36222392D01*
X30940578Y-36122422D01*
X30840608Y-36000608D01*
X30766321Y-35861629D01*
X30720576Y-35710826D01*
X30705130Y-35554000D01*
X30720576Y-35397174D01*
X30766321Y-35246371D01*
X30840608Y-35107392D01*
X30940578Y-34985578D01*
X31062392Y-34885608D01*
X31201371Y-34811321D01*
X31276772Y-34788449D01*
X31352173Y-34765576D01*
X31391351Y-34761717D01*
X31469705Y-34754000D01*
X31548295Y-34754000D01*
X31626649Y-34761717D01*
X31626649Y-34761717D01*
G37*
G36*
X85191732Y-31630154D02*
X85191734Y-31630155D01*
X85191735Y-31630155D01*
X85269475Y-31662356D01*
X85405572Y-31718729D01*
X85598022Y-31847320D01*
X85761680Y-32010978D01*
X85890271Y-32203428D01*
X85978846Y-32417268D01*
X86024000Y-32644271D01*
X86024000Y-32875729D01*
X85978846Y-33102732D01*
X85890271Y-33316572D01*
X85761680Y-33509022D01*
X85598022Y-33672680D01*
X85405572Y-33801271D01*
X85270725Y-33857126D01*
X85191735Y-33889845D01*
X85191734Y-33889845D01*
X85191732Y-33889846D01*
X84964729Y-33935000D01*
X84733271Y-33935000D01*
X84506268Y-33889846D01*
X84506266Y-33889845D01*
X84506265Y-33889845D01*
X84427275Y-33857126D01*
X84292428Y-33801271D01*
X84099978Y-33672680D01*
X83936320Y-33509022D01*
X83807729Y-33316572D01*
X83719154Y-33102732D01*
X83674000Y-32875729D01*
X83674000Y-32644271D01*
X83719154Y-32417268D01*
X83807729Y-32203428D01*
X83936320Y-32010978D01*
X84099978Y-31847320D01*
X84292428Y-31718729D01*
X84428525Y-31662356D01*
X84506265Y-31630155D01*
X84506266Y-31630155D01*
X84506268Y-31630154D01*
X84733271Y-31585000D01*
X84964729Y-31585000D01*
X85191732Y-31630154D01*
X85191732Y-31630154D01*
G37*
G36*
X69871732Y-31630154D02*
X69871734Y-31630155D01*
X69871735Y-31630155D01*
X69949475Y-31662356D01*
X70085572Y-31718729D01*
X70278022Y-31847320D01*
X70441680Y-32010978D01*
X70570271Y-32203428D01*
X70658846Y-32417268D01*
X70704000Y-32644271D01*
X70704000Y-32875729D01*
X70658846Y-33102732D01*
X70570271Y-33316572D01*
X70441680Y-33509022D01*
X70278022Y-33672680D01*
X70085572Y-33801271D01*
X69950725Y-33857126D01*
X69871735Y-33889845D01*
X69871734Y-33889845D01*
X69871732Y-33889846D01*
X69644729Y-33935000D01*
X69413271Y-33935000D01*
X69186268Y-33889846D01*
X69186266Y-33889845D01*
X69186265Y-33889845D01*
X69107275Y-33857126D01*
X68972428Y-33801271D01*
X68779978Y-33672680D01*
X68616320Y-33509022D01*
X68487729Y-33316572D01*
X68399154Y-33102732D01*
X68354000Y-32875729D01*
X68354000Y-32644271D01*
X68399154Y-32417268D01*
X68487729Y-32203428D01*
X68616320Y-32010978D01*
X68779978Y-31847320D01*
X68972428Y-31718729D01*
X69108525Y-31662356D01*
X69186265Y-31630155D01*
X69186266Y-31630155D01*
X69186268Y-31630154D01*
X69413271Y-31585000D01*
X69644729Y-31585000D01*
X69871732Y-31630154D01*
X69871732Y-31630154D01*
G37*
G36*
X45057935Y-28758429D02*
X45154534Y-28777644D01*
X45427517Y-28890717D01*
X45669920Y-29052687D01*
X45673197Y-29054876D01*
X45882124Y-29263803D01*
X46046284Y-29509485D01*
X46159356Y-29782467D01*
X46217000Y-30072261D01*
X46217000Y-30367739D01*
X46159356Y-30657533D01*
X46046284Y-30930515D01*
X45882124Y-31176197D01*
X45673197Y-31385124D01*
X45673194Y-31385126D01*
X45427517Y-31549283D01*
X45154534Y-31662356D01*
X45057935Y-31681571D01*
X44864739Y-31720000D01*
X44569261Y-31720000D01*
X44376065Y-31681571D01*
X44279466Y-31662356D01*
X44006483Y-31549283D01*
X43760806Y-31385126D01*
X43760803Y-31385124D01*
X43551876Y-31176197D01*
X43387716Y-30930515D01*
X43274644Y-30657533D01*
X43217000Y-30367739D01*
X43217000Y-30072261D01*
X43274644Y-29782467D01*
X43387716Y-29509485D01*
X43551876Y-29263803D01*
X43760803Y-29054876D01*
X43764080Y-29052687D01*
X44006483Y-28890717D01*
X44279466Y-28777644D01*
X44376065Y-28758429D01*
X44569261Y-28720000D01*
X44864739Y-28720000D01*
X45057935Y-28758429D01*
X45057935Y-28758429D01*
G37*
G36*
X41137000Y-31720000D02*
X38137000Y-31720000D01*
X38137000Y-28720000D01*
X41137000Y-28720000D01*
X41137000Y-31720000D01*
X41137000Y-31720000D01*
G37*
G36*
X61313935Y-28758429D02*
X61410534Y-28777644D01*
X61683517Y-28890717D01*
X61925920Y-29052687D01*
X61929197Y-29054876D01*
X62138124Y-29263803D01*
X62302284Y-29509485D01*
X62415356Y-29782467D01*
X62473000Y-30072261D01*
X62473000Y-30367739D01*
X62415356Y-30657533D01*
X62302284Y-30930515D01*
X62138124Y-31176197D01*
X61929197Y-31385124D01*
X61929194Y-31385126D01*
X61683517Y-31549283D01*
X61410534Y-31662356D01*
X61313935Y-31681571D01*
X61120739Y-31720000D01*
X60825261Y-31720000D01*
X60632065Y-31681571D01*
X60535466Y-31662356D01*
X60262483Y-31549283D01*
X60016806Y-31385126D01*
X60016803Y-31385124D01*
X59807876Y-31176197D01*
X59643716Y-30930515D01*
X59530644Y-30657533D01*
X59473000Y-30367739D01*
X59473000Y-30072261D01*
X59530644Y-29782467D01*
X59643716Y-29509485D01*
X59807876Y-29263803D01*
X60016803Y-29054876D01*
X60020080Y-29052687D01*
X60262483Y-28890717D01*
X60535466Y-28777644D01*
X60632065Y-28758429D01*
X60825261Y-28720000D01*
X61120739Y-28720000D01*
X61313935Y-28758429D01*
X61313935Y-28758429D01*
G37*
G36*
X57393000Y-31720000D02*
X54393000Y-31720000D01*
X54393000Y-28720000D01*
X57393000Y-28720000D01*
X57393000Y-31720000D01*
X57393000Y-31720000D01*
G37*
G36*
X50137935Y-28758429D02*
X50234534Y-28777644D01*
X50507517Y-28890717D01*
X50749920Y-29052687D01*
X50753197Y-29054876D01*
X50962124Y-29263803D01*
X51126284Y-29509485D01*
X51239356Y-29782467D01*
X51297000Y-30072261D01*
X51297000Y-30367739D01*
X51239356Y-30657533D01*
X51126284Y-30930515D01*
X50962124Y-31176197D01*
X50753197Y-31385124D01*
X50753194Y-31385126D01*
X50507517Y-31549283D01*
X50234534Y-31662356D01*
X50137935Y-31681571D01*
X49944739Y-31720000D01*
X49649261Y-31720000D01*
X49456065Y-31681571D01*
X49359466Y-31662356D01*
X49086483Y-31549283D01*
X48840806Y-31385126D01*
X48840803Y-31385124D01*
X48631876Y-31176197D01*
X48467716Y-30930515D01*
X48354644Y-30657533D01*
X48297000Y-30367739D01*
X48297000Y-30072261D01*
X48354644Y-29782467D01*
X48467716Y-29509485D01*
X48631876Y-29263803D01*
X48840803Y-29054876D01*
X48844080Y-29052687D01*
X49086483Y-28890717D01*
X49359466Y-28777644D01*
X49456065Y-28758429D01*
X49649261Y-28720000D01*
X49944739Y-28720000D01*
X50137935Y-28758429D01*
X50137935Y-28758429D01*
G37*
G36*
X85191732Y-26550154D02*
X85191734Y-26550155D01*
X85191735Y-26550155D01*
X85270725Y-26582874D01*
X85405572Y-26638729D01*
X85598022Y-26767320D01*
X85761680Y-26930978D01*
X85890271Y-27123428D01*
X85978846Y-27337268D01*
X86024000Y-27564271D01*
X86024000Y-27795729D01*
X85978846Y-28022732D01*
X85890271Y-28236572D01*
X85761680Y-28429022D01*
X85598022Y-28592680D01*
X85405572Y-28721271D01*
X85270725Y-28777126D01*
X85191735Y-28809845D01*
X85191734Y-28809845D01*
X85191732Y-28809846D01*
X84964729Y-28855000D01*
X84733271Y-28855000D01*
X84506268Y-28809846D01*
X84506266Y-28809845D01*
X84506265Y-28809845D01*
X84427275Y-28777126D01*
X84292428Y-28721271D01*
X84099978Y-28592680D01*
X83936320Y-28429022D01*
X83807729Y-28236572D01*
X83719154Y-28022732D01*
X83674000Y-27795729D01*
X83674000Y-27564271D01*
X83719154Y-27337268D01*
X83807729Y-27123428D01*
X83936320Y-26930978D01*
X84099978Y-26767320D01*
X84292428Y-26638729D01*
X84427275Y-26582874D01*
X84506265Y-26550155D01*
X84506266Y-26550155D01*
X84506268Y-26550154D01*
X84733271Y-26505000D01*
X84964729Y-26505000D01*
X85191732Y-26550154D01*
X85191732Y-26550154D01*
G37*
G36*
X69871732Y-26550154D02*
X69871734Y-26550155D01*
X69871735Y-26550155D01*
X69950725Y-26582874D01*
X70085572Y-26638729D01*
X70278022Y-26767320D01*
X70441680Y-26930978D01*
X70570271Y-27123428D01*
X70658846Y-27337268D01*
X70704000Y-27564271D01*
X70704000Y-27795729D01*
X70658846Y-28022732D01*
X70570271Y-28236572D01*
X70441680Y-28429022D01*
X70278022Y-28592680D01*
X70085572Y-28721271D01*
X69950725Y-28777126D01*
X69871735Y-28809845D01*
X69871734Y-28809845D01*
X69871732Y-28809846D01*
X69644729Y-28855000D01*
X69413271Y-28855000D01*
X69186268Y-28809846D01*
X69186266Y-28809845D01*
X69186265Y-28809845D01*
X69107275Y-28777126D01*
X68972428Y-28721271D01*
X68779978Y-28592680D01*
X68616320Y-28429022D01*
X68487729Y-28236572D01*
X68399154Y-28022732D01*
X68354000Y-27795729D01*
X68354000Y-27564271D01*
X68399154Y-27337268D01*
X68487729Y-27123428D01*
X68616320Y-26930978D01*
X68779978Y-26767320D01*
X68972428Y-26638729D01*
X69107275Y-26582874D01*
X69186265Y-26550155D01*
X69186266Y-26550155D01*
X69186268Y-26550154D01*
X69413271Y-26505000D01*
X69644729Y-26505000D01*
X69871732Y-26550154D01*
X69871732Y-26550154D01*
G37*
M02*
