G04 #@! TF.GenerationSoftware,KiCad,Pcbnew,5.0.2+dfsg1-1*
G04 #@! TF.CreationDate,2019-06-14T16:53:16+02:00*
G04 #@! TF.ProjectId,mains-light-controller,6d61696e-732d-46c6-9967-68742d636f6e,v1.0.1*
G04 #@! TF.SameCoordinates,Original*
G04 #@! TF.FileFunction,Copper,L2,Bot*
G04 #@! TF.FilePolarity,Positive*
%FSLAX46Y46*%
G04 Gerber Fmt 4.6, Leading zero omitted, Abs format (unit mm)*
G04 Created by KiCad (PCBNEW 5.0.2+dfsg1-1) date fre 14 jun 2019 16:53:16 CEST*
%MOMM*%
%LPD*%
G01*
G04 APERTURE LIST*
G04 #@! TA.AperFunction,ComponentPad*
%ADD10C,2.350000*%
G04 #@! TD*
G04 #@! TA.AperFunction,ComponentPad*
%ADD11R,1.160000X1.160000*%
G04 #@! TD*
G04 #@! TA.AperFunction,ComponentPad*
%ADD12C,1.160000*%
G04 #@! TD*
G04 #@! TA.AperFunction,ComponentPad*
%ADD13C,2.524000*%
G04 #@! TD*
G04 #@! TA.AperFunction,ComponentPad*
%ADD14O,2.000000X1.905000*%
G04 #@! TD*
G04 #@! TA.AperFunction,ComponentPad*
%ADD15R,2.000000X1.905000*%
G04 #@! TD*
G04 #@! TA.AperFunction,ComponentPad*
%ADD16C,1.600000*%
G04 #@! TD*
G04 #@! TA.AperFunction,ComponentPad*
%ADD17C,1.800000*%
G04 #@! TD*
G04 #@! TA.AperFunction,ComponentPad*
%ADD18C,2.200000*%
G04 #@! TD*
G04 #@! TA.AperFunction,ComponentPad*
%ADD19C,2.000000*%
G04 #@! TD*
G04 #@! TA.AperFunction,ComponentPad*
%ADD20C,1.200000*%
G04 #@! TD*
G04 #@! TA.AperFunction,ComponentPad*
%ADD21R,1.200000X1.200000*%
G04 #@! TD*
G04 #@! TA.AperFunction,ComponentPad*
%ADD22R,3.000000X3.000000*%
G04 #@! TD*
G04 #@! TA.AperFunction,ComponentPad*
%ADD23C,3.000000*%
G04 #@! TD*
G04 #@! TA.AperFunction,ComponentPad*
%ADD24O,1.600000X1.600000*%
G04 #@! TD*
G04 #@! TA.AperFunction,ComponentPad*
%ADD25R,1.600000X1.600000*%
G04 #@! TD*
G04 #@! TA.AperFunction,Conductor*
%ADD26C,2.000000*%
G04 #@! TD*
G04 #@! TA.AperFunction,Conductor*
%ADD27C,3.000000*%
G04 #@! TD*
G04 #@! TA.AperFunction,Conductor*
%ADD28C,0.254000*%
G04 #@! TD*
G04 APERTURE END LIST*
D10*
G04 #@! TO.P,F1,2*
G04 #@! TO.N,Net-(F1-Pad2)*
X63720000Y-87800000D03*
X63720000Y-92880000D03*
G04 #@! TO.P,F1,1*
G04 #@! TO.N,L_OUT*
X48400000Y-87800000D03*
X48400000Y-92880000D03*
G04 #@! TD*
D11*
G04 #@! TO.P,BR1,1*
G04 #@! TO.N,Net-(BR1-Pad1)*
X72350000Y-73675000D03*
D12*
G04 #@! TO.P,BR1,2*
G04 #@! TO.N,Net-(BR1-Pad2)*
X67250000Y-73675000D03*
G04 #@! TO.P,BR1,3*
G04 #@! TO.N,N_MAIN*
X67250000Y-81925000D03*
G04 #@! TO.P,BR1,4*
G04 #@! TO.N,M1_IN*
X72350000Y-81925000D03*
G04 #@! TD*
D13*
G04 #@! TO.P,Q1,5*
G04 #@! TO.N,N/C*
X31290000Y-71260000D03*
G04 #@! TO.P,Q1,4*
X31289999Y-89260000D03*
D14*
G04 #@! TO.P,Q1,3*
G04 #@! TO.N,Net-(Q1-Pad3)*
X37600000Y-77720000D03*
G04 #@! TO.P,Q1,2*
G04 #@! TO.N,M2_IN*
X37600000Y-80260000D03*
D15*
G04 #@! TO.P,Q1,1*
G04 #@! TO.N,L_OUT*
X37600000Y-82800000D03*
G04 #@! TD*
D16*
G04 #@! TO.P,R7,1*
G04 #@! TO.N,+3V3*
X91800000Y-35200000D03*
G04 #@! TO.P,R7,2*
G04 #@! TO.N,A0*
X91800000Y-32200000D03*
G04 #@! TD*
D17*
G04 #@! TO.P,U4,16*
G04 #@! TO.N,+3V3*
X56110000Y-21570000D03*
G04 #@! TO.P,U4,1*
G04 #@! TO.N,+5V*
X56110000Y-44430000D03*
G04 #@! TO.P,U4,15*
G04 #@! TO.N,D8*
X58650000Y-21570000D03*
G04 #@! TO.P,U4,2*
G04 #@! TO.N,GND*
X58650000Y-44430000D03*
G04 #@! TO.P,U4,14*
G04 #@! TO.N,D7*
X61190000Y-21570000D03*
G04 #@! TO.P,U4,3*
G04 #@! TO.N,D4*
X61190000Y-44430000D03*
G04 #@! TO.P,U4,13*
G04 #@! TO.N,D6*
X63730000Y-21570000D03*
G04 #@! TO.P,U4,4*
G04 #@! TO.N,D3*
X63730000Y-44430000D03*
G04 #@! TO.P,U4,12*
G04 #@! TO.N,D5*
X66270000Y-21570000D03*
G04 #@! TO.P,U4,5*
G04 #@! TO.N,D2*
X66270000Y-44430000D03*
G04 #@! TO.P,U4,11*
G04 #@! TO.N,D0*
X68810000Y-21570000D03*
G04 #@! TO.P,U4,6*
G04 #@! TO.N,D1*
X68810000Y-44430000D03*
G04 #@! TO.P,U4,10*
G04 #@! TO.N,A0*
X71350000Y-21570000D03*
G04 #@! TO.P,U4,7*
G04 #@! TO.N,RX*
X71350000Y-44430000D03*
G04 #@! TO.P,U4,9*
G04 #@! TO.N,RST*
X73890000Y-21570000D03*
G04 #@! TO.P,U4,8*
G04 #@! TO.N,TX*
X73890000Y-44430000D03*
G04 #@! TD*
D18*
G04 #@! TO.P,U2,4*
G04 #@! TO.N,+5V*
X107700000Y-50300000D03*
G04 #@! TO.P,U2,3*
G04 #@! TO.N,GND*
X92300000Y-50300000D03*
G04 #@! TO.P,U2,2*
G04 #@! TO.N,N_MAIN*
X102500000Y-79700000D03*
G04 #@! TO.P,U2,1*
G04 #@! TO.N,M2_IN*
X97500000Y-79700000D03*
G04 #@! TD*
D19*
G04 #@! TO.P,SW1,2*
G04 #@! TO.N,+3V3*
X37700000Y-50600000D03*
G04 #@! TO.P,SW1,1*
G04 #@! TO.N,D3*
X42200000Y-50600000D03*
G04 #@! TO.P,SW1,2*
G04 #@! TO.N,+3V3*
X37700000Y-57100000D03*
G04 #@! TO.P,SW1,1*
G04 #@! TO.N,D3*
X42200000Y-57100000D03*
G04 #@! TD*
D20*
G04 #@! TO.P,C1,2*
G04 #@! TO.N,GND*
X62865000Y-55500000D03*
D21*
G04 #@! TO.P,C1,1*
G04 #@! TO.N,D1*
X62865000Y-57000000D03*
G04 #@! TD*
D16*
G04 #@! TO.P,C5,1*
G04 #@! TO.N,Net-(C5-Pad1)*
X53400000Y-82800000D03*
G04 #@! TO.P,C5,2*
G04 #@! TO.N,L_OUT*
X48400000Y-82800000D03*
G04 #@! TD*
D22*
G04 #@! TO.P,J1,1*
G04 #@! TO.N,M2_IN*
X77400000Y-103800000D03*
D23*
G04 #@! TO.P,J1,2*
G04 #@! TO.N,M1_IN*
X72320000Y-103800000D03*
G04 #@! TO.P,J1,3*
G04 #@! TO.N,N_MAIN*
X67240000Y-103800000D03*
G04 #@! TD*
D22*
G04 #@! TO.P,J2,1*
G04 #@! TO.N,N_MAIN*
X59400000Y-103800000D03*
D23*
G04 #@! TO.P,J2,2*
G04 #@! TO.N,Net-(F1-Pad2)*
X54320000Y-103800000D03*
G04 #@! TD*
D24*
G04 #@! TO.P,U1,4*
G04 #@! TO.N,D1*
X62800000Y-61180000D03*
G04 #@! TO.P,U1,2*
G04 #@! TO.N,Net-(BR1-Pad2)*
X65340000Y-68800000D03*
G04 #@! TO.P,U1,3*
G04 #@! TO.N,GND*
X65340000Y-61180000D03*
D25*
G04 #@! TO.P,U1,1*
G04 #@! TO.N,Net-(R1-Pad1)*
X62800000Y-68800000D03*
G04 #@! TD*
D24*
G04 #@! TO.P,U3,6*
G04 #@! TO.N,Net-(R3-Pad2)*
X53600000Y-68820000D03*
G04 #@! TO.P,U3,3*
G04 #@! TO.N,Net-(U3-Pad3)*
X48520000Y-61200000D03*
G04 #@! TO.P,U3,5*
G04 #@! TO.N,Net-(U3-Pad5)*
X51060000Y-68820000D03*
G04 #@! TO.P,U3,2*
G04 #@! TO.N,GND*
X51060000Y-61200000D03*
G04 #@! TO.P,U3,4*
G04 #@! TO.N,Net-(Q1-Pad3)*
X48520000Y-68820000D03*
D25*
G04 #@! TO.P,U3,1*
G04 #@! TO.N,Net-(R5-Pad1)*
X53600000Y-61200000D03*
G04 #@! TD*
D26*
G04 #@! TO.N,M2_IN*
X34600000Y-80260000D02*
X37600000Y-80260000D01*
X34290000Y-80570000D02*
X34600000Y-80260000D01*
X49530000Y-96520000D02*
X46990000Y-96520000D01*
X50800000Y-97790000D02*
X49530000Y-96520000D01*
X50800000Y-105410000D02*
X50800000Y-97790000D01*
X44450000Y-88900000D02*
X41910000Y-86360000D01*
X46990000Y-96520000D02*
X44450000Y-93980000D01*
X44450000Y-93980000D02*
X44450000Y-88900000D01*
X34290000Y-85090000D02*
X34290000Y-80570000D01*
X41910000Y-86360000D02*
X35560000Y-86360000D01*
X35560000Y-86360000D02*
X34290000Y-85090000D01*
X77400000Y-107300000D02*
X76750000Y-107950000D01*
X77400000Y-103800000D02*
X77400000Y-107300000D01*
X53340000Y-107950000D02*
X50800000Y-105410000D01*
X76750000Y-107950000D02*
X53340000Y-107950000D01*
G04 #@! TO.N,L_OUT*
X37600000Y-82800000D02*
X48400000Y-82800000D01*
X48400000Y-92880000D02*
X48400000Y-82800000D01*
D27*
G04 #@! TO.N,N_MAIN*
X59400000Y-103800000D02*
X67240000Y-103800000D01*
D26*
G04 #@! TO.N,Net-(F1-Pad2)*
X63720000Y-90170000D02*
X63720000Y-92880000D01*
X63720000Y-87800000D02*
X63720000Y-90170000D01*
X54320000Y-93000000D02*
X54320000Y-103800000D01*
X63720000Y-90170000D02*
X57150000Y-90170000D01*
X57150000Y-90170000D02*
X54320000Y-93000000D01*
G04 #@! TD*
D28*
G04 #@! TO.N,GND*
G36*
X68093375Y-15832213D02*
X70833171Y-16081554D01*
X73554777Y-16483446D01*
X76249706Y-17036635D01*
X78909552Y-17739397D01*
X81526022Y-18589540D01*
X84090955Y-19584412D01*
X86596355Y-20720911D01*
X89034406Y-21995494D01*
X91397507Y-23404185D01*
X93678288Y-24942591D01*
X95869637Y-26605915D01*
X97964719Y-28388970D01*
X99957002Y-30286196D01*
X101840273Y-32291675D01*
X103608658Y-34399155D01*
X105256643Y-36602062D01*
X106779089Y-38893527D01*
X108171249Y-41266405D01*
X109428779Y-43713296D01*
X110547760Y-46226568D01*
X111524702Y-48798385D01*
X112356557Y-51420726D01*
X113040733Y-54085413D01*
X113575095Y-56784138D01*
X113957977Y-59508483D01*
X114188184Y-62249954D01*
X114200001Y-62673000D01*
X15808503Y-62673000D01*
X15855007Y-61563447D01*
X15890643Y-61200000D01*
X47056887Y-61200000D01*
X47168260Y-61759909D01*
X47485423Y-62234577D01*
X47960091Y-62551740D01*
X48378667Y-62635000D01*
X48661333Y-62635000D01*
X49079909Y-62551740D01*
X49554577Y-62234577D01*
X49810947Y-61850892D01*
X49907611Y-62055134D01*
X50322577Y-62431041D01*
X50710961Y-62591904D01*
X50933000Y-62469915D01*
X50933000Y-61327000D01*
X50913000Y-61327000D01*
X50913000Y-61073000D01*
X50933000Y-61073000D01*
X50933000Y-59930085D01*
X51187000Y-59930085D01*
X51187000Y-61073000D01*
X51207000Y-61073000D01*
X51207000Y-61327000D01*
X51187000Y-61327000D01*
X51187000Y-62469915D01*
X51409039Y-62591904D01*
X51797423Y-62431041D01*
X52170987Y-62092639D01*
X52201843Y-62247765D01*
X52342191Y-62457809D01*
X52552235Y-62598157D01*
X52800000Y-62647440D01*
X54400000Y-62647440D01*
X54647765Y-62598157D01*
X54857809Y-62457809D01*
X54998157Y-62247765D01*
X55047440Y-62000000D01*
X55047440Y-61180000D01*
X61336887Y-61180000D01*
X61448260Y-61739909D01*
X61765423Y-62214577D01*
X62240091Y-62531740D01*
X62658667Y-62615000D01*
X62941333Y-62615000D01*
X63359909Y-62531740D01*
X63834577Y-62214577D01*
X64090947Y-61830892D01*
X64187611Y-62035134D01*
X64602577Y-62411041D01*
X64990961Y-62571904D01*
X65213000Y-62449915D01*
X65213000Y-61307000D01*
X65467000Y-61307000D01*
X65467000Y-62449915D01*
X65689039Y-62571904D01*
X66077423Y-62411041D01*
X66492389Y-62035134D01*
X66731914Y-61529041D01*
X66610629Y-61307000D01*
X65467000Y-61307000D01*
X65213000Y-61307000D01*
X65193000Y-61307000D01*
X65193000Y-61053000D01*
X65213000Y-61053000D01*
X65213000Y-59910085D01*
X65467000Y-59910085D01*
X65467000Y-61053000D01*
X66610629Y-61053000D01*
X66731914Y-60830959D01*
X66492389Y-60324866D01*
X66077423Y-59948959D01*
X65689039Y-59788096D01*
X65467000Y-59910085D01*
X65213000Y-59910085D01*
X64990961Y-59788096D01*
X64602577Y-59948959D01*
X64187611Y-60324866D01*
X64090947Y-60529108D01*
X63834577Y-60145423D01*
X63359909Y-59828260D01*
X62941333Y-59745000D01*
X62658667Y-59745000D01*
X62240091Y-59828260D01*
X61765423Y-60145423D01*
X61448260Y-60620091D01*
X61336887Y-61180000D01*
X55047440Y-61180000D01*
X55047440Y-60400000D01*
X54998157Y-60152235D01*
X54857809Y-59942191D01*
X54647765Y-59801843D01*
X54400000Y-59752560D01*
X52800000Y-59752560D01*
X52552235Y-59801843D01*
X52342191Y-59942191D01*
X52201843Y-60152235D01*
X52170987Y-60307361D01*
X51797423Y-59968959D01*
X51409039Y-59808096D01*
X51187000Y-59930085D01*
X50933000Y-59930085D01*
X50710961Y-59808096D01*
X50322577Y-59968959D01*
X49907611Y-60344866D01*
X49810947Y-60549108D01*
X49554577Y-60165423D01*
X49079909Y-59848260D01*
X48661333Y-59765000D01*
X48378667Y-59765000D01*
X47960091Y-59848260D01*
X47485423Y-60165423D01*
X47168260Y-60640091D01*
X47056887Y-61200000D01*
X15890643Y-61200000D01*
X16123469Y-58825458D01*
X16440930Y-56774778D01*
X36065000Y-56774778D01*
X36065000Y-57425222D01*
X36313914Y-58026153D01*
X36773847Y-58486086D01*
X37374778Y-58735000D01*
X38025222Y-58735000D01*
X38626153Y-58486086D01*
X39086086Y-58026153D01*
X39335000Y-57425222D01*
X39335000Y-56774778D01*
X40565000Y-56774778D01*
X40565000Y-57425222D01*
X40813914Y-58026153D01*
X41273847Y-58486086D01*
X41874778Y-58735000D01*
X42525222Y-58735000D01*
X43126153Y-58486086D01*
X43586086Y-58026153D01*
X43835000Y-57425222D01*
X43835000Y-56774778D01*
X43586086Y-56173847D01*
X43126153Y-55713914D01*
X42525222Y-55465000D01*
X41874778Y-55465000D01*
X41273847Y-55713914D01*
X40813914Y-56173847D01*
X40565000Y-56774778D01*
X39335000Y-56774778D01*
X39086086Y-56173847D01*
X38626153Y-55713914D01*
X38025222Y-55465000D01*
X37374778Y-55465000D01*
X36773847Y-55713914D01*
X36313914Y-56173847D01*
X36065000Y-56774778D01*
X16440930Y-56774778D01*
X16544351Y-56106724D01*
X16709228Y-55331036D01*
X61617193Y-55331036D01*
X61647518Y-55821413D01*
X61739505Y-56043490D01*
X61666843Y-56152235D01*
X61617560Y-56400000D01*
X61617560Y-57600000D01*
X61666843Y-57847765D01*
X61807191Y-58057809D01*
X62017235Y-58198157D01*
X62265000Y-58247440D01*
X63465000Y-58247440D01*
X63712765Y-58198157D01*
X63922809Y-58057809D01*
X64063157Y-57847765D01*
X64112440Y-57600000D01*
X64112440Y-56400000D01*
X64063157Y-56152235D01*
X63986291Y-56037198D01*
X64112807Y-55668964D01*
X64082482Y-55178587D01*
X63953164Y-54866383D01*
X63727735Y-54816870D01*
X63044605Y-55500000D01*
X63058748Y-55514143D01*
X62879143Y-55693748D01*
X62865000Y-55679605D01*
X62850858Y-55693748D01*
X62671253Y-55514143D01*
X62685395Y-55500000D01*
X62002265Y-54816870D01*
X61776836Y-54866383D01*
X61617193Y-55331036D01*
X16709228Y-55331036D01*
X16856693Y-54637265D01*
X62181870Y-54637265D01*
X62865000Y-55320395D01*
X63548130Y-54637265D01*
X63498617Y-54411836D01*
X63033964Y-54252193D01*
X62543587Y-54282518D01*
X62231383Y-54411836D01*
X62181870Y-54637265D01*
X16856693Y-54637265D01*
X17116341Y-53415724D01*
X17837655Y-50760849D01*
X17999349Y-50274778D01*
X36065000Y-50274778D01*
X36065000Y-50925222D01*
X36313914Y-51526153D01*
X36773847Y-51986086D01*
X37374778Y-52235000D01*
X38025222Y-52235000D01*
X38626153Y-51986086D01*
X39086086Y-51526153D01*
X39335000Y-50925222D01*
X39335000Y-50274778D01*
X40565000Y-50274778D01*
X40565000Y-50925222D01*
X40813914Y-51526153D01*
X41273847Y-51986086D01*
X41874778Y-52235000D01*
X42525222Y-52235000D01*
X43126153Y-51986086D01*
X43586086Y-51526153D01*
X43586618Y-51524868D01*
X91254737Y-51524868D01*
X91365641Y-51802099D01*
X92011593Y-52045323D01*
X92701453Y-52022836D01*
X93234359Y-51802099D01*
X93345263Y-51524868D01*
X92300000Y-50479605D01*
X91254737Y-51524868D01*
X43586618Y-51524868D01*
X43835000Y-50925222D01*
X43835000Y-50274778D01*
X43725986Y-50011593D01*
X90554677Y-50011593D01*
X90577164Y-50701453D01*
X90797901Y-51234359D01*
X91075132Y-51345263D01*
X92120395Y-50300000D01*
X92479605Y-50300000D01*
X93524868Y-51345263D01*
X93802099Y-51234359D01*
X94045323Y-50588407D01*
X94024673Y-49954887D01*
X105965000Y-49954887D01*
X105965000Y-50645113D01*
X106229138Y-51282799D01*
X106717201Y-51770862D01*
X107354887Y-52035000D01*
X108045113Y-52035000D01*
X108682799Y-51770862D01*
X109170862Y-51282799D01*
X109435000Y-50645113D01*
X109435000Y-49954887D01*
X109170862Y-49317201D01*
X108682799Y-48829138D01*
X108045113Y-48565000D01*
X107354887Y-48565000D01*
X106717201Y-48829138D01*
X106229138Y-49317201D01*
X105965000Y-49954887D01*
X94024673Y-49954887D01*
X94022836Y-49898547D01*
X93802099Y-49365641D01*
X93524868Y-49254737D01*
X92479605Y-50300000D01*
X92120395Y-50300000D01*
X91075132Y-49254737D01*
X90797901Y-49365641D01*
X90554677Y-50011593D01*
X43725986Y-50011593D01*
X43586086Y-49673847D01*
X43126153Y-49213914D01*
X42791104Y-49075132D01*
X91254737Y-49075132D01*
X92300000Y-50120395D01*
X93345263Y-49075132D01*
X93234359Y-48797901D01*
X92588407Y-48554677D01*
X91898547Y-48577164D01*
X91365641Y-48797901D01*
X91254737Y-49075132D01*
X42791104Y-49075132D01*
X42525222Y-48965000D01*
X41874778Y-48965000D01*
X41273847Y-49213914D01*
X40813914Y-49673847D01*
X40565000Y-50274778D01*
X39335000Y-50274778D01*
X39086086Y-49673847D01*
X38626153Y-49213914D01*
X38025222Y-48965000D01*
X37374778Y-48965000D01*
X36773847Y-49213914D01*
X36313914Y-49673847D01*
X36065000Y-50274778D01*
X17999349Y-50274778D01*
X18706043Y-48150378D01*
X19718798Y-45592452D01*
X20397008Y-44124670D01*
X54575000Y-44124670D01*
X54575000Y-44735330D01*
X54808690Y-45299507D01*
X55240493Y-45731310D01*
X55804670Y-45965000D01*
X56415330Y-45965000D01*
X56979507Y-45731310D01*
X57200658Y-45510159D01*
X57749446Y-45510159D01*
X57835852Y-45766643D01*
X58409336Y-45976458D01*
X59019460Y-45950839D01*
X59464148Y-45766643D01*
X59550554Y-45510159D01*
X58650000Y-44609605D01*
X57749446Y-45510159D01*
X57200658Y-45510159D01*
X57411310Y-45299507D01*
X57419438Y-45279885D01*
X57569841Y-45330554D01*
X58470395Y-44430000D01*
X58829605Y-44430000D01*
X59730159Y-45330554D01*
X59880562Y-45279885D01*
X59888690Y-45299507D01*
X60320493Y-45731310D01*
X60884670Y-45965000D01*
X61495330Y-45965000D01*
X62059507Y-45731310D01*
X62460000Y-45330817D01*
X62860493Y-45731310D01*
X63424670Y-45965000D01*
X64035330Y-45965000D01*
X64599507Y-45731310D01*
X65000000Y-45330817D01*
X65400493Y-45731310D01*
X65964670Y-45965000D01*
X66575330Y-45965000D01*
X67139507Y-45731310D01*
X67540000Y-45330817D01*
X67940493Y-45731310D01*
X68504670Y-45965000D01*
X69115330Y-45965000D01*
X69679507Y-45731310D01*
X70080000Y-45330817D01*
X70480493Y-45731310D01*
X71044670Y-45965000D01*
X71655330Y-45965000D01*
X72219507Y-45731310D01*
X72620000Y-45330817D01*
X73020493Y-45731310D01*
X73584670Y-45965000D01*
X74195330Y-45965000D01*
X74759507Y-45731310D01*
X75191310Y-45299507D01*
X75425000Y-44735330D01*
X75425000Y-44124670D01*
X75191310Y-43560493D01*
X74759507Y-43128690D01*
X74195330Y-42895000D01*
X73584670Y-42895000D01*
X73020493Y-43128690D01*
X72620000Y-43529183D01*
X72219507Y-43128690D01*
X71655330Y-42895000D01*
X71044670Y-42895000D01*
X70480493Y-43128690D01*
X70080000Y-43529183D01*
X69679507Y-43128690D01*
X69115330Y-42895000D01*
X68504670Y-42895000D01*
X67940493Y-43128690D01*
X67540000Y-43529183D01*
X67139507Y-43128690D01*
X66575330Y-42895000D01*
X65964670Y-42895000D01*
X65400493Y-43128690D01*
X65000000Y-43529183D01*
X64599507Y-43128690D01*
X64035330Y-42895000D01*
X63424670Y-42895000D01*
X62860493Y-43128690D01*
X62460000Y-43529183D01*
X62059507Y-43128690D01*
X61495330Y-42895000D01*
X60884670Y-42895000D01*
X60320493Y-43128690D01*
X59888690Y-43560493D01*
X59880562Y-43580115D01*
X59730159Y-43529446D01*
X58829605Y-44430000D01*
X58470395Y-44430000D01*
X57569841Y-43529446D01*
X57419438Y-43580115D01*
X57411310Y-43560493D01*
X57200658Y-43349841D01*
X57749446Y-43349841D01*
X58650000Y-44250395D01*
X59550554Y-43349841D01*
X59464148Y-43093357D01*
X58890664Y-42883542D01*
X58280540Y-42909161D01*
X57835852Y-43093357D01*
X57749446Y-43349841D01*
X57200658Y-43349841D01*
X56979507Y-43128690D01*
X56415330Y-42895000D01*
X55804670Y-42895000D01*
X55240493Y-43128690D01*
X54808690Y-43560493D01*
X54575000Y-44124670D01*
X20397008Y-44124670D01*
X20872760Y-43095048D01*
X22164332Y-40665954D01*
X23589486Y-38312745D01*
X25143778Y-36042760D01*
X26012607Y-34914561D01*
X90365000Y-34914561D01*
X90365000Y-35485439D01*
X90583466Y-36012862D01*
X90987138Y-36416534D01*
X91514561Y-36635000D01*
X92085439Y-36635000D01*
X92612862Y-36416534D01*
X93016534Y-36012862D01*
X93235000Y-35485439D01*
X93235000Y-34914561D01*
X93016534Y-34387138D01*
X92612862Y-33983466D01*
X92085439Y-33765000D01*
X91514561Y-33765000D01*
X90987138Y-33983466D01*
X90583466Y-34387138D01*
X90365000Y-34914561D01*
X26012607Y-34914561D01*
X26822360Y-33863076D01*
X28504273Y-31914561D01*
X90365000Y-31914561D01*
X90365000Y-32485439D01*
X90583466Y-33012862D01*
X90987138Y-33416534D01*
X91514561Y-33635000D01*
X92085439Y-33635000D01*
X92612862Y-33416534D01*
X93016534Y-33012862D01*
X93235000Y-32485439D01*
X93235000Y-31914561D01*
X93016534Y-31387138D01*
X92612862Y-30983466D01*
X92085439Y-30765000D01*
X91514561Y-30765000D01*
X90987138Y-30983466D01*
X90583466Y-31387138D01*
X90365000Y-31914561D01*
X28504273Y-31914561D01*
X28619998Y-31780493D01*
X30531086Y-29801503D01*
X32549664Y-27932280D01*
X34669437Y-26178650D01*
X36883796Y-24546084D01*
X39185834Y-23039673D01*
X41568373Y-21664113D01*
X42359135Y-21264670D01*
X54575000Y-21264670D01*
X54575000Y-21875330D01*
X54808690Y-22439507D01*
X55240493Y-22871310D01*
X55804670Y-23105000D01*
X56415330Y-23105000D01*
X56979507Y-22871310D01*
X57380000Y-22470817D01*
X57780493Y-22871310D01*
X58344670Y-23105000D01*
X58955330Y-23105000D01*
X59519507Y-22871310D01*
X59920000Y-22470817D01*
X60320493Y-22871310D01*
X60884670Y-23105000D01*
X61495330Y-23105000D01*
X62059507Y-22871310D01*
X62460000Y-22470817D01*
X62860493Y-22871310D01*
X63424670Y-23105000D01*
X64035330Y-23105000D01*
X64599507Y-22871310D01*
X65000000Y-22470817D01*
X65400493Y-22871310D01*
X65964670Y-23105000D01*
X66575330Y-23105000D01*
X67139507Y-22871310D01*
X67540000Y-22470817D01*
X67940493Y-22871310D01*
X68504670Y-23105000D01*
X69115330Y-23105000D01*
X69679507Y-22871310D01*
X70080000Y-22470817D01*
X70480493Y-22871310D01*
X71044670Y-23105000D01*
X71655330Y-23105000D01*
X72219507Y-22871310D01*
X72620000Y-22470817D01*
X73020493Y-22871310D01*
X73584670Y-23105000D01*
X74195330Y-23105000D01*
X74759507Y-22871310D01*
X75191310Y-22439507D01*
X75425000Y-21875330D01*
X75425000Y-21264670D01*
X75191310Y-20700493D01*
X74759507Y-20268690D01*
X74195330Y-20035000D01*
X73584670Y-20035000D01*
X73020493Y-20268690D01*
X72620000Y-20669183D01*
X72219507Y-20268690D01*
X71655330Y-20035000D01*
X71044670Y-20035000D01*
X70480493Y-20268690D01*
X70080000Y-20669183D01*
X69679507Y-20268690D01*
X69115330Y-20035000D01*
X68504670Y-20035000D01*
X67940493Y-20268690D01*
X67540000Y-20669183D01*
X67139507Y-20268690D01*
X66575330Y-20035000D01*
X65964670Y-20035000D01*
X65400493Y-20268690D01*
X65000000Y-20669183D01*
X64599507Y-20268690D01*
X64035330Y-20035000D01*
X63424670Y-20035000D01*
X62860493Y-20268690D01*
X62460000Y-20669183D01*
X62059507Y-20268690D01*
X61495330Y-20035000D01*
X60884670Y-20035000D01*
X60320493Y-20268690D01*
X59920000Y-20669183D01*
X59519507Y-20268690D01*
X58955330Y-20035000D01*
X58344670Y-20035000D01*
X57780493Y-20268690D01*
X57380000Y-20669183D01*
X56979507Y-20268690D01*
X56415330Y-20035000D01*
X55804670Y-20035000D01*
X55240493Y-20268690D01*
X54808690Y-20700493D01*
X54575000Y-21264670D01*
X42359135Y-21264670D01*
X44023983Y-20423695D01*
X46545006Y-19322287D01*
X49123581Y-18363324D01*
X51751665Y-17549796D01*
X54421064Y-16884240D01*
X57123453Y-16368732D01*
X59850405Y-16004879D01*
X62593416Y-15793816D01*
X65343932Y-15736201D01*
X68093375Y-15832213D01*
X68093375Y-15832213D01*
G37*
X68093375Y-15832213D02*
X70833171Y-16081554D01*
X73554777Y-16483446D01*
X76249706Y-17036635D01*
X78909552Y-17739397D01*
X81526022Y-18589540D01*
X84090955Y-19584412D01*
X86596355Y-20720911D01*
X89034406Y-21995494D01*
X91397507Y-23404185D01*
X93678288Y-24942591D01*
X95869637Y-26605915D01*
X97964719Y-28388970D01*
X99957002Y-30286196D01*
X101840273Y-32291675D01*
X103608658Y-34399155D01*
X105256643Y-36602062D01*
X106779089Y-38893527D01*
X108171249Y-41266405D01*
X109428779Y-43713296D01*
X110547760Y-46226568D01*
X111524702Y-48798385D01*
X112356557Y-51420726D01*
X113040733Y-54085413D01*
X113575095Y-56784138D01*
X113957977Y-59508483D01*
X114188184Y-62249954D01*
X114200001Y-62673000D01*
X15808503Y-62673000D01*
X15855007Y-61563447D01*
X15890643Y-61200000D01*
X47056887Y-61200000D01*
X47168260Y-61759909D01*
X47485423Y-62234577D01*
X47960091Y-62551740D01*
X48378667Y-62635000D01*
X48661333Y-62635000D01*
X49079909Y-62551740D01*
X49554577Y-62234577D01*
X49810947Y-61850892D01*
X49907611Y-62055134D01*
X50322577Y-62431041D01*
X50710961Y-62591904D01*
X50933000Y-62469915D01*
X50933000Y-61327000D01*
X50913000Y-61327000D01*
X50913000Y-61073000D01*
X50933000Y-61073000D01*
X50933000Y-59930085D01*
X51187000Y-59930085D01*
X51187000Y-61073000D01*
X51207000Y-61073000D01*
X51207000Y-61327000D01*
X51187000Y-61327000D01*
X51187000Y-62469915D01*
X51409039Y-62591904D01*
X51797423Y-62431041D01*
X52170987Y-62092639D01*
X52201843Y-62247765D01*
X52342191Y-62457809D01*
X52552235Y-62598157D01*
X52800000Y-62647440D01*
X54400000Y-62647440D01*
X54647765Y-62598157D01*
X54857809Y-62457809D01*
X54998157Y-62247765D01*
X55047440Y-62000000D01*
X55047440Y-61180000D01*
X61336887Y-61180000D01*
X61448260Y-61739909D01*
X61765423Y-62214577D01*
X62240091Y-62531740D01*
X62658667Y-62615000D01*
X62941333Y-62615000D01*
X63359909Y-62531740D01*
X63834577Y-62214577D01*
X64090947Y-61830892D01*
X64187611Y-62035134D01*
X64602577Y-62411041D01*
X64990961Y-62571904D01*
X65213000Y-62449915D01*
X65213000Y-61307000D01*
X65467000Y-61307000D01*
X65467000Y-62449915D01*
X65689039Y-62571904D01*
X66077423Y-62411041D01*
X66492389Y-62035134D01*
X66731914Y-61529041D01*
X66610629Y-61307000D01*
X65467000Y-61307000D01*
X65213000Y-61307000D01*
X65193000Y-61307000D01*
X65193000Y-61053000D01*
X65213000Y-61053000D01*
X65213000Y-59910085D01*
X65467000Y-59910085D01*
X65467000Y-61053000D01*
X66610629Y-61053000D01*
X66731914Y-60830959D01*
X66492389Y-60324866D01*
X66077423Y-59948959D01*
X65689039Y-59788096D01*
X65467000Y-59910085D01*
X65213000Y-59910085D01*
X64990961Y-59788096D01*
X64602577Y-59948959D01*
X64187611Y-60324866D01*
X64090947Y-60529108D01*
X63834577Y-60145423D01*
X63359909Y-59828260D01*
X62941333Y-59745000D01*
X62658667Y-59745000D01*
X62240091Y-59828260D01*
X61765423Y-60145423D01*
X61448260Y-60620091D01*
X61336887Y-61180000D01*
X55047440Y-61180000D01*
X55047440Y-60400000D01*
X54998157Y-60152235D01*
X54857809Y-59942191D01*
X54647765Y-59801843D01*
X54400000Y-59752560D01*
X52800000Y-59752560D01*
X52552235Y-59801843D01*
X52342191Y-59942191D01*
X52201843Y-60152235D01*
X52170987Y-60307361D01*
X51797423Y-59968959D01*
X51409039Y-59808096D01*
X51187000Y-59930085D01*
X50933000Y-59930085D01*
X50710961Y-59808096D01*
X50322577Y-59968959D01*
X49907611Y-60344866D01*
X49810947Y-60549108D01*
X49554577Y-60165423D01*
X49079909Y-59848260D01*
X48661333Y-59765000D01*
X48378667Y-59765000D01*
X47960091Y-59848260D01*
X47485423Y-60165423D01*
X47168260Y-60640091D01*
X47056887Y-61200000D01*
X15890643Y-61200000D01*
X16123469Y-58825458D01*
X16440930Y-56774778D01*
X36065000Y-56774778D01*
X36065000Y-57425222D01*
X36313914Y-58026153D01*
X36773847Y-58486086D01*
X37374778Y-58735000D01*
X38025222Y-58735000D01*
X38626153Y-58486086D01*
X39086086Y-58026153D01*
X39335000Y-57425222D01*
X39335000Y-56774778D01*
X40565000Y-56774778D01*
X40565000Y-57425222D01*
X40813914Y-58026153D01*
X41273847Y-58486086D01*
X41874778Y-58735000D01*
X42525222Y-58735000D01*
X43126153Y-58486086D01*
X43586086Y-58026153D01*
X43835000Y-57425222D01*
X43835000Y-56774778D01*
X43586086Y-56173847D01*
X43126153Y-55713914D01*
X42525222Y-55465000D01*
X41874778Y-55465000D01*
X41273847Y-55713914D01*
X40813914Y-56173847D01*
X40565000Y-56774778D01*
X39335000Y-56774778D01*
X39086086Y-56173847D01*
X38626153Y-55713914D01*
X38025222Y-55465000D01*
X37374778Y-55465000D01*
X36773847Y-55713914D01*
X36313914Y-56173847D01*
X36065000Y-56774778D01*
X16440930Y-56774778D01*
X16544351Y-56106724D01*
X16709228Y-55331036D01*
X61617193Y-55331036D01*
X61647518Y-55821413D01*
X61739505Y-56043490D01*
X61666843Y-56152235D01*
X61617560Y-56400000D01*
X61617560Y-57600000D01*
X61666843Y-57847765D01*
X61807191Y-58057809D01*
X62017235Y-58198157D01*
X62265000Y-58247440D01*
X63465000Y-58247440D01*
X63712765Y-58198157D01*
X63922809Y-58057809D01*
X64063157Y-57847765D01*
X64112440Y-57600000D01*
X64112440Y-56400000D01*
X64063157Y-56152235D01*
X63986291Y-56037198D01*
X64112807Y-55668964D01*
X64082482Y-55178587D01*
X63953164Y-54866383D01*
X63727735Y-54816870D01*
X63044605Y-55500000D01*
X63058748Y-55514143D01*
X62879143Y-55693748D01*
X62865000Y-55679605D01*
X62850858Y-55693748D01*
X62671253Y-55514143D01*
X62685395Y-55500000D01*
X62002265Y-54816870D01*
X61776836Y-54866383D01*
X61617193Y-55331036D01*
X16709228Y-55331036D01*
X16856693Y-54637265D01*
X62181870Y-54637265D01*
X62865000Y-55320395D01*
X63548130Y-54637265D01*
X63498617Y-54411836D01*
X63033964Y-54252193D01*
X62543587Y-54282518D01*
X62231383Y-54411836D01*
X62181870Y-54637265D01*
X16856693Y-54637265D01*
X17116341Y-53415724D01*
X17837655Y-50760849D01*
X17999349Y-50274778D01*
X36065000Y-50274778D01*
X36065000Y-50925222D01*
X36313914Y-51526153D01*
X36773847Y-51986086D01*
X37374778Y-52235000D01*
X38025222Y-52235000D01*
X38626153Y-51986086D01*
X39086086Y-51526153D01*
X39335000Y-50925222D01*
X39335000Y-50274778D01*
X40565000Y-50274778D01*
X40565000Y-50925222D01*
X40813914Y-51526153D01*
X41273847Y-51986086D01*
X41874778Y-52235000D01*
X42525222Y-52235000D01*
X43126153Y-51986086D01*
X43586086Y-51526153D01*
X43586618Y-51524868D01*
X91254737Y-51524868D01*
X91365641Y-51802099D01*
X92011593Y-52045323D01*
X92701453Y-52022836D01*
X93234359Y-51802099D01*
X93345263Y-51524868D01*
X92300000Y-50479605D01*
X91254737Y-51524868D01*
X43586618Y-51524868D01*
X43835000Y-50925222D01*
X43835000Y-50274778D01*
X43725986Y-50011593D01*
X90554677Y-50011593D01*
X90577164Y-50701453D01*
X90797901Y-51234359D01*
X91075132Y-51345263D01*
X92120395Y-50300000D01*
X92479605Y-50300000D01*
X93524868Y-51345263D01*
X93802099Y-51234359D01*
X94045323Y-50588407D01*
X94024673Y-49954887D01*
X105965000Y-49954887D01*
X105965000Y-50645113D01*
X106229138Y-51282799D01*
X106717201Y-51770862D01*
X107354887Y-52035000D01*
X108045113Y-52035000D01*
X108682799Y-51770862D01*
X109170862Y-51282799D01*
X109435000Y-50645113D01*
X109435000Y-49954887D01*
X109170862Y-49317201D01*
X108682799Y-48829138D01*
X108045113Y-48565000D01*
X107354887Y-48565000D01*
X106717201Y-48829138D01*
X106229138Y-49317201D01*
X105965000Y-49954887D01*
X94024673Y-49954887D01*
X94022836Y-49898547D01*
X93802099Y-49365641D01*
X93524868Y-49254737D01*
X92479605Y-50300000D01*
X92120395Y-50300000D01*
X91075132Y-49254737D01*
X90797901Y-49365641D01*
X90554677Y-50011593D01*
X43725986Y-50011593D01*
X43586086Y-49673847D01*
X43126153Y-49213914D01*
X42791104Y-49075132D01*
X91254737Y-49075132D01*
X92300000Y-50120395D01*
X93345263Y-49075132D01*
X93234359Y-48797901D01*
X92588407Y-48554677D01*
X91898547Y-48577164D01*
X91365641Y-48797901D01*
X91254737Y-49075132D01*
X42791104Y-49075132D01*
X42525222Y-48965000D01*
X41874778Y-48965000D01*
X41273847Y-49213914D01*
X40813914Y-49673847D01*
X40565000Y-50274778D01*
X39335000Y-50274778D01*
X39086086Y-49673847D01*
X38626153Y-49213914D01*
X38025222Y-48965000D01*
X37374778Y-48965000D01*
X36773847Y-49213914D01*
X36313914Y-49673847D01*
X36065000Y-50274778D01*
X17999349Y-50274778D01*
X18706043Y-48150378D01*
X19718798Y-45592452D01*
X20397008Y-44124670D01*
X54575000Y-44124670D01*
X54575000Y-44735330D01*
X54808690Y-45299507D01*
X55240493Y-45731310D01*
X55804670Y-45965000D01*
X56415330Y-45965000D01*
X56979507Y-45731310D01*
X57200658Y-45510159D01*
X57749446Y-45510159D01*
X57835852Y-45766643D01*
X58409336Y-45976458D01*
X59019460Y-45950839D01*
X59464148Y-45766643D01*
X59550554Y-45510159D01*
X58650000Y-44609605D01*
X57749446Y-45510159D01*
X57200658Y-45510159D01*
X57411310Y-45299507D01*
X57419438Y-45279885D01*
X57569841Y-45330554D01*
X58470395Y-44430000D01*
X58829605Y-44430000D01*
X59730159Y-45330554D01*
X59880562Y-45279885D01*
X59888690Y-45299507D01*
X60320493Y-45731310D01*
X60884670Y-45965000D01*
X61495330Y-45965000D01*
X62059507Y-45731310D01*
X62460000Y-45330817D01*
X62860493Y-45731310D01*
X63424670Y-45965000D01*
X64035330Y-45965000D01*
X64599507Y-45731310D01*
X65000000Y-45330817D01*
X65400493Y-45731310D01*
X65964670Y-45965000D01*
X66575330Y-45965000D01*
X67139507Y-45731310D01*
X67540000Y-45330817D01*
X67940493Y-45731310D01*
X68504670Y-45965000D01*
X69115330Y-45965000D01*
X69679507Y-45731310D01*
X70080000Y-45330817D01*
X70480493Y-45731310D01*
X71044670Y-45965000D01*
X71655330Y-45965000D01*
X72219507Y-45731310D01*
X72620000Y-45330817D01*
X73020493Y-45731310D01*
X73584670Y-45965000D01*
X74195330Y-45965000D01*
X74759507Y-45731310D01*
X75191310Y-45299507D01*
X75425000Y-44735330D01*
X75425000Y-44124670D01*
X75191310Y-43560493D01*
X74759507Y-43128690D01*
X74195330Y-42895000D01*
X73584670Y-42895000D01*
X73020493Y-43128690D01*
X72620000Y-43529183D01*
X72219507Y-43128690D01*
X71655330Y-42895000D01*
X71044670Y-42895000D01*
X70480493Y-43128690D01*
X70080000Y-43529183D01*
X69679507Y-43128690D01*
X69115330Y-42895000D01*
X68504670Y-42895000D01*
X67940493Y-43128690D01*
X67540000Y-43529183D01*
X67139507Y-43128690D01*
X66575330Y-42895000D01*
X65964670Y-42895000D01*
X65400493Y-43128690D01*
X65000000Y-43529183D01*
X64599507Y-43128690D01*
X64035330Y-42895000D01*
X63424670Y-42895000D01*
X62860493Y-43128690D01*
X62460000Y-43529183D01*
X62059507Y-43128690D01*
X61495330Y-42895000D01*
X60884670Y-42895000D01*
X60320493Y-43128690D01*
X59888690Y-43560493D01*
X59880562Y-43580115D01*
X59730159Y-43529446D01*
X58829605Y-44430000D01*
X58470395Y-44430000D01*
X57569841Y-43529446D01*
X57419438Y-43580115D01*
X57411310Y-43560493D01*
X57200658Y-43349841D01*
X57749446Y-43349841D01*
X58650000Y-44250395D01*
X59550554Y-43349841D01*
X59464148Y-43093357D01*
X58890664Y-42883542D01*
X58280540Y-42909161D01*
X57835852Y-43093357D01*
X57749446Y-43349841D01*
X57200658Y-43349841D01*
X56979507Y-43128690D01*
X56415330Y-42895000D01*
X55804670Y-42895000D01*
X55240493Y-43128690D01*
X54808690Y-43560493D01*
X54575000Y-44124670D01*
X20397008Y-44124670D01*
X20872760Y-43095048D01*
X22164332Y-40665954D01*
X23589486Y-38312745D01*
X25143778Y-36042760D01*
X26012607Y-34914561D01*
X90365000Y-34914561D01*
X90365000Y-35485439D01*
X90583466Y-36012862D01*
X90987138Y-36416534D01*
X91514561Y-36635000D01*
X92085439Y-36635000D01*
X92612862Y-36416534D01*
X93016534Y-36012862D01*
X93235000Y-35485439D01*
X93235000Y-34914561D01*
X93016534Y-34387138D01*
X92612862Y-33983466D01*
X92085439Y-33765000D01*
X91514561Y-33765000D01*
X90987138Y-33983466D01*
X90583466Y-34387138D01*
X90365000Y-34914561D01*
X26012607Y-34914561D01*
X26822360Y-33863076D01*
X28504273Y-31914561D01*
X90365000Y-31914561D01*
X90365000Y-32485439D01*
X90583466Y-33012862D01*
X90987138Y-33416534D01*
X91514561Y-33635000D01*
X92085439Y-33635000D01*
X92612862Y-33416534D01*
X93016534Y-33012862D01*
X93235000Y-32485439D01*
X93235000Y-31914561D01*
X93016534Y-31387138D01*
X92612862Y-30983466D01*
X92085439Y-30765000D01*
X91514561Y-30765000D01*
X90987138Y-30983466D01*
X90583466Y-31387138D01*
X90365000Y-31914561D01*
X28504273Y-31914561D01*
X28619998Y-31780493D01*
X30531086Y-29801503D01*
X32549664Y-27932280D01*
X34669437Y-26178650D01*
X36883796Y-24546084D01*
X39185834Y-23039673D01*
X41568373Y-21664113D01*
X42359135Y-21264670D01*
X54575000Y-21264670D01*
X54575000Y-21875330D01*
X54808690Y-22439507D01*
X55240493Y-22871310D01*
X55804670Y-23105000D01*
X56415330Y-23105000D01*
X56979507Y-22871310D01*
X57380000Y-22470817D01*
X57780493Y-22871310D01*
X58344670Y-23105000D01*
X58955330Y-23105000D01*
X59519507Y-22871310D01*
X59920000Y-22470817D01*
X60320493Y-22871310D01*
X60884670Y-23105000D01*
X61495330Y-23105000D01*
X62059507Y-22871310D01*
X62460000Y-22470817D01*
X62860493Y-22871310D01*
X63424670Y-23105000D01*
X64035330Y-23105000D01*
X64599507Y-22871310D01*
X65000000Y-22470817D01*
X65400493Y-22871310D01*
X65964670Y-23105000D01*
X66575330Y-23105000D01*
X67139507Y-22871310D01*
X67540000Y-22470817D01*
X67940493Y-22871310D01*
X68504670Y-23105000D01*
X69115330Y-23105000D01*
X69679507Y-22871310D01*
X70080000Y-22470817D01*
X70480493Y-22871310D01*
X71044670Y-23105000D01*
X71655330Y-23105000D01*
X72219507Y-22871310D01*
X72620000Y-22470817D01*
X73020493Y-22871310D01*
X73584670Y-23105000D01*
X74195330Y-23105000D01*
X74759507Y-22871310D01*
X75191310Y-22439507D01*
X75425000Y-21875330D01*
X75425000Y-21264670D01*
X75191310Y-20700493D01*
X74759507Y-20268690D01*
X74195330Y-20035000D01*
X73584670Y-20035000D01*
X73020493Y-20268690D01*
X72620000Y-20669183D01*
X72219507Y-20268690D01*
X71655330Y-20035000D01*
X71044670Y-20035000D01*
X70480493Y-20268690D01*
X70080000Y-20669183D01*
X69679507Y-20268690D01*
X69115330Y-20035000D01*
X68504670Y-20035000D01*
X67940493Y-20268690D01*
X67540000Y-20669183D01*
X67139507Y-20268690D01*
X66575330Y-20035000D01*
X65964670Y-20035000D01*
X65400493Y-20268690D01*
X65000000Y-20669183D01*
X64599507Y-20268690D01*
X64035330Y-20035000D01*
X63424670Y-20035000D01*
X62860493Y-20268690D01*
X62460000Y-20669183D01*
X62059507Y-20268690D01*
X61495330Y-20035000D01*
X60884670Y-20035000D01*
X60320493Y-20268690D01*
X59920000Y-20669183D01*
X59519507Y-20268690D01*
X58955330Y-20035000D01*
X58344670Y-20035000D01*
X57780493Y-20268690D01*
X57380000Y-20669183D01*
X56979507Y-20268690D01*
X56415330Y-20035000D01*
X55804670Y-20035000D01*
X55240493Y-20268690D01*
X54808690Y-20700493D01*
X54575000Y-21264670D01*
X42359135Y-21264670D01*
X44023983Y-20423695D01*
X46545006Y-19322287D01*
X49123581Y-18363324D01*
X51751665Y-17549796D01*
X54421064Y-16884240D01*
X57123453Y-16368732D01*
X59850405Y-16004879D01*
X62593416Y-15793816D01*
X65343932Y-15736201D01*
X68093375Y-15832213D01*
G04 #@! TD*
M02*
