<?xml version="1.0" standalone="no"?>
 <!DOCTYPE svg PUBLIC "-//W3C//DTD SVG 1.1//EN" 
 "http://www.w3.org/Graphics/SVG/1.1/DTD/svg11.dtd"> 
<svg xmlns="http://www.w3.org/2000/svg" version="1.1" 
    width="12.9997cm" height="18.001cm" viewBox="0 0 51180 70870 ">
<title>SVG Picture created as mains-light-controller-F.Cu.svg date 2019/06/28 19:48:41 </title>
  <desc>Picture generated by PCBNEW </desc>
<g style="fill:#000000; fill-opacity:1;stroke:#000000; stroke-opacity:1;
stroke-linecap:round; stroke-linejoin:round; "
 transform="translate(0 0) scale(1 1)">
</g>
<g style="fill:#000000; fill-opacity:0.0; 
stroke:#000000; stroke-width:-0.000393701; stroke-opacity:1; 
stroke-linecap:round; stroke-linejoin:round;">
</g>
<g style="fill:#000000; fill-opacity:1.0; 
stroke:#000000; stroke-width:0; stroke-opacity:1; 
stroke-linecap:round; stroke-linejoin:round;">
<circle cx="25086.6" cy="34566.9" r="462.598" /> 
</g>
<g style="fill:#000000; fill-opacity:1.0; 
stroke:#000000; stroke-width:39.3701; stroke-opacity:1; 
stroke-linecap:round; stroke-linejoin:round;">
</g>
<g style="fill:#000000; fill-opacity:1.0; 
stroke:#000000; stroke-width:0; stroke-opacity:1; 
stroke-linecap:round; stroke-linejoin:round;">
<circle cx="25086.6" cy="36566.9" r="462.598" /> 
</g>
<g style="fill:#000000; fill-opacity:1.0; 
stroke:#000000; stroke-width:39.3701; stroke-opacity:1; 
stroke-linecap:round; stroke-linejoin:round;">
</g>
<g style="fill:#000000; fill-opacity:1.0; 
stroke:#000000; stroke-width:0; stroke-opacity:1; 
stroke-linecap:round; stroke-linejoin:round;">
<circle cx="19055.1" cy="34566.9" r="462.598" /> 
</g>
<g style="fill:#000000; fill-opacity:1.0; 
stroke:#000000; stroke-width:39.3701; stroke-opacity:1; 
stroke-linecap:round; stroke-linejoin:round;">
</g>
<g style="fill:#000000; fill-opacity:1.0; 
stroke:#000000; stroke-width:0; stroke-opacity:1; 
stroke-linecap:round; stroke-linejoin:round;">
<circle cx="19055.1" cy="36566.9" r="462.598" /> 
</g>
<g style="fill:#000000; fill-opacity:1.0; 
stroke:#000000; stroke-width:39.3701; stroke-opacity:1; 
stroke-linecap:round; stroke-linejoin:round;">
</g>
<g style="fill:#000000; fill-opacity:1.0; 
stroke:#000000; stroke-width:0; stroke-opacity:1; 
stroke-linecap:round; stroke-linejoin:round;">
<polyline style="fill-rule:evenodd;"
points="28255,29234
28255,28777
28712,28777
28712,29234
28255,29234
" /> 
<circle cx="26476.4" cy="29005.9" r="228.346" /> 
</g>
<g style="fill:#000000; fill-opacity:1.0; 
stroke:#000000; stroke-width:39.3701; stroke-opacity:1; 
stroke-linecap:round; stroke-linejoin:round;">
</g>
<g style="fill:#000000; fill-opacity:1.0; 
stroke:#000000; stroke-width:0; stroke-opacity:1; 
stroke-linecap:round; stroke-linejoin:round;">
<circle cx="26476.4" cy="32253.9" r="228.346" /> 
</g>
<g style="fill:#000000; fill-opacity:1.0; 
stroke:#000000; stroke-width:39.3701; stroke-opacity:1; 
stroke-linecap:round; stroke-linejoin:round;">
</g>
<g style="fill:#000000; fill-opacity:1.0; 
stroke:#000000; stroke-width:0; stroke-opacity:1; 
stroke-linecap:round; stroke-linejoin:round;">
<circle cx="28484.3" cy="32253.9" r="228.346" /> 
</g>
<g style="fill:#000000; fill-opacity:1.0; 
stroke:#000000; stroke-width:39.3701; stroke-opacity:1; 
stroke-linecap:round; stroke-linejoin:round;">
</g>
<g style="fill:#000000; fill-opacity:1.0; 
stroke:#000000; stroke-width:0; stroke-opacity:1; 
stroke-linecap:round; stroke-linejoin:round;">
<circle cx="12318.9" cy="28055.1" r="496.85" /> 
</g>
<g style="fill:#000000; fill-opacity:1.0; 
stroke:#000000; stroke-width:39.3701; stroke-opacity:1; 
stroke-linecap:round; stroke-linejoin:round;">
</g>
<g style="fill:#000000; fill-opacity:1.0; 
stroke:#000000; stroke-width:0; stroke-opacity:1; 
stroke-linecap:round; stroke-linejoin:round;">
<circle cx="12318.9" cy="35141.7" r="496.85" /> 
</g>
<g style="fill:#000000; fill-opacity:1.0; 
stroke:#000000; stroke-width:39.3701; stroke-opacity:1; 
stroke-linecap:round; stroke-linejoin:round;">
</g>
<g style="fill:#000000; fill-opacity:1.0; 
stroke:#000000; stroke-width:750; stroke-opacity:1; 
stroke-linecap:round; stroke-linejoin:round;">
</g>
<g style="fill:#000000; fill-opacity:0.0; 
stroke:#000000; stroke-width:750; stroke-opacity:1; 
stroke-linecap:round; stroke-linejoin:round;">
<path d="M14784 30598
L14821 30598
" />
<path d="M14784 31598
L14821 31598
" />
</g>
<g style="fill:#000000; fill-opacity:0.0; 
stroke:#000000; stroke-width:0; stroke-opacity:1; 
stroke-linecap:round; stroke-linejoin:round;">
</g>
<g style="fill:#000000; fill-opacity:1.0; 
stroke:#000000; stroke-width:0; stroke-opacity:1; 
stroke-linecap:round; stroke-linejoin:round;">
<polyline style="fill-rule:evenodd;"
points="15196,32973
14409,32973
14409,32223
15196,32223
15196,32973
" /> 
<polyline style="fill-rule:evenodd;"
points="24980,29833
24989,29834
24999,29836
25008,29840
25016,29844
25025,29849
25032,29855
25040,29861
25046,29868
25052,29876
25057,29884
25061,29893
25064,29902
25067,29911
25068,29921
25068,29931
25068,30295
25068,30304
25067,30314
25064,30323
25061,30332
25057,30341
25052,30349
25046,30357
25040,30364
25032,30371
25025,30377
25016,30382
25008,30386
24999,30389
24989,30391
24980,30393
24970,30393
24478,30393
24468,30393
24459,30391
24449,30389
24440,30386
24431,30382
24423,30377
24415,30371
24408,30364
24402,30357
24396,30349
24391,30341
24387,30332
24384,30323
24381,30314
24380,30304
24379,30295
24379,29931
24380,29921
24381,29911
24384,29902
24387,29893
24391,29884
24396,29876
24402,29868
24408,29861
24415,29855
24423,29849
24431,29844
24440,29840
24449,29836
24459,29834
24468,29833
24478,29832
24970,29832
24980,29833
" /> 
<polyline style="fill-rule:evenodd;"
points="24980,28661
24989,28663
24999,28665
25008,28668
25016,28673
25025,28678
25032,28683
25040,28690
25046,28697
25052,28705
25057,28713
25061,28722
25064,28731
25067,28740
25068,28750
25068,28759
25068,29124
25068,29133
25067,29143
25064,29152
25061,29161
25057,29170
25052,29178
25046,29186
25040,29193
25032,29200
25025,29205
25016,29210
25008,29214
24999,29218
24989,29220
24980,29221
24970,29222
24478,29222
24468,29221
24459,29220
24449,29218
24440,29214
24431,29210
24423,29205
24415,29200
24408,29193
24402,29186
24396,29178
24391,29170
24387,29161
24384,29152
24381,29143
24380,29133
24379,29124
24379,28759
24380,28750
24381,28740
24384,28731
24387,28722
24391,28713
24396,28705
24402,28697
24408,28690
24415,28683
24423,28678
24431,28673
24440,28668
24449,28665
24459,28663
24468,28661
24478,28661
24970,28661
24980,28661
" /> 
<polyline style="fill-rule:evenodd;"
points="21505,22431
21515,22432
21524,22435
21533,22438
21542,22442
21550,22447
21558,22453
21565,22459
21572,22467
21577,22474
21582,22483
21586,22491
21590,22500
21592,22510
21594,22519
21594,22529
21594,22893
21594,22903
21592,22912
21590,22922
21586,22931
21582,22940
21577,22948
21572,22956
21565,22963
21558,22969
21550,22975
21542,22980
21533,22984
21524,22987
21515,22990
21505,22991
21496,22992
21003,22992
20994,22991
20984,22990
20975,22987
20966,22984
20957,22980
20949,22975
20941,22969
20934,22963
20927,22956
20922,22948
20917,22940
20913,22931
20909,22922
20907,22912
20905,22903
20905,22893
20905,22529
20905,22519
20907,22510
20909,22500
20913,22491
20917,22483
20922,22474
20927,22467
20934,22459
20941,22453
20949,22447
20957,22442
20966,22438
20975,22435
20984,22432
20994,22431
21003,22431
21496,22431
21505,22431
" /> 
<polyline style="fill-rule:evenodd;"
points="21505,21260
21515,21261
21524,21264
21533,21267
21542,21271
21550,21276
21558,21282
21565,21288
21572,21295
21577,21303
21582,21311
21586,21320
21590,21329
21592,21339
21594,21348
21594,21358
21594,21722
21594,21732
21592,21741
21590,21751
21586,21760
21582,21768
21577,21777
21572,21784
21565,21792
21558,21798
21550,21804
21542,21809
21533,21813
21524,21816
21515,21818
21505,21820
21496,21820
21003,21820
20994,21820
20984,21818
20975,21816
20966,21813
20957,21809
20949,21804
20941,21798
20934,21792
20927,21784
20922,21777
20917,21768
20913,21760
20909,21751
20907,21741
20905,21732
20905,21722
20905,21358
20905,21348
20907,21339
20909,21329
20913,21320
20917,21311
20922,21303
20927,21295
20934,21288
20941,21282
20949,21276
20957,21271
20966,21267
20975,21264
20984,21261
20994,21260
21003,21259
21496,21259
21505,21260
" /> 
<polyline style="fill-rule:evenodd;"
points="21249,28632
21259,28633
21268,28636
21277,28639
21286,28643
21294,28648
21302,28654
21309,28660
21316,28667
21321,28675
21326,28683
21331,28692
21334,28701
21336,28711
21338,28720
21338,28730
21338,29222
21338,29232
21336,29241
21334,29251
21331,29260
21326,29268
21321,29277
21316,29284
21309,29292
21302,29298
21294,29304
21286,29309
21277,29313
21268,29316
21259,29318
21249,29320
21240,29320
20875,29320
20866,29320
20856,29318
20847,29316
20838,29313
20829,29309
20821,29304
20813,29298
20806,29292
20799,29284
20794,29277
20789,29268
20785,29260
20781,29251
20779,29241
20778,29232
20777,29222
20777,28730
20778,28720
20779,28711
20781,28701
20785,28692
20789,28683
20794,28675
20799,28667
20806,28660
20813,28654
20821,28648
20829,28643
20838,28639
20847,28636
20856,28633
20866,28632
20875,28631
21240,28631
21249,28632
" /> 
<polyline style="fill-rule:evenodd;"
points="20078,28632
20088,28633
20097,28636
20106,28639
20115,28643
20123,28648
20131,28654
20138,28660
20144,28667
20150,28675
20155,28683
20159,28692
20163,28701
20165,28711
20166,28720
20167,28730
20167,29222
20166,29232
20165,29241
20163,29251
20159,29260
20155,29268
20150,29277
20144,29284
20138,29292
20131,29298
20123,29304
20115,29309
20106,29313
20097,29316
20088,29318
20078,29320
20068,29320
19704,29320
19695,29320
19685,29318
19676,29316
19667,29313
19658,29309
19650,29304
19642,29298
19635,29292
19628,29284
19622,29277
19617,29268
19613,29260
19610,29251
19608,29241
19606,29232
19606,29222
19606,28730
19606,28720
19608,28711
19610,28701
19613,28692
19617,28683
19622,28675
19628,28667
19635,28660
19642,28654
19650,28648
19658,28643
19667,28639
19676,28636
19685,28633
19695,28632
19704,28631
20068,28631
20078,28632
" /> 
<polyline style="fill-rule:evenodd;"
points="20358,22431
20367,22432
20376,22435
20386,22438
20394,22442
20403,22447
20410,22453
20418,22459
20424,22467
20430,22474
20435,22483
20439,22491
20442,22500
20444,22510
20446,22519
20446,22529
20446,22893
20446,22903
20444,22912
20442,22922
20439,22931
20435,22940
20430,22948
20424,22956
20418,22963
20410,22969
20403,22975
20394,22980
20386,22984
20376,22987
20367,22990
20358,22991
20348,22992
19856,22992
19846,22991
19837,22990
19827,22987
19818,22984
19809,22980
19801,22975
19793,22969
19786,22963
19780,22956
19774,22948
19769,22940
19765,22931
19762,22922
19759,22912
19758,22903
19757,22893
19757,22529
19758,22519
19759,22510
19762,22500
19765,22491
19769,22483
19774,22474
19780,22467
19786,22459
19793,22453
19801,22447
19809,22442
19818,22438
19827,22435
19837,22432
19846,22431
19856,22431
20348,22431
20358,22431
" /> 
<polyline style="fill-rule:evenodd;"
points="20358,21260
20367,21261
20376,21264
20386,21267
20394,21271
20403,21276
20410,21282
20418,21288
20424,21295
20430,21303
20435,21311
20439,21320
20442,21329
20444,21339
20446,21348
20446,21358
20446,21722
20446,21732
20444,21741
20442,21751
20439,21760
20435,21768
20430,21777
20424,21784
20418,21792
20410,21798
20403,21804
20394,21809
20386,21813
20376,21816
20367,21818
20358,21820
20348,21820
19856,21820
19846,21820
19837,21818
19827,21816
19818,21813
19809,21809
19801,21804
19793,21798
19786,21792
19780,21784
19774,21777
19769,21768
19765,21760
19762,21751
19759,21741
19758,21732
19757,21722
19757,21358
19758,21348
19759,21339
19762,21329
19765,21320
19769,21311
19774,21303
19780,21295
19786,21288
19793,21282
19801,21276
19809,21271
19818,21267
19827,21264
19837,21261
19846,21260
19856,21259
20348,21259
20358,21260
" /> 
<polyline style="fill-rule:evenodd;"
points="35744,14928
35753,14930
35763,14932
35772,14935
35780,14939
35789,14944
35797,14950
35804,14957
35810,14964
35816,14972
35821,14980
35825,14989
35828,14998
35831,15007
35832,15017
35833,15026
35833,15518
35832,15528
35831,15538
35828,15547
35825,15556
35821,15565
35816,15573
35810,15581
35804,15588
35797,15594
35789,15600
35780,15605
35772,15609
35763,15613
35753,15615
35744,15616
35734,15617
35370,15617
35360,15616
35351,15615
35341,15613
35332,15609
35324,15605
35315,15600
35307,15594
35300,15588
35294,15581
35288,15573
35283,15565
35279,15556
35276,15547
35273,15538
35272,15528
35271,15518
35271,15026
35272,15017
35273,15007
35276,14998
35279,14989
35283,14980
35288,14972
35294,14964
35300,14957
35307,14950
35315,14944
35324,14939
35332,14935
35341,14932
35351,14930
35360,14928
35370,14928
35734,14928
35744,14928
" /> 
<polyline style="fill-rule:evenodd;"
points="36915,14928
36925,14930
36934,14932
36943,14935
36952,14939
36960,14944
36968,14950
36975,14957
36981,14964
36987,14972
36992,14980
36996,14989
37000,14998
37002,15007
37003,15017
37004,15026
37004,15518
37003,15528
37002,15538
37000,15547
36996,15556
36992,15565
36987,15573
36981,15581
36975,15588
36968,15594
36960,15600
36952,15605
36943,15609
36934,15613
36925,15615
36915,15616
36905,15617
36541,15617
36532,15616
36522,15615
36513,15613
36503,15609
36495,15605
36486,15600
36479,15594
36472,15588
36465,15581
36459,15573
36454,15565
36450,15556
36447,15547
36445,15538
36443,15528
36443,15518
36443,15026
36443,15017
36445,15007
36447,14998
36450,14989
36454,14980
36459,14972
36465,14964
36472,14957
36479,14950
36486,14944
36495,14939
36503,14935
36513,14932
36522,14930
36532,14928
36541,14928
36905,14928
36915,14928
" /> 
<polyline style="fill-rule:evenodd;"
points="19255,22431
19265,22432
19274,22435
19283,22438
19292,22442
19300,22447
19308,22453
19315,22459
19322,22467
19327,22474
19332,22483
19336,22491
19340,22500
19342,22510
19344,22519
19344,22529
19344,22893
19344,22903
19342,22912
19340,22922
19336,22931
19332,22940
19327,22948
19322,22956
19315,22963
19308,22969
19300,22975
19292,22980
19283,22984
19274,22987
19265,22990
19255,22991
19246,22992
18753,22992
18744,22991
18734,22990
18725,22987
18716,22984
18707,22980
18699,22975
18691,22969
18684,22963
18677,22956
18672,22948
18667,22940
18663,22931
18659,22922
18657,22912
18655,22903
18655,22893
18655,22529
18655,22519
18657,22510
18659,22500
18663,22491
18667,22483
18672,22474
18677,22467
18684,22459
18691,22453
18699,22447
18707,22442
18716,22438
18725,22435
18734,22432
18744,22431
18753,22431
19246,22431
19255,22431
" /> 
<polyline style="fill-rule:evenodd;"
points="19255,21260
19265,21261
19274,21264
19283,21267
19292,21271
19300,21276
19308,21282
19315,21288
19322,21295
19327,21303
19332,21311
19336,21320
19340,21329
19342,21339
19344,21348
19344,21358
19344,21722
19344,21732
19342,21741
19340,21751
19336,21760
19332,21768
19327,21777
19322,21784
19315,21792
19308,21798
19300,21804
19292,21809
19283,21813
19274,21816
19265,21818
19255,21820
19246,21820
18753,21820
18744,21820
18734,21818
18725,21816
18716,21813
18707,21809
18699,21804
18691,21798
18684,21792
18677,21784
18672,21777
18667,21768
18663,21760
18659,21751
18657,21741
18655,21732
18655,21722
18655,21358
18655,21348
18657,21339
18659,21329
18663,21320
18667,21311
18672,21303
18677,21295
18684,21288
18691,21282
18699,21276
18707,21271
18716,21267
18725,21264
18734,21261
18744,21260
18753,21259
19246,21259
19255,21260
" /> 
<polyline style="fill-rule:evenodd;"
points="19369,30108
19379,30110
19388,30112
19397,30115
19406,30119
19414,30124
19422,30130
19429,30137
19436,30144
19442,30152
19447,30160
19451,30169
19454,30178
19456,30187
19458,30197
19458,30206
19458,31053
19458,31062
19456,31072
19454,31081
19451,31090
19447,31099
19442,31107
19436,31115
19429,31122
19422,31129
19414,31134
19406,31139
19397,31144
19388,31147
19379,31149
19369,31151
19360,31151
18956,31151
18947,31151
18937,31149
18928,31147
18919,31144
18910,31139
18902,31134
18894,31129
18887,31122
18880,31115
18874,31107
18869,31099
18865,31090
18862,31081
18860,31072
18858,31062
18858,31053
18858,30206
18858,30197
18860,30187
18862,30178
18865,30169
18869,30160
18874,30152
18880,30144
18887,30137
18894,30130
18902,30124
18910,30119
18919,30115
18928,30112
18937,30110
18947,30108
18956,30108
19360,30108
19369,30108
" /> 
<polyline style="fill-rule:evenodd;"
points="21210,30108
21219,30110
21229,30112
21238,30115
21247,30119
21255,30124
21263,30130
21270,30137
21276,30144
21282,30152
21287,30160
21291,30169
21294,30178
21297,30187
21298,30197
21299,30206
21299,31053
21298,31062
21297,31072
21294,31081
21291,31090
21287,31099
21282,31107
21276,31115
21270,31122
21263,31129
21255,31134
21247,31139
21238,31144
21229,31147
21219,31149
21210,31151
21200,31151
20797,31151
20787,31151
20778,31149
20768,31147
20759,31144
20750,31139
20742,31134
20734,31129
20727,31122
20721,31115
20715,31107
20710,31099
20706,31090
20703,31081
20700,31072
20699,31062
20698,31053
20698,30206
20699,30197
20700,30187
20703,30178
20706,30169
20710,30160
20715,30152
20721,30144
20727,30137
20734,30130
20742,30124
20750,30119
20759,30115
20768,30112
20778,30110
20787,30108
20797,30108
21200,30108
21210,30108
" /> 
<circle cx="36141.7" cy="13858.3" r="314.961" /> 
</g>
<g style="fill:#000000; fill-opacity:1.0; 
stroke:#000000; stroke-width:39.3701; stroke-opacity:1; 
stroke-linecap:round; stroke-linejoin:round;">
</g>
<g style="fill:#000000; fill-opacity:1.0; 
stroke:#000000; stroke-width:0; stroke-opacity:1; 
stroke-linecap:round; stroke-linejoin:round;">
<circle cx="36141.7" cy="12677.2" r="314.961" /> 
</g>
<g style="fill:#000000; fill-opacity:1.0; 
stroke:#000000; stroke-width:39.3701; stroke-opacity:1; 
stroke-linecap:round; stroke-linejoin:round;">
</g>
<g style="fill:#000000; fill-opacity:1.0; 
stroke:#000000; stroke-width:0; stroke-opacity:1; 
stroke-linecap:round; stroke-linejoin:round;">
<circle cx="22090.6" cy="8492.13" r="354.331" /> 
</g>
<g style="fill:#000000; fill-opacity:1.0; 
stroke:#000000; stroke-width:39.3701; stroke-opacity:1; 
stroke-linecap:round; stroke-linejoin:round;">
</g>
<g style="fill:#000000; fill-opacity:1.0; 
stroke:#000000; stroke-width:0; stroke-opacity:1; 
stroke-linecap:round; stroke-linejoin:round;">
<circle cx="22090.6" cy="17492.1" r="354.331" /> 
</g>
<g style="fill:#000000; fill-opacity:1.0; 
stroke:#000000; stroke-width:39.3701; stroke-opacity:1; 
stroke-linecap:round; stroke-linejoin:round;">
</g>
<g style="fill:#000000; fill-opacity:1.0; 
stroke:#000000; stroke-width:0; stroke-opacity:1; 
stroke-linecap:round; stroke-linejoin:round;">
<circle cx="23090.6" cy="8492.13" r="354.331" /> 
</g>
<g style="fill:#000000; fill-opacity:1.0; 
stroke:#000000; stroke-width:39.3701; stroke-opacity:1; 
stroke-linecap:round; stroke-linejoin:round;">
</g>
<g style="fill:#000000; fill-opacity:1.0; 
stroke:#000000; stroke-width:0; stroke-opacity:1; 
stroke-linecap:round; stroke-linejoin:round;">
<circle cx="23090.6" cy="17492.1" r="354.331" /> 
</g>
<g style="fill:#000000; fill-opacity:1.0; 
stroke:#000000; stroke-width:39.3701; stroke-opacity:1; 
stroke-linecap:round; stroke-linejoin:round;">
</g>
<g style="fill:#000000; fill-opacity:1.0; 
stroke:#000000; stroke-width:0; stroke-opacity:1; 
stroke-linecap:round; stroke-linejoin:round;">
<circle cx="24090.6" cy="8492.13" r="354.331" /> 
</g>
<g style="fill:#000000; fill-opacity:1.0; 
stroke:#000000; stroke-width:39.3701; stroke-opacity:1; 
stroke-linecap:round; stroke-linejoin:round;">
</g>
<g style="fill:#000000; fill-opacity:1.0; 
stroke:#000000; stroke-width:0; stroke-opacity:1; 
stroke-linecap:round; stroke-linejoin:round;">
<circle cx="24090.6" cy="17492.1" r="354.331" /> 
</g>
<g style="fill:#000000; fill-opacity:1.0; 
stroke:#000000; stroke-width:39.3701; stroke-opacity:1; 
stroke-linecap:round; stroke-linejoin:round;">
</g>
<g style="fill:#000000; fill-opacity:1.0; 
stroke:#000000; stroke-width:0; stroke-opacity:1; 
stroke-linecap:round; stroke-linejoin:round;">
<circle cx="25090.6" cy="8492.13" r="354.331" /> 
</g>
<g style="fill:#000000; fill-opacity:1.0; 
stroke:#000000; stroke-width:39.3701; stroke-opacity:1; 
stroke-linecap:round; stroke-linejoin:round;">
</g>
<g style="fill:#000000; fill-opacity:1.0; 
stroke:#000000; stroke-width:0; stroke-opacity:1; 
stroke-linecap:round; stroke-linejoin:round;">
<circle cx="25090.6" cy="17492.1" r="354.331" /> 
</g>
<g style="fill:#000000; fill-opacity:1.0; 
stroke:#000000; stroke-width:39.3701; stroke-opacity:1; 
stroke-linecap:round; stroke-linejoin:round;">
</g>
<g style="fill:#000000; fill-opacity:1.0; 
stroke:#000000; stroke-width:0; stroke-opacity:1; 
stroke-linecap:round; stroke-linejoin:round;">
<circle cx="26090.6" cy="8492.13" r="354.331" /> 
</g>
<g style="fill:#000000; fill-opacity:1.0; 
stroke:#000000; stroke-width:39.3701; stroke-opacity:1; 
stroke-linecap:round; stroke-linejoin:round;">
</g>
<g style="fill:#000000; fill-opacity:1.0; 
stroke:#000000; stroke-width:0; stroke-opacity:1; 
stroke-linecap:round; stroke-linejoin:round;">
<circle cx="26090.6" cy="17492.1" r="354.331" /> 
</g>
<g style="fill:#000000; fill-opacity:1.0; 
stroke:#000000; stroke-width:39.3701; stroke-opacity:1; 
stroke-linecap:round; stroke-linejoin:round;">
</g>
<g style="fill:#000000; fill-opacity:1.0; 
stroke:#000000; stroke-width:0; stroke-opacity:1; 
stroke-linecap:round; stroke-linejoin:round;">
<circle cx="27090.6" cy="8492.13" r="354.331" /> 
</g>
<g style="fill:#000000; fill-opacity:1.0; 
stroke:#000000; stroke-width:39.3701; stroke-opacity:1; 
stroke-linecap:round; stroke-linejoin:round;">
</g>
<g style="fill:#000000; fill-opacity:1.0; 
stroke:#000000; stroke-width:0; stroke-opacity:1; 
stroke-linecap:round; stroke-linejoin:round;">
<circle cx="27090.6" cy="17492.1" r="354.331" /> 
</g>
<g style="fill:#000000; fill-opacity:1.0; 
stroke:#000000; stroke-width:39.3701; stroke-opacity:1; 
stroke-linecap:round; stroke-linejoin:round;">
</g>
<g style="fill:#000000; fill-opacity:1.0; 
stroke:#000000; stroke-width:0; stroke-opacity:1; 
stroke-linecap:round; stroke-linejoin:round;">
<circle cx="28090.6" cy="8492.13" r="354.331" /> 
</g>
<g style="fill:#000000; fill-opacity:1.0; 
stroke:#000000; stroke-width:39.3701; stroke-opacity:1; 
stroke-linecap:round; stroke-linejoin:round;">
</g>
<g style="fill:#000000; fill-opacity:1.0; 
stroke:#000000; stroke-width:0; stroke-opacity:1; 
stroke-linecap:round; stroke-linejoin:round;">
<circle cx="28090.6" cy="17492.1" r="354.331" /> 
</g>
<g style="fill:#000000; fill-opacity:1.0; 
stroke:#000000; stroke-width:39.3701; stroke-opacity:1; 
stroke-linecap:round; stroke-linejoin:round;">
</g>
<g style="fill:#000000; fill-opacity:1.0; 
stroke:#000000; stroke-width:0; stroke-opacity:1; 
stroke-linecap:round; stroke-linejoin:round;">
<circle cx="29090.6" cy="8492.13" r="354.331" /> 
</g>
<g style="fill:#000000; fill-opacity:1.0; 
stroke:#000000; stroke-width:39.3701; stroke-opacity:1; 
stroke-linecap:round; stroke-linejoin:round;">
</g>
<g style="fill:#000000; fill-opacity:1.0; 
stroke:#000000; stroke-width:0; stroke-opacity:1; 
stroke-linecap:round; stroke-linejoin:round;">
<circle cx="29090.6" cy="17492.1" r="354.331" /> 
</g>
<g style="fill:#000000; fill-opacity:1.0; 
stroke:#000000; stroke-width:39.3701; stroke-opacity:1; 
stroke-linecap:round; stroke-linejoin:round;">
</g>
<g style="fill:#000000; fill-opacity:1.0; 
stroke:#000000; stroke-width:0; stroke-opacity:1; 
stroke-linecap:round; stroke-linejoin:round;">
<circle cx="42401.6" cy="19803.1" r="433.071" /> 
</g>
<g style="fill:#000000; fill-opacity:1.0; 
stroke:#000000; stroke-width:39.3701; stroke-opacity:1; 
stroke-linecap:round; stroke-linejoin:round;">
</g>
<g style="fill:#000000; fill-opacity:1.0; 
stroke:#000000; stroke-width:0; stroke-opacity:1; 
stroke-linecap:round; stroke-linejoin:round;">
<circle cx="36338.6" cy="19803.1" r="433.071" /> 
</g>
<g style="fill:#000000; fill-opacity:1.0; 
stroke:#000000; stroke-width:39.3701; stroke-opacity:1; 
stroke-linecap:round; stroke-linejoin:round;">
</g>
<g style="fill:#000000; fill-opacity:1.0; 
stroke:#000000; stroke-width:0; stroke-opacity:1; 
stroke-linecap:round; stroke-linejoin:round;">
<circle cx="40354.3" cy="31378" r="433.071" /> 
</g>
<g style="fill:#000000; fill-opacity:1.0; 
stroke:#000000; stroke-width:39.3701; stroke-opacity:1; 
stroke-linecap:round; stroke-linejoin:round;">
</g>
<g style="fill:#000000; fill-opacity:1.0; 
stroke:#000000; stroke-width:0; stroke-opacity:1; 
stroke-linecap:round; stroke-linejoin:round;">
<circle cx="38385.8" cy="31378" r="433.071" /> 
</g>
<g style="fill:#000000; fill-opacity:1.0; 
stroke:#000000; stroke-width:39.3701; stroke-opacity:1; 
stroke-linecap:round; stroke-linejoin:round;">
</g>
<g style="fill:#000000; fill-opacity:1.0; 
stroke:#000000; stroke-width:0; stroke-opacity:1; 
stroke-linecap:round; stroke-linejoin:round;">
<circle cx="14842.5" cy="19921.3" r="393.701" /> 
</g>
<g style="fill:#000000; fill-opacity:1.0; 
stroke:#000000; stroke-width:39.3701; stroke-opacity:1; 
stroke-linecap:round; stroke-linejoin:round;">
</g>
<g style="fill:#000000; fill-opacity:1.0; 
stroke:#000000; stroke-width:0; stroke-opacity:1; 
stroke-linecap:round; stroke-linejoin:round;">
<circle cx="16614.2" cy="19921.3" r="393.701" /> 
</g>
<g style="fill:#000000; fill-opacity:1.0; 
stroke:#000000; stroke-width:39.3701; stroke-opacity:1; 
stroke-linecap:round; stroke-linejoin:round;">
</g>
<g style="fill:#000000; fill-opacity:1.0; 
stroke:#000000; stroke-width:0; stroke-opacity:1; 
stroke-linecap:round; stroke-linejoin:round;">
<circle cx="14842.5" cy="22480.3" r="393.701" /> 
</g>
<g style="fill:#000000; fill-opacity:1.0; 
stroke:#000000; stroke-width:39.3701; stroke-opacity:1; 
stroke-linecap:round; stroke-linejoin:round;">
</g>
<g style="fill:#000000; fill-opacity:1.0; 
stroke:#000000; stroke-width:0; stroke-opacity:1; 
stroke-linecap:round; stroke-linejoin:round;">
<circle cx="16614.2" cy="22480.3" r="393.701" /> 
</g>
<g style="fill:#000000; fill-opacity:1.0; 
stroke:#000000; stroke-width:39.3701; stroke-opacity:1; 
stroke-linecap:round; stroke-linejoin:round;">
</g>
<g style="fill:#000000; fill-opacity:1.0; 
stroke:#000000; stroke-width:0; stroke-opacity:1; 
stroke-linecap:round; stroke-linejoin:round;">
<circle cx="24750" cy="21850.4" r="236.22" /> 
</g>
<g style="fill:#000000; fill-opacity:1.0; 
stroke:#000000; stroke-width:39.3701; stroke-opacity:1; 
stroke-linecap:round; stroke-linejoin:round;">
</g>
<g style="fill:#000000; fill-opacity:1.0; 
stroke:#000000; stroke-width:0; stroke-opacity:1; 
stroke-linecap:round; stroke-linejoin:round;">
<polyline style="fill-rule:evenodd;"
points="24986,22677
24513,22677
24513,22204
24986,22204
24986,22677
" /> 
<circle cx="21023.6" cy="32598.4" r="314.961" /> 
</g>
<g style="fill:#000000; fill-opacity:1.0; 
stroke:#000000; stroke-width:39.3701; stroke-opacity:1; 
stroke-linecap:round; stroke-linejoin:round;">
</g>
<g style="fill:#000000; fill-opacity:1.0; 
stroke:#000000; stroke-width:0; stroke-opacity:1; 
stroke-linecap:round; stroke-linejoin:round;">
<circle cx="19055.1" cy="32598.4" r="314.961" /> 
</g>
<g style="fill:#000000; fill-opacity:1.0; 
stroke:#000000; stroke-width:39.3701; stroke-opacity:1; 
stroke-linecap:round; stroke-linejoin:round;">
</g>
<g style="fill:#000000; fill-opacity:1.0; 
stroke:#000000; stroke-width:0; stroke-opacity:1; 
stroke-linecap:round; stroke-linejoin:round;">
<polyline style="fill-rule:evenodd;"
points="11377,22519
10984,22519
10984,21929
11377,21929
11377,22519
" /> 
<polyline style="fill-rule:evenodd;"
points="12637,22519
12244,22519
12244,21929
12637,21929
12637,22519
" /> 
<polyline style="fill-rule:evenodd;"
points="11377,20590
10984,20590
10984,20000
11377,20000
11377,20590
" /> 
<polyline style="fill-rule:evenodd;"
points="12637,20590
12244,20590
12244,20000
12637,20000
12637,20590
" /> 
<polyline style="fill-rule:evenodd;"
points="31062,40275
31062,41456
29881,41456
29881,40275
31062,40275
" /> 
<circle cx="28472.4" cy="40866.1" r="590.551" /> 
</g>
<g style="fill:#000000; fill-opacity:1.0; 
stroke:#000000; stroke-width:39.3701; stroke-opacity:1; 
stroke-linecap:round; stroke-linejoin:round;">
</g>
<g style="fill:#000000; fill-opacity:1.0; 
stroke:#000000; stroke-width:0; stroke-opacity:1; 
stroke-linecap:round; stroke-linejoin:round;">
<circle cx="26472.4" cy="40866.1" r="590.551" /> 
</g>
<g style="fill:#000000; fill-opacity:1.0; 
stroke:#000000; stroke-width:39.3701; stroke-opacity:1; 
stroke-linecap:round; stroke-linejoin:round;">
</g>
<g style="fill:#000000; fill-opacity:1.0; 
stroke:#000000; stroke-width:0; stroke-opacity:1; 
stroke-linecap:round; stroke-linejoin:round;">
<polyline style="fill-rule:evenodd;"
points="23976,40275
23976,41456
22795,41456
22795,40275
23976,40275
" /> 
<circle cx="21385.8" cy="40866.1" r="590.551" /> 
</g>
<g style="fill:#000000; fill-opacity:1.0; 
stroke:#000000; stroke-width:39.3701; stroke-opacity:1; 
stroke-linecap:round; stroke-linejoin:round;">
</g>
<g style="fill:#000000; fill-opacity:1.0; 
stroke:#000000; stroke-width:629.921; stroke-opacity:1; 
stroke-linecap:round; stroke-linejoin:round;">
</g>
<g style="fill:#000000; fill-opacity:0.0; 
stroke:#000000; stroke-width:629.921; stroke-opacity:1; 
stroke-linecap:round; stroke-linejoin:round;">
<path d="M24724 24086
L24724 24086
" />
<path d="M25724 27086
L25724 27086
" />
<path d="M25724 24086
L25724 24086
" />
</g>
<g style="fill:#000000; fill-opacity:0.0; 
stroke:#000000; stroke-width:0; stroke-opacity:1; 
stroke-linecap:round; stroke-linejoin:round;">
</g>
<g style="fill:#000000; fill-opacity:1.0; 
stroke:#000000; stroke-width:0; stroke-opacity:1; 
stroke-linecap:round; stroke-linejoin:round;">
<polyline style="fill-rule:evenodd;"
points="25039,27401
24409,27401
24409,26771
25039,26771
25039,27401
" /> 
</g>
<g style="fill:#000000; fill-opacity:1.0; 
stroke:#000000; stroke-width:629.921; stroke-opacity:1; 
stroke-linecap:round; stroke-linejoin:round;">
</g>
<g style="fill:#000000; fill-opacity:0.0; 
stroke:#000000; stroke-width:629.921; stroke-opacity:1; 
stroke-linecap:round; stroke-linejoin:round;">
<path d="M21102 27094
L21102 27094
" />
<path d="M19102 24094
L19102 24094
" />
<path d="M20102 27094
L20102 27094
" />
<path d="M20102 24094
L20102 24094
" />
<path d="M19102 27094
L19102 27094
" />
</g>
<g style="fill:#000000; fill-opacity:0.0; 
stroke:#000000; stroke-width:0; stroke-opacity:1; 
stroke-linecap:round; stroke-linejoin:round;">
</g>
<g style="fill:#000000; fill-opacity:1.0; 
stroke:#000000; stroke-width:0; stroke-opacity:1; 
stroke-linecap:round; stroke-linejoin:round;">
<polyline style="fill-rule:evenodd;"
points="20787,23779
21417,23779
21417,24409
20787,24409
20787,23779
" /> 
</g>
<g style="fill:#000000; fill-opacity:1.0; 
stroke:#000000; stroke-width:98.4252; stroke-opacity:1; 
stroke-linecap:round; stroke-linejoin:round;">
</g>
<g style="fill:#000000; fill-opacity:0.0; 
stroke:#000000; stroke-width:98.4252; stroke-opacity:1; 
stroke-linecap:round; stroke-linejoin:round;">
<path d="M21023 30418
L20999 30393
" />
<path d="M21023 30654
L20999 30629
" />
<path d="M21023 30629
L20999 30629
" />
</g>
<g style="fill:#000000; fill-opacity:0.0; 
stroke:#000000; stroke-width:393.701; stroke-opacity:1; 
stroke-linecap:round; stroke-linejoin:round;">
<path d="M21023 32598
L21023 30654
" />
</g>
<g style="fill:#000000; fill-opacity:0.0; 
stroke:#000000; stroke-width:98.4252; stroke-opacity:1; 
stroke-linecap:round; stroke-linejoin:round;">
<path d="M15984 30598
L16002 30598
" />
</g>
<g style="fill:#000000; fill-opacity:0.0; 
stroke:#000000; stroke-width:393.701; stroke-opacity:1; 
stroke-linecap:round; stroke-linejoin:round;">
<path d="M17433 30598
L15984 30598
" />
<path d="M19102 28929
L17433 30598
" />
<path d="M19102 27094
L19102 28929
" />
<path d="M15984 30598
L14803 30598
" />
<path d="M24724 28622
L24724 27086
" />
<path d="M24724 28941
L24724 28622
" />
</g>
<g style="fill:#000000; fill-opacity:0.0; 
stroke:#000000; stroke-width:98.4252; stroke-opacity:1; 
stroke-linecap:round; stroke-linejoin:round;">
<path d="M21058 27138
L21102 27094
" />
</g>
<g style="fill:#000000; fill-opacity:0.0; 
stroke:#000000; stroke-width:393.701; stroke-opacity:1; 
stroke-linecap:round; stroke-linejoin:round;">
<path d="M21058 28976
L21058 27138
" />
</g>
<g style="fill:#000000; fill-opacity:0.0; 
stroke:#000000; stroke-width:98.4252; stroke-opacity:1; 
stroke-linecap:round; stroke-linejoin:round;">
<path d="M20102 23094
L21102 24094
" />
<path d="M20102 22711
L20102 23094
" />
</g>
<g style="fill:#000000; fill-opacity:0.0; 
stroke:#000000; stroke-width:393.701; stroke-opacity:1; 
stroke-linecap:round; stroke-linejoin:round;">
<path d="M25748 30113
L26097 29763
" />
<path d="M28484 29389
L28484 29005
" />
<path d="M28110 29763
L28484 29389
" />
<path d="M26097 29763
L28110 29763
" />
<path d="M25748 30113
L24724 30113
" />
<path d="M25724 27086
L25724 28637
" />
<path d="M26092 29005
L26476 29005
" />
<path d="M25724 28637
L26092 29005
" />
</g>
<g style="fill:#000000; fill-opacity:0.0; 
stroke:#000000; stroke-width:98.4252; stroke-opacity:1; 
stroke-linecap:round; stroke-linejoin:round;">
<path d="M36723 13180
L36723 15272
" />
<path d="M36141 12598
L36723 13180
" />
<path d="M28090 12185
L28090 8492
" />
<path d="M36141 12598
L28503 12598
" />
<path d="M28503 12598
L28090 12185
" />
</g>
<g style="fill:#000000; fill-opacity:0.0; 
stroke:#000000; stroke-width:78.7402; stroke-opacity:1; 
stroke-linecap:round; stroke-linejoin:round;">
<path d="M24750 24061
L24724 24086
" />
</g>
<g style="fill:#000000; fill-opacity:0.0; 
stroke:#000000; stroke-width:98.4252; stroke-opacity:1; 
stroke-linecap:round; stroke-linejoin:round;">
<path d="M24750 22440
L24750 24061
" />
<path d="M21250 22711
L22788 22711
" />
<path d="M23059 22440
L24750 22440
" />
<path d="M22788 22711
L23059 22440
" />
<path d="M23059 19140
L23059 22440
" />
<path d="M27090 17993
L27097 18000
" />
<path d="M27090 17492
L27090 17993
" />
<path d="M27097 18000
L27097 18202
" />
<path d="M26600 18700
L23500 18700
" />
<path d="M23500 18700
L23059 19140
" />
<path d="M27097 18202
L26600 18700
" />
<path d="M26090 18161
L26090 17492
" />
<path d="M25708 18543
L26090 18161
" />
<path d="M20102 19948
L21501 18548
" />
<path d="M20102 21540
L20102 19948
" />
<path d="M21496 18543
L21501 18548
" />
<path d="M21501 18548
L25708 18543
" />
<path d="M25090 18059
L25090 17492
" />
<path d="M24783 18366
L25090 18059
" />
<path d="M16574 19921
L17401 19921
" />
<path d="M17401 19921
L18978 19921
" />
<path d="M24783 18366
L21433 18366
" />
<path d="M21433 18366
L19878 19921
" />
<path d="M19000 21540
L19000 19921
" />
<path d="M19878 19921
L19000 19921
" />
</g>
<g style="fill:#000000; fill-opacity:0.0; 
stroke:#000000; stroke-width:78.7402; stroke-opacity:1; 
stroke-linecap:round; stroke-linejoin:round;">
<path d="M19000 19921
L18978 19921
" />
</g>
<g style="fill:#000000; fill-opacity:0.0; 
stroke:#000000; stroke-width:98.4252; stroke-opacity:1; 
stroke-linecap:round; stroke-linejoin:round;">
<path d="M16614 21923
L16614 19921
" />
<path d="M16614 22480
L16614 21923
" />
<path d="M24090 17870
L24090 17492
" />
<path d="M24094 17874
L24090 17870
" />
<path d="M15501 21269
L15984 20787
" />
<path d="M16377 18188
L23779 18188
" />
<path d="M11210 21269
L15501 21269
" />
<path d="M15984 20787
L15984 18582
" />
<path d="M15984 18582
L16377 18188
" />
<path d="M23779 18188
L24094 17874
" />
<path d="M11181 21240
L11210 21269
" />
<path d="M11181 20295
L11181 21240
" />
</g>
<g style="fill:#000000; fill-opacity:0.0; 
stroke:#000000; stroke-width:196.85; stroke-opacity:1; 
stroke-linecap:round; stroke-linejoin:round;">
<path d="M22090 16676
L22090 17492
" />
<path d="M22388 16377
L22090 16676
" />
<path d="M39903 16377
L22388 16377
" />
<path d="M42401 19803
L42401 18875
" />
<path d="M42401 18875
L39903 16377
" />
<path d="M11181 22224
L11181 22618
" />
<path d="M11181 21830
L11181 22224
" />
<path d="M14088 19763
L10990 19763
" />
<path d="M14803 19921
L14246 19921
" />
<path d="M14246 19921
L14088 19763
" />
<path d="M35696 13858
L22090 13858
" />
<path d="M36141 13858
L35696 13858
" />
<path d="M22090 8492
L22090 13858
" />
<path d="M14842 19921
L14842 16653
" />
<path d="M22090 13858
L15196 13858
" />
<path d="M14842 14212
L14842 16653
" />
<path d="M15196 13858
L14842 14212
" />
</g>
<g style="fill:#000000; fill-opacity:0.0; 
stroke:#000000; stroke-width:78.7402; stroke-opacity:1; 
stroke-linecap:round; stroke-linejoin:round;">
<path d="M21269 21609
L21269 21540
" />
</g>
<g style="fill:#000000; fill-opacity:0.0; 
stroke:#000000; stroke-width:196.85; stroke-opacity:1; 
stroke-linecap:round; stroke-linejoin:round;">
<path d="M21269 21830
L21269 21609
" />
<path d="M11181 22618
L11181 23181
" />
<path d="M18300 22100
L21000 22100
" />
<path d="M11181 23181
L11500 23500
" />
<path d="M21000 22100
L21269 21830
" />
<path d="M17500 23500
L18000 23000
" />
<path d="M18000 22400
L18300 22100
" />
<path d="M18000 23000
L18000 22400
" />
<path d="M10990 19763
L10836 19763
" />
<path d="M10836 19763
L10700 19900
" />
<path d="M10700 21349
L11181 21830
" />
<path d="M10700 19900
L10700 21349
" />
<path d="M14842 22480
L14842 23457
" />
<path d="M11500 23500
L14800 23500
" />
</g>
<g style="fill:#000000; fill-opacity:0.0; 
stroke:#000000; stroke-width:98.4252; stroke-opacity:1; 
stroke-linecap:round; stroke-linejoin:round;">
<path d="M14842 23457
L14800 23500
" />
</g>
<g style="fill:#000000; fill-opacity:0.0; 
stroke:#000000; stroke-width:196.85; stroke-opacity:1; 
stroke-linecap:round; stroke-linejoin:round;">
<path d="M14800 23500
L17500 23500
" />
</g>
<g style="fill:#000000; fill-opacity:0.0; 
stroke:#000000; stroke-width:393.701; stroke-opacity:1; 
stroke-linecap:round; stroke-linejoin:round;">
<path d="M30984 31377
L38385 31377
" />
<path d="M30472 31889
L30984 31377
" />
<path d="M30472 40866
L30472 31889
" />
<path d="M19158 30629
L19886 29901
" />
<path d="M19886 29901
L19886 28976
" />
<path d="M19158 30629
L18189 31598
" />
<path d="M18189 31598
L15984 31598
" />
<path d="M15984 31598
L14803 31598
" />
</g>
<g style="fill:#000000; fill-opacity:0.0; 
stroke:#000000; stroke-width:787.402; stroke-opacity:1; 
stroke-linecap:round; stroke-linejoin:round;">
<path d="M13622 31598
L13500 31720
" />
<path d="M14803 31598
L13622 31598
" />
<path d="M13500 31720
L13500 33500
" />
<path d="M13500 33500
L14000 34000
" />
<path d="M14000 34000
L16500 34000
" />
<path d="M16500 34000
L17500 35000
" />
<path d="M17500 35000
L17500 37000
" />
<path d="M17500 37000
L18500 38000
" />
<path d="M18500 38000
L19500 38000
" />
<path d="M19500 38000
L20000 38500
" />
<path d="M20000 38500
L20000 41500
" />
<path d="M30472 42244
L30216 42500
" />
<path d="M30472 40866
L30472 42244
" />
<path d="M21000 42500
L20000 41500
" />
<path d="M30216 42500
L21000 42500
" />
<path d="M19055 34566
L19055 36566
" />
<path d="M15295 32598
L19055 32598
" />
<path d="M14803 32598
L15295 32598
" />
<path d="M19055 32598
L19055 34566
" />
</g>
<g style="fill:#000000; fill-opacity:0.0; 
stroke:#000000; stroke-width:98.4252; stroke-opacity:1; 
stroke-linecap:round; stroke-linejoin:round;">
<path d="M28472 32265
L28484 32253
" />
</g>
<g style="fill:#000000; fill-opacity:0.0; 
stroke:#000000; stroke-width:393.701; stroke-opacity:1; 
stroke-linecap:round; stroke-linejoin:round;">
<path d="M28472 40866
L28472 32265
" />
</g>
<g style="fill:#000000; fill-opacity:0.0; 
stroke:#000000; stroke-width:98.4252; stroke-opacity:1; 
stroke-linecap:round; stroke-linejoin:round;">
<path d="M26476 40862
L26472 40866
" />
</g>
<g style="fill:#000000; fill-opacity:0.0; 
stroke:#000000; stroke-width:393.701; stroke-opacity:1; 
stroke-linecap:round; stroke-linejoin:round;">
<path d="M26476 32253
L26476 40862
" />
</g>
<g style="fill:#000000; fill-opacity:0.0; 
stroke:#000000; stroke-width:1181.1; stroke-opacity:1; 
stroke-linecap:round; stroke-linejoin:round;">
<path d="M23385 40866
L26472 40866
" />
</g>
<g style="fill:#000000; fill-opacity:0.0; 
stroke:#000000; stroke-width:393.701; stroke-opacity:1; 
stroke-linecap:round; stroke-linejoin:round;">
<path d="M27856 30551
L39527 30551
" />
<path d="M26476 32253
L26476 31931
" />
<path d="M26476 31931
L27856 30551
" />
<path d="M39527 30551
L40354 31377
" />
</g>
<g style="fill:#000000; fill-opacity:0.0; 
stroke:#000000; stroke-width:787.402; stroke-opacity:1; 
stroke-linecap:round; stroke-linejoin:round;">
<path d="M21385 40866
L21385 36614
" />
<path d="M21385 36614
L22500 35500
" />
<path d="M25086 36566
L25086 34566
" />
<path d="M22500 35500
L25086 35500
" />
</g>
<g style="fill:#000000; fill-opacity:1.0; 
stroke:#000000; stroke-width:100; stroke-opacity:1; 
stroke-linecap:round; stroke-linejoin:round;">
<polyline style="fill-rule:evenodd;"
points="26808,6233
27887,6331
28958,6489
30019,6707
31066,6984
32096,7318
33106,7710
34093,8157
35052,8659
35983,9214
36881,9819
37743,10474
38568,11176
39353,11923
40094,12713
40790,13542
41439,14410
42039,15312
42587,16246
43082,17209
43522,18199
43907,19211
44234,20244
44504,21293
44714,22355
44865,23428
44955,24507
44960,24674
6223,24674
6242,24237
6256,24094
18526,24094
18570,24314
18695,24501
18881,24626
19046,24659
19158,24659
19322,24626
19509,24501
19610,24350
19648,24431
19812,24579
19964,24642
20052,24594
20052,24144
20044,24144
20044,24044
20052,24044
20052,23594
19964,23546
19812,23609
19648,23757
19610,23838
19509,23687
19322,23562
19158,23529
19046,23529
18881,23562
18695,23687
18570,23874
18526,24094
6256,24094
6347,23159
6513,22089
6738,21029
7022,19984
7050,19900
10344,19900
10351,19934
10351,21315
10344,21349
10371,21485
10429,21571
10429,21571
10448,21600
10477,21620
10738,21881
10729,21929
10729,22519
10748,22617
10804,22699
10832,22719
10832,23146
10825,23181
10852,23317
10910,23403
10910,23403
10929,23432
10958,23451
11229,23722
11248,23751
11277,23770
11277,23770
11329,23805
11364,23828
11465,23848
11465,23848
11500,23855
11534,23848
17465,23848
17500,23855
17534,23848
17534,23848
17635,23828
17751,23751
17770,23722
18222,23270
18251,23251
18328,23135
18348,23034
18348,23034
18355,23000
18348,22965
18348,22824
18405,22824
18405,23041
18443,23133
18513,23204
18605,23242
18887,23242
18950,23179
18950,22761
18468,22761
18405,22824
18348,22824
18348,22544
18405,22487
18405,22599
18468,22661
18950,22661
18950,22653
19050,22653
19050,22661
19057,22661
19057,22761
19050,22761
19050,23179
19112,23242
19394,23242
19486,23204
19556,23133
19573,23093
19606,23143
19721,23220
19842,23244
19844,23247
19886,23310
19911,23326
20169,23584
20152,23594
20152,24044
20160,24044
20160,24144
20152,24144
20152,24594
20239,24642
20392,24579
20539,24445
20551,24506
20607,24589
20689,24644
20787,24664
21417,24664
21514,24644
21597,24589
21652,24506
21672,24409
21672,23779
21652,23681
21597,23599
21514,23544
21417,23524
20955,23524
20584,23153
20598,23143
20674,23028
20676,23022
20677,23028
20754,23143
20868,23220
21003,23247
21496,23247
21631,23220
21745,23143
21822,23028
21826,23010
22758,23010
22788,23016
22817,23010
22817,23010
22905,22993
23004,22927
23020,22902
23182,22740
24271,22740
24278,22774
24333,22857
24416,22912
24450,22919
24450,23589
24317,23679
24192,23866
24148,24086
24192,24307
24317,24493
24503,24618
24668,24651
24780,24651
24944,24618
25131,24493
25232,24342
25270,24423
25434,24571
25586,24634
25674,24586
25674,24136
25774,24136
25774,24586
25861,24634
26014,24571
26178,24423
26272,24224
26224,24136
25774,24136
25674,24136
25666,24136
25666,24036
25674,24036
25674,23586
25774,23586
25774,24036
26224,24036
26272,23949
26178,23749
26014,23601
25861,23538
25774,23586
25674,23586
25586,23538
25434,23601
25270,23749
25232,23830
25131,23679
25049,23624
25049,22919
25083,22912
25166,22857
25221,22774
25241,22677
25241,22204
25221,22107
25191,22061
25241,21916
25229,21723
25178,21600
25089,21581
24820,21850
24826,21855
24755,21926
24750,21921
24744,21926
24673,21855
24679,21850
24410,21581
24321,21600
24258,21783
24270,21976
24306,22064
24278,22107
24271,22141
23358,22141
23358,21510
24481,21510
24750,21779
25018,21510
24999,21421
24816,21359
24623,21371
24500,21421
24481,21510
23358,21510
23358,20285
35927,20285
35970,20394
36225,20490
36496,20481
36706,20394
36750,20285
36338,19873
35927,20285
23358,20285
23358,19689
35651,19689
35660,19961
35747,20171
35856,20214
36267,19803
36409,19803
36820,20214
36929,20171
37025,19916
37016,19645
36929,19435
36820,19391
36409,19803
36267,19803
35856,19391
35747,19435
35651,19689
23358,19689
23358,19320
35927,19320
36338,19732
36750,19320
36706,19211
36452,19116
36180,19124
35970,19211
35927,19320
23358,19320
23358,19264
23623,18999
26570,18999
26600,19005
26629,18999
26629,18999
26716,18981
26815,18915
26832,18890
27288,18435
27313,18418
27379,18319
27396,18232
27396,18232
27402,18202
27396,18173
27396,18029
27398,18018
27432,18004
27590,17846
27748,18004
27970,18096
28210,18096
28432,18004
28590,17846
28748,18004
28970,18096
29210,18096
29432,18004
29602,17834
29694,17612
29694,17371
29602,17149
29432,16979
29210,16887
28970,16887
28748,16979
28590,17137
28432,16979
28210,16887
27970,16887
27748,16979
27590,17137
27432,16979
27210,16887
26970,16887
26748,16979
26590,17137
26432,16979
26210,16887
25970,16887
25748,16979
25590,17137
25432,16979
25210,16887
24970,16887
24748,16979
24590,17137
24432,16979
24210,16887
23970,16887
23748,16979
23578,17149
23575,17157
23515,17137
23161,17492
23166,17497
23096,17568
23090,17562
23084,17568
23014,17497
23019,17492
22665,17137
22606,17157
22602,17149
22519,17066
22736,17066
23090,17421
23445,17066
23411,16965
23185,16883
22945,16893
22770,16965
22736,17066
22519,17066
22438,16985
22438,16820
22532,16726
39759,16726
42053,19020
42053,19208
42014,19224
41822,19416
41718,19667
41718,19939
41822,20190
42014,20382
42265,20486
42537,20486
42788,20382
42980,20190
43084,19939
43084,19667
42980,19416
42788,19224
42750,19208
42750,18910
42756,18875
42750,18841
42750,18841
42729,18739
42683,18671
42672,18653
42672,18653
42652,18624
42623,18605
40174,16155
40154,16126
40039,16049
39938,16029
39938,16029
39903,16022
39869,16029
22422,16029
22388,16022
22354,16029
22354,16029
22252,16049
22166,16107
22166,16107
22137,16126
22118,16155
21868,16405
21839,16424
21762,16540
21742,16641
21742,16641
21735,16676
21742,16710
21742,16985
21578,17149
21486,17371
21486,17612
21578,17834
21633,17889
16407,17889
16377,17883
16348,17889
16348,17889
16261,17907
16162,17973
16145,17998
15793,18350
15768,18366
15751,18391
15751,18391
15702,18465
15679,18582
15685,18612
15685,20663
15378,20970
11480,20970
11480,20822
11558,20770
11613,20688
11632,20590
11632,20407
11994,20407
11994,20640
12032,20732
12102,20802
12194,20840
12328,20840
12390,20778
12390,20345
12490,20345
12490,20778
12553,20840
12687,20840
12779,20802
12849,20732
12887,20640
12887,20407
12825,20345
12490,20345
12390,20345
12056,20345
11994,20407
11632,20407
11632,20112
11994,20112
11994,20182
12056,20245
12390,20245
12390,20237
12490,20237
12490,20245
12825,20245
12887,20182
12887,20112
13944,20112
13975,20143
13995,20172
14110,20249
14212,20269
14212,20269
14246,20276
14280,20269
14290,20269
14296,20285
14477,20466
14714,20564
14970,20564
15207,20466
15388,20285
15486,20049
15486,19793
15388,19556
15207,19375
15190,19368
15190,15385
35021,15385
35021,15667
35060,15758
35130,15829
35222,15867
35439,15867
35502,15804
35502,15322
35602,15322
35602,15804
35664,15867
35882,15867
35974,15829
36044,15758
36083,15667
36083,15385
36020,15322
35602,15322
35502,15322
35084,15322
35021,15385
15190,15385
15190,14878
35021,14878
35021,15160
35084,15222
35502,15222
35502,14740
35602,14740
35602,15222
36020,15222
36083,15160
36083,14878
36044,14786
35974,14716
35882,14678
35664,14678
35602,14740
35502,14740
35439,14678
35222,14678
35130,14716
35060,14786
35021,14878
15190,14878
15190,14356
15341,14206
22056,14206
22090,14213
22124,14206
35691,14206
35821,14337
36029,14423
36254,14423
36424,14352
36424,14696
36406,14700
36291,14776
36215,14891
36188,15026
36188,15518
36215,15654
36291,15768
36406,15845
36541,15872
36905,15872
37041,15845
37155,15768
37232,15654
37259,15518
37259,15026
37232,14891
37155,14776
37041,14700
37022,14696
37022,13209
37028,13180
37022,13150
37022,13150
37005,13063
36939,12964
36914,12948
36706,12740
36706,12564
36620,12357
36461,12198
36254,12112
36029,12112
35821,12198
35720,12299
28627,12299
28389,12061
28389,9022
28432,9004
28590,8846
28748,9004
28970,9096
29210,9096
29432,9004
29602,8834
29694,8612
29694,8371
29602,8149
29432,7979
29210,7887
28970,7887
28748,7979
28590,8137
28432,7979
28210,7887
27970,7887
27748,7979
27590,8137
27432,7979
27210,7887
26970,7887
26748,7979
26590,8137
26432,7979
26210,7887
25970,7887
25748,7979
25590,8137
25432,7979
25210,7887
24970,7887
24748,7979
24590,8137
24432,7979
24210,7887
23970,7887
23748,7979
23590,8137
23432,7979
23210,7887
22970,7887
22748,7979
22590,8137
22432,7979
22210,7887
21970,7887
21748,7979
21578,8149
21486,8371
21486,8612
21578,8834
21742,8998
21742,13509
15231,13509
15196,13503
15162,13509
15162,13509
15060,13530
15060,13530
15060,13530
14974,13587
14974,13587
14945,13607
14926,13636
14620,13941
14591,13961
14514,14076
14494,14178
14494,14178
14487,14212
14494,14246
14494,16619
14494,19368
14477,19375
14340,19513
14340,19512
14224,19435
14123,19415
14123,19415
14088,19408
14054,19415
10870,19415
10836,19408
10801,19415
10801,19415
10700,19435
10585,19512
10565,19541
10477,19629
10448,19648
10371,19764
10351,19865
10351,19865
10344,19900
7050,19900
7364,18956
7763,17949
8217,16966
8726,16010
9287,15083
9899,14190
10559,13331
11267,12512
12020,11732
12814,10996
13649,10306
14521,9663
15427,9070
16365,8529
17332,8040
18324,7607
19339,7229
20374,6909
21425,6647
22489,6444
23563,6301
24643,6218
25725,6195
26808,6233
" /> 
</g> 
</svg>
