M48
;DRILL file {KiCad 5.0.2+dfsg1-1} date fre 14 jun 2019 16:56:59 CEST
;FORMAT={-:-/ absolute / inch / decimal}
FMAT,2
INCH,TZ
T1C0.0236
T2C0.0299
T3C0.0315
T4C0.0400
T5C0.0433
T6C0.0492
T7C0.0531
T8C0.0598
T9C0.0787
%
G90
G05
T1
X2.475Y-2.185
X2.475Y-2.2441
T2
X2.6476Y-2.9006
X2.6476Y-3.2254
X2.8484Y-2.9006
X2.8484Y-3.2254
T3
X1.9055Y-3.2598
X2.1024Y-3.2598
X3.6142Y-1.2677
X3.6142Y-1.3858
X1.9102Y-2.4094
X1.9102Y-2.7094
X2.0102Y-2.4094
X2.0102Y-2.7094
X2.1102Y-2.4094
X2.1102Y-2.7094
X2.4724Y-2.4087
X2.4724Y-2.7087
X2.5724Y-2.4087
X2.5724Y-2.7087
T4
X2.2091Y-0.8492
X2.2091Y-1.7492
X2.3091Y-0.8492
X2.3091Y-1.7492
X2.4091Y-0.8492
X2.4091Y-1.7492
X2.5091Y-0.8492
X2.5091Y-1.7492
X2.6091Y-0.8492
X2.6091Y-1.7492
X2.7091Y-0.8492
X2.7091Y-1.7492
X2.8091Y-0.8492
X2.8091Y-1.7492
X2.9091Y-0.8492
X2.9091Y-1.7492
T5
X1.4803Y-3.0598
X1.4803Y-3.1598
X1.4803Y-3.2598
X1.4843Y-1.9921
X1.4843Y-2.248
X1.6614Y-1.9921
X1.6614Y-2.248
T6
X3.6339Y-1.9803
X3.8386Y-3.1378
X4.0354Y-3.1378
X4.2402Y-1.9803
T7
X1.9055Y-3.4567
X1.9055Y-3.6567
X2.5087Y-3.4567
X2.5087Y-3.6567
T8
X2.6472Y-4.0866
X2.8472Y-4.0866
X3.0472Y-4.0866
X2.1386Y-4.0866
X2.3386Y-4.0866
T9
X1.2319Y-3.5142
X1.2319Y-2.8055
T0
M30
