<?xml version="1.0" standalone="no"?>
 <!DOCTYPE svg PUBLIC "-//W3C//DTD SVG 1.1//EN" 
 "http://www.w3.org/Graphics/SVG/1.1/DTD/svg11.dtd"> 
<svg xmlns="http://www.w3.org/2000/svg" version="1.1" 
    width="12.9997cm" height="18.001cm" viewBox="0 0 51180 70870 ">
<title>SVG Picture created as mains-light-controller-F.SilkS.svg date 2019/06/28 19:48:41 </title>
  <desc>Picture generated by PCBNEW </desc>
<g style="fill:#000000; fill-opacity:1;stroke:#000000; stroke-opacity:1;
stroke-linecap:round; stroke-linejoin:round; "
 transform="translate(0 0) scale(1 1)">
</g>
<g style="fill:#000000; fill-opacity:0.0; 
stroke:#000000; stroke-width:-0.000393701; stroke-opacity:1; 
stroke-linecap:round; stroke-linejoin:round;">
</g>
<g style="fill:#000000; fill-opacity:0.0; 
stroke:#000000; stroke-width:118.11; stroke-opacity:1; 
stroke-linecap:round; stroke-linejoin:round;">
<path d="M7911 19178
L8502 19178
L8080 19375
L8502 19572
L7911 19572
" />
<path d="M7911 20106
L8221 20106
L8277 20078
L8305 20022
L8305 19910
L8277 19853
" />
<path d="M7940 20106
L7911 20050
L7911 19910
L7940 19853
L7996 19825
L8052 19825
L8108 19853
L8136 19910
L8136 20050
L8165 20106
" />
<path d="M7911 20388
L8305 20388
" />
<path d="M8502 20388
L8474 20359
L8446 20388
L8474 20416
L8502 20388
L8446 20388
" />
<path d="M8305 20669
L7911 20669
" />
<path d="M8249 20669
L8277 20697
L8305 20753
L8305 20838
L8277 20894
L8221 20922
L7911 20922
" />
<path d="M7940 21175
L7911 21231
L7911 21344
L7940 21400
L7996 21428
L8024 21428
L8080 21400
L8108 21344
L8108 21259
L8136 21203
L8193 21175
L8221 21175
L8277 21203
L8305 21259
L8305 21344
L8277 21400
" />
<path d="M7911 22412
L7911 22131
L8502 22131
" />
<path d="M7911 22609
L8305 22609
" />
<path d="M8502 22609
L8474 22581
L8446 22609
L8474 22637
L8502 22609
L8446 22609
" />
<path d="M8305 23143
L7827 23143
L7771 23115
L7743 23087
L7715 23031
L7715 22947
L7743 22890
" />
<path d="M7940 23143
L7911 23087
L7911 22975
L7940 22919
L7968 22890
L8024 22862
L8193 22862
L8249 22890
L8277 22919
L8305 22975
L8305 23087
L8277 23143
" />
<path d="M7911 23425
L8502 23425
" />
<path d="M7911 23678
L8221 23678
L8277 23650
L8305 23593
L8305 23509
L8277 23453
L8249 23425
" />
<path d="M8305 23875
L8305 24100
" />
<path d="M8502 23959
L7996 23959
L7940 23987
L7911 24043
L7911 24100
" />
<path d="M7968 25084
L7940 25056
L7911 24971
L7911 24915
L7940 24831
L7996 24775
L8052 24746
L8165 24718
L8249 24718
L8361 24746
L8418 24775
L8474 24831
L8502 24915
L8502 24971
L8474 25056
L8446 25084
" />
<path d="M7911 25421
L7940 25365
L7968 25337
L8024 25309
L8193 25309
L8249 25337
L8277 25365
L8305 25421
L8305 25506
L8277 25562
L8249 25590
L8193 25618
L8024 25618
L7968 25590
L7940 25562
L7911 25506
L7911 25421
" />
<path d="M8305 25871
L7911 25871
" />
<path d="M8249 25871
L8277 25899
L8305 25956
L8305 26040
L8277 26096
L8221 26124
L7911 26124
" />
<path d="M8305 26321
L8305 26546
" />
<path d="M8502 26406
L7996 26406
L7940 26434
L7911 26490
L7911 26546
" />
<path d="M7911 26743
L8305 26743
" />
<path d="M8193 26743
L8249 26771
L8277 26799
L8305 26856
L8305 26912
" />
<path d="M7911 27193
L7940 27137
L7968 27109
L8024 27080
L8193 27080
L8249 27109
L8277 27137
L8305 27193
L8305 27277
L8277 27334
L8249 27362
L8193 27390
L8024 27390
L7968 27362
L7940 27334
L7911 27277
L7911 27193
" />
<path d="M7911 27727
L7940 27671
L7996 27643
L8502 27643
" />
<path d="M7911 28037
L7940 27980
L7996 27952
L8502 27952
" />
<path d="M7940 28487
L7911 28430
L7911 28318
L7940 28262
L7996 28233
L8221 28233
L8277 28262
L8305 28318
L8305 28430
L8277 28487
L8221 28515
L8165 28515
L8108 28233
" />
<path d="M7911 28768
L8305 28768
" />
<path d="M8193 28768
L8249 28796
L8277 28824
L8305 28880
L8305 28937
" />
<path d="M8305 29527
L7911 29668
L8305 29808
" />
<path d="M7911 30343
L7911 30005
" />
<path d="M7911 30174
L8502 30174
L8418 30118
L8361 30061
L8333 30005
" />
<path d="M7968 30596
L7940 30624
L7911 30596
L7940 30568
L7968 30596
L7911 30596
" />
<path d="M8502 30989
L8502 31046
L8474 31102
L8446 31130
L8390 31158
L8277 31186
L8136 31186
L8024 31158
L7968 31130
L7940 31102
L7911 31046
L7911 30989
L7940 30933
L7968 30905
L8024 30877
L8136 30849
L8277 30849
L8390 30877
L8446 30905
L8474 30933
L8502 30989
" />
<path d="M7968 31439
L7940 31467
L7911 31439
L7940 31411
L7968 31439
L7911 31439
" />
<path d="M7911 32030
L7911 31692
" />
<path d="M7911 31861
L8502 31861
L8418 31805
L8361 31749
L8333 31692
" />
<path d="M7301 22764
L6908 22876
L7189 22989
L6908 23101
L7301 23214
" />
<path d="M7301 23383
L6908 23495
L7189 23607
L6908 23720
L7301 23832
" />
<path d="M7301 24001
L6908 24114
L7189 24226
L6908 24339
L7301 24451
" />
<path d="M6964 24676
L6936 24704
L6908 24676
L6936 24648
L6964 24676
L6908 24676
" />
<path d="M6936 24929
L6908 24985
L6908 25098
L6936 25154
L6992 25182
L7020 25182
L7076 25154
L7104 25098
L7104 25014
L7133 24957
L7189 24929
L7217 24929
L7273 24957
L7301 25014
L7301 25098
L7273 25154
" />
<path d="M6908 25520
L6936 25464
L6992 25435
L7498 25435
" />
<path d="M6908 25745
L7301 25745
" />
<path d="M7498 25745
L7470 25717
L7442 25745
L7470 25773
L7498 25745
L7442 25745
" />
<path d="M6908 26026
L7301 26026
" />
<path d="M7245 26026
L7273 26054
L7301 26110
L7301 26195
L7273 26251
L7217 26279
L6908 26279
" />
<path d="M7217 26279
L7273 26307
L7301 26363
L7301 26448
L7273 26504
L7217 26532
L6908 26532
" />
<path d="M6936 27066
L6908 27010
L6908 26898
L6936 26841
L6964 26813
L7020 26785
L7189 26785
L7245 26813
L7273 26841
L7301 26898
L7301 27010
L7273 27066
" />
<path d="M6964 27320
L6936 27348
L6908 27320
L6936 27291
L6964 27320
L6908 27320
" />
<path d="M6936 27826
L6908 27769
L6908 27657
L6936 27601
L6992 27573
L7217 27573
L7273 27601
L7301 27657
L7301 27769
L7273 27826
L7217 27854
L7161 27854
L7104 27573
" />
<path d="M7301 28360
L6908 28360
" />
<path d="M7301 28107
L6992 28107
L6936 28135
L6908 28191
L6908 28276
L6936 28332
L6964 28360
" />
<path d="M27016 38838
L27297 38838
" />
<path d="M26960 39007
L27156 38416
L27353 39007
" />
<path d="M27888 38951
L27859 38979
L27775 39007
L27719 39007
L27634 38979
L27578 38922
L27550 38866
L27522 38754
L27522 38669
L27550 38557
L27578 38501
L27634 38444
L27719 38416
L27775 38416
L27859 38444
L27888 38473
" />
<path d="M28141 38782
L28591 38782
" />
<path d="M28872 39007
L28872 38416
" />
<path d="M29153 39007
L29153 38416
L29491 39007
L29491 38416
" />
<path d="M21766 39007
L21484 39007
L21484 38416
" />
<path d="M22075 38416
L22187 38416
L22244 38444
L22300 38501
L22328 38613
L22328 38810
L22300 38922
L22244 38979
L22187 39007
L22075 39007
L22019 38979
L21962 38922
L21934 38810
L21934 38613
L21962 38501
L22019 38444
L22075 38416
" />
<path d="M22553 38838
L22834 38838
" />
<path d="M22497 39007
L22694 38416
L22890 39007
" />
<path d="M23087 39007
L23087 38416
L23228 38416
L23312 38444
L23368 38501
L23397 38557
L23425 38669
L23425 38754
L23397 38866
L23368 38922
L23312 38979
L23228 39007
L23087 39007
" />
<path d="M21498 43416
L21217 43416
L21217 42826
" />
<path d="M22145 43191
L22595 43191
" />
<path d="M23326 43416
L23326 42826
L23664 43416
L23664 42826
" />
<path d="M25793 43416
L25793 42826
L26085 43416
L26085 42826
" />
<path d="M26719 43191
L27109 43191
" />
<path d="M27742 43416
L27742 42826
L27913 43248
L28083 42826
L28083 43416
" />
<path d="M28595 43416
L28303 43416
" />
<path d="M28449 43416
L28449 42826
L28400 42910
L28352 42966
L28303 42994
" />
<path d="M29205 43191
L29595 43191
" />
<path d="M30228 43416
L30228 42826
L30399 43248
L30569 42826
L30569 43416
" />
<path d="M30789 42882
L30813 42854
L30862 42826
L30984 42826
L31032 42854
L31057 42882
L31081 42938
L31081 42994
L31057 43079
L30764 43416
L31081 43416
" />
</g>
<g style="fill:#000000; fill-opacity:0.0; 
stroke:#000000; stroke-width:47.2441; stroke-opacity:1; 
stroke-linecap:round; stroke-linejoin:round;">
<path d="M23350 35566
L20791 35566
" />
<path d="M27137 36917
L25637 36917
" />
<path d="M23338 36917
L24535 36917
" />
<path d="M24322 36566
L24535 36566
" />
<path d="M26787 36566
L25736 36566
" />
<path d="M23338 34566
L24437 34566
" />
<path d="M26787 34566
L25736 34566
" />
<path d="M27137 34216
L25688 34216
" />
<path d="M23338 34216
L24488 34216
" />
<path d="M17003 36917
L18456 36917
" />
<path d="M20755 36917
L19653 36917
" />
<path d="M19755 36566
L19704 36566
" />
<path d="M19755 36566
L20755 36566
" />
<path d="M17307 36566
L18405 36566
" />
<path d="M17003 34216
L18503 34216
" />
<path d="M20755 34216
L19653 34216
" />
<path d="M20755 34566
L19704 34566
" />
<path d="M17307 34566
L18405 34566
" />
<path d="M27137 34216
L27137 36917
" />
<path d="M23338 36917
L23338 36566
" />
<path d="M23338 34216
L23338 34566
" />
<path d="M17003 34216
L17003 36917
" />
<path d="M20755 36917
L20755 36566
" />
<path d="M20755 34216
L20755 34618
" />
<path d="M24322 36566
L19720 36566
" />
<path d="M19771 34566
L24322 34566
" />
<path d="M20755 35566
L20755 34566
" />
<path d="M17307 34566
L17307 36566
" />
<path d="M20755 36566
L20755 35566
" />
<path d="M23338 35566
L23338 34566
" />
<path d="M26787 34566
L26787 36566
" />
<path d="M23338 36566
L23338 35566
" />
</g>
<g style="fill:#000000; fill-opacity:0.0; 
stroke:#000000; stroke-width:78.7402; stroke-opacity:1; 
stroke-linecap:round; stroke-linejoin:round;">
<path d="M29155 28777
L29155 31909
" />
<path d="M25805 29350
L25805 31909
" />
</g>
<g style="fill:#000000; fill-opacity:0.0; 
stroke:#000000; stroke-width:59.0551; stroke-opacity:1; 
stroke-linecap:round; stroke-linejoin:round;">
<path d="M13303 31598
L13303 35929
" />
<path d="M13342 31598
L13303 31598
" />
<path d="M15940 35929
L13303 35929
" />
<path d="M15940 36322
L15940 35929
" />
<path d="M9720 36322
L15940 36322
" />
<path d="M9720 26874
L9720 36322
" />
<path d="M15940 26874
L9720 26874
" />
<path d="M15940 27267
L15940 26874
" />
<path d="M13303 27267
L15940 27267
" />
<path d="M13303 31598
L13303 27267
" />
</g>
<g style="fill:#000000; fill-opacity:0.0; 
stroke:#000000; stroke-width:47.2441; stroke-opacity:1; 
stroke-linecap:round; stroke-linejoin:round;">
<path d="M13515 30869
L14110 30869
" />
<path d="M13515 32326
L14110 32326
" />
<path d="M14110 33614
L14110 29582
" />
<path d="M13515 29582
L15342 29582
" />
<path d="M13515 33614
L15342 33614
" />
<path d="M15342 33614
L15342 29582
" />
<path d="M13515 33614
L13515 29582
" />
<path d="M24366 29290
L24366 29764
" />
<path d="M25082 29290
L25082 29764
" />
<path d="M20891 22363
L20891 21888
" />
<path d="M21608 22363
L21608 21888
" />
<path d="M20235 29334
L20709 29334
" />
<path d="M20235 28618
L20709 28618
" />
<path d="M19744 22363
L19744 21888
" />
<path d="M20460 22363
L20460 21888
" />
<path d="M36375 14914
L35901 14914
" />
<path d="M36375 15631
L35901 15631
" />
<path d="M18641 22363
L18641 21888
" />
<path d="M19358 22363
L19358 21888
" />
<path d="M19526 30094
L20630 30094
" />
<path d="M19526 31165
L20630 31165
" />
<path d="M36968 13818
L36968 12716
" />
<path d="M35314 13818
L35314 12716
" />
<path d="M36972.1 12722 A993.656 993.656 0.0 0 0 35315 12716.5 " />
<path d="M35311.3 13813.4 A993.656 993.656 0.0 0 0 36968.5 13818.9 " />
</g>
<g style="fill:#000000; fill-opacity:0.0; 
stroke:#000000; stroke-width:59.0551; stroke-opacity:1; 
stroke-linecap:round; stroke-linejoin:round;">
<path d="M18385 18240
L31409 18240
" />
<path d="M32196 17452
L32196 8531
" />
<path d="M31409 7744
L21141 7744
" />
<path d="M18385 8590
L18385 11685
" />
<path d="M18385 11685
L18779 11685
" />
<path d="M18779 11685
L18779 14921
" />
<path d="M18779 14921
L18385 14921
" />
<path d="M18385 14921
L18385 18240
" />
<path d="M32196.9 8531.5 A787.402 787.402 0.0 0 0 31409.4 7744.09 " />
<path d="M31409.4 18240.2 A787.402 787.402 0.0 0 0 32196.9 17452.8 " />
<path d="M18385 8590
L20748 8590
" />
<path d="M20748 8590.55 A393.701 393.701 0.0 0 0 21141.7 8196.85 " />
<path d="M21141 8200
L21141 7744
" />
<path d="M21141 7744
L21141 7744
" />
</g>
<g style="fill:#000000; fill-opacity:0.0; 
stroke:#000000; stroke-width:50; stroke-opacity:1; 
stroke-linecap:round; stroke-linejoin:round;">
<path d="M35433 18897
L35433 32283
" />
<path d="M43307 32283
L43307 18897
" />
<path d="M35433 32283
L43307 32283
" />
<path d="M43307 18897
L35433 18897
" />
</g>
<g style="fill:#000000; fill-opacity:0.0; 
stroke:#000000; stroke-width:47.2441; stroke-opacity:1; 
stroke-linecap:round; stroke-linejoin:round;">
<path d="M14448 20314
L14448 22086
" />
<path d="M16023 19822
L15433 19822
" />
<path d="M17007 22086
L17007 20314
" />
<path d="M15433 22578
L16023 22578
" />
<path d="M24200 22960
L24358 22960
" />
<path d="M24279 23039
L24279 22881
" />
<path d="M24604 21326
L24895 21326
" />
<path d="M24538 21342
L24961 21342
" />
<path d="M24488 21357
L25011 21357
" />
<path d="M24447 21373
L25052 21373
" />
<path d="M24411 21389
L25088 21389
" />
<path d="M24379 21405
L25120 21405
" />
<path d="M24351 21420
L25148 21420
" />
<path d="M24324 21436
L25175 21436
" />
<path d="M24300 21452
L25199 21452
" />
<path d="M24277 21468
L25222 21468
" />
<path d="M24256 21483
L25243 21483
" />
<path d="M24236 21499
L25263 21499
" />
<path d="M24218 21515
L25281 21515
" />
<path d="M25080 21531
L25299 21531
" />
<path d="M24200 21531
L24419 21531
" />
<path d="M25080 21546
L25316 21546
" />
<path d="M24183 21546
L24419 21546
" />
<path d="M25080 21562
L25331 21562
" />
<path d="M24168 21562
L24419 21562
" />
<path d="M25080 21578
L25346 21578
" />
<path d="M24153 21578
L24419 21578
" />
<path d="M25080 21594
L25361 21594
" />
<path d="M24138 21594
L24419 21594
" />
<path d="M25080 21609
L25374 21609
" />
<path d="M24125 21609
L24419 21609
" />
<path d="M25080 21625
L25387 21625
" />
<path d="M24112 21625
L24419 21625
" />
<path d="M25080 21641
L25399 21641
" />
<path d="M24100 21641
L24419 21641
" />
<path d="M25080 21657
L25411 21657
" />
<path d="M24088 21657
L24419 21657
" />
<path d="M25080 21672
L25422 21672
" />
<path d="M24077 21672
L24419 21672
" />
<path d="M25080 21688
L25433 21688
" />
<path d="M24066 21688
L24419 21688
" />
<path d="M25080 21704
L25442 21704
" />
<path d="M24057 21704
L24419 21704
" />
<path d="M25080 21720
L25452 21720
" />
<path d="M24047 21720
L24419 21720
" />
<path d="M25080 21735
L25461 21735
" />
<path d="M24038 21735
L24419 21735
" />
<path d="M25080 21751
L25470 21751
" />
<path d="M24029 21751
L24419 21751
" />
<path d="M25080 21767
L25478 21767
" />
<path d="M24021 21767
L24419 21767
" />
<path d="M25080 21783
L25486 21783
" />
<path d="M24013 21783
L24419 21783
" />
<path d="M25080 21798
L25493 21798
" />
<path d="M24006 21798
L24419 21798
" />
<path d="M25080 21814
L25500 21814
" />
<path d="M23999 21814
L24419 21814
" />
<path d="M25080 21830
L25507 21830
" />
<path d="M23992 21830
L24419 21830
" />
<path d="M25080 21846
L25513 21846
" />
<path d="M23986 21846
L24419 21846
" />
<path d="M25080 21861
L25519 21861
" />
<path d="M23980 21861
L24419 21861
" />
<path d="M25080 21877
L25524 21877
" />
<path d="M23975 21877
L24419 21877
" />
<path d="M25080 21893
L25530 21893
" />
<path d="M23969 21893
L24419 21893
" />
<path d="M25080 21909
L25535 21909
" />
<path d="M23964 21909
L24419 21909
" />
<path d="M25080 21925
L25539 21925
" />
<path d="M23960 21925
L24419 21925
" />
<path d="M25080 21940
L25543 21940
" />
<path d="M23956 21940
L24419 21940
" />
<path d="M25080 21956
L25547 21956
" />
<path d="M23952 21956
L24419 21956
" />
<path d="M25080 21972
L25550 21972
" />
<path d="M23949 21972
L24419 21972
" />
<path d="M25080 21988
L25553 21988
" />
<path d="M23946 21988
L24419 21988
" />
<path d="M25080 22003
L25557 22003
" />
<path d="M23942 22003
L24419 22003
" />
<path d="M25080 22019
L25559 22019
" />
<path d="M23940 22019
L24419 22019
" />
<path d="M25080 22035
L25561 22035
" />
<path d="M23938 22035
L24419 22035
" />
<path d="M25080 22051
L25563 22051
" />
<path d="M23936 22051
L24419 22051
" />
<path d="M25080 22066
L25565 22066
" />
<path d="M23934 22066
L24419 22066
" />
<path d="M25080 22082
L25566 22082
" />
<path d="M23933 22082
L24419 22082
" />
<path d="M25080 22098
L25567 22098
" />
<path d="M23932 22098
L24419 22098
" />
<path d="M23931 22114
L24419 22114
" />
<path d="M25080 22114
L25568 22114
" />
<path d="M23931 22129
L24419 22129
" />
<path d="M25080 22129
L25568 22129
" />
<path d="M23931 22145
L24419 22145
" />
<path d="M25080 22145
L25568 22145
" />
<circle cx="24750" cy="22145.7" r="834.646" /> 
<path d="M21090 33275
L18988 33275
" />
<path d="M21090 31920
L18988 31920
" />
<path d="M21090 33275
L21090 33013
" />
<path d="M21090 32183
L21090 31920
" />
<path d="M18988 33275
L18988 33013
" />
<path d="M18988 32183
L18988 31920
" />
<path d="M12893 19822
L12440 19822
" />
<path d="M12893 22696
L12893 19822
" />
<path d="M10728 22696
L10728 19822
" />
<path d="M31472 39366
L31472 42366
" />
<path d="M25472 39366
L25472 42366
" />
<path d="M31472 39866
L25472 39866
" />
<path d="M31472 42366
L25472 42366
" />
<path d="M31472 39366
L25472 39366
" />
<path d="M20385 39866
L24385 39866
" />
<path d="M20385 39366
L20385 42366
" />
<path d="M20385 42366
L24385 42366
" />
<path d="M24385 42366
L24385 39366
" />
<path d="M24385 39366
L20385 39366
" />
<path d="M24200 24543
L24200 25192
" />
<path d="M26248 24543
L24200 24543
" />
<path d="M26248 26629
L26248 24543
" />
<path d="M24200 26629
L26248 26629
" />
<path d="M24200 25980
L24200 26629
" />
<path d="M24200.8 25980.3 A393.701 393.701 0.0 0 0 24200.8 25192.9 " />
<path d="M21625 26637
L21625 25988
" />
<path d="M18578 26637
L21625 26637
" />
<path d="M18578 24551
L18578 26637
" />
<path d="M21625 24551
L18578 24551
" />
<path d="M21625 25200
L21625 24551
" />
<path d="M21626 25200.8 A393.701 393.701 0.0 0 0 21626 25988.2 " />
</g>
<g style="fill:#000000; fill-opacity:0.0; 
stroke:#000000; stroke-width:59.0551; stroke-opacity:1; 
stroke-linecap:round; stroke-linejoin:round;">
<path d="M21919 34062
L21788 34062
" />
<path d="M21788 34268
L21788 33874
L21976 33874
" />
<path d="M22332 34268
L22107 34268
" />
<path d="M22219 34268
L22219 33874
L22182 33931
L22144 33968
L22107 33987
" />
</g>
<g style="fill:#000000; fill-opacity:0.0; 
stroke:#000000; stroke-width:100; stroke-opacity:1; 
stroke-linecap:round; stroke-linejoin:round;">
<path d="M27444 31082
L27468 31010
L27492 30987
L27539 30963
L27611 30963
L27658 30987
L27682 31010
L27706 31058
L27706 31248
L27206 31248
L27206 31082
L27230 31034
L27254 31010
L27301 30987
L27349 30987
L27396 31010
L27420 31034
L27444 31082
L27444 31248
" />
<path d="M27706 30463
L27468 30629
" />
<path d="M27706 30748
L27206 30748
L27206 30558
L27230 30510
L27254 30487
L27301 30463
L27373 30463
L27420 30487
L27444 30510
L27468 30558
L27468 30748
" />
<path d="M27706 29987
L27706 30272
" />
<path d="M27706 30129
L27206 30129
L27277 30177
L27325 30225
L27349 30272
" />
</g>
<g style="fill:#000000; fill-opacity:0.0; 
stroke:#000000; stroke-width:59.0551; stroke-opacity:1; 
stroke-linecap:round; stroke-linejoin:round;">
<path d="M13337 31635
L13318 31673
L13281 31710
L13225 31767
L13206 31804
L13206 31842
" />
<path d="M13300 31823
L13281 31860
L13243 31898
L13168 31917
L13037 31917
L12962 31898
L12925 31860
L12906 31823
L12906 31748
L12925 31710
L12962 31673
L13037 31654
L13168 31654
L13243 31673
L13281 31710
L13300 31748
L13300 31823
" />
<path d="M13300 31279
L13300 31504
" />
<path d="M13300 31392
L12906 31392
L12962 31429
L13000 31467
L13018 31504
" />
<path d="M25619 29593
L25431 29724
" />
<path d="M25619 29818
L25225 29818
L25225 29668
L25244 29630
L25262 29611
L25300 29593
L25356 29593
L25394 29611
L25412 29630
L25431 29668
L25431 29818
" />
<path d="M25619 29218
L25619 29443
" />
<path d="M25619 29330
L25225 29330
L25281 29368
L25319 29405
L25337 29443
" />
<path d="M20711 22191
L20524 22322
" />
<path d="M20711 22416
L20317 22416
L20317 22266
L20336 22229
L20355 22210
L20392 22191
L20449 22191
L20486 22210
L20505 22229
L20524 22266
L20524 22416
" />
<path d="M20355 22041
L20336 22022
L20317 21985
L20317 21891
L20336 21854
L20355 21835
L20392 21816
L20430 21816
L20486 21835
L20711 22060
L20711 21816
" />
<path d="M20406 28437
L20275 28250
" />
<path d="M20181 28437
L20181 28044
L20331 28044
L20369 28062
L20388 28081
L20406 28119
L20406 28175
L20388 28212
L20369 28231
L20331 28250
L20181 28250
" />
<path d="M20538 28044
L20781 28044
L20650 28194
L20706 28194
L20744 28212
L20763 28231
L20781 28269
L20781 28362
L20763 28400
L20744 28419
L20706 28437
L20594 28437
L20556 28419
L20538 28400
" />
<path d="M19563 22191
L19376 22322
" />
<path d="M19563 22416
L19170 22416
L19170 22266
L19188 22229
L19207 22210
L19245 22191
L19301 22191
L19338 22210
L19357 22229
L19376 22266
L19376 22416
" />
<path d="M19170 21835
L19170 22022
L19357 22041
L19338 22022
L19320 21985
L19320 21891
L19338 21854
L19357 21835
L19395 21816
L19488 21816
L19526 21835
L19545 21854
L19563 21891
L19563 21985
L19545 22022
L19526 22041
" />
<path d="M36072 16167
L35941 15979
" />
<path d="M35847 16167
L35847 15773
L35997 15773
L36035 15792
L36053 15811
L36072 15848
L36072 15904
L36053 15942
L36035 15961
L35997 15979
L35847 15979
" />
<path d="M36409 15773
L36334 15773
L36297 15792
L36278 15811
L36241 15867
L36222 15942
L36222 16092
L36241 16129
L36259 16148
L36297 16167
L36372 16167
L36409 16148
L36428 16129
L36447 16092
L36447 15998
L36428 15961
L36409 15942
L36372 15923
L36297 15923
L36259 15942
L36241 15961
L36222 15998
" />
<path d="M18461 22191
L18274 22322
" />
<path d="M18461 22416
L18067 22416
L18067 22266
L18086 22229
L18105 22210
L18142 22191
L18199 22191
L18236 22210
L18255 22229
L18274 22266
L18274 22416
" />
<path d="M18236 21966
L18217 22004
L18199 22022
L18161 22041
L18142 22041
L18105 22022
L18086 22004
L18067 21966
L18067 21891
L18086 21854
L18105 21835
L18142 21816
L18161 21816
L18199 21835
L18217 21854
L18236 21891
L18236 21966
L18255 22004
L18274 22022
L18311 22041
L18386 22041
L18424 22022
L18442 22004
L18461 21966
L18461 21891
L18442 21854
L18424 21835
L18386 21816
L18311 21816
L18274 21835
L18255 21854
L18236 21891
" />
<path d="M20013 29910
L19881 29722
" />
<path d="M19788 29910
L19788 29516
L19938 29516
L19975 29535
L19994 29554
L20013 29591
L20013 29647
L19994 29685
L19975 29704
L19938 29722
L19788 29722
" />
<path d="M20350 29647
L20350 29910
" />
<path d="M20256 29497
L20163 29779
L20406 29779
" />
<path d="M35178 13333
L34990 13464
" />
<path d="M35178 13558
L34784 13558
L34784 13408
L34803 13370
L34821 13352
L34859 13333
L34915 13333
L34953 13352
L34971 13370
L34990 13408
L34990 13558
" />
<path d="M34784 13202
L34784 12939
L35178 13108
" />
<path d="M17776 13292
L18095 13292
L18132 13273
L18151 13254
L18170 13217
L18170 13142
L18151 13104
L18132 13085
L18095 13067
L17776 13067
" />
<path d="M17907 12710
L18170 12710
" />
<path d="M17757 12804
L18038 12898
L18038 12654
" />
</g>
<g style="fill:#000000; fill-opacity:0.0; 
stroke:#000000; stroke-width:50; stroke-opacity:1; 
stroke-linecap:round; stroke-linejoin:round;">
<path d="M35441 32426
L35441 32669
L35455 32697
L35470 32711
L35498 32726
L35555 32726
L35584 32711
L35598 32697
L35612 32669
L35612 32426
" />
<path d="M35741 32454
L35755 32440
L35784 32426
L35855 32426
L35884 32440
L35898 32454
L35912 32483
L35912 32511
L35898 32554
L35727 32726
L35912 32726
" />
</g>
<g style="fill:#000000; fill-opacity:0.0; 
stroke:#000000; stroke-width:59.0551; stroke-opacity:1; 
stroke-linecap:round; stroke-linejoin:round;">
<path d="M17560 21725
L17579 21669
L17579 21575
L17560 21538
L17542 21519
L17504 21500
L17467 21500
L17429 21519
L17410 21538
L17392 21575
L17373 21650
L17354 21688
L17335 21706
L17298 21725
L17260 21725
L17223 21706
L17204 21688
L17185 21650
L17185 21556
L17204 21500
" />
<path d="M17185 21369
L17579 21275
L17298 21200
L17579 21125
L17185 21032
" />
<path d="M17579 20675
L17579 20900
" />
<path d="M17579 20788
L17185 20788
L17242 20825
L17279 20863
L17298 20900
" />
<path d="M23611 22211
L23629 22230
L23648 22286
L23648 22323
L23629 22380
L23592 22417
L23554 22436
L23479 22455
L23423 22455
L23348 22436
L23311 22417
L23273 22380
L23254 22323
L23254 22286
L23273 22230
L23292 22211
" />
<path d="M23648 21836
L23648 22061
" />
<path d="M23648 21948
L23254 21948
L23311 21986
L23348 22023
L23367 22061
" />
<path d="M19973 33861
L19955 33879
L19898 33898
L19861 33898
L19805 33879
L19767 33842
L19748 33804
L19730 33729
L19730 33673
L19748 33598
L19767 33561
L19805 33523
L19861 33504
L19898 33504
L19955 33523
L19973 33542
" />
<path d="M20329 33504
L20142 33504
L20123 33692
L20142 33673
L20179 33654
L20273 33654
L20311 33673
L20329 33692
L20348 33729
L20348 33823
L20329 33861
L20311 33879
L20273 33898
L20179 33898
L20142 33879
L20123 33861
" />
<path d="M10611 21550
L10217 21550
L10217 21456
L10236 21400
L10273 21362
L10311 21344
L10386 21325
L10442 21325
L10517 21344
L10554 21362
L10592 21400
L10611 21456
L10611 21550
" />
<path d="M10611 20950
L10611 21175
" />
<path d="M10611 21062
L10217 21062
L10273 21100
L10311 21137
L10329 21175
" />
<path d="M11359 22781
L11359 23006
" />
<path d="M11359 22893
L10965 22893
L11021 22931
L11059 22968
L11077 23006
" />
<path d="M30971 41831
L30971 42112
L30952 42169
L30914 42206
L30858 42225
L30821 42225
" />
<path d="M31364 42225
L31139 42225
" />
<path d="M31252 42225
L31252 41831
L31214 41887
L31177 41925
L31139 41944
" />
<path d="M23884 41831
L23884 42112
L23865 42169
L23828 42206
L23772 42225
L23734 42225
" />
<path d="M24053 41869
L24071 41850
L24109 41831
L24203 41831
L24240 41850
L24259 41869
L24278 41906
L24278 41944
L24259 42000
L24034 42225
L24278 42225
" />
<path d="M23591 25886
L23910 25886
L23947 25867
L23966 25849
L23985 25811
L23985 25736
L23966 25699
L23947 25680
L23910 25661
L23591 25661
" />
<path d="M23985 25267
L23985 25492
" />
<path d="M23985 25380
L23591 25380
L23647 25417
L23685 25455
L23703 25492
" />
<path d="M21804 25894
L22122 25894
L22160 25875
L22179 25856
L22197 25819
L22197 25744
L22179 25706
L22160 25688
L22122 25669
L21804 25669
" />
<path d="M21804 25519
L21804 25275
L21954 25407
L21954 25350
L21972 25313
L21991 25294
L22029 25275
L22122 25275
L22160 25294
L22179 25313
L22197 25350
L22197 25463
L22179 25500
L22160 25519
" />
</g> 
</svg>
